<svg id="Layer_1" data-name="Layer 1" xmlns="http://www.w3.org/2000/svg" viewBox="0 0 725 704"><defs><style>.cls-1{fill:#fff;}</style></defs><path class="cls-1" d="M354.32,12.49c176.19,0,319.22,143,319.22,319.19S530.4,651.06,354.32,651C177.7,650.94,34.88,507.78,35.05,331,35.22,155.22,178.3,12.49,354.32,12.49ZM258.53,310.05c1-.34,1.78-.61,2.59-.91,12.23-4.52,24.66-7.61,37.87-5.47,7.37,1.2,13.63,3.79,16,11.76a38.59,38.59,0,0,1,1.48,8.53c.69,11.12-1.58,21.86-4.27,32.53-5.15,20.41-11.22,40.57-17,60.8-4.94,17.35-9.57,34.69-10.74,52.85-1.49,23.26,9.07,41.62,30.29,51.07a71.32,71.32,0,0,0,24.81,5.62c13.36.84,26.59,0,39.42-4,13.71-4.35,27-9.83,40.45-14.93a2.73,2.73,0,0,0,1.81-2.25c1.19-5.13,2.43-10.24,3.64-15.36a25.12,25.12,0,0,0,1.08-5.13c-2.54.9-4.9,1.78-7.28,2.58-11.64,3.95-23.48,5.61-35.72,3.28-7.86-1.5-13.32-5.53-15.07-13.69a41,41,0,0,1-1-8c-.13-10.93,1.86-21.61,4.68-32.07,6.17-22.89,12.51-45.74,19.26-68.47,4.93-16.62,8.11-33.42,8.1-50.78a47.84,47.84,0,0,0-30.63-44.77c-17.56-6.83-35.58-6.77-53.66-2.75-17.12,3.81-33.36,10.39-49.65,16.75a2.53,2.53,0,0,0-1.68,2.08c-1.28,5.48-2.67,10.94-4,16.42C259,307.08,258.36,308.38,258.53,310.05Zm125-174.82c-15.74.06-28.29,5.45-38.47,16.39-13.34,14.36-15.26,36.94-4.41,53.13,18,26.82,57.77,29.45,79.61,5.25a43,43,0,0,0,2.43-55.06C412.69,141.83,399.22,135.37,383.57,135.23Z"/></svg>