<svg width="14" height="15" fill="none" xmlns="http://www.w3.org/2000/svg"><path d="M7 7.5c.32 0 .596-.114.824-.343a1.12 1.12 0 00.343-.824c0-.32-.114-.595-.343-.824A1.126 1.126 0 007 5.167c-.32 0-.595.115-.824.343a1.126 1.126 0 00-.343.824c0 .321.115.596.343.824.229.23.504.343.824.343zm0 5.833c-1.565-1.332-2.734-2.569-3.507-3.711-.773-1.142-1.16-2.2-1.16-3.172 0-1.458.47-2.62 1.408-3.486C4.679 2.1 5.766 1.667 7 1.667c1.235 0 2.321.432 3.26 1.297.938.866 1.407 2.028 1.407 3.486 0 .972-.387 2.03-1.16 3.172-.772 1.143-1.941 2.38-3.507 3.711z" fill="#000" fill-opacity=".5"/></svg>