<svg width="24" height="24" viewBox="0 0 24 24" fill="none" xmlns="http://www.w3.org/2000/svg">
<path d="M12 13.9998C11.7167 13.9998 11.4793 13.9038 11.288 13.7118C11.0967 13.5198 11.0007 13.2824 11 12.9998C10.9993 12.7171 11.0953 12.4798 11.288 12.2878C11.4807 12.0958 11.718 11.9998 12 11.9998C12.282 11.9998 12.5197 12.0958 12.713 12.2878C12.9063 12.4798 13.002 12.7171 13 12.9998C12.998 13.2824 12.902 13.5201 12.712 13.7128C12.522 13.9054 12.2847 14.0011 12 13.9998ZM8 13.9998C7.71667 13.9998 7.47933 13.9038 7.288 13.7118C7.09667 13.5198 7.00067 13.2824 7 12.9998C6.99933 12.7171 7.09533 12.4798 7.288 12.2878C7.48067 12.0958 7.718 11.9998 8 11.9998C8.282 11.9998 8.51967 12.0958 8.713 12.2878C8.90633 12.4798 9.002 12.7171 9 12.9998C8.998 13.2824 8.902 13.5201 8.712 13.7128C8.522 13.9054 8.28467 14.0011 8 13.9998ZM16 13.9998C15.7167 13.9998 15.4793 13.9038 15.288 13.7118C15.0967 13.5198 15.0007 13.2824 15 12.9998C14.9993 12.7171 15.0953 12.4798 15.288 12.2878C15.4807 12.0958 15.718 11.9998 16 11.9998C16.282 11.9998 16.5197 12.0958 16.713 12.2878C16.9063 12.4798 17.002 12.7171 17 12.9998C16.998 13.2824 16.902 13.5201 16.712 13.7128C16.522 13.9054 16.2847 14.0011 16 13.9998ZM12 17.9998C11.7167 17.9998 11.4793 17.9038 11.288 17.7118C11.0967 17.5198 11.0007 17.2824 11 16.9998C10.9993 16.7171 11.0953 16.4798 11.288 16.2878C11.4807 16.0958 11.718 15.9998 12 15.9998C12.282 15.9998 12.5197 16.0958 12.713 16.2878C12.9063 16.4798 13.002 16.7171 13 16.9998C12.998 17.2824 12.902 17.5201 12.712 17.7128C12.522 17.9054 12.2847 18.0011 12 17.9998ZM8 17.9998C7.71667 17.9998 7.47933 17.9038 7.288 17.7118C7.09667 17.5198 7.00067 17.2824 7 16.9998C6.99933 16.7171 7.09533 16.4798 7.288 16.2878C7.48067 16.0958 7.718 15.9998 8 15.9998C8.282 15.9998 8.51967 16.0958 8.713 16.2878C8.90633 16.4798 9.002 16.7171 9 16.9998C8.998 17.2824 8.902 17.5201 8.712 17.7128C8.522 17.9054 8.28467 18.0011 8 17.9998ZM16 17.9998C15.7167 17.9998 15.4793 17.9038 15.288 17.7118C15.0967 17.5198 15.0007 17.2824 15 16.9998C14.9993 16.7171 15.0953 16.4798 15.288 16.2878C15.4807 16.0958 15.718 15.9998 16 15.9998C16.282 15.9998 16.5197 16.0958 16.713 16.2878C16.9063 16.4798 17.002 16.7171 17 16.9998C16.998 17.2824 16.902 17.5201 16.712 17.7128C16.522 17.9054 16.2847 18.0011 16 17.9998ZM5 21.9998C4.45 21.9998 3.97933 21.8041 3.588 21.4128C3.19667 21.0214 3.00067 20.5504 3 19.9998V5.99976C3 5.44976 3.196 4.97909 3.588 4.58776C3.98 4.19642 4.45067 4.00042 5 3.99976H6V1.99976H8V3.99976H16V1.99976H18V3.99976H19C19.55 3.99976 20.021 4.19576 20.413 4.58776C20.805 4.97976 21.0007 5.45042 21 5.99976V19.9998C21 20.5498 20.8043 21.0208 20.413 21.4128C20.0217 21.8048 19.5507 22.0004 19 21.9998H5ZM5 19.9998H19V9.99976H5V19.9998Z" fill="#0059C2"/>
</svg>
