<svg width="14" height="15" fill="none" xmlns="http://www.w3.org/2000/svg"><path d="M2.362 12.75a.593.593 0 01-.437-.175.594.594 0 01-.175-.438V9.775c0-.126.044-.24.131-.342a.68.68 0 01.336-.212l2.012-.409a.938.938 0 01.416.037.83.83 0 01.343.197l1.37 1.37c.37-.213.72-.45 1.05-.707.33-.258.647-.537.948-.838.321-.311.615-.634.883-.97.267-.335.498-.683.692-1.043L8.517 5.43a.613.613 0 01-.16-.277 1.029 1.029 0 01-.015-.394l.379-2.041a.532.532 0 01.19-.328.546.546 0 01.364-.139h2.362c.175 0 .321.058.438.175a.593.593 0 01.175.438c0 1.215-.265 2.415-.794 3.602a10.767 10.767 0 01-2.254 3.237 10.781 10.781 0 01-3.237 2.254c-1.187.53-2.387.794-3.603.794z" fill="#000" fill-opacity=".5"/></svg>