<svg width="16" height="16" fill="none" xmlns="http://www.w3.org/2000/svg"><path d="M8 14.667a6.487 6.487 0 01-2.6-.526 6.743 6.743 0 01-2.117-1.424A6.728 6.728 0 011.86 10.6 6.503 6.503 0 011.333 8c0-.922.175-1.789.526-2.6a6.743 6.743 0 011.424-2.117c.6-.6 1.306-1.075 2.117-1.424A6.503 6.503 0 018 1.333c.922 0 1.789.175 2.6.526a6.75 6.75 0 012.117 1.424c.6.6 1.075 1.306 1.425 2.117.35.811.525 1.678.525 2.6v.967a2.31 2.31 0 01-.675 1.675 2.223 2.223 0 01-1.659.691 2.49 2.49 0 01-1.1-.25 2.348 2.348 0 01-.866-.716 3.211 3.211 0 01-1.092.725A3.407 3.407 0 018 11.333a3.211 3.211 0 01-2.358-.975A3.216 3.216 0 014.667 8c0-.922.325-1.708.975-2.358A3.216 3.216 0 018 4.667c.922 0 1.708.325 2.359.975.65.65.975 1.436.974 2.358v.967c0 .289.095.533.284.733.189.2.427.3.716.3.29 0 .528-.1.717-.3.189-.2.283-.444.283-.733V8c0-1.489-.516-2.75-1.55-3.783C10.75 3.183 9.49 2.667 8 2.667c-1.489 0-2.75.516-3.783 1.55C3.183 5.25 2.667 6.51 2.667 8c0 1.489.516 2.75 1.55 3.783C5.25 12.817 6.51 13.333 8 13.333h3.333v1.334H8zM8 10c.556 0 1.028-.194 1.417-.583C9.806 9.027 10 8.556 10 8s-.194-1.028-.583-1.417A1.929 1.929 0 008 6c-.556 0-1.028.194-1.417.583A1.929 1.929 0 006 8c0 .556.194 1.028.583 1.417.39.389.861.583 1.417.583z" fill="#fff"/></svg>