<svg width="64" height="65" fill="none" xmlns="http://www.w3.org/2000/svg"><rect y=".5" width="64" height="64" rx="32" fill="#fff"/><path fill-rule="evenodd" clip-rule="evenodd" d="M31.427 3.964l-.81.798-1.17.013-1.171.013-.013 1.155L28.25 7.1l-.816.78c-.546.523-.808.806-.79.853.021.054.001.064-.085.042-.105-.026-.704.026-1.055.092-.144.027-.169.013-.283-.16a.92.92 0 00-.348-.298c-.191-.093-.278-.104-.63-.086l-.41.022-.102-.212-.102-.21-.342.014c-.323.013-.35.006-.512-.136-.244-.214-.464-.273-.893-.24-.33.027-.852.163-1.074.282-.049.026-.307.056-.575.068-.668.029-.892.105-1.374.464-.354.264-.457.315-.79.39-.211.047-.47.124-.575.17-.476.208-1.291 1.014-1.56 1.542-.088.172-.111.186-.298.187-.706.002-1.732.505-2.54 1.245-.151.138-.275.232-.276.21a.373.373 0 00-.072-.133c-.067-.09-.082-.084-.41.143-.64.441-1.157 1.11-1.53 1.977l-.18.418-.4.04c-.22.021-.41.048-.422.06-.012.011.003.253.032.536l.054.514-.137.216a4.336 4.336 0 00-.216.384l-.079.168-.59-.017-.591-.017-.107.449c-.06.246-.118.67-.132.941-.023.48-.027.496-.156.562-.248.129-.66.647-.897 1.125l-.228.462-.431.093-.431.094-.043.828-.043.827h-.476l.018.692c.017.662.013.694-.079.72-.164.043-.209.03-.225-.07-.013-.084-.11-.03-.686.388-.369.267-.71.532-.756.588-.139.167-.395.694-.563 1.158-.144.399-.155.475-.15.983.002.316.032.645.07.77.059.193.056.253-.02.527-.066.237-.087.487-.089 1.058-.001.586-.022.828-.097 1.122-.12.472-.122.868-.003 1.33.172.674.471 1.11 1.016 1.48l.27.184.02.397c.015.304 0 .443-.064.59a1.97 1.97 0 00-.113.431c-.028.226.035 1.09.1 1.379.026.11.015.132-.063.132-.052 0-.182.063-.288.14a.839.839 0 00-.332.794c.036.258.557 1.415.638 1.415.065 0 .135.261.09.335-.052.084-.111.058-.554-.24-.267-.18-.43-.263-.43-.22 0 .06.57 2.464.654 2.76.027.094.018.11-.047.084-.044-.016-.08-.023-.08-.015 0 .085 1.23 2.51 1.36 2.679.2.262.52.882.687 1.331.405 1.088 1.275 1.908 2.489 2.348.275.1.296.118.322.282.035.213.262.7.463.992l.147.214-.17.223c-.093.123-.17.243-.17.267 0 .077.292.485.51.711.168.175.229.288.308.575.125.449.246.666.45.806.217.15.587.284.885.324.202.027.243.047.219.11a4.37 4.37 0 00-.095.354l-.064.276.223.152a8.9 8.9 0 01.487.367c.25.202.778.49 1.014.551l.109.028-.104.11-.103.11.258.341c.295.391.557.598 1.111.877l.392.197-.093.324c-.05.177-.092.344-.092.371 0 .027.178.089.395.138.217.048.68.203 1.027.344.622.251 1.788.645 1.912.645.146 0 .106.12-.176.527-.164.238-.29.44-.279.448.011.01.204.055.428.102.224.048.74.181 1.149.297.484.138.886.221 1.156.24l.415.03.029.21c.038.282.14.465.345.621.24.184.54.197 1.208.054l.54-.115.053.208c.041.165.073.207.154.205.107-.003.862-.197.99-.255.054-.024.136.052.3.275.432.588.751.777 1.8 1.065 1.158.319 2.724.544 4.038.582l.89.026.034-.378c.02-.215.075-.464.13-.578.17-.356.578-.591 1.026-.591.311 0 .553.108.768.343.256.28.275.324.31.715.018.21.05.398.068.418.124.124 2.734-.113 3.88-.352.873-.183 1.686-.511 2.018-.816.099-.09.228-.164.288-.164.118 0 .166-.08.168-.28 0-.07.04-.178.087-.24l.087-.113.325.1c.23.072.453.101.766.101.822 0 1.402-.163 2.496-.701.873-.43 1.108-.603 1.488-1.094l.293-.38.407-.127c.465-.145 1.345-.566 1.837-.88.184-.117.47-.25.635-.296l.3-.083v-.402c0-.394.002-.404.131-.457.64-.262 1.094-.53 1.781-1.047.858-.645 1.073-.868 1.187-1.228.055-.177.108-.26.179-.277.207-.054.833-.464 1.226-.804.723-.625 1.268-1.251 1.914-2.198.389-.57.43-.65.342-.663-.084-.013-.064-.044.133-.2.33-.26.505-.49.598-.786.07-.224.115-.279.351-.436a6.39 6.39 0 00.682-.577c.475-.458.77-.912 1.08-1.66.466-1.12.744-1.704.876-1.84.077-.08.252-.248.388-.375.309-.287.579-.736.853-1.42.217-.54.615-2.066.539-2.066-.023 0-.171.036-.329.08-.158.044-.298.069-.311.056-.014-.014.04-.18.118-.371a7.08 7.08 0 00.195-.524c.052-.178.2-1.454.17-1.483a.68.68 0 00-.208.028l-.194.044.118-.314c.065-.172.203-.639.307-1.037.178-.684.189-.761.189-1.432 0-.686-.003-.707-.093-.66-.14.076-.143.069-.07-.201a2.05 2.05 0 00.067-.403c0-.093.065-.248.167-.4.256-.38.42-.944.426-1.463.004-.356-.022-.526-.15-.963l-.156-.532.078-.348c.066-.293.07-.403.024-.685a2.131 2.131 0 00-.12-.46c-.056-.106-.052-.15.034-.341.065-.147.105-.357.119-.632.024-.481-.036-.733-.351-1.458a8.122 8.122 0 01-.36-1.116l-.15-.637-.248.177c-.136.097-.315.228-.398.29l-.15.115-.032-.35c-.077-.847-.4-2.536-.506-2.646-.024-.024-.129.022-.245.108-.221.162-.28.142-.281-.096-.001-.205-.262-1.176-.455-1.696-.17-.458-.81-1.776-1.428-2.943-.19-.359-.3-.522-.323-.479-.02.036-.075.233-.122.437s-.099.372-.114.371c-.015 0-.14-.22-.276-.491-.298-.586-.856-1.449-1.05-1.623a6.5 6.5 0 00-.454-.346 1.92 1.92 0 01-.499-.5c-.35-.53-.625-.856-1.317-1.564-.693-.709-.942-.904-1.231-.964-.121-.026-.195-.098-.36-.353-.114-.176-.433-.548-.71-.826-.415-.417-.756-.685-1.94-1.52l-1.44-1.015-.013.37-.014.369-.484-.233a9.846 9.846 0 00-2.196-.723 55.51 55.51 0 01-1.144-.244c-.3-.068-.554-.115-.566-.104-.016.017.109.51.252.997.02.067-.004.072-.182.035-.372-.076-1.899-.104-2.386-.042-.732.092-1.553.12-1.51.052.022-.037-.258-.341-.784-.85l-.819-.79-.013-1.16-.012-1.16-1.174-.012-1.174-.013-.456-.443c-.25-.244-.62-.602-.823-.798l-.368-.354-.809.797zm.128.968l-.65.647h-1.838v1.814l-.68.646-.68.646.68.658.68.659v1.811h1.843l.657.656.656.655.47-.436c.26-.24.567-.534.684-.655l.214-.22h1.849v-1.797l.658-.66.659-.66-.659-.66-.658-.66V5.579h-1.836l-.661-.647c-.364-.356-.679-.648-.7-.647-.02 0-.33.291-.688.647zm.051.24l-.597.599h-1.751v1.7l-.61.613-.61.612.61.612.61.612v1.701h1.738l.62.601.619.601.629-.6.629-.602h1.755V9.898l.611-.598.611-.599-.61-.615-.612-.614V5.77h-1.736l-.635-.6c-.35-.33-.644-.6-.654-.6-.01 0-.288.27-.617.6zm.048.287l-.55.552h-1.606v1.557l-.563.564-.562.564.563.564.562.564v1.558h1.604l.56.559.56.558.59-.558.591-.56h1.606v-1.58l.563-.55.563-.55-.563-.567-.563-.566V6.01H33.42l-.572-.54a11.573 11.573 0 00-.608-.552c-.02-.006-.283.236-.586.54zm-.147 1.068a2.44 2.44 0 00-1.14.708c-.343.367-.519.694-.612 1.136-.27 1.283.67 2.633 1.998 2.87.503.09 1.003.01 1.517-.244.364-.18.876-.595.876-.71 0-.027-.152.03-.339.126-.316.162-.366.174-.754.17-.756-.008-1.288-.33-1.6-.966-.147-.297-.158-.354-.158-.8 0-.427.015-.508.129-.724.179-.34.64-.754.983-.884.482-.18.982-.138 1.512.128.125.062.227.1.227.082 0-.085-.257-.354-.493-.516-.59-.407-1.466-.56-2.146-.376zm1.821 1.712c-.12.287-.237.361-.579.361-.101 0-.184.01-.184.023s.099.114.22.226c.237.219.234.202.133.706l-.033.164.265-.152c.146-.083.292-.152.326-.152.033 0 .166.065.294.144.129.08.247.144.262.144.016 0 .014-.058-.003-.128-.13-.513-.128-.52.124-.712.128-.097.233-.197.233-.22 0-.024-.07-.043-.156-.043s-.236-.014-.334-.03c-.165-.028-.186-.05-.287-.312-.06-.154-.124-.281-.14-.281-.018 0-.081.118-.141.262zm-11.665.128c-.3.059-1.02.396-1.412.663-.163.111-.305.194-.316.183-.01-.01-.047-.13-.082-.266l-.063-.248-.13.068c-.346.18-1.166.936-1.527 1.41l-.123.16-.084-.34c-.046-.188-.106-.342-.133-.342-.027 0-.194.117-.372.26-.79.64-1.21 1.557-1.126 2.457.018.198.044.349.057.336a3.64 3.64 0 00.155-.402c.296-.856.714-1.148 1.465-1.022l.288.048.179-.21c.322-.377.755-.455 1.35-.245.183.064.348.107.368.094.02-.012.05-.087.068-.165.081-.37.646-.948 1.54-1.576l.52-.366-.023-.264c-.024-.263-.025-.264-.192-.271a2.143 2.143 0 00-.407.038zm1.241.418c-.527.18-1.352.751-1.76 1.22-.265.306-.512.651-.512.716 0 .02.129.037.286.037.33 0 .733.077.93.178.126.064.167.061.448-.034.17-.057.32-.093.335-.078.014.014-.074.086-.196.16-.122.073-.221.148-.221.166 0 .04.489.471.534.471.017 0 .264-.097.547-.216.284-.119.524-.207.535-.197.01.01-.217.154-.505.318l-.523.3.045.197c.025.109.038.367.029.574l-.016.376.36-.033c.449-.04.41.041-.068.141a2.62 2.62 0 00-.337.084c-.007.008-.07.115-.14.237l-.128.223.147.124c.532.448 1.608.322 2.277-.266.206-.18.213-.322.022-.463-.192-.143-.18-.2.041-.2a.665.665 0 00.348-.11c.195-.131.456-.55.51-.82l.04-.197-.19-.049-.188-.049.392-.258c.456-.3.792-.649 1.057-1.099.24-.406.28-.557.162-.607-.048-.02-.324-.047-.614-.059-.564-.023-1.158.068-1.79.276-.168.055-.316.09-.329.077-.013-.013 0-.095.027-.183a2.65 2.65 0 00.083-.41l.032-.252h-.19c-.16 0-.533.08-1.008.22-.1.028-.108.015-.11-.179a.822.822 0 00-.06-.314c-.057-.104-.06-.104-.302-.022zm20.066.187c.393.41.475.506 1.133 1.33 1.097 1.375 1.62 1.81 2.181 1.815.48.004.705-.226.705-.721-.001-.488-.355-1.034-.957-1.476-.558-.41-1.74-.893-2.632-1.075-.682-.139-.684-.138-.43.127zm-3.337.47c-.053.008-.328.04-.61.073-.284.032-.516.075-.516.095 0 .02.124.106.276.192.151.085.728.46 1.281.833 1.545 1.04 2.214 1.344 2.954 1.34.3 0 .414-.025.635-.133.315-.154.413-.305.413-.635 0-1.048-1.6-1.81-3.753-1.785a11.86 11.86 0 00-.68.02zm-2.105.44c.108.469.87 2.154 1.223 2.7.254.393.688.846.93.97.379.195.796.082.934-.252.102-.246.038-.766-.138-1.124-.347-.704-1.505-1.682-2.726-2.3l-.253-.128.03.133zm9.391.093c.068.395.224.949.459 1.63.274.796.292.836.632 1.407.33.552.445.692.743.899.611.423 1.227.089 1.22-.663-.003-.3-.145-.7-.403-1.132-.277-.464-1.04-1.19-1.834-1.746-.937-.654-.855-.614-.817-.395zM20.773 11.04c-.183.06-.344.15-.462.259l-.107.096-.177-.135c-.199-.152-.519-.202-.914-.144-.199.029-.264.07-.483.304l-.254.271-.312-.112c-.368-.132-.51-.116-.809.09-.352.242-.576.872-.498 1.399.043.292.244.69.462.915.16.166.557.369.612.313.014-.013-.009-.15-.049-.304-.094-.362-.089-.759.014-1.017.1-.253.48-.778.563-.778.034 0 .183.111.331.247.261.238.457.532.457.686 0 .1.109.093.323-.022.132-.071.27-.096.53-.096.498 0 .537.03.537.412 0 .36-.063.509-.366.866-.115.137-.21.263-.21.281 0 .019.062.112.138.208.372.475.41.827.14 1.343-.202.386-.223.36.35.418.563.058.825-.175.889-.789l.03-.283.245-.032c.333-.044.606-.172.762-.358.109-.13.13-.2.13-.432 0-.324-.14-.628-.439-.953l-.19-.205.216-.24c.27-.3.357-.616.275-.996-.154-.721-.649-1.184-1.314-1.231a1.514 1.514 0 00-.42.02zm-5.508.458c-.843.233-1.766.95-2.216 1.722-.246.42-.238.42-.448-.028-.047-.1-.1-.18-.119-.18-.057 0-.376.377-.552.652-.265.413-.541 1.02-.604 1.324l-.057.278-.194.005c-.107.004-.253.02-.324.036-.129.03-.13.032-.055.184.04.085.235.287.431.45.354.292.77.787.89 1.056.033.076.097.14.142.14.123 0 .278-.233.284-.427.004-.095.023-.238.043-.317.029-.115.038-.083.042.156.006.326.04.355.23.205a.774.774 0 01.284-.126l.163-.03.005-.414.006-.415.063.384c.034.211.064.412.066.448.002.035.03.054.063.042.033-.012.117.007.185.042.12.06.132.054.273-.143.141-.196.534-.53.764-.648.202-.104.107.018-.163.211-.41.293-.723.743-.517.743.113 0 .352.136.647.367.147.115.288.209.314.209.026 0 .143-.199.26-.441a5.41 5.41 0 011.023-1.428c.148-.144.27-.286.27-.316 0-.064-.207-.165-.34-.165-.111 0-.108-.02.131-.76.186-.577.178-.535.095-.535-.046 0-.091-.136-.145-.43-.135-.739-.214-.823-.45-.483a.93.93 0 01-.154.192c-.014.001-.024-.358-.024-.797 0-.493-.019-.804-.048-.811a1.015 1.015 0 00-.264.048zm29.016.78c-.768.036-1.766.188-1.72.262.118.191 2.119.94 2.997 1.122.484.1 1.15.113 1.395.028.476-.165.412-.673-.125-.988-.54-.317-1.486-.475-2.547-.424zM41 12.326c0 .13.797 1.205 1.351 1.822.37.41.98.939 1.239 1.07.2.103.523.126.67.047.05-.027.105-.126.123-.222.128-.681-.787-1.571-2.427-2.362-.704-.34-.956-.433-.956-.355zm-22.806.422c-.192.304-.263.633-.23 1.072.031.405.09.487.347.487.084 0 .222.024.307.054.14.049.153.069.127.197a.998.998 0 01-.175.328c-.14.175-.143.193-.072.294a.42.42 0 01.075.193c0 .107.044.106.455-.011a2.71 2.71 0 01.61-.096h.277v-.17c0-.137-.04-.208-.21-.373l-.208-.203.197-.173c.225-.197.491-.616.537-.844.03-.152.027-.155-.137-.155-.093 0-.349.055-.57.123-.674.207-.646.21-.676-.053-.03-.274-.316-.854-.43-.876-.055-.01-.13.058-.224.206zm32.23.204c.28 1.97.626 3.093 1.123 3.632.261.284.411.36.705.36.27 0 .446-.126.563-.406.19-.454-.058-1.21-.662-2.015-.302-.404-1.604-1.75-1.692-1.75-.045 0-.055.05-.037.179zm-19.392.684c-.49.033-1.831.282-1.902.353-.015.015.03.39.101.832.465 2.9.873 5.486 1.037 6.56.105.685.225 1.437.268 1.67.076.42.078.424.203.393.271-.067 1.5-.085 1.857-.028.199.032.368.051.376.042.009-.009.342-2.098.74-4.643.397-2.546.734-4.676.747-4.734.03-.13-.062-.16-1.039-.322-.8-.133-1.613-.175-2.388-.123zm-14.423.311a4.069 4.069 0 01-.159.559l-.155.463.24.12c.337.167.622.427.744.68.062.129.137.216.184.215.044 0 .187-.065.32-.143.13-.078.287-.142.346-.143.072 0 .116-.038.136-.117.046-.183.006-.285-.139-.355l-.133-.064.194-.21c.107-.117.194-.243.194-.282 0-.119-.517-.173-1.03-.108l-.288.037-.116-.24a2.345 2.345 0 00-.226-.373c-.098-.12-.11-.124-.112-.039zm8.047.165c-.094.057-1.266.164-1.528.139l-.192-.018.025.168c.015.097-.014.318-.067.518-.052.191-.08.356-.063.366.017.01.163.033.324.051.28.032.301.027.456-.109.22-.194.662-.41 1.096-.537.347-.101.575-.244.575-.36 0-.162-.458-.322-.626-.219zm21.28.194c0 .137 1.834 1.373 2.38 1.604.585.246 1.07.34 1.386.27.369-.082.547-.262.547-.552a.946.946 0 00-.07-.357c-.172-.333-.793-.692-1.456-.84-.647-.146-2.787-.241-2.787-.125zm-5.559.133c0 .02.232.297.515.617 1.309 1.477 2.862 2.608 3.583 2.608.2 0 .43-.107.473-.218.062-.162.027-.51-.071-.702-.399-.782-2.08-1.75-3.82-2.201-.567-.147-.68-.164-.68-.104zm-13.035.123c-.97.4-2.228 1.221-3.284 2.146-.572.501-.67.627-.599.761.028.051.704 1.157 1.503 2.457 1.597 2.6 2.629 4.31 2.717 4.506l.058.127.725-.356a11 11 0 011.085-.47c.285-.092.357-.134.349-.203a276.85 276.85 0 00-.752-3.18c-.408-1.702-.884-3.698-1.06-4.437a135.75 135.75 0 00-.337-1.402c-.026-.084-.101-.074-.405.05zm8.418.212c-.04.178-.529 2.223-1.084 4.544-.555 2.32-1 4.242-.99 4.27.01.027.145.089.3.138.423.133 1.066.422 1.365.613.432.277.415.283.708-.217.142-.242.583-.969.978-1.615 2.162-3.532 2.676-4.376 2.884-4.735l.229-.395-.327-.348c-.393-.419-1.189-1.065-1.885-1.532-.507-.341-1.872-1.046-2.023-1.046-.06 0-.1.083-.155.323zm9.432.022c.012.034.11.386.218.782.348 1.273.755 2.155 1.211 2.625.274.282.482.388.759.39.71.002.823-.828.23-1.7-.393-.58-1.233-1.363-2.034-1.898-.396-.265-.41-.272-.384-.2zm-25.972.73a5.192 5.192 0 00-1.653.628l-.36.217-.056-.223c-.056-.22-.338-.69-.415-.69-.076 0-.442.282-.662.511-.681.708-.943 1.47-.74 2.147.079.26.3.618.359.582.021-.014.153-.223.293-.464.256-.444.601-.858.716-.858.034 0-.028.097-.137.216-.433.47-.721 1.035-.658 1.289.028.11.044.118.157.075.148-.056.197-.028.118.068-.078.094.025.126.403.126.168 0 .318.022.335.048.018.03-.112.048-.357.048-.213 0-.386.016-.386.036 0 .02.107.129.239.242.192.166.254.257.316.474.211.727-.143 1.447-.882 1.793-.176.082-.353.166-.392.186-.073.036-.118.115-.26.45-.057.136-.128.204-.28.271-.214.094-.809.193-1.165.193h-.212v.564l.42-.145c.362-.125.507-.148 1.072-.169l.654-.024.288-.485c.401-.674.93-1.422 1.566-2.211.611-.759 2.117-2.26 2.792-2.781.402-.312.58-.52.655-.773.03-.1.016-.102-.593-.124-.344-.013-.635-.034-.648-.047-.013-.013.03-.178.096-.366.076-.22.12-.447.12-.632 0-.343.036-.335-.743-.171zm3.5.056c-.106.039-.38.096-.612.127l-.42.058v.145c-.001.08-.033.262-.07.405l-.07.26.202-.194c.3-.288.694-.583.953-.714.127-.064.23-.128.23-.14 0-.013-.005-.022-.011-.02a14.21 14.21 0 00-.203.073zm30.768.503c-.055.267-.17 1.76-.171 2.226-.002 1.285.332 2.122.909 2.278.163.044.226.037.41-.044.184-.082.235-.137.34-.367.115-.25.123-.309.1-.758-.038-.786-.315-1.516-1.033-2.718a9.235 9.235 0 00-.411-.644l-.11-.137-.034.164zm-43.049.176c-.229.356-.345.692-.347 1.007 0 .138-.012.252-.024.252-.013 0-.148-.063-.3-.14a1.73 1.73 0 00-.573-.17l-.296-.03-.039.23c-.062.362-.033 1.205.053 1.57.102.433.324.877.56 1.123.105.11.208.198.23.198.02 0 .052-.178.07-.395a7.34 7.34 0 01.127-.825c.103-.466.21-.628.511-.771.09-.043.273-.175.408-.295.222-.198.26-.215.425-.189.099.016.212.041.252.057.051.02.08-.018.106-.132a1.69 1.69 0 01.125-.34l.092-.18-.131-.228a3.898 3.898 0 00-.277-.408c-.15-.186-.671-.61-.75-.61-.025 0-.124.124-.222.276zm12.66.003c-.568.238-1.3.77-1.871 1.359-1.66 1.714-2.76 4.493-2.948 7.451-.111 1.743.167 3.81.75 5.574.164.496.21.562.369.522l.122-.03-.094-.3c-.56-1.78-.862-4.091-.715-5.48.204-1.914.553-3.125 1.377-4.771.443-.886.822-1.502 1.371-2.23.485-.64 1.425-1.746 1.62-1.902.143-.115.287-.294.223-.277a8.39 8.39 0 00-.204.084zm17.369-.003c.025.046.18.213.343.372.625.605 1.584 1.824 2.164 2.748.524.834 1.174 2.164 1.412 2.886.418 1.268.59 2.302.624 3.732.04 1.65-.091 2.692-.54 4.314-.12.429-.204.8-.188.827.06.097.218.047.268-.085.22-.571.554-1.773.702-2.53l.177-.91.002-1.607c0-1.724-.025-2.01-.292-3.213-.273-1.23-.905-2.782-1.536-3.774-.806-1.27-1.997-2.374-2.977-2.763-.196-.078-.204-.078-.16.003zm8.43.33c.112.207 1.083 1.322 1.506 1.73.53.51.9.762 1.302.887.666.207 1.184-.127 1.038-.669-.21-.777-1.269-1.415-3.07-1.85-.837-.2-.831-.2-.776-.097zm-36.076.466c-.432.126-.561.258-.83.85l-.165.36-.336-.02a1.72 1.72 0 00-.516.04c-.228.076-.529.348-.652.59-.112.22-.169.79-.103 1.04l.044.166.367.004c.202.002.382.018.4.036.018.018.035.171.038.34l.004.306.267-.024c.207-.019.32 0 .497.077.126.056.246.091.267.078.02-.013.082-.169.136-.347.115-.376.323-.682.568-.834l.173-.107.164.189c.197.226.426.682.468.93l.03.18.422.025c.359.02.465.047.72.183.165.088.31.187.323.22.037.097-.133.34-.343.489a3.212 3.212 0 01-.96.463l-.334.103.125.082c.157.103.604.178.842.141.365-.056.522-.188.657-.556.081-.22.104-.24.476-.412.878-.407 1.143-.856.89-1.502-.136-.344-.289-.533-.603-.746-.24-.162-.275-.208-.369-.491-.129-.391-.584-1.083-.883-1.341-.364-.316-.84-.529-1.234-.553a1.86 1.86 0 00-.55.041zm35.781 1.18c-.073 1.026-.024 1.757.167 2.52.111.446.257.718.495.927.22.194.379.231.621.147.28-.097.41-.369.41-.86 0-.457-.089-.766-.385-1.333-.233-.445-.824-1.326-1.12-1.67l-.156-.179-.032.448zm-4.488-.075c0 .051.688.882 1.104 1.331.726.785 1.419 1.24 1.891 1.24.486 0 .695-.168.695-.558 0-.71-.957-1.33-2.77-1.796l-.836-.218c-.047-.013-.084-.013-.084 0zm-21.718.401c-.3.323-1.462 2.408-1.542 2.77-.017.072.06.162.322.376.188.154 1.084.93 1.989 1.726.905.795 1.843 1.616 2.084 1.823.242.207.54.472.665.587.124.116.247.21.275.21.027 0 .216-.177.421-.394.205-.217.478-.495.607-.617.147-.14.221-.243.198-.28-.026-.043-4.827-6.252-4.887-6.32a.535.535 0 00-.132.12zm18.48.074c-.08.11-1.185 1.545-2.455 3.187l-2.31 2.985.629.625c.605.603.631.623.73.551.132-.096.693-.584 3.033-2.639a389.866 389.866 0 012.071-1.811c.192-.16.204-.115-.287-1.09-.43-.854-.85-1.56-1.079-1.808l-.185-.201-.147.201zm14.7 1.32c-.346 1.37-.42 1.945-.348 2.706.092.966.378 1.379.955 1.379.214 0 .27-.022.432-.169.632-.57.61-1.97-.056-3.674-.21-.537-.424-.996-.6-1.285l-.085-.141-.299 1.184zm-47.401-.828c-.26.244-.537.734-.77 1.367-.081.221-.155.41-.164.418-.009.009-.1-.028-.2-.083a.825.825 0 00-.286-.098c-.094 0-.103.033-.13.44a8.808 8.808 0 000 .911l.029.471H6.1l.03.188c.042.26.18.491.27.453.816-.342 1.053-.32 1.581.15.328.292.466.355.948.433.234.038.467.105.536.156.178.13.42.617.49.985.044.233.085.328.147.348a.55.55 0 01.183.132l.097.103.44-.479c.243-.263.662-.71.933-.993.528-.553.593-.697.395-.877-.076-.069-.095-.147-.095-.39 0-.455-.07-.508-.648-.488l-.449.015-.029-.155a1.984 1.984 0 00-.12-.359c-.077-.172-.087-.274-.063-.663.034-.55-.01-.67-.239-.669-.2 0-.441.15-.535.332-.083.16-.127.157-.415-.031-.367-.24-.742-.868-.888-1.484-.1-.43-.16-.445-.494-.133zm42.817.537c.485.844 1.676 2.228 2.361 2.743 1.09.82 1.696.184.872-.915-.488-.651-1.438-1.284-2.789-1.858-.255-.11-.49-.198-.52-.198-.03 0 .003.1.076.228zm-38.192.47c-.126.135-.305.56-.349.826-.014.086-.04.166-.059.177-.018.011-.172.002-.341-.02-.17-.023-.467-.056-.662-.073l-.354-.033.03.152c.064.318.321.54.77.663.175.049.198.043.352-.093.182-.16.344-.235.508-.235.123 0 .365.236.484.472.075.15.093.159.257.13.62-.11 1.388-.52 1.284-.689-.043-.07-.393-.143-.851-.18l-.414-.033-.06-.28c-.065-.31-.324-.865-.417-.895-.032-.01-.112.04-.178.11zm38.202 1.496c-.247.923-.313 1.262-.35 1.811-.076 1.153.235 1.872.856 1.973.418.068.757-.135.94-.561.142-.33.143-.912.001-1.437-.155-.575-1.101-2.445-1.237-2.445-.018 0-.112.296-.21.659zm-4.349-.533c0 .093.89 1.31 1.349 1.843.902 1.05 2.014 1.42 2.32.775.242-.51-.265-1.235-1.23-1.757-.259-.14-2.278-.89-2.402-.891-.02 0-.036.013-.036.03zm-34.351.787c-.117.07-.152.12-.129.18a3 3 0 01.121.718v.167l.252-.033c.307-.041.649-.186.69-.293.035-.091-.055-.164-.205-.165-.08 0-.108-.039-.131-.18-.043-.26-.198-.492-.33-.492a.66.66 0 00-.268.098zm4.795.296c-.165.08-.384.58-.497 1.14-.295 1.453.05 3.738.89 5.892.14.36.516 1.172.836 1.805l.582 1.15-.01-.335a2.15 2.15 0 01.027-.458c.025-.084-.01-.264-.108-.575-.277-.876-.682-2.522-.779-3.163-.076-.507-.106-1.036-.137-2.446-.04-1.89-.071-2.17-.29-2.682-.101-.234-.247-.39-.356-.383a.619.619 0 00-.158.055zm29.2.104c-.165.174-.319.58-.41 1.08-.033.185-.06.97-.065 1.99-.01 1.663-.013 1.693-.167 2.57-.188 1.065-.257 1.353-.596 2.472l-.261.86.03.48.032.48.302-.624c.42-.866 1.03-2.243 1.285-2.9.295-.761.46-1.435.64-2.614.14-.922.15-1.077.128-1.823-.03-1.054-.2-1.724-.516-2.04-.133-.133-.228-.117-.403.069zm6.566.52c.087.281.767 1.56 1.066 2.006.592.883 1.095 1.292 1.59 1.292.444 0 .623-.178.623-.618 0-.739-.92-1.614-2.576-2.447a11.74 11.74 0 00-.706-.34c-.017 0-.016.048.002.108zm-39.73.204a1.772 1.772 0 01-.368.168c-.158.045-.195.09-.369.445a3.235 3.235 0 01-.411.632c-.242.265-.249.275-.146.236.197-.076.407.117.407.374 0 .096.005.096.156-.02.274-.209.56-.327.881-.366.251-.03.328-.023.386.034.114.114.159.281.159.592 0 .278.004.29.107.261.06-.016.243-.053.407-.082l.299-.053.432-.89c.237-.488.432-.91.432-.937 0-.088-1.04 0-1.557.132a8.741 8.741 0 01-.515.122c-.02 0-.04-.113-.042-.252a2.499 2.499 0 00-.036-.383l-.03-.132-.192.119zm7.12.156c-.114.428-.291 1.409-.291 1.607v.215l.778.362c.429.199 1 .46 1.271.582.271.121.929.428 1.462.682.533.254 1.18.554 1.44.666l.47.203.24-.462c.15-.29.226-.484.2-.521-.021-.033-.88-.596-1.908-1.252a968.624 968.624 0 01-2.701-1.727c-.458-.294-.851-.534-.873-.534-.022 0-.062.08-.088.18zm22.418.145c-.274.18-1.506.971-2.738 1.76-1.233.787-2.24 1.453-2.24 1.48 0 .026.063.147.14.268.078.122.187.323.242.448l.1.227.154-.067c.085-.037.672-.308 1.304-.604.633-.295 1.635-.758 2.228-1.029a63.08 63.08 0 001.428-.668l.348-.176-.03-.25a21.776 21.776 0 00-.299-1.543c-.02-.077-.06-.148-.088-.157-.028-.01-.275.13-.549.31zm15.036-.094c-.488.765-.91 1.657-1.112 2.357-.256.882-.072 1.552.442 1.615.373.047.744-.305.932-.884.09-.278.104-.425.101-1.094-.003-.786-.063-1.46-.171-1.937l-.06-.263-.132.206zm-51.092.29c-.454.208-.712.565-.788 1.088-.027.184-.049.348-.05.366 0 .017-.112.056-.25.085-.317.068-.421.162-.421.378 0 .23.281.494.894.838.377.211.991.513 1.045.513.006 0 .037-.117.069-.26.069-.309.21-.507.358-.507.29 0 .873.553.925.878.029.185.032.187.202.16.095-.016.29-.062.435-.102.167-.046.467-.073.827-.073h.564v.316c0 .375.043.381.277.042.127-.185.156-.267.134-.378-.038-.19-.153-.31-.4-.421l-.205-.092.03-.227c.037-.275-.016-.332-.377-.414l-.25-.056-.027-.452c-.049-.797-.262-1.006-1.099-1.073l-.407-.033-.131-.235c-.175-.315-.4-.43-.837-.429a1.3 1.3 0 00-.518.089zm24.12.394c-.963.142-2.125.643-2.941 1.268-1.608 1.233-2.593 3.258-2.5 5.143.015.301.039.56.053.574.014.014.41-.12.878-.296.628-.238.893-.316 1.004-.298.084.013.565.177 1.07.364.505.188.938.328.962.313.025-.015.045-.064.046-.109 0-.044.054-.253.12-.464a4.03 4.03 0 00.119-.44c0-.03-.176-.123-.39-.205a3.233 3.233 0 01-.622-.319c-.335-.245-.77-.74-.958-1.086-.155-.286-.163-.323-.16-.78.001-.397.02-.519.111-.711l.11-.233.391.381c.216.21.457.415.536.456.276.142.713.194 1.354.16 1.629-.083 1.865-.087 2.12-.034.307.064.678.236.896.416l.154.126.056-.22c.03-.122.058-.22.061-.22.004 0 .2.072.438.158l.431.156-.016.32-.016.319.343.173c.543.273.834.585.93.995.039.166.006.167-.71.03-.782-.15-1.198-.093-1.96.268-.33.156-.538.324-.635.512-.08.156-.152.76-.09.76.06 0 1.762-.443 3.047-.794.623-.17 1.189-.308 1.258-.308.069 0 .54.15 1.047.334.57.207.938.318.965.29.073-.073.05-1.233-.035-1.714-.355-2.02-1.58-3.674-3.437-4.639-.614-.319-1.203-.529-1.763-.627-.438-.077-1.795-.088-2.267-.019zm-25.594.113c-.441.118-.575.376-.466.894.034.156.072.284.086.284.013 0 .098-.086.188-.191.122-.142.213-.2.35-.222l.187-.03-.027-.2a.738.738 0 01.05-.383c.042-.101.076-.192.076-.202 0-.036-.219-.011-.444.05zm43.573.296c0 .062.724 1.895.85 2.153.066.132.236.395.379.583.383.505.719.736 1.071.736.417 0 .604-.228.566-.69-.04-.489-.4-1.027-1.069-1.598-.5-.427-1.797-1.281-1.797-1.184zm-44.68.607c-.303.642-.38.952-.356 1.443.025.536.108.716.5 1.09.574.545 1.436.937 3.655 1.659 1.573.511 2.59.902 3.383 1.299.724.362 1.85 1.012 1.953 1.127.08.09.084.082.087-.235.002-.18.03-.534.065-.785.034-.25.049-.469.033-.485-.048-.05-2.002-1.113-2.528-1.377-.952-.476-1.484-.69-2.886-1.157-1.965-.654-2.848-1.06-3.227-1.48-.186-.205-.337-.604-.425-1.123-.03-.178-.062-.324-.072-.324-.01 0-.09.157-.181.348zm9.218-.124c-.244.039-.702.225-.939.382a1.996 1.996 0 01-.27.161c-.014 0-.04-.07-.056-.155a.719.719 0 00-.098-.245c-.064-.084-.08-.084-.338-.01-.484.142-.887.633-.885 1.082 0 .168.044.217.253.285.26.085.362.306.281.608-.078.294-.3.607-.584.823-.128.098-.234.203-.236.234-.002.03.186.158.417.282.23.124.872.48 1.425.79.554.31 1.05.578 1.105.594.09.026.103-.003.156-.367.093-.63.367-1.711.688-2.709.164-.507.288-.931.276-.942-.011-.011-.171.01-.356.045-.565.11-.55.116-.55-.225 0-.285-.083-.672-.14-.659a4.004 4.004 0 01-.149.026zm39.76.723c-.298.51-.728 1.464-.82 1.819-.146.565-.051 1.17.205 1.306.196.106.427.063.624-.116.387-.35.549-1.118.447-2.13-.069-.694-.161-1.25-.207-1.25-.018 0-.13.167-.25.371zm-37.616.027c-.182.36-.228.73-.148 1.192.13.743.731 2.322 1.457 3.822.625 1.29 1.108 2.005 1.516 2.244.187.11.223.117.284.056.12-.12-.005-.5-.49-1.484-.411-.835-.838-1.838-1.047-2.464a37.867 37.867 0 01-.365-1.336c-.32-1.228-.495-1.7-.745-1.99-.277-.324-.316-.328-.462-.04zm32.67-.165c-.329.204-.602.864-1 2.41-.326 1.274-.462 1.66-.975 2.776-.79 1.718-.873 1.909-.903 2.098-.04.247.02.28.287.162.23-.102.631-.563.96-1.104.441-.727 1.454-2.997 1.798-4.03.347-1.043.379-1.61.117-2.125l-.14-.275-.143.088zm11.047.248c0 .18-.15.835-.237 1.032-.255.581-1.035.986-3.516 1.822-1.674.565-2.223.81-3.976 1.781l-1.092.605.032.748c.018.411.035.751.038.755.003.004.253-.142.556-.325 1.281-.774 2.279-1.206 4.337-1.878 2.563-.837 3.68-1.363 4.137-1.943.432-.549.48-1.004.18-1.712-.101-.237-.23-.555-.285-.707-.104-.282-.174-.353-.174-.178zm-5.175.272c0 .047.053.42.117.83.204 1.29.298 1.462.793 1.462.233 0 .313-.024.483-.144.278-.197.32-.274.248-.462-.129-.342-.395-.712-.805-1.12-.475-.473-.837-.717-.836-.566zm-46.494.386a.66.66 0 00-.182.436c0 .131.025.153.276.246l.659.245 1.15.422.767.28.065-.15c.084-.194.178-.641.141-.677-.065-.066-1.221-.034-1.54.042a7.52 7.52 0 01-.346.079.926.926 0 01-.123-.204c-.15-.294-.327-.513-.54-.668-.22-.16-.232-.161-.327-.052zm12.422.632c0 .316.032.824.073 1.13.072.552.42 2.28.478 2.373.019.032.796.049 2.2.049h2.17l.032-.526c.037-.612.134-1.196.27-1.625.117-.369.117-.374.012-.404-.046-.013-1.229-.371-2.628-.796-1.4-.426-2.559-.774-2.576-.774-.017 0-.031.258-.031.573zm23.337-.469c-.284.087-3.435 1.07-4.413 1.377l-.41.129.083.246c.124.368.236 1.072.269 1.706l.03.563 2.184-.012 2.185-.012.08-.24c.252-.765.563-2.96.5-3.537-.041-.371-.029-.366-.508-.22zm-15.437.785c.13.458.464.87.834 1.032.287.126.546.134 2.948.093l1.355-.023-.157-.132c-.406-.338-1.089-.463-2.09-.38-1.649.134-2.288.015-2.738-.51-.18-.211-.19-.216-.151-.08zM3.7 27.746c-.06.223-.029.661.065.91.13.345.508.834.858 1.109.645.507 1.363.8 3.136 1.275 1.986.534 3.77 1.232 5.147 2.015l.348.197-.001-.565-.001-.565-.97-.538c-1.2-.666-1.734-.909-2.623-1.192-3.305-1.052-3.573-1.15-4.575-1.666a7.704 7.704 0 01-.805-.47c-.242-.182-.466-.449-.466-.555 0-.104-.082-.07-.113.045zm10.724.206c-.12.288-.136.6-.046.91.154.53.744 1.6 1.454 2.637 1.119 1.632 1.953 2.517 2.373 2.517.135 0 .14-.007.113-.172-.03-.184-.431-.803-1.21-1.866-.382-.522-.561-.837-1.106-1.942-.69-1.402-.975-1.883-1.227-2.072-.268-.201-.272-.202-.351-.012zm34.597-.023c-.336.265-.5.532-1.142 1.847-.698 1.43-.833 1.656-1.656 2.778-.594.81-.814 1.176-.814 1.354 0 .14.128.142.397.006.736-.372 2.729-3.097 3.45-4.717a1.37 1.37 0 00.148-.696c0-.347-.082-.719-.159-.719a.974.974 0 00-.224.147zm-21.109.205c.229.333.647.685.952.802.526.202 1.05.135 2.48-.316l.383-.12-.455.023c-.25.012-.693.058-.983.102-.786.117-1.223.081-1.665-.137a3.191 3.191 0 01-.574-.369c-.12-.106-.233-.193-.25-.193-.017 0 .034.094.112.208zm5.452-.128c-.017.017-.032.148-.032.29 0 .25.006.26.167.328.091.038.22.07.287.07.114 0 .122-.016.122-.24 0-.238-.001-.239-.238-.36-.266-.134-.261-.133-.306-.088zm16.796.436c.019.204.035.566.037.804.005.575.052.646.435.646.333 0 .504-.057.683-.228.172-.164.166-.264-.033-.533-.249-.336-1.017-1.061-1.125-1.061-.017 0-.015.167.003.372zm-18.29.25c-.514.117-1.135.36-1.254.493-.185.206-.185.252.003.142.214-.127.241-.13.202-.028-.027.07-.017.069.097-.005.095-.063.135-.069.162-.025.027.043.06.044.134.005.073-.04.103-.038.118.006.014.043.053.036.146-.024.155-.102.196-.105.16-.011-.032.084-.011.087.199.027l.157-.045-.13.236-.128.237-.604.001c-.496 0-1.21.088-1.279.156a14.54 14.54 0 00-.2.746c-.103.402-.164.71-.137.682.071-.072.127-.062.127.022 0 .093.043.09.152-.008.048-.043.087-.06.088-.036 0 .024.021.076.046.115.039.062.056.059.119-.023.071-.093.076-.093.142-.008.065.084.07.083.128-.024l.06-.112.056.137.056.136.1-.136.098-.136.06.131c.075.165.11.165.185 0 .058-.127.062-.128.127-.039.038.051.068.11.068.132 0 .091.097.028.124-.081.039-.154.105-.154.144 0 .034.134.116.115.116-.027 0-.122.08-.12.12.003.055.177.106.098.13-.204.031-.39.194-.76.424-.969.183-.166.328-.22 1.025-.381.534-.125.496-.173-.135-.173h-.563l-.071-.17c-.153-.367-.145-.427.08-.579.112-.076.213-.165.224-.198.029-.088-.41-.07-.876.035zm27.678.042c-.22.534-1.903 1.383-4.052 2.046-2.428.748-3.386 1.136-4.582 1.852l-.557.333-.034.554c-.019.305-.022.565-.008.58.014.014.237-.094.495-.24.755-.425 1.28-.675 2.122-1.007.94-.372 1.423-.529 2.542-.825 2.252-.596 3.155-1.033 3.792-1.833.416-.524.572-1.087.407-1.474l-.06-.141-.065.155zm-26.337.315c-.097.148-.09.16.113.201.176.035.187 0 .06-.19l-.09-.138-.083.127zm.59.083a1.126 1.126 0 00-.01.223c.005.009.153.036.328.06.174.025.446.098.604.162.33.134.362.093.142-.175-.16-.194-.552-.401-.85-.449l-.192-.03-.022.209zm-1.23-.1c-.11.045-.111.05-.028.142.1.111.209.12.335.028.078-.057.082-.078.027-.144-.071-.086-.164-.093-.334-.025zm-28.992.66c-.203.753-.095 1.462.29 1.9.447.508 1.811 1.094 3.685 1.583a32.04 32.04 0 011.422.403c.782.262 3.292 1.305 3.886 1.615.586.306.59.307.564.177a21.328 21.328 0 01-.106-.835l-.08-.703-.269-.14c-2.19-1.142-2.407-1.23-4.505-1.839a55.137 55.137 0 01-1.742-.53 17.188 17.188 0 01-1.952-.886c-.373-.21-.752-.566-.92-.865-.08-.14-.15-.255-.158-.255-.008 0-.06.168-.115.375zm10.416.6c-.095.63.354 1.291 2.105 3.094.682.703 1.462 1.277 1.778 1.31.27.029.162-.178-.376-.728-1.138-1.163-1.49-1.591-2.333-2.853a5.989 5.989 0 00-.474-.616c-.197-.211-.503-.415-.622-.415-.026 0-.06.093-.078.207zm35.414-.12c-.08.049-.241.197-.36.329-.208.233-.301.36-1.153 1.57-.261.371-.719.907-1.301 1.522-.495.523-.899.983-.899 1.022 0 .215.57-.015 1.1-.444.663-.536 2.04-1.994 2.508-2.653.336-.475.415-.681.416-1.086.002-.391-.04-.425-.31-.26zm10.12.367a2.865 2.865 0 01-.414.468c-.7.633-1.826 1.12-4.026 1.738-1.816.51-2.678.838-3.785 1.435-.41.221-.825.43-.924.464-.168.06-.18.075-.18.263 0 .11-.053.486-.12.837-.065.35-.11.646-.1.657.01.01.339-.143.73-.34 1.018-.512 3.339-1.437 4.235-1.687l1.462-.407c1.456-.404 2.543-.89 3-1.34.483-.474.632-1.149.422-1.9-.062-.222-.125-.403-.139-.403-.014 0-.086.097-.161.215zM25.377 31.55c-.91.275-1.686.514-1.726.53-.05.022-.028.042.072.066.313.076 3.772.963 4.29 1.1.302.08.596.146.652.146.093 0 .114-.065.259-.826.086-.455.16-.857.162-.893.003-.046-.3-.153-.978-.347-.54-.154-1.004-.28-1.03-.278a67.61 67.61 0 00-1.701.502zm9.296-.17c-.83.18-1.786.387-2.125.459l-.615.13.03.22c.017.122.119.58.227 1.017l.197.797 1.73-.004c1.864-.003 2.232.034 2.597.26.163.1.307.31.307.444 0 .037-.108.235-.241.439-.296.453-.328.581-.191.756.178.226.792.383 2.205.562.392.05.759.115.815.146.125.067.199.023.578-.343.399-.383 2.063-2.273 2.205-2.503.068-.11.234-.405.369-.657l.246-.457-.598-.183a8.096 8.096 0 00-.777-.207c-.203-.027-1.304.121-3.46.466-.804.129-1.7.268-1.99.31-.29.043-1.12.172-1.844.287-2.737.435-2.438.358 1.726-.448 1.91-.37 3.554-.686 3.653-.704.099-.017.18-.046.179-.062 0-.017-.438-.156-.97-.308-.534-.152-1.3-.373-1.703-.49a13.112 13.112 0 00-.886-.234c-.09-.013-.784.115-1.664.306zm-15.373.24a.347.347 0 00-.105.258c0 .548 1.093 1.816 1.301 1.51.09-.133.005-.557-.183-.916-.187-.356-.712-.95-.84-.95-.038 0-.116.045-.173.098zm24.566.23c-.276.298-.65.975-.692 1.255-.016.106 0 .201.042.258.06.08.087.084.242.033.374-.124 1.087-1.115 1.087-1.513 0-.182-.125-.313-.298-.313-.088 0-.196.08-.381.28zm-14.533-.073c-.008.032-.063.327-.122.657-.058.33-.119.653-.133.719-.024.107-.019.113.052.055.068-.057.084-.054.113.022.029.075.042.068.092-.055l.058-.142.06.132c.073.16.11.165.176.024l.05-.108.051.12.05.12.032-.108c.018-.06.049-.108.069-.108.02 0 .07.049.112.108.063.09.075.094.077.024.004-.12.082-.104.116.024l.028.108.081-.115.081-.116.085.105.084.104.078-.109c.076-.107.079-.107.147-.016.038.051.07.11.07.132 0 .09.087.029.115-.081.04-.158.105-.152.149.012l.035.132.06-.14.06-.141.07.135.072.136.034-.136.034-.136.115.141.115.14.001-.187.002-.189.113.106.112.106-.115-.683a11.24 11.24 0 00-.13-.7 17.787 17.787 0 00-1.016-.041c-.55-.015-1.072-.045-1.159-.067-.11-.028-.163-.023-.174.016zm-15.54.331c.05.49.335.868 1.263 1.67 1.277 1.103 2.53 1.886 2.88 1.798.1-.025.105-.038.05-.141-.034-.062-.428-.399-.876-.747-.93-.724-1.155-.933-1.94-1.802-.588-.65-.963-.955-1.242-1.01l-.163-.033.027.265zm35.8-.157c-.13.06-.428.328-.86.778-1.106 1.15-1.308 1.338-2.08 1.941-.854.668-1 .81-.922.887.151.152.908-.211 1.761-.845 1.735-1.29 2.468-2.076 2.468-2.647 0-.241-.052-.257-.367-.114zm-29.14.33c-.06.009-.108.039-.108.068 0 .135.928 1.595 1.402 2.207.236.305.058.198-.237-.142-.345-.398-.674-.742-.586-.614.037.053.474.582.973 1.175.944 1.125 1.687 1.917 2.258 2.409.4.346.504.513.499.803l-.004.217-.113-.247c-.173-.38-.23-.376-.191.014.111 1.143.44 2.33.912 3.288.216.437.883 1.412 1.127 1.646l.142.137v-.287c0-.278-.007-.294-.22-.5a4.425 4.425 0 01-.752-1.031c-.121-.24-.466-1.072-.466-1.123 0-.015.114.18.254.433.319.577.535.873.858 1.174l.254.237.013-.514.014-.512-.353-.35c-.517-.513-.892-1.103-1.059-1.666-.139-.47-.068-.445.218.075.283.516.506.78.944 1.109l.384.29.549-.535c.585-.571.622-.626.868-1.27.262-.687.357-1.16.412-2.046.027-.449.092-1.23.144-1.738.052-.507.094-.933.094-.947 0-.08-1.203.028-1.63.147-.333.093-.739.367-.815.55-.098.237-.02.371.513.88.278.265.524.532.547.593.055.142-.036.366-.244.603-.326.371-1.798 1.225-2.015 1.168-.056-.015-.097.006-.11.056-.011.043-.023-.053-.026-.213l-.006-.292-.251-.177c-.336-.236-.634-.504-.6-.538.016-.016.219-.07.452-.12.663-.145 1.007-.276 1.197-.456.157-.147.171-.181.148-.355-.015-.112-.117-.335-.246-.536-.121-.19-.22-.394-.22-.454 0-.155.26-.434.534-.573.438-.222.946-.312 1.924-.342l.9-.027-.014-.221-.014-.221-.647-.13c-.356-.072-1.25-.249-1.989-.394-.738-.145-1.88-.372-2.538-.505-.658-.133-1.265-.242-1.349-.242-.084 0-.429.086-.767.192-.338.105-.64.192-.672.192-.031 0-.085-.081-.12-.18-.052-.145-.085-.177-.172-.165zm-1.577.488c-.145.059-.256.236-.256.41 0 .287.581 1.089.998 1.375.124.086.297.156.417.17.18.02.214.008.286-.102a.362.362 0 00.051-.293c-.076-.409-.635-1.206-1.028-1.466-.223-.148-.297-.163-.468-.094zm25.741-.012c-.424.105-1.063.92-1.224 1.56-.076.302-.01.419.238.419.392 0 1.057-.602 1.352-1.223.165-.347.17-.462.03-.617-.119-.13-.248-.175-.396-.139zm-39.772.094c-.051.135.026.583.122.705.05.063.285.255.524.427l.434.313.115-.116c.064-.064.16-.116.214-.116.132 0 .124-.052-.051-.337a.889.889 0 00-.42-.379 4.612 4.612 0 01-.564-.358 2.835 2.835 0 00-.318-.22c-.013 0-.038.036-.056.081zm53.98.55a25.5 25.5 0 01-.862.49c-.383.206-.47.276-.55.437-.207.414-.084.839.281.978.464.177 1.01-.307 1.37-1.216.192-.484.301-.938.224-.935-.03 0-.238.111-.462.246zM6.4 33.523c0 .012.067.116.15.23.093.13.315.317.593.499.436.283.71.575.943 1.004l.081.148.183-.076c.135-.056.264-.069.495-.047.279.026.319.018.372-.068a.746.746 0 01.208-.187c.172-.105.274-.085.695.133.155.08.447.223.65.318.264.123.395.216.465.33l.097.157.621-.099c.342-.054.635-.112.651-.128.016-.017-.052-.063-.152-.104-.1-.04-.688-.303-1.307-.584-1.418-.644-2.2-.937-3.206-1.203-.795-.21-1.54-.366-1.54-.323zm7.552.007c-.039.062.068.453.168.615.149.24.515.545 1.206 1.004 1.26.836 1.956 1.194 2.434 1.25.456.054.271-.155-.616-.697-.778-.475-1.225-.807-1.994-1.48a11.361 11.361 0 00-.624-.52c-.154-.1-.546-.218-.574-.172zm35.545.047c-.292.101-.34.136-1.32.972-.558.477-.962.771-1.568 1.142-.448.276-.827.533-.842.572-.094.246.4.164 1.1-.181.576-.284 1.843-1.093 2.282-1.457.412-.342.62-.653.62-.929a.887.887 0 00-.013-.206c-.006.001-.123.04-.26.087zm-18.082.155c-.418.076-1.982.148-2.19.101-.194-.044-.202-.04-.227.081-.052.248-.114 1.091-.09 1.23.053.333.093.337.165.017.09-.401.248-.453.203-.066-.026.225-.02.264.047.264.055 0 .079-.042.079-.14 0-.174.045-.299.097-.267.021.013.017.102-.009.197-.03.112-.031.19-.002.22.06.06.114-.023.179-.27.027-.104.078-.198.113-.21.042-.014.055.009.038.069a3.994 3.994 0 00-.055.273c-.027.159-.02.182.053.168.054-.01.103-.09.135-.218a.737.737 0 01.11-.261c.048-.048.06-.004.06.218 0 .36.113.35.134-.01.008-.137.037-.249.064-.249.033 0 .039.084.018.235-.021.157-.014.246.023.269.083.05.108.001.133-.264.018-.188.037-.23.084-.19.04.032.052.117.037.234-.016.114-.004.197.032.219.088.054.12-.012.114-.23-.003-.11.019-.231.049-.269.043-.053.06-.018.078.168.017.167.046.236.096.236.053 0 .076-.066.087-.252.017-.305.105-.338.105-.04 0 .258.037.364.125.364.05 0 .067-.074.067-.288 0-.354.085-.383.105-.036.01.186.034.252.086.252.053 0 .076-.066.087-.248.02-.341.131-.432.165-.134.014.12.037.23.051.245.071.072.129-.063.129-.303 0-.222.012-.26.076-.236a.49.49 0 00.094.029.91.91 0 01.124.203c.057.112.113.178.124.145.028-.082-.15-.768-.277-1.062-.103-.24-.11-.245-.303-.24a3.37 3.37 0 00-.413.046zm10.99.488c-.996 1.14-2.47 2.534-3.31 3.13-.234.166-.28.261-.35.718-.182 1.208-.68 2.258-1.383 2.916-.254.238-.653.506-.904.606l-.155.063v.997l.131-.032c.405-.097.944-.504 1.31-.989.54-.713.95-1.752 1.22-3.09l.119-.583 1.07-1.07a22.33 22.33 0 001.852-2.055c.43-.54.815-1.02.854-1.067.04-.046.06-.084.044-.084-.015 0-.239.243-.498.54zm-37.68-.235c-.067.067-.065.87.004 1.192.063.3.215.614.42.872a.983.983 0 01.149.222c0 .02-.27.051-.6.07-.588.034-.598.037-.598.149 0 .062.056.229.125.37l.126.256.341-.065c.298-.057.38-.056.64.008.163.041.306.074.318.074.011 0 .034-.053.05-.119a.374.374 0 01.176-.194c.137-.071.16-.069.413.047.147.068.341.201.431.296.15.16.17.167.247.098.13-.118.442-.233.554-.205.16.04.468.388.583.659l.104.247.06-.259c.13-.555.317-.818.732-1.03l.227-.117v-.277c0-.191-.033-.342-.108-.49-.094-.188-.134-.22-.318-.258-.194-.041-.355-.021-.796.097-.079.02-.12-.023-.229-.245-.173-.354-.957-1.175-1.122-1.175-.176 0-.488.18-.583.336l-.085.14-.236-.24a2.826 2.826 0 00-.387-.335c-.192-.12-.569-.193-.638-.124zm27.744.129c0 .033.182.613.404 1.288.223.675.506 1.545.63 1.933.345 1.087.878 2.121 1.368 2.653.11.119.379.325.598.457.22.133.484.342.592.467l.193.226.268-.144c.365-.196.952-.672 1.323-1.074.487-.526.758-1.17.758-1.802v-.29l-.755-.282c-1.447-.54-2.028-.83-2.251-1.12-.163-.211-.123-.392.166-.749.126-.154.298-.378.384-.497.347-.48.112-.818-.7-1.004-.44-.1-2.978-.153-2.978-.062zm-11.92.03c-.11.044-.069.373.074.586.224.334.745.725.965.725.157 0 .135-.32-.038-.556-.233-.32-.817-.812-.927-.783a1.204 1.204 0 00-.075.028zm21.957.413c-.264.265-.412.454-.442.564-.052.193 0 .334.125.334.143 0 .497-.256.782-.566.393-.425.424-.729.076-.729-.116 0-.22.076-.54.398zm-23.908-.14c-.25.25-.13.804.244 1.133.356.313.988.519 1.117.364.169-.204-.32-1.063-.81-1.427-.267-.198-.405-.215-.55-.07zm26.055.019c-.368.25-.863.96-.91 1.304l-.025.194h.262c.676 0 1.425-.714 1.308-1.247-.038-.172-.231-.383-.35-.383-.05 0-.178.06-.285.132zm11.896-.004c-.053.012-.376.098-.719.191-.666.181-1.078.337-1.078.408 0 .223.638 1.015.978 1.215.117.069.286.137.375.151.528.086 1.01-.632.86-1.282-.063-.273-.245-.718-.29-.71a6.018 6.018 0 00-.126.027zm2.293 1.042c-.96.747-1.623 1.439-1.844 1.923-.107.234-.115.65-.017.84.083.16.376.265.618.219.427-.081.97-.754 1.31-1.62.194-.5.511-1.634.48-1.725-.008-.027-.255.136-.547.364zm-44.775-.28c0 .262.404.645.97.92 1.007.489 2.142.867 2.732.91.322.023.372.017.372-.05 0-.11-.146-.19-.72-.393-.807-.286-1.035-.392-1.82-.843-.963-.552-1.534-.755-1.534-.544zm29.203.018c-.325.146-.93.865-.93 1.105 0 .028.053.075.117.104.16.073.44-.094.806-.478.294-.309.393-.494.35-.66-.036-.149-.127-.168-.343-.071zm5.923-.025c-.118.033-.474.217-.79.407a10.63 10.63 0 01-2.077.99c-.377.14-.698.265-.712.28-.015.014-.014.059.002.1.122.318 2.743-.527 3.647-1.177.197-.141.41-.46.41-.611 0-.072-.203-.068-.48.01zm-39.696.107c-.145.145-.159.305-.07.825l.057.33.158-.065c.086-.036.258-.066.38-.066h.224l-.027-.17c-.053-.327-.425-.98-.558-.98a.524.524 0 00-.164.126zm10.666-.07c-.212.212.253.841.839 1.136.229.116.347.13.355.042.025-.273-.124-.53-.53-.914-.347-.327-.528-.4-.664-.263zm33.2.113a2.39 2.39 0 00-.323.124c-.14.075-.566.727-.665 1.018-.105.308-.074.764.061.9.268.268.87.096 1.19-.34.348-.476.778-1.646.637-1.735-.097-.062-.663-.041-.9.033zm-43.01.25l.127.334c.053.139.112.262.133.275.08.049.387-.075.387-.156 0-.229-.332-.537-.578-.537-.079 0-.095.02-.07.084zm11.316.005c-.11.121-.098.2.064.445.225.34.776.725.914.64.205-.127-.303-.861-.76-1.098-.129-.067-.147-.066-.218.013zm20.204-.016c-.208.088-.655.516-.75.717a.822.822 0 00-.076.285c0 .113.013.122.132.094.187-.045.295-.105.524-.29.28-.226.408-.42.408-.622 0-.225-.05-.264-.238-.184zm-9.474.26c-.12.133-.087.665.053.853.322.433.634-.16.362-.689-.139-.27-.271-.322-.415-.163zm-2.19.046c-.1.082-.114.138-.129.521-.018.477.052.697.237.745.27.07.49-.452.387-.915-.093-.413-.265-.536-.494-.35zm.761-.007c-.206.227-.238.688-.07 1.02.135.269.264.298.43.1.2-.236.224-.735.053-1.073a.252.252 0 00-.413-.047zm.8-.048c-.104.07-.164.248-.164.49 0 .291.093.535.244.641.104.073.118.072.222-.026a.714.714 0 00.16-.285c.11-.412-.213-.986-.463-.82zm-2.286.204c-.164.129-.242.384-.215.703.027.323.123.441.297.362.264-.12.393-.642.246-.995-.08-.19-.155-.207-.328-.07zm25.422.37c-.196.868-.25 1.277-.25 1.893 0 .78.058 1.05.274 1.29.231.256.471.325.715.205.31-.153.378-.332.374-1.001-.003-.477-.025-.645-.129-.984-.18-.588-.59-1.536-.744-1.721l-.133-.16-.107.479zm-36.214-.36c-.154.088-.213.193-.215.385 0 .145.034.214.18.36.405.402 1.402.741 1.4.476-.001-.148-.261-.59-.489-.83-.37-.392-.655-.519-.876-.392zm10.154.053c-.171.148-.226.603-.09.753.108.12.14.118.259-.008.132-.143.219-.553.153-.725-.063-.161-.151-.167-.322-.02zm15.761-.041c-.208.09-.532.439-.747.802-.285.481-.23.582.24.446.378-.11.901-.39 1.045-.562.19-.226.136-.594-.104-.703-.15-.069-.245-.065-.434.017zm-32.792.146c-.25.06-.624.125-.83.145-.392.037-.415.068-.115.164.246.079.448.26.514.459.03.092.08.167.111.168.031.002.25.008.488.015.476.014.653.08.851.314.137.163.248.562.216.778-.019.128.014.18.265.418.347.328.719.879.793 1.174.07.28.001.658-.167.919a3.28 3.28 0 01-.408.46l-.283.266 1.28.416c.704.229 1.288.408 1.298.398.01-.01-.108-.242-.263-.515-.77-1.358-1.382-2.96-1.82-4.76l-.181-.745-.413-.097c-.509-.12-.753-.116-1.336.023zm2.3.093c0 .133.281.391.584.538.349.169 1.709.6 2.326.736.236.052.6.092.828.092.374 0 .4-.006.311-.073-.052-.04-.246-.116-.43-.17-.94-.274-1.835-.585-2.374-.825-.78-.347-1.245-.458-1.245-.298zm35.007.002a7.797 7.797 0 00-.79.31c-.68.304-1.191.487-1.966.702-.688.19-.815.238-.815.306 0 .072.556.06.98-.021.54-.103 2.093-.58 2.489-.762.332-.154.605-.396.605-.539 0-.085-.181-.084-.504.004zm-29.128.056c-.018.018-.032.083-.032.146 0 .375.694.969 1.135.972.205.001.228-.056.12-.298-.202-.455-1.033-1.01-1.223-.82zm23.23.109c-.285.163-.714.613-.76.797-.04.156-.034.162.176.196.226.037.445-.074.806-.407.264-.244.297-.295.32-.5l.025-.227h-.162c-.09 0-.27.063-.406.14zm7.958.026c-.672.2-.63.165-.666.54-.043.437-.002.665.184 1.003.27.492.629.58.875.213.174-.258.216-.465.241-1.192l.024-.683-.138.002c-.075.002-.31.054-.52.117zm-29.627.2c-.097.04-.069.274.053.438.207.282.73.643 1.017.703.187.039.277-.054.231-.238-.048-.19-.508-.62-.845-.788-.292-.146-.345-.16-.456-.114zm20.225.067c-.382.191-.925.755-.925.96 0 .166.185.158.548-.021.581-.287.948-.713.808-.937-.071-.114-.206-.114-.431-.002zm-32.205.072c-.657.177-.931.471-1.04 1.117-.049.295-.056.306-.236.368-.324.111-.606.45-.605.728 0 .146.18.564.337.785.085.118.093.171.057.368-.054.296-.005.468.19.671.212.22.294.26.622.298.26.03.374-.012.205-.077-.04-.016-.126-.13-.19-.256l-.114-.227.215-.155c.214-.154.218-.154.68-.133.256.012.515.039.576.059.11.037.11.037.079-.317-.036-.4.017-.663.184-.91.084-.124.14-.16.228-.148.267.036.734.452.966.86.079.138.163.252.188.252a.475.475 0 00.16-.076c.075-.049.278-.085.574-.103l.458-.027-.001.354c-.001.361-.101.68-.273.87-.155.171-.023.123.352-.128.54-.362.64-.493.64-.834 0-.188-.037-.351-.118-.525-.14-.3-.551-.752-.803-.88l-.18-.092v-.323c0-.368-.093-.596-.304-.75-.115-.085-.213-.102-.665-.11l-.53-.01-.083-.181c-.17-.372-.487-.544-.993-.54a2.802 2.802 0 00-.576.072zm13.277.1c-.103.268.71.962 1.078.92.182-.022.182-.138 0-.377-.329-.43-.993-.765-1.078-.543zm17.509.065c-.367.232-.656.55-.656.719 0 .127.017.145.135.145.138 0 .614-.26.818-.447.14-.129.254-.386.215-.486-.045-.117-.266-.088-.512.069zm-34.394.263c-.093.093-.191.101-.632.054-.204-.022-.427-.026-.497-.008-.122.03-.126.042-.106.315.015.206.07.383.204.646.101.2.175.368.165.374l-.297.15c-.18.09-.304.19-.352.282l-.074.143.424.416c.894.877 1.848 1.342 2.76 1.345.151 0 .275-.008.275-.018 0-.01-.042-.113-.094-.228a1.267 1.267 0 01-.096-.476.974.974 0 00-.142-.528c-.32-.59-.293-.964.096-1.338.13-.124.236-.263.236-.307 0-.128-.169-.424-.329-.576l-.147-.14-.192.127a.92.92 0 00-.266.272c-.096.185-.135.181-.208-.022-.066-.183-.454-.554-.58-.554a.252.252 0 00-.148.07zm47.683.306c-1.463.69-2.148 1.21-2.34 1.776-.097.283-.07.432.107.61.145.145.191.162.422.162.36 0 .678-.17 1.095-.588.188-.188.49-.565.67-.839.346-.524.843-1.45.779-1.45-.021 0-.35.148-.733.329zm-39.2-.093c0 .137.248.318.586.43.395.13 1.39.368 1.925.46.465.08 1.206.098 1.248.03.052-.084-.103-.143-.644-.245a13.844 13.844 0 01-2.044-.53c-.796-.26-1.07-.297-1.07-.145zm4.317.034c-.3.383.092.76.926.89.47.073.522.033.35-.262-.133-.226-.466-.524-.745-.666-.244-.125-.412-.113-.531.038zm25.652-.03c-.257.13-.845.737-.824.85.042.222.967.032 1.297-.267.42-.38.043-.844-.473-.583zm4.367-.043c-.105.024-.52.154-.92.287a15.47 15.47 0 01-1.525.401c-.437.088-.807.171-.821.186-.14.14.45.17 1.19.058.651-.099 1.69-.333 2.014-.455.293-.111.586-.346.554-.445-.025-.077-.243-.091-.492-.032zm-16.705.147c-.074.14-.029.795.068.983a.81.81 0 00.151.207c.135.112.188-.014.187-.443-.001-.614-.241-1.055-.406-.747zm.502.02c-.073.294.081 1.027.217 1.027.115 0 .16-.159.138-.492-.034-.52-.27-.875-.355-.534zm.46.067c0 .28.09.598.2.717.146.157.2.075.172-.265-.026-.325-.156-.609-.29-.634-.066-.013-.081.022-.081.182zm-12.735-.093c-.233.093-.265.456-.058.663.317.317 1.118.604 1.221.437.09-.146-.496-.924-.81-1.073-.183-.087-.201-.088-.353-.027zm22.775.041c-.318.148-.79.728-.79.971 0 .127.013.137.188.137.206 0 .891-.322 1.043-.49.056-.062.087-.17.087-.305 0-.337-.208-.46-.528-.313zm-13.165.01c-.103.058-.18.334-.18.642.001.31.051.397.164.284.127-.127.17-.285.17-.62 0-.326-.025-.378-.154-.306zm.392.047c-.096.18-.114.766-.03.967.042.099.1.18.128.18.098 0 .192-.33.192-.668 0-.491-.15-.74-.29-.479zm.545.026c-.07.106-.087.23-.087.602 0 .422.01.479.107.576l.108.108.097-.096c.053-.053.12-.216.151-.36.07-.337-.023-.788-.184-.895-.096-.063-.112-.058-.192.065zm.677-.009c-.065.1-.077.203-.06.519.026.47.131.72.293.698.231-.033.289-.738.093-1.139-.104-.212-.22-.24-.326-.078zm-3.064.09c-.092.22-.111.52-.036.547.072.026.178-.214.221-.502.026-.166.017-.204-.044-.204-.04 0-.104.071-.14.158zm.338-.051a.974.974 0 00-.104.328c-.023.17-.012.23.053.283.073.061.094.056.175-.045.072-.089.09-.175.079-.379-.016-.294-.089-.361-.203-.187zm.522-.01c-.113.125-.164.707-.068.766a.156.156 0 00.122.015c.097-.038.212-.326.212-.535 0-.349-.095-.436-.266-.245zm-7.69.133c-.086.069-.113.137-.11.27.006.203.116.347.337.44.345.147.93.023.962-.204.027-.189-.446-.492-.882-.566-.152-.026-.217-.013-.307.06zm19.856.01a1.781 1.781 0 00-.455.288l-.208.19.112.095c.252.214.857.245 1.11.057.095-.071.123-.139.134-.329.01-.165-.007-.257-.055-.297-.125-.104-.38-.105-.638-.003zm8.167.706c-.21.614-.286.915-.323 1.272-.062.605-.006 1.035.166 1.26.303.398.843.216 1.01-.34.09-.296.088-.967-.002-1.445-.069-.363-.488-1.55-.548-1.55-.016 0-.152.361-.303.803zm-26.577-.62c-.113.077-.046.307.117.402.47.274 1.28.154 1.007-.148-.165-.182-.965-.364-1.123-.255zm16.143.164c-.05.112-.167.573-.261 1.024-.19.911-.286 1.23-.551 1.845-.376.872-1.06 1.678-2.029 2.393l-.419.309v.567l.132-.086c.369-.24.887-.67 1.186-.986.527-.556.82-.976 1.15-1.649a9.197 9.197 0 00.764-2.15c.123-.548.218-1.47.151-1.47-.019 0-.074.091-.123.203zm.773-.133c-.456.11-.704.41-.406.49.308.083.848-.004 1.033-.166a.307.307 0 00.084-.205c0-.199-.225-.237-.711-.12zm-25.406.244c0 .157.234.32.617.43.737.21 3.012.387 3.155.245.073-.073-.088-.13-.492-.176a14.563 14.563 0 01-2.016-.338c-.737-.168-1.264-.235-1.264-.16zm33.689.066c-1.056.252-1.518.339-2.06.386-.68.06-.95.125-.866.21.078.077 1.18.056 1.966-.038 1.101-.131 1.849-.356 1.813-.545-.022-.116-.4-.121-.853-.013zm10.352.152c-.751.452-1.266.832-1.683 1.242-.56.55-.72.883-.608 1.262.084.283.245.384.568.355.488-.044.827-.308 1.261-.982.49-.76 1.07-2.122.904-2.122-.02 0-.219.11-.442.245zm-35.525.22c-.065.017-.083.06-.072.175.011.118.051.17.182.235.292.146 1.005.091 1.071-.082.085-.222-.723-.446-1.181-.328zm16.724.02c-.274.064-.369.13-.369.256 0 .138.195.219.523.217.45-.002.771-.152.771-.359 0-.144-.523-.21-.925-.114zm4.064-.021c-.414.09-.839.313-.839.441 0 .08.494.198.826.198.286 0 .374-.017.437-.087.082-.091.105-.326.042-.425-.036-.056-.273-.164-.337-.154a4.778 4.778 0 00-.129.027zm-24.476.068c-.117.068-.11.353.012.475.164.164.923.12 1.177-.068.092-.07.092-.07-.004-.169-.215-.218-.961-.368-1.185-.238zm14.325.076c-.048.047-.038.303.018.507.066.237.245.445.35.405.156-.06.058-.591-.15-.812-.13-.138-.165-.154-.218-.1zm-18.925.094c-.133.039-.014.203.224.309.26.114 1.15.26 2.041.334.72.06 1.275.037 1.453-.06.103-.054.102-.055-.023-.089a5.05 5.05 0 00-.575-.067 14.469 14.469 0 01-1.925-.286c-.57-.123-1.057-.18-1.195-.14zm33.485.013c-.106.02-.44.093-.743.161-.58.13-1.09.203-1.906.27-.27.021-.507.054-.526.073-.111.111.433.195 1.032.158 1.417-.088 2.134-.191 2.525-.364.203-.09.313-.213.25-.277-.048-.047-.43-.06-.632-.02zm-26.427.099c-.122.122-.099.348.052.505.167.173 1.24.152 1.24-.025 0-.069-.353-.348-.548-.434a1.962 1.962 0 00-.418-.117c-.19-.028-.238-.018-.326.07zm11.356.024c-.08.15.005.762.124.893.133.148.25.116.287-.079.06-.326-.073-.78-.261-.88-.07-.039-.1-.026-.15.066zm8.01-.025c-.285.105-.554.291-.632.437-.073.136.032.165.609.165.45 0 .496-.009.61-.116.14-.13.17-.386.057-.48-.122-.101-.38-.104-.645-.006zm-13.123.062c-.142.156-.193.272-.227.516-.038.27.015.368.158.291.163-.087.3-.408.284-.662-.017-.257-.076-.297-.215-.145zm4.598-.028c-.085.034-.079.694.007.901.038.09.112.186.166.215.084.045.111.034.18-.071.071-.109.075-.168.029-.465-.066-.426-.212-.648-.383-.58zm-11.809.147c-.131.153-.14.2-.068.341.095.185.436.34.823.377.335.031.358.011.24-.215-.198-.38-.828-.698-.995-.504zm7.657-.009c-.166.166-.24.866-.105.979.212.175.48-.648.313-.96-.06-.112-.111-.117-.208-.019zm13.838.018c-.266.121-.655.498-.632.612.027.137.477.111.822-.047.384-.175.465-.453.177-.608-.12-.064-.136-.062-.367.043zm-13.305.06c-.276.276-.28 1.168-.006 1.063.115-.044.257-.378.288-.675.024-.23.014-.295-.066-.393l-.094-.117-.122.122zm3.036.047c-.074.214-.065.514.024.776.062.182.098.224.19.224.17 0 .247-.293.175-.68-.083-.446-.287-.613-.389-.32zm-1.891-.013c-.259.285-.224 1.324.04 1.223.225-.086.352-.862.192-1.171-.085-.165-.123-.174-.232-.052zm-19.544.09c-.092.221-.104.874-.021 1.154.04.137.056.249.034.249s-.162-.056-.312-.125c-.35-.16-.755-.2-.998-.099-.1.042-.193.11-.21.152-.04.103.145.294.421.434.21.107.29.115 1.427.147l1.204.033.214-.223c.257-.269.418-.569.398-.742-.012-.106-.042-.131-.172-.144-.23-.022-.657.079-.795.187-.13.102-.144.093-.195-.124-.06-.257-.264-.546-.558-.79-.159-.133-.31-.24-.335-.24-.026 0-.072.059-.102.131zm18.864-.014c-.042.064-.1.253-.128.42-.042.25-.038.332.026.481.157.371.373.138.406-.44.03-.526-.116-.748-.304-.461zm1.894.004c-.094.114-.072.753.034.97.105.216.268.262.354.102.08-.152.031-.87-.07-1.026-.09-.135-.227-.155-.318-.046zm-.61.105c-.12.184-.145.903-.039 1.11.187.361.431.064.429-.521-.003-.552-.21-.864-.39-.589zm-7.24-.035a.587.587 0 00-.235.112c-.067.066-.059.089.079.226.145.146.166.152.461.133.32-.02.574-.146.574-.284 0-.175-.49-.28-.88-.187zm15.818.024c-.327.142-.242.326.19.413.32.064.582.026.713-.105.264-.264-.447-.507-.903-.308zm14.561.175c-.21 1.036-.247 1.316-.234 1.732l.014.443.325.014c.376.017.983-.058 1.054-.129.114-.113-.68-1.912-.963-2.18l-.144-.136-.052.256zm-49.72.04c.062.318.257.95.372 1.206.266.594 1.05 1.399 1.51 1.548.456.148 1.847.328 3.73.484 2.45.203 4.1.445 5.905.866.616.143 1.139.26 1.162.26.053 0-.801-1.293-.91-1.38-.184-.145-1.393-.455-2.834-.725-1.044-.196-2.062-.33-3.499-.458-1.785-.16-3.17-.366-3.715-.554-.45-.155-.668-.311-1.227-.878-.498-.506-.526-.527-.494-.368zm15.561-.072c-.261.114-.255.451.011.553.261.099 1.078-.148 1.078-.326 0-.095-.14-.156-.575-.25-.28-.06-.33-.057-.514.023zm23.468-.007c-.281.064-.48.154-.48.218 0 .149.471.342.858.352.217.006.273-.011.348-.103.116-.143.112-.211-.02-.362-.132-.153-.352-.186-.706-.105zm-28.226.113c0 .125.223.23.661.311.558.104 2.805.177 3.077.1l.168-.048-.135-.054a1.302 1.302 0 00-.384-.054c-.137 0-.724-.055-1.303-.121-1.293-.15-2.084-.2-2.084-.134zm32.275.042c-.533.08-1.274.16-1.954.21-.532.04-.594.056-.54.143.07.114 2.812.02 3.324-.114.27-.07.488-.19.488-.267 0-.067-.8-.05-1.318.028zm5.284.416c-1.274.8-1.76 1.21-1.856 1.568-.03.112-.045.215-.032.228.09.09.46.106.907.04l.49-.07.279-.302c.39-.42.688-.846.82-1.173.124-.305.206-.734.14-.734-.023 0-.36.2-.748.444zm-30.292-.2c-.14.11-.172.33-.062.422.119.099.354.113.613.037.534-.155.556-.33.06-.47-.377-.108-.462-.106-.61.011zm18.42.01c-.397.135-.432.237-.129.372.498.22.895.157.895-.143 0-.159-.19-.34-.354-.337-.056.001-.241.05-.413.108zm-19.804.02c-.161.042-.165.359-.006.518.146.145.924.07 1.1-.107.074-.074.071-.087-.047-.188-.219-.19-.748-.302-1.047-.223zm21.054.085c-.465.173-.498.288-.121.419.534.185 1.027.065 1.027-.25 0-.297-.373-.367-.906-.169zm-18.168.074a.886.886 0 00-.228.065c-.091.056-.07.261.034.316.203.109.744.017.842-.142.091-.148-.31-.296-.648-.239zm10.752.074c-.046.12.026.595.124.817.09.203.251.337.34.283.072-.045.055-.46-.029-.707-.076-.224-.26-.468-.355-.468-.028 0-.065.034-.08.075zm4.706.018c-.102.114-.064.184.146.272.231.097.56.086.695-.023.099-.08.105-.105.054-.216-.054-.12-.074-.126-.434-.126-.312 0-.391.016-.46.093zm-12.025.074a.922.922 0 00-.165.305c-.06.197-.077.69-.027.74.059.06.253-.119.344-.315.118-.256.168-.53.13-.709-.038-.17-.136-.178-.282-.021zm6.775.121c-.114.277.067 1.069.283 1.233.063.048.092.04.16-.04.225-.267-.057-1.337-.352-1.337-.017 0-.058.065-.09.144zm-6.17-.064c-.146.059-.39.829-.328 1.029.012.036.034.126.05.198.09.412.506-.209.506-.756 0-.207-.081-.506-.136-.499a.502.502 0 00-.093.028zm-12.246.097c-.268.024-.277.091-.03.223.153.081.268.085 1.632.057 1.447-.03 1.72-.054 1.753-.152.011-.033-.407-.061-1.242-.083-.693-.018-1.4-.04-1.571-.05a4.64 4.64 0 00-.542.005zm31.236.003c-.184.01-.755.033-1.27.053l-.935.037.191.087c.156.072.39.096 1.246.13 1.36.053 1.933.003 2.148-.19.084-.075.084-.079 0-.112-.087-.034-.756-.037-1.38-.005zm1.798.302c-.205.317-.644 1.183-.697 1.377-.03.106-.024.107.417.105.245-.002.521-.03.614-.061l.167-.058-.013-.335c-.018-.434-.146-1.144-.225-1.253-.056-.077-.082-.055-.263.225zm9.882.202c-.76.7-.968.802-2.049.995-.755.136-1.64.225-3.09.312-1.916.114-3.761.366-5.32.725-.87.2-1.026.258-1.106.409-.033.06-.242.355-.466.652-.223.298-.398.55-.387.56.01.01.6-.099 1.312-.242a29.828 29.828 0 014.313-.57c1.98-.126 2.533-.165 2.756-.191.118-.014.582-.058 1.03-.096.939-.08 1.253-.151 1.74-.39.431-.21 1.002-.758 1.268-1.217.164-.284.562-1.236.562-1.345 0-.1-.102-.028-.563.398zm-38.288-.344c-.183.055-.267.187-.224.356.04.163.154.215.46.215.259 0 .706-.166.783-.29.104-.169-.672-.383-1.019-.28zm8.065.104c-.29.443-.345 1.171-.096 1.267.122.046.305-.178.382-.467.081-.306.09-.684.02-.815-.066-.125-.22-.117-.306.015zm4.474.096c-.107.393.019 1.02.254 1.27.128.137.203.137.298.002.189-.27-.025-1.345-.287-1.446-.158-.06-.211-.026-.265.174zm.704-.13c-.106.276.075 1.106.271 1.244.1.07.113.068.196-.034.074-.09.085-.167.067-.452-.028-.441-.193-.801-.378-.823-.082-.01-.136.013-.156.064zm9.19-.022c-.21.06-.29.164-.206.265.135.162.784.332.983.257.17-.065.209-.125.21-.32 0-.104-.03-.17-.092-.204-.112-.06-.687-.059-.896.002zm-19.742.045c-.2.061-.325.206-.285.331.071.224.546.162.767-.1.078-.093.109-.167.081-.195-.066-.067-.395-.088-.563-.036zm6.044.027c-.131.132-.217.341-.295.72-.07.337-.07.381.004.576.09.235.202.273.355.12.121-.121.285-.572.322-.883.053-.454-.164-.755-.386-.533zm11.288-.033c-.124.08-.021.276.202.384.258.126.425.127.534.006.117-.129.065-.228-.177-.338-.218-.1-.45-.12-.559-.052zm-16.252.113c-.182.091-.214.13-.214.252v.143h.297c.223 0 .328-.024.427-.098.21-.157.251-.255.142-.336-.136-.1-.407-.085-.652.039zm15.001-.036c-.138.166.23.46.584.464.25.004.429-.15.323-.277-.18-.217-.78-.341-.907-.187zm-17.455.027c-.057.034-.084.11-.084.238 0 .149.025.205.122.268.104.068.15.072.312.023.254-.076.534-.324.515-.455-.013-.092-.05-.102-.398-.113-.21-.006-.421.011-.467.039zm19.74-.02c-.202.202.506.692.784.543.202-.108.216-.469.022-.544-.106-.04-.766-.039-.807.002zm-9.214.166c-.075.083-.09.168-.084.468.01.549.264 1.11.5 1.11.343 0 .262-1.173-.106-1.566-.131-.14-.193-.142-.31-.012zm-2.403.055c-.141.151-.309.682-.314.995-.005.254.107.575.2.575a.501.501 0 00.164-.097c.17-.134.325-.575.356-1.011.023-.329.015-.376-.077-.468-.13-.13-.204-.129-.33.006zm-12.064.086c-1.387.092-1.638.12-1.75.189-.063.04-.06.056.014.13.127.127.983.106 2.147-.051.912-.124 1.385-.234 1.385-.323 0-.056-.23-.049-1.796.055zm13.679 0c-.15.15-.19.304-.19.745 0 .456.074.691.254.809.26.17.512-.124.549-.64.027-.38-.043-.668-.21-.866-.143-.17-.266-.185-.403-.049zm13.015-.045c.072.115.386.188 1.297.302 1.671.21 2.16.21 2.24.003.044-.115-.276-.164-1.39-.216a38.407 38.407 0 01-1.503-.094c-.6-.06-.683-.06-.644.005zm-13.89.08c-.278.307-.305 1.216-.046 1.51.1.112.323.105.434-.014.287-.308.258-1.375-.041-1.535-.132-.07-.261-.056-.348.04zm-6.832.206c-.193.077-.388.238-.461.379-.067.128-.064.14.053.216.103.068.145.071.262.023.306-.127.547-.566.351-.64a.383.383 0 00-.084-.027l-.12.049zm16.273-.022c-.019.019-.034.094-.034.166 0 .148.316.457.518.508.168.042.28-.089.222-.257-.075-.212-.6-.523-.706-.417zm-15.393.098c-.318.168-.459.4-.284.467.15.057.327.027.53-.093.454-.266.22-.62-.246-.374zm14.34-.047c-.123.033-.102.172.048.312.273.254.587.314.686.13.045-.085.033-.122-.08-.24a.8.8 0 00-.303-.187c-.178-.05-.213-.05-.35-.015zm-17.958.122c-.084.044-.124.11-.135.222-.032.327.27.456.742.319.327-.094.639-.259.639-.336 0-.185-.979-.346-1.246-.205zm21.042.005c-.262.07-.358.198-.223.299.321.239 1.048.349 1.227.186.12-.109.12-.33-.002-.453-.08-.08-.157-.095-.444-.092-.19.002-.442.03-.558.06zm-6.137.054c-.073.088-.121.753-.077 1.049a.826.826 0 00.12.327l.086.107.066-.117c.047-.082.065-.273.06-.645-.007-.673-.093-.916-.255-.72zm-16.822.029c-.171.02-.57.071-.886.111-.317.04-.815.096-1.109.124-.798.076-1.071.187-.77.313.255.106.431.093 1.644-.121 1.278-.226 1.646-.312 1.742-.408.062-.061.047-.07-.12-.064a7.08 7.08 0 00-.5.045zm25.208.019c.096.095.48.19 1.561.384 1.225.22 1.575.25 1.804.154.1-.042.18-.096.18-.12 0-.062-.726-.19-1.407-.25a25.092 25.092 0 01-1.213-.143 9.678 9.678 0 00-.82-.095c-.153 0-.166.009-.105.07zm-21.824.15c-.246.09-.317.153-.317.283 0 .154.178.36.311.36.136 0 .5-.267.595-.438.107-.19.043-.282-.198-.278a1.46 1.46 0 00-.391.072zm18.42.022c0 .14.136.327.353.485.229.165.363.172.502.025.273-.29-.048-.608-.616-.608-.208 0-.239.013-.239.098zm-15.98.263c-.205.206-.225.358-.047.358.16 0 .39-.12.451-.237.173-.322-.116-.408-.404-.12zm13.698-.1c-.056.147.283.457.499.458.127 0 .19-.122.121-.234-.138-.223-.562-.376-.62-.224zm-19.186.15a133.2 133.2 0 01-1.525.26c-.85.14-1.063.197-1.063.286 0 .059.398.138.56.112.95-.152 2.181-.449 2.468-.594.138-.07.297-.202.221-.184l-.661.12zm4.708.02c-.263.119-.443.302-.443.448 0 .256.388.179.66-.13.166-.19.187-.266.097-.356-.073-.073-.071-.073-.314.037zm19.81-.045c.15.15 2.005.612 2.637.657.361.025.59-.007.59-.083 0-.09-.193-.146-.823-.242a36.55 36.55 0 01-.901-.147c-.496-.094-1.366-.234-1.46-.234-.065-.001-.078.014-.043.049zm-8.661.075c-.092.11-.117.775-.043 1.124.055.258.141.37.239.31.08-.05.155-.527.134-.858-.032-.503-.179-.758-.33-.576zm4.27.055c0 .18.178.386.402.463.234.08.364.049.364-.087 0-.226-.343-.508-.616-.508-.132 0-.15.016-.15.132zm-12.502.16c-.116.332-.03 1.418.108 1.372.171-.056.265-1.072.125-1.35-.099-.194-.171-.201-.233-.022zm-4.021.028c-.263.093-.381.259-.305.426.07.153.231.213.406.152.164-.057.416-.388.416-.546 0-.096-.023-.112-.156-.109a1.439 1.439 0 00-.361.077zm17.465-.049c-.113.113.118.49.375.613.158.075.184.075.287.008.143-.094.19-.236.12-.366-.095-.177-.672-.365-.782-.255zm-19.2.078c-.298.15-.105.562.263.562.279 0 .67-.126.826-.266.126-.112.128-.122.045-.186-.094-.073-.587-.172-.85-.17a.76.76 0 00-.284.06zm13.325.028c-.084.157-.065 1.09.026 1.282.087.183.122.197.215.085.093-.111.114-.942.032-1.217-.071-.236-.192-.303-.273-.15zm7.22-.021c-.215.077-.332.166-.295.225.015.024.135.099.267.165.296.15.656.2.854.117.236-.097.265-.404.049-.514-.156-.079-.646-.075-.875.007zm-16.645.142c-.183.184-.207.296-.07.34.206.065.578-.203.578-.418 0-.065-.039-.085-.172-.085-.133 0-.21.038-.336.163zm13.112-.063c0 .055.063.163.14.24.108.108.183.14.333.14h.192l-.05-.144a.537.537 0 00-.467-.336c-.118 0-.148.02-.148.1zm-18.186 0c-.08.025-.727.177-1.438.338-.712.161-1.332.313-1.378.337-.121.064-.103.13.046.167.185.047.717-.053 1.608-.3.855-.238 1.185-.365 1.31-.502.09-.1.068-.106-.149-.04zm23.576-.002c-.043.068.402.27.99.447.668.203 1.602.415 1.82.414.187-.001.307-.063.263-.135-.047-.076-.26-.134-1.355-.366a34.66 34.66 0 01-1.353-.31c-.187-.051-.35-.074-.365-.05zm-15.89.076c-.102.123-.121 1.053-.026 1.28.162.388.32.117.315-.538-.004-.424-.078-.775-.17-.805-.028-.01-.082.018-.119.063zm-22.236.15c.173.337 1.058 1.016 1.709 1.311.784.356 1.167.415 3.712.573 3.036.188 4.56.378 6.66.833.409.089.749.156.756.15a7.253 7.253 0 00-.415-.512l-.426-.503-.951-.2c-1.45-.306-3.107-.544-4.235-.61-1.322-.076-3.452-.303-4.528-.482-.985-.164-1.564-.325-1.98-.55a4.741 4.741 0 00-.373-.19c-.012 0 .02.081.07.18zm18.9.009c-.301.187-.38.483-.126.483.244 0 .615-.296.584-.464-.024-.125-.269-.136-.457-.02zm14.602.009c0 .158.343.474.516.474.223 0 .282-.11.156-.287a.667.667 0 00-.526-.289c-.117 0-.146.02-.146.102zm-5.036.023c-.091.11-.093 1.036-.003 1.25.087.207.18.232.283.076.126-.192.143-.983.026-1.211-.098-.191-.208-.233-.306-.115zm-8.415.064a.887.887 0 00-.235.22c-.075.114-.075.13-.006.2.064.065.099.067.218.018.193-.08.404-.31.384-.418-.024-.124-.18-.132-.361-.02zm12.385-.065c-.077.077-.029.208.129.346.216.19.352.232.448.136.065-.065.067-.092.01-.197-.106-.199-.488-.384-.587-.285zm-4.788.29c-.087.198-.097.289-.074.675.032.54.136.798.33.82.218.025.303-.2.303-.806 0-.418-.017-.536-.1-.695-.074-.14-.135-.196-.23-.207-.112-.014-.14.013-.229.213zm-4.625.002c-.108.25-.103.882.008 1.155.168.411.314.16.31-.535-.005-.686-.16-.989-.318-.62zm3.726-.083c-.195.194-.253.784-.13 1.308.089.374.194.527.352.508.231-.028.32-.226.342-.762.021-.541-.04-.842-.212-1.027-.134-.144-.228-.152-.352-.027zm-8.857.078c-.297.178-.34.45-.085.548.204.078.351-.016.486-.31.066-.145.107-.286.09-.313-.052-.085-.282-.05-.49.075zm16.617.033c0 .341.329.623.58.497a.257.257 0 00.13-.167c.028-.195-.324-.486-.588-.486-.106 0-.122.02-.122.156zm-20.582.155c-.501.142-1.084.304-1.294.36-.447.118-.615.216-.503.292.145.1.644.001 1.472-.288.454-.159.909-.33 1.01-.383.178-.09.35-.247.267-.242-.023.002-.452.12-.953.261zm9.86-.133c-.067.102-.084.227-.082.587.004.697.196 1.031.384.668.115-.224.082-1.142-.047-1.284-.118-.132-.152-.128-.255.029zm1.862-.007c-.125.16-.169.464-.136.95.028.433.123.705.283.817.1.07.115.067.237-.05.175-.168.254-.515.216-.948-.038-.434-.1-.654-.224-.787-.13-.14-.257-.133-.376.018zm12.31-.077c0 .093.428.287 1.198.544 1.133.377 1.563.453 1.618.284.027-.083-.2-.17-.903-.347-.327-.083-.88-.235-1.227-.339-.704-.21-.686-.206-.686-.142zm-21.205.036c-.484.066-.682.216-.62.468.075.295.532.227.974-.145.176-.149.193-.286.041-.327-.111-.03-.152-.03-.395.004zm7.92.047c-.277.308-.194 1.436.118 1.603.079.042.118.03.213-.065.303-.303.18-1.56-.158-1.61-.052-.007-.13.025-.173.073zm10.987-.036c-.175.111.247.505.681.636.163.048.192.043.3-.058.251-.237.107-.438-.398-.557-.32-.076-.487-.082-.583-.021zm-15.192.127c-.24.104-.337.208-.337.363 0 .09-.024.136-.074.136-.135 0-.337.135-.396.262-.077.17-.077.17.089.17.17 0 .381-.185.381-.334 0-.07.031-.098.108-.098.252 0 .569-.318.5-.5-.036-.091-.06-.091-.27 0zm11.665-.008c-.105.076-.038.213.187.385.18.137.327.156.412.053.16-.193-.388-.593-.6-.438zm1.02-.039c-.141.14.186.546.44.546.17 0 .228-.089.152-.233-.1-.186-.505-.4-.593-.313zm-13.751.19c-.24.13-.303.357-.097.355.203-.003.415-.22.36-.37-.027-.078-.101-.074-.263.014zm-5.046.328c-.421.143-.95.317-1.173.388-.483.152-.76.304-.664.365.106.067.314.048.63-.058.427-.143 1.71-.661 1.865-.752.125-.075.216-.203.143-.203-.019 0-.38.117-.8.26zm23.315-.224c.003.163 1.856.919 2.45 1 .244.034.325-.023.196-.136-.065-.056-2.523-.9-2.623-.9-.013 0-.023.017-.023.036zm14.4.11c-.459.27-1.296.492-2.42.642-.68.09-1.255.135-3.786.289-1.094.066-2.28.155-2.636.196-1.027.12-2.344.309-2.688.387-.308.07-.325.081-.721.512-.466.507-.53.594-.4.544.146-.056 1.673-.305 2.515-.41.765-.096 3.801-.293 5.967-.387 1.4-.06 2.077-.21 2.947-.647.468-.236.728-.416 1.07-.742.223-.21.475-.54.404-.527a4.847 4.847 0 00-.252.143zm-33.524.02c-.12.064-.246.148-.28.188-.153.185.085.462.343.397.09-.023.16-.103.253-.294.202-.413.099-.507-.316-.29zm2.27-.024c-.199.121-.332.365-.252.461.092.11.188.081.387-.117.32-.321.225-.564-.136-.344zm10.928-.02c-.066.173.218.55.415.55.15 0 .192-.108.11-.28-.137-.281-.457-.447-.525-.27zm2.156.066c.05.25.182.489.3.542.245.112.52-.102.405-.316-.075-.141-.363-.32-.566-.353-.17-.028-.17-.028-.14.127zm-16.86.107c-.229.117-.312.213-.312.358 0 .291.372.35.652.104.186-.164.312-.397.272-.502-.037-.096-.394-.072-.613.04zm18.202-.03c-.081.213.314.647.59.647.16 0 .304-.137.304-.29 0-.261-.807-.583-.894-.357zm-2.508.112c0 .05.046.149.102.22.087.11.133.129.288.114.147-.014.19 0 .213.07.052.163.313.418.428.418.153 0 .27-.13.253-.28-.03-.251-.651-.577-.723-.38-.014.04-.08.007-.186-.095-.185-.175-.375-.209-.375-.067zm-17.348.007a1.895 1.895 0 00-.288.12c-.092.048-.587.246-1.1.44-.512.194-.982.386-1.042.425-.19.125-.134.182.151.152.52-.053 2.565-1.03 2.419-1.154-.011-.01-.074-.002-.14.017zm5.808.119a.846.846 0 00-.202.267c-.052.125-.05.159.012.22.065.066.088.066.212.002.252-.13.395-.608.183-.608-.035 0-.127.053-.205.119zm10.173-.07c-.055.09.03.33.17.48.177.19.304.174.325-.04.012-.126-.017-.19-.15-.323-.168-.167-.289-.208-.345-.117zm6.1.089c.25.215 2 .978 2.299 1.004.476.04.236-.18-.443-.406-.211-.07-.713-.265-1.114-.432-.814-.338-.99-.378-.743-.166zm-18.228.01c-.205.06-.403.255-.403.398 0 .227.261.35.442.21.126-.099.277-.387.277-.528 0-.144-.051-.157-.316-.08zm-18.469.091c0 .116.385.925.54 1.135.462.627 1.156 1.055 2.12 1.31.649.17 1.927.387 2.707.458.424.039 1.322.069 2.088.07 2.197.002 4.774.215 6.165.509.315.066.59.114.612.106.022-.008-.178-.198-.443-.422a30.842 30.842 0 01-.828-.726c-.19-.176-.386-.331-.435-.346a74.778 74.778 0 00-2.319-.484c-.899-.164-1.7-.223-3.618-.266-2.694-.061-3.596-.141-4.624-.41-.523-.137-1.42-.563-1.71-.812-.208-.177-.255-.2-.255-.122zm29.148.033c-.072.177-.04.757.05.893.102.156.135.16.218.028.175-.28.09-.962-.124-.992-.07-.01-.121.015-.144.071zm2.51-.046c-.065.065-.024.242.078.334.293.264.528.142.28-.145-.096-.112-.318-.23-.358-.19zm-12.187.107c-.266.163-.335.386-.12.386.238 0 .514-.4.32-.463-.026-.009-.116.026-.2.077zm-2.558.138c-.254.162-.37.376-.287.531.067.125.262.177.409.11.18-.082.373-.373.38-.574.004-.165-.007-.18-.14-.192-.094-.01-.218.034-.362.125zm17-.103c-.132.13.097.565.378.716.152.082.178.084.297.017.147-.082.188-.23.107-.382-.12-.223-.666-.468-.783-.351zm-19.229.137c-.13.066-.645.306-1.146.532-.5.226-.938.433-.97.46-.123.1-.06.145.172.123.367-.035 1.815-.763 2.18-1.096.194-.176.086-.185-.236-.02zm21.743.037c.533.472 2.39 1.286 2.39 1.048 0-.08-.16-.17-.767-.431-.304-.131-.803-.36-1.111-.507-.308-.148-.588-.267-.623-.266-.035 0 .015.071.11.156zm-6.237.027c0 .302.43.592.47.316.021-.152-.188-.427-.34-.445-.115-.013-.13 0-.13.129zm-1.527.124c-.078.307-.064.693.031.906l.083.185.09-.1c.213-.235.115-1.198-.12-1.204-.017 0-.055.095-.084.213zm2.648-.143c-.015.039.012.152.06.252.065.131.124.185.215.196.11.013.129.04.15.227.044.389.257.559.488.39.17-.125-.065-.54-.358-.632a.209.209 0 01-.119-.122c-.044-.139-.26-.381-.34-.381a.112.112 0 00-.096.07zm-11.537.123c-.168.2-.17.382-.006.382.085 0 .15-.047.217-.156.19-.31.016-.497-.211-.226zm-1.055.102c-.16.132-.18.17-.158.307.022.138.009.163-.114.214-.225.093-.477.404-.477.589 0 .198.074.273.265.273.262 0 .454-.296.454-.699 0-.19.012-.212.113-.212a.279.279 0 00.185-.084c.076-.088.182-.364.182-.475 0-.12-.26-.07-.45.087zm11.11-.052c-.07.224.125.57.288.507.161-.062.045-.491-.152-.563-.082-.03-.112-.018-.135.056zm2.357-.027c-.028.072.018.24.123.445.046.09.09.108.226.096.138-.011.179-.04.218-.152.044-.126.032-.151-.14-.3-.197-.171-.381-.21-.427-.09zm-18.06.58c-.743.375-1.206.635-1.24.698-.052.098-.045.1.158.078.117-.013.39-.114.608-.224.747-.377 1.755-1.05 1.683-1.123-.013-.014-.557.244-1.21.572zm21.863-.566c0 .085.29.303.862.645.939.562 1.492.813 1.558.707.061-.1-.068-.203-.534-.428a36.571 36.571 0 01-1.17-.602c-.696-.376-.716-.385-.716-.322zm-14.493.148c-.133.256-.064.887.103.951.226.087.346-.547.17-.895-.111-.217-.183-.232-.273-.056zm-1.237-.039c-.11.064-.242.322-.209.408.05.13.248.078.338-.09.134-.248.06-.428-.13-.318zm7.892.115c-.132.316-.047 1.056.121 1.056.039 0 .1-.054.134-.12.122-.228.008-1.103-.143-1.103-.023 0-.073.075-.112.167zm2.758-.008c0 .185.08.308.216.33.127.02.15-.145.05-.342-.108-.208-.266-.201-.266.012zm-13.106.01c-.367.13-.625.553-.446.733.108.107.371.068.517-.078.151-.152.252-.448.21-.617-.032-.128-.03-.128-.281-.039zm4.368.036c-.218.16-.193 1.245.032 1.388.194.124.32-.135.32-.658 0-.522-.166-.866-.352-.73zm11.06-.01c-.09.148.185.692.388.766.057.021.165.008.258-.031.15-.063.158-.078.131-.247-.04-.252-.348-.539-.578-.539-.092 0-.181.023-.198.051zm-18.064.217c-.184.117-.605.366-.934.554-.646.367-.91.547-.91.62 0 .148.58-.081 1.112-.44.55-.371 1.187-.857 1.187-.906 0-.087-.115-.043-.455.172zm4.068-.016c-.19.179-.22.232-.193.337.062.249.38.223.49-.04.087-.208.086-.378-.002-.451-.058-.048-.11-.02-.295.154zm16.495-.138c.042.11.337.324 1.19.861.534.337.858.512.947.512.24 0 .143-.149-.24-.368-.123-.071-.587-.34-1.029-.6-.443-.259-.825-.47-.85-.47-.024 0-.032.029-.018.065zm-15.245.193c-.09.218-.09.312.005.349.112.043.204-.08.221-.294.012-.151-.003-.194-.07-.208-.06-.012-.106.033-.155.153zm7.086-.038c-.179.273-.062 1.122.155 1.122.196 0 .286-.742.128-1.052-.108-.214-.177-.231-.283-.07zm3.035-.093c-.058.058-.034.28.042.389.106.151.261.141.261-.017 0-.239-.196-.48-.303-.372zm19.655.155c-.503.38-1.355.708-2.244.864-.92.162-1.6.195-4.05.195-2.595 0-2.856.019-4.592.318-1.472.254-1.315.187-2.238.954-.504.419-.78.677-.733.688.042.009.273-.018.513-.059 1.215-.209 3.844-.354 5.246-.29 2.004.093 3.158.022 4.838-.296 1.532-.29 1.95-.477 2.672-1.194.338-.335.48-.52.636-.823.275-.537.267-.594-.048-.357zm-27.346-.004c-.142.142-.17.291-.14.757.038.617.242.829.43.45.151-.3.095-.96-.1-1.202l-.087-.108-.103.103zm-1.996.038c-.17.17-.221.468-.088.519.132.05.269-.13.274-.36.005-.225-.062-.282-.186-.159zm9.288-.004c-.062.163.099.55.229.55.095 0 .143-.197.089-.362-.073-.221-.262-.333-.318-.188zm-15.003.4c-.31.208-.737.487-.947.62-.212.134-.447.31-.525.39l-.14.147h.117c.259-.003.714-.276 1.558-.936.455-.357.59-.484.593-.562.004-.082-.118-.018-.656.341zm17.45-.309c-.109.08-.06.323.116.58.105.152.166.194.298.205.244.02.354-.078.316-.285-.06-.316-.535-.642-.73-.5zm2.808-.03c0 .073.413.431.979.848.563.415.973.647 1.145.648.206.001.022-.185-.52-.526a40.17 40.17 0 01-1.046-.685c-.458-.314-.558-.365-.558-.285zm-15.747.173c-.249.248-.205.508.085.508.097 0 .15-.036.2-.132.24-.477.057-.719-.285-.376zm7.055-.055c-.23.362-.066 1.234.233 1.234.112 0 .22-.21.249-.487.058-.57-.271-1.08-.482-.747zm3.06.002a.957.957 0 00-.014.279c.013.137.034.162.135.162.113 0 .12-.014.12-.264 0-.235-.012-.265-.107-.278-.078-.012-.113.014-.135.1zm1.415.08c0 .268.083.423.248.459.312.069.379-.232.108-.488-.24-.226-.356-.217-.356.028zm-7.51.034c-.122.187-.143.73-.039 1.003.137.36.406.441.579.176.105-.16.142-.608.071-.87-.11-.403-.44-.57-.61-.31zm5.714-.05c-.106.105-.08.444.037.516.175.107.288-.211.17-.472-.065-.143-.101-.15-.207-.044zm-14.35.74c-.862.658-1.055.831-.997.89.013.012.11-.009.218-.046.424-.146 2.05-1.601 1.746-1.562-.02.003-.455.325-.968.717zm10.858-.668c-.294.17-.3 1.06-.01 1.334.271.255.527-.034.527-.597 0-.387-.104-.652-.29-.737-.14-.064-.117-.064-.227 0zm9.265-.027c0 .126 1.31 1.32 1.62 1.477.174.087.393.137.393.089 0-.054-.374-.405-.575-.54a24.027 24.027 0 01-.776-.583c-.584-.451-.662-.504-.662-.443zm-10.348.104c-.284.231-.18 1.277.139 1.378.239.076.433-.208.433-.632 0-.65-.265-.995-.572-.746zm-4.565.096c-.32.344-.296.636.053.636.104 0 .244-.215.244-.374 0-.122-.096-.394-.14-.394-.018 0-.089.06-.157.132zm10.487-.098c-.017.017-.03.153-.03.303 0 .21.021.292.093.357.21.19.47-.057.336-.317-.115-.222-.333-.41-.4-.343zm-15.102.645c-.777.673-1.174 1.046-1.174 1.106 0 .083.188.03.41-.118.13-.086.464-.382.743-.66 1.016-1.008 1.028-1.199.021-.328zm19.215-.532c.046.154 1.287 1.409 1.546 1.563.111.066.24.113.284.104.12-.023-.125-.286-.797-.857a64.203 64.203 0 01-.81-.698c-.219-.194-.252-.211-.223-.112zm-15.956.053c-.23.128-.36.296-.36.471 0 .205.07.289.239.289.244 0 .48-.278.48-.564 0-.229-.15-.31-.36-.196zm13.11.013c-.162.194.119.747.379.747.315 0 .388-.327.133-.6-.182-.196-.417-.263-.513-.148zm-11.288.286c-.145.295-.13.444.047.489.17.043.307-.02.342-.157.034-.134-.113-.546-.206-.577-.03-.01-.113.1-.183.245zm9.463-.113c-.03.053-.046.21-.038.347l.014.25h.384l-.002-.248c-.003-.364-.232-.587-.358-.35zm-14.16.58c-1.076 1-1.174 1.097-1.174 1.145 0 .079.158.053.335-.055.302-.183 1.534-1.494 1.534-1.631 0-.09-.097-.014-.695.542zm18.473-.542c0 .154 1.442 1.617 1.668 1.691.088.03.172.04.187.026.031-.032-.308-.462-.364-.462-.02 0-.326-.271-.68-.602-.637-.597-.81-.737-.81-.653zm-4.862.197c-.148.285-.058.626.163.626.224 0 .285-.361.105-.614-.134-.19-.176-.19-.268-.011zm-10.27.03c-.126.088-.25.311-.25.449 0 .053.052.132.117.174.222.146.503-.097.505-.437.001-.25-.164-.332-.372-.186zm12.163.018c-.156.29.072.682.371.638.147-.022.154-.032.154-.237 0-.172-.027-.24-.14-.354-.161-.162-.314-.18-.385-.047zm-2.435.015c-.088.108-.151.423-.108.537.078.205.411.2.463-.008.02-.075-.01-.203-.08-.354-.112-.237-.186-.285-.275-.175zm-12.914.847c-.467.473-.85.893-.85.935 0 .281.548-.199 1.448-1.269.213-.253.362-.525.288-.525-.02 0-.418.386-.886.859zm17.968-.775c.096.264 1.26 1.59 1.509 1.718.168.087.231.086.231-.005 0-.067-1.678-1.797-1.742-1.797-.016 0-.014.038.002.084zm-14.182.11c-.189.112-.297.532-.17.66.09.09.343.07.407-.033.208-.334.037-.788-.237-.626zm11.07-.017c-.055.014-.086.073-.091.174-.02.408.068.56.325.56.13 0 .165-.022.19-.12.049-.196-.022-.443-.157-.55-.068-.053-.138-.095-.154-.092a2.524 2.524 0 00-.113.028zm-14.368.954c-.751.856-.838.967-.796 1.01.052.052.31-.13.562-.398.383-.405 1.052-1.31 1.052-1.425 0-.098-.154.055-.818.813zm5.035-.51c0 .333.06.479.114.277.038-.14.038-.438.001-.535-.065-.169-.115-.057-.115.257zm12.076-.247c0 .192 1.037 1.497 1.33 1.675.1.06.197.108.217.109.082 0-.138-.324-.438-.645-.175-.188-.496-.54-.713-.785-.26-.29-.396-.413-.396-.354zm-5.556.045c0 .02.031.166.067.324l.064.288.005-.324c.004-.258-.01-.324-.066-.324-.04 0-.072.017-.07.036zm-6.184.492c0 .366.015.483.059.468.137-.046.137-.89 0-.936-.045-.015-.06.1-.06.468zm-1.577-.307c-.183.233-.17.69.02.69.106 0 .296-.218.36-.414.046-.135.042-.185-.022-.283-.1-.152-.235-.15-.358.007zm7.298 0c-.039.155.017.793.074.85.056.056.119-.63.076-.825-.04-.182-.108-.194-.15-.025zm2.569-.052c-.04.049-.05.146-.03.296.05.36.265.523.493.374.11-.072.12-.104.099-.302-.04-.346-.39-.576-.563-.368zm-13.238.824c-.816 1.018-.895 1.157-.56.98.272-.144 1.332-1.66 1.23-1.76-.013-.015-.315.337-.67.78zm16.353-.75c0 .257 1.179 1.82 1.373 1.82.144 0 .101-.065-.717-1.091a18.82 18.82 0 00-.638-.78c-.01 0-.018.023-.018.05zm-10.944.147c-.078.392 0 .857.144.857.156 0 .215-.456.106-.821-.07-.234-.206-.254-.25-.036zm-4.6.154c-.066.114-.298.443-.516.731-.375.498-.615.865-.616.943-.002.103.159.009.353-.207.25-.278.913-1.345.96-1.543.045-.196-.042-.16-.18.076zm3.22-.1c-.334.283-.3.707.057.707.19 0 .287-.155.287-.456 0-.36-.115-.444-.343-.25zm8.676-.006c-.085.085-.097.137-.072.324.033.244.16.39.343.39.341 0 .338-.483-.005-.743-.123-.093-.147-.09-.266.029zm3.341-.006c.082.309.762 1.404 1.05 1.69.143.142.263.173.263.067 0-.06-.948-1.402-1.224-1.733-.117-.14-.12-.14-.089-.024zm-5.946.063c-.174.267-.013 1.047.178.857.032-.033.067-.216.077-.407.014-.29.002-.366-.077-.463l-.093-.115-.084.128zm2.014.031c-.13.143-.087.7.063.821.088.072.13.078.226.034.144-.066.185-.209.143-.49-.033-.221-.181-.459-.286-.459-.034 0-.1.042-.146.094zm-6.162.052c-.091.091-.102.145-.085.435.014.252.042.354.116.428.097.097.097.097.183.002.17-.187.142-.76-.043-.914-.052-.043-.09-.032-.17.049zm-4.694-.01c0 .023-.216.37-.48.772-.434.66-.67 1.057-.67 1.128 0 .083.155 0 .298-.157.341-.378 1.036-1.783.882-1.783-.017 0-.03.018-.03.04zm14.454.092c.067.28.69 1.386.939 1.67.142.163.277.215.277.109 0-.03-.224-.405-.498-.831a24.532 24.532 0 01-.576-.928c-.097-.188-.186-.2-.142-.02zm-29.86.072c.09.315.312.66.658 1.029l.384.407-.294.174c-.161.095-.294.197-.294.225 0 .068.215.267.72.668.223.178.414.343.422.367.01.023-.082.102-.202.174-.12.073-.218.148-.22.168-.002.076.243.186.556.25.45.09.929.118.928.053 0-.028-.106-.26-.236-.516-.288-.568-.338-.827-.21-1.076.103-.197.418-.398.896-.571.278-.101.3-.12.445-.406.084-.165.233-.381.33-.481l.178-.183-.162-.026c-.089-.014-.755-.07-1.48-.125-.725-.054-1.5-.13-1.725-.17a4.847 4.847 0 00-.566-.07c-.142 0-.156.012-.128.109zm20.911-.059c-.142.081-.201.315-.166.654.041.41.136.64.263.64.29 0 .358-.966.087-1.233-.077-.076-.128-.093-.184-.06zm1.751.051c-.127.14-.13.811-.005 1.042.103.19.261.194.354.009.1-.197.08-.811-.033-.995-.11-.181-.19-.195-.316-.056zm.874.035c-.155.171-.084.871.095.94.2.076.306-.565.145-.871-.095-.18-.13-.19-.24-.069zm-8.103.464c-.127.238-.326.586-.442.775-.181.297-.352.64-.352.706 0 .011.046.009.101-.006.219-.057.998-1.556.944-1.817-.012-.06-.095.053-.25.342zm6.353-.344c-.11.132-.198.421-.198.644 0 .415.28.81.528.745.293-.077.326-1.046.045-1.347-.11-.118-.295-.138-.375-.042zm7.83.045c.052.175.496 1.145.629 1.371.139.237.28.39.357.39.1 0-.008-.257-.362-.862-.193-.33-.397-.691-.453-.803-.109-.216-.226-.282-.171-.096zm-14.048.856c-.492.997-.533 1.098-.44 1.098.195 0 .939-1.564.892-1.877-.01-.07-.16.189-.452.78zm10.17-.795c-.108.108-.146.384-.076.553.132.318.478.049.409-.317-.03-.159-.136-.31-.218-.31-.023 0-.075.034-.115.074zm3.58.14c.03.188.401 1.079.598 1.437.132.24.266.364.327.303.018-.019-.164-.432-.405-.918-.242-.486-.44-.907-.44-.935a.053.053 0 00-.053-.052c-.035 0-.045.058-.028.166zm-24.428-.014c-.626.08-1.04.37-1.22.858-.077.207-.086.213-.339.25-.31.044-.625.219-.774.427-.159.224-.178.598-.043.876.113.235.433.54.61.586.06.015.11.033.11.04 0 .007-.056.135-.124.284-.115.252-.119.28-.05.385.046.071.218.168.468.263.34.13.448.203.782.524.298.286.44.387.613.435.258.073.544.042.827-.088.204-.094.187-.117-.127-.17-.096-.015-.202-.061-.236-.102-.068-.082-.088-.656-.033-.955l.035-.192-.385-.264c-.423-.29-.927-.782-.896-.875.057-.171.858-.42 1.353-.42h.172l-.03-.419c-.034-.474.02-.705.159-.667.046.013.161.036.256.052.094.016.314.115.488.22s.329.191.343.191c.015 0 .027-.147.027-.326 0-.37-.048-.45-.395-.651-.408-.236-1.01-.336-1.591-.262zm2.082.209l.25.252.44.02c.412.017.476.035.93.253l.488.234.108-.098c.152-.139.297-.206.442-.206.176 0 .457.127.613.276.13.124.136.125.271.045.154-.09.682-.113.882-.037.142.054.396.537.442.84.03.2.039.209.23.24.11.017.29.084.4.149.236.139.281.142.598.038.208-.068.287-.071.56-.021.175.032.464.124.642.206.179.082.336.137.351.122.034-.034-.192-.483-.276-.545a3.219 3.219 0 00-.399-.186c-.43-.175-1.586-.75-1.988-.987-.354-.209-.742-.311-1.988-.523a26.142 26.142 0 00-2.797-.305l-.448-.02.249.252zm22.011.032c.06.455.497 1.534.693 1.712.245.222.21.104-.338-1.158-.17-.39-.325-.724-.346-.743-.02-.02-.025.066-.009.19zm16.086-.166c-.066.011-.549.128-1.073.26l-.954.237-.308.27c-.169.15-.337.33-.374.4-.06.116-.057.138.025.213.217.196.833.13 1.379-.147.486-.247 1.64-1.111 1.64-1.229 0-.04-.125-.041-.335-.004zm-29.1.817c-.38.792-.5 1.1-.443 1.154.065.064.297-.286.468-.704.163-.398.388-1.155.354-1.19-.008-.008-.178.325-.379.74zm.694-.6c-.027.033-.114.243-.193.468-.08.224-.21.57-.289.771-.256.642-.25.939.01.535.135-.207.456-1.212.506-1.582.038-.275.037-.28-.034-.192zm11.97.126c0 .218.292 1.215.462 1.577.12.253.256.335.256.153 0-.053-.094-.329-.21-.611a17 17 0 01-.34-.91c-.07-.217-.138-.395-.149-.395-.01 0-.02.084-.02.186zm-9.202.055c-.06.112-.038.762.03.873.104.168.175-.725.073-.909-.037-.066-.052-.06-.103.036zm-.54-.001l-.13.384c-.058.171-.232.574-.387.895-.216.45-.349.657-.578.901-.464.497-.52.527-.964.512l-.378-.013-.21.21a.99.99 0 00-.292.507c-.068.243-.1.296-.183.296-.114 0-1.477.332-1.55.378-.042.027.18 1.512.234 1.561.01.01.212-.032.45-.092.914-.231 2.693-.515 3.768-.601 2.743-.22 5.154-.187 7.373.102.999.13 2.836.411 3.427.526l.485.092c.003 0 .017-.08.032-.18.015-.098.073-.446.13-.772.057-.327.085-.61.063-.632-.022-.02-.454-.11-.962-.198-.738-.127-.922-.175-.922-.235 0-.195-.166-.597-.311-.756-.16-.175-.163-.176-.573-.182-.407-.007-.415-.01-.675-.21-.48-.37-.924-1.09-1.268-2.052-.087-.244-.167-.435-.177-.425-.045.046-.207.694-.207.83 0 .189.56 1.052.868 1.34.168.156.709.612.806.678.011.008-.046.085-.127.17a.707.707 0 00-.166.25c-.017.087-.047.094-.304.073-.527-.044-1.333-.023-2.277.06-.784.07-1.11.075-2.012.036a21.683 21.683 0 01-1.604-.122c-.874-.126-1.205-.135-1.86-.05-.337.043-.633.066-.658.05-.025-.015-.046-.066-.046-.112s-.064-.146-.143-.221l-.143-.137.131-.082c.516-.32 1.16-1.042 1.476-1.652l.124-.24-.117-.48c-.065-.263-.129-.447-.142-.407zm9.4-.026c-.051.05.007.455.158 1.092.137.582.274.891.416.938.09.03.052-.13-.257-1.093-.14-.435-.261-.83-.27-.88-.01-.048-.03-.074-.047-.057zm-11.192.086a6.272 6.272 0 00-.2.444c-.528 1.24-.612 1.495-.482 1.453.037-.012.125-.128.197-.258.147-.268.498-1.248.545-1.52.031-.182.008-.227-.06-.12zm17.182.067c-.038.045-.066.189-.066.335 0 .319.112.45.414.483.426.048.967-.216 1.141-.557.177-.347.19-.34-.663-.34-.649 0-.77.011-.826.08zm2.64.182c-.502.298-.835.564-.852.681-.034.233.65.301 1.15.114.355-.132 1.093-.788 1.093-.97 0-.02-.232-.038-.516-.038h-.516l-.359.213zm-9.089.17c.036.48.299 1.623.4 1.734.202.225.2-.01-.007-.702a15.58 15.58 0 01-.219-.84c-.134-.588-.21-.672-.174-.191zm12.768-.302c-.11.029-.15.206-.115.506.038.324.21.574.488.708.193.094.247.101.402.055.379-.114.723-.615.723-1.054v-.248l-.707.005a8.934 8.934 0 00-.79.028zm-23.17.482c-.642 1.394-.765 1.786-.46 1.465.224-.233.817-1.884.677-1.884-.012 0-.11.189-.216.42zm2.465-.387c-.04.04-.043.748-.003.851.052.136.149.08.18-.104.078-.475-.023-.902-.177-.747zm19.349.019a.653.653 0 00-.249.152c-.1.106-.759 1.324-.97 1.791-.132.294-.18.777-.096.98.117.283.444.359.8.187.273-.133.456-.36.71-.885.227-.47.635-1.653.678-1.966l.027-.195-.249-.058c-.283-.065-.442-.067-.651-.006zm-14.857.17c-.034.18.005.71.058.795.063.103.112-.092.113-.449 0-.376-.026-.52-.098-.52-.022 0-.055.078-.073.174zm-18.542-.029c-.117.19-.117.805 0 1.108.026.068-.036.081-.488.103-.487.023-.973.136-.973.226 0 .092.68.667.964.814l.313.163-.068.291c-.065.28-.066.9 0 .965.057.058.525-.237.712-.45.254-.288.286-.485.113-.69-.311-.369-.449-.9-.273-1.054.096-.084.327-.16.622-.206l.202-.032-.029-.223c-.035-.271-.149-.471-.396-.695-.274-.248-.64-.415-.699-.32zm1.344-.003c-.05.08.018.771.117 1.187l.084.35h-.307c-.168 0-.384.032-.478.072-.17.07-.172.077-.148.291.045.397.3.817.79 1.294.244.24.444.447.444.462 0 .014-.098.054-.217.087a2.008 2.008 0 00-.44.202c-.257.164-.277.136.338.45.451.231 1.332.547 1.524.547.104 0 .127-.041.23-.409.106-.378.11-.436.058-.78-.079-.515-.07-1.096.02-1.404a.998.998 0 01.304-.48c.27-.263.493-.332 1.07-.332h.4l.195-.204c.108-.112.22-.25.25-.308.086-.169.06-.455-.058-.663-.133-.231-.187-.232-.673-.007l-.347.16-.177-.185c-.227-.237-.487-.367-.6-.298a1.242 1.242 0 00-.23.276 4.09 4.09 0 01-.174.25c-.014.015-.166-.07-.337-.187a2.704 2.704 0 00-.544-.29c-.318-.102-1.047-.157-1.094-.081zm20.23.055c-.056.215.196 1.809.307 1.943.076.091.14.084.14-.017 0-.143-.349-1.952-.385-1.994-.019-.021-.047.01-.062.069zm5.238-.007c-.317.11-.532.333-.786.816-.282.538-.28 1.023.006 1.248.393.31.99-.078 1.385-.898.176-.365.402-1.05.402-1.22 0-.078-.736-.039-1.007.054zm-14.996.731c-.218.44-.388.825-.378.855.035.106.26-.137.408-.44.207-.426.411-1.02.387-1.127-.013-.056-.165.203-.417.712zm2.627-.65c-.096.116-.08.646.022.804.17.258.332.086.338-.357.006-.407-.19-.65-.36-.446zm3.506.109c-.103.194-.028.916.096.916.05 0 .141-.312.141-.48 0-.16-.088-.47-.142-.503-.025-.015-.067.015-.095.067zm-2.804.034c-.096.096-.099.68-.004.907.141.338.314.126.314-.384 0-.473-.134-.7-.31-.523zm2.206.077c-.165.235-.047.9.16.9.208 0 .267-.7.077-.91-.11-.123-.145-.121-.237.01zm3.807.44c0 .644.081 1.2.196 1.338l.088.105.001-.191c0-.106-.041-.462-.094-.792a8.797 8.797 0 01-.095-.752c0-.084-.022-.166-.048-.183-.031-.019-.048.151-.048.475zm-.386-.35c-.066.123-.036.543.06.837.067.203.23.293.23.126 0-.111-.184-1.024-.213-1.053-.01-.01-.045.03-.077.09zm-4.954.023c-.106.106-.14.278-.11.564.044.422.169.599.377.533.233-.074.31-.64.136-.983-.107-.209-.264-.253-.403-.114zm4.477.344c0 .334.02.451.096.575.052.086.116.156.143.156.07 0 .062-.151-.033-.683-.11-.616-.206-.638-.206-.048zm-3.586-.288c-.135.265-.111.696.051.902.09.116.1.118.186.04.074-.067.09-.15.09-.461 0-.209-.022-.421-.05-.472-.06-.116-.22-.12-.277-.009zm-3.282.332c-.04.04-.041.577-.002.723.062.233.113.087.113-.324 0-.395-.025-.486-.111-.4zm11.253.353c-.422.207-.803.413-.848.457-.1.099-.278.612-.278.802 0 .326.256.61.55.61.502 0 .96-.525 1.29-1.48.179-.514.217-.777.113-.77-.033.001-.405.173-.827.38zm-11.007-.067c-.032.269.023.777.076.695.056-.088.05-.695-.007-.799-.037-.065-.05-.044-.069.104zm16.398-.029c-1.102.058-1.746.221-2.06.52-.227.216-.27.368-.174.6.088.21.375.363.686.364.284.002.89-.202 1.277-.429a10.307 10.307 0 001.242-.904c.238-.221.266-.217-.97-.15zm7.691.027c-1.52.212-2.624.58-3.127 1.042-.333.307-.415.569-.273.869.17.359.716.463 1.316.25.385-.137.652-.302 1.135-.702.448-.373 1.459-1.46 1.398-1.506a3.507 3.507 0 00-.449.047zm-23.757 0c-.053.053-.035.394.035.667l.062.24v-.36c.002-.383-.038-.606-.097-.547zm4.89.175c-.01.112-.01.318.002.457.017.207.032.243.086.198.072-.06.082-.22.035-.607-.036-.304-.095-.327-.122-.048zm-.294.216c-.045.27-.037.47.024.62l.055.135.047-.152c.05-.165.004-.783-.059-.783-.02 0-.05.081-.067.18zm-4.248.248c0 .4.03.548.1.504.049-.03.06-.69.015-.808-.068-.176-.115-.05-.115.304zm-8.433-.28a2.444 2.444 0 00-.371.244c-.246.19-.266.196-.744.232-.552.042-.668.077-.896.268-.323.273-.372.636-.143 1.063.14.26.146.298.127.707-.01.237-.049.64-.084.894-.053.381-.054.5-.002.67.085.287.328.503.665.594.481.13.735.285.918.563.287.436.327.468.59.468.18 0 .296-.037.494-.155.258-.155.32-.229.192-.229-.037 0-.19-.047-.341-.105L21.1 55.1l.023-.351c.022-.353.026-.362.372-.91.06-.094.045-.124-.178-.375-.268-.3-.538-.79-.554-1.003-.01-.126.011-.146.229-.224.357-.127.97-.12 1.373.019l.32.108.028-.14c.015-.077.028-.22.028-.319v-.178l.42-.03c.615-.044.649-.058.611-.261-.078-.415-.454-1.056-.712-1.214-.182-.11-.459-.118-.779-.02-.348.105-.485.09-.694-.075-.204-.162-.436-.213-.618-.138zm12.446-.024c-.043.043-.048.7-.007.807.067.174.115.055.11-.271-.005-.377-.046-.592-.103-.536zm-3.668.127c-.057.138-.024.756.04.756.094 0 .122-.437.048-.743l-.034-.144-.054.13zm.26.097c-.054.202-.031.592.04.686.064.084.07.05.072-.35.002-.421-.049-.572-.112-.336zm3.067.042c-.046.232-.036.502.026.65l.056.135.034-.216c.038-.24.004-.719-.05-.719-.02 0-.05.067-.066.15zm-.334.006c-.018.069-.005.294.028.5l.06.375.014-.387c.008-.212-.005-.438-.028-.5l-.043-.114-.031.126zm-2.403.179c-.035.249.004.607.07.647.047.03.085-.41.059-.682-.027-.275-.09-.258-.13.035zm.344-.16c-.041.041-.042.625-.002.776.053.196.111.01.111-.351 0-.326-.043-.492-.11-.425zm1.708.044c-.043.113.014.694.075.754.039.04.053-.065.053-.388 0-.271-.02-.441-.05-.441-.027 0-.062.034-.078.075zm-.33.135c-.044.238.018.712.09.687.076-.026.076-.729 0-.805-.044-.044-.064-.016-.09.118zm-1.065.294c.016.483.103.568.124.12.016-.343-.015-.528-.09-.528-.03 0-.043.154-.034.408zm.368-.132c-.01.527.018.672.102.538.082-.13.035-.814-.056-.814-.023 0-.044.124-.046.276zm.388.155c0 .238.02.432.043.432.097 0 .13-.32.07-.683-.053-.323-.113-.19-.113.252zm14.386.132c-.959.554-2.027 1.461-2.256 1.917-.213.421-.083.936.252.999.185.034.42-.005.61-.102.373-.19.913-.851 1.251-1.53.217-.435.624-1.511.572-1.511-.02 0-.213.102-.43.227zm-20.284.249c-.207.064-.367.192-.43.343-.032.078-.048.153-.035.166.013.013.314-.026.67-.086.686-.118.73-.149.454-.317-.181-.11-.487-.16-.66-.106zm10.355.076c-.518.301-.534.27.191.39.356.058.708.107.783.109l.135.004-.111-.2c-.23-.41-.613-.527-.998-.303zm-24.317.413c-.074.186-.074.203.006.291.167.185.539.426.861.559.37.152.964.321 1 .285.013-.013-.092-.101-.235-.196a1.735 1.735 0 01-.396-.371c-.107-.156-.208-.23-.46-.334a2.635 2.635 0 01-.51-.283l-.187-.149-.079.198zm28.967.045c-.435.114-.679.267-.787.495a.53.53 0 00.16.651c.325.232 1.106.242 1.766.024.355-.118 1.803-.806 1.996-.949.087-.065.076-.073-.168-.123-.98-.2-2.398-.247-2.967-.098zm-25.111.336c-.271.247-.561.444-1.232.836a3.864 3.864 0 00-.664.504l-.272.275.221.152c.533.367 1.376.653 2.233.758l.311.038-.225.134a1.535 1.535 0 01-.543.18c-.313.045-.502.111-.501.178 0 .019.124.081.275.138l.975.37c.708.271 1.472.488 2.253.642l.43.084-.134.175a11.8 11.8 0 01-.37.446c-.187.215-.222.282-.169.315.037.023.316.111.62.196.486.137.641.158 1.296.176l.744.02.471-.247c.26-.136.482-.238.493-.227.011.012-.166.167-.394.345-.459.358-.593.568-.595.928l-.001.209.208-.031c.115-.017.517-.105.894-.196.377-.09.703-.153.725-.14.021.014.065.11.096.214.031.105.08.19.11.19.068 0 .396-.217.567-.375.148-.138.162-.26.078-.707a61.076 61.076 0 01-.21-1.355c-.088-.589-.17-1.082-.183-1.095-.025-.025-.157.028-1.255.503-.696.302-1.08.397-1.365.338-.164-.034-.298-.157-.59-.539-.09-.117-.254-.233-.492-.346-.427-.203-.897-.623-1.171-1.047l-.19-.293-.612-.18c-.61-.18-1.972-.812-2.013-.934-.025-.073.45-.385.647-.425.085-.017.155-.045.155-.062 0-.047-.29-.389-.327-.386-.017 0-.15.11-.294.24zm5.542.34c-.101.028-.195.082-.21.12-.073.19.474.958.822 1.153.09.05.087.06-.048.227l-.294.363c-.148.185-.302.687-.23.758.017.018.283.032.59.032.527 0 .576-.008.842-.143.156-.08.305-.18.332-.223.037-.059-.014-.303-.2-.96a25.967 25.967 0 00-.3-1.006c-.097-.245-.884-.44-1.304-.321zm27.186.283c-1.53.095-2.443.532-2.443 1.17 0 .339.436.648.914.649.276 0 .871-.172 1.276-.369.497-.242 1.979-1.337 1.979-1.462 0-.046-.882-.04-1.726.012zm-5.753.625c-.9.514-1.231.748-1.633 1.149-.424.422-.568.67-.568.976 0 .291.076.44.276.534.69.328 1.697-.703 2.428-2.481.177-.43.199-.519.132-.519-.022 0-.308.154-.635.341zm-13.417.235c-1.148.073-2.323.17-2.612.214-1.006.156-2.835.571-2.929.665-.027.028.167 1.85.204 1.91.012.019.124.003.249-.037.708-.226 2.428-.52 3.94-.675 1.213-.124 4.86-.125 5.966-.002 1.426.16 2.67.351 4.326.666.185.036.317.04.345.013.024-.025.067-.271.096-.548.028-.277.08-.692.114-.922l.063-.418-.244-.05c-2.406-.492-4.645-.813-6.185-.887a369.54 369.54 0 01-.91-.044c-.185-.01-1.275.042-2.423.115zm.685.227l-.347.017v.722c0 .64.008.72.075.694.042-.017.268-.03.504-.03.423 0 .427 0 .427-.12 0-.117-.008-.12-.36-.12h-.359v-.383h.336c.325 0 .335-.004.335-.12 0-.116-.01-.12-.335-.12h-.336v-.288h.719v-.143c0-.133-.013-.144-.156-.135-.085.006-.312.017-.503.026zm.898.684v.72h.144c.14 0 .144-.007.144-.232 0-.178.025-.255.108-.333l.108-.102.183.333c.17.313.192.333.347.333.09 0 .165-.013.165-.03 0-.016-.111-.21-.247-.432l-.246-.402.25-.287.25-.287h-.184c-.163 0-.212.03-.456.3l-.274.3-.002-.3-.002-.3h-.287v.719zm1.342-.003v.722h.29l-.013-.707-.013-.707-.132-.015-.132-.016v.723zm.654-.569c-.094.074-.127.143-.127.267 0 .208.138.343.46.45.282.095.372.214.238.313a.39.39 0 01-.196.07c-.108 0-.262-.136-.262-.232 0-.03-.065-.056-.144-.056-.159 0-.179.061-.086.265.073.161.27.262.513.262.247 0 .412-.077.478-.223.132-.288.005-.5-.388-.65-.227-.086-.301-.137-.301-.208 0-.137.256-.158.356-.029a.431.431 0 00.207.13c.113.027.132.017.132-.073 0-.058-.063-.168-.14-.245-.117-.117-.18-.14-.377-.14-.167 0-.274.029-.363.1zm-4.416-.009l-.191.03-.014.683-.013.683.253-.003c.433-.005.718-.07.813-.188.117-.145.112-.407-.01-.53-.09-.09-.092-.106-.024-.202.104-.149.09-.29-.038-.411-.116-.109-.345-.127-.775-.062zm5.448.085c.014.123.035.138.22.151l.203.015v.567c0 .542.005.568.104.594.057.015.122.017.144.003.022-.013.04-.271.04-.573v-.549h.191c.17 0 .192-.013.192-.114 0-.108-.021-.116-.372-.145a11.627 11.627 0 01-.554-.059c-.179-.026-.183-.023-.168.11zm-6.214-.007c-.027.009-.172.03-.324.047-.255.03-.275.04-.275.154 0 .122.002.122.292.09.338-.039.345-.084-.086.506-.299.41-.388.665-.232.665.039 0 .287-.025.551-.055.466-.053.481-.058.481-.174v-.12l-.364.033c-.292.027-.356.02-.326-.03.021-.033.185-.264.364-.511.383-.53.407-.631.146-.626a1.229 1.229 0 00-.227.02zm7.582.186c-.246.227-.268.73-.047 1.032a.808.808 0 00.572.292c.401 0 .606-.243.578-.684-.02-.307-.114-.472-.37-.647-.224-.151-.566-.148-.733.007zm-8.627-.033c-.062.016-.083.06-.072.15.008.071.041.123.075.116.083-.017.074.063-.019.156-.053.052-.063.094-.03.126.082.082.252-.186.252-.396 0-.187-.019-.2-.206-.152zm2.015 0c-.11.017-.132.045-.132.161 0 .124.017.141.141.141.216 0 .387-.082.387-.185 0-.051-.035-.105-.076-.122-.078-.03-.09-.029-.32.006zm-2.935.156a.753.753 0 00-.49.323c-.116.153-.133.218-.133.507 0 .304.011.341.134.447.1.086.192.116.353.116.408 0 .689-.22.772-.604.112-.52-.19-.893-.636-.789zm10.854.626c0 .369.016.671.036.672.02 0 .085.013.144.03.106.028.108.02.108-.397l.001-.425.246.455.254.467a.824.824 0 00.161.042l.152.03v-1.308l-.123-.047a.98.98 0 00-.143-.047c-.012 0-.022.189-.023.42l-.001.42-.161-.288c-.357-.637-.402-.696-.53-.696h-.12v.672zm-1.102-.528c-.14.14-.133.528.012.691.241.27.546.172.595-.192.058-.43-.345-.761-.607-.499zm-9.884.196c-.222.13-.302.593-.132.763.137.137.319.12.483-.044.117-.117.14-.18.14-.376 0-.341-.225-.498-.49-.343zm2.955.158a.446.446 0 00-.011.182c.014.1.036.11.231.095.254-.02.345-.082.326-.22-.012-.084-.053-.101-.267-.114-.188-.01-.259.004-.279.057zm15.625.317c-.648.057-1.194.294-1.343.582a.605.605 0 00.077.684c.422.481 1.496.427 2.665-.135.563-.27 1.498-.799 1.5-.848.005-.076-2.15-.358-2.466-.322l-.433.04zm-14.638 1.103a23.51 23.51 0 00-4.373.655c-1.051.257-1.09.27-1.09.383 0 .21.246 1.767.286 1.808.021.022.079.02.128-.007.154-.082 1.69-.43 2.341-.531.935-.144 1.404-.189 2.875-.274 1.104-.063 1.555-.068 2.54-.026 1.664.07 3.907.363 5.534.721.356.078.654.135.663.126.026-.026.246-1.612.248-1.78 0-.14-.012-.15-.25-.198-.14-.027-.684-.137-1.211-.244a52.036 52.036 0 00-3.498-.564c-.72-.09-3.094-.13-4.193-.07zm10.433.724c-.37.087-.596.268-.727.582a.805.805 0 00.017.69c.254.559 1.017.735 2.047.474.615-.156 2.3-.969 2.206-1.064-.07-.07-1.65-.555-2.082-.639-.511-.099-1.145-.117-1.461-.043zm-10.577 1.726c-.769.062-1.921.218-2.64.358-.66.13-2.008.485-2.072.547-.11.108.733.42 1.74.644.613.136 2.106.341 2.864.393.485.034.491.033.491-.072 0-.194.248-.634.499-.883.784-.783 1.98-.773 2.737.022.24.25.5.691.502.845 0 .097.46.074 1.624-.083 1.468-.197 2.408-.433 2.912-.73l.178-.105-.333-.086c-.952-.246-3.093-.637-4.285-.784-.765-.094-3.363-.135-4.217-.066z" fill="#000"/></svg>