<svg width="48" height="48" viewBox="0 0 48 48" fill="none" xmlns="http://www.w3.org/2000/svg">
<path d="M18 42C15.8 42 13.9167 41.2167 12.35 39.65C10.7833 38.0833 10 36.2 10 34V17.65C8.83333 17.2167 7.87533 16.492 7.126 15.476C6.37667 14.46 6.00133 13.3013 6 12C6 10.3333 6.58333 8.91667 7.75 7.75C8.91667 6.58333 10.3333 6 12 6C13.6667 6 15.0833 6.58333 16.25 7.75C17.4167 8.91667 18 10.3333 18 12C18 13.3 17.6253 14.4587 16.876 15.476C16.1267 16.4933 15.168 17.218 14 17.65V34C14 35.1 14.392 36.042 15.176 36.826C15.96 37.61 16.9013 38.0013 18 38C19.0987 37.9987 20.0407 37.6073 20.826 36.826C21.6113 36.0447 22.0027 35.1027 22 34V14C22 11.8 22.7833 9.91667 24.35 8.35C25.9167 6.78333 27.8 6 30 6C32.2 6 34.0833 6.78333 35.65 8.35C37.2167 9.91667 38 11.8 38 14V30.35C39.1667 30.7833 40.1253 31.5087 40.876 32.526C41.6267 33.5433 42.0013 34.7013 42 36C42 37.6667 41.4167 39.0833 40.25 40.25C39.0833 41.4167 37.6667 42 36 42C34.3333 42 32.9167 41.4167 31.75 40.25C30.5833 39.0833 30 37.6667 30 36C30 34.7 30.3753 33.5333 31.126 32.5C31.8767 31.4667 32.8347 30.75 34 30.35V14C34 12.9 33.6087 11.9587 32.826 11.176C32.0433 10.3933 31.1013 10.0013 30 10C28.8987 9.99867 27.9573 10.3907 27.176 11.176C26.3947 11.9613 26.0027 12.9027 26 14V34C26 36.2 25.2167 38.0833 23.65 39.65C22.0833 41.2167 20.2 42 18 42Z" fill="white"/>
</svg>
