<svg width="24" height="25" fill="none" xmlns="http://www.w3.org/2000/svg"><path d="M11 17.5H7c-1.383 0-2.562-.488-3.537-1.463C2.488 15.062 2.001 13.883 2 12.5c0-1.383.488-2.562 1.463-3.537C4.438 7.988 5.617 7.501 7 7.5h4v2H7c-.833 0-1.542.292-2.125.875A2.893 2.893 0 004 12.5c0 .833.292 1.542.875 2.125A2.893 2.893 0 007 15.5h4v2zm-3-4v-2h8v2H8zm5 4v-2h4c.833 0 1.542-.292 2.125-.875A2.893 2.893 0 0020 12.5c0-.833-.292-1.542-.875-2.125A2.893 2.893 0 0017 9.5h-4v-2h4c1.383 0 2.563.488 3.538 1.463.975.975 1.463 2.154 1.462 3.537 0 1.383-.488 2.563-1.463 3.538-.975.975-2.154 1.463-3.537 1.462h-4z" fill="#000"/></svg>