<svg width="48" height="49" viewBox="0 0 48 49" fill="none" xmlns="http://www.w3.org/2000/svg">
<path d="M22 34.5H14C11.2333 34.5 8.87533 33.5247 6.926 31.574C4.97667 29.6233 4.00133 27.2653 4 24.5C4 21.7333 4.97533 19.3753 6.926 17.426C8.87667 15.4767 11.2347 14.5013 14 14.5H22V18.5H14C12.3333 18.5 10.9167 19.0833 9.75 20.25C8.58333 21.4167 8 22.8333 8 24.5C8 26.1667 8.58333 27.5833 9.75 28.75C10.9167 29.9167 12.3333 30.5 14 30.5H22V34.5ZM16 26.5V22.5H32V26.5H16ZM26 34.5V30.5H34C35.6667 30.5 37.0833 29.9167 38.25 28.75C39.4167 27.5833 40 26.1667 40 24.5C40 22.8333 39.4167 21.4167 38.25 20.25C37.0833 19.0833 35.6667 18.5 34 18.5H26V14.5H34C36.7667 14.5 39.1253 15.4753 41.076 17.426C43.0267 19.3767 44.0013 21.7347 44 24.5C44 27.2667 43.0247 29.6253 41.074 31.576C39.1233 33.5267 36.7653 34.5013 34 34.5H26Z" fill="black"/>
</svg>
