<svg width="14" height="15" viewBox="0 0 14 15" fill="none" xmlns="http://www.w3.org/2000/svg">
<path d="M7 7.49984C7.32084 7.49984 7.59559 7.3857 7.82425 7.15742C8.05292 6.92914 8.16706 6.65439 8.16667 6.33317C8.16667 6.01234 8.05253 5.73778 7.82425 5.5095C7.59598 5.28123 7.32123 5.16689 7 5.1665C6.67917 5.1665 6.40461 5.28084 6.17634 5.5095C5.94806 5.73817 5.83372 6.01273 5.83334 6.33317C5.83334 6.654 5.94767 6.92875 6.17634 7.15742C6.405 7.38609 6.67956 7.50023 7 7.49984ZM7 13.3332C5.43473 12.0012 4.26572 10.7642 3.493 9.622C2.72028 8.47984 2.33372 7.42245 2.33334 6.44984C2.33334 4.9915 2.80253 3.8297 3.74092 2.96442C4.67931 2.09914 5.76567 1.6665 7 1.6665C8.23472 1.6665 9.32128 2.09914 10.2597 2.96442C11.1981 3.8297 11.6671 4.9915 11.6667 6.44984C11.6667 7.42206 11.2803 8.47945 10.5076 9.622C9.73486 10.7646 8.56567 12.0016 7 13.3332Z" fill="black" fill-opacity="0.5"/>
</svg>
