<svg width="14" height="15" viewBox="0 0 14 15" fill="none" xmlns="http://www.w3.org/2000/svg">
<path d="M7 13.3332C6.19305 13.3332 5.43472 13.1799 4.725 12.8735C4.01528 12.5671 3.39791 12.1515 2.87291 11.6269C2.34791 11.1019 1.93239 10.4846 1.62633 9.77484C1.32028 9.06511 1.16705 8.30678 1.16666 7.49984C1.16666 6.69289 1.31989 5.93456 1.62633 5.22484C1.93278 4.51512 2.3483 3.89775 2.87291 3.37275C3.39791 2.84775 4.01528 2.43223 4.725 2.12617C5.43472 1.82012 6.19305 1.66689 7 1.6665C7.80694 1.6665 8.56527 1.81973 9.275 2.12617C9.98472 2.43262 10.6021 2.84814 11.1271 3.37275C11.6521 3.89775 12.0678 4.51512 12.3742 5.22484C12.6807 5.93456 12.8337 6.69289 12.8333 7.49984V8.34567C12.8333 8.91928 12.6366 9.40792 12.243 9.81159C11.8494 10.2153 11.3657 10.4169 10.7917 10.4165C10.4514 10.4165 10.1306 10.3436 9.82916 10.1978C9.52777 10.0519 9.275 9.84289 9.07083 9.57067C8.78889 9.85261 8.47039 10.0642 8.11533 10.2053C7.76027 10.3465 7.3885 10.4169 7 10.4165C6.19305 10.4165 5.5053 10.132 4.93675 9.56309C4.36819 8.99414 4.08372 8.30639 4.08333 7.49984C4.08333 6.69289 4.3678 6.00514 4.93675 5.43659C5.50569 4.86803 6.19344 4.58356 7 4.58317C7.80694 4.58317 8.49489 4.86764 9.06383 5.43659C9.63278 6.00553 9.91705 6.69328 9.91666 7.49984V8.34567C9.91666 8.59845 9.9993 8.81234 10.1646 8.98734C10.3299 9.16234 10.5389 9.24984 10.7917 9.24984C11.0444 9.24984 11.2535 9.16234 11.4187 8.98734C11.584 8.81234 11.6667 8.59845 11.6667 8.34567V7.49984C11.6667 6.19706 11.2146 5.09359 10.3104 4.18942C9.40625 3.28525 8.30277 2.83317 7 2.83317C5.69722 2.83317 4.59375 3.28525 3.68958 4.18942C2.78541 5.09359 2.33333 6.19706 2.33333 7.49984C2.33333 8.80261 2.78541 9.90609 3.68958 10.8103C4.59375 11.7144 5.69722 12.1665 7 12.1665H9.91666V13.3332H7ZM7 9.24984C7.48611 9.24984 7.8993 9.0797 8.23958 8.73942C8.57986 8.39914 8.75 7.98595 8.75 7.49984C8.75 7.01373 8.57986 6.60053 8.23958 6.26025C7.8993 5.91998 7.48611 5.74984 7 5.74984C6.51389 5.74984 6.10069 5.91998 5.76041 6.26025C5.42014 6.60053 5.25 7.01373 5.25 7.49984C5.25 7.98595 5.42014 8.39914 5.76041 8.73942C6.10069 9.0797 6.51389 9.24984 7 9.24984Z" fill="black" fill-opacity="0.5"/>
</svg>
