<svg id="Layer_1" data-name="Layer 1" xmlns="http://www.w3.org/2000/svg" viewBox="0 0 666 549"><defs><style>.cls-1{fill:#fff;}</style></defs><g id="TYqW4c.tif"><path class="cls-1" d="M114.17,34h374a17.52,17.52,0,0,0,2.21.77q42.45,8.83,64.86,45.92c2.12,3.52,5.19,4.32,8.81,4.89,16.83,2.64,32.07,8.91,45.33,19.83,15.56,12.8,24.26,29.54,28.62,48.86v29.48c-.55,2.29-1.2,4.55-1.64,6.86C624,255.82,611.11,320.93,599.63,386.29,593.88,419,580.73,447,555,468.13c-24.25,19.92-51.31,33.27-83.68,33.25q-172.24-.12-344.48-.05c-50.88,0-93.25-42.41-93.26-93.17q0-140.6,0-281.2c0-25.06,9.3-46.29,26.28-64.35C74.61,46.87,93.18,38.1,114.17,34ZM301,82.36q-86.11,0-172.23,0c-22.25,0-40.22,13.91-45.38,34.9A77.72,77.72,0,0,0,81.55,136q0,58.94,0,117.89c0,48.93.26,97.86-.08,146.78-.25,35.17,24.72,52.45,52,52.25,111.86-.84,223.73-.35,335.6-.36,4.91,0,9.82.13,14.67-1.05,21.72-5.27,35.86-23.69,35.88-47.29.06-91-.17-182,.14-272.93.09-28.76-22.35-49.59-49.5-49.2C413.88,82.93,357.45,82.36,301,82.36Z"/><path class="cls-1" d="M130.27,204.24c0-14.74-.06-29.47,0-44.21.11-17.07,12.12-29.46,29.31-29.6q44.24-.35,88.46,0c17.21.12,29.62,11.88,29.91,29.21q.72,44.79,0,89.58c-.3,17.51-13,29-30.64,29.06q-43.35.15-86.69,0c-18.17-.07-30.27-12.28-30.34-30.42C130.22,233.31,130.27,218.78,130.27,204.24Z"/><path class="cls-1" d="M298.22,393.86c-48.37,0-96.73-.07-145.1.06-9.34,0-17.74-2-21.57-11.13-4.09-9.72-4.31-20,1.51-29.4,3.17-5.13,8.36-7.6,14.35-8.2a46.34,46.34,0,0,1,4.72-.12q145.68,0,291.38,0c7,0,13.55,1.26,17.94,7.08,7.11,9.43,6.22,20.23,2.56,30.32-3.36,9.29-11.89,11.5-21.27,11.48C394.56,393.79,346.39,393.86,298.22,393.86Z"/><path class="cls-1" d="M386.73,180.21q-28.28,0-56.54,0c-6.66,0-12.9-1.27-17.78-6.32-7.62-7.89-7.56-28.82.17-36.65a18.08,18.08,0,0,1,13.17-5.7c40.64,0,81.28-.14,121.92.08,10.22,0,17.9,8.36,18.39,18.61,1.12,23.35-5.23,30-28.67,30Z"/><path class="cls-1" d="M387,230.58q28.56,0,57.13,0c14.52,0,21.95,7.59,22,22.24q0,2.35,0,4.71c-.11,13.71-7.69,21.51-21.56,21.68-16.09.18-32.2.06-48.3.06-22,0-44,.05-66,0-15.88-.06-23-7.28-23-23,0-2,0-3.93,0-5.89.19-11.64,7.92-19.61,19.62-19.7C346.9,230.47,366.92,230.59,387,230.58Z"/></g></svg>