<svg width="20" height="20" fill="none" xmlns="http://www.w3.org/2000/svg"><path d="M0 15v-1.313c0-.597.306-1.083.917-1.458.61-.375 1.416-.562 2.416-.562.18 0 .354.003.521.01.167.008.327.025.48.052-.195.292-.34.597-.438.917-.097.32-.146.653-.146 1V15H0zm5 0v-1.354c0-.445.122-.851.365-1.22.243-.368.587-.69 1.03-.968.445-.277.977-.486 1.595-.625a9.165 9.165 0 012.01-.208c.736 0 1.413.07 2.032.208.618.14 1.15.348 1.593.625.444.278.785.601 1.02.97.237.368.355.774.355 1.218V15H5zm11.25 0v-1.354c0-.361-.045-.702-.135-1.021a3.239 3.239 0 00-.407-.896c.153-.028.31-.045.47-.051.16-.007.323-.01.489-.011 1 0 1.805.184 2.416.552.611.369.917.858.917 1.469V15h-3.75zM3.333 10.833c-.458 0-.85-.163-1.176-.489a1.608 1.608 0 01-.49-1.177c0-.473.163-.868.49-1.188A1.62 1.62 0 013.333 7.5c.473 0 .868.16 1.188.48.32.319.479.714.479 1.187 0 .458-.16.85-.48 1.177a1.59 1.59 0 01-1.187.49zm13.334 0c-.459 0-.85-.163-1.177-.489A1.608 1.608 0 0115 9.167c0-.473.163-.868.49-1.188.327-.32.719-.479 1.177-.479.472 0 .868.16 1.187.48.32.319.48.714.48 1.187 0 .458-.16.85-.48 1.177-.32.327-.715.49-1.187.49zM10 10a2.41 2.41 0 01-1.77-.73A2.41 2.41 0 017.5 7.5c0-.708.243-1.302.73-1.78A2.432 2.432 0 0110 5c.708 0 1.302.24 1.782.72.48.479.719 1.072.718 1.78a2.43 2.43 0 01-.718 1.77c-.48.487-1.073.73-1.782.73z" fill="#fff"/></svg>