<svg width="48" height="49" viewBox="0 0 48 49" fill="none" xmlns="http://www.w3.org/2000/svg">
<path d="M0 36.5V33.35C0 31.9167 0.733333 30.75 2.2 29.85C3.66667 28.95 5.6 28.5 8 28.5C8.43333 28.5 8.85 28.5087 9.25 28.526C9.65 28.5433 10.0333 28.5847 10.4 28.65C9.93333 29.35 9.58333 30.0833 9.35 30.85C9.11667 31.6167 9 32.4167 9 33.25V36.5H0ZM12 36.5V33.25C12 32.1833 12.292 31.208 12.876 30.324C13.46 29.44 14.2847 28.6653 15.35 28C16.4167 27.3333 17.692 26.8333 19.176 26.5C20.66 26.1667 22.268 26 24 26C25.7667 26 27.392 26.1667 28.876 26.5C30.36 26.8333 31.6347 27.3333 32.7 28C33.7667 28.6667 34.5833 29.442 35.15 30.326C35.7167 31.21 36 32.1847 36 33.25V36.5H12ZM39 36.5V33.25C39 32.3833 38.892 31.5667 38.676 30.8C38.46 30.0333 38.1347 29.3167 37.7 28.65C38.0667 28.5833 38.442 28.542 38.826 28.526C39.21 28.51 39.6013 28.5013 40 28.5C42.4 28.5 44.3333 28.942 45.8 29.826C47.2667 30.71 48 31.8847 48 33.35V36.5H39ZM8 26.5C6.9 26.5 5.95867 26.1087 5.176 25.326C4.39333 24.5433 4.00133 23.6013 4 22.5C4 21.3667 4.392 20.4167 5.176 19.65C5.96 18.8833 6.90133 18.5 8 18.5C9.13333 18.5 10.0833 18.8833 10.85 19.65C11.6167 20.4167 12 21.3667 12 22.5C12 23.6 11.6167 24.542 10.85 25.326C10.0833 26.11 9.13333 26.5013 8 26.5ZM40 26.5C38.9 26.5 37.9587 26.1087 37.176 25.326C36.3933 24.5433 36.0013 23.6013 36 22.5C36 21.3667 36.392 20.4167 37.176 19.65C37.96 18.8833 38.9013 18.5 40 18.5C41.1333 18.5 42.0833 18.8833 42.85 19.65C43.6167 20.4167 44 21.3667 44 22.5C44 23.6 43.6167 24.542 42.85 25.326C42.0833 26.11 41.1333 26.5013 40 26.5ZM24 24.5C22.3333 24.5 20.9167 23.9167 19.75 22.75C18.5833 21.5833 18 20.1667 18 18.5C18 16.8 18.5833 15.3753 19.75 14.226C20.9167 13.0767 22.3333 12.5013 24 12.5C25.7 12.5 27.1253 13.0753 28.276 14.226C29.4267 15.3767 30.0013 16.8013 30 18.5C30 20.1667 29.4253 21.5833 28.276 22.75C27.1267 23.9167 25.7013 24.5 24 24.5Z" fill="black"/>
</svg>
