<svg width="20" height="20" fill="none" xmlns="http://www.w3.org/2000/svg"><path d="M3.375 17.5a.848.848 0 01-.625-.25.848.848 0 01-.25-.625V13.25c0-.18.063-.344.188-.49a.97.97 0 01.479-.302l2.875-.583a1.34 1.34 0 01.594.053c.202.062.365.156.489.28l1.958 1.959a13.133 13.133 0 001.5-1.011c.473-.369.924-.768 1.354-1.198.459-.444.88-.906 1.261-1.385.383-.479.712-.975.99-1.49l-2.021-2.041a.877.877 0 01-.23-.396 1.469 1.469 0 01-.02-.563l.541-2.916a.76.76 0 01.271-.469.78.78 0 01.521-.198h3.375c.25 0 .458.083.625.25.167.167.25.375.25.625 0 1.736-.378 3.451-1.135 5.146-.757 1.694-1.83 3.236-3.22 4.625-1.388 1.389-2.93 2.462-4.624 3.219-1.695.757-3.41 1.136-5.146 1.135z" fill="#fff"/></svg>