<svg width="48" height="48" viewBox="0 0 48 48" fill="none" xmlns="http://www.w3.org/2000/svg">
<path d="M13.7001 34.3L7.3001 30.8L9.4001 28.7L14.4001 29.4L22.2001 21.6L6.6001 13.1L9.4001 10.3L28.5001 15.2L36.3501 7.44998C36.9168 6.88331 37.6254 6.59998 38.4761 6.59998C39.3268 6.59998 40.0348 6.88331 40.6001 7.44998C41.1654 8.01664 41.4488 8.72531 41.4501 9.57598C41.4514 10.4266 41.1681 11.1346 40.6001 11.7L32.8001 19.5L37.7001 38.6L34.9001 41.4L26.4001 25.8L18.6001 33.6L19.3001 38.6L17.2001 40.7L13.7001 34.3Z" fill="white"/>
</svg>
