<svg width="14" height="15" viewBox="0 0 14 15" fill="none" xmlns="http://www.w3.org/2000/svg">
<path d="M2.3625 12.75C2.1875 12.75 2.04167 12.6917 1.925 12.575C1.80833 12.4583 1.75 12.3125 1.75 12.1375V9.775C1.75 9.64861 1.79375 9.53447 1.88125 9.43258C1.96875 9.33069 2.08056 9.26011 2.21667 9.22083L4.22917 8.8125C4.36528 8.79306 4.50392 8.80531 4.64508 8.84925C4.78625 8.89319 4.90039 8.95872 4.9875 9.04583L6.35833 10.4167C6.72778 10.2028 7.07778 9.96692 7.40833 9.70908C7.73889 9.45125 8.05486 9.17183 8.35625 8.87083C8.67708 8.55972 8.97128 8.23656 9.23883 7.90133C9.50639 7.56611 9.73719 7.21844 9.93125 6.85833L8.51667 5.42917C8.43889 5.35139 8.38542 5.25903 8.35625 5.15208C8.32708 5.04514 8.32222 4.91389 8.34167 4.75833L8.72083 2.71667C8.74028 2.59028 8.80347 2.481 8.91042 2.38883C9.01736 2.29667 9.13889 2.25039 9.275 2.25H11.6375C11.8125 2.25 11.9583 2.30833 12.075 2.425C12.1917 2.54167 12.25 2.6875 12.25 2.8625C12.25 4.07778 11.9852 5.27847 11.4555 6.46458C10.9258 7.65069 10.1747 8.72986 9.20208 9.70208C8.22986 10.6743 7.15069 11.4254 5.96458 11.9555C4.77847 12.4856 3.57778 12.7504 2.3625 12.75Z" fill="black" fill-opacity="0.5"/>
</svg>
