<svg width="48" height="48" viewBox="0 0 48 48" fill="none" xmlns="http://www.w3.org/2000/svg">
<path d="M24 46L18 40H10C8.9 40 7.95867 39.6087 7.176 38.826C6.39333 38.0433 6.00133 37.1013 6 36V8C6 6.9 6.392 5.95867 7.176 5.176C7.96 4.39333 8.90133 4.00133 10 4H38C39.1 4 40.042 4.392 40.826 5.176C41.61 5.96 42.0013 6.90133 42 8V36C42 37.1 41.6087 38.042 40.826 38.826C40.0433 39.61 39.1013 40.0013 38 40H30L24 46ZM24 24C25.9333 24 27.5833 23.3167 28.95 21.95C30.3167 20.5833 31 18.9333 31 17C31 15.0667 30.3167 13.4167 28.95 12.05C27.5833 10.6833 25.9333 10 24 10C22.0667 10 20.4167 10.6833 19.05 12.05C17.6833 13.4167 17 15.0667 17 17C17 18.9333 17.6833 20.5833 19.05 21.95C20.4167 23.3167 22.0667 24 24 24ZM10 36H38V33.7C36.2 31.9333 34.1087 30.542 31.726 29.526C29.3433 28.51 26.768 28.0013 24 28C21.232 27.9987 18.6567 28.5073 16.274 29.526C13.8913 30.5447 11.8 31.936 10 33.7V36Z" fill="white"/>
</svg>
