<svg width="70" height="62" viewBox="0 0 70 62" fill="none" xmlns="http://www.w3.org/2000/svg">
<path d="M67.5682 42.3131L60.2735 41.3552L56.0735 34.0605C54.9682 32.071 52.8314 30.8184 50.5472 30.8184H42.5893C41.8524 30.8184 41.1893 31.4815 41.1893 32.2184V48.1341H18.5682C17.7577 48.1341 17.1682 48.7973 17.1682 49.5342V53.8078C17.1682 54.6184 17.8314 55.2078 18.5682 55.2078H21.2945C21.5156 58.4499 24.2419 61.0289 27.5577 61.0289C30.8735 61.0289 33.5998 58.4499 33.8208 55.2078H53.1998C53.4208 58.4499 56.1472 61.0289 59.4629 61.0289C62.7787 61.0289 65.505 58.4499 65.7261 55.2078H67.1998C68.7472 55.2078 69.9998 53.9552 69.9998 52.4078V45.0394C69.9998 43.7131 68.9682 42.5341 67.5682 42.3131ZM27.484 58.0815C25.6419 58.0815 24.1682 56.6078 24.1682 54.7657C24.1682 52.9236 25.6419 51.4499 27.484 51.4499C29.3261 51.4499 30.7998 52.9236 30.7998 54.7657C30.8735 56.6078 29.3261 58.0815 27.484 58.0815ZM55.1156 41.1341H45.9787C45.8314 41.1341 45.684 40.9868 45.684 40.8394V35.0184C45.684 34.871 45.8314 34.7236 45.9787 34.7236H50.5472C51.4314 34.7236 52.2419 35.1657 52.6103 35.9026L55.3366 40.6184C55.484 40.9131 55.3366 41.1341 55.1156 41.1341ZM59.4629 58.0815C57.6208 58.0815 56.1472 56.6078 56.1472 54.7657C56.1472 52.9236 57.6208 51.4499 59.4629 51.4499C61.305 51.4499 62.7787 52.9236 62.7787 54.7657C62.7787 56.6078 61.305 58.0815 59.4629 58.0815Z" fill="#295680"/>
<path d="M39.1999 27.2813V44.7445C39.1999 45.555 38.6105 46.1445 37.7999 46.1445H16.0631C15.2526 46.1445 14.6631 45.4813 14.6631 44.7445V27.2813C14.6631 26.4708 15.2526 25.8813 16.0631 25.8813H22.1052C22.6947 26.8392 23.2105 27.7234 23.5789 28.4603C23.2841 29.4918 23.1368 30.5234 22.9894 31.555C22.842 32.5866 23.1368 33.5445 23.7262 34.355C24.3157 35.1655 25.1999 35.6813 26.2315 35.8287H26.5262H26.5999H26.7473C28.6631 35.8287 30.2841 34.355 30.5052 32.5129C30.7999 30.155 31.6105 27.9445 32.7894 25.8076H37.7262C38.5368 25.8813 39.1999 26.5445 39.1999 27.2813Z" fill="#295680"/>
<path d="M1.54737 39.6602H10.7579C11.6421 39.6602 12.3053 40.3233 12.3053 41.2075C12.3053 42.0917 11.6421 42.7549 10.7579 42.7549H1.54737C0.663158 42.7549 0 42.0917 0 41.2075C0 40.397 0.663158 39.6602 1.54737 39.6602Z" fill="#295680"/>
<path d="M4.12623 34.5029H10.7578C11.642 34.5029 12.3052 35.1661 12.3052 36.0503C12.3052 36.9345 11.642 37.5977 10.7578 37.5977H4.12623C3.3157 37.5977 2.57886 36.8608 2.57886 36.0503C2.57886 35.1661 3.3157 34.5029 4.12623 34.5029Z" fill="#295680"/>
<path d="M6.77877 29.2715H10.8314C11.7156 29.2715 12.3788 29.9346 12.3788 30.8189C12.3788 31.7031 11.7156 32.3662 10.8314 32.3662H6.77877C5.89456 32.3662 5.23141 31.7031 5.23141 30.8189C5.15772 30.0083 5.89456 29.2715 6.77877 29.2715Z" fill="#295680"/>
<path d="M26.6732 33.4714H26.5995C26.2311 33.3977 25.8626 33.2504 25.6416 32.8819C25.4205 32.5872 25.2732 32.2188 25.3468 31.8504C25.4942 30.5977 25.789 29.4188 26.1574 28.2398C25.4205 26.6188 23.8732 24.0398 22.1784 21.8293C20.9995 22.2714 19.7468 22.4188 18.5679 22.3451C17.2416 22.2714 16.1363 21.8293 15.2521 21.1661C11.9363 18.5135 12.0837 10.3346 12.7468 5.91351C12.8205 5.25036 13.41 4.80825 13.9995 4.88193C14.2942 4.88193 14.6626 5.0293 14.81 5.32404C16.6521 7.53457 19.01 8.86088 21.1468 10.1135C24.0942 11.8082 26.6732 13.2819 26.7468 16.4504C26.7468 17.703 26.5258 18.4398 25.7153 19.2504C25.7153 19.2504 23.21 15.7872 19.5995 14.8293C20.1153 15.2714 20.7047 15.8609 21.3679 16.524C23.5784 18.5872 26.0837 22.124 27.5574 24.6293C30.5784 18.3661 35.7363 14.4609 38.7574 12.5451C33.8205 13.4293 29.989 17.703 29.989 17.703C28.9574 16.2293 28.589 14.6083 28.81 13.0609C29.4732 8.86088 33.2311 7.31351 37.6521 5.61878C40.7468 4.36615 44.2837 2.96615 47.2311 0.387198C47.5258 0.0924615 47.9679 -0.054907 48.3363 0.0187772C49.0732 0.0924615 49.81 0.681935 49.81 1.56615C49.81 3.40825 49.589 8.12404 48.41 12.9872C47.2311 17.5556 45.5363 20.503 43.3995 21.7556C42.1468 22.4925 40.6732 22.7872 38.9784 22.7135C37.1363 22.5661 35.2205 21.9767 33.5258 20.9451C30.5784 24.4083 28.81 28.1661 28.2942 32.2188C28.1468 33.0293 27.4837 33.5451 26.6732 33.4714Z" fill="#295680"/>
</svg>
