<svg width="78" height="67" viewBox="0 0 78 67" fill="none" xmlns="http://www.w3.org/2000/svg">
<path d="M5.89697 45.2183C6.22428 44.5315 6.77797 44.34 7.51169 44.3427C14.2378 44.3619 20.9667 44.3427 27.6956 44.3427C27.8777 44.3392 28.0598 44.3456 28.2411 44.3619C28.5217 44.3765 28.7862 44.4978 28.9808 44.7011C29.1754 44.9044 29.2854 45.1745 29.2885 45.4563C29.3067 47.3113 29.3067 49.1682 29.2885 51.0269C29.2897 51.3007 29.1902 51.5654 29.009 51.7704C28.8279 51.9753 28.5778 52.1061 28.3066 52.1377C28.1151 52.1651 27.9217 52.176 27.7284 52.1705C20.9886 52.1705 14.246 52.1705 7.50623 52.1705C6.76979 52.1705 6.21882 51.9626 5.90516 51.2676L5.89697 45.2183Z" fill="#295680"/>
<path d="M5.89697 35.6561C6.15609 34.9721 6.64705 34.7095 7.37531 34.7149C9.99649 34.7396 12.6204 34.7149 15.2416 34.7149C16.2726 34.7149 16.6899 35.1363 16.6927 36.1787C16.6927 37.8203 16.6927 39.4619 16.6927 41.12C16.6927 42.0885 16.2399 42.5373 15.2716 42.5373C12.6613 42.5373 10.0538 42.5373 7.44623 42.5373C6.71797 42.5373 6.197 42.2992 5.8997 41.6207L5.89697 35.6561Z" fill="#295680"/>
<path d="M48.335 54.094C48.335 53.607 48.1086 53.3935 47.6176 53.3771C47.3288 53.358 47.0391 53.358 46.7503 53.3771C46.3848 53.41 46.2593 53.3087 46.2621 52.912C46.2839 50.4031 46.2621 47.8941 46.2621 45.3879C46.2947 44.4122 46.0312 43.4495 45.5065 42.6273C44.2027 40.6683 42.9099 38.7065 41.5488 36.7886C41.186 36.2622 40.7055 35.8283 40.1457 35.5214C39.586 35.2145 38.9624 35.0432 38.3249 35.0211C36.2574 34.939 34.1844 34.9855 32.1115 34.9882C31.8523 34.9815 31.5995 35.069 31.3996 35.2345C31.237 35.3767 31.1124 35.5572 31.0368 35.7598C30.9593 36.0119 30.9306 36.2766 30.9523 36.5396C30.9523 41.9989 30.9523 47.4582 30.9523 52.9175C30.9523 53.3005 30.8513 53.3963 30.4749 53.3935C29.2203 53.3935 27.971 53.3935 26.7164 53.3935H22.2268C22.0828 53.369 21.9351 53.3793 21.7958 53.4236C21.7958 53.4483 21.7795 53.4619 21.7958 53.4702C21.8229 53.5187 21.8559 53.5638 21.894 53.6042C22.0378 53.7423 22.1726 53.8895 22.2977 54.0447C22.8007 54.6655 23.1427 55.4015 23.2933 56.187C23.3478 56.4606 23.5006 56.436 23.6833 56.436C26.7218 56.436 29.7603 56.436 32.7988 56.436C32.894 56.4432 32.9891 56.4212 33.0716 56.3731C33.1509 56.3033 33.1999 56.2051 33.208 56.0995C33.3485 55.4058 33.64 54.7518 34.0617 54.1843C35.4255 52.2088 38.363 51.6206 40.4169 52.8162C40.5287 52.8819 40.6378 52.9558 40.7469 53.0324C41.7636 53.7246 42.4863 54.7724 42.7735 55.9709C42.7735 56.0092 42.7926 56.0475 42.8008 56.0858C42.8078 56.1835 42.8398 56.2777 42.8935 56.3594C42.9294 56.3912 42.9741 56.4113 43.0217 56.4169H44.4591C45.5502 56.4169 46.6412 56.4169 47.7322 56.4169C47.8101 56.4164 47.8875 56.4035 47.9613 56.3786C48.215 56.2965 48.3377 56.0694 48.3432 55.7274C48.3468 55.1783 48.3441 54.6339 48.335 54.094ZM38.0139 43.5876C36.8383 43.5876 35.6655 43.5876 34.4926 43.5876C33.8762 43.5876 33.6744 43.3851 33.6744 42.7668C33.6744 41.5337 33.6744 40.3007 33.6744 39.0677C33.6744 38.4603 33.8653 38.2469 34.4408 38.2469H34.4872C35.8673 38.2469 37.2475 38.2469 38.6276 38.2469C38.7925 38.2392 38.9565 38.2757 39.1027 38.3526C39.2489 38.4296 39.3721 38.5442 39.4595 38.6846C40.3405 39.9569 41.2324 41.2237 42.1243 42.4904C42.2022 42.5739 42.2618 42.6727 42.2994 42.7806C42.337 42.8885 42.3517 43.0031 42.3425 43.117C42.3318 43.1777 42.3105 43.236 42.2798 43.2894C42.1107 43.5958 41.8243 43.6095 41.527 43.6095L38.0139 43.5876Z" fill="#295680"/>
<path d="M29.2939 36.1157C29.2939 37.7901 29.2939 39.4655 29.2939 41.1418C29.2945 41.2332 29.289 41.3246 29.2775 41.4154C29.1984 42.1979 28.732 42.5618 27.8619 42.5618H26.73C24.4716 42.5618 22.2141 42.5618 19.9575 42.5618C19.2838 42.5618 18.8665 42.3538 18.651 41.9133C18.5451 41.6637 18.4948 41.3938 18.5037 41.1226C18.5037 39.4628 18.5037 37.8011 18.5037 36.1376C18.5037 35.1936 18.9537 34.7422 19.9002 34.7395H27.8947C28.8466 34.7285 29.2912 35.1635 29.2939 36.1157Z" fill="#295680"/>
<path d="M18.4873 53.3801C17.5967 53.3707 16.7337 53.6901 16.0625 54.2775C15.6596 54.6181 15.3333 55.0406 15.1053 55.5171C14.8772 55.9936 14.7526 56.5132 14.7397 57.0416C14.7267 57.57 14.8257 58.0952 15.0301 58.5823C15.2346 59.0695 15.5397 59.5076 15.9255 59.8676C16.3113 60.2277 16.7688 60.5015 17.2679 60.6709C17.767 60.8404 18.2963 60.9017 18.8208 60.8507C19.3452 60.7997 19.8529 60.6376 20.3103 60.3752C20.7677 60.1127 21.1643 59.7559 21.474 59.3282C21.9478 58.6922 22.2042 57.9197 22.205 57.1257C22.193 56.1389 21.798 55.1955 21.1039 54.4962C20.4097 53.7968 19.471 53.3964 18.4873 53.3801ZM19.4747 58.6989C19.1809 58.8942 18.837 58.9997 18.4846 59.0026C17.9909 58.9964 17.5187 58.7986 17.1673 58.4507C16.8159 58.1027 16.6125 57.6318 16.5998 57.1367C16.5977 56.821 16.6766 56.51 16.829 56.2338C16.9916 55.9411 17.2289 55.6969 17.5164 55.5263C17.8039 55.3556 18.1314 55.2646 18.4655 55.2625C18.7106 55.2617 18.9535 55.3099 19.1799 55.4042C19.4064 55.4984 19.6119 55.6369 19.7844 55.8116C19.957 55.9862 20.0933 56.1936 20.1853 56.4215C20.2772 56.6495 20.3231 56.8935 20.3202 57.1394C20.3183 57.4491 20.2401 57.7535 20.0926 58.0256C19.9451 58.2977 19.7328 58.529 19.4747 58.6989Z" fill="#295680"/>
<path d="M41.6444 56.3622C41.4666 55.5275 41.0118 54.778 40.3544 54.2363C39.6969 53.6946 38.8756 53.3926 38.0249 53.3799C37.169 53.3894 36.3416 53.6894 35.6774 54.231C35.0132 54.7725 34.5514 55.5237 34.3672 56.3622C34.3124 56.6138 34.2849 56.8707 34.2854 57.1282C34.2768 57.657 34.3802 58.1816 34.5885 58.6673C34.7969 59.1531 35.1056 59.589 35.4943 59.9463C35.8829 60.3036 36.3427 60.5742 36.8432 60.7401C37.3438 60.9061 37.8737 60.9637 38.3981 60.9092C38.9225 60.8546 39.4293 60.6892 39.8853 60.4237C40.3412 60.1582 40.7359 59.7988 41.0431 59.3691C41.3504 58.9394 41.5634 58.4492 41.668 57.9309C41.7725 57.4126 41.7664 56.8779 41.6498 56.3622H41.6444ZM36.1483 57.1474C36.1454 56.8792 36.1993 56.6134 36.3065 56.3676C36.4525 56.0411 36.6896 55.764 36.9892 55.5698C37.2889 55.3756 37.6381 55.2726 37.9949 55.2732C38.3173 55.2731 38.6344 55.356 38.9158 55.5141C39.1971 55.6722 39.4332 55.9002 39.6014 56.1761C39.6428 56.2403 39.6784 56.3081 39.7078 56.3786C39.8168 56.6181 39.8726 56.8786 39.8714 57.1419C39.8606 57.6302 39.6643 58.0958 39.3226 58.4437C38.9809 58.7916 38.5196 58.9954 38.0331 59.0134C37.7844 59.0189 37.5373 58.9723 37.3075 58.8766C36.9665 58.7335 36.6748 58.4931 36.4687 58.1852C36.2626 57.8773 36.1512 57.5155 36.1483 57.1447V57.1474Z" fill="#295680"/>
<path d="M15.2142 53.3745C14.9415 53.7411 14.6551 53.9764 14.4478 54.2856C14.0671 54.8275 13.7991 55.4407 13.6595 56.0887C13.6104 56.3486 13.5013 56.417 13.2504 56.4143C11.2047 56.4143 9.15906 56.4143 7.11612 56.4143C6.49151 56.4143 6.29785 56.2145 6.29785 55.5934C6.29785 55.1228 6.29785 54.6522 6.29785 54.1816C6.29785 53.5688 6.50515 53.3608 7.12976 53.3608C8.85539 53.3608 10.5828 53.3608 12.3121 53.3608L15.2142 53.3745Z" fill="#295680"/>
<path d="M26.9401 32.6573H37.9267C40.1333 32.5643 41.6198 33.1087 42.329 33.4562C42.6121 33.5938 42.8659 33.7852 43.0763 34.0198L44.3228 35.3878C44.4 35.4733 44.4702 35.5648 44.5328 35.6614C45.6702 37.3031 46.7749 38.9857 47.885 40.652C48.4728 41.5697 48.7677 42.6453 48.7305 43.7355C48.7305 46.5372 48.7305 49.3389 48.7305 52.1406C48.7305 52.5838 48.8642 52.7015 49.276 52.6632C49.5994 52.6426 49.9237 52.6426 50.2471 52.6632C50.7926 52.6823 51.0408 52.9231 51.049 53.4648C51.0571 54.0066 51.049 54.4881 51.049 54.9997H51.4881H55.5249H55.6585C57.3169 54.9997 58.9743 54.9997 60.6309 54.9997H61.0755H69.0072C69.9237 54.9997 70.161 54.759 70.161 53.8287C70.161 43.0579 70.161 32.2834 70.161 21.5052C70.1779 21.2495 70.1214 20.9942 69.9981 20.7697C69.8748 20.5452 69.69 20.3608 69.4654 20.2384C62.7484 15.9173 56.0386 11.5853 49.3361 7.24226C49.1092 7.06137 48.828 6.96289 48.5382 6.96289C48.2485 6.96289 47.9672 7.06137 47.7404 7.24226C41.0379 11.5871 34.3208 15.9219 27.5892 20.2466C27.3765 20.3624 27.2011 20.5366 27.0837 20.7489C26.9663 20.9612 26.9117 21.2027 26.9264 21.445C26.9373 24.8651 26.9373 28.2842 26.9264 31.7024V32.0991" fill="#295680"/>
</svg>
