<svg width="76" height="85" viewBox="0 0 76 85" fill="none" xmlns="http://www.w3.org/2000/svg">
<path d="M39.9302 18.7402C39.9302 9.09018 46.5302 2.67018 54.0802 3.38018C55.9628 3.53416 57.7926 4.0789 59.4529 4.97963C61.1131 5.88036 62.5674 7.1173 63.7229 8.61152C64.8784 10.1057 65.7097 11.8244 66.1638 13.6579C66.6179 15.4914 66.6847 17.3994 66.3602 19.2602C65.0002 27.8102 60.1602 34.2002 54.1202 39.9302C53.6602 40.3702 53.2202 40.8302 52.5102 40.1702C45.7402 33.8702 40.4502 26.7702 39.9302 18.7402ZM58.0002 16.7402C58.0082 16.0997 57.888 15.4641 57.6466 14.8708C57.4053 14.2776 57.0476 13.7386 56.5947 13.2857C56.1418 12.8328 55.6028 12.4751 55.0095 12.2337C54.4162 11.9923 53.7806 11.8721 53.1402 11.8802C51.8796 11.898 50.675 12.404 49.7798 13.2917C48.8846 14.1794 48.3685 15.3798 48.3402 16.6402C48.3632 17.9335 48.8865 19.1675 49.8002 20.0831C50.714 20.9987 51.9469 21.5245 53.2402 21.5502C54.4925 21.5075 55.6815 20.9896 56.5657 20.1018C57.4499 19.2139 57.9628 18.0226 58.0002 16.7702V16.7402Z" fill="#295680"/>
<path d="M13.1001 35.2304C13.1001 30.1704 13.1001 30.1704 18.1601 30.1704H20.2901C23.8001 30.1704 24.5901 31.1704 23.8001 34.6604C23.6801 35.1604 23.5201 35.4204 23.0001 35.4204H21.7201C18.4201 35.4204 18.3401 35.4204 18.4001 38.7904C18.4001 40.2804 17.9801 40.9104 16.4801 40.6704C16.3402 40.6604 16.1999 40.6604 16.0601 40.6704C12.5401 40.6704 13.1701 41.0304 13.0601 37.7704C13.0801 36.9304 13.1001 36.0804 13.1001 35.2304Z" fill="#295680"/>
<path d="M18.2701 72.7802C16.8701 72.6302 14.6101 73.5402 13.4801 72.4502C12.3501 71.3602 13.2201 69.0702 13.1101 67.3202C13.1101 66.5402 13.1101 65.7502 13.1101 64.9702C13.1601 61.9702 12.6401 62.4402 15.8101 62.1802C18.1501 61.9802 18.6901 62.9402 18.3701 64.9402C18.0501 66.9402 18.6701 67.8302 20.8401 67.5502C21.7601 67.4302 23.3101 67.0102 23.6001 67.8702C23.9081 69.3243 23.9454 70.8227 23.7101 72.2902C23.7101 72.9202 22.9401 72.7702 22.4701 72.7702C21.1801 72.8002 19.9001 72.7802 18.2701 72.7802Z" fill="#295680"/>
<path d="M50.4301 72.7803C49.5801 72.7803 48.7201 72.7803 47.8701 72.7803C44.7101 72.7803 45.3901 73.0603 45.1101 70.0503C44.9001 67.7303 45.8201 67.2103 47.8301 67.4903C49.6701 67.7503 51.0501 67.4903 50.6601 65.0303C50.5301 64.1803 50.0101 62.7203 51.1701 62.3903C52.5699 62.1498 54.0004 62.1498 55.4001 62.3903C56.0501 62.4503 55.8501 63.1803 55.8601 63.6403C55.8601 66.2703 55.8601 68.9003 55.8601 71.5303C55.8601 72.6103 55.4201 72.8703 54.4601 72.8303C53.1301 72.7503 51.7801 72.7803 50.4301 72.7803Z" fill="#295680"/>
<path d="M18.3601 51.49C18.3 52.4124 18.3 53.3377 18.3601 54.26C18.6401 56.26 18.0301 57.03 15.8801 56.86C13.0901 56.66 13.0801 56.86 13.0801 54C13.0801 51.87 13.0801 49.73 13.0801 47.6C13.0801 46.6 13.2701 46.12 14.4601 46.09C18.3601 45.96 18.3601 45.9 18.3601 49.79V51.49Z" fill="#295680"/>
<path d="M55.87 51.47V53.18C55.87 57.06 55.87 57 51.96 56.85C50.75 56.8 50.58 56.29 50.59 55.29C50.6367 52.7433 50.6367 50.1867 50.59 47.62C50.59 46.62 50.79 46.13 51.98 46.09C55.87 45.93 55.87 45.88 55.87 49.77V51.47Z" fill="#295680"/>
<path d="M34.68 30.17H37C39.71 30.17 39.57 30.17 39.75 32.92C39.89 34.92 39.32 35.68 37.22 35.48C35.0993 35.33 32.9707 35.33 30.85 35.48C29.53 35.54 29.14 35.09 29.18 33.8C29.31 29.36 28.71 30.3 32.75 30.19C33.41 30.15 34.05 30.17 34.68 30.17Z" fill="#295680"/>
<path d="M34.46 72.7803C33.6074 72.7302 32.7526 72.7302 31.9 72.7803C29.9 73.0603 29.1 72.4603 29.13 70.1903C29.16 67.9203 29.73 67.1903 31.95 67.4403C33.9299 67.6053 35.9201 67.6053 37.9 67.4403C39.45 67.3403 39.9 67.9403 39.74 69.3703C39.685 69.7215 39.685 70.0791 39.74 70.4303C40.05 72.2903 39.34 73.0403 37.43 72.7803C36.4412 72.7102 35.4487 72.7102 34.46 72.7803Z" fill="#295680"/>
</svg>
