<svg width="76" height="85" viewBox="0 0 76 85" fill="none" xmlns="http://www.w3.org/2000/svg">
<path d="M25.37 42.9996C25.24 44.2496 25.23 45.4996 25.17 46.7596C25.1531 50.7236 25.5282 54.6795 26.29 58.5696C26.48 59.5696 26.37 59.6696 25.39 59.3196C20.6406 57.6637 16.2024 55.2232 12.26 52.0996C11.37 51.3896 11.37 51.2196 12.17 50.3396C15.315 46.8708 18.9663 43.8972 23 41.5196C23.37 41.2996 23.74 40.9396 24.18 41.3696C24.62 41.7996 25.46 41.9996 25.37 42.9996Z" fill="#295680"/>
<path d="M9.71992 48.3401C8.99992 49.1101 8.53992 49.0001 8.22992 48.0001C8.01921 47.2845 7.89828 46.5455 7.86992 45.8001C7.44338 39.8013 8.83751 33.8135 11.8699 28.6201C12.0371 28.3099 12.2724 28.0416 12.5582 27.8355C12.844 27.6294 13.1728 27.4908 13.5199 27.4301C17.0597 26.6166 20.6897 26.2636 24.3199 26.3801C25.5399 26.3801 26.7599 26.3801 27.9799 26.3801C28.6199 26.3801 28.7599 26.7101 28.5599 27.3301C28.0399 28.9034 27.5499 30.4901 27.0899 32.0901C27.0419 32.3262 26.9296 32.5444 26.7655 32.7209C26.6015 32.8973 26.3919 33.025 26.1599 33.0901C25.242 33.3637 24.4265 33.9046 23.8174 34.6438C23.2082 35.383 22.8331 36.2868 22.7399 37.2401C22.7096 37.5093 22.6134 37.7669 22.46 37.9901C22.3065 38.2134 22.1004 38.3954 21.8599 38.5201C17.324 41.1375 13.2273 44.4512 9.71992 48.3401Z" fill="#295680"/>
<path d="M27.89 64.5999C28.6903 67.1883 29.7315 69.6959 31 72.0899C25.06 73.1499 11.41 61.6599 10 54.3799C10.83 54.9899 11.57 55.5599 12.33 56.0999C16.545 59.0811 21.2109 61.3668 26.15 62.8699C26.5722 62.9679 26.9588 63.1817 27.2662 63.4873C27.5736 63.7929 27.7896 64.1782 27.89 64.5999Z" fill="#295680"/>
<path d="M15.8098 23.7298C15.9036 23.3233 16.1462 22.9665 16.4898 22.7298C21.1492 18.058 27.2549 15.1039 33.8098 14.3498C34.1898 14.3498 34.6998 14.0898 34.9398 14.4998C35.1798 14.9098 34.6998 15.1698 34.4998 15.4998C32.976 17.719 31.6381 20.0603 30.4998 22.4998C30.4158 22.7917 30.2284 23.0431 29.9726 23.2069C29.7168 23.3707 29.4101 23.4357 29.1098 23.3898C24.8598 22.9994 20.578 23.1304 16.3598 23.7798C16.1755 23.7772 15.9916 23.7605 15.8098 23.7298Z" fill="#295680"/>
<path d="M40.4699 66.9999C39.0583 68.8211 37.5034 70.5266 35.8199 72.0999C35.2699 72.6299 34.9099 72.6099 34.5099 71.8999C33.3394 69.8057 32.3363 67.6222 31.5099 65.3699C31.3299 64.8699 31.2099 64.3699 32.0999 64.4499C33.9963 64.8448 35.9123 65.1386 37.8399 65.3299C38.5099 65.3999 39.1899 65.4099 39.8399 65.5099C40.7599 65.6099 40.9999 66.2299 40.4699 66.9999Z" fill="#295680"/>
<path d="M33.1499 27C37.4992 27.6927 41.7388 28.9535 45.7598 30.75C44.3198 30.97 42.8898 31.17 41.4598 31.42C38.2437 31.9621 35.0791 32.775 31.9999 33.85C31.4399 34.05 30.9198 34.22 30.3998 33.73C29.8798 33.24 30.1798 32.73 30.3198 32.23C30.7598 30.77 31.2499 29.33 31.6799 27.86C31.7085 27.7007 31.7713 27.5495 31.8639 27.4168C31.9566 27.2841 32.0769 27.173 32.2167 27.0913C32.3564 27.0095 32.5121 26.9591 32.6732 26.9433C32.8343 26.9276 32.997 26.9469 33.1499 27Z" fill="#295680"/>
<path d="M49.51 65.3999C52.4421 65.094 55.3515 64.5997 58.22 63.9199C55.42 68.1599 44.06 73.5199 39.79 72.6799L43.59 68.1799C43.82 67.9099 44.13 67.9499 44.44 67.9499C45.2223 67.975 45.9997 67.8182 46.7111 67.492C47.4225 67.1658 48.0486 66.679 48.54 66.0699C48.6453 65.8961 48.7862 65.7466 48.9533 65.6311C49.1205 65.5156 49.3102 65.4368 49.51 65.3999Z" fill="#295680"/>
<path d="M38.5699 62.2199C36.1199 61.8999 33.6799 61.5299 31.2499 61.0299C30.8665 60.9895 30.5083 60.8201 30.2339 60.5494C29.9596 60.2786 29.7854 59.9227 29.7399 59.5399C28.8506 55.6216 28.3912 51.6179 28.3699 47.5999C28.3699 46.0199 28.3699 44.7999 28.4999 43.5999C28.5017 43.347 28.5828 43.101 28.7316 42.8965C28.8805 42.692 29.0897 42.5394 29.3299 42.4599C30.2383 42.1509 31.0315 41.5734 31.6047 40.8038C32.1779 40.0342 32.504 39.1088 32.5399 38.1499C32.5436 37.7663 32.6817 37.3961 32.9302 37.1037C33.1787 36.8114 33.5218 36.6154 33.8999 36.5499C38.4712 35.0516 43.2044 34.1017 47.9999 33.7199C48.1117 33.6984 48.2267 33.6995 48.338 33.7233C48.4493 33.7471 48.5548 33.793 48.6481 33.8582C48.7413 33.9235 48.8205 34.0069 48.881 34.1034C48.9414 34.1999 48.9818 34.3075 48.9999 34.4199C49.1428 34.9687 49.3932 35.4838 49.7365 35.9352C50.0798 36.3866 50.5092 36.7655 50.9999 37.0499C51.3533 37.2303 51.6309 37.5307 51.7829 37.8972C51.935 38.2636 51.9517 38.6723 51.8299 39.0499C51.2523 43.7176 50.121 48.2998 48.4599 52.6999C47.8499 54.2799 47.1899 55.8399 46.4599 57.3699C46.3808 57.6261 46.2085 57.8432 45.9771 57.9784C45.7456 58.1136 45.4718 58.1569 45.2099 58.0999C44.1224 57.9606 43.02 58.1969 42.0852 58.7698C41.1504 59.3427 40.4394 60.2177 40.0699 61.2499C39.7699 61.9999 39.3899 62.3199 38.5699 62.2199Z" fill="#295680"/>
<path d="M33.8899 22.7398C35.2446 20.0813 36.8272 17.5451 38.6199 15.1598C38.8225 14.8486 39.1136 14.6051 39.4558 14.4607C39.798 14.3164 40.1755 14.2777 40.5399 14.3498C43.265 14.6932 45.934 15.389 48.4799 16.4198C48.7262 16.4916 48.9526 16.6192 49.1416 16.7926C49.3307 16.966 49.4772 17.1806 49.5699 17.4198C50.7361 20.6152 51.515 23.939 51.8899 27.3198C51.8899 28.7198 50.8899 29.3698 49.7799 28.8398C44.9296 26.5588 39.7982 24.9312 34.5199 23.9998C33.5599 23.8498 33.4999 23.5098 33.8899 22.7398Z" fill="#295680"/>
<path d="M53.8198 20.3696C53.7498 20.0896 53.5498 19.8096 53.7498 19.4796C54.1398 19.4096 54.3598 19.7096 54.6198 19.8996C58.4974 22.7639 61.6064 26.5428 63.6698 30.8996C63.7998 31.1596 64.0898 31.4596 63.8898 31.7396C63.6898 32.0196 63.3198 31.7396 63.0398 31.7396C62.3298 31.6296 61.6398 31.4296 60.9398 31.3396C59.4598 31.1296 57.9398 30.9796 57.1498 29.4396C57.0562 29.2951 56.9199 29.1832 56.7598 29.1196C55.2898 28.5896 54.9698 27.4296 54.8698 26.0196C54.6889 24.1088 54.3375 22.2179 53.8198 20.3696Z" fill="#295680"/>
<path d="M60.0899 34.3296L64.4399 35.3296C64.7761 35.3764 65.0878 35.5316 65.3278 35.7716C65.5679 36.0116 65.723 36.3234 65.7699 36.6596C66.1243 38.1195 66.3419 39.6093 66.4199 41.1096C64.2825 38.7069 61.9145 36.5197 59.3499 34.5796C59.5699 34.1296 59.8699 34.2796 60.0899 34.3296Z" fill="#295680"/>
<path d="M65.7999 45.3196C66.0327 45.6059 66.2014 45.9389 66.2945 46.296C66.3877 46.6531 66.4032 47.026 66.3399 47.3896C65.7954 51.4346 64.4346 55.3267 62.3399 58.8296C62.115 59.2483 61.7398 59.5663 61.2899 59.7196C57.9168 60.8321 54.4387 61.5961 50.9099 61.9996C50.5818 62.0216 50.2534 61.9595 49.9561 61.819C49.6587 61.6785 49.4022 61.4643 49.2109 61.1968C49.0195 60.9294 48.8997 60.6174 48.8628 60.2906C48.8259 59.9638 48.8731 59.633 48.9999 59.3296C50.8817 55.49 52.3693 51.4694 53.4399 47.3296C54.1932 44.4831 54.7149 41.5803 54.9999 38.6496C55.0899 37.6496 55.9199 37.4996 56.5299 37.0896C57.1399 36.6796 57.5299 37.0896 57.8799 37.4296C60.8472 39.7093 63.509 42.361 65.7999 45.3196Z" fill="#295680"/>
</svg>
