<svg width="64" height="72" viewBox="0 0 64 72" fill="none" xmlns="http://www.w3.org/2000/svg">
<path d="M31.6678 63.6755C22.8816 63.6755 14.0955 63.6755 5.31782 63.6755C4.46562 63.6755 4.20144 63.4789 4.22701 62.5986C4.29518 60.4533 4.22701 60.3935 6.3575 60.4704C7.30344 60.4704 7.46536 60.1712 7.46536 59.308C7.46536 51.9661 7.46536 44.6242 7.46536 37.2824C7.46536 34.7183 9.16975 32.8721 11.5218 32.8465C12.0611 32.8326 12.5976 32.928 13.0993 33.1268C13.6009 33.3256 14.0575 33.6238 14.4417 34.0035C14.826 34.3833 15.1299 34.8368 15.3354 35.337C15.5409 35.8372 15.6438 36.3738 15.6379 36.9148C15.6379 40.2225 15.6379 43.5388 15.6379 46.8465C15.6379 51.0687 15.6379 55.2824 15.6379 59.496C15.6379 60.1969 15.7572 60.5131 16.5413 60.4618C17.7251 60.402 18.9111 60.402 20.0949 60.4618C20.7511 60.4618 20.9471 60.2653 20.9471 59.6071C20.9471 56.4789 20.9471 53.3593 20.9471 50.2054C20.9471 44.1086 20.9471 38.0174 20.9471 31.9319C20.9307 31.0761 21.1816 30.2365 21.6647 29.5308C22.1478 28.8251 22.8389 28.2887 23.6412 27.9966C24.4434 27.7045 25.3167 27.6715 26.1387 27.902C26.9606 28.1326 27.6901 28.6152 28.2249 29.2824C28.8545 30.106 29.1744 31.1259 29.1282 32.1627C29.1282 41.1969 29.1282 50.2225 29.1282 59.2482C29.1282 60.1969 29.3413 60.5131 30.2957 60.4277C31.3539 60.3507 32.4162 60.3507 33.4744 60.4277C34.3266 60.4789 34.4374 60.1712 34.4289 59.4191C34.4289 52.7353 34.4289 46.0516 34.4289 39.3678C34.4125 38.7236 34.5481 38.0847 34.8244 37.503C35.1008 36.9212 35.5101 36.4131 36.0192 36.02C36.5283 35.6268 37.1227 35.3598 37.7541 35.2405C38.3855 35.1213 39.0361 35.1532 39.6528 35.3336C40.5423 35.5975 41.317 36.1544 41.852 36.9143C42.387 37.6742 42.6511 38.5928 42.6014 39.5217C42.6014 46.0516 42.6014 52.5815 42.6014 59.1114C42.6014 60.5986 42.431 60.3935 43.8883 60.4106C44.8512 60.4106 45.8227 60.3422 46.7772 60.4106C47.7317 60.4789 47.8936 60.1371 47.8851 59.2653C47.8339 55.1712 47.8851 51.0772 47.8851 46.9832C47.8851 39.9804 47.8851 32.9832 47.8851 25.9918C47.8603 25.1416 48.103 24.3052 48.5787 23.601C49.0544 22.8969 49.7389 22.3608 50.5354 22.0687C51.3003 21.7841 52.1325 21.7354 52.9252 21.9288C53.7179 22.1222 54.4348 22.5489 54.9839 23.1541C55.7434 24.0391 56.1313 25.1849 56.0662 26.3507C56.0662 37.251 56.0662 48.1541 56.0662 59.0601C56.0662 60.6071 55.9042 60.3764 57.4126 60.3935C59.2534 60.3935 59.2619 60.3935 59.2534 62.2567C59.2534 63.7952 59.4749 63.5986 57.9239 63.5986C49.1463 63.6613 40.3943 63.6869 31.6678 63.6755Z" fill="#295680"/>
<path d="M52.2484 7.05146C52.9639 7.09246 53.6535 7.33465 54.2383 7.75031C54.823 8.16597 55.2793 8.73833 55.5549 9.40189C55.9186 10.1035 56.0588 10.9001 55.9567 11.6842C55.8546 12.4683 55.5151 13.2021 54.9839 13.7865C54.503 14.4137 53.8387 14.8744 53.0839 15.1043C52.3291 15.3341 51.5215 15.3217 50.7741 15.0686C50.5255 14.9642 50.2498 14.9436 49.9886 15.0099C49.7273 15.0762 49.4946 15.2257 49.3253 15.4361C47.121 17.6811 44.8825 19.8948 42.61 22.0771C42.4336 22.2179 42.3081 22.4129 42.2527 22.6321C42.1973 22.8513 42.215 23.0827 42.3032 23.2908C42.5489 24.0526 42.5655 24.8701 42.3509 25.6413C42.1363 26.4124 41.7 27.1032 41.0965 27.6273C40.4931 28.1514 39.7491 28.4858 38.9574 28.5885C38.1657 28.6913 37.3613 28.558 36.6446 28.2053C35.9224 27.8922 35.3131 27.3647 34.8987 26.6939C34.4843 26.0231 34.2847 25.2412 34.3267 24.4532C34.3558 24.2277 34.3119 23.9988 34.2015 23.8002C34.091 23.6017 33.9197 23.4441 33.7131 23.3506C31.9235 22.4019 30.1594 21.4104 28.4039 20.4104C28.2354 20.2801 28.0286 20.2095 27.8159 20.2095C27.6031 20.2095 27.3963 20.2801 27.2279 20.4104C26.4748 20.9539 25.5544 21.2125 24.6294 21.1406C23.7045 21.0686 22.8348 20.6707 22.1743 20.0173C22.0482 19.8643 21.8728 19.7602 21.6784 19.7228C21.4841 19.6854 21.2828 19.7169 21.1091 19.8121C19.4899 20.4532 17.8537 21.0686 16.2175 21.6668C16.0252 21.7103 15.8539 21.8192 15.7327 21.975C15.6115 22.1308 15.5479 22.324 15.5528 22.5215C15.4712 23.4483 15.0715 24.3179 14.4218 24.9819C13.7722 25.6459 12.9129 26.0632 11.9906 26.1626C11.3104 26.2474 10.6199 26.1592 9.98272 25.9059C9.34552 25.6527 8.78217 25.2426 8.34461 24.7135C7.90705 24.1844 7.60938 23.5533 7.47903 22.8784C7.34869 22.2036 7.38988 21.5066 7.5988 20.852C7.80772 20.1973 8.17765 19.6059 8.67447 19.1323C9.17129 18.6587 9.779 18.3183 10.4416 18.1423C11.1041 17.9663 11.8002 17.9605 12.4656 18.1254C13.131 18.2902 13.7443 18.6205 14.2489 19.0856C14.3914 19.2448 14.583 19.3515 14.7931 19.3887C15.0032 19.4259 15.2196 19.3914 15.4079 19.2908C16.9987 18.6697 18.6008 18.0686 20.2143 17.4874C20.406 17.4403 20.5768 17.3309 20.7001 17.1763C20.8234 17.0217 20.8923 16.8306 20.896 16.6327C21.0066 15.5779 21.5219 14.6077 22.3328 13.927C23.1437 13.2464 24.1867 12.9086 25.2414 12.9852C26.296 13.0618 27.2797 13.5467 27.9843 14.3374C28.689 15.1281 29.0595 16.1627 29.0175 17.2224C28.9981 17.4178 29.0413 17.6144 29.1409 17.7835C29.2406 17.9525 29.3914 18.0853 29.5714 18.1626C31.4462 19.1597 33.2841 20.1711 35.0851 21.1968C35.23 21.3051 35.4081 21.3592 35.5886 21.3499C35.7691 21.3405 35.9407 21.2682 36.0737 21.1455C36.5852 20.7542 37.1874 20.4995 37.8238 20.4054C38.4603 20.3112 39.1101 20.3806 39.7125 20.607C39.9051 20.694 40.1214 20.7126 40.3259 20.6598C40.5304 20.607 40.7108 20.4859 40.8374 20.3164C43.11 18.0372 45.4166 15.758 47.7573 13.4788C47.9149 13.3391 48.0221 13.151 48.0621 12.9439C48.1022 12.7368 48.0729 12.5222 47.9789 12.3335C47.1778 9.62411 49.1378 7.02582 52.2484 7.05146Z" fill="#295680"/>
</svg>
