<svg width="57" height="71" viewBox="0 0 57 71" fill="none" xmlns="http://www.w3.org/2000/svg">
<path d="M28.2778 8.91741C33.1684 8.91741 38.059 8.91741 42.9496 8.91741C45.3313 8.90385 47.6448 9.70963 49.4994 11.1987C51.3541 12.6878 52.6364 14.769 53.1298 17.0909C53.3092 18.1049 53.378 19.1351 53.335 20.1638C53.335 29.5623 53.3483 38.9646 53.3749 48.3707C53.3922 49.7477 53.1351 51.1144 52.6185 52.3916C52.1018 53.6688 51.3359 54.8312 50.3651 55.8113C49.3943 56.7913 48.2379 57.5696 46.963 58.101C45.6882 58.6325 44.3201 58.9064 42.9382 58.9071C33.2938 58.9639 23.6513 58.9639 14.0107 58.9071C8.64125 58.8787 4.56005 55.6638 3.45995 50.654C3.31032 49.9064 3.24721 49.1441 3.27185 48.382C3.27185 38.7772 3.35165 29.1666 3.23195 19.556C3.21246 18.1429 3.47892 16.7403 4.01543 15.4321C4.55194 14.1238 5.3475 12.9367 6.3546 11.9416C7.3617 10.9466 8.5597 10.1639 9.87707 9.64039C11.1944 9.11688 12.6042 8.86327 14.0221 8.89469C18.7759 8.99125 23.5297 8.89469 28.2721 8.89469L28.2778 8.91741ZM52.1209 33.9492C52.1209 29.1439 52.1209 24.3386 52.1209 19.5333C52.1426 18.2945 51.9132 17.064 51.4464 15.9156C50.9796 14.7672 50.285 13.7244 49.4041 12.8499C48.5233 11.9753 47.4744 11.287 46.3203 10.826C45.1661 10.365 43.9305 10.1408 42.6874 10.167C33.0772 10.167 23.467 10.167 13.8568 10.167C12.6226 10.1464 11.3968 10.3728 10.2521 10.8329C9.10741 11.2931 8.06702 11.9775 7.19262 12.8456C6.31823 13.7138 5.62761 14.748 5.1617 15.887C4.69579 17.026 4.46406 18.2466 4.48025 19.4765C4.48025 29.1212 4.48025 38.7658 4.48025 48.4104C4.47723 49.6236 4.71524 50.8253 5.18058 51.9462C5.64592 53.0672 6.32937 54.0853 7.19151 54.9418C8.05365 55.7983 9.07742 56.4762 10.2038 56.9364C11.3301 57.3967 12.5368 57.6302 13.7542 57.6234C23.4328 57.6234 33.1133 57.6234 42.7957 57.6234C44.0214 57.6378 45.2377 57.4084 46.3733 56.9487C47.509 56.4889 48.5412 55.808 49.4096 54.9459C50.278 54.0837 50.965 53.0576 51.4306 51.9276C51.8961 50.7976 52.1308 49.5865 52.1209 48.365C52.1323 43.5597 52.1209 38.7544 52.1209 33.9492Z" fill="#295680"/>
<path d="M28.2893 56.4816C23.5697 56.4816 18.852 56.4816 14.1362 56.4816C9.08595 56.4816 5.64315 53.0736 5.63745 48.0184C5.63745 38.5783 5.63745 29.1419 5.63745 19.7093C5.63745 14.7677 9.12015 11.3086 14.102 11.3086C23.5373 11.3086 32.9728 11.3086 42.4082 11.3086C47.5382 11.3086 50.9582 14.7166 50.9582 19.8286V48.0355C50.9582 53.0168 47.5382 56.4703 42.5507 56.4816C37.8007 56.493 33.0469 56.493 28.2893 56.4816ZM13.4237 32.3757H13.3838C13.3838 33.6764 13.3838 34.9828 13.3838 36.2836C13.3838 39.7143 13.3933 43.145 13.4123 46.5757C13.4123 47.9616 13.4123 47.9616 14.7575 47.9673C15.584 47.9673 16.4162 47.9048 17.2313 47.9673C18.2687 48.0695 18.6164 47.7231 18.5993 46.6609C18.5423 43.4006 18.5993 40.146 18.5993 36.8856C18.5993 36.0223 18.89 35.7496 19.7393 35.7894C21.5576 35.8405 23.3873 35.8348 25.2113 35.7894C26.8023 35.8086 28.3667 35.3815 29.7257 34.5568C32.855 32.5291 34.0235 29.5641 33.9779 25.9573C33.9095 20.584 30.3413 16.9772 24.9605 16.9488C21.5405 16.9488 18.0749 16.9829 14.6378 16.9488C13.646 16.9488 13.418 17.2726 13.4237 18.1814C13.4408 22.8844 13.4237 27.6159 13.4237 32.3757ZM36.5885 45.0819C38.7203 45.0819 40.8577 45.0819 42.9896 45.0819C43.6735 45.0819 43.9985 44.9115 43.9928 44.1731C43.9643 42.1851 43.9928 40.1971 43.9928 38.2091C43.9928 37.2719 43.6108 36.8686 42.619 36.88C38.629 36.9178 34.6391 36.9178 30.6491 36.88C29.6687 36.88 29.2697 37.2605 29.281 38.2091C29.281 40.163 29.321 42.1169 29.281 44.0708C29.281 44.8092 29.4977 45.1046 30.2843 45.0876C32.3933 45.0478 34.4909 45.0819 36.5885 45.0819ZM36.5885 45.1614C34.4567 45.1614 32.3249 45.1273 30.1874 45.1614C29.3495 45.1614 29.1044 44.8944 29.1557 44.0936C29.2184 43.1052 29.1557 42.1056 29.1557 41.1116C29.1557 38.9248 29.1557 38.9248 26.9897 38.9475C24.5672 38.9475 23.1137 40.0835 22.595 42.452C22.3024 44.0253 22.2428 45.6328 22.4183 47.2232C22.4639 47.8594 22.6862 48.0014 23.2106 47.9503C23.4574 47.9029 23.7131 47.9465 23.9301 48.0729C24.1472 48.1993 24.3107 48.4 24.3905 48.6376C25.0403 49.9156 26.813 50.0008 27.3602 48.7341C27.839 47.6322 28.808 47.6322 29.5547 47.5981C31.8916 47.4618 34.2345 47.4618 36.5714 47.5981C37.3295 47.6379 38.2813 47.7401 38.6975 48.7739C38.8275 49.0604 39.0472 49.2971 39.3236 49.4487C39.6 49.6002 39.9183 49.6584 40.2308 49.6145C40.5596 49.6062 40.8788 49.5015 41.1484 49.3137C41.418 49.1258 41.6262 48.863 41.7469 48.558C41.8666 48.3081 41.821 47.8651 42.3169 47.99C42.8129 48.115 43.1606 47.7288 43.5254 47.5356C44.312 47.1153 43.9016 46.3258 43.9187 45.6953C43.9358 45.0648 43.3999 45.1784 43.0066 45.1784L36.5885 45.1614Z" fill="#295680"/>
<path d="M18.582 26.2811C18.582 25.0826 18.582 23.8785 18.582 22.68C18.582 22.0495 18.7359 21.7542 19.4484 21.7712C21.0957 21.8166 22.7544 21.7712 24.4017 21.7712C26.9895 21.8337 28.5684 23.4184 28.6425 25.9801C28.7223 28.7122 27.2745 30.5241 24.6867 30.6718C22.9026 30.791 21.1071 30.6718 19.3173 30.7172C18.7473 30.7172 18.6048 30.4559 18.6105 29.9618C18.6105 28.7292 18.6105 27.4966 18.6105 26.2584L18.582 26.2811Z" fill="#295680"/>
<path d="M25.9122 42.8893H24.8805C23.4327 42.8893 23.3586 42.77 24.0255 41.509C24.4277 40.8884 25.0107 40.405 25.6964 40.1238C26.382 39.8426 27.1375 39.777 27.8616 39.9357C27.9456 39.9498 28.0232 39.9897 28.0834 40.0497C28.1437 40.1098 28.1837 40.187 28.1979 40.2708C28.1979 40.3673 28.1979 40.4753 28.1979 40.5775C28.4316 42.8893 28.4316 42.8893 25.9122 42.8893Z" fill="#295680"/>
<path d="M25.9294 46.9849C26.4652 47.0871 26.83 47.3086 26.8186 47.9164C26.835 48.0377 26.8241 48.1611 26.7866 48.2776C26.7492 48.3942 26.6861 48.5009 26.602 48.5902C26.518 48.6794 26.415 48.7488 26.3006 48.7934C26.1862 48.838 26.0633 48.8566 25.9408 48.8479C25.8202 48.8502 25.7005 48.8269 25.5897 48.7795C25.4788 48.7321 25.3794 48.6618 25.298 48.5731C25.2165 48.4844 25.155 48.3795 25.1174 48.2653C25.0799 48.1511 25.0671 48.0302 25.0801 47.9107C25.0459 47.32 25.4335 47.0871 25.9294 46.9849Z" fill="#295680"/>
<path d="M40.1851 46.9849C40.7095 47.0701 41.0686 47.3086 41.0743 47.8993C41.0743 48.1343 40.9806 48.3597 40.8139 48.5259C40.6471 48.6921 40.421 48.7854 40.1851 48.7854C39.9493 48.7854 39.7231 48.6921 39.5564 48.5259C39.3896 48.3597 39.2959 48.1343 39.2959 47.8993C39.2788 47.3029 39.6835 47.1098 40.1851 46.9849Z" fill="#295680"/>
</svg>
