<svg width="72" height="81" viewBox="0 0 72 81" fill="none" xmlns="http://www.w3.org/2000/svg">
<path d="M11.0156 75.8172C10.3786 75.7148 9.8053 75.3705 9.41453 74.8557C9.14413 74.4987 8.99615 74.0636 8.99269 73.6153C8.99269 73.4806 8.99269 73.346 8.99269 73.221C8.99269 65.1121 8.99269 57.0063 8.99269 48.9037C8.93128 48.3526 9.06728 47.7976 9.37641 47.3378C9.68553 46.8781 10.1476 46.5436 10.68 46.3941C10.9233 46.3247 11.1749 46.2891 11.4278 46.2883H57.5999C58.1406 46.2676 58.672 46.4341 59.1049 46.7597C59.5378 47.0853 59.8459 47.5504 59.9775 48.0768C60.0252 48.2978 60.0445 48.524 60.035 48.7499V73.298C60.035 74.673 59.5077 75.3172 57.993 75.8172H11.0156ZM30.19 61.0576V57.3268C30.19 56.096 30.19 54.8749 30.19 53.6441C30.206 53.4288 30.1642 53.213 30.0691 53.0193C29.974 52.8256 29.829 52.6609 29.6491 52.5422C29.4692 52.4235 29.2609 52.3553 29.0459 52.3445C28.8308 52.3336 28.6168 52.3807 28.426 52.4807C28.1971 52.607 28.0111 52.7989 27.8915 53.0318C27.772 53.2648 27.7244 53.5282 27.7549 53.7883V68.2691C27.7404 68.4355 27.7404 68.6028 27.7549 68.7691C27.7856 68.9353 27.8517 69.0928 27.9488 69.2309C28.0458 69.3691 28.1715 69.4845 28.3171 69.5695C28.4628 69.6544 28.625 69.7067 28.7928 69.7229C28.9605 69.7391 29.1297 69.7188 29.2888 69.6633C29.549 69.5834 29.7742 69.417 29.9276 69.1915C30.0809 68.9661 30.1532 68.6951 30.1325 68.423C30.1613 65.971 30.1517 63.5095 30.1517 61.0576H30.19ZM38.8856 61.0576V62.1056C38.8856 64.221 38.8856 66.3364 38.8856 68.4422C38.8689 68.66 38.9108 68.8783 39.0069 69.0744C39.103 69.2704 39.2497 69.4371 39.4318 69.5569C39.614 69.6767 39.8248 69.7453 40.0424 69.7556C40.26 69.7659 40.4763 69.7174 40.6689 69.6153C40.8758 69.475 41.0381 69.2781 41.1367 69.048C41.2353 68.8179 41.2659 68.5642 41.2249 68.3172V53.846C41.2393 53.6797 41.2393 53.5124 41.2249 53.346C41.1689 53.035 40.992 52.7589 40.7331 52.5786C40.4742 52.3983 40.1546 52.3285 39.8444 52.3845C39.5569 52.4444 39.301 52.6073 39.1246 52.8426C38.9481 53.078 38.8632 53.3697 38.8856 53.6633C38.8377 56.1057 38.8473 58.5672 38.8473 61.0383L38.8856 61.0576ZM16.6816 61.0576C16.6816 63.3845 16.6816 65.7114 16.6816 68.0383C16.6526 68.3376 16.672 68.6396 16.7392 68.9326C16.8336 69.2052 17.0219 69.4351 17.2702 69.5808C17.5186 69.7266 17.8106 69.7786 18.0938 69.7276C18.3771 69.6766 18.6328 69.5259 18.8151 69.3026C18.9973 69.0793 19.0941 68.798 19.088 68.5095V53.6826C19.1024 53.49 19.0718 53.2967 18.9986 53.1181C18.9253 52.9394 18.8115 52.7804 18.6662 52.6537C18.4955 52.497 18.2825 52.3941 18.0539 52.3579C17.8253 52.3218 17.5911 52.3538 17.3805 52.4502C17.1699 52.5466 16.9923 52.703 16.8697 52.8999C16.7472 53.0968 16.6851 53.3255 16.6912 53.5576L16.6816 61.0576ZM52.4036 61.0576V53.5672C52.4101 53.4071 52.3841 53.2473 52.3272 53.0976C52.2702 52.9478 52.1835 52.8113 52.0723 52.6962C51.9612 52.5811 51.8278 52.4898 51.6804 52.428C51.533 52.3661 51.3746 52.335 51.2148 52.3364C51.0549 52.3377 50.8968 52.3705 50.7496 52.433C50.6023 52.4956 50.4688 52.5866 50.3566 52.7009C50.2445 52.8152 50.1558 52.9505 50.0958 53.0991C50.0358 53.2478 50.0055 53.4068 50.0068 53.5672V55.1633C50.0068 59.5864 50.0068 63.9999 50.0068 68.423C49.992 68.6165 50.0234 68.8108 50.0985 68.9897C50.1735 69.1686 50.29 69.327 50.4382 69.4518C50.6141 69.6111 50.8351 69.7115 51.0705 69.739C51.3058 69.7666 51.5439 69.72 51.7517 69.6057C51.9551 69.5119 52.1259 69.3592 52.2421 69.1673C52.3582 68.9754 52.4145 68.753 52.4036 68.5287V61.0576Z" fill="#295680"/>
<path d="M51.7038 4.8078C52.1 4.89641 52.4906 5.00879 52.8734 5.14434C53.6409 5.50149 54.2727 6.09802 54.6743 6.84489C55.0759 7.59175 55.2259 8.44887 55.1019 9.28827C54.9779 10.1277 54.5865 10.9043 53.9861 11.5023C53.3858 12.1002 52.6087 12.4873 51.7709 12.6059C50.7969 12.7091 49.8191 12.4483 49.0248 11.8734C48.2305 11.2986 47.6756 10.4501 47.4662 9.4905C47.2683 8.48347 47.4688 7.43873 48.0253 6.57733C48.5818 5.71593 49.4506 5.10547 50.4479 4.87511C50.5917 4.87511 50.7451 4.87511 50.8697 4.78857L51.7038 4.8078ZM51.2628 10.6732C51.5186 10.6796 51.7731 10.6346 52.0113 10.5408C52.2495 10.4471 52.4666 10.3064 52.6497 10.1272C52.8329 9.948 52.9784 9.73383 53.0778 9.49732C53.1771 9.26081 53.2282 9.00675 53.2282 8.75011C53.2309 8.23296 53.0318 7.73525 52.6735 7.36334C52.3153 6.99142 51.8261 6.77478 51.3107 6.75973C50.8097 6.78314 50.3354 6.99326 49.9808 7.34896C49.6261 7.70466 49.4166 8.18032 49.3933 8.6828C49.3869 8.93537 49.4302 9.18671 49.5207 9.42248C49.6112 9.65825 49.7472 9.87382 49.9208 10.0569C50.0944 10.2399 50.3023 10.3869 50.5326 10.4893C50.7628 10.5918 51.011 10.6477 51.2628 10.654V10.6732Z" fill="#295680"/>
<path d="M31.8582 37.0768C30.9721 36.4231 30.3576 35.4644 30.1325 34.3845C30.0364 34.0342 30.0071 33.6688 30.0462 33.3076C30.1018 33.0208 30.2603 32.7645 30.4918 32.5873C30.7234 32.41 31.0117 32.3242 31.3021 32.346C31.6039 32.3726 31.8847 32.5118 32.0889 32.7362C32.2931 32.9606 32.4058 33.2538 32.4047 33.5576C32.4033 34.0442 32.5756 34.5152 32.8903 34.8855C33.2051 35.2559 33.6415 35.5011 34.1208 35.5768C34.5839 35.6761 35.0671 35.6116 35.4882 35.3943C35.9094 35.1769 36.2426 34.8202 36.4313 34.3845C36.6263 33.9748 36.684 33.5128 36.5959 33.0675C36.5078 32.6222 36.2786 32.2173 35.9423 31.9133C35.6468 31.6658 35.2995 31.4883 34.9261 31.3941C34.4829 31.3082 34.0842 31.0682 33.8001 30.7164C33.516 30.3647 33.3648 29.9237 33.373 29.471C33.373 28.6633 33.373 27.8556 33.373 27.048C33.373 26.8749 33.373 26.7787 33.6126 26.8268C34.2263 26.9519 34.8589 26.9519 35.4726 26.8268C35.6835 26.8268 35.7218 26.8268 35.7218 27.0287C35.7218 27.6441 35.7218 28.2595 35.7218 28.8749C35.7218 29.048 35.7218 29.1537 35.9328 29.221C36.6823 29.4736 37.3514 29.9216 37.8714 30.519C38.3914 31.1164 38.7437 31.8418 38.892 32.6208C39.0403 33.3997 38.9793 34.2043 38.7154 34.9518C38.4515 35.6994 37.994 36.3631 37.39 36.8749C37.3229 36.9326 37.2174 36.9614 37.1983 37.0864L50.6204 41.673C52.0105 42.1441 53.4007 42.6345 54.7908 43.0864C55.1168 43.1922 55.1935 43.3076 55.0401 43.6249C54.9101 43.8974 54.8135 44.1848 54.7525 44.4806C54.7525 44.721 54.5895 44.7114 54.4073 44.6441L48.4057 42.596L36.4313 38.4614L35.0699 38.0095C34.7319 37.8892 34.3629 37.8892 34.0249 38.0095L22.7887 41.8556L14.6587 44.6153C14.4286 44.7018 14.2752 44.721 14.2081 44.4133C14.1337 44.1107 14.0342 43.8148 13.9109 43.5287C13.8246 43.3076 13.8438 43.2018 14.1027 43.1249C15.3873 42.7018 16.6624 42.2595 17.9375 41.8268L30.5639 37.4999L31.8582 37.0768Z" fill="#295680"/>
<path d="M55.8742 11.7021L58.319 15.1445C60.3994 18.1156 62.5182 21.0964 64.6369 24.0387C64.8095 24.2887 64.752 24.3752 64.5219 24.5195C63.5632 25.0868 62.6715 25.6637 61.7608 26.2695C61.5403 26.4041 61.454 26.3752 61.3198 26.1829L54.858 17.0675L52.8447 14.1829C52.768 14.0771 52.6337 13.981 52.8447 13.9041C54.0785 13.5445 55.1494 12.7662 55.8742 11.7021Z" fill="#295680"/>
<path d="M39.6814 19.6541C39.2447 18.4095 38.3863 17.358 37.2559 16.683L46.1049 10.5195C46.5596 11.7987 47.4626 12.8683 48.6455 13.5291L39.6814 19.6541Z" fill="#295680"/>
<path d="M34.5139 17.5388C35.2872 17.5446 36.0413 17.7808 36.6806 18.2173C37.3198 18.6538 37.8153 19.271 38.1041 19.9905C38.393 20.71 38.4621 21.4994 38.3028 22.2583C38.1435 23.0173 37.7629 23.7117 37.2094 24.2533C36.6558 24.795 35.9543 25.1594 35.1938 25.3004C34.4334 25.4414 33.6483 25.3526 32.9382 25.0452C32.2282 24.7379 31.6253 24.2258 31.2059 23.5741C30.7866 22.9224 30.5698 22.1605 30.5831 21.385C30.5829 20.8717 30.6852 20.3636 30.8839 19.8905C31.0826 19.4175 31.3737 18.9892 31.74 18.6307C32.1063 18.2723 32.5405 17.991 33.0168 17.8035C33.4932 17.616 34.0022 17.526 34.5139 17.5388ZM32.5964 21.4426C32.5966 21.8205 32.7077 22.1899 32.916 22.5048C33.1242 22.8197 33.4204 23.0661 33.7674 23.2132C34.1144 23.3603 34.497 23.4016 34.8673 23.3319C35.2376 23.2623 35.5792 23.0848 35.8495 22.8215C36.1198 22.5583 36.3068 22.2211 36.3872 21.8519C36.4675 21.4828 36.4377 21.0981 36.3013 20.7458C36.165 20.3936 35.9282 20.0894 35.6205 19.8713C35.3129 19.6533 34.948 19.5309 34.5714 19.5196C34.3148 19.5118 34.0592 19.5559 33.8199 19.6491C33.5806 19.7422 33.3624 19.8827 33.1782 20.062C32.994 20.2414 32.8476 20.456 32.7477 20.6931C32.6477 20.9303 32.5963 21.1852 32.5964 21.4426Z" fill="#295680"/>
</svg>
