<svg width="53" height="59" viewBox="0 0 53 59" fill="none" xmlns="http://www.w3.org/2000/svg">
<path d="M4.06503 36.0402C4.06503 30.4684 4.07223 24.8966 4.05542 19.3248C4.05542 18.7477 4.26678 18.3929 4.74595 18.0871C11.7449 13.6215 18.7358 9.14557 25.7187 4.65928C26.3192 4.2746 26.7827 4.27938 27.3772 4.65928C34.3449 9.14398 41.3238 13.6132 48.314 18.0668C48.8231 18.3917 49.0345 18.7633 49.0345 19.3725C49.0201 30.4875 49.0165 41.6025 49.0237 52.7175C49.0237 53.6732 48.7775 53.9217 47.8228 53.9229H44.4338C43.6052 53.9229 43.3169 53.6374 43.3158 52.8011C43.3158 50.4381 43.3158 48.0747 43.3158 45.7109C43.3158 39.5203 43.3158 33.3292 43.3158 27.1377C43.3158 26.8857 43.3386 26.6288 43.2521 26.3851C43.0984 25.9538 42.7273 25.7173 42.1833 25.7161C40.2738 25.7113 38.3644 25.7113 36.4549 25.7161H11.2501C10.2473 25.7161 9.91349 26.053 9.91349 27.0649C9.91349 35.6345 9.91349 44.2033 9.91349 52.7713C9.91349 53.6637 9.65409 53.9205 8.7474 53.9229H5.17467C4.33403 53.9229 4.06503 53.6434 4.06503 52.7976V36.0402Z" fill="#295680"/>
<path d="M36.5558 45.5162C37.4037 45.5162 38.2515 45.5162 39.0994 45.5162C40.0793 45.5234 40.747 46.1338 40.7602 47.1051C40.7843 48.8485 40.7843 50.5911 40.7602 52.3329C40.7482 53.3029 40.0817 53.9265 39.1066 53.9313C37.3837 53.9385 35.6624 53.9385 33.9426 53.9313C32.9627 53.9313 32.3178 53.2922 32.313 52.3221C32.3042 50.5938 32.3042 48.8656 32.313 47.1373C32.313 46.1649 32.9591 45.527 33.933 45.5174C34.8049 45.5043 35.6804 45.5162 36.5558 45.5162Z" fill="#295680"/>
<path d="M30.7915 49.7616C30.7915 50.605 30.7915 51.4472 30.7915 52.2906C30.7831 53.2846 30.1418 53.9237 29.1427 53.9273C27.419 53.9345 25.6953 53.9345 23.9715 53.9273C23.0108 53.9273 22.3407 53.2762 22.3347 52.3157C22.3227 50.5867 22.3227 48.858 22.3347 47.1298C22.3347 46.174 23.0048 45.5158 23.9691 45.5122C25.7057 45.505 27.443 45.505 29.1811 45.5122C30.1286 45.5122 30.7795 46.1645 30.7915 47.1035C30.7999 47.9899 30.7915 48.8763 30.7915 49.7616Z" fill="#295680"/>
<path d="M12.3693 49.7223C12.3693 48.8657 12.3621 48.008 12.3693 47.1514C12.3789 46.1575 13.0238 45.5172 14.0206 45.5136C15.7299 45.5072 17.4392 45.5072 19.1485 45.5136C20.1693 45.5136 20.8298 46.1623 20.8298 47.1705C20.8354 48.8709 20.8354 50.5713 20.8298 52.2717C20.8298 53.2835 20.1741 53.9263 19.1485 53.9298C17.4384 53.9346 15.7291 53.9346 14.0206 53.9298C13.0178 53.9298 12.3753 53.2907 12.3657 52.2956C12.3693 51.4378 12.3693 50.5801 12.3693 49.7223Z" fill="#295680"/>
<path d="M25.78 39.7445C25.78 40.6023 25.7861 41.4601 25.78 42.3166C25.7704 43.3082 25.1268 43.9509 24.1276 43.9545C22.4047 43.9616 20.6834 43.9616 18.9637 43.9545C17.9933 43.9545 17.334 43.3058 17.328 42.3405C17.3184 40.6123 17.3184 38.884 17.328 37.1557C17.334 36.1905 17.9885 35.5489 18.9637 35.5442C20.6874 35.5354 22.4087 35.5354 24.1276 35.5442C25.134 35.5442 25.7692 36.1809 25.78 37.1784C25.7873 38.0302 25.78 38.888 25.78 39.7445Z" fill="#295680"/>
<path d="M35.7309 39.7974C35.7309 40.6551 35.7393 41.5141 35.7309 42.3719C35.7201 43.2834 35.1184 43.9309 34.1997 43.944C32.3984 43.9703 30.6066 43.9679 28.8112 43.944C28.6149 43.9467 28.42 43.9107 28.2378 43.8381C28.0555 43.7655 27.8895 43.6578 27.7493 43.5211C27.6091 43.3844 27.4974 43.2214 27.4208 43.0416C27.3442 42.8618 27.3041 42.6687 27.3029 42.4734C27.274 40.6583 27.274 38.8437 27.3029 37.0294C27.3161 36.1489 27.9802 35.5433 28.8761 35.5373C30.6294 35.5253 32.3831 35.5253 34.1373 35.5373C35.092 35.5433 35.7237 36.1752 35.7417 37.1333C35.7573 38.0198 35.7417 38.9062 35.7417 39.7926L35.7309 39.7974Z" fill="#295680"/>
</svg>
