<svg width="76" height="85" viewBox="0 0 76 85" fill="none" xmlns="http://www.w3.org/2000/svg">
<path d="M29.9099 21.4902C28.9599 20.8702 28.0399 19.4902 26.8599 20.7302C25.6799 21.9702 27.2799 22.6602 27.8599 23.5202C27.9399 23.6302 27.8599 23.8102 27.9299 24.1102H14.9999C14.9299 23.4202 15.3199 23.2202 15.5899 22.9502C16.2499 22.3102 16.9399 21.6002 16.1199 20.7102C15.2999 19.8202 14.3699 20.4002 13.6099 21.0302C12.5099 21.9602 11.4599 22.9602 10.3199 23.8402C9.83883 24.2059 9.45814 24.6875 9.21334 25.2401C8.96855 25.7926 8.86761 26.3981 8.91994 27.0002C8.91994 32.6102 8.97994 38.2102 8.91994 43.8202C8.91994 45.6702 9.64994 46.3902 11.4999 46.3802C18.1666 46.3202 24.8133 46.3202 31.4399 46.3802C33.2799 46.3802 34.0199 45.6802 33.9899 43.8102C33.7682 39.2522 33.7915 34.6857 34.0599 30.1302C34.3347 28.4385 34.0842 26.7032 33.3422 25.1583C32.6001 23.6134 31.4022 22.3331 29.9099 21.4902ZM11.7699 28.9102C11.7699 27.6102 12.1299 27.0302 13.5299 27.0502C18.8099 27.0969 24.0933 27.0969 29.3799 27.0502C30.7799 27.0502 31.1599 27.6002 31.1499 28.9002C31.1499 33.1502 31.0799 37.3902 31.1499 41.6302C31.1499 43.1702 30.5299 43.5502 29.1499 43.5202C26.5099 43.4502 23.8699 43.5202 21.2299 43.5202C18.7499 43.5202 16.2299 43.5202 13.7799 43.5202C12.3999 43.5202 11.7799 43.1702 11.7799 41.6402C11.8399 37.4002 11.8199 33.1502 11.7699 28.9102Z" fill="#295680"/>
<path d="M33.9999 54.3403C33.9999 52.5003 33.3299 51.7103 31.4799 51.7203C24.7599 51.7203 18.0399 51.7203 11.3199 51.7203C9.57989 51.7203 8.91989 52.5103 8.93989 54.2203C8.99323 59.9003 8.99323 65.567 8.93989 71.2203C8.93989 73.0403 9.58989 73.8403 11.4699 73.8003C14.8299 73.7103 18.1899 73.8003 21.5499 73.8003C24.7499 73.8003 27.9499 73.7203 31.1499 73.8003C33.1499 73.8703 34.0399 73.2403 33.9999 71.0803C33.8899 65.5303 33.9199 59.9303 33.9999 54.3403ZM11.7799 56.3403C11.7799 54.9403 12.3999 54.5603 13.6799 54.5703C18.8899 54.5703 24.0899 54.6203 29.2899 54.5703C30.5999 54.5703 31.1699 54.9903 31.1499 56.3703C31.0999 60.6903 31.0899 65.0203 31.1499 69.3703C31.1499 70.8203 30.5099 71.1103 29.2499 71.0803C26.6099 71.0003 23.9999 71.0003 21.3299 71.0003C18.6599 71.0003 16.1999 71.0003 13.6399 71.0003C12.3599 71.0003 11.7499 70.6903 11.7699 69.2603C11.8399 65.0003 11.8199 60.6303 11.7699 56.3103L11.7799 56.3403Z" fill="#295680"/>
<path d="M22.8499 12.0001C22.8499 12.8201 23.1199 14.3401 21.0999 14.7701C20.9405 14.8024 20.7895 14.8674 20.6564 14.9609C20.5233 15.0544 20.411 15.1744 20.3265 15.3134C20.2419 15.4524 20.1871 15.6073 20.1653 15.7685C20.1435 15.9297 20.1553 16.0937 20.1999 16.2501C20.2588 16.5253 20.4055 16.7739 20.6178 16.9586C20.8301 17.1434 21.0967 17.2542 21.3774 17.2745C21.6581 17.2948 21.9378 17.2234 22.1745 17.0712C22.4111 16.9189 22.592 16.6939 22.6899 16.4301C23.1099 15.3201 23.5499 14.0201 24.9799 15.0301C26.2199 15.9101 25.5399 17.2301 24.8999 18.2601C24.5902 18.7277 24.1879 19.1269 23.7177 19.4328C23.2476 19.7388 22.7197 19.945 22.1666 20.0387C21.6136 20.1325 21.0472 20.1117 20.5025 19.9778C19.9578 19.8439 19.4464 19.5996 18.9999 19.2601C18.5326 18.913 18.1455 18.4695 17.8646 17.9597C17.5838 17.4498 17.4159 16.8856 17.3723 16.3051C17.3286 15.7247 17.4103 15.1417 17.6118 14.5956C17.8132 14.0495 18.1298 13.5531 18.5399 13.1401C19.4299 12.2701 20.2299 11.5701 20.0699 10.1401C19.9499 9.14008 20.0699 7.83008 21.4699 7.83008C22.8699 7.83008 22.8099 9.12008 22.8499 10.1501C22.8599 10.5901 22.8499 11.0001 22.8499 12.0001Z" fill="#295680"/>
<path d="M31.83 26.2301L10.74 26.1401L10.23 45.0001L32.08 44.9101L31.83 26.2301ZM27 39.3001C27 39.6555 26.8588 39.9964 26.6075 40.2477C26.3562 40.499 26.0154 40.6401 25.66 40.6401C25.3046 40.6401 24.9638 40.499 24.7125 40.2477C24.4612 39.9964 24.32 39.6555 24.32 39.3001C24.32 37.9501 24.32 36.5901 24.32 35.2401C24.32 34.0501 24.32 32.8601 24.32 31.6601C24.32 30.7901 24.6 30.0301 25.6 29.9601C26.6 29.8901 27 30.5501 27 31.4301C27 34.0501 27 36.6701 27 39.3001ZM18.78 35.1401C18.78 36.5001 18.78 37.8601 18.78 39.2101C18.78 39.9901 18.4 40.6301 17.49 40.6601C16.58 40.6901 16 40.0001 16 39.1301C16 36.5701 16 34.0101 16 31.4501C16 30.5301 16.38 29.8801 17.4 29.9001C18.42 29.9201 18.72 30.6901 18.75 31.5401C18.77 32.7401 18.74 33.9401 18.74 35.1401H18.78Z" fill="#295680"/>
<path d="M32.0799 53.7502L10.9099 53.4902L10.3999 71.3602L11.9999 72.0002L32.4999 72.2502L32.0799 53.7502ZM26.9999 66.8402C27.0143 67.023 26.9896 67.2068 26.9275 67.3793C26.8653 67.5518 26.767 67.709 26.6393 67.8406C26.5115 67.9721 26.3572 68.0749 26.1866 68.1421C26.016 68.2093 25.833 68.2393 25.6499 68.2302C25.467 68.2319 25.2858 68.196 25.1173 68.125C24.9488 68.0539 24.7966 67.9491 24.6702 67.817C24.5437 67.6849 24.4456 67.5283 24.3819 67.3569C24.3183 67.1855 24.2903 67.0028 24.2999 66.8202C24.2399 65.3902 24.2999 63.9502 24.2999 62.5202C24.2999 61.3202 24.2999 60.1302 24.2999 58.9302C24.2999 58.1402 24.6899 57.4802 25.5499 57.4302C26.4099 57.3802 26.9999 58.0702 26.9999 59.0002C27.0399 61.6002 27.0399 64.2136 26.9999 66.8402ZM18.7199 66.7802C18.7371 66.9829 18.7083 67.1868 18.6356 67.3768C18.5629 67.5667 18.4483 67.7378 18.3002 67.8772C18.1521 68.0167 17.9744 68.1208 17.7804 68.182C17.5865 68.2431 17.3812 68.2596 17.1799 68.2302C16.3299 68.1502 15.9999 67.5002 15.9999 66.6902C15.9999 64.1302 15.9999 61.5702 15.9999 59.0102C15.9999 58.1002 16.3899 57.4102 17.3999 57.4302C18.4099 57.4502 18.6899 58.2502 18.7199 59.1002C18.7199 60.3802 18.7199 61.6602 18.7199 62.9402C18.7199 64.2202 18.7699 65.5002 18.6999 66.7802H18.7199Z" fill="#295680"/>
<path d="M58.1599 55.3303C52.2299 55.3903 46.3099 55.3803 40.3699 55.3303C39.0199 55.3303 38.4199 55.7603 38.4299 57.1803C38.4699 62.1203 38.4699 67.0569 38.4299 71.9903C38.4299 73.4203 38.9899 73.8803 40.3499 73.8503C43.3499 73.7903 46.2699 73.8503 49.2399 73.8503C52.2099 73.8503 55.1699 73.8503 58.1399 73.8503C59.5499 73.8503 60.2599 73.5203 60.2399 71.8503C60.1599 67.0103 60.1699 62.1503 60.2399 57.3003C60.2499 55.8003 59.6399 55.3203 58.1599 55.3303ZM46.2099 64.7903C46.2099 66.1303 46.2099 67.4703 46.2099 68.7903C46.2099 69.7903 45.8099 70.6103 44.7299 70.6803C44.5042 70.7044 44.276 70.6774 44.0623 70.6012C43.8485 70.525 43.6547 70.4016 43.4952 70.2401C43.3357 70.0787 43.2146 69.8834 43.141 69.6688C43.0673 69.4541 43.043 69.2256 43.0699 69.0003C43.0699 66.0403 43.0699 63.0903 43.0699 60.1503C43.046 59.9464 43.0653 59.7398 43.1266 59.544C43.1879 59.3481 43.2899 59.1674 43.4257 59.0136C43.5616 58.8598 43.7284 58.7363 43.9152 58.6513C44.102 58.5663 44.3046 58.5217 44.5099 58.5203C44.7351 58.498 44.9625 58.5264 45.1753 58.6033C45.3882 58.6801 45.5812 58.8036 45.7403 58.9646C45.8994 59.1256 46.0205 59.32 46.0948 59.5338C46.1691 59.7476 46.1948 59.9753 46.1699 60.2003C46.2399 61.7503 46.1999 63.2703 46.2099 64.7903ZM55.4799 68.9303C55.4799 69.9303 55.0099 70.7103 53.8999 70.6903C53.6932 70.6895 53.4889 70.6461 53.2998 70.5627C53.1107 70.4794 52.9409 70.3578 52.801 70.2057C52.6611 70.0536 52.5542 69.8742 52.4868 69.6788C52.4195 69.4834 52.3933 69.2763 52.4099 69.0703C52.4099 66.0703 52.4099 63.1603 52.4099 60.2003C52.3949 59.9949 52.4218 59.7887 52.489 59.5941C52.5561 59.3994 52.6621 59.2205 52.8005 59.0681C52.9389 58.9156 53.1068 58.7929 53.2941 58.7073C53.4813 58.6218 53.684 58.5751 53.8899 58.5703C55.0299 58.5703 55.4499 59.3203 55.4799 60.3103C55.4799 61.7503 55.4799 63.1803 55.4799 64.6203C55.4799 66.0603 55.5199 67.4903 55.4799 68.9303ZM58.2699 33.7103C52.3299 33.7703 46.3899 33.7703 40.4499 33.7103C38.9299 33.7103 38.3899 34.2403 38.4499 35.7103C38.5099 40.4803 38.5399 45.2403 38.4499 50.0103C38.4499 51.7303 39.0899 52.1703 40.6699 52.1103C43.5499 52.0103 46.4299 52.1103 49.3099 52.1103C52.1899 52.1103 55.2499 52.0503 58.2199 52.1103C59.7299 52.1103 60.2799 51.6303 60.2699 50.1103C60.1999 45.3403 60.2099 40.5703 60.2699 35.8103C60.2499 34.4003 59.8599 33.7003 58.2699 33.7103ZM46.1699 47.4503C46.178 47.6526 46.1449 47.8545 46.0724 48.0436C45.9999 48.2327 45.8897 48.4051 45.7483 48.5501C45.607 48.6952 45.4376 48.8099 45.2505 48.8873C45.0633 48.9647 44.8624 49.0031 44.6599 49.0003C44.4561 49.0159 44.2514 48.9883 44.059 48.9193C43.8667 48.8503 43.6911 48.7414 43.5438 48.5997C43.3965 48.4581 43.2808 48.2869 43.2043 48.0974C43.1278 47.908 43.0922 47.7045 43.0999 47.5003C43.0399 44.5003 43.0399 41.5603 43.0999 38.5803C43.0731 38.3523 43.098 38.1212 43.1726 37.9042C43.2473 37.6871 43.3698 37.4896 43.5312 37.3264C43.6925 37.1631 43.8885 37.0382 44.1047 36.961C44.3208 36.8838 44.5516 36.8562 44.7799 36.8803C44.9846 36.8901 45.1852 36.9415 45.3695 37.0314C45.5537 37.1212 45.7178 37.2477 45.8515 37.403C45.9853 37.5583 46.0861 37.7392 46.1477 37.9348C46.2093 38.1303 46.2305 38.3363 46.2099 38.5403C46.2099 40.0803 46.2099 41.6003 46.2099 43.1303C46.2099 44.6603 46.2299 46.0003 46.1699 47.4503ZM55.4799 47.2403C55.4799 48.2403 55.0099 49.0003 53.8899 48.9903C53.6841 48.994 53.4798 48.9543 53.2905 48.8735C53.1012 48.7928 52.9311 48.673 52.7913 48.5219C52.6516 48.3708 52.5453 48.1919 52.4796 47.9969C52.4139 47.8018 52.3901 47.5951 52.4099 47.3903C52.4099 44.3903 52.4099 41.4703 52.4099 38.5103C52.3888 38.3076 52.4106 38.1028 52.474 37.9092C52.5374 37.7156 52.6408 37.5375 52.7776 37.3865C52.9145 37.2356 53.0815 37.1151 53.268 37.0331C53.4545 36.951 53.6561 36.9092 53.8599 36.9103C55.0199 36.9103 55.4399 37.6403 55.4699 38.6403C55.5199 40.0603 55.4699 41.5003 55.4699 42.9303C55.4699 44.3603 55.5199 45.8103 55.4799 47.2403ZM40.3299 30.5503C46.3299 30.5503 52.3599 30.5503 58.4199 30.5503C59.8899 30.5503 60.2399 29.8503 60.2299 28.5503C60.2299 23.7003 60.1699 18.8403 60.2299 13.9803C60.2299 12.4303 59.6499 11.9203 58.1699 11.9803C55.2899 12.0603 52.3999 11.9803 49.5199 11.9803C46.4699 11.9803 43.4099 11.9803 40.3499 11.9803C38.9899 11.9803 38.3499 12.4003 38.4099 13.8203C38.4499 18.7669 38.4499 23.7136 38.4099 28.6603C38.3899 30.0603 38.9999 30.5603 40.3299 30.5503ZM52.4099 16.8603C52.3904 16.6566 52.4136 16.4512 52.4781 16.257C52.5425 16.0629 52.6468 15.8843 52.7842 15.7328C52.9217 15.5812 53.0892 15.46 53.2761 15.377C53.4631 15.2939 53.6653 15.2507 53.8699 15.2503C54.9899 15.2503 55.4599 15.9503 55.4799 16.9603C55.4799 18.4003 55.4799 19.8303 55.4799 21.2603C55.4799 22.6903 55.4799 24.1203 55.4799 25.5503C55.4799 26.5503 55.0399 27.3403 53.9099 27.3003C53.705 27.2993 53.5025 27.2565 53.3149 27.1743C53.1272 27.0922 52.9584 26.9724 52.8188 26.8225C52.6792 26.6726 52.5718 26.4957 52.5032 26.3027C52.4346 26.1097 52.4062 25.9046 52.4199 25.7003C52.3699 22.7503 52.3799 19.8003 52.4099 16.8603ZM43.0699 16.9203C43.0699 15.9203 43.5899 15.1503 44.7099 15.2103C45.8299 15.2703 46.1999 16.0703 46.2099 17.0703V21.4003C46.2099 22.7503 46.2099 24.1003 46.2099 25.4503C46.2099 26.4503 45.7899 27.2603 44.6899 27.3203C43.5899 27.3803 43.0899 26.5503 43.0799 25.5603C42.9999 22.6803 42.9999 19.8003 43.0699 16.9203Z" fill="#295680"/>
</svg>
