<svg width="49" height="49" viewBox="0 0 49 49" fill="none" xmlns="http://www.w3.org/2000/svg">
<path fill-rule="evenodd" clip-rule="evenodd" d="M6.42815 2.93994C4.51225 2.93994 2.93994 4.51877 2.93994 6.43565V19.1467C2.93994 21.0636 4.51225 22.6424 6.42815 22.6424H19.1014C21.0173 22.6424 22.5896 21.0636 22.5896 19.1467V6.43565C22.5896 4.51879 21.0173 2.93994 19.1014 2.93994H6.42815Z" fill="#402C36"/>
<path fill-rule="evenodd" clip-rule="evenodd" d="M29.8983 2.93994C27.9854 2.93994 26.4102 4.51648 26.4102 6.43565V19.1467C26.4102 21.0659 27.9854 22.6424 29.8983 22.6424H42.5765C44.4894 22.6424 46.0599 21.0636 46.0599 19.1467V6.43565C46.0599 4.51879 44.4894 2.93994 42.5765 2.93994H29.8983Z" fill="#402C36"/>
<path fill-rule="evenodd" clip-rule="evenodd" d="M6.42815 26.3525C4.5099 26.3525 2.93994 27.9344 2.93994 29.8482V42.5642C2.93994 44.4781 4.5099 46.0599 6.42815 46.0599H19.1014C21.0197 46.0599 22.5896 44.478 22.5896 42.5642V29.8482C22.5896 27.9344 21.0197 26.3525 19.1014 26.3525H6.42815Z" fill="#402C36"/>
<path fill-rule="evenodd" clip-rule="evenodd" d="M29.8983 26.3525C27.9831 26.3525 26.4102 27.9321 26.4102 29.8482V42.5642C26.4102 44.4803 27.9831 46.0599 29.8983 46.0599H42.5765C44.4917 46.0599 46.0599 44.478 46.0599 42.5642V29.8482C46.0599 27.9344 44.4917 26.3525 42.5765 26.3525H29.8983Z" fill="#402C36"/>
</svg>
