<svg id="Layer_1" data-name="Layer 1" xmlns="http://www.w3.org/2000/svg" viewBox="0 0 1920 432"><defs><style>.cls-1,.cls-9{fill:#fff;}.cls-2{fill:#008fc0;}.cls-3{fill:#fd9000;}.cls-4{fill:#2980bf;}.cls-5{fill:#008037;}.cls-6{fill:#ff9000;}.cls-7{fill:#ff001a;}.cls-8{fill:#ff0016;}.cls-9{font-size:77.79px;font-family:Poppins-SemiBold, Poppins;font-weight:600;letter-spacing:-0.02em;}</style></defs><rect class="cls-1" x="494.24" y="49.75" width="9.59" height="310.62"/><polygon class="cls-1" points="361.41 317.02 351.13 232.51 409 177.83 410.95 179.89 354.12 233.59 364.22 316.68 361.41 317.02"/><rect class="cls-1" x="334.56" y="233.84" width="2.83" height="91.69" transform="translate(-100.14 249.65) rotate(-35.84)"/><path class="cls-1" d="M364.24,318.79H208.31l-48.2-140.62L286.5,90.67,412,178.17ZM210.33,316H362.21l46.42-136.68L286.49,94.12l-123,85.16Z"/><polygon class="cls-1" points="362.19 318.12 286.69 281.14 212.43 318.12 211.16 315.58 286.68 277.98 363.44 315.58 362.19 318.12"/><polygon class="cls-1" points="164.94 180.24 164.33 177.48 246.4 159.31 286.44 89.65 330.3 159.31 410.29 177.48 409.66 180.24 328.52 161.81 286.55 95.14 248.23 161.81 247.62 161.95 164.94 180.24"/><polygon class="cls-1" points="213.2 317.02 210.39 316.68 220.49 233.59 163.66 179.89 165.61 177.83 223.48 232.51 213.2 317.02"/><circle class="cls-1" cx="221.99" cy="233.05" r="7.21"/><circle class="cls-2" cx="247.31" cy="160.56" r="7.21"/><circle class="cls-1" cx="329.41" cy="160.56" r="7.21"/><line class="cls-1" x1="251.56" y1="202.26" x2="161.94" y2="178.86"/><rect class="cls-1" x="205.33" y="144.25" width="2.83" height="92.62" transform="matrix(0.25, -0.97, 0.97, 0.25, -29.87, 342.45)"/><rect class="cls-1" x="321.89" y="188.88" width="89.57" height="2.83" transform="translate(-36.44 99.95) rotate(-14.8)"/><line class="cls-1" x1="209.1" y1="316.85" x2="265.08" y2="240.8"/><rect class="cls-1" x="189.88" y="277.41" width="94.43" height="2.83" transform="translate(-128.01 304.45) rotate(-53.64)"/><rect class="cls-1" x="285.27" y="131.96" width="2.83" height="44.54"/><path class="cls-1" d="M261.28,201.48h14.06v3.78h-4.59v17.35h-4.88V205.26h-4.59Z"/><path class="cls-1" d="M278,201.48h4.85v17.29h6.91v3.84H278Z"/><path class="cls-1" d="M292.06,201.48h6.82l3.78,14.16,3.84-14.16h6.88v21.13h-4.3V205l-4.93,17.58h-3l-5-17.55v17.55h-4.09Z"/><circle class="cls-3" cx="286.83" cy="93.27" r="43.52"/><circle class="cls-2" cx="409.98" cy="178.86" r="43.52"/><circle class="cls-4" cx="362.81" cy="316.85" r="43.52"/><circle class="cls-4" cx="209.1" cy="316.85" r="43.52"/><circle class="cls-5" cx="161.94" cy="178.86" r="43.52"/><circle class="cls-6" cx="352.63" cy="233.05" r="7.21"/><circle class="cls-1" cx="328.17" cy="268.86" r="7.21"/><circle class="cls-1" cx="246.08" cy="267.99" r="7.21"/><circle class="cls-1" cx="221.62" cy="194.62" r="7.21"/><circle class="cls-7" cx="352.63" cy="194.62" r="7.21"/><circle class="cls-8" cx="286.69" cy="149.21" r="7.21"/><circle class="cls-6" cx="286.69" cy="281.09" r="7.21"/><path class="cls-1" d="M139.32,179.58a5.22,5.22,0,0,0,1.24-.17,8.41,8.41,0,0,0,2.68-1.07,4.53,4.53,0,0,0,1.75-1.88,2.74,2.74,0,0,0,.27-1.69,3.69,3.69,0,0,0-1.08-2,5.62,5.62,0,0,0-1.24-.92,7.63,7.63,0,0,0-1.37-.61,17.53,17.53,0,0,0-1.9-.46,1.17,1.17,0,0,0-1.33.7,2,2,0,0,0-.07.9c0,.24-.06.3-.3.3-1.07,0-2.13,0-3.2,0a.62.62,0,0,0-.64.7.59.59,0,0,0,.64.63h3.28c.15,0,.22,0,.21.2,0,.66,0,1.31,0,2,0,.14,0,.19-.18.18l-1.11,0c-.71,0-1.42,0-2.13,0a.7.7,0,0,0-.66,1,.71.71,0,0,0,.64.38c1.05,0,2.1,0,3.15,0,.25,0,.32.07.29.31a4.86,4.86,0,0,0,0,.54A1.06,1.06,0,0,0,139.32,179.58Z"/><path class="cls-1" d="M136.82,167.81a4,4,0,0,1,2.3,1.36c.27.31.48.67.74,1s.35.38.63.31.36-.49.07-.8a14.52,14.52,0,0,0-1.22-1.26,3.39,3.39,0,0,0-1.19-.73,16.17,16.17,0,0,1-2.31-1,12.19,12.19,0,0,1-2-1.22,7,7,0,0,1-1.6-1.48,13.39,13.39,0,0,0,5.59,2.81c.82.22,1.09-.3,1-.8a8.8,8.8,0,0,0-.42-1.88,3.92,3.92,0,0,0-1.35-1.79,4.68,4.68,0,0,0-2.09-.79,15,15,0,0,0-2-.25c-.71,0-1.42-.13-2.13-.19a9.46,9.46,0,0,1-1.83-.31,6,6,0,0,1-1.53-.7,9.52,9.52,0,0,0,.58,2.88,6.75,6.75,0,0,0,2.1,3,7.43,7.43,0,0,0,4.16,1.62C135.15,167.66,136,167.67,136.82,167.81Z"/><path class="cls-1" d="M189.44,180.92a5.43,5.43,0,0,0-1.92-1.57,15.38,15.38,0,0,0-4.41-1.42c-.71-.18-1.42-.3-2.13-.48a12.28,12.28,0,0,1-2.52-.86,14.59,14.59,0,0,1-3.17-2.2c-.42-.49-.91-.89-1.36-1.35a32.71,32.71,0,0,0-2.54-2.46,10.68,10.68,0,0,0-1.44-1.09,2,2,0,0,0-.53-.35s0,0-.06,0l-.23-.15h0a1,1,0,0,0-.26-.16c-.24-.12-.47-.27-.7-.38-.53-.25-1.06-.5-1.62-.7a14.24,14.24,0,0,0-2.47-.64,3.58,3.58,0,0,0-.78-.15c-.48-.08-.94-.11-1.42-.16a9.82,9.82,0,0,0-1.62-.05c-.53,0-1.07,0-1.6.05s-1.32.11-2,.23c-1.18.18-2.36.41-3.53.68l-.41.08s0,0,0,0-.08,0-.13,0l-2.56.61c-.91.22-1.83.43-2.76.58-.49.08-1,.18-1.5.28a1.14,1.14,0,0,0-.26,0,15.88,15.88,0,0,1-2.17.18h-1.65a.46.46,0,0,0-.36.13.68.68,0,0,0,.26,1.16,8.29,8.29,0,0,1,2.73,1.5,6.31,6.31,0,0,1,1,1.32,3.24,3.24,0,0,1,.13,3A5.23,5.23,0,0,1,143,179a9.75,9.75,0,0,1-2.77.94,2.31,2.31,0,0,1-1.73-.13c-.1-.07-.12,0-.12.08a8.12,8.12,0,0,0,0,2.31,5.85,5.85,0,0,0,1.7,3.42.68.68,0,0,0,1.24-.35,5.45,5.45,0,0,1,.56-1.45,7.2,7.2,0,0,1,2.71-2.87,6.55,6.55,0,0,1,2.89-1,5.72,5.72,0,0,1,.92-.08,12.09,12.09,0,0,1,1.21.09,7.62,7.62,0,0,1,2.62.9,6.45,6.45,0,0,1,2.33,2.19,7.85,7.85,0,0,1,1.09,3.32.93.93,0,0,0,.93.88c1.5,0,3,0,4.5,0a.1.1,0,0,0,.07,0h8.19a.7.7,0,0,0,.66-.68,6.58,6.58,0,0,1,.66-2.49,9.91,9.91,0,0,1,1.14-1.75,7.54,7.54,0,0,1,1.26-1.13,8,8,0,0,1,2.06-1,7.34,7.34,0,0,1,1.29-.25,6.41,6.41,0,0,1,2.31.08,9.09,9.09,0,0,1,1.92.66c0,.07.08.08.13.1a7,7,0,0,1,1.57,1.14,7.57,7.57,0,0,1,1.24,1.62,7.2,7.2,0,0,1,.94,2.81.6.6,0,0,0,.62.59,3.74,3.74,0,0,0,1.16-.23,5.42,5.42,0,0,0,2.06-1.14,4.52,4.52,0,0,0,1.49-2.15A2.72,2.72,0,0,0,189.44,180.92ZM166.6,175.3c-2.33,3.27-4.66,6.52-7,9.81,0-.16.07-.28.1-.43a.1.1,0,0,0,0-.1v-.06s0,0,0,0,0,0,0,0,0,0,0,0a6.83,6.83,0,0,0,.23-.73v-.1c0-.06,0-.13.06-.16s0,0,0,0a.38.38,0,0,0,.08-.23v0a5.47,5.47,0,0,1,.32-1c.06-.24.13-.45.19-.68a1,1,0,0,0,.05-.12c.23-.76.48-1.5.71-2.24.12-.32.2-.63.3-.94.05-.14.05-.22-.13-.2-.63,0-1.26.08-1.88.13a5.43,5.43,0,0,0-.91.05c-.12,0-.15,0-.12-.15l.75-3.44c.24-1.13.52-2.27.76-3.41.06-.35.31-.25.49-.28.4-.05.81-.07,1.21-.14H162a.57.57,0,0,0,.36-.05h.27a3.33,3.33,0,0,0,.54-.07,2.83,2.83,0,0,0,.41,0,.27.27,0,0,0,.14-.05c.46,0,.9-.1,1.4-.12a5.43,5.43,0,0,1-.48.93c-.36.69-.74,1.37-1.11,2.06s-.66,1.22-1,1.84c-.07.14-.1.21.11.21.89,0,1.79-.08,2.66-.12a5.94,5.94,0,0,0,1.27-.08s0,0,0,0S166.6,175.27,166.6,175.3Z"/><path class="cls-1" d="M182.63,184.81a5.72,5.72,0,0,0-1.6-2.06,5.05,5.05,0,0,0-1.93-1,4.67,4.67,0,0,0-.71-.19,5.45,5.45,0,0,0-2.31,0,5.69,5.69,0,0,0-3.07,1.76,6.19,6.19,0,0,0-1.31,2.35,5.77,5.77,0,0,0-.15,2.31,5.61,5.61,0,0,0,.7,2.05,5.23,5.23,0,0,0,1.2,1.5,7,7,0,0,0,1.18.83,1,1,0,0,1,.23.11,5.27,5.27,0,0,0,1.93.51,5.82,5.82,0,0,0,6-3.74,5.57,5.57,0,0,0,.33-2.53A5.89,5.89,0,0,0,182.63,184.81Zm-6,5.44a6.82,6.82,0,0,1-1.17-.43h0c0-.12-.1-.17-.16-.25a2.94,2.94,0,0,1-1-3,3.09,3.09,0,0,1,3.41-2.43.38.38,0,0,0,.28,0h0a1.86,1.86,0,0,0,.56.15s0,0,.05,0v0c0,.1.15.13.23.18a3,3,0,0,1,1.6,2.43A3.09,3.09,0,0,1,176.67,190.25Z"/><path class="cls-1" d="M154.1,185.92a6,6,0,0,0-2.2-3.34A2.92,2.92,0,0,0,151,182a.16.16,0,0,0-.1,0,.91.91,0,0,0-.39-.17,5.12,5.12,0,0,0-2-.38,7,7,0,0,0-.78.05,5.55,5.55,0,0,0-2.8,1.11,5.63,5.63,0,0,0-1.77,2.13,5.78,5.78,0,0,0-.56,2.69,5.56,5.56,0,0,0,.69,2.56,5.82,5.82,0,0,0,2.31,2.33c.1.1.23.1.33.15a5.74,5.74,0,0,0,4.3.3,5.67,5.67,0,0,0,3.56-3.26A5.33,5.33,0,0,0,154.1,185.92Zm-4.3,4.1a3.28,3.28,0,0,1-2.74,0c-.06,0-.15-.1-.23-.06s0,0,0,0a4.35,4.35,0,0,1-1.13-1.21,3,3,0,0,1,.65-3.81,2.78,2.78,0,0,1,1.53-.73,4,4,0,0,1,1.34,0l0,0c0,.1.11.1.18.12a3.08,3.08,0,0,1,2.11,2.59A3.11,3.11,0,0,1,149.8,190Z"/><path class="cls-1" d="M140,168.45a1.27,1.27,0,0,0,.23-.28,2.48,2.48,0,0,1,2.12-1.17,6,6,0,0,0,1.88-.33,3.56,3.56,0,0,0,2.23-2.52,5.38,5.38,0,0,0,.2-1.2h-.07a4.13,4.13,0,0,1-2.11.57c-.6,0-1.2.1-1.8.21a2.24,2.24,0,0,0-1.66,1,3.46,3.46,0,0,0-.38,1.28c-.07.45.18.65.57.54a9.22,9.22,0,0,0,1.36-.5,6.38,6.38,0,0,0,1.19-.7.58.58,0,0,1-.19.25A9.7,9.7,0,0,1,141,167a3.06,3.06,0,0,0-1.3,1.17.2.2,0,0,0,.05.3C139.84,168.57,139.94,168.53,140,168.45Z"/><path class="cls-1" d="M303.49,110.12c-1.36-5.19-2.72-10.36-4.09-15.55a3,3,0,0,1-.33.14,2.22,2.22,0,0,1-1.68,0,24.52,24.52,0,0,1-8.58-5.22v0c0,.11,0,.21,0,.31,0,.39-.12.44-.43.44-.82,0-1.65,0-2.47,0-.35,0-.49-.09-.45-.47.07-1.4.1-2.81.16-4.23v0c0-.18,0-.35,0-.53a12.85,12.85,0,0,1-1-5.26c.05-2.51,0-5,0-7.58h-3.89l-3.51,13.37q-3.6,13.68-7.21,27.36a1.27,1.27,0,0,0-.05.48h14.52c0-1,.09-2.07.11-3.1,0-.26.1-.35.37-.35h4.28c.28,0,.37.09.38.35,0,1,.06,2.07.09,3.1h14.54A25.1,25.1,0,0,0,303.49,110.12Zm-14.59-5.31c-1.2,0-2.43,0-3.65,0-.32,0-.42-.09-.4-.42.14-2.88.26-5.77.36-8.65,0-.35.13-.45.46-.44,1,0,2,0,2.92,0,.33,0,.45.09.47.44,0,1.45.1,2.92.17,4.37h0c.07,1.4.1,2.8.19,4.18C289.44,104.71,289.32,104.81,288.9,104.81Z"/><path class="cls-1" d="M313,73.29c0-1.68,0-3.36,0-5a2.08,2.08,0,0,0-2.06-2.34c-.93-.14-1.87-.25-2.78-.47a20.41,20.41,0,0,1-6.31-3.06,2.27,2.27,0,0,0-2.94,0,20.55,20.55,0,0,1-3.67,2.11A17,17,0,0,1,289.48,66a1.81,1.81,0,0,0-1.7,1.6c0,.14,0,.3,0,.44s0,.42,0,.63c0,2.32,0,4.65,0,7v1.12a14.1,14.1,0,0,0,.18,2.38c0,.08,0,.15.05.22a11.73,11.73,0,0,0,.38,1.44c.06.14.11.28.16.42a12.58,12.58,0,0,0,3.1,4.52A21.64,21.64,0,0,0,298.2,90l.07,0c.4.18.82.34,1.24.49a1.86,1.86,0,0,0,.59.16,2,2,0,0,0,1-.12l.25-.11c.93-.38,1.83-.78,2.71-1.22a19.17,19.17,0,0,0,5.28-3.77,14.19,14.19,0,0,0,2.42-3.24,8.76,8.76,0,0,0,1-3.14A41.64,41.64,0,0,0,313,73.29Zm-4.44,8.35a13,13,0,0,1-1.49,1.8,15.74,15.74,0,0,1-4.16,3c-.73.38-1.5.73-2.28,1.07l-.27,0V77.23c0-.21,0-.41,0-.62-.19-.13-.4-.06-.6-.06h-8.35c-.51,0-.63-.14-.61-.63,0-1.25,0-2.51,0-3.77,0-.45,0-.93,0-1.4V69.32c0-.32.07-.47.4-.51a20.23,20.23,0,0,0,8.79-3.46l.25-.14s.07,0,.1,0,.05.21.05.32V76.19c0,.14,0,.28,0,.42a.41.41,0,0,1,.28-.09l.24,0c2.85,0,5.68,0,8.53,0,.47,0,.52.16.54.57A7.34,7.34,0,0,1,308.51,81.64Z"/><path class="cls-1" d="M279.08,72.15H277.2c-.06.17-.1.33-.17.49l-14.32,35c-.77,1.88-1.56,3.75-2.34,5.62,0,.23.21.1.31.1h4.7a17.11,17.11,0,0,1,.76-2.43Q272.58,91.6,279,72.3Z"/><path class="cls-1" d="M313.69,112.83,305,91.68a24.87,24.87,0,0,1-2.78,1.62l6.51,19.5a1,1,0,0,1,.12.55h4.71c.1,0,.27.13.31-.1S313.75,113,313.69,112.83Z"/><path class="cls-1" d="M361,334.6a10.62,10.62,0,0,0,.65-1.37,7,7,0,0,0,.41-1.47,3,3,0,0,0-.06-1.24,1.88,1.88,0,0,0-.12-.3,1.15,1.15,0,0,0-1-.65,2.06,2.06,0,0,0-1.43.41,4.85,4.85,0,0,0-.9.91,7.44,7.44,0,0,0-.52.73.23.23,0,0,1-.08.09l.05-.1a5.41,5.41,0,0,0,.35-1.1,3.09,3.09,0,0,0,0-1.21,1.48,1.48,0,0,0-1.18-1.1,2.08,2.08,0,0,0-1.34.25,3.34,3.34,0,0,0-1.05.93,3.3,3.3,0,0,0-.22.3s0-.06,0-.08a3.66,3.66,0,0,0,.25-1.18,1.52,1.52,0,0,0-1.19-1.64A2,2,0,0,0,352,327a4.7,4.7,0,0,0-1,.92,7.15,7.15,0,0,0-.53.7s0,.06-.06.07a.05.05,0,0,1-.05,0c-.61-.57-1.26-1.09-1.92-1.61-.85-.67-1.71-1.32-2.58-2a.8.8,0,0,0-.28-.13l-1.68-.41c-.11,0-.11,0-.1-.13q0-.69.15-1.38a17.2,17.2,0,0,1,.61-2.74,18.72,18.72,0,0,1,3.31-6.31,13.94,13.94,0,0,1,1.38-1.5.2.2,0,0,1,.23,0l1.5.46a1.84,1.84,0,0,0,.41.05,5.43,5.43,0,0,1,1.44.3,2.88,2.88,0,0,1,1,.53c.17.14.13.12,0,.23l-1.52,1.43a1.94,1.94,0,0,0-.53.82,2.67,2.67,0,0,0-.05,1.43,1.74,1.74,0,0,0,.74,1,3.25,3.25,0,0,0,1.26.49,4.56,4.56,0,0,0,2.7-.36,1.08,1.08,0,0,0,.18-.11l2.36-1.86a3.54,3.54,0,0,1,1.33-.66,5.32,5.32,0,0,1,1.64-.15,7.78,7.78,0,0,1,2.6.61,9.53,9.53,0,0,1,1.5.83c.63.43,1.27.84,1.91,1.27,2.87,1.9,5.73,3.83,8.53,5.84.92.65,1.83,1.32,2.7,2a9.06,9.06,0,0,1,.73.66,1.81,1.81,0,0,1,.54,1.49,2.11,2.11,0,0,1-.25.77,2.45,2.45,0,0,1-.46.61,1.5,1.5,0,0,1-.89.43,1.93,1.93,0,0,1-1.09-.18,3.3,3.3,0,0,1-.45-.26s-.05-.05-.09-.05,0,.06,0,.09a1.75,1.75,0,0,1,.31,1.35c0,.16,0,.33-.07.5a2.33,2.33,0,0,1-.7,1.21,3.68,3.68,0,0,1-.73.51,1.7,1.7,0,0,1-.74.16,4.16,4.16,0,0,1-1.67-.31.28.28,0,0,0-.12,0,.11.11,0,0,0,0,.11,2.18,2.18,0,0,1,0,1.24,2.34,2.34,0,0,1-1.13,1.34,1.94,1.94,0,0,1-.78.22,3.47,3.47,0,0,1-1.6-.19l-.07,0h0a.2.2,0,0,0,0,.11,1.82,1.82,0,0,1-.56,2,2.42,2.42,0,0,1-1.34.55,3.34,3.34,0,0,1-1.29-.19,7.83,7.83,0,0,1-1.53-.7,14.75,14.75,0,0,1-1.58-1l-.08-.06a.05.05,0,0,1,0-.08l0-.07a5.92,5.92,0,0,0,.59-1.18,3.29,3.29,0,0,0,.2-1,1.51,1.51,0,0,0-.07-.56,1.09,1.09,0,0,0-.88-.75,1.24,1.24,0,0,0-.66,0,3,3,0,0,0-.93.54,4.47,4.47,0,0,0-.63.6A.35.35,0,0,1,361,334.6Z"/><path class="cls-1" d="M359.31,311.16c.19,0,.37,0,.55,0l1.67,0,1.34,0c.37,0,.75,0,1.12-.09l.39-.07a3.52,3.52,0,0,1,1.21-.06,6,6,0,0,1,2,.6c.79.37,1.6.71,2.41,1,1.28.54,2.56,1.06,3.84,1.57a4.78,4.78,0,0,0,1.11.29,4.4,4.4,0,0,0,.81,0,2.75,2.75,0,0,0,1.66-.54,8.41,8.41,0,0,0,.91-.77,1.29,1.29,0,0,0,.17-.16s.07,0,.11,0a5.56,5.56,0,0,1,.54.42,11.13,11.13,0,0,1,2.41,3.05,14.07,14.07,0,0,1,1.44,4,17,17,0,0,1,.26,1.88c0,.41.06.82.07,1.23,0,.09,0,.09-.09.09a5.17,5.17,0,0,0-2.28.58,5.47,5.47,0,0,0-1.66,1.28c-.07.07-.07.08-.16,0l-3.63-2.45-2.07-1.39-3.36-2.27-3.23-2.17c-.42-.29-.84-.58-1.27-.86a5.83,5.83,0,0,0-1-.48,8.07,8.07,0,0,0-1.93-.5,7.5,7.5,0,0,0-1.42-.05,6.69,6.69,0,0,0-1.34.22,4,4,0,0,0-.48.2,7.81,7.81,0,0,0-1.63,1L356.37,318a2.39,2.39,0,0,1-.57.3,4.33,4.33,0,0,1-1.29.3,2.4,2.4,0,0,1-1.83-.57.78.78,0,0,1-.16-.2,1.7,1.7,0,0,1-.08-1.52.87.87,0,0,1,.17-.22l1.92-1.7,1.89-1.68.84-.76a4.77,4.77,0,0,1,.63-.48,1.27,1.27,0,0,1,.61-.23Z"/><path class="cls-1" d="M348,311a.31.31,0,0,1-.08.11,19.3,19.3,0,0,0-2.26,2.84,22.19,22.19,0,0,0-2.63,5.38,20.07,20.07,0,0,0-.73,3c-.08.52-.14,1-.18,1.55s-.06,1.25,0,1.88v.06s-.07,0-.1,0L336.57,323c-.09,0-.1-.09-.1-.18,0-.47.08-1,.14-1.42.07-.67.17-1.33.29-2a25.45,25.45,0,0,1,2-6.33,15,15,0,0,1,2.28-3.51,11.33,11.33,0,0,1,1.86-1.67l.14-.09a.08.08,0,0,1,.1,0l.07.05,4.6,3.06Z"/><path class="cls-1" d="M379.08,311.15l.56-.39,4-2.77.05,0s.08,0,.13,0,.28.2.41.31a14.61,14.61,0,0,1,2.11,2.05,16.9,16.9,0,0,1,2.39,3.69,18.31,18.31,0,0,1,1.14,3.13,22.59,22.59,0,0,1,.45,2.29c.06.44.1.88.13,1.32,0,.7,0,1.4,0,2.11v.05a.1.1,0,0,1-.08.12l-.59.28-1.86.89-3,1.46-.08,0s0-.07,0-.11q0-.68,0-1.35c0-.48,0-1-.09-1.45s-.12-1.26-.22-1.89a21,21,0,0,0-.69-3,15.63,15.63,0,0,0-1.07-2.65,11.32,11.32,0,0,0-1.69-2.44,9,9,0,0,0-1.92-1.56l-.07,0Z"/><path class="cls-1" d="M361.47,331.51a3.14,3.14,0,0,1-.14.91,10.2,10.2,0,0,1-.86,2.18,7.21,7.21,0,0,1-1.2,1.64,2.27,2.27,0,0,1-.59.44,1,1,0,0,1-1.28-.29,1.34,1.34,0,0,1-.25-.49,2,2,0,0,1,0-1.15c.06-.22.12-.44.19-.66a9.62,9.62,0,0,1,1.59-2.76,3.31,3.31,0,0,1,1.25-.94,1.16,1.16,0,0,1,.32-.08.83.83,0,0,1,.91.59A2.13,2.13,0,0,1,361.47,331.51Z"/><path class="cls-1" d="M353.65,333.23a3.15,3.15,0,0,1,.14-.85,9.12,9.12,0,0,1,.89-2,4.25,4.25,0,0,1,.88-1.06,2.07,2.07,0,0,1,.77-.42,1.11,1.11,0,0,1,1.33.67,1.36,1.36,0,0,1,.11.66,4.5,4.5,0,0,1-.17,1.09,7.78,7.78,0,0,1-.45,1.22,5.86,5.86,0,0,1-.86,1.39,3.36,3.36,0,0,1-.66.59,1.33,1.33,0,0,1-1.27.08,1.1,1.1,0,0,1-.66-.88A2.42,2.42,0,0,1,353.65,333.23Z"/><path class="cls-1" d="M354.12,328.84a3.31,3.31,0,0,1-.47,1.66,3.78,3.78,0,0,1-.69.9,1.76,1.76,0,0,1-1.21.52,1.23,1.23,0,0,1-1.24-1,2.28,2.28,0,0,1,0-.69,3.42,3.42,0,0,1,.52-1.45,3.61,3.61,0,0,1,1.16-1.14,1.36,1.36,0,0,1,.48-.16,1.42,1.42,0,0,1,.68,0,1.18,1.18,0,0,1,.7.73,1,1,0,0,1,.06.22C354.12,328.6,354.12,328.71,354.12,328.84Z"/><path class="cls-1" d="M363.8,334.73a2.17,2.17,0,0,1-.1.62,7.45,7.45,0,0,1-.81,1.74,4,4,0,0,1-.8,1,1,1,0,0,1-1.22.1.71.71,0,0,1-.27-.47,2.23,2.23,0,0,1,0-.73,3.76,3.76,0,0,1,.3-1,4.72,4.72,0,0,1,1-1.5,2,2,0,0,1,.63-.49,1.31,1.31,0,0,1,.85-.1.49.49,0,0,1,.37.33,1.17,1.17,0,0,1,.06.2C363.8,334.53,363.79,334.63,363.8,334.73Z"/><g id="o3SyUi.tif"><path class="cls-1" d="M361.23,309.65l-1.67,0c-.18,0-.36,0-.55,0s-.54,0-.81,0a1.25,1.25,0,0,0-.61.22,4.77,4.77,0,0,0-.63.48l-.84.76-1.35,1.2c-.38-.15-.48-.46-.48-1.14,0-3.85,0-7.7,0-11.55a1,1,0,0,1,.72-1.13h.9a19.47,19.47,0,0,1,2.61.53,6.92,6.92,0,0,1,3.68,2.67,1.3,1.3,0,0,1,.23.71c0,2.38,0,4.76,0,7.15Z"/><path class="cls-1" d="M371.81,311.36a2,2,0,0,1-.06.53l-2.06-.86c-.82-.34-1.63-.67-2.42-1a6,6,0,0,0-2-.6,3.52,3.52,0,0,0-1.21.06l-.39.07h0v-6.92a1.49,1.49,0,0,1,.28-.91,7.18,7.18,0,0,1,4.62-2.86c.54-.12,1.08-.18,1.62-.27h.89a1,1,0,0,1,.72,1.13C371.8,303.57,371.81,307.47,371.81,311.36Z"/><path class="cls-1" d="M353.09,312.05a2.88,2.88,0,0,0-.59-.27,5.54,5.54,0,0,0-.89-.23V302a1.05,1.05,0,0,1,.49-.55c.61-.27.93-.08.93.56,0,3.1,0,6.19,0,9.28A4.07,4.07,0,0,0,353.09,312.05Z"/><path class="cls-1" d="M374.49,302.35v10.51a4.09,4.09,0,0,1-1-.26l-.59-.23a2.39,2.39,0,0,0,.14-.82c0-3.17,0-6.34,0-9.5,0-.21-.16-.51.13-.64a1.07,1.07,0,0,1,1.12.35A1,1,0,0,1,374.49,302.35Z"/></g><g id="_7Bt7F9.tif" data-name="7Bt7F9.tif"><path class="cls-1" d="M210.65,328.33l1.63,1.63a.46.46,0,0,1,.15.36c0,.45,0,.9,0,1.34,0,.18,0,.25-.22.24-.46,0-.92,0-1.38,0a.45.45,0,0,1-.33-.14l-3.27-3.33a.4.4,0,0,0-.36-.15h-3.18a.42.42,0,0,0-.32.13l-3.29,3.34a.42.42,0,0,1-.34.15h-1.4c-.13,0-.19,0-.19-.17,0-.5,0-1,0-1.49a.31.31,0,0,1,.13-.25l1.47-1.48.17-.17a7.57,7.57,0,0,1-1.2-.15,5.32,5.32,0,0,1-4.13-5.22q0-6.24,0-12.48a5.31,5.31,0,0,1,4.37-5.27,5.42,5.42,0,0,1,1.06-.09h10.54a5.32,5.32,0,0,1,5.31,4.22,5.08,5.08,0,0,1,.12,1.23c0,4.1,0,8.21,0,12.31a5.32,5.32,0,0,1-4.09,5.29A5.42,5.42,0,0,1,210.65,328.33Zm-5.35-8.92h6.9c.17,0,.23,0,.23-.22,0-3.42,0-6.84,0-10.26,0-.2-.06-.23-.23-.23H198.38c-.19,0-.23.05-.23.23,0,3.42,0,6.83,0,10.25,0,.2.07.23.25.23ZM201.72,323a1.78,1.78,0,1,0-1.78,1.78A1.79,1.79,0,0,0,201.72,323Zm10.71,0a1.79,1.79,0,1,0-3.57,0,1.79,1.79,0,0,0,3.57,0Z"/><path class="cls-1" d="M207.19,295.34a2.62,2.62,0,0,1-.75,1.83l-6.06,6.06a.43.43,0,0,1-.35.12,7.12,7.12,0,0,0-6.77,4.62,6.8,6.8,0,0,0-.45,2.64.49.49,0,0,1-.16.37L187,316.63a.35.35,0,0,0-.12.35l.54,3.91a.52.52,0,0,1-.16.51c-.52.5-1,1-1.52,1.53-.13.13-.17.13-.27,0-1-1.76-1.94-3.52-2.91-5.28a.82.82,0,0,0-.32-.32l-5.29-2.93c-.18-.1-.17-.15,0-.28.55-.54,1.08-1.09,1.61-1.64a.28.28,0,0,1,.28-.09l4.13.61a.32.32,0,0,0,.31-.11l6.62-6.62c.15-.14.1-.18,0-.26l-12.86-6.76c-.16-.09-.19-.13-.05-.26.75-.73,1.49-1.47,2.23-2.21a.33.33,0,0,1,.36-.11l10.76,2.48,5.28,1.23a.32.32,0,0,0,.31-.12q3.39-3.41,6.8-6.8a2.68,2.68,0,0,1,3.51-.22A2.72,2.72,0,0,1,207.19,295.34Z"/></g><g id="nVTTIy.tif"><path class="cls-1" d="M229.36,331.4c0,.4-.11.53-.52.53H215.58a.5.5,0,0,1-.57-.39,7,7,0,0,0-1.38-2.19h.07a5.32,5.32,0,0,0,4.09-5.29c0-4.11,0-8.21,0-12.32a5.43,5.43,0,0,0-.12-1.2h9.83a2.41,2.41,0,0,1,1.84,2.45C229.36,319.11,229.35,325.25,229.36,331.4Z"/><path class="cls-1" d="M240,318a2.31,2.31,0,0,0-2.06-1.09c-2.07,0-4.15,0-6.22,0-.55,0-.7.14-.7.7,0,3.7,0,7.41,0,11.12,0,.19-.07.4.08.59.06,0,.12,0,.17-.07a5.65,5.65,0,0,1,9.25,2.5.42.42,0,0,0,.21.31,3.5,3.5,0,0,0,2.31-.4v-7.7A20.42,20.42,0,0,0,240,318Zm.35,4.3c-1.08,0-2.16,0-3.24,0s-2.16,0-3.24,0c-.51,0-.64-.16-.62-.64,0-.95,0-1.9,0-2.84,0-.41.13-.54.53-.53,1.39,0,2.78,0,4.17,0a.93.93,0,0,1,.84.42,28.85,28.85,0,0,1,1.91,3.09C240.92,322.23,240.71,322.26,240.32,322.26Z"/><path class="cls-1" d="M239.3,332.58a4.26,4.26,0,1,0-5.32,4.84c.19.05.4,0,.56.17h1.19c.17-.19.41-.14.61-.21A4.25,4.25,0,0,0,239.3,332.58Zm-4.21,2.71a2,2,0,0,1,0-3.94,2,2,0,1,1,0,3.94Z"/></g><path class="cls-1" d="M412.05,196.2c-.37.43-.14,1.39-1.15,1.25s-2-.34-2.09-1.62c0-.36-.13-.71.31-.86,1.13-.38,1.69-1.66,2.91-1.86.2,0,.49.31.47.69C411.9,194.5,412.68,195.47,412.05,196.2Z"/><path class="cls-1" d="M414.49,190.26a2,2,0,0,1-.19.41c-.43-.09-1-.07-1.26-.35a1.32,1.32,0,0,1-.15-1.64c.29-.44.72-.44.86,0S413.57,190.05,414.49,190.26Z"/><path class="cls-1" d="M415.2,192.54a1,1,0,0,1-.74.91c-.3-.28-.95-.3-.93-.75,0-.66.77-.5,1.2-.68S415.25,192.22,415.2,192.54Z"/><path class="cls-1" d="M422,177.94c-.07.4-.54.52-.9.61s-.56-.19-.49.41c.22,1.84-.34,2.72-2.1,3.32a3.34,3.34,0,0,0-1.84,1.3c-.61-1.47.22-2,1.1-2.35,1.3-.49,2.18-1.17,2.16-2.71,0-.87.83-1.55,1.35-1.18C421.5,177.51,422,177.51,422,177.94Z"/><path class="cls-1" d="M399.47,182.42a.84.84,0,1,1-.84-.84A.84.84,0,0,1,399.47,182.42Z"/><path class="cls-1" d="M416.84,178.43a4.18,4.18,0,0,0-1.93-1.57,8.72,8.72,0,0,0-2.74-.42,20.37,20.37,0,0,0-4.81.17,2.91,2.91,0,0,0-.41.12,1.74,1.74,0,0,1-1.77-.27l.16-.28-.17.28-.45-.29a3.19,3.19,0,0,0-.41.71,3.94,3.94,0,0,0,.52,3.22c.23.42.51.83.78,1.23a13,13,0,0,1,1.12,1.92c1.2,2.69.75,4.9,0,7.73l-.62-.16c.75-2.79,1.16-4.81,0-7.31a11.77,11.77,0,0,0-1.08-1.82c-.27-.41-.55-.83-.8-1.27a9.15,9.15,0,0,1-.46-1,22.49,22.49,0,0,0-8.7-1.08l-.39,0c-1.88.21-4,.44-5.38-1a6.34,6.34,0,0,1-.94-1.38,4.5,4.5,0,0,0-1.16-1.52l.14-.2a6.77,6.77,0,0,0-.58.44c-.48.38-.15.94.23,1.34a.26.26,0,0,1,.07.24,1.48,1.48,0,0,0-.29.86l.13-.24c.57.33,1.29.67,2,1s1.45.69,2,1a5.7,5.7,0,0,0,1.76.76,5.32,5.32,0,0,0,1.89-.12l.83-.13a10.66,10.66,0,0,1,3.35.3c1.56.41,2.5,1.1,2.74,2,.42,1.63-1.63,3.44-2.85,4.53l-.36.32a10.75,10.75,0,0,1-1.11.89,9.86,9.86,0,0,0-1.05.83l-.19-.21a.4.4,0,0,1,0,.22c-.17,1.32.83,2.22,1.05,3.37.07.33.18.71.61.73s.52-.38.74-.61c.61-.64.13-1.66.59-2.16a11.74,11.74,0,0,1,3-2.59c.35-.2.57-.26.82.17s.83,1,.8,1.71c0,.27.06.78.41.65,1.18-.44,1.07.73,1,1a6.88,6.88,0,0,0,.86,3.66,7.66,7.66,0,0,0-1.24-.86.55.55,0,0,0-.6.11.33.33,0,0,0,0,.46c1.65,1.94,2.45,4.86,5.7,5,.46,0,1.06.69,1.31,0,.17-.48-.75-.36-1-.73-.07-.1-.31-.09-.48-.11-.71-.06-1.56.11-1.52-1,0-.79-1.1-1-.94-1.87a2.41,2.41,0,0,0-.85-2.62c-.42-.34-.92-1.09-.37-1.56s1,.42,1.2.75c.43.77.58.53,1.07.07,1.3-1.21,1.4-1.79.26-3.17-.24-.28-.48-.49-.22-.88.17-.24.4-.68.63-.54.86.51,1.36-.22,2-.45,2.34-.86,3.13-2.42,2.44-4.77-.08-.24-.3-.5-.08-.72,1.14-1.08.08-1.09-.71-1.22,1-.69,2.2-.32,2.39.72.11.62.18,1.17,1,1,1-.25.48-.89.28-1.42A1.64,1.64,0,0,1,416.84,178.43Zm-3.71-15.19a.84.84,0,1,0,.85.84A.85.85,0,0,0,413.13,163.24Zm-17.49,2.56a.85.85,0,0,0-.8.59,1.79,1.79,0,0,0,.41.46,4.75,4.75,0,0,0,.84.5h0a.86.86,0,0,0,.4-.71A.85.85,0,0,0,395.64,165.8Zm2,3.58a2.28,2.28,0,0,0-.7-.87c-.3.53-.64,1-1,1.54.35.12.69.26,1,.4.48.19.84.36,1.18.53s.4.21.58.32l0,0,.23.13A9.83,9.83,0,0,1,397.61,169.38Zm6.56,6.45a23.28,23.28,0,0,1-4-3,1.91,1.91,0,0,1-.79-.25,3.23,3.23,0,0,1-.57-.39,3.7,3.7,0,0,0-.44-.28l0,0-.54-.3-1.14-.52a11.26,11.26,0,0,0-2-.65,12.88,12.88,0,0,0-3.34-.09l0-.64a13.27,13.27,0,0,1,3.5.1c.12,0,.25.05.37.09a14.19,14.19,0,0,1-.8-1.27,6.65,6.65,0,0,1-.55-1.14,2.29,2.29,0,0,1-.14-.7,2.05,2.05,0,0,1,.21-.85h0a6.28,6.28,0,0,1-.17-1.26l-.55-.15c-1.63-.44-2.12-.07-2.24,1.68,0,.42,0,.86-.05,1.28-.15,1.21.58,2.36.24,3.56a2.6,2.6,0,0,0,.18,2c.35.7.53,1.29-.71,1.16-.59-.07-1.19-.08-1.78-.18a1.7,1.7,0,0,0-1.1.16,5.23,5.23,0,0,1,1.19,1.62,5.87,5.87,0,0,0,.85,1.24c1.14,1.18,3.11,1,4.85.78l.39,0a23.1,23.1,0,0,1,8.56,1,3.49,3.49,0,0,1,.11-2A3.85,3.85,0,0,1,404.17,175.83Zm9-12.59a.84.84,0,1,0,.85.84A.85.85,0,0,0,413.13,163.24Zm-8.31,7.68a.84.84,0,1,0,.84.84A.84.84,0,0,0,404.82,170.92ZM400,184.19v0a2.87,2.87,0,0,0,1-2.26c-.23-.88-1.53-1.34-2.28-1.54a9.84,9.84,0,0,0-3.11-.28c-.27,0-.54.08-.8.12a6,6,0,0,1-2.11.12,6.1,6.1,0,0,1-2-.83c-.56-.33-1.29-.67-2-1s-1.26-.59-1.8-.89c.15.63.6,1.21.77,1.87-.7.39-2-.63-2,1a1.8,1.8,0,0,0-.61,0c-.73.2-2-.09-2.1.49-.22,1.25-.93,2.57-.24,3.87.95,1.8,2.3,3.4,2.88,5.41.15.56.52.57,1,.41a10.57,10.57,0,0,0,3.86-2.22,3.14,3.14,0,0,0,1-1.32c.22-.72-.66-.78-.78-1.25H393a6.82,6.82,0,0,1,2.79,2,11.18,11.18,0,0,1,1.07-.85,11.63,11.63,0,0,0,1-.84l.37-.33.06-.05a15.39,15.39,0,0,1-.93-1.44,6.52,6.52,0,0,1-.54-1.13,2.14,2.14,0,0,1-.14-.71,1.91,1.91,0,0,1,3.78-.4,1.79,1.79,0,0,1-.06,1A5.86,5.86,0,0,1,400,184.19ZM437.48,166a19.54,19.54,0,0,1-3.08-1.44,7.49,7.49,0,0,0-1-.41A5,5,0,0,0,432,164a1.55,1.55,0,0,0-.31,0,10.28,10.28,0,0,0-1.07.36,1.54,1.54,0,0,1-.3,0c-2.12,0-4.06-1.17-6.21-1.16-.22,0-.44-.24-.67-.33-1-.44-2.45-1.09-3.22-.46-1.18,1-2.53.22-3.61.89a.39.39,0,0,1-.5-.28c-.25-1-.94-1.75-1.6-1.35-1.65,1-3-.77-4.61-.08.31-.56,1-.76.62-1.51s-.91-.45-1.41-.59c-1.48-.43-2.87-.57-4.11.54a.65.65,0,0,1-.5.08c-2.24-.5-3.68,1.56-5.69,1.78-.07,0-.12.11-.17.17-.75,1.12-1.72.83-2.63.35-1.07-.54-1.92-.15-2.08,1.08a1,1,0,0,0,0,.34h.44a8.92,8.92,0,0,0,.07,1.38,1.8,1.8,0,0,1,.79-.37,1.91,1.91,0,0,1,2.25,1.45,1.89,1.89,0,0,1-.05,1,6.32,6.32,0,0,1-.25.6,3,3,0,0,1,1,1.17,9.78,9.78,0,0,0,1.64,2.37,21.39,21.39,0,0,0,4.76,3.87l.05-.05a15.67,15.67,0,0,1-1-1.6,6.61,6.61,0,0,1-.54-1.14,2.09,2.09,0,0,1-.15-.7,1.91,1.91,0,0,1,3.78-.4,1.85,1.85,0,0,1-.05,1,6.71,6.71,0,0,1-.49,1.09c-.11.19-.22.38-.34.57a4.35,4.35,0,0,0,.46-.6,6.8,6.8,0,0,0,.74-2.24,9.22,9.22,0,0,1,.59-2,4.58,4.58,0,0,1,4.74-2.52c-.15-.23-.29-.46-.43-.7a7.81,7.81,0,0,1-.54-1.13,2.14,2.14,0,0,1-.14-.71,1.91,1.91,0,0,1,3.78-.4,1.79,1.79,0,0,1-.06,1,5.52,5.52,0,0,1-.49,1.08c-.25.46-.53.89-.82,1.32l.24.13a4.82,4.82,0,0,0,.9.41,4.26,4.26,0,0,0,2-.18l7-1.8a11.56,11.56,0,0,1,5.22-.5,8.79,8.79,0,0,1,2.37.93l.93.52.75.42c.26.15.53.29.8.42l-.28.58c-.3-.15-.59-.3-.89-.47l-.57-.32h0l-.11-.06a11.07,11.07,0,0,0-3.12-1.39,11.25,11.25,0,0,0-4.93.5l-7,1.8a4.86,4.86,0,0,1-2.36.18,4.92,4.92,0,0,1-1-.47l-.3-.16-.12.17h0l-.17-.24a.83.83,0,0,1-.08-.12,3.91,3.91,0,0,0-4.71,2,8.64,8.64,0,0,0-.55,1.89,5.71,5.71,0,0,1-2,3.82l-.47.47.36.23c.68.41.87.34,1.24.22l.49-.15a20.74,20.74,0,0,1,5-.18,9.32,9.32,0,0,1,2.95.47,4.75,4.75,0,0,1,2.24,1.82l-.4.26.17-.07c2.26-.69,2.87-2.49,3.36-4.41.17-.66,0-1.47-1.09-1.17-.56.15-.63-.07-.43-.51.37-.84,2.33-1.77,3.22-1.94,1.16-.24,2.55.84,3.51-.64.24-.35.68-1.08,1.32-.38s-.26.84-.53,1.11a2.79,2.79,0,0,0-.76,3.55c.11.26.42.56.53.33.56-1.08,1.9-1.59,2.06-2.92s.62-1.87,1.92-1.58c1,.21,1.49-.51,2.15-.89s1.75,0,1.65-1.39c0-.67.93-.71,1.58-.47.24.08.41.31.64.41.79.34,1-.53,1.44-.79C438,166.43,437.71,166.08,437.48,166Z"/><path class="cls-1" d="M444.25,177.25a33.69,33.69,0,1,0-33.74,34.87A33.68,33.68,0,0,0,444.25,177.25Zm-20.37-27.59a28.85,28.85,0,0,1,5.61,3.38c-1.25.56-2.18.69-3.1-.5a22,22,0,0,0-2.74-2.62C423.73,149.83,423.81,149.75,423.88,149.66ZM425,154a46.85,46.85,0,0,1-5.67.86c-.59.1-.68-.33-.84-.75a26.88,26.88,0,0,0-3.32-6.69A20.55,20.55,0,0,1,425,154Zm-11.77-5.73a19.32,19.32,0,0,1,3.15,6c.28.8-.11.87-.71.87H405.43c-.51,0-.94,0-.67-.78a20.39,20.39,0,0,1,3.11-6C409.59,146.26,411.55,146.25,413.26,148.29Zm-10.54,5.81a1,1,0,0,1-1.22.78c-1.44-.2-2.89-.35-4.32-.57-.61-.08-1.16-.25-.44-1a21.65,21.65,0,0,1,9.27-5.92A23,23,0,0,0,402.72,154.1Zm-5.32-4.37c-1.1,1.14-2.22,2.22-3.22,3.43-.78,1-1.53-.09-2.34,0A18,18,0,0,1,397.4,149.73Zm-14.66,13.56a35,35,0,0,1,6.47-8.26.85.85,0,0,1,.92-.27l.25,0c2.52.69,2.17.45,1.07,2.28a33.58,33.58,0,0,0-3.73,8.58c-.26,1-.64,1.23-1.59.77a26,26,0,0,1-3-1.51A1.06,1.06,0,0,1,382.74,163.29Zm2.41,33.94c2,.53,3.58,1,5.23,1.41a1.25,1.25,0,0,1,.75.64,35.37,35.37,0,0,0,6.24,7.82A31,31,0,0,1,385.15,197.23Zm8.47,2.17c2.79.27,5.25.52,7.71.74a.86.86,0,0,1,.83.67,31.39,31.39,0,0,0,3.49,8.36C400.41,207.56,396.68,204.12,393.62,199.4Zm21.74,10a35.72,35.72,0,0,0,2.56-5.22c.31-1,.69-2,1-3.05a1.14,1.14,0,0,1,1-1l7.58-.74A23,23,0,0,1,415.36,209.4Zm4.6-12.28a87.09,87.09,0,0,0,1.51-10.29c.09-.74.23-1.12,1.1-1.2a85.14,85.14,0,0,0,9.41-1.3c.81-.18,1,0,.85.82a41.63,41.63,0,0,1-3.51,11.12c-.22.42-.39.8-1,.89-2.51.33-5,.72-7.5,1.08C419.84,198.42,419.77,197.92,420,197.12Zm3.87,10c1-1.25,2.32-2.26,3.25-3.59a12.14,12.14,0,0,0,1.51-2.07c1.31-3.27,4.39-3.2,7.31-4.11A30.7,30.7,0,0,1,423.83,207.12Zm16.66-18.22c-.28.81-.68,1.57-.93,2.39-1.19,3.88-4.67,4.14-7.92,5.16.58-1.86,1.28-3.46,1.79-5.13a50.57,50.57,0,0,0,1.43-6.52,1.52,1.52,0,0,1,1.3-1.47,22,22,0,0,0,5.95-2.33A27.81,27.81,0,0,1,440.49,188.9Zm.76-9.89a18.13,18.13,0,0,1-5.26,2.34c-.82.27-.8-.34-.8-.88,0-1.77,0-3.53,0-5.28a28.93,28.93,0,0,0-.47-4.35c-.13-.78-.41-1.17-1.25-1s-.87.67-.75,1.34a45.34,45.34,0,0,1,.54,9.74,1.21,1.21,0,0,1-1.15,1.37c-3.16.62-6.35,1-9.54,1.4-.29,0-.62.09-.79-.26s.07-1-.39-1a4.77,4.77,0,0,0-1.6.73c-1.34.7-2.52,2-4.3,1-.45-.27-.78.08-.78.52,0,.6.14,1.25.95,1.26,1,0,2,0,3,0,.67,0,.89.21.84.9a70.39,70.39,0,0,1-1.54,10.42c-.2.9-.6,1.22-1.49,1.17s-1.89,0-2.83.08c-.41,0-.81,0-1,.55-.51,1.39-.45,1.52,1.05,1.51a17.66,17.66,0,0,0,2.19-.1c.94-.13,1.36,0,.95,1.1a22,22,0,0,1-3.34,6.76c-1.88,2.31-3.91,2.28-5.72-.06a24.17,24.17,0,0,1-3.33-6.92c-.31-.87.11-.92.79-.9,1.26,0,2.53,0,3.8,0,0-.11.08-.23.12-.35a3.53,3.53,0,0,1-3-1.44,1.09,1.09,0,0,0-.85-.22c-1.5.24-1.89-.59-2.09-1.87-.33-2-.81-4-1-6.08-.05-.49.23-1.35-.6-1.3s-1.14.74-1.25,1.44a5,5,0,0,0,.09,1.53c.28,1.69.53,3.39.89,5.07.2.93-.17,1-.92.93-2.38-.35-4.75-.69-7.13-1a1.69,1.69,0,0,1-1.43-1.11,34.64,34.64,0,0,1-1.73-4.29c-.14-.49-.28-1.05-1-.73s-1.24.48-.9,1.37c.47,1.24.93,2.48,1.39,3.74a8.68,8.68,0,0,1-8-5.2,32.4,32.4,0,0,1-2.35-8.79c0-.32-.27-.73.08-.94s.54.15.81.23c.48.13,1,1,1.39.25.3-.6.63-1.54-.53-2A3.08,3.08,0,0,1,379,176a40.28,40.28,0,0,1,1.9-8.64c.34-1,.81-1.17,1.67-.53a10.31,10.31,0,0,0,3.24,1.55c.87.26,1.2.62.91,1.56a10.28,10.28,0,0,0-.36,2.15c0,.4-.4,1.14.32,1.12a1.62,1.62,0,0,0,1.71-1.1c.14-.58.13-1.19.25-1.78.07-.31,0-.79.46-.83,1.15-.08.81-1,.64-1.42a4.15,4.15,0,0,1,.24-3.13,41.49,41.49,0,0,1,4.11-8.28,1.34,1.34,0,0,1,1.58-.68c1.73.33,3.47.6,5.21.77.86.07,1,.37.8,1.13-.09.41-.62,1.12.16,1.3.62.15,1.55,0,1.71-.77.25-1.45,1.18-1.4,2.26-1.32a69.59,69.59,0,0,0,9.9,0c1.27-.09,1.82.37,2,1.52.13.72.29,1.43.48,2.14.11.4,0,1.07.79.85s1.38-.38,1.13-1.37c-.2-.83-.32-1.69-.55-2.52-.16-.6,0-.82.63-.89,1.78-.21,3.58-.46,5.34-.79a1.44,1.44,0,0,1,1.68.78,27.4,27.4,0,0,1,2.73,5.09,1.19,1.19,0,0,0,1.34.89,4.51,4.51,0,0,0,.53-.08c.35-.07.47-.22.49-.4a1.79,1.79,0,0,0-.28-.82,51.67,51.67,0,0,0-2.41-4.68c-.27-.42-.93-.8-.49-1.43a3.21,3.21,0,0,1,2.77-.42,31.61,31.61,0,0,1,6.55,8.36c.13.24.26.49.05.72-.86.93.1,1.41.59,1.67a2.42,2.42,0,0,1,1.13,1.44,31.23,31.23,0,0,1,2.05,9.78A2.27,2.27,0,0,1,441.25,179Z"/><path class="cls-1" d="M287.65,170a41.9,41.9,0,1,0,41.9,41.89A41.88,41.88,0,0,0,287.65,170Zm0,75.44a33.55,33.55,0,1,1,33.55-33.55A33.55,33.55,0,0,1,287.65,245.4Z"/><text class="cls-9" transform="translate(540.35 190.82)">CENTER <tspan x="0" y="93.35">FOR RESEARCH TRANSPORT ISSUES</tspan></text></svg>