<svg id="Layer_1" data-name="Layer 1" xmlns="http://www.w3.org/2000/svg" viewBox="0 0 1920 432"><defs><style>.cls-1{fill:#0d3150;}.cls-2{fill:#0c3250;}.cls-3{fill:#0c2d4b;}.cls-4{fill:#0e2f48;}.cls-5{fill:#008fc0;}.cls-6{fill:#062d4b;}.cls-7{fill:#fd9000;}.cls-8{fill:#008037;}.cls-9{fill:#ff9000;}.cls-10{fill:#ff001a;}.cls-11{fill:#ff0016;}.cls-12{fill:#fff;}</style></defs><rect class="cls-1" x="403.88" y="73.76" width="8.78" height="284.47"/><path class="cls-2" d="M486.55,148.53v8.05H473.29v41.69h-10V156.58H450.06v-8.05Z"/><path class="cls-2" d="M519.47,198.27l-11-19.38h-4.7v19.38h-10V148.53h18.68a21.73,21.73,0,0,1,9.83,2,14.09,14.09,0,0,1,6.09,5.49,15.46,15.46,0,0,1-.82,16.6,14.65,14.65,0,0,1-8.48,5.45L531,198.27ZM503.79,171.4h8.34q4.07,0,6.06-2a7.27,7.27,0,0,0,2-5.45,7,7,0,0,0-2-5.31c-1.33-1.25-3.35-1.89-6.06-1.89h-8.34Z"/><path class="cls-2" d="M570,188.79H550.18l-3.27,9.48H536.43l17.89-49.81h11.61l17.89,49.81H573.27Zm-2.7-8L560.09,160l-7.2,20.81Z"/><path class="cls-2" d="M633.06,198.27h-10l-22.59-34.14v34.14h-10V148.46h10l22.59,34.2v-34.2h10Z"/><path class="cls-2" d="M650.7,197a15.47,15.47,0,0,1-6.6-5.13,13.58,13.58,0,0,1-2.49-7.91H652.3a6.92,6.92,0,0,0,2.17,4.84,7.69,7.69,0,0,0,5.38,1.78,8.26,8.26,0,0,0,5.49-1.67,5.46,5.46,0,0,0,2-4.38,5.08,5.08,0,0,0-1.36-3.64,9.39,9.39,0,0,0-3.38-2.24,54,54,0,0,0-5.6-1.82,59.28,59.28,0,0,1-7.87-2.82,13.61,13.61,0,0,1-5.2-4.2,12,12,0,0,1-2.18-7.52,13.44,13.44,0,0,1,2.21-7.69,14.06,14.06,0,0,1,6.2-5,22.62,22.62,0,0,1,9.12-1.74q7.69,0,12.51,3.74A13.84,13.84,0,0,1,677.1,162h-11a5.68,5.68,0,0,0-2.17-4.24,8.17,8.17,0,0,0-5.38-1.68,6.93,6.93,0,0,0-4.67,1.5,5.43,5.43,0,0,0-1.74,4.35,4.48,4.48,0,0,0,1.32,3.31,10,10,0,0,0,3.27,2.14q2,.81,5.53,1.89a58.41,58.41,0,0,1,7.91,2.85,14.18,14.18,0,0,1,5.27,4.27,11.9,11.9,0,0,1,2.21,7.48,14.11,14.11,0,0,1-2.07,7.42,14.72,14.72,0,0,1-6.06,5.45,20.7,20.7,0,0,1-9.47,2A23.75,23.75,0,0,1,650.7,197Z"/><path class="cls-2" d="M720.67,171.4a13.79,13.79,0,0,1-5.91,5.63,21.44,21.44,0,0,1-10.15,2.14h-8.34v19.1h-10V148.53h18.32a22.15,22.15,0,0,1,9.83,2,13.85,13.85,0,0,1,6.09,5.49,16.09,16.09,0,0,1,.14,15.39Zm-10.36-2.17a7,7,0,0,0,2-5.31q0-7.28-8.12-7.27h-7.91v14.47h7.91Q708.31,171.12,710.31,169.23Z"/><path class="cls-2" d="M739.88,195.49a24.44,24.44,0,0,1-9.27-9.09,26.84,26.84,0,0,1,0-26.22,24.58,24.58,0,0,1,9.27-9.09,26.86,26.86,0,0,1,25.69,0,24.37,24.37,0,0,1,9.19,9.09,27,27,0,0,1,0,26.22,24.13,24.13,0,0,1-9.23,9.09,26.71,26.71,0,0,1-25.65,0Zm20.74-7.66A13.87,13.87,0,0,0,766,182a19.09,19.09,0,0,0,1.92-8.76,18.85,18.85,0,0,0-1.92-8.73,13.68,13.68,0,0,0-5.34-5.74,16.72,16.72,0,0,0-15.86,0,13.65,13.65,0,0,0-5.38,5.74,18.85,18.85,0,0,0-1.92,8.73,19.09,19.09,0,0,0,1.92,8.76,13.83,13.83,0,0,0,5.38,5.81,16.5,16.5,0,0,0,15.86,0Z"/><path class="cls-2" d="M811.21,198.27l-11-19.38h-4.71v19.38h-10V148.53h18.67a21.73,21.73,0,0,1,9.83,2,14.09,14.09,0,0,1,6.09,5.49,15.46,15.46,0,0,1-.82,16.6,14.61,14.61,0,0,1-8.48,5.45l11.9,20.17ZM795.53,171.4h8.34q4.07,0,6.06-2a7.27,7.27,0,0,0,2-5.45,7,7,0,0,0-2-5.31c-1.33-1.25-3.35-1.89-6.06-1.89h-8.34Z"/><path class="cls-2" d="M865.08,148.53v8.05H851.83v41.69h-10V156.58H828.6v-8.05Z"/><path class="cls-2" d="M943.54,148.53v49.74h-10V165.92l-13.32,32.35h-7.55l-13.4-32.35v32.35h-10V148.53h11.33l15.82,37,15.82-37Z"/><path class="cls-2" d="M963.21,148.53v30.78c0,3.38.88,5.95,2.64,7.73s4.22,2.68,7.41,2.68,5.72-.89,7.48-2.68,2.64-4.35,2.64-7.73V148.53h10v30.71A19.85,19.85,0,0,1,990.68,190a17.42,17.42,0,0,1-7.34,6.59,23.32,23.32,0,0,1-10.23,2.21A22.73,22.73,0,0,1,963,196.56a16.8,16.8,0,0,1-7.16-6.59,20.47,20.47,0,0,1-2.64-10.73V148.53Z"/><path class="cls-2" d="M1033.54,188.79h-19.81l-3.28,9.48H1000l17.88-49.81h11.62l17.89,49.81h-10.55Zm-2.71-8L1023.64,160l-7.2,20.81Z"/><path class="cls-2" d="M1108.3,148.53v49.74h-10V165.92L1085,198.27h-7.55L1064,165.92v32.35h-10V148.53h11.34l15.82,37,15.82-37Z"/><path class="cls-2" d="M1172.36,148.53v49.74h-10V165.92l-13.32,32.35h-7.56l-13.39-32.35v32.35h-10V148.53h11.33l15.82,37,15.82-37Z"/><path class="cls-2" d="M1192.45,195.49a24.41,24.41,0,0,1-9.26-9.09,26.84,26.84,0,0,1,0-26.22,24.56,24.56,0,0,1,9.26-9.09,26.86,26.86,0,0,1,25.69,0,24.3,24.3,0,0,1,9.19,9.09,27,27,0,0,1,0,26.22,24.1,24.1,0,0,1-9.22,9.09,26.73,26.73,0,0,1-25.66,0Zm20.74-7.66a14,14,0,0,0,5.35-5.81,19.09,19.09,0,0,0,1.92-8.76,18.85,18.85,0,0,0-1.92-8.73,13.77,13.77,0,0,0-5.35-5.74,15.42,15.42,0,0,0-7.91-2,15.65,15.65,0,0,0-8,2,13.71,13.71,0,0,0-5.38,5.74,18.85,18.85,0,0,0-1.92,8.73A19.09,19.09,0,0,0,1192,182a13.89,13.89,0,0,0,5.38,5.81,15.47,15.47,0,0,0,8,2A15.24,15.24,0,0,0,1213.19,187.83Z"/><path class="cls-2" d="M1248.11,190.36h16.39v7.91h-26.37V148.53h10Z"/><path class="cls-2" d="M1301.34,188.79h-19.81l-3.28,9.48h-10.48l17.89-49.81h11.62l17.88,49.81h-10.54Zm-2.71-8-7.2-20.81-7.19,20.81Z"/><path class="cls-2" d="M1347.52,198.27l-11-19.38h-4.7v19.38h-10V148.53h18.67a21.75,21.75,0,0,1,9.84,2,14.09,14.09,0,0,1,6.09,5.49,15,15,0,0,1,2,7.73,14.81,14.81,0,0,1-2.85,8.87,14.65,14.65,0,0,1-8.48,5.45l11.9,20.17Zm-15.68-26.87h8.34c2.71,0,4.72-.65,6-2a7.28,7.28,0,0,0,2-5.45,7,7,0,0,0-2-5.31c-1.33-1.25-3.34-1.89-6-1.89h-8.34Z"/><path class="cls-2" d="M1377.52,148.53v49.74h-10V148.53Z"/><path class="cls-2" d="M1429.89,198.27h-10l-22.59-34.14v34.14h-10V148.46h10l22.59,34.2v-34.2h10Z"/><path class="cls-2" d="M1449.7,148.53v49.74h-10V148.53Z"/><path class="cls-2" d="M1486.76,195.49a24.34,24.34,0,0,1-9.26-9.09,26.77,26.77,0,0,1,0-26.22,24.49,24.49,0,0,1,9.26-9.09,26.86,26.86,0,0,1,25.69,0,24.3,24.3,0,0,1,9.19,9.09,27,27,0,0,1,0,26.22,24.06,24.06,0,0,1-9.23,9.09,26.71,26.71,0,0,1-25.65,0Zm20.74-7.66a13.87,13.87,0,0,0,5.34-5.81,19.09,19.09,0,0,0,1.93-8.76,18.85,18.85,0,0,0-1.93-8.73,13.68,13.68,0,0,0-5.34-5.74,15.42,15.42,0,0,0-7.91-2,15.6,15.6,0,0,0-7.95,2,13.65,13.65,0,0,0-5.38,5.74,18.85,18.85,0,0,0-1.92,8.73,19.09,19.09,0,0,0,1.92,8.76,13.83,13.83,0,0,0,5.38,5.81,15.41,15.41,0,0,0,7.95,2A15.24,15.24,0,0,0,1507.5,187.83Z"/><path class="cls-2" d="M1540.28,166.49h-10.55l7.7-18h6.91Z"/><path class="cls-2" d="M1577.69,198.27l-11-19.38H1562v19.38h-10V148.53h18.67a21.75,21.75,0,0,1,9.84,2,14.09,14.09,0,0,1,6.09,5.49,15.46,15.46,0,0,1-.82,16.6,14.65,14.65,0,0,1-8.48,5.45l11.9,20.17ZM1562,171.4h8.34c2.71,0,4.72-.65,6.06-2a7.31,7.31,0,0,0,2-5.45,7,7,0,0,0-2-5.31c-1.34-1.25-3.35-1.89-6.06-1.89H1562Z"/><path class="cls-2" d="M1632.34,163.49a11.62,11.62,0,0,0-4.7-4.77,14.32,14.32,0,0,0-7-1.64,15.36,15.36,0,0,0-7.84,2,13.93,13.93,0,0,0-5.35,5.71,20.12,20.12,0,0,0,0,17.24,13.88,13.88,0,0,0,5.45,5.7,16.12,16.12,0,0,0,8.13,2,14.07,14.07,0,0,0,9.33-3,14.45,14.45,0,0,0,4.77-8.45h-17.1v-7.62H1645v8.69a23.33,23.33,0,0,1-4.28,9.62,24.05,24.05,0,0,1-8.44,7.09,24.76,24.76,0,0,1-11.58,2.68,26.14,26.14,0,0,1-13-3.25,23.57,23.57,0,0,1-9.12-9,27.7,27.7,0,0,1,0-26.26,23.54,23.54,0,0,1,9.12-9.05,27.82,27.82,0,0,1,27.55.85,21,21,0,0,1,8.55,11.51Z"/><path class="cls-2" d="M1682.94,188.79h-19.81l-3.28,9.48h-10.48l17.89-49.81h11.62l17.88,49.81h-10.54Zm-2.71-8L1673,160l-7.19,20.81Z"/><path class="cls-2" d="M1746,198.27h-10l-22.59-34.14v34.14h-10V148.46h10l22.59,34.2v-34.2h10Z"/><path class="cls-2" d="M1765.82,148.53v49.74h-10V148.53Z"/><path class="cls-2" d="M1783.45,197a15.44,15.44,0,0,1-6.59-5.13,13.51,13.51,0,0,1-2.49-7.91h10.69a6.88,6.88,0,0,0,2.17,4.84,7.69,7.69,0,0,0,5.38,1.78,8.26,8.26,0,0,0,5.49-1.67,5.45,5.45,0,0,0,2-4.38,5.07,5.07,0,0,0-1.35-3.64,9.43,9.43,0,0,0-3.39-2.24,53.7,53.7,0,0,0-5.59-1.82,59.48,59.48,0,0,1-7.88-2.82,13.68,13.68,0,0,1-5.2-4.2,12,12,0,0,1-2.17-7.52,13.44,13.44,0,0,1,2.21-7.69,14.06,14.06,0,0,1,6.2-5,22.62,22.62,0,0,1,9.12-1.74q7.7,0,12.51,3.74a13.86,13.86,0,0,1,5.3,10.44h-11a5.72,5.72,0,0,0-2.17-4.24,8.19,8.19,0,0,0-5.38-1.68,6.91,6.91,0,0,0-4.67,1.5,5.4,5.4,0,0,0-1.75,4.35,4.48,4.48,0,0,0,1.32,3.31,10.08,10.08,0,0,0,3.28,2.14q2,.81,5.52,1.89a57.91,57.91,0,0,1,7.91,2.85,14.29,14.29,0,0,1,5.28,4.27,11.9,11.9,0,0,1,2.2,7.48,14.1,14.1,0,0,1-2.06,7.42,14.72,14.72,0,0,1-6.06,5.45,20.71,20.71,0,0,1-9.48,2A23.75,23.75,0,0,1,1783.45,197Z"/><path class="cls-2" d="M1860.31,148.53v49.74h-10V177.1H1829v21.17h-10V148.53h10V169h21.31V148.53Z"/><path class="cls-2" d="M506.93,234v49.74H497V251.43l-13.32,32.35h-7.56l-13.4-32.35v32.35h-10V234H464l15.82,37,15.82-37Z"/><path class="cls-2" d="M547.26,274.3H527.45l-3.28,9.48H513.7L531.58,234H543.2l17.89,49.81H550.54Zm-2.71-8-7.19-20.8-7.2,20.8Z"/><path class="cls-2" d="M593.44,283.78l-11-19.38h-4.7v19.38h-10V234h18.67a21.88,21.88,0,0,1,9.84,2,14.21,14.21,0,0,1,6.09,5.49,15.46,15.46,0,0,1-.82,16.6,14.6,14.6,0,0,1-8.48,5.45L605,283.78Zm-15.68-26.86h8.34c2.71,0,4.72-.66,6.06-2a7.34,7.34,0,0,0,2-5.45,7,7,0,0,0-2-5.31c-1.34-1.26-3.35-1.89-6.06-1.89h-8.34Z"/><path class="cls-2" d="M641.54,283.78l-18.1-22.16v22.16h-10V234h10v22.31L641.54,234h12L633.06,258.7l21.09,25.08Z"/><path class="cls-2" d="M691.21,274.3H671.4l-3.28,9.48H657.64L675.53,234h11.62L705,283.78H694.49Zm-2.71-8-7.2-20.8-7.2,20.8Z"/><path class="cls-2" d="M721.92,275.37H744.3v8.41H710.38v-7.69l22.23-33.64H710.38V234H744.3v7.7Z"/><path class="cls-2" d="M762.75,234v49.74h-10V234Z"/><polygon class="cls-3" points="282.22 318.54 272.81 241.14 325.81 191.06 327.59 192.95 275.55 242.13 284.8 318.22 282.22 318.54"/><rect class="cls-1" x="257.63" y="242.36" width="2.59" height="83.97" transform="translate(-117.46 205.42) rotate(-35.84)"/><path class="cls-3" d="M284.82,320.16H142L97.87,191.38l115.75-80.14,114.94,80.14Zm-140.95-2.6H283l42.51-125.17-111.86-78L101,192.39Z"/><polygon class="cls-1" points="282.94 319.54 213.8 285.67 145.78 319.54 144.63 317.22 213.79 282.78 284.08 317.21 282.94 319.54"/><polygon class="cls-1" points="102.3 193.27 101.74 190.74 176.89 174.11 213.56 110.31 253.73 174.1 326.99 190.74 326.42 193.27 252.11 176.4 213.66 115.34 178.57 176.39 178.01 176.52 102.3 193.27"/><polygon class="cls-3" points="146.49 318.54 143.92 318.22 153.17 242.13 101.12 192.95 102.91 191.06 155.91 241.14 146.49 318.54"/><circle class="cls-4" cx="154.54" cy="241.63" r="6.6"/><circle class="cls-5" cx="177.73" cy="175.25" r="6.6"/><circle class="cls-6" cx="252.92" cy="175.25" r="6.6"/><line class="cls-1" x1="181.62" y1="213.44" x2="99.55" y2="192.01"/><rect class="cls-1" x="139.29" y="160.31" width="2.59" height="84.82" transform="translate(-91.08 287.52) rotate(-75.36)"/><rect class="cls-1" x="246.03" y="201.19" width="82.03" height="2.59" transform="matrix(0.97, -0.26, 0.26, 0.97, -42.19, 80.02)"/><line class="cls-1" x1="142.74" y1="318.38" x2="194" y2="248.73"/><rect class="cls-1" x="125.13" y="282.26" width="86.48" height="2.59" transform="translate(-159.8 251.03) rotate(-53.64)"/><rect class="cls-3" x="212.5" y="149.05" width="2.59" height="40.79"/><path class="cls-1" d="M190.52,212.72H203.4v3.46h-4.2v15.89h-4.47V216.18h-4.21Z"/><path class="cls-1" d="M205.83,212.72h4.44v15.84h6.33v3.51H205.83Z"/><path class="cls-1" d="M218.71,212.72H225l3.46,13,3.51-13h6.31v19.35H234.3V216l-4.52,16.1H227L222.46,216v16.07h-3.75Z"/><circle class="cls-7" cx="213.93" cy="113.62" r="39.86"/><circle class="cls-5" cx="326.7" cy="192.01" r="39.86"/><circle class="cls-1" cx="283.51" cy="318.38" r="39.86"/><circle class="cls-1" cx="142.74" cy="318.38" r="39.86"/><circle class="cls-8" cx="99.55" cy="192.01" r="39.86"/><circle class="cls-9" cx="274.18" cy="241.63" r="6.6"/><circle class="cls-1" cx="251.78" cy="274.43" r="6.6"/><circle class="cls-1" cx="176.6" cy="273.63" r="6.6"/><circle class="cls-1" cx="154.2" cy="206.44" r="6.6"/><circle class="cls-10" cx="274.18" cy="206.44" r="6.6"/><circle class="cls-11" cx="213.79" cy="164.85" r="6.6"/><circle class="cls-9" cx="213.79" cy="285.63" r="6.6"/><path class="cls-12" d="M78.83,192.67a5.4,5.4,0,0,0,1.14-.16,7.54,7.54,0,0,0,2.45-1A4.17,4.17,0,0,0,84,189.81a2.59,2.59,0,0,0,.25-1.55,3.45,3.45,0,0,0-1-1.83,5.23,5.23,0,0,0-1.13-.85A7.3,7.3,0,0,0,80.9,185a13.49,13.49,0,0,0-1.75-.42,1,1,0,0,0-1.21.63,1.8,1.8,0,0,0-.07.83c0,.22-.05.28-.27.28-1,0-2,0-2.93,0a.57.57,0,0,0-.59.65.54.54,0,0,0,.59.57h3c.14,0,.21,0,.2.18v1.8c0,.12,0,.17-.16.16l-1,0c-.65,0-1.3,0-2,0a.62.62,0,0,0-.42.13.68.68,0,0,0-.19.79.66.66,0,0,0,.59.34c1,0,1.93,0,2.89,0,.23,0,.29.06.26.27s0,.34,0,.5A1,1,0,0,0,78.83,192.67Z"/><path class="cls-12" d="M76.54,181.89a3.61,3.61,0,0,1,2.11,1.24c.25.28.44.61.68.9s.32.35.57.28.33-.44.07-.73a15.33,15.33,0,0,0-1.12-1.16,3,3,0,0,0-1.09-.66,16.44,16.44,0,0,1-2.12-.9,13,13,0,0,1-1.85-1.11,6.73,6.73,0,0,1-1.46-1.36,14.73,14.73,0,0,0,1.19.89A14,14,0,0,0,77.45,181c.75.2,1-.28.93-.73a8.39,8.39,0,0,0-.38-1.72,3.72,3.72,0,0,0-1.23-1.64,4.51,4.51,0,0,0-1.92-.73,16.34,16.34,0,0,0-1.83-.23c-.65,0-1.3-.12-2-.17a8,8,0,0,1-1.68-.29,5.39,5.39,0,0,1-1.41-.64,8.86,8.86,0,0,0,.54,2.64,6.28,6.28,0,0,0,1.92,2.74,7,7,0,0,0,3.81,1.49C75,181.75,75.78,181.76,76.54,181.89Z"/><path class="cls-12" d="M124.73,193.89a5,5,0,0,0-1.75-1.44,14.57,14.57,0,0,0-4-1.3c-.65-.17-1.3-.27-2-.44a11.73,11.73,0,0,1-2.32-.78,13.57,13.57,0,0,1-2.9-2c-.38-.45-.83-.81-1.24-1.24a30.94,30.94,0,0,0-2.33-2.25,10.65,10.65,0,0,0-1.32-1,1.8,1.8,0,0,0-.48-.31.15.15,0,0,0-.06-.05l-.21-.14h0a.75.75,0,0,0-.24-.15c-.21-.1-.42-.24-.63-.35-.49-.22-1-.45-1.49-.63a12.74,12.74,0,0,0-2.26-.59,3.06,3.06,0,0,0-.72-.14c-.43-.07-.86-.1-1.3-.15a10.5,10.5,0,0,0-1.48,0c-.48,0-1,0-1.46,0s-1.21.11-1.8.21c-1.09.17-2.17.38-3.24.62l-.38.08a0,0,0,0,0,0,0s-.08,0-.12,0l-2.34.56c-.84.2-1.68.39-2.53.53-.45.07-.91.17-1.38.26h-.24a14.56,14.56,0,0,1-2,.17H81a.46.46,0,0,0-.34.12.62.62,0,0,0,.25,1.06,7.6,7.6,0,0,1,2.49,1.37,5.88,5.88,0,0,1,1,1.21,3,3,0,0,1,.12,2.76,4.82,4.82,0,0,1-2.23,2.25,8.87,8.87,0,0,1-2.54.86,2.05,2.05,0,0,1-1.59-.12c-.09-.06-.1,0-.1.08a7.45,7.45,0,0,0,0,2.11,5.44,5.44,0,0,0,1.56,3.13.69.69,0,0,0,.7.25.72.72,0,0,0,.44-.56,4.88,4.88,0,0,1,.51-1.33,6.7,6.7,0,0,1,2.48-2.64,6.27,6.27,0,0,1,2.65-.92,6,6,0,0,1,.84-.07,8.17,8.17,0,0,1,1.11.09,7,7,0,0,1,2.4.81,5.88,5.88,0,0,1,2.13,2,7.19,7.19,0,0,1,1,3,.85.85,0,0,0,.85.81c1.38,0,2.75,0,4.13,0,0,0,0,0,.06,0h7.5a.65.65,0,0,0,.61-.62,5.89,5.89,0,0,1,.6-2.29,9.13,9.13,0,0,1,1-1.6,7.49,7.49,0,0,1,1.15-1,7.69,7.69,0,0,1,1.89-.92,8.46,8.46,0,0,1,1.18-.23,5.81,5.81,0,0,1,2.12.08,8.13,8.13,0,0,1,1.76.6c0,.06.07.08.12.09a6.5,6.5,0,0,1,2.57,2.53,6.58,6.58,0,0,1,.86,2.57.56.56,0,0,0,.57.54,3.39,3.39,0,0,0,1.06-.21,5.08,5.08,0,0,0,1.89-1,4.19,4.19,0,0,0,1.36-2A2.46,2.46,0,0,0,124.73,193.89Zm-20.92-5.14c-2.13,3-4.26,6-6.39,9,0-.15.06-.26.09-.39a.11.11,0,0,0,0-.09v-.06s0,0,0,0,0,0,0,0,0,0,0,0a5.11,5.11,0,0,0,.22-.66v-.09c0-.06,0-.12.06-.15s0,0,0,0A.34.34,0,0,0,98,196v0a5.48,5.48,0,0,1,.28-.93c.06-.21.13-.41.19-.62a.66.66,0,0,1,0-.11c.21-.69.44-1.37.65-2.06.11-.28.18-.57.27-.86.05-.12.05-.19-.12-.18l-1.72.12a5.61,5.61,0,0,0-.83,0c-.11,0-.14,0-.11-.14.23-1,.45-2.1.68-3.14s.49-2.09.7-3.14c.06-.31.28-.22.45-.25.36-.05.74-.06,1.1-.12v0h0v0l0,0h0a.53.53,0,0,0,.33,0h.24a4,4,0,0,0,.5-.06c.12,0,.26,0,.38,0a.18.18,0,0,0,.12,0c.43,0,.83-.09,1.29-.11a5.23,5.23,0,0,1-.44.85c-.33.64-.68,1.26-1,1.89s-.61,1.12-.93,1.68c-.06.14-.09.2.11.2.82,0,1.63-.08,2.43-.11a6.46,6.46,0,0,0,1.17-.07h0S103.81,188.72,103.81,188.75Z"/><path class="cls-12" d="M118.5,197.46a5.32,5.32,0,0,0-1.47-1.89,4.58,4.58,0,0,0-1.77-.94,5.19,5.19,0,0,0-.65-.17,5,5,0,0,0-2.11,0,5.27,5.27,0,0,0-2.82,1.62,5.55,5.55,0,0,0-1.19,2.15,5.38,5.38,0,0,0-.14,2.12,5.07,5.07,0,0,0,.64,1.87,4.86,4.86,0,0,0,1.1,1.38,5.71,5.71,0,0,0,1.07.75.76.76,0,0,1,.22.11,5,5,0,0,0,1.77.47,5.34,5.34,0,0,0,5.52-3.43,5.07,5.07,0,0,0,.3-2.32A5.42,5.42,0,0,0,118.5,197.46Zm-5.46,5A4.88,4.88,0,0,1,112,202h0c0-.11-.09-.15-.15-.23a2.72,2.72,0,0,1-.94-2.72,2.84,2.84,0,0,1,3.13-2.22.39.39,0,0,0,.26,0h0a1.48,1.48,0,0,0,.51.13s0,.05,0,.05h0a.46.46,0,0,0,.22.17,2.79,2.79,0,0,1,1.46,2.22A2.83,2.83,0,0,1,113,202.43Z"/><path class="cls-12" d="M92.37,198.47a5.4,5.4,0,0,0-2-3.05,2.38,2.38,0,0,0-.86-.5.14.14,0,0,0-.09,0,.89.89,0,0,0-.36-.15,4.65,4.65,0,0,0-1.8-.35,5.65,5.65,0,0,0-.71,0,5.07,5.07,0,0,0-2.57,1,5.27,5.27,0,0,0-1.62,1.95,5.38,5.38,0,0,0-.52,2.47,5.21,5.21,0,0,0,.64,2.34,5.3,5.3,0,0,0,2.12,2.13c.09.09.21.09.3.14a5.32,5.32,0,0,0,7.2-2.71A4.94,4.94,0,0,0,92.37,198.47Zm-3.94,3.75a3,3,0,0,1-2.51,0c-.06,0-.13-.09-.21-.06s0,0,0,0a3.85,3.85,0,0,1-1-1.1,2.77,2.77,0,0,1,.59-3.5,2.51,2.51,0,0,1,1.4-.66,3.9,3.9,0,0,1,1.23,0h0c0,.09.11.09.17.1a2.82,2.82,0,0,1,.36,5.22Z"/><path class="cls-12" d="M79.48,182.48a1.26,1.26,0,0,0,.21-.26,2.28,2.28,0,0,1,2-1.07,5.55,5.55,0,0,0,1.71-.31,3.41,3.41,0,0,0,1.16-.73,3.55,3.55,0,0,0,.89-1.58,5,5,0,0,0,.18-1.09h-.06a3.88,3.88,0,0,1-1.93.52c-.56,0-1.11.09-1.66.18a2.12,2.12,0,0,0-1.51.92,3.23,3.23,0,0,0-.35,1.18c-.07.41.16.59.52.49a8.84,8.84,0,0,0,1.25-.45,7,7,0,0,0,1.09-.65.5.5,0,0,1-.18.23,8.94,8.94,0,0,1-2.39,1.3,2.77,2.77,0,0,0-1.19,1.06.19.19,0,0,0,0,.28C79.3,182.59,79.4,182.54,79.48,182.48Z"/><path class="cls-12" d="M229.18,129.06c-1.24-4.76-2.49-9.49-3.74-14.25l-.3.13a2,2,0,0,1-1.54,0,22.47,22.47,0,0,1-7.86-4.78l0,0a1.42,1.42,0,0,1,0,.29c0,.35-.11.4-.4.4-.75,0-1.5,0-2.26,0-.32,0-.44-.08-.41-.43.06-1.28.09-2.58.14-3.87h0c0-.16,0-.32,0-.48a11.81,11.81,0,0,1-.92-4.82c0-2.3,0-4.62,0-6.94h-3.57l-3.21,12.24q-3.3,12.54-6.6,25.06a1.09,1.09,0,0,0-.05.44h13.3c0-1,.08-1.89.1-2.84,0-.24.1-.32.34-.32h3.92c.25,0,.33.08.35.32,0,.95.05,1.89.08,2.84H229.9A20.62,20.62,0,0,0,229.18,129.06Zm-13.36-4.87c-1.1,0-2.22,0-3.34,0-.29,0-.39-.08-.37-.38.13-2.64.24-5.29.33-7.93,0-.32.12-.41.42-.4q1.35,0,2.67,0c.31,0,.42.08.43.4,0,1.33.1,2.68.16,4h0c.06,1.28.09,2.56.17,3.82C216.32,124.09,216.2,124.19,215.82,124.19Z"/><path class="cls-12" d="M237.84,95.32c0-1.54,0-3.07,0-4.59A1.9,1.9,0,0,0,236,88.58c-.84-.13-1.71-.22-2.54-.43a18.55,18.55,0,0,1-5.78-2.8,2.07,2.07,0,0,0-2.69,0,18.64,18.64,0,0,1-3.36,1.93,15.5,15.5,0,0,1-5.23,1.32,1.64,1.64,0,0,0-1.55,1.47,2.71,2.71,0,0,0,0,.4c0,.19,0,.38,0,.58,0,2.12,0,4.25,0,6.38v1a12.74,12.74,0,0,0,.16,2.17c0,.08,0,.15.05.21a9.72,9.72,0,0,0,.35,1.31l.15.39a11.48,11.48,0,0,0,2.83,4.14,19.81,19.81,0,0,0,6.06,3.95s0,0,.07,0c.37.16.75.3,1.14.44a1.74,1.74,0,0,0,.54.15,1.91,1.91,0,0,0,.88-.11,1.12,1.12,0,0,1,.22-.1c.85-.35,1.68-.72,2.48-1.12a17.3,17.3,0,0,0,4.84-3.46,12.88,12.88,0,0,0,2.22-3,8.16,8.16,0,0,0,1-2.88A39.21,39.21,0,0,0,237.84,95.32ZM233.78,103a12.93,12.93,0,0,1-1.36,1.65,14.74,14.74,0,0,1-3.81,2.72c-.67.35-1.38.67-2.1,1l-.24,0V98.94a5.49,5.49,0,0,0,0-.58.92.92,0,0,0-.54,0h-7.65c-.47,0-.58-.13-.57-.57,0-1.16,0-2.31,0-3.46,0-.42,0-.85,0-1.28V91.69c0-.29.07-.44.37-.47a18.54,18.54,0,0,0,8.05-3.17l.23-.13s.06,0,.09,0,.05.2.05.29V98c0,.12,0,.25,0,.38a.4.4,0,0,1,.26-.08l.22,0c2.61,0,5.2,0,7.81,0,.43,0,.48.14.5.53A6.79,6.79,0,0,1,233.78,103Z"/><path class="cls-12" d="M206.83,94.28H205.1c0,.15-.09.3-.15.45q-6.55,16-13.12,32c-.7,1.72-1.43,3.44-2.14,5.15,0,.21.19.09.28.09h4.31a16.8,16.8,0,0,1,.69-2.22q5.9-17.7,11.8-35.38Z"/><path class="cls-12" d="M238.53,131.54l-7.94-19.37a23.85,23.85,0,0,1-2.55,1.48q3,8.92,6,17.86a.86.86,0,0,1,.12.5h4.31c.09,0,.25.12.28-.09S238.58,131.67,238.53,131.54Z"/><path class="cls-12" d="M281.89,334.64a10.19,10.19,0,0,0,.59-1.26,6.47,6.47,0,0,0,.38-1.35,2.69,2.69,0,0,0-.06-1.13,1,1,0,0,0-.11-.28,1.06,1.06,0,0,0-.89-.59,1.87,1.87,0,0,0-1.31.37,4.4,4.4,0,0,0-.83.84,6.08,6.08,0,0,0-.47.66.22.22,0,0,1-.07.09l0-.1a3.89,3.89,0,0,0,.32-1,2.6,2.6,0,0,0,0-1.11,1.35,1.35,0,0,0-1.08-1,2,2,0,0,0-1.23.23,3.25,3.25,0,0,0-1,.85,2.83,2.83,0,0,0-.2.28s0-.06,0-.08a3.59,3.59,0,0,0,.23-1.07,1.4,1.4,0,0,0-1.09-1.51,1.86,1.86,0,0,0-1.52.24,4.42,4.42,0,0,0-.94.84,7.79,7.79,0,0,0-.48.65s0,.05-.06.06,0,0,0,0c-.56-.52-1.16-1-1.76-1.47-.78-.62-1.57-1.21-2.36-1.81a.77.77,0,0,0-.26-.12l-1.54-.37c-.1,0-.1,0-.09-.12,0-.43.07-.85.14-1.26a16.52,16.52,0,0,1,.55-2.51,17,17,0,0,1,3-5.78,12.65,12.65,0,0,1,1.26-1.38.18.18,0,0,1,.21,0l1.37.42a1.73,1.73,0,0,0,.38,0,4.63,4.63,0,0,1,1.32.27,2.7,2.7,0,0,1,.88.48c.16.14.12.11,0,.22-.46.44-.93.87-1.4,1.3a1.79,1.79,0,0,0-.48.76,2.3,2.3,0,0,0,0,1.3,1.51,1.51,0,0,0,.68.94,2.86,2.86,0,0,0,1.15.45,4.21,4.21,0,0,0,2.47-.33.54.54,0,0,0,.16-.1c.72-.57,1.45-1.13,2.17-1.71a3.27,3.27,0,0,1,1.21-.6,4.47,4.47,0,0,1,1.5-.13,7.24,7.24,0,0,1,2.39.55,9.17,9.17,0,0,1,1.37.76l1.75,1.16c2.63,1.75,5.25,3.51,7.81,5.35.84.6,1.67,1.21,2.47,1.86a8,8,0,0,1,.68.61,1.68,1.68,0,0,1,.49,1.36,1.93,1.93,0,0,1-.23.7,2.33,2.33,0,0,1-.42.57,1.43,1.43,0,0,1-.82.39,1.82,1.82,0,0,1-1-.17,3.38,3.38,0,0,1-.41-.24s-.05,0-.08,0,0,.06,0,.08a1.56,1.56,0,0,1,.29,1.23c0,.16,0,.31-.07.46a2,2,0,0,1-.64,1.11,2.88,2.88,0,0,1-.67.47,1.56,1.56,0,0,1-.67.15,3.82,3.82,0,0,1-1.53-.29.45.45,0,0,0-.11,0s0,.07,0,.1a2,2,0,0,1,0,1.13,2.16,2.16,0,0,1-1,1.23,1.8,1.8,0,0,1-.72.2,3.33,3.33,0,0,1-1.47-.17l-.06,0h0a.16.16,0,0,0,0,.1,1.68,1.68,0,0,1-.51,1.81,2.25,2.25,0,0,1-1.22.5,3.22,3.22,0,0,1-1.19-.18,6.79,6.79,0,0,1-1.4-.64,15.39,15.39,0,0,1-1.44-.93l-.08-.06s0-.05,0-.08l0-.06a5.07,5.07,0,0,0,.55-1.09,2.94,2.94,0,0,0,.18-.89,1.26,1.26,0,0,0-.07-.51,1,1,0,0,0-.8-.69,1.11,1.11,0,0,0-.6,0,2.82,2.82,0,0,0-.86.49,4.94,4.94,0,0,0-.57.55A.45.45,0,0,1,281.89,334.64Z"/><path class="cls-12" d="M280.3,313.17c.17,0,.34,0,.51,0l1.52,0,1.23-.05c.34,0,.69,0,1-.08L285,313a3.18,3.18,0,0,1,1.11,0,5.16,5.16,0,0,1,1.8.55c.73.34,1.48.65,2.22,1,1.16.5,2.34,1,3.51,1.44a4.55,4.55,0,0,0,1,.26,4.73,4.73,0,0,0,.75.05,2.66,2.66,0,0,0,1.52-.5,8,8,0,0,0,.83-.71l.16-.14s.06,0,.1,0,.34.25.5.39a10.33,10.33,0,0,1,2.2,2.8,13,13,0,0,1,1.32,3.68,16.93,16.93,0,0,1,.24,1.72c0,.38,0,.75.06,1.13,0,.09,0,.09-.08.09a4.76,4.76,0,0,0-2.09.53,5.11,5.11,0,0,0-1.52,1.17c-.07.07-.07.07-.15,0l-3.32-2.24-1.9-1.27-3.07-2.08-3-2c-.39-.26-.77-.53-1.16-.78a4.6,4.6,0,0,0-.89-.44,7.21,7.21,0,0,0-1.77-.46,7.07,7.07,0,0,0-1.3-.05,6.33,6.33,0,0,0-1.23.21,2.72,2.72,0,0,0-.44.18,6.89,6.89,0,0,0-1.49,1l-1.3,1a2.18,2.18,0,0,1-.52.28,4,4,0,0,1-1.18.28,2.19,2.19,0,0,1-1.68-.53.49.49,0,0,1-.14-.18,1.52,1.52,0,0,1-.08-1.39.75.75,0,0,1,.15-.2l1.76-1.56,1.73-1.54.77-.7a4.92,4.92,0,0,1,.58-.44,1.26,1.26,0,0,1,.56-.2C279.81,313.19,280.06,313.17,280.3,313.17Z"/><path class="cls-12" d="M270,313.05s-.05.07-.07.1a18.52,18.52,0,0,0-2.08,2.6,20.28,20.28,0,0,0-2.4,4.93,17.86,17.86,0,0,0-.67,2.78,13.71,13.71,0,0,0-.16,1.42,16.47,16.47,0,0,0,0,1.72v0s-.06,0-.09,0l-5-2.59a.14.14,0,0,1-.08-.16c0-.44.07-.88.12-1.31.07-.61.16-1.21.27-1.81a23.12,23.12,0,0,1,1.81-5.8,13.63,13.63,0,0,1,2.09-3.21,10,10,0,0,1,1.71-1.53l.12-.09a.07.07,0,0,1,.09,0l.07,0,4.21,2.81Z"/><path class="cls-12" d="M298.41,313.16l.51-.36,3.69-2.53,0,0a.08.08,0,0,1,.12,0c.13.09.26.18.38.28a13.66,13.66,0,0,1,1.93,1.87,15.59,15.59,0,0,1,2.19,3.39,16.12,16.12,0,0,1,1,2.87,18.86,18.86,0,0,1,.42,2.09c0,.4.09.81.12,1.21,0,.64,0,1.29,0,1.93v0a.11.11,0,0,1-.08.12l-.54.26-1.7.81-2.78,1.34-.07,0a.15.15,0,0,1,0-.09c0-.41,0-.83,0-1.24s0-.89-.08-1.33-.11-1.16-.2-1.73a20.22,20.22,0,0,0-.64-2.77,13.74,13.74,0,0,0-1-2.42,10.53,10.53,0,0,0-1.55-2.24,8.35,8.35,0,0,0-1.76-1.43l-.07,0Z"/><path class="cls-12" d="M282.28,331.81a2.87,2.87,0,0,1-.13.82,9.33,9.33,0,0,1-.78,2,6.53,6.53,0,0,1-1.11,1.51,2,2,0,0,1-.54.4.93.93,0,0,1-1.17-.27,1.2,1.2,0,0,1-.23-.45,1.88,1.88,0,0,1,0-1.05l.18-.6a7,7,0,0,1,.77-1.58,7.2,7.2,0,0,1,.69-.95,3,3,0,0,1,1.14-.86,1,1,0,0,1,.29-.08.77.77,0,0,1,.83.54A1.87,1.87,0,0,1,282.28,331.81Z"/><path class="cls-12" d="M275.12,333.38a2.66,2.66,0,0,1,.13-.78,7.82,7.82,0,0,1,.81-1.85,4,4,0,0,1,.81-1,1.69,1.69,0,0,1,.71-.38,1,1,0,0,1,1.21.61,1.39,1.39,0,0,1,.11.6,4.85,4.85,0,0,1-.16,1,7.16,7.16,0,0,1-.42,1.12,5.4,5.4,0,0,1-.79,1.27,2.58,2.58,0,0,1-.6.54,1.23,1.23,0,0,1-1.16.08,1,1,0,0,1-.61-.81A2,2,0,0,1,275.12,333.38Z"/><path class="cls-12" d="M275.55,329.36a3.09,3.09,0,0,1-.43,1.52,3.38,3.38,0,0,1-.63.82,1.64,1.64,0,0,1-1.12.48,1.12,1.12,0,0,1-1.13-.91,2.22,2.22,0,0,1,0-.63,3.33,3.33,0,0,1,.48-1.33,3.29,3.29,0,0,1,1.06-1,1.53,1.53,0,0,1,1.06-.11,1,1,0,0,1,.64.67.76.76,0,0,1,.06.2C275.55,329.14,275.55,329.24,275.55,329.36Z"/><path class="cls-12" d="M284.41,334.76a1.53,1.53,0,0,1-.09.56,6.83,6.83,0,0,1-.74,1.6,3.85,3.85,0,0,1-.73.89,1,1,0,0,1-.64.24,1,1,0,0,1-.48-.16.64.64,0,0,1-.25-.42,2.15,2.15,0,0,1,0-.67,3.42,3.42,0,0,1,.28-.89,4.36,4.36,0,0,1,.91-1.38,2.06,2.06,0,0,1,.57-.45A1.23,1.23,0,0,1,284,334a.45.45,0,0,1,.34.3,1.28,1.28,0,0,1,.07.47Z"/><g id="o3SyUi.tif"><path class="cls-12" d="M282.06,311.78c-.51,0-1,0-1.53,0l-.5,0c-.25,0-.49,0-.74,0a1.12,1.12,0,0,0-.56.2,4.21,4.21,0,0,0-.58.44l-.77.7-1.24,1.1c-.34-.14-.44-.43-.44-1,0-3.52,0-7.05,0-10.58a.93.93,0,0,1,.66-1h.82a18.1,18.1,0,0,1,2.39.49,6.24,6.24,0,0,1,3.37,2.44,1.17,1.17,0,0,1,.21.65v6.55Z"/><path class="cls-12" d="M291.75,313.35a1.61,1.61,0,0,1-.06.48l-1.89-.78c-.74-.31-1.48-.62-2.21-1a5.49,5.49,0,0,0-1.81-.54,3.19,3.19,0,0,0-1.11,0l-.35.07h0v-6.34a1.36,1.36,0,0,1,.26-.83,6.54,6.54,0,0,1,4.23-2.62c.49-.11,1-.17,1.48-.25h.82a.92.92,0,0,1,.66,1C291.74,306.22,291.75,309.79,291.75,313.35Z"/><path class="cls-12" d="M274.61,314a3.76,3.76,0,0,0-.54-.25,4.9,4.9,0,0,0-.82-.2v-8.72a.94.94,0,0,1,.45-.51c.56-.25.85-.08.85.52v8.49A3.4,3.4,0,0,0,274.61,314Z"/><path class="cls-12" d="M294.2,305.1c0,3.21,0,6.42,0,9.63a3.82,3.82,0,0,1-.88-.24l-.54-.22a2.19,2.19,0,0,0,.12-.75c0-2.9,0-5.8,0-8.7,0-.19-.14-.46.12-.58a1,1,0,0,1,1,.32A.93.93,0,0,1,294.2,305.1Z"/></g><g id="_7Bt7F9.tif" data-name="7Bt7F9.tif"><path class="cls-12" d="M144.16,328.89l1.49,1.49a.44.44,0,0,1,.14.34c0,.41,0,.82,0,1.22,0,.16,0,.23-.21.22q-.63,0-1.26,0a.38.38,0,0,1-.3-.13c-1-1-2-2-3-3a.45.45,0,0,0-.33-.14q-1.45,0-2.91,0a.37.37,0,0,0-.3.13l-3,3.06a.42.42,0,0,1-.32.13c-.43,0-.85,0-1.28,0-.12,0-.17,0-.17-.16,0-.45,0-.9,0-1.36a.34.34,0,0,1,.11-.23l1.36-1.35.15-.16a5.51,5.51,0,0,1-1.1-.14,4.84,4.84,0,0,1-3.78-4.77q0-5.72,0-11.43a4.87,4.87,0,0,1,4-4.83,5.29,5.29,0,0,1,1-.08h9.65a4.89,4.89,0,0,1,4.87,3.86,5.32,5.32,0,0,1,.11,1.12v11.28a4.88,4.88,0,0,1-3.75,4.84A5.16,5.16,0,0,1,144.16,328.89Zm-4.9-8.17h6.31c.16,0,.22,0,.22-.21,0-3.13,0-6.27,0-9.4,0-.18-.06-.2-.22-.2H132.92c-.17,0-.21,0-.21.21,0,3.13,0,6.25,0,9.38,0,.18.06.22.23.22ZM136,324a1.63,1.63,0,1,0-3.26,0,1.63,1.63,0,0,0,3.26,0Zm9.8,0a1.63,1.63,0,1,0-1.63,1.63A1.65,1.65,0,0,0,145.78,324Z"/><path class="cls-12" d="M141,298.68a2.38,2.38,0,0,1-.69,1.67l-5.55,5.56a.4.4,0,0,1-.32.11,6.51,6.51,0,0,0-6.2,4.23,6.23,6.23,0,0,0-.41,2.42.45.45,0,0,1-.14.33l-5.19,5.18a.31.31,0,0,0-.12.31c.18,1.2.33,2.39.5,3.59a.49.49,0,0,1-.14.47c-.48.45-.94.92-1.39,1.4-.12.12-.17.12-.25,0l-2.67-4.83a.76.76,0,0,0-.29-.3l-4.85-2.68c-.16-.09-.15-.14,0-.26.5-.49,1-1,1.48-1.5a.27.27,0,0,1,.25-.09l3.78.57a.32.32,0,0,0,.28-.1c2-2,4-4.05,6.07-6.06.13-.14.09-.17,0-.25l-11.78-6.19c-.14-.07-.17-.11,0-.24.69-.67,1.37-1.34,2-2a.32.32,0,0,1,.33-.1l9.85,2.28,4.85,1.12c.13,0,.19,0,.27-.12l6.23-6.22a2.45,2.45,0,0,1,3.22-.2A2.51,2.51,0,0,1,141,298.68Z"/></g><g id="nVTTIy.tif"><path class="cls-12" d="M161.29,331.7c0,.37-.1.49-.47.49H148.67a.47.47,0,0,1-.52-.36,6.23,6.23,0,0,0-1.27-2H147A4.88,4.88,0,0,0,150.7,325V313.68a5.12,5.12,0,0,0-.1-1.1h9a2.19,2.19,0,0,1,1.69,2.24C161.29,320.45,161.28,326.07,161.29,331.7Z"/><path class="cls-12" d="M171,319.39a2.11,2.11,0,0,0-1.88-1c-1.9,0-3.81,0-5.71,0-.5,0-.64.14-.64.64,0,3.4,0,6.8,0,10.2,0,.17-.06.36.07.53a.59.59,0,0,0,.16-.06A5.17,5.17,0,0,1,171.5,332a.4.4,0,0,0,.2.28,3.11,3.11,0,0,0,2.11-.37v-7A18.65,18.65,0,0,0,171,319.39Zm.32,3.94h-3c-1,0-2,0-3,0-.46,0-.58-.15-.57-.59,0-.87,0-1.74,0-2.61,0-.37.11-.49.48-.48,1.27,0,2.54,0,3.82,0a.87.87,0,0,1,.77.38,26.6,26.6,0,0,1,1.75,2.83C171.88,323.3,171.69,323.33,171.33,323.33Z"/><path class="cls-12" d="M170.4,332.78a3.9,3.9,0,1,0-4.88,4.44c.17,0,.37,0,.52.15h1.09c.15-.17.37-.13.56-.19A3.91,3.91,0,0,0,170.4,332.78Zm-3.86,2.49a1.81,1.81,0,0,1,0-3.61,1.78,1.78,0,0,1,1.81,1.8A1.81,1.81,0,0,1,166.54,335.27Z"/></g><path class="cls-12" d="M328.6,207.89c-.34.39-.12,1.27-1.05,1.14s-1.8-.31-1.92-1.49c0-.32-.11-.65.29-.78,1-.35,1.54-1.52,2.66-1.71.19,0,.45.29.43.63C328.47,206.32,329.18,207.22,328.6,207.89Z"/><path class="cls-12" d="M330.84,202.45a2,2,0,0,1-.18.37c-.39-.09-.93-.06-1.15-.32a1.19,1.19,0,0,1-.13-1.5c.25-.4.65-.4.78,0S330,202.25,330.84,202.45Z"/><path class="cls-12" d="M331.49,204.53a.87.87,0,0,1-.68.83c-.27-.25-.87-.26-.85-.68,0-.61.7-.46,1.09-.62S331.53,204.24,331.49,204.53Z"/><path class="cls-12" d="M337.68,191.16c-.07.37-.49.48-.83.56s-.51-.17-.44.37a2.42,2.42,0,0,1-1.93,3,3.09,3.09,0,0,0-1.69,1.18c-.55-1.34.21-1.83,1-2.14,1.19-.45,2-1.07,2-2.48,0-.8.76-1.42,1.24-1.09C337.26,190.77,337.75,190.77,337.68,191.16Z"/><path class="cls-12" d="M317.08,195.27a.76.76,0,0,1-.77.77.77.77,0,0,1,0-1.54A.76.76,0,0,1,317.08,195.27Z"/><path class="cls-12" d="M333,191.61a3.77,3.77,0,0,0-1.77-1.43,7.8,7.8,0,0,0-2.51-.39,18.5,18.5,0,0,0-4.4.16,2.51,2.51,0,0,0-.38.11,1.62,1.62,0,0,1-1.62-.25l.15-.26-.16.25-.42-.25a2.73,2.73,0,0,0-.37.64,3.62,3.62,0,0,0,.48,2.95c.21.39.47.76.71,1.13a11.28,11.28,0,0,1,1,1.76c1.1,2.46.69,4.48,0,7.08l-.57-.15c.69-2.56,1.06-4.41.05-6.7a11.09,11.09,0,0,0-1-1.67c-.25-.37-.51-.76-.73-1.16a5.92,5.92,0,0,1-.42-.91,20.54,20.54,0,0,0-8-1l-.36,0c-1.72.19-3.68.4-4.93-.89a5.61,5.61,0,0,1-.86-1.26,4.16,4.16,0,0,0-1.06-1.39l.12-.18c-.18.12-.36.26-.53.4-.43.34-.13.86.22,1.23.05,0,.09.17.06.21a1.5,1.5,0,0,0-.27.8l.13-.22c.52.29,1.18.6,1.82.91s1.33.62,1.87.93a5.2,5.2,0,0,0,1.61.69,4.87,4.87,0,0,0,1.73-.11l.76-.12a9.68,9.68,0,0,1,3.07.28c1.42.37,2.29,1,2.5,1.83.39,1.49-1.48,3.15-2.6,4.15l-.33.29a9.13,9.13,0,0,1-1,.81,10.08,10.08,0,0,0-1,.77l-.17-.19a.38.38,0,0,1,0,.2c-.15,1.21.76,2,1,3.08.06.31.17.65.56.67s.47-.34.68-.56c.55-.59.11-1.52.54-2a10.48,10.48,0,0,1,2.71-2.38c.33-.19.53-.24.76.16s.76.89.73,1.56c0,.25.05.72.37.6,1.09-.4,1,.67.95.94a6.33,6.33,0,0,0,.79,3.35,6.41,6.41,0,0,0-1.14-.78.48.48,0,0,0-.54.09.31.31,0,0,0,0,.43c1.51,1.78,2.24,4.44,5.22,4.55.42,0,1,.63,1.2,0,.16-.44-.68-.33-.95-.67-.07-.09-.29-.09-.44-.1-.65-.05-1.43.1-1.4-1,0-.71-1-.93-.85-1.71a2.2,2.2,0,0,0-.78-2.39c-.39-.32-.85-1-.34-1.43s.93.38,1.1.68c.39.71.53.49,1,.06,1.18-1.1,1.28-1.63.23-2.9-.21-.25-.43-.44-.2-.8s.37-.62.58-.49c.79.46,1.25-.21,1.84-.42,2.14-.79,2.87-2.21,2.24-4.37-.07-.21-.28-.45-.08-.65,1.05-1,.08-1-.65-1.12.94-.63,2-.29,2.19.66.1.56.16,1.07.89.89.91-.23.44-.82.26-1.31A1.49,1.49,0,0,1,333,191.61Zm-3.4-13.91a.77.77,0,1,0,.78.77A.78.78,0,0,0,329.59,177.7Zm-16,2.34a.78.78,0,0,0-.74.54,1.38,1.38,0,0,0,.38.42,4.31,4.31,0,0,0,.77.47h0a.8.8,0,0,0,.36-.66A.78.78,0,0,0,313.58,180Zm1.79,3.28a2.24,2.24,0,0,0-.63-.8c-.28.49-.59,1-.91,1.42.32.11.64.23.93.36.44.18.77.33,1.08.49s.37.19.53.29l0,0,.21.12A9.42,9.42,0,0,1,315.37,183.32Zm6,5.91a21.72,21.72,0,0,1-3.64-2.78,1.93,1.93,0,0,1-.73-.23,3.28,3.28,0,0,1-.52-.36,4.64,4.64,0,0,0-.4-.26h0c-.16-.1-.32-.19-.5-.28s-.62-.29-1-.47a9.75,9.75,0,0,0-1.8-.6,11.61,11.61,0,0,0-3.06-.08l0-.58a11.93,11.93,0,0,1,3.21.08l.33.08c-.25-.38-.5-.76-.73-1.16a6.19,6.19,0,0,1-.49-1,1.78,1.78,0,0,1-.13-.64,1.73,1.73,0,0,1,.19-.78h0a5.41,5.41,0,0,1-.16-1.16l-.5-.13c-1.49-.41-1.94-.07-2.05,1.53,0,.39,0,.79-.05,1.18-.14,1.11.53,2.16.22,3.26a2.4,2.4,0,0,0,.16,1.82c.32.64.49,1.18-.64,1.06-.54-.06-1.09-.07-1.63-.17a1.7,1.7,0,0,0-1,.15,5.21,5.21,0,0,1,1.09,1.48,6.05,6.05,0,0,0,.77,1.15c1,1.08,2.86.88,4.45.7l.35,0a21,21,0,0,1,7.84.9A3.17,3.17,0,0,1,321,190,3.07,3.07,0,0,1,321.39,189.23Zm8.2-11.53a.77.77,0,1,0,.78.77A.78.78,0,0,0,329.59,177.7Zm-7.61,7a.77.77,0,1,0,.77.77A.77.77,0,0,0,322,184.73Zm-4.46,12.16h0a2.61,2.61,0,0,0,.9-2.06c-.21-.81-1.4-1.23-2.09-1.41a8.71,8.71,0,0,0-2.85-.26c-.24,0-.49.07-.73.11a5.67,5.67,0,0,1-1.93.11,6,6,0,0,1-1.81-.76c-.51-.3-1.18-.61-1.82-.91s-1.15-.55-1.65-.82c.14.57.55,1.11.71,1.71-.65.36-1.85-.58-1.84.93a1.53,1.53,0,0,0-.56,0c-.67.18-1.84-.09-1.93.45-.2,1.14-.85,2.35-.22,3.54.88,1.65,2.12,3.11,2.64,5,.14.5.48.51.92.37a9.74,9.74,0,0,0,3.54-2,2.86,2.86,0,0,0,.91-1.21c.2-.65-.6-.71-.71-1.14h2.16a6.53,6.53,0,0,1,2.55,1.8,11,11,0,0,1,1-.77,10.08,10.08,0,0,0,1-.77l.34-.3,0-.05a13.86,13.86,0,0,1-.84-1.31,7.09,7.09,0,0,1-.5-1,2,2,0,0,1-.13-.65A1.75,1.75,0,0,1,318,195a1.66,1.66,0,0,1,0,.91A5.19,5.19,0,0,1,317.52,196.89Zm34.37-16.64a19,19,0,0,1-2.82-1.32,6.26,6.26,0,0,0-.93-.38,4.67,4.67,0,0,0-1.25-.2,2.85,2.85,0,0,0-.29,0c-.36.07-.67.26-1,.33a.9.9,0,0,1-.28,0c-1.94,0-3.72-1.07-5.69-1.06-.2,0-.4-.22-.6-.3-1-.4-2.25-1-2.95-.42-1.09.89-2.32.2-3.32.81-.14.09-.4,0-.45-.26-.23-.92-.86-1.6-1.47-1.23-1.51.9-2.79-.7-4.22-.07.29-.51.88-.7.57-1.39s-.84-.41-1.3-.54c-1.35-.39-2.62-.52-3.76.5a.59.59,0,0,1-.46.07c-2.05-.46-3.36,1.43-5.2,1.63-.07,0-.12.1-.16.16-.68,1-1.58.75-2.41.32a1.19,1.19,0,0,0-1.91,1,1.1,1.1,0,0,0,0,.31h.4a7.45,7.45,0,0,0,.06,1.26,1.84,1.84,0,0,1,.72-.34,1.73,1.73,0,0,1,2,2.24,5.48,5.48,0,0,1-.23.56,2.61,2.61,0,0,1,.89,1.06,8.75,8.75,0,0,0,1.5,2.18,19.82,19.82,0,0,0,4.36,3.54l0,0c-.33-.48-.66-1-.95-1.47a5.8,5.8,0,0,1-.49-1,1.59,1.59,0,0,1-.13-.64,1.75,1.75,0,0,1,3.46-.37,1.66,1.66,0,0,1-.06.91,5.52,5.52,0,0,1-.44,1c-.1.18-.2.35-.31.52a3.2,3.2,0,0,0,.42-.55A6.11,6.11,0,0,0,324,185a9,9,0,0,1,.55-1.86,4.19,4.19,0,0,1,4.34-2.3c-.14-.21-.27-.42-.39-.64a6.63,6.63,0,0,1-.5-1,2,2,0,0,1-.13-.65,1.76,1.76,0,0,1,1.4-1.69,1.74,1.74,0,0,1,2.06,1.33,1.57,1.57,0,0,1-.05.91,5.19,5.19,0,0,1-.45,1,13.57,13.57,0,0,1-.75,1.21l.22.11a3.35,3.35,0,0,0,.82.38,3.86,3.86,0,0,0,1.87-.16l6.42-1.65a10.59,10.59,0,0,1,4.77-.46,8.19,8.19,0,0,1,2.18.86l.85.47.68.39.73.38-.25.53c-.27-.13-.55-.28-.81-.43s-.36-.2-.53-.3h0l-.11-.06a10.07,10.07,0,0,0-2.86-1.27,10.27,10.27,0,0,0-4.51.46l-6.42,1.64a4.2,4.2,0,0,1-2.16.17,4.92,4.92,0,0,1-1-.43l-.27-.15-.11.16h0l-.15-.22a.76.76,0,0,1-.08-.11,3.58,3.58,0,0,0-4.31,1.81,7.89,7.89,0,0,0-.5,1.73,7,7,0,0,1-.75,2.24,6.64,6.64,0,0,1-1.1,1.26l-.43.44.34.2c.62.38.79.32,1.13.2a4.36,4.36,0,0,1,.45-.13,18.77,18.77,0,0,1,4.55-.16,8.58,8.58,0,0,1,2.7.42,4.41,4.41,0,0,1,2.05,1.67l-.36.24.15-.06c2.07-.63,2.63-2.29,3.08-4,.15-.61,0-1.35-1-1.08-.51.14-.58-.06-.4-.46.35-.77,2.14-1.62,3-1.78,1.07-.22,2.34.77,3.22-.58.22-.32.62-1,1.21-.35s-.24.77-.49,1a2.56,2.56,0,0,0-.69,3.25c.1.24.38.52.48.31.51-1,1.74-1.46,1.89-2.67s.57-1.72,1.76-1.46c.94.2,1.36-.46,2-.81s1.6.05,1.51-1.27c0-.62.85-.65,1.44-.44.22.08.38.29.59.39.72.31.88-.49,1.32-.73C352.39,180.62,352.1,180.3,351.89,180.25Z"/><path class="cls-12" d="M358.09,190.53a30.85,30.85,0,1,0-30.89,31.94A30.85,30.85,0,0,0,358.09,190.53Zm-18.65-25.26a26.07,26.07,0,0,1,5.14,3.09c-1.16.52-2,.63-2.84-.46a20.41,20.41,0,0,0-2.51-2.4Zm1.05,4a44.37,44.37,0,0,1-5.2.78c-.53.1-.61-.3-.76-.68a24.8,24.8,0,0,0-3-6.13A18.86,18.86,0,0,1,340.49,169.26ZM329.71,164a17.49,17.49,0,0,1,2.88,5.49c.26.72-.09.8-.64.8h-9.41c-.47,0-.86,0-.61-.72a18.25,18.25,0,0,1,2.84-5.51C326.35,162.15,328.15,162.14,329.71,164Zm-9.65,5.32a.88.88,0,0,1-1.12.71c-1.32-.18-2.64-.32-4-.52-.55-.07-1.06-.23-.4-.91a19.76,19.76,0,0,1,8.49-5.43A21,21,0,0,0,320.06,169.33Zm-4.88-4c-1,1-2,2-2.94,3.14-.72.87-1.4-.09-2.15,0A16.43,16.43,0,0,1,315.18,165.33Zm-13.42,12.42a31.92,31.92,0,0,1,5.92-7.57.79.79,0,0,1,.85-.25l.23,0c2.3.63,2,.4,1,2.08a30.53,30.53,0,0,0-3.42,7.86c-.24.9-.59,1.12-1.46.7a24.78,24.78,0,0,1-2.72-1.38A1,1,0,0,1,301.76,177.75ZM304,208.83l4.78,1.29a1.1,1.1,0,0,1,.69.59,33.13,33.13,0,0,0,5.71,7.16A28.36,28.36,0,0,1,304,208.83Zm7.76,2c2.55.26,4.8.48,7.06.69a.77.77,0,0,1,.75.61,29,29,0,0,0,3.2,7.66C317.94,218.29,314.52,215.14,311.73,210.81Zm19.9,9.16a31.38,31.38,0,0,0,2.35-4.78c.28-.93.63-1.85.91-2.79a1,1,0,0,1,1-.88c2.24-.2,4.48-.43,6.93-.67A21,21,0,0,1,331.63,220Zm4.22-11.24a78.78,78.78,0,0,0,1.38-9.43c.08-.68.21-1,1-1.1a76.15,76.15,0,0,0,8.63-1.18c.73-.17.91,0,.78.75A38.33,38.33,0,0,1,344.42,208c-.2.38-.36.74-.89.81-2.29.31-4.58.66-6.87,1C335.73,209.91,335.67,209.46,335.85,208.73Zm3.54,9.16c.94-1.15,2.12-2.08,3-3.3a10.25,10.25,0,0,0,1.38-1.89c1.2-3,4-2.92,6.7-3.76A28.11,28.11,0,0,1,339.39,217.89Zm15.26-16.69c-.26.74-.63,1.44-.85,2.19-1.09,3.55-4.29,3.79-7.26,4.72.54-1.7,1.17-3.16,1.64-4.69a46.14,46.14,0,0,0,1.31-6,1.39,1.39,0,0,1,1.19-1.35,20,20,0,0,0,5.45-2.14A25.39,25.39,0,0,1,354.65,201.2Zm.7-9a16.5,16.5,0,0,1-4.82,2.13c-.76.25-.74-.31-.74-.8,0-1.62,0-3.23,0-4.84a25.49,25.49,0,0,0-.43-4c-.11-.72-.37-1.07-1.14-.92s-.8.61-.68,1.23a42.17,42.17,0,0,1,.49,8.91,1.12,1.12,0,0,1-1.06,1.26c-2.89.56-5.81.93-8.73,1.28-.27,0-.57.08-.72-.24s.06-.92-.36-.88a4.7,4.7,0,0,0-1.47.67c-1.22.64-2.3,1.87-3.93.92-.42-.24-.72.07-.72.48s.13,1.14.87,1.16c.9,0,1.81,0,2.71,0,.62,0,.81.19.77.83a65.33,65.33,0,0,1-1.41,9.54c-.18.82-.55,1.12-1.37,1.07s-1.72,0-2.58.07c-.38,0-.75,0-.94.5-.45,1.27-.4,1.4,1,1.39a15,15,0,0,0,2-.1c.86-.11,1.24,0,.86,1a20.14,20.14,0,0,1-3,6.2c-1.72,2.11-3.58,2.08-5.24-.06a22.1,22.1,0,0,1-3.05-6.34c-.28-.79.1-.84.72-.83,1.16,0,2.32,0,3.48,0,0-.1.08-.21.11-.33a3.23,3.23,0,0,1-2.75-1.31,1,1,0,0,0-.77-.2c-1.37.22-1.74-.54-1.92-1.71-.3-1.86-.74-3.7-.94-5.57-.05-.45.21-1.24-.55-1.2s-1,.69-1.15,1.33a4.43,4.43,0,0,0,.09,1.4c.25,1.55.48,3.1.81,4.64.18.85-.15.95-.84.85-2.18-.32-4.35-.63-6.53-.93a1.52,1.52,0,0,1-1.31-1,32.62,32.62,0,0,1-1.59-3.93c-.13-.44-.25-1-.95-.67s-1.13.44-.82,1.25c.43,1.14.85,2.28,1.27,3.43a8,8,0,0,1-7.31-4.76,29.69,29.69,0,0,1-2.15-8.05c0-.3-.24-.67.08-.87s.49.14.74.22c.43.12.92.93,1.27.23s.57-1.41-.48-1.87a2.84,2.84,0,0,1-1.78-3.32,36.92,36.92,0,0,1,1.75-7.91c.31-.91.74-1.07,1.52-.49a9.46,9.46,0,0,0,3,1.42c.8.25,1.11.57.84,1.43a8.82,8.82,0,0,0-.33,2c0,.37-.37,1.05.29,1a1.47,1.47,0,0,0,1.56-1c.13-.53.12-1.09.24-1.63.06-.28,0-.72.42-.76,1.05-.08.74-.88.58-1.29a3.89,3.89,0,0,1,.22-2.88,38.27,38.27,0,0,1,3.77-7.58,1.21,1.21,0,0,1,1.44-.62c1.59.31,3.18.55,4.78.7.78.07.88.34.73,1-.08.37-.57,1,.14,1.19s1.43.05,1.57-.7c.23-1.33,1.08-1.29,2.07-1.22a65.37,65.37,0,0,0,9.07,0c1.16-.09,1.66.34,1.85,1.39.11.66.26,1.31.43,2,.11.37,0,1,.73.78s1.26-.35,1-1.26-.3-1.54-.5-2.3c-.15-.55,0-.75.57-.82,1.63-.19,3.28-.42,4.89-.72a1.31,1.31,0,0,1,1.53.71,25.51,25.51,0,0,1,2.5,4.66,1.11,1.11,0,0,0,1.23.82,3.85,3.85,0,0,0,.49-.07c.32-.06.43-.2.45-.37a1.59,1.59,0,0,0-.25-.75,47.06,47.06,0,0,0-2.22-4.29c-.24-.38-.85-.73-.44-1.31a3,3,0,0,1,2.53-.39,29,29,0,0,1,6,7.67c.12.22.24.45.05.66-.79.84.09,1.29.54,1.53a2.3,2.3,0,0,1,1,1.31,28.66,28.66,0,0,1,1.87,9A2.1,2.1,0,0,1,355.35,192.15Z"/><path class="cls-1" d="M214.68,183.85a38.37,38.37,0,1,0,38.37,38.37A38.37,38.37,0,0,0,214.68,183.85Zm0,69.09a30.72,30.72,0,1,1,30.72-30.72A30.72,30.72,0,0,1,214.68,252.94Z"/></svg>