<svg id="Layer_1" data-name="Layer 1" xmlns="http://www.w3.org/2000/svg" viewBox="0 0 1920 432"><defs><style>.cls-1{fill:#0d3150;}.cls-2{fill:#0c2d4b;}.cls-3{fill:#0e2f48;}.cls-4{fill:#008fc0;}.cls-5{fill:#062d4b;}.cls-6{fill:#fd9000;}.cls-7{fill:#008037;}.cls-8{fill:#ff9000;}.cls-9{fill:#ff001a;}.cls-10{fill:#ff0016;}.cls-11{fill:#fff;}.cls-12{font-size:72.14px;fill:#0c3250;font-family:Poppins-SemiBold, Poppins;font-weight:600;letter-spacing:-0.02em;}</style></defs><rect class="cls-1" x="516.73" y="71.96" width="8.89" height="288.07"/><polygon class="cls-2" points="393.54 319.83 384.01 241.46 437.68 190.75 439.49 192.66 386.78 242.46 396.15 319.52 393.54 319.83"/><rect class="cls-1" x="368.64" y="242.69" width="2.63" height="85.03" transform="translate(-96.95 270.59) rotate(-35.84)"/><path class="cls-2" d="M396.17,321.47H251.56L206.85,191.06l117.22-81.14,116.39,81.15Zm-142.74-2.62H394.29l43-126.76-113.28-79L210,192.09Z"/><polygon class="cls-1" points="394.27 320.85 324.25 286.55 255.38 320.85 254.2 318.5 324.24 283.62 395.42 318.5 394.27 320.85"/><polygon class="cls-1" points="211.34 192.98 210.77 190.42 286.88 173.58 324.01 108.97 364.69 173.57 438.87 190.42 438.29 192.98 363.04 175.89 324.11 114.06 288.58 175.89 288.01 176.02 211.34 192.98"/><polygon class="cls-2" points="256.09 319.83 253.49 319.52 262.86 242.46 210.15 192.66 211.95 190.75 265.62 241.46 256.09 319.83"/><circle class="cls-3" cx="264.24" cy="241.96" r="6.68"/><circle class="cls-4" cx="287.73" cy="174.73" r="6.68"/><circle class="cls-5" cx="363.86" cy="174.73" r="6.68"/><line class="cls-1" x1="291.66" y1="213.4" x2="208.55" y2="191.7"/><rect class="cls-1" x="248.8" y="159.6" width="2.63" height="85.9" transform="translate(-9.07 393.37) rotate(-75.36)"/><rect class="cls-1" x="356.89" y="201" width="83.07" height="2.63" transform="matrix(0.97, -0.26, 0.26, 0.97, -38.46, 108.46)"/><line class="cls-1" x1="252.29" y1="319.67" x2="304.2" y2="249.14"/><rect class="cls-1" x="234.46" y="283.1" width="87.57" height="2.63" transform="translate(-115.75 339.87) rotate(-53.64)"/><rect class="cls-2" x="322.93" y="148.21" width="2.63" height="41.31"/><path class="cls-1" d="M300.68,212.68h13v3.5h-4.26v16.1h-4.52v-16.1h-4.26Z"/><path class="cls-1" d="M316.18,212.68h4.49v16h6.42v3.56H316.18Z"/><path class="cls-1" d="M329.22,212.68h6.33l3.51,13.13,3.55-13.13H349v19.6h-4V216l-4.57,16.31h-2.79L333,216v16.28h-3.8Z"/><circle class="cls-6" cx="324.38" cy="112.33" r="40.36"/><circle class="cls-4" cx="438.58" cy="191.7" r="40.36"/><circle class="cls-1" cx="394.84" cy="319.67" r="40.36"/><circle class="cls-1" cx="252.29" cy="319.67" r="40.36"/><circle class="cls-7" cx="208.55" cy="191.7" r="40.36"/><circle class="cls-8" cx="385.39" cy="241.96" r="6.68"/><circle class="cls-1" cx="362.72" cy="275.17" r="6.68"/><circle class="cls-1" cx="286.58" cy="274.36" r="6.68"/><circle class="cls-1" cx="263.9" cy="206.32" r="6.68"/><circle class="cls-9" cx="385.39" cy="206.32" r="6.68"/><circle class="cls-10" cx="324.24" cy="164.2" r="6.68"/><circle class="cls-8" cx="324.24" cy="286.51" r="6.68"/><path class="cls-11" d="M187.57,192.37a5,5,0,0,0,1.16-.16,7.81,7.81,0,0,0,2.48-1,4.12,4.12,0,0,0,1.62-1.74,2.58,2.58,0,0,0,.26-1.57,3.48,3.48,0,0,0-1-1.86,5.12,5.12,0,0,0-1.15-.85,6.93,6.93,0,0,0-1.27-.57,17.33,17.33,0,0,0-1.76-.42,1.07,1.07,0,0,0-1.23.64,1.84,1.84,0,0,0-.07.84c0,.22,0,.28-.28.28h-3a.57.57,0,0,0-.6.65.55.55,0,0,0,.6.58h1.49c.51,0,1,0,1.54,0,.14,0,.21,0,.2.18,0,.61,0,1.22,0,1.82,0,.13,0,.17-.17.17l-1,0c-.66,0-1.32,0-2,0a.65.65,0,0,0-.43.14.7.7,0,0,0-.19.79.66.66,0,0,0,.6.35c1,0,1.95,0,2.92,0,.24,0,.3.07.27.28s0,.34,0,.51A1,1,0,0,0,187.57,192.37Z"/><path class="cls-11" d="M185.25,181.46a3.62,3.62,0,0,1,2.14,1.25c.25.29.44.62.69.91s.32.36.58.29.33-.45.06-.74A13.79,13.79,0,0,0,187.6,182a3.36,3.36,0,0,0-1.11-.68,14.9,14.9,0,0,1-2.14-.9,12.33,12.33,0,0,1-1.88-1.13,6.69,6.69,0,0,1-1.48-1.38c.39.31.78.63,1.2.9a13.87,13.87,0,0,0,4,1.7c.76.21,1-.27,1-.73a8.19,8.19,0,0,0-.39-1.75,3.67,3.67,0,0,0-1.25-1.66,4.42,4.42,0,0,0-1.94-.73,14.4,14.4,0,0,0-1.85-.24c-.66,0-1.32-.11-2-.17a8.29,8.29,0,0,1-1.7-.29,5.34,5.34,0,0,1-1.42-.65,8.88,8.88,0,0,0,.55,2.68,6.22,6.22,0,0,0,1.94,2.77,6.94,6.94,0,0,0,3.85,1.5C183.71,181.32,184.49,181.32,185.25,181.46Z"/><path class="cls-11" d="M234.05,193.61a5.12,5.12,0,0,0-1.77-1.46,14.7,14.7,0,0,0-4.09-1.31c-.66-.17-1.32-.28-2-.45a11.31,11.31,0,0,1-2.34-.79,14,14,0,0,1-2.94-2c-.38-.46-.84-.83-1.26-1.26a31.75,31.75,0,0,0-2.36-2.28,9.32,9.32,0,0,0-1.33-1,1.66,1.66,0,0,0-.49-.32s0,0-.06-.05a1.53,1.53,0,0,1-.21-.14h0a.87.87,0,0,0-.24-.15l-.65-.35a15.36,15.36,0,0,0-1.5-.64,13,13,0,0,0-2.3-.6,3.06,3.06,0,0,0-.72-.14c-.44-.08-.87-.11-1.31-.15a9.48,9.48,0,0,0-1.5-.05c-.49,0-1,0-1.49.05s-1.22.11-1.82.21c-1.1.17-2.19.39-3.28.63l-.38.08a0,0,0,0,0,0,0s-.08,0-.12,0l-2.38.56c-.84.2-1.7.4-2.56.54l-1.39.26a1.06,1.06,0,0,0-.25,0,15,15,0,0,1-2,.16h-1.53a.42.42,0,0,0-.34.13.62.62,0,0,0,.25,1.07,7.79,7.79,0,0,1,2.52,1.39,5.78,5.78,0,0,1,1,1.23,3,3,0,0,1,.12,2.79,4.92,4.92,0,0,1-2.25,2.28,9.18,9.18,0,0,1-2.57.87,2.1,2.1,0,0,1-1.61-.12c-.09-.06-.11,0-.11.07a7.37,7.37,0,0,0,0,2.15,5.45,5.45,0,0,0,1.57,3.17c.22.18.43.34.71.24a.69.69,0,0,0,.44-.56,5.39,5.39,0,0,1,.52-1.35,6.86,6.86,0,0,1,2.51-2.67,6.32,6.32,0,0,1,2.68-.93,5,5,0,0,1,.86-.08,8.32,8.32,0,0,1,1.12.1,6.92,6.92,0,0,1,2.43.82,6,6,0,0,1,2.16,2,7.3,7.3,0,0,1,1,3.08.85.85,0,0,0,.85.81c1.4,0,2.79,0,4.18,0a.1.1,0,0,0,.07,0h7.59a.65.65,0,0,0,.61-.63,6,6,0,0,1,.62-2.31,9.34,9.34,0,0,1,1.05-1.62,7.77,7.77,0,0,1,1.17-1.05,7.68,7.68,0,0,1,1.91-.93,8.46,8.46,0,0,1,1.2-.23,5.92,5.92,0,0,1,2.14.08,8.33,8.33,0,0,1,1.78.61c0,.06.07.08.12.09a6.28,6.28,0,0,1,1.45,1.06,6.72,6.72,0,0,1,1.15,1.5,6.58,6.58,0,0,1,.88,2.6.56.56,0,0,0,.58.55,3.51,3.51,0,0,0,1.07-.21,5.13,5.13,0,0,0,1.91-1.06,4.17,4.17,0,0,0,1.38-2A2.49,2.49,0,0,0,234.05,193.61Zm-21.18-5.21c-2.16,3-4.32,6-6.48,9.1,0-.15.07-.26.1-.4a.11.11,0,0,0,0-.09V197s0,0,0,0,0,0,0,0h0a6,6,0,0,0,.22-.68v-.09c0-.06,0-.12.06-.15s0,0,0,0a.37.37,0,0,0,.08-.22v0a5.74,5.74,0,0,1,.29-.95c.06-.21.12-.41.19-.63a1,1,0,0,1,0-.1c.22-.71.45-1.4.66-2.09.11-.29.18-.58.28-.87,0-.12,0-.2-.13-.18q-.87,0-1.74.12a4.8,4.8,0,0,0-.85,0c-.1,0-.13,0-.1-.13l.69-3.19c.23-1.06.49-2.11.7-3.17.06-.32.29-.23.46-.26.37-.05.75-.06,1.12-.12l0,0h0v0s0,0,0,0h.05a.54.54,0,0,0,.33,0h.25a4.26,4.26,0,0,0,.5-.06c.13,0,.26,0,.39,0a.24.24,0,0,0,.12,0c.43,0,.84-.09,1.3-.11a5.79,5.79,0,0,1-.44.86l-1,1.91c-.32.57-.61,1.14-.93,1.7-.07.14-.1.2.1.2.83,0,1.66-.07,2.47-.1a5.81,5.81,0,0,0,1.18-.08h0S212.87,188.37,212.87,188.4Z"/><path class="cls-11" d="M227.74,197.22a5.51,5.51,0,0,0-1.48-1.91,4.76,4.76,0,0,0-1.79-.95,5.83,5.83,0,0,0-.66-.17,5.19,5.19,0,0,0-2.15,0,5.29,5.29,0,0,0-2.84,1.64,5.54,5.54,0,0,0-1.21,2.17,5.37,5.37,0,0,0,.5,4.05,5,5,0,0,0,1.12,1.39,6.48,6.48,0,0,0,1.09.77,1.36,1.36,0,0,1,.21.1,5,5,0,0,0,1.79.48,5.39,5.39,0,0,0,5.59-3.48,5,5,0,0,0,.31-2.34A5.6,5.6,0,0,0,227.74,197.22Zm-5.52,5a4.59,4.59,0,0,1-1.09-.4h0c0-.1-.09-.15-.15-.23a2.74,2.74,0,0,1-1-2.75,2.87,2.87,0,0,1,3.17-2.25.39.39,0,0,0,.26,0v0h0a1.34,1.34,0,0,0,.52.14s0,.05,0,.05h0a.4.4,0,0,0,.22.17,2.83,2.83,0,0,1,1.48,2.25A2.86,2.86,0,0,1,222.22,202.26Z"/><path class="cls-11" d="M201.28,198.25a5.44,5.44,0,0,0-2-3.09,2.53,2.53,0,0,0-.87-.51.14.14,0,0,0-.09-.05.93.93,0,0,0-.37-.15,4.72,4.72,0,0,0-1.82-.35,5.69,5.69,0,0,0-.72,0,5.36,5.36,0,0,0-4.24,3,5.38,5.38,0,0,0,2.26,7c.09.09.22.09.31.13a5.38,5.38,0,0,0,7.29-2.74A5,5,0,0,0,201.28,198.25Zm-4,3.8a3,3,0,0,1-2.54,0c-.07,0-.14-.09-.22-.06h0a4.15,4.15,0,0,1-1.05-1.12,2.81,2.81,0,0,1,.6-3.54,2.51,2.51,0,0,1,1.43-.67,3.69,3.69,0,0,1,1.24,0h0c0,.09.11.09.17.1a2.86,2.86,0,0,1,.37,5.29Z"/><path class="cls-11" d="M188.23,182.05a1.38,1.38,0,0,0,.22-.26,2.28,2.28,0,0,1,2-1.08,5.4,5.4,0,0,0,1.73-.32,3.33,3.33,0,0,0,1.17-.74,3.42,3.42,0,0,0,.9-1.59,4.61,4.61,0,0,0,.19-1.11h-.07a3.94,3.94,0,0,1-2,.53c-.56.05-1.12.09-1.67.19a2.09,2.09,0,0,0-1.54.93,3.16,3.16,0,0,0-.35,1.19c-.07.41.16.6.52.49a8,8,0,0,0,1.27-.46,6,6,0,0,0,1.1-.65.5.5,0,0,1-.18.23,9.17,9.17,0,0,1-2.42,1.32,2.8,2.8,0,0,0-1.21,1.08c-.08.1,0,.2.05.28S188.15,182.12,188.23,182.05Z"/><path class="cls-11" d="M339.83,128q-1.89-7.23-3.79-14.43c-.12,0-.21.1-.31.13a2.06,2.06,0,0,1-1.56,0,22.51,22.51,0,0,1-7.95-4.84l0,0a1.46,1.46,0,0,1,0,.29c0,.36-.12.41-.41.41q-1.14,0-2.28,0c-.33,0-.46-.08-.43-.44.07-1.29.1-2.61.15-3.92l0,0c0-.17,0-.33,0-.49a12.14,12.14,0,0,1-.94-4.88c.05-2.33,0-4.68,0-7h-3.62q-1.62,6.2-3.25,12.4-3.33,12.69-6.68,25.38a1,1,0,0,0-.05.43h13.47c0-.95.08-1.91.1-2.87,0-.24.09-.32.34-.32h4c.26,0,.34.08.35.32,0,1,.05,1.92.08,2.87h13.49A22.88,22.88,0,0,0,339.83,128ZM326.3,123c-1.12,0-2.26,0-3.39,0-.29,0-.39-.08-.37-.39.13-2.67.24-5.35.34-8,0-.33.11-.42.42-.41q1.36,0,2.7,0c.31,0,.43.08.44.41,0,1.34.1,2.7.16,4h0c.06,1.3.1,2.59.18,3.87C326.8,122.93,326.69,123,326.3,123Z"/><path class="cls-11" d="M348.6,93.79c0-1.55,0-3.11,0-4.65A1.93,1.93,0,0,0,346.69,87c-.86-.13-1.74-.23-2.58-.44a18.68,18.68,0,0,1-5.85-2.84,2.13,2.13,0,0,0-2.73,0,20.19,20.19,0,0,1-3.4,2,15.83,15.83,0,0,1-5.3,1.32,1.69,1.69,0,0,0-1.57,1.5,2.6,2.6,0,0,0,0,.4,5.65,5.65,0,0,0,0,.58c0,2.16,0,4.31,0,6.47v1a12.11,12.11,0,0,0,.17,2.2,1.08,1.08,0,0,0,.05.21,10,10,0,0,0,.35,1.33l.15.39a11.59,11.59,0,0,0,2.87,4.2,20.2,20.2,0,0,0,6.14,4l.06,0c.38.17.77.31,1.15.46a1.65,1.65,0,0,0,.56.14,1.84,1.84,0,0,0,.89-.11l.22-.1c.86-.35,1.71-.73,2.52-1.13a17.82,17.82,0,0,0,4.89-3.5,13.46,13.46,0,0,0,2.25-3,8.4,8.4,0,0,0,1-2.92A40.2,40.2,0,0,0,348.6,93.79Zm-4.12,7.75a12.47,12.47,0,0,1-1.38,1.67,14.42,14.42,0,0,1-3.85,2.75c-.68.36-1.4.68-2.13,1a1.19,1.19,0,0,1-.24,0V97.45c0-.19,0-.39,0-.58a1,1,0,0,0-.55-.05h-7.75c-.47,0-.58-.13-.57-.58,0-1.17,0-2.34,0-3.5,0-.42,0-.86,0-1.3V90.11c0-.29.07-.44.37-.47a18.78,18.78,0,0,0,8.16-3.21l.22-.13h.1c.1.08.05.2.05.3v9.88c0,.13,0,.26,0,.39a.4.4,0,0,1,.26-.08l.22,0c2.65,0,5.27,0,7.91,0,.44,0,.49.15.5.53A6.76,6.76,0,0,1,344.48,101.54Z"/><path class="cls-11" d="M317.19,92.74h-1.75c-.05.15-.09.31-.15.45L302,125.63c-.71,1.75-1.44,3.48-2.17,5.22,0,.21.2.09.29.09h4.37a15.13,15.13,0,0,1,.7-2.26q6-17.91,11.94-35.82Z"/><path class="cls-11" d="M349.29,130.47l-8-19.62a22.81,22.81,0,0,1-2.58,1.5q3,9,6,18.09a.9.9,0,0,1,.12.51h4.36c.09,0,.25.12.29-.09S349.34,130.6,349.29,130.47Z"/><path class="cls-11" d="M393.2,336.14a9.21,9.21,0,0,0,.6-1.28,6.39,6.39,0,0,0,.38-1.36,2.92,2.92,0,0,0-.05-1.14,1.82,1.82,0,0,0-.11-.28,1.08,1.08,0,0,0-.91-.6,1.83,1.83,0,0,0-1.33.37,4.77,4.77,0,0,0-.84.84,7.51,7.51,0,0,0-.47.68.32.32,0,0,1-.08.09.42.42,0,0,0,0-.1,4.06,4.06,0,0,0,.33-1,2.82,2.82,0,0,0,0-1.12,1.36,1.36,0,0,0-1.09-1,2,2,0,0,0-1.25.23,3.2,3.2,0,0,0-1,.86l-.21.28s0-.05,0-.08a3.38,3.38,0,0,0,.24-1.08,1.41,1.41,0,0,0-1.11-1.53,1.88,1.88,0,0,0-1.53.24,4.57,4.57,0,0,0-.95.86,5.26,5.26,0,0,0-.49.65s0,.06-.06.07,0,0-.05,0a23.14,23.14,0,0,0-1.78-1.5c-.78-.62-1.58-1.22-2.39-1.83a.69.69,0,0,0-.26-.12l-1.56-.37c-.1,0-.1,0-.09-.13,0-.43.08-.85.14-1.28a17.29,17.29,0,0,1,3.64-8.39,12.84,12.84,0,0,1,1.27-1.39.2.2,0,0,1,.22-.05l1.39.43a1.65,1.65,0,0,0,.38,0,5.5,5.5,0,0,1,1.34.27,3,3,0,0,1,.89.49c.16.14.12.12,0,.22-.47.44-.94.89-1.42,1.32a1.83,1.83,0,0,0-.48.77,2.47,2.47,0,0,0-.05,1.32,1.62,1.62,0,0,0,.69.95,2.88,2.88,0,0,0,1.17.45,4.22,4.22,0,0,0,2.5-.33.57.57,0,0,0,.16-.11c.73-.57,1.47-1.14,2.19-1.72a3.35,3.35,0,0,1,1.24-.61A4.79,4.79,0,0,1,394,319a7.44,7.44,0,0,1,2.42.57,8.9,8.9,0,0,1,1.39.76c.58.4,1.18.79,1.77,1.18,2.66,1.77,5.32,3.55,7.92,5.42.84.61,1.69,1.22,2.49,1.88.24.2.47.4.69.61a1.71,1.71,0,0,1,.49,1.39,1.85,1.85,0,0,1-.23.71,2.33,2.33,0,0,1-.42.57,1.44,1.44,0,0,1-.83.4,2.22,2.22,0,0,1-1.43-.42s-.05,0-.08,0,0,.06,0,.08a1.61,1.61,0,0,1,.29,1.25c0,.16,0,.31-.06.46a2.22,2.22,0,0,1-.65,1.13,2.85,2.85,0,0,1-.68.47,1.6,1.6,0,0,1-.68.15,3.75,3.75,0,0,1-1.55-.29.42.42,0,0,0-.12,0s0,.07,0,.1a2.14,2.14,0,0,1,0,1.15,2.27,2.27,0,0,1-1.05,1.25,2,2,0,0,1-.73.2,3.24,3.24,0,0,1-1.48-.18l-.07,0h0s0,.06,0,.1a1.69,1.69,0,0,1-.52,1.82,2.18,2.18,0,0,1-1.24.51,3,3,0,0,1-1.2-.18,7.26,7.26,0,0,1-1.42-.64,14.13,14.13,0,0,1-1.46-1l-.08-.06s0,0,0-.07l.05-.07a6.19,6.19,0,0,0,.55-1.09,3.2,3.2,0,0,0,.18-.91,1.34,1.34,0,0,0-.07-.52,1.05,1.05,0,0,0-.81-.7,1.15,1.15,0,0,0-.61,0,2.78,2.78,0,0,0-.87.49,5.12,5.12,0,0,0-.58.56A.22.22,0,0,1,393.2,336.14Z"/><path class="cls-11" d="M391.59,314.4c.18,0,.35,0,.52,0l1.54,0,1.24-.05c.35,0,.7,0,1.05-.08l.36-.07a3.25,3.25,0,0,1,1.12-.05,5.32,5.32,0,0,1,1.83.55c.74.35,1.49.66,2.24,1,1.19.5,2.37,1,3.56,1.46a4.58,4.58,0,0,0,1,.26,3.84,3.84,0,0,0,.76,0,2.57,2.57,0,0,0,1.53-.5,9.68,9.68,0,0,0,.85-.71l.15-.15s.07,0,.11,0a6.12,6.12,0,0,1,.5.39,10,10,0,0,1,2.23,2.83,13,13,0,0,1,1.33,3.73,14.88,14.88,0,0,1,.25,1.74q0,.57.06,1.14c0,.09,0,.09-.08.09a4.9,4.9,0,0,0-2.12.54,5.23,5.23,0,0,0-1.54,1.18c-.06.07-.06.08-.14,0l-3.37-2.27-1.92-1.29-3.12-2.1-3-2-1.18-.79a5,5,0,0,0-.9-.45,7.48,7.48,0,0,0-1.79-.46,7.29,7.29,0,0,0-1.32-.05,5.85,5.85,0,0,0-1.24.21,2.14,2.14,0,0,0-.44.18,7.2,7.2,0,0,0-1.51,1l-1.32,1a2.25,2.25,0,0,1-.53.28,3.82,3.82,0,0,1-1.19.28,2.22,2.22,0,0,1-1.71-.53.86.86,0,0,1-.14-.18,1.59,1.59,0,0,1-.08-1.41.53.53,0,0,1,.16-.2c.59-.53,1.18-1.06,1.78-1.58l1.75-1.56.78-.71a5.39,5.39,0,0,1,.59-.45,1.26,1.26,0,0,1,.57-.2C391.1,314.42,391.35,314.4,391.59,314.4Z"/><path class="cls-11" d="M381.14,314.28a.87.87,0,0,1-.08.1A17.77,17.77,0,0,0,379,317a20.2,20.2,0,0,0-2.44,5,20,20,0,0,0-.68,2.82c-.07.48-.12,1-.16,1.44a16.84,16.84,0,0,0,0,1.74.13.13,0,0,1,0,.06s-.06,0-.09,0l-5-2.62c-.08,0-.09-.09-.09-.17,0-.44.08-.88.13-1.32.07-.62.16-1.23.27-1.84a23.29,23.29,0,0,1,1.84-5.87,13.84,13.84,0,0,1,2.11-3.25,10.2,10.2,0,0,1,1.73-1.55l.13-.08a.06.06,0,0,1,.09,0l.07.05,4.26,2.84Z"/><path class="cls-11" d="M409.93,314.39l.52-.36,3.73-2.57.05,0a.08.08,0,0,1,.12,0l.39.29a13.93,13.93,0,0,1,1.95,1.89A16.12,16.12,0,0,1,420,320a18.48,18.48,0,0,1,.42,2.12c.05.4.09.81.12,1.22.05.65.05,1.3,0,2v0c0,.06,0,.09-.08.12l-.54.26-1.72.82-2.82,1.35-.07,0s0-.06,0-.09q0-.63,0-1.26c0-.45,0-.9-.08-1.35s-.12-1.17-.21-1.75a20.64,20.64,0,0,0-.64-2.8,14.54,14.54,0,0,0-1-2.46,10.39,10.39,0,0,0-1.57-2.26,8.31,8.31,0,0,0-1.78-1.45l-.07,0Z"/><path class="cls-11" d="M393.6,333.27a3,3,0,0,1-.14.84,8.74,8.74,0,0,1-.79,2,6.48,6.48,0,0,1-1.12,1.53,1.77,1.77,0,0,1-.54.4,1,1,0,0,1-1.19-.27,1.2,1.2,0,0,1-.23-.45,1.86,1.86,0,0,1,0-1.07c.05-.2.12-.41.18-.61a7.9,7.9,0,0,1,.78-1.6,7.12,7.12,0,0,1,.7-1,3.08,3.08,0,0,1,1.15-.87,1.11,1.11,0,0,1,.3-.08.78.78,0,0,1,.84.55A1.87,1.87,0,0,1,393.6,333.27Z"/><path class="cls-11" d="M386.35,334.86a3.16,3.16,0,0,1,.12-.79,8.39,8.39,0,0,1,.83-1.86,3.86,3.86,0,0,1,.81-1,1.88,1.88,0,0,1,.72-.39,1,1,0,0,1,1.24.62,1.29,1.29,0,0,1,.1.61,4.42,4.42,0,0,1-.16,1,7.56,7.56,0,0,1-.42,1.12,5.17,5.17,0,0,1-.8,1.29,2.9,2.9,0,0,1-.61.55,1.21,1.21,0,0,1-1.18.08,1.05,1.05,0,0,1-.61-.82A2.06,2.06,0,0,1,386.35,334.86Z"/><path class="cls-11" d="M386.78,330.79a3,3,0,0,1-.43,1.54,3.56,3.56,0,0,1-.65.84,1.64,1.64,0,0,1-1.12.48,1.14,1.14,0,0,1-1.15-.92,2.29,2.29,0,0,1,0-.64,3.42,3.42,0,0,1,.48-1.35,3.49,3.49,0,0,1,1.08-1.05,1.41,1.41,0,0,1,.45-.15,1.3,1.3,0,0,1,.62,0,1,1,0,0,1,.65.68.76.76,0,0,1,.06.2C386.78,330.57,386.78,330.67,386.78,330.79Z"/><path class="cls-11" d="M395.76,336.26a1.85,1.85,0,0,1-.1.57,7,7,0,0,1-.74,1.62,4,4,0,0,1-.75.9.94.94,0,0,1-.64.24,1,1,0,0,1-.49-.15.66.66,0,0,1-.25-.43,2.22,2.22,0,0,1,0-.68,3.49,3.49,0,0,1,.28-.9A4.48,4.48,0,0,1,394,336a1.82,1.82,0,0,1,.58-.45,1.2,1.2,0,0,1,.79-.09.43.43,0,0,1,.34.3,1.39,1.39,0,0,1,.06.19A2.64,2.64,0,0,1,395.76,336.26Z"/><g id="o3SyUi.tif"><path class="cls-11" d="M393.37,313l-1.54,0-.51,0-.75.05a1.26,1.26,0,0,0-.57.2,6.55,6.55,0,0,0-.59.45l-.78.71-1.25,1.11c-.35-.14-.44-.43-.44-1.06q0-5.35,0-10.71a1,1,0,0,1,.67-1.05h.83a16.77,16.77,0,0,1,2.42.5,6.27,6.27,0,0,1,3.41,2.48,1.08,1.08,0,0,1,.22.65c0,2.21,0,4.42,0,6.63Z"/><path class="cls-11" d="M403.18,314.59a1.68,1.68,0,0,1-.05.48l-1.91-.79c-.76-.32-1.51-.63-2.25-1a5.32,5.32,0,0,0-1.83-.55,3.25,3.25,0,0,0-1.12.05l-.36.07h0q0-3.21,0-6.42a1.42,1.42,0,0,1,.26-.84,6.63,6.63,0,0,1,4.29-2.65c.5-.11,1-.18,1.5-.26h.83a1,1,0,0,1,.67,1.05C403.18,307.36,403.18,311,403.18,314.59Z"/><path class="cls-11" d="M385.83,315.22a3.43,3.43,0,0,0-.55-.25,5.93,5.93,0,0,0-.83-.21v-8.83a1,1,0,0,1,.46-.51c.56-.25.86-.08.86.52v8.6A3.51,3.51,0,0,0,385.83,315.22Z"/><path class="cls-11" d="M405.67,306.23V316a4.59,4.59,0,0,1-.9-.24l-.54-.22a2.29,2.29,0,0,0,.12-.76c0-2.94,0-5.88,0-8.82,0-.19-.14-.46.12-.58a1,1,0,0,1,1,.32A1,1,0,0,1,405.67,306.23Z"/></g><g id="_7Bt7F9.tif" data-name="7Bt7F9.tif"><path class="cls-11" d="M253.73,330.32c.52.53,1,1,1.51,1.51a.44.44,0,0,1,.14.34c0,.41,0,.83,0,1.24,0,.16,0,.23-.21.22h-1.28a.38.38,0,0,1-.3-.13l-3-3.09a.44.44,0,0,0-.34-.14h-2.95a.39.39,0,0,0-.3.13c-1,1-2,2.06-3,3.1a.44.44,0,0,1-.32.13h-1.3c-.12,0-.18,0-.17-.16v-1.38a.3.3,0,0,1,.11-.23c.46-.45.91-.91,1.37-1.37a1.2,1.2,0,0,0,.15-.16,6.6,6.6,0,0,1-1.11-.14,4.93,4.93,0,0,1-3.83-4.84q0-5.78,0-11.57a4.92,4.92,0,0,1,4.06-4.89,5.33,5.33,0,0,1,1-.08h9.77a4.94,4.94,0,0,1,4.93,3.91,4.85,4.85,0,0,1,.11,1.14v11.42a4.93,4.93,0,0,1-3.8,4.9A5.17,5.17,0,0,1,253.73,330.32Zm-5-8.27h6.4c.16,0,.22,0,.22-.21q0-4.75,0-9.51c0-.18-.06-.21-.22-.21H242.35c-.18,0-.21.05-.21.21q0,4.76,0,9.5c0,.19.06.22.23.22Zm-3.32,3.31a1.65,1.65,0,1,0-1.65,1.65A1.65,1.65,0,0,0,245.44,325.36Zm9.93,0a1.65,1.65,0,1,0-1.65,1.66A1.66,1.66,0,0,0,255.37,325.35Z"/><path class="cls-11" d="M250.52,299.73a2.39,2.39,0,0,1-.7,1.69L244.2,307a.38.38,0,0,1-.33.12,6.58,6.58,0,0,0-6.27,4.28,6.23,6.23,0,0,0-.42,2.45.44.44,0,0,1-.14.34c-1.76,1.74-3.5,3.5-5.26,5.24a.35.35,0,0,0-.11.32c.17,1.21.33,2.42.5,3.63a.49.49,0,0,1-.15.48c-.48.46-.94.93-1.4,1.41-.12.13-.17.12-.25,0l-2.71-4.9a.68.68,0,0,0-.29-.29l-4.91-2.72c-.17-.09-.16-.14,0-.26.5-.5,1-1,1.49-1.52a.25.25,0,0,1,.25-.09l3.84.57a.29.29,0,0,0,.28-.1c2.05-2.05,4.09-4.1,6.15-6.14.13-.14.09-.17-.05-.25q-6-3.12-11.93-6.27c-.15-.07-.17-.11,0-.24.69-.68,1.38-1.36,2.06-2.05a.33.33,0,0,1,.34-.1l10,2.31,4.9,1.13c.14,0,.2,0,.28-.11l6.31-6.31a2.48,2.48,0,0,1,3.25-.2A2.56,2.56,0,0,1,250.52,299.73Z"/></g><g id="nVTTIy.tif"><path class="cls-11" d="M271.08,333.16c0,.38-.11.5-.48.5H258.3a.46.46,0,0,1-.53-.36,6.4,6.4,0,0,0-1.28-2h.07a5,5,0,0,0,3.79-4.91V314.92a5.1,5.1,0,0,0-.1-1.11h9.11a2.21,2.21,0,0,1,1.7,2.27C271.08,321.77,271.07,327.47,271.08,333.16Z"/><path class="cls-11" d="M280.92,320.7a2.14,2.14,0,0,0-1.91-1c-1.92,0-3.85,0-5.77,0-.51,0-.65.13-.65.65,0,3.44,0,6.88,0,10.32a.8.8,0,0,0,.08.54.76.76,0,0,0,.16-.06,5.23,5.23,0,0,1,8.58,2.31.36.36,0,0,0,.2.29,3.2,3.2,0,0,0,2.14-.37v-7.14A19.33,19.33,0,0,0,280.92,320.7Zm.32,4h-3c-1,0-2,0-3,0-.47,0-.59-.14-.57-.59,0-.88,0-1.76,0-2.64,0-.38.12-.5.49-.49,1.29,0,2.57,0,3.86,0a.9.9,0,0,1,.79.39,26.32,26.32,0,0,1,1.77,2.87C281.8,324.66,281.61,324.69,281.24,324.69Z"/><path class="cls-11" d="M280.3,334.26a3.95,3.95,0,1,0-4.94,4.49c.18.05.38,0,.52.16H277c.15-.18.38-.13.57-.19A4,4,0,0,0,280.3,334.26Zm-3.91,2.52a1.83,1.83,0,0,1,0-3.66,1.83,1.83,0,1,1,0,3.66Z"/></g><path class="cls-11" d="M440.5,207.79c-.34.39-.12,1.28-1.06,1.15s-1.82-.31-1.94-1.5c0-.34-.12-.66.29-.8,1-.35,1.56-1.53,2.69-1.73.2,0,.46.29.44.64C440.37,206.2,441.09,207.1,440.5,207.79Z"/><path class="cls-11" d="M442.77,202.28a2,2,0,0,1-.18.37c-.4-.08-.94-.06-1.17-.32a1.21,1.21,0,0,1-.13-1.52c.26-.41.67-.41.8,0S441.92,202.08,442.77,202.28Z"/><path class="cls-11" d="M443.43,204.39a.89.89,0,0,1-.69.84c-.28-.25-.88-.27-.86-.69,0-.62.71-.47,1.11-.63S443.47,204.09,443.43,204.39Z"/><path class="cls-11" d="M449.7,190.85c-.07.37-.5.48-.84.56s-.52-.17-.45.38a2.45,2.45,0,0,1-2,3.08,3.13,3.13,0,0,0-1.71,1.2c-.56-1.35.21-1.85,1-2.17,1.21-.45,2-1.08,2-2.51,0-.81.77-1.44,1.26-1.1C449.27,190.45,449.77,190.45,449.7,190.85Z"/><path class="cls-11" d="M428.84,195a.78.78,0,1,1-1.56,0,.79.79,0,0,1,.78-.78A.78.78,0,0,1,428.84,195Z"/><path class="cls-11" d="M445,191.3a3.86,3.86,0,0,0-1.79-1.45,8.09,8.09,0,0,0-2.55-.39,17.91,17.91,0,0,0-4.45.16,3.08,3.08,0,0,0-.39.11,1.62,1.62,0,0,1-1.64-.26l.15-.25-.15.25c-.15-.08-.29-.17-.43-.26a2.86,2.86,0,0,0-.37.66,3.65,3.65,0,0,0,.48,3c.22.39.47.77.72,1.14a12.07,12.07,0,0,1,1.05,1.78c1.1,2.5.69,4.55,0,7.17l-.58-.15c.7-2.59,1.08-4.46,0-6.78a11.27,11.27,0,0,0-1-1.69c-.26-.38-.52-.77-.75-1.17a8.75,8.75,0,0,1-.43-.92,20.84,20.84,0,0,0-8.07-1l-.35,0c-1.75.19-3.73.41-5-.9a6.34,6.34,0,0,1-.87-1.27,4.31,4.31,0,0,0-1.07-1.42l.12-.18c-.19.13-.37.27-.54.41-.43.35-.13.87.22,1.24a.26.26,0,0,1,.07.22,1.52,1.52,0,0,0-.28.8l.13-.22c.53.3,1.2.62,1.85.92s1.34.63,1.89.94a5.12,5.12,0,0,0,1.63.71,5,5,0,0,0,1.75-.11c.25,0,.51-.09.77-.12a9.37,9.37,0,0,1,3.11.28c1.44.37,2.32,1,2.53,1.85.4,1.51-1.5,3.19-2.63,4.2l-.34.3a9.36,9.36,0,0,1-1,.82,10,10,0,0,0-1,.78l-.18-.2a.34.34,0,0,1,0,.2c-.16,1.23.76,2.06,1,3.13.07.31.17.66.57.68s.48-.36.69-.57c.56-.6.11-1.54.54-2a11.14,11.14,0,0,1,2.75-2.41c.33-.19.54-.24.76.16s.77.91.75,1.58c0,.26.05.73.37.61,1.1-.41,1,.68,1,1a6.3,6.3,0,0,0,.79,3.4,6.78,6.78,0,0,0-1.15-.8.49.49,0,0,0-.55.1.31.31,0,0,0,0,.43c1.53,1.8,2.27,4.5,5.29,4.61.43,0,1,.64,1.21,0,.16-.44-.69-.34-1-.68-.07-.09-.29-.09-.45-.1-.65-.06-1.44.1-1.41-1,0-.72-1-.94-.86-1.73a2.25,2.25,0,0,0-.79-2.43c-.4-.31-.86-1-.35-1.44s.94.38,1.12.69c.39.72.53.49,1,.06,1.2-1.12,1.29-1.65.23-2.93-.22-.27-.43-.46-.2-.82s.37-.63.59-.5c.8.48,1.26-.21,1.86-.42,2.17-.8,2.91-2.24,2.27-4.42-.07-.22-.28-.47-.08-.67,1.06-1,.08-1-.66-1.13.95-.64,2-.3,2.22.67.1.57.16,1.08.9.9.92-.24.44-.83.26-1.32A1.52,1.52,0,0,1,445,191.3Zm-3.44-14.09a.79.79,0,0,0-.78.78.78.78,0,1,0,.78-.78Zm-16.22,2.38a.78.78,0,0,0-.74.54,1.53,1.53,0,0,0,.37.43,3.91,3.91,0,0,0,.79.47h0a.78.78,0,0,0-.42-1.44Zm1.82,3.32a2.11,2.11,0,0,0-.64-.81c-.29.5-.6,1-.92,1.43.32.11.64.24.94.37s.78.34,1.1.5.36.19.53.29l0,0,.21.12A9.19,9.19,0,0,1,427.11,182.91Zm6.09,6a21.32,21.32,0,0,1-3.68-2.82,1.81,1.81,0,0,1-.74-.23,3.84,3.84,0,0,1-.53-.36,2.75,2.75,0,0,0-.4-.26l0,0-.5-.28c-.3-.15-.63-.3-1.06-.48a10.49,10.49,0,0,0-1.82-.6,11.48,11.48,0,0,0-3.1-.08l0-.6a12.68,12.68,0,0,1,3.25.09l.33.08c-.26-.38-.51-.77-.74-1.17a6.73,6.73,0,0,1-.5-1,2.15,2.15,0,0,1-.13-.66,1.73,1.73,0,0,1,.19-.78h0a6.34,6.34,0,0,1-.16-1.18l-.51-.13c-1.51-.41-2-.07-2.08,1.55,0,.39,0,.8,0,1.19-.14,1.12.54,2.19.22,3.3a2.4,2.4,0,0,0,.17,1.84c.32.66.49,1.21-.66,1.08-.54-.06-1.1-.07-1.65-.17a1.73,1.73,0,0,0-1,.15,5.18,5.18,0,0,1,1.11,1.5,5.72,5.72,0,0,0,.78,1.16c1.06,1.1,2.89.9,4.5.72l.36,0a21.09,21.09,0,0,1,7.93.91,3.35,3.35,0,0,1,.11-1.9A3.81,3.81,0,0,1,433.2,188.89Zm8.31-11.68a.79.79,0,0,0-.78.78.78.78,0,1,0,.78-.78Zm-7.71,7.12a.8.8,0,0,0-.78.79.78.78,0,1,0,1.56,0A.79.79,0,0,0,433.8,184.33Zm-4.52,12.32h0a2.63,2.63,0,0,0,.9-2.09c-.21-.82-1.42-1.25-2.11-1.43a8.94,8.94,0,0,0-2.89-.26l-.74.11a4.37,4.37,0,0,1-3.78-.66c-.52-.3-1.2-.62-1.85-.92s-1.16-.55-1.67-.83c.14.58.56,1.13.72,1.73-.65.36-1.87-.58-1.86.94a1.59,1.59,0,0,0-.57,0c-.68.19-1.87-.08-1.95.46-.21,1.16-.86,2.39-.22,3.58.88,1.68,2.14,3.16,2.67,5,.14.52.48.53.93.38a9.86,9.86,0,0,0,3.58-2.06,2.89,2.89,0,0,0,.92-1.22c.21-.67-.6-.72-.72-1.16h2.19a6.49,6.49,0,0,1,2.59,1.82,8.7,8.7,0,0,1,1-.78,8.94,8.94,0,0,0,1-.78l.35-.3s0,0,0-.05a14.36,14.36,0,0,1-.86-1.33,6.84,6.84,0,0,1-.5-1.06,2,2,0,0,1-.13-.65,1.77,1.77,0,0,1,3.5-.37,1.69,1.69,0,0,1-.05.92A5.78,5.78,0,0,1,429.28,196.65Zm34.81-16.85a19.44,19.44,0,0,1-2.85-1.34,7,7,0,0,0-.95-.38,4.05,4.05,0,0,0-1.26-.2,1.36,1.36,0,0,0-.29,0c-.37.07-.68.25-1,.33a1,1,0,0,1-.28,0c-2,0-3.77-1.08-5.77-1.08-.2,0-.4-.22-.61-.3-1-.41-2.28-1-3-.42-1.09.9-2.34.2-3.35.82-.14.09-.4,0-.46-.26-.23-.94-.87-1.62-1.49-1.25-1.53.9-2.82-.72-4.27-.08.29-.51.89-.7.58-1.4s-.85-.42-1.32-.55c-1.36-.39-2.65-.52-3.81.51a.63.63,0,0,1-.46.07c-2.08-.47-3.41,1.45-5.27,1.65-.07,0-.12.1-.16.16-.69,1-1.6.76-2.44.33-1-.51-1.79-.14-1.93,1a.86.86,0,0,0,0,.32h.41a7.68,7.68,0,0,0,.06,1.28,1.64,1.64,0,0,1,.73-.34,1.77,1.77,0,0,1,2.09,1.34,1.69,1.69,0,0,1,0,.92,4,4,0,0,1-.23.57,2.63,2.63,0,0,1,.9,1.08,9.42,9.42,0,0,0,1.52,2.2,20.14,20.14,0,0,0,4.42,3.59l0-.05c-.34-.48-.67-1-1-1.48a6.08,6.08,0,0,1-.51-1.06,2,2,0,0,1-.13-.65,1.78,1.78,0,0,1,3.51-.37,1.8,1.8,0,0,1,0,.92,5.78,5.78,0,0,1-.46,1c-.1.17-.2.35-.31.52a4.53,4.53,0,0,0,.43-.55,6.52,6.52,0,0,0,.68-2.08,8.42,8.42,0,0,1,.55-1.88,4.24,4.24,0,0,1,4.4-2.33l-.4-.65a6.84,6.84,0,0,1-.5-1.06,2,2,0,0,1-.13-.65,1.77,1.77,0,0,1,3.5-.37,1.69,1.69,0,0,1-.05.92,5.78,5.78,0,0,1-.46,1c-.23.42-.49.82-.76,1.22l.22.12a4.18,4.18,0,0,0,.84.38,3.79,3.79,0,0,0,1.88-.17l6.51-1.66a10.58,10.58,0,0,1,4.83-.47,7.89,7.89,0,0,1,2.2.87c.3.15.58.32.87.48l.69.39.74.38-.26.54c-.27-.13-.55-.28-.82-.43l-.54-.3h0l-.11-.07a10,10,0,0,0-2.89-1.28,10.39,10.39,0,0,0-4.57.46l-6.5,1.67a4.43,4.43,0,0,1-2.19.16,4.69,4.69,0,0,1-1-.43l-.27-.15-.11.16h0c-.05-.08-.11-.15-.16-.22l-.08-.12a3.62,3.62,0,0,0-4.36,1.84,7.55,7.55,0,0,0-.51,1.75,6.92,6.92,0,0,1-.76,2.27,6.45,6.45,0,0,1-1.11,1.27l-.44.45.34.2c.64.38.81.32,1.15.21A2.31,2.31,0,0,1,436,189a18.71,18.71,0,0,1,4.6-.17,8.51,8.51,0,0,1,2.74.43,4.4,4.4,0,0,1,2.07,1.69l-.36.24.15-.06c2.1-.64,2.67-2.31,3.12-4.09.16-.62,0-1.37-1-1.09-.52.14-.59-.07-.4-.47.35-.78,2.16-1.64,3-1.81,1.08-.22,2.37.79,3.26-.58.22-.33.63-1,1.23-.35s-.25.77-.5,1a2.59,2.59,0,0,0-.7,3.29c.1.24.39.52.49.31.52-1,1.76-1.48,1.91-2.71s.58-1.73,1.79-1.47c.94.2,1.37-.47,2-.82s1.62,0,1.53-1.29c0-.62.86-.66,1.46-.44.22.08.39.29.6.39.72.31.88-.49,1.33-.74C464.59,180.17,464.3,179.85,464.09,179.8Z"/><path class="cls-11" d="M470.36,190.21a31.24,31.24,0,1,0-31.28,32.34A31.22,31.22,0,0,0,470.36,190.21Zm-18.88-25.58a27.15,27.15,0,0,1,5.2,3.12c-1.16.53-2,.64-2.87-.46a20.91,20.91,0,0,0-2.54-2.43Zm1.07,4a43.91,43.91,0,0,1-5.27.8c-.54.1-.62-.31-.77-.69a25.1,25.1,0,0,0-3.08-6.21A19.21,19.21,0,0,1,452.55,168.66Zm-10.92-5.31a18,18,0,0,1,2.92,5.56c.26.74-.1.81-.66.81h-9.52c-.48,0-.88,0-.62-.73a18.27,18.27,0,0,1,2.88-5.58C438.22,161.47,440,161.45,441.63,163.35Zm-9.78,5.39a.89.89,0,0,1-1.13.72c-1.34-.18-2.68-.32-4-.52-.56-.08-1.07-.24-.4-.93a20,20,0,0,1,8.59-5.5A21.64,21.64,0,0,0,431.85,168.74Zm-4.94-4.05c-1,1.05-2.05,2.06-3,3.18-.73.88-1.42-.09-2.18,0A16.63,16.63,0,0,1,426.91,164.69Zm-13.58,12.58a32.07,32.07,0,0,1,6-7.67.81.81,0,0,1,.86-.25l.23,0c2.33.64,2,.41,1,2.11a31,31,0,0,0-3.46,8c-.24.91-.59,1.14-1.48.72a26.47,26.47,0,0,1-2.76-1.4A1,1,0,0,1,413.33,177.27Zm2.23,31.47,4.85,1.31a1.11,1.11,0,0,1,.7.59,32.87,32.87,0,0,0,5.78,7.26A28.8,28.8,0,0,1,415.56,208.74Zm7.86,2c2.58.25,4.86.48,7.15.69a.78.78,0,0,1,.76.62,29.08,29.08,0,0,0,3.24,7.75C429.71,218.32,426.25,215.13,423.42,210.75ZM443.57,220a31.25,31.25,0,0,0,2.38-4.84c.29-1,.64-1.87.93-2.82a1,1,0,0,1,1-.89c2.27-.21,4.54-.44,7-.69A21.32,21.32,0,0,1,443.57,220Zm4.27-11.38a78.78,78.78,0,0,0,1.4-9.55c.08-.69.21-1,1-1.11a77.62,77.62,0,0,0,8.73-1.2c.75-.17.93,0,.79.76a38.94,38.94,0,0,1-3.26,10.31c-.2.38-.36.74-.9.82-2.32.31-4.63.67-7,1C447.73,209.84,447.67,209.38,447.84,208.64Zm3.59,9.27c.95-1.16,2.15-2.1,3-3.33a11.46,11.46,0,0,0,1.4-1.92c1.21-3,4.06-3,6.78-3.81A28.47,28.47,0,0,1,451.43,217.91ZM466.89,201c-.27.74-.64,1.45-.87,2.21-1.1,3.59-4.34,3.84-7.35,4.78.54-1.72,1.19-3.2,1.66-4.75a46.66,46.66,0,0,0,1.33-6,1.41,1.41,0,0,1,1.2-1.36,20.63,20.63,0,0,0,5.52-2.17A26.16,26.16,0,0,1,466.89,201Zm.7-9.18a16.57,16.57,0,0,1-4.88,2.17c-.77.25-.75-.32-.75-.82,0-1.63,0-3.26,0-4.89a26,26,0,0,0-.44-4c-.12-.73-.38-1.09-1.16-.94s-.8.62-.69,1.24a42.64,42.64,0,0,1,.5,9,1.12,1.12,0,0,1-1.07,1.27c-2.93.57-5.89.95-8.85,1.3-.27,0-.57.08-.73-.24s.07-.93-.36-.89a4.65,4.65,0,0,0-1.48.67c-1.25.65-2.34,1.9-4,.94-.42-.24-.73.07-.73.49s.14,1.15.89,1.17c.91,0,1.83,0,2.74-.05.62,0,.82.2.78.85a67.19,67.19,0,0,1-1.43,9.66,1.16,1.16,0,0,1-1.38,1.09c-.87,0-1.75,0-2.62.06-.39,0-.75,0-.95.51-.46,1.29-.41,1.41,1,1.41a15.33,15.33,0,0,0,2-.1c.86-.12,1.25,0,.87,1a20.32,20.32,0,0,1-3.09,6.28c-1.74,2.13-3.63,2.11-5.31-.07a22.47,22.47,0,0,1-3.09-6.41c-.28-.8.11-.86.74-.84,1.17,0,2.34,0,3.52,0,0-.11.08-.22.11-.33a3.29,3.29,0,0,1-2.78-1.33,1,1,0,0,0-.78-.21c-1.4.22-1.76-.55-1.95-1.73-.31-1.88-.75-3.74-1-5.64,0-.46.22-1.25-.56-1.21s-1.06.69-1.16,1.34a4.57,4.57,0,0,0,.09,1.42c.25,1.57.49,3.14.82,4.7.18.86-.16,1-.85.86-2.21-.32-4.41-.64-6.61-.94a1.55,1.55,0,0,1-1.33-1,33.6,33.6,0,0,1-1.61-4c-.13-.44-.25-1-1-.67s-1.15.45-.83,1.27c.43,1.15.86,2.3,1.28,3.47a8.08,8.08,0,0,1-7.4-4.82,30.51,30.51,0,0,1-2.18-8.16c0-.29-.24-.67.08-.87s.5.14.75.22c.44.12.93.93,1.29.22.27-.55.58-1.42-.49-1.89a2.86,2.86,0,0,1-1.8-3.35,37.8,37.8,0,0,1,1.77-8c.32-.92.75-1.08,1.55-.49a9.67,9.67,0,0,0,3,1.44c.81.24,1.12.58.85,1.44a9,9,0,0,0-.33,2c0,.38-.38,1.06.29,1a1.49,1.49,0,0,0,1.58-1c.13-.54.12-1.11.24-1.65.06-.29,0-.73.43-.77,1.06-.08.74-.89.58-1.31a3.92,3.92,0,0,1,.23-2.91,38.43,38.43,0,0,1,3.81-7.68,1.25,1.25,0,0,1,1.46-.63c1.61.31,3.22.56,4.84.71.8.07.9.34.74,1.05-.08.38-.57,1,.15,1.2.57.14,1.44.06,1.58-.71.24-1.34,1.1-1.29,2.1-1.22a65.4,65.4,0,0,0,9.18,0c1.18-.08,1.69.34,1.88,1.41a18.88,18.88,0,0,0,.44,2c.1.38,0,1,.73.79s1.28-.35,1-1.27c-.19-.77-.29-1.56-.5-2.33-.15-.56,0-.76.57-.83,1.66-.19,3.32-.42,5-.73a1.32,1.32,0,0,1,1.55.72,25,25,0,0,1,2.53,4.72,1.13,1.13,0,0,0,1.25.83,3.05,3.05,0,0,0,.5-.08c.32-.06.43-.2.45-.37a1.61,1.61,0,0,0-.26-.75c-.72-1.47-1.38-3-2.24-4.35-.25-.39-.86-.74-.45-1.32a3,3,0,0,1,2.57-.4,29.67,29.67,0,0,1,6.07,7.76c.12.22.24.46.05.67-.8.86.09,1.31.54,1.55a2.29,2.29,0,0,1,1.06,1.33,29.37,29.37,0,0,1,1.9,9.07A2.13,2.13,0,0,1,467.59,191.84Z"/><path class="cls-1" d="M325.14,183.44A38.86,38.86,0,1,0,364,222.3,38.86,38.86,0,0,0,325.14,183.44Zm0,70a31.11,31.11,0,1,1,31.11-31.11A31.11,31.11,0,0,1,325.14,253.41Z"/><text class="cls-12" transform="translate(559.49 202.79)">CENTER <tspan x="0" y="86.57">FOR RESEARCH TRANSPORT ISSUES</tspan></text></svg>