<svg id="Layer_1" data-name="Layer 1" xmlns="http://www.w3.org/2000/svg" viewBox="0 0 1920 432"><defs><style>.cls-1{fill:#fff;}.cls-2{fill:#008fc0;}.cls-3{fill:#fd9000;}.cls-4{fill:#2980bf;}.cls-5{fill:#008037;}.cls-6{fill:#ff9000;}.cls-7{fill:#ff001a;}.cls-8{fill:#ff0016;}</style></defs><rect class="cls-1" x="423.69" y="69.62" width="9.04" height="292.77"/><polygon class="cls-1" points="298.49 321.52 288.81 241.87 343.35 190.34 345.18 192.28 291.62 242.89 301.14 321.2 298.49 321.52"/><rect class="cls-1" x="273.18" y="243.13" width="2.67" height="86.42" transform="translate(-115.67 214.93) rotate(-35.84)"/><path class="cls-1" d="M301.16,323.19h-147L108.76,190.66l119.12-82.47,118.29,82.47ZM156.1,320.52H299.25L343,191.7,227.88,111.44,111.94,191.7Z"/><polygon class="cls-1" points="299.23 322.56 228.07 287.7 158.07 322.56 156.88 320.17 228.06 284.73 300.4 320.16 299.23 322.56"/><polygon class="cls-1" points="113.32 192.61 112.74 190 190.09 172.88 227.83 107.23 269.17 172.88 344.56 190 343.97 192.61 267.5 175.24 227.93 112.4 191.82 175.24 191.24 175.37 113.32 192.61"/><polygon class="cls-1" points="158.81 321.52 156.15 321.2 165.68 242.89 112.11 192.28 113.95 190.34 168.49 241.87 158.81 321.52"/><circle class="cls-1" cx="167.08" cy="242.38" r="6.79"/><circle class="cls-2" cx="190.95" cy="174.06" r="6.79"/><circle class="cls-1" cx="268.33" cy="174.06" r="6.79"/><line class="cls-1" x1="194.96" y1="213.36" x2="110.49" y2="191.31"/><rect class="cls-1" x="151.39" y="158.69" width="2.67" height="87.3" transform="translate(-81.63 298.98) rotate(-75.36)"/><rect class="cls-1" x="261.24" y="200.75" width="84.42" height="2.67" transform="translate(-41.55 84.2) rotate(-14.8)"/><line class="cls-1" x1="154.94" y1="321.36" x2="207.7" y2="249.68"/><rect class="cls-1" x="136.82" y="284.19" width="89" height="2.67" transform="translate(-156.11 262.26) rotate(-53.64)"/><rect class="cls-1" x="226.73" y="147.1" width="2.67" height="41.98"/><path class="cls-1" d="M204.12,212.62h13.25v3.57H213v16.35h-4.59V216.19h-4.33Z"/><path class="cls-1" d="M219.87,212.62h4.57v16.3H231v3.62H219.87Z"/><path class="cls-1" d="M233.13,212.62h6.43L243.12,226l3.62-13.35h6.48v19.92h-4.05V216l-4.65,16.57h-2.83L237,216v16.54h-3.85Z"/><circle class="cls-3" cx="228.2" cy="110.64" r="41.02"/><circle class="cls-2" cx="344.27" cy="191.31" r="41.02"/><circle class="cls-4" cx="299.82" cy="321.36" r="41.02"/><circle class="cls-4" cx="154.94" cy="321.36" r="41.02"/><circle class="cls-5" cx="110.49" cy="191.31" r="41.02"/><circle class="cls-6" cx="290.21" cy="242.38" r="6.79"/><circle class="cls-1" cx="267.16" cy="276.13" r="6.79"/><circle class="cls-1" cx="189.79" cy="275.31" r="6.79"/><circle class="cls-1" cx="166.74" cy="206.16" r="6.79"/><circle class="cls-7" cx="290.21" cy="206.16" r="6.79"/><circle class="cls-8" cx="228.06" cy="163.36" r="6.79"/><circle class="cls-6" cx="228.06" cy="287.66" r="6.79"/><path class="cls-1" d="M89.17,192a5.08,5.08,0,0,0,1.17-.17,7.73,7.73,0,0,0,2.52-1A4.2,4.2,0,0,0,94.52,189a2.56,2.56,0,0,0,.25-1.59,3.52,3.52,0,0,0-1-1.89,5.27,5.27,0,0,0-1.17-.86,6.79,6.79,0,0,0-1.29-.58,15.54,15.54,0,0,0-1.79-.43,1.1,1.1,0,0,0-1.25.66,1.87,1.87,0,0,0-.07.85c0,.22-.05.28-.28.28h-3a.57.57,0,0,0-.6.66.55.55,0,0,0,.6.59H86.4c.52,0,1,0,1.57,0,.14,0,.21,0,.2.19,0,.61,0,1.23,0,1.84,0,.14,0,.18-.17.18l-1,0c-.67,0-1.34,0-2,0a.66.66,0,0,0-.63,1,.68.68,0,0,0,.61.35h3c.24,0,.3.06.27.28s0,.34,0,.52A1,1,0,0,0,89.17,192Z"/><path class="cls-1" d="M86.81,180.89A3.74,3.74,0,0,1,89,182.17c.26.29.45.63.7.92s.33.37.59.3.34-.46.07-.76a16.15,16.15,0,0,0-1.15-1.19,3.3,3.3,0,0,0-1.12-.68,16,16,0,0,1-2.18-.92,12.16,12.16,0,0,1-1.9-1.15,6.49,6.49,0,0,1-1.51-1.4c.4.32.79.64,1.22.92a14.59,14.59,0,0,0,4,1.73c.78.2,1-.29,1-.75a9.16,9.16,0,0,0-.4-1.78A3.65,3.65,0,0,0,87,175.73a4.4,4.4,0,0,0-2-.75,14.87,14.87,0,0,0-1.88-.24c-.67,0-1.34-.12-2-.17a9.21,9.21,0,0,1-1.73-.3,5.19,5.19,0,0,1-1.44-.66,8.84,8.84,0,0,0,.55,2.72,6.46,6.46,0,0,0,2,2.82,7,7,0,0,0,3.92,1.52C85.24,180.75,86,180.76,86.81,180.89Z"/><path class="cls-1" d="M136.41,193.24a5.29,5.29,0,0,0-1.81-1.47,14.82,14.82,0,0,0-4.15-1.34c-.67-.17-1.34-.28-2-.45a12.14,12.14,0,0,1-2.38-.81,14.49,14.49,0,0,1-3-2.07c-.39-.47-.86-.84-1.28-1.28a29.21,29.21,0,0,0-2.4-2.32,11.19,11.19,0,0,0-1.35-1,1.71,1.71,0,0,0-.5-.32s0,0-.06-.05l-.22-.14h0a1,1,0,0,0-.25-.16c-.22-.11-.44-.25-.66-.35a14.82,14.82,0,0,0-1.52-.66,14.37,14.37,0,0,0-2.34-.61,3.62,3.62,0,0,0-.73-.14c-.45-.07-.88-.1-1.34-.15a9.7,9.7,0,0,0-1.52,0c-.5,0-1,0-1.51,0s-1.25.11-1.85.22c-1.12.17-2.23.39-3.33.64a2.92,2.92,0,0,1-.39.07,0,0,0,0,0,0,0h-.13l-2.41.58c-.86.2-1.73.4-2.6.54l-1.42.27H95a13.93,13.93,0,0,1-2,.18H91.38a.45.45,0,0,0-.34.12.63.63,0,0,0,.24,1.09,7.72,7.72,0,0,1,2.57,1.42,5.36,5.36,0,0,1,1,1.24,3.05,3.05,0,0,1,.13,2.83,4.91,4.91,0,0,1-2.29,2.32,9.06,9.06,0,0,1-2.61.89,2.18,2.18,0,0,1-1.64-.12c-.09-.07-.11,0-.11.07a7.57,7.57,0,0,0,0,2.18,5.59,5.59,0,0,0,1.6,3.23c.22.18.44.34.72.24a.68.68,0,0,0,.45-.57,5.19,5.19,0,0,1,.53-1.37,6.79,6.79,0,0,1,2.55-2.71,6.33,6.33,0,0,1,2.72-.95,5.24,5.24,0,0,1,.88-.08,8.47,8.47,0,0,1,1.13.1,7.29,7.29,0,0,1,2.48.84,6,6,0,0,1,2.19,2.07,7.48,7.48,0,0,1,1,3.13.87.87,0,0,0,.87.82h12a.65.65,0,0,0,.62-.64,6.27,6.27,0,0,1,.63-2.35,9.69,9.69,0,0,1,1.07-1.65,8.5,8.5,0,0,1,1.18-1.06,8,8,0,0,1,1.95-1,8.59,8.59,0,0,1,1.21-.23,6.14,6.14,0,0,1,2.18.08,8.61,8.61,0,0,1,1.81.62c0,.06.08.08.12.09a6.54,6.54,0,0,1,1.48,1.08,7.13,7.13,0,0,1,2.06,4.17.57.57,0,0,0,.59.56,3.36,3.36,0,0,0,1.09-.22,5.13,5.13,0,0,0,1.94-1.07,4.34,4.34,0,0,0,1.4-2A2.56,2.56,0,0,0,136.41,193.24ZM114.88,188c-2.19,3.08-4.39,6.15-6.58,9.25,0-.16.06-.27.09-.41a.11.11,0,0,0,0-.09v-.06s0,0,0,0a.43.43,0,0,1,0-.05,0,0,0,0,1,0,0,6,6,0,0,0,.22-.68v-.09c0-.07,0-.13.06-.16s0,0,0,0a.35.35,0,0,0,.08-.22v0a6,6,0,0,1,.3-1l.18-.63.05-.11c.22-.72.45-1.42.67-2.12.11-.3.19-.59.28-.89.05-.12.05-.2-.12-.18-.6,0-1.19.07-1.78.12a6,6,0,0,0-.85,0c-.11,0-.14,0-.11-.14.23-1.08.46-2.17.7-3.24s.5-2.15.71-3.22c.07-.33.3-.24.47-.27.37,0,.76-.06,1.14-.12l0,0h0v0s0,0,0,0h0a.61.61,0,0,0,.35,0h.25a3,3,0,0,0,.51-.07,2.66,2.66,0,0,0,.39,0,.17.17,0,0,0,.12,0c.44,0,.86-.1,1.33-.11a5.14,5.14,0,0,1-.46.87c-.34.65-.7,1.29-1,2s-.62,1.15-1,1.72c-.06.14-.09.21.11.21.84,0,1.68-.08,2.51-.11a6.85,6.85,0,0,0,1.2-.08h0S114.88,187.92,114.88,188Z"/><path class="cls-1" d="M130,196.92a5.41,5.41,0,0,0-1.51-1.95,4.75,4.75,0,0,0-1.82-1,3.87,3.87,0,0,0-.67-.17,5,5,0,0,0-2.17,0,5.35,5.35,0,0,0-2.9,1.66,5.74,5.74,0,0,0-1.23,2.21,5.46,5.46,0,0,0,.51,4.11,5,5,0,0,0,1.14,1.42,6.31,6.31,0,0,0,1.11.78,1.36,1.36,0,0,1,.21.1,5.14,5.14,0,0,0,1.82.49,5.52,5.52,0,0,0,5.69-3.54,5.18,5.18,0,0,0,.31-2.38A5.42,5.42,0,0,0,130,196.92ZM124.38,202a5.48,5.48,0,0,1-1.11-.41h0c0-.11-.1-.15-.16-.23a2.8,2.8,0,0,1-1-2.8,2.93,2.93,0,0,1,3.23-2.29.33.33,0,0,0,.26,0h0a1.54,1.54,0,0,0,.53.14s0,.05,0,.05h0a.46.46,0,0,0,.22.17,2.87,2.87,0,0,1,1.51,2.29A2.92,2.92,0,0,1,124.38,202Z"/><path class="cls-1" d="M103.1,198a5.56,5.56,0,0,0-2.07-3.14,2.74,2.74,0,0,0-.89-.52.12.12,0,0,0-.09,0,.86.86,0,0,0-.38-.16,4.69,4.69,0,0,0-1.85-.36,6,6,0,0,0-.73,0,5.29,5.29,0,0,0-2.65,1,5.42,5.42,0,0,0-2.19,4.55,5.35,5.35,0,0,0,.65,2.41A5.53,5.53,0,0,0,95.08,204a.77.77,0,0,0,.31.14,5.48,5.48,0,0,0,7.41-2.78A5.05,5.05,0,0,0,103.1,198Zm-4,3.86a3.1,3.1,0,0,1-2.58,0c-.06,0-.14-.1-.22-.07s0,0,0,0a4.08,4.08,0,0,1-1-1.14,2.84,2.84,0,0,1,.6-3.59,2.63,2.63,0,0,1,1.45-.69,3.81,3.81,0,0,1,1.26,0l0,0c0,.09.11.09.17.11a2.9,2.9,0,0,1,.37,5.37Z"/><path class="cls-1" d="M89.83,181.5a1.18,1.18,0,0,0,.23-.27,2.34,2.34,0,0,1,2-1.1,5.58,5.58,0,0,0,1.76-.32,3.44,3.44,0,0,0,1.19-.75,3.51,3.51,0,0,0,.92-1.62,5.34,5.34,0,0,0,.19-1.13h-.07a3.89,3.89,0,0,1-2,.54c-.57.05-1.13.1-1.7.19a2.13,2.13,0,0,0-1.55,1,3.11,3.11,0,0,0-.37,1.21c-.07.42.17.61.54.5a8.67,8.67,0,0,0,1.29-.47,6.12,6.12,0,0,0,1.11-.66.46.46,0,0,1-.18.24,9.54,9.54,0,0,1-2.45,1.33,2.85,2.85,0,0,0-1.23,1.1.2.2,0,0,0,0,.29A.19.19,0,0,0,89.83,181.5Z"/><path class="cls-1" d="M243.91,126.52l-3.86-14.66a2.58,2.58,0,0,1-.31.13,2.06,2.06,0,0,1-1.58,0,23.08,23.08,0,0,1-8.09-4.93h0a1.42,1.42,0,0,1,0,.29c0,.37-.12.41-.41.41h-2.32c-.33,0-.47-.08-.43-.44.06-1.32.1-2.65.15-4v0c0-.16,0-.33,0-.49a12.33,12.33,0,0,1-1-5c.05-2.37,0-4.76,0-7.15h-3.67q-1.66,6.3-3.31,12.6-3.39,12.9-6.79,25.79a1.12,1.12,0,0,0,0,.45H226c0-1,.08-1.95.1-2.92,0-.24.1-.33.34-.33h4c.26,0,.34.09.36.33,0,1,0,1.95.08,2.92h13.71A25.59,25.59,0,0,0,243.91,126.52Zm-13.76-5c-1.13,0-2.29,0-3.44,0-.3,0-.4-.08-.38-.39q.19-4.08.35-8.15c0-.33.11-.43.42-.42q1.4,0,2.76,0c.31,0,.42.09.44.42,0,1.36.1,2.75.16,4.11h0c.06,1.32.1,2.64.18,3.94C230.66,121.42,230.55,121.51,230.15,121.51Z"/><path class="cls-1" d="M252.82,91.8c0-1.58,0-3.16,0-4.73a2,2,0,0,0-1.95-2.2c-.87-.14-1.76-.23-2.62-.45a18.81,18.81,0,0,1-5.94-2.88,2.14,2.14,0,0,0-2.77,0,20.15,20.15,0,0,1-3.46,2,15.9,15.9,0,0,1-5.38,1.35,1.71,1.71,0,0,0-1.6,1.52,2.85,2.85,0,0,0,0,.41c0,.2,0,.4,0,.59,0,2.19,0,4.38,0,6.57V95a12.56,12.56,0,0,0,.17,2.24,1.08,1.08,0,0,0,.05.21,9,9,0,0,0,.36,1.35l.15.4a11.83,11.83,0,0,0,2.91,4.27,20.66,20.66,0,0,0,6.24,4.06s0,0,.07,0c.38.16.77.31,1.17.46a1.94,1.94,0,0,0,.56.15,1.92,1.92,0,0,0,.91-.12l.23-.1c.87-.36,1.73-.74,2.55-1.15a17.7,17.7,0,0,0,5-3.56,13.39,13.39,0,0,0,2.29-3,8.35,8.35,0,0,0,1-3A39.9,39.9,0,0,0,252.82,91.8Zm-4.19,7.87a11.08,11.08,0,0,1-1.4,1.7,14.57,14.57,0,0,1-3.92,2.8c-.69.36-1.41.69-2.16,1l-.24,0V95.52c0-.19,0-.39,0-.59-.18-.12-.37-.05-.56-.05l-.8,0h-3.94c-1,0-2.09,0-3.13,0-.48,0-.59-.13-.58-.59,0-1.19,0-2.37,0-3.56,0-.43,0-.87,0-1.32V88.06c0-.29.07-.44.38-.48a19.08,19.08,0,0,0,8.29-3.26l.23-.13s.06,0,.1,0,0,.2,0,.3v10c0,.14,0,.27,0,.4a.39.39,0,0,1,.27-.08h8.27c.44,0,.49.15.51.54A6.94,6.94,0,0,1,248.63,99.67Z"/><path class="cls-1" d="M220.9,90.73h-1.78c-.05.16-.09.31-.15.46q-6.75,16.49-13.51,33c-.72,1.77-1.47,3.54-2.2,5.3,0,.22.2.09.29.1H208a14.43,14.43,0,0,1,.71-2.29q6.06-18.19,12.14-36.4A.84.84,0,0,1,220.9,90.73Z"/><path class="cls-1" d="M253.52,129.07l-8.17-19.93a21.27,21.27,0,0,1-2.62,1.52q3.08,9.2,6.14,18.38c0,.17.16.33.11.52h4.44c.09,0,.25.11.29-.1S253.57,129.21,253.52,129.07Z"/><path class="cls-1" d="M298.15,338.1a10.86,10.86,0,0,0,.61-1.3,6.65,6.65,0,0,0,.38-1.39,2.83,2.83,0,0,0-.05-1.16A1.39,1.39,0,0,0,299,334a1.06,1.06,0,0,0-.92-.61,1.85,1.85,0,0,0-1.35.38,4.62,4.62,0,0,0-.85.86,7.63,7.63,0,0,0-.48.68.18.18,0,0,1-.08.09.3.3,0,0,0,0-.1,4.13,4.13,0,0,0,.33-1,2.74,2.74,0,0,0,0-1.14,1.39,1.39,0,0,0-1.12-1,2,2,0,0,0-1.26.24,3.17,3.17,0,0,0-1,.87l-.21.28s0-.05,0-.07a3.56,3.56,0,0,0,.24-1.11,1.44,1.44,0,0,0-1.12-1.55,1.9,1.9,0,0,0-1.56.24,4.48,4.48,0,0,0-1,.87,6.48,6.48,0,0,0-.5.67s0,.05,0,.06a.06.06,0,0,1-.05,0c-.57-.55-1.19-1-1.81-1.53-.8-.63-1.61-1.24-2.43-1.85a.68.68,0,0,0-.26-.12l-1.59-.39c-.11,0-.11,0-.1-.13,0-.43.08-.86.15-1.29a16,16,0,0,1,.57-2.58,17.59,17.59,0,0,1,3.12-5.95,13.42,13.42,0,0,1,1.3-1.42.22.22,0,0,1,.22,0l1.41.44a1.74,1.74,0,0,0,.39.05,5.66,5.66,0,0,1,1.36.27,2.92,2.92,0,0,1,.91.51c.16.13.12.11,0,.22l-1.43,1.34a1.81,1.81,0,0,0-.5.78,2.44,2.44,0,0,0,0,1.34,1.54,1.54,0,0,0,.69,1,3,3,0,0,0,1.19.47,4.35,4.35,0,0,0,2.54-.34l.17-.11,2.23-1.75a3.26,3.26,0,0,1,1.25-.62,5,5,0,0,1,1.54-.14,7.48,7.48,0,0,1,2.46.57,9.7,9.7,0,0,1,1.41.78c.59.41,1.2.8,1.8,1.2,2.7,1.8,5.4,3.61,8,5.5.86.62,1.72,1.25,2.54,1.92.24.2.48.4.7.62a1.71,1.71,0,0,1,.5,1.41,1.9,1.9,0,0,1-.23.72,2.73,2.73,0,0,1-.43.58,1.47,1.47,0,0,1-.85.4,1.83,1.83,0,0,1-1-.17,2.22,2.22,0,0,1-.42-.25s-.05,0-.09,0,0,.06,0,.08a1.6,1.6,0,0,1,.29,1.27c0,.16,0,.32-.06.47a2.23,2.23,0,0,1-.66,1.15,3.28,3.28,0,0,1-.69.48,1.65,1.65,0,0,1-.69.15,4.06,4.06,0,0,1-1.58-.29.21.21,0,0,0-.12,0s0,.07,0,.11a2.08,2.08,0,0,1,0,1.16,2.26,2.26,0,0,1-1.06,1.27,2.14,2.14,0,0,1-.75.2,3.34,3.34,0,0,1-1.5-.18l-.07,0h0a.38.38,0,0,0,0,.1,1.72,1.72,0,0,1-.53,1.85,2.21,2.21,0,0,1-1.26.52,3.17,3.17,0,0,1-1.22-.18,7.51,7.51,0,0,1-1.44-.66,14.54,14.54,0,0,1-1.49-1l-.08-.06a.05.05,0,0,1,0-.08l.05-.07a5.5,5.5,0,0,0,.56-1.11,3.2,3.2,0,0,0,.18-.92,1.35,1.35,0,0,0-.06-.53,1.06,1.06,0,0,0-.83-.71,1.09,1.09,0,0,0-.62,0,2.75,2.75,0,0,0-.88.5,4.53,4.53,0,0,0-.59.57S298.2,338.07,298.15,338.1Z"/><path class="cls-1" d="M296.51,316c.18,0,.35,0,.53,0l1.56,0,1.26-.05c.36,0,.71,0,1.07-.08l.37-.07a3.34,3.34,0,0,1,1.14-.05,5.51,5.51,0,0,1,1.85.56c.75.35,1.52.67,2.28,1,1.2.51,2.41,1,3.62,1.48a4.31,4.31,0,0,0,1,.27,5,5,0,0,0,.77,0,2.66,2.66,0,0,0,1.56-.52,8.41,8.41,0,0,0,.86-.72l.16-.15s.07,0,.11,0a5.93,5.93,0,0,1,.51.4,10.18,10.18,0,0,1,2.26,2.87,13.12,13.12,0,0,1,1.36,3.79,15.24,15.24,0,0,1,.25,1.78c0,.38.05.77.06,1.15,0,.09,0,.09-.08.09a4.86,4.86,0,0,0-2.15.55,5.42,5.42,0,0,0-1.57,1.2c-.06.07-.06.08-.15,0l-3.42-2.31-1.95-1.31-3.17-2.13-3-2.05c-.4-.27-.79-.55-1.2-.81a4.53,4.53,0,0,0-.91-.45,7.76,7.76,0,0,0-1.82-.48,6.68,6.68,0,0,0-1.34,0,5.36,5.36,0,0,0-1.26.21,3,3,0,0,0-.45.18,7.35,7.35,0,0,0-1.54,1c-.44.36-.89.7-1.34,1a1.88,1.88,0,0,1-.54.29A3.89,3.89,0,0,1,292,323a2.32,2.32,0,0,1-1.73-.54.62.62,0,0,1-.14-.19,1.57,1.57,0,0,1-.08-1.43.8.8,0,0,1,.15-.21L292,319l1.79-1.59c.26-.23.52-.48.79-.71a5.2,5.2,0,0,1,.59-.46,1.24,1.24,0,0,1,.58-.21Z"/><path class="cls-1" d="M285.88,315.88s-.05.07-.08.1a19.74,19.74,0,0,0-2.13,2.68,20.89,20.89,0,0,0-2.47,5.07,17.64,17.64,0,0,0-.69,2.87c-.08.48-.13,1-.17,1.45a17.43,17.43,0,0,0,0,1.77s0,0,0,.06-.06,0-.09,0l-5.12-2.66A.14.14,0,0,1,275,327c0-.45.07-.9.12-1.34.08-.63.17-1.25.28-1.87a23.88,23.88,0,0,1,1.87-6,13.64,13.64,0,0,1,2.15-3.31,9.68,9.68,0,0,1,1.75-1.57l.13-.09a.07.07,0,0,1,.1,0l.06,0,4.33,2.89Z"/><path class="cls-1" d="M315.15,316l.53-.37,3.79-2.6,0,0a.08.08,0,0,1,.12,0l.39.29a14.44,14.44,0,0,1,2,1.92,16.25,16.25,0,0,1,2.25,3.49,17,17,0,0,1,1.07,2.95,17.56,17.56,0,0,1,.43,2.16c.05.41.09.82.12,1.24.05.66.05,1.32,0,2v.05a.1.1,0,0,1-.08.12l-.55.27-1.75.83-2.86,1.37-.08,0a.18.18,0,0,1,0-.1c0-.43,0-.85,0-1.28s0-.91-.08-1.37-.12-1.19-.21-1.78a19.92,19.92,0,0,0-.65-2.85,14.12,14.12,0,0,0-1-2.49,10.15,10.15,0,0,0-1.59-2.3,8.51,8.51,0,0,0-1.81-1.47l-.07,0Z"/><path class="cls-1" d="M298.55,335.18a3,3,0,0,1-.14.85,9.36,9.36,0,0,1-.8,2.06,6.67,6.67,0,0,1-1.14,1.55,2,2,0,0,1-.55.41,1,1,0,0,1-1.21-.27,1.68,1.68,0,0,1-.24-.46,1.93,1.93,0,0,1,0-1.09c.05-.21.11-.41.18-.62a7.25,7.25,0,0,1,.8-1.63,6.63,6.63,0,0,1,.7-1,3.13,3.13,0,0,1,1.18-.89,1,1,0,0,1,.29-.07.77.77,0,0,1,.86.55A1.93,1.93,0,0,1,298.55,335.18Z"/><path class="cls-1" d="M291.18,336.8a2.73,2.73,0,0,1,.13-.8,8.08,8.08,0,0,1,.84-1.9,3.79,3.79,0,0,1,.83-1,1.8,1.8,0,0,1,.73-.4,1,1,0,0,1,1.25.63,1.48,1.48,0,0,1,.11.62,4.44,4.44,0,0,1-.17,1,6.58,6.58,0,0,1-.42,1.15,5.86,5.86,0,0,1-.81,1.31,3,3,0,0,1-.63.56,1.23,1.23,0,0,1-1.19.07,1,1,0,0,1-.63-.83A2.06,2.06,0,0,1,291.18,336.8Z"/><path class="cls-1" d="M291.62,332.66a3,3,0,0,1-.44,1.56,3.67,3.67,0,0,1-.65.86,1.7,1.7,0,0,1-1.15.49,1.16,1.16,0,0,1-1.16-.93,2.09,2.09,0,0,1,0-.66,3.37,3.37,0,0,1,.49-1.37,3.41,3.41,0,0,1,1.1-1.07,1.35,1.35,0,0,1,.44-.15,1.38,1.38,0,0,1,.64,0,1.08,1.08,0,0,1,.66.69.83.83,0,0,1,.06.21A1.76,1.76,0,0,1,291.62,332.66Z"/><path class="cls-1" d="M300.74,338.22a1.64,1.64,0,0,1-.09.58,7,7,0,0,1-.76,1.64,3.73,3.73,0,0,1-.76.92.92.92,0,0,1-.65.24.84.84,0,0,1-.49-.15.64.64,0,0,1-.26-.44,2,2,0,0,1,0-.69,3.29,3.29,0,0,1,.29-.92,4.38,4.38,0,0,1,.93-1.41,1.81,1.81,0,0,1,.59-.47,1.29,1.29,0,0,1,.8-.09.5.5,0,0,1,.35.31,1.17,1.17,0,0,1,.05.2A1.27,1.27,0,0,1,300.74,338.22Z"/><g id="o3SyUi.tif"><path class="cls-1" d="M298.32,314.58l-1.57,0-.52,0-.76.05a1.24,1.24,0,0,0-.58.21,4.37,4.37,0,0,0-.59.45l-.8.72-1.27,1.13c-.35-.14-.45-.44-.45-1.07,0-3.63,0-7.26,0-10.89a1,1,0,0,1,.67-1.07h.85a19.19,19.19,0,0,1,2.46.51,6.37,6.37,0,0,1,3.46,2.52,1.11,1.11,0,0,1,.22.66v6.74Z"/><path class="cls-1" d="M308.29,316.19a1.83,1.83,0,0,1-.05.5l-1.95-.81c-.76-.32-1.53-.64-2.28-1a5.73,5.73,0,0,0-1.86-.56,3.65,3.65,0,0,0-1.14.06,2.25,2.25,0,0,1-.36.06h0v-6.52a1.43,1.43,0,0,1,.26-.86,6.76,6.76,0,0,1,4.36-2.7c.51-.11,1-.17,1.53-.26h.84a1,1,0,0,1,.68,1.07Q308.29,310.69,308.29,316.19Z"/><path class="cls-1" d="M290.65,316.84a2.61,2.61,0,0,0-.56-.26,5.73,5.73,0,0,0-.84-.21v-9a1,1,0,0,1,.47-.52c.57-.26.87-.08.87.53v8.74A3.69,3.69,0,0,0,290.65,316.84Z"/><path class="cls-1" d="M310.82,307.7v9.9a3.6,3.6,0,0,1-.91-.24l-.56-.22a2.11,2.11,0,0,0,.13-.77c0-3,0-6,0-9,0-.2-.15-.47.12-.6a1,1,0,0,1,1.06.33A.93.93,0,0,1,310.82,307.7Z"/></g><g id="_7Bt7F9.tif" data-name="7Bt7F9.tif"><path class="cls-1" d="M156.4,332.18l1.54,1.54a.44.44,0,0,1,.14.34q0,.63,0,1.26c0,.17,0,.23-.21.23-.44,0-.87,0-1.3,0a.37.37,0,0,1-.31-.13l-3.08-3.13a.45.45,0,0,0-.34-.15h-3a.4.4,0,0,0-.31.13l-3.09,3.15a.38.38,0,0,1-.33.13h-1.32c-.12,0-.17,0-.17-.16,0-.46,0-.93,0-1.4a.31.31,0,0,1,.12-.23l1.39-1.39.15-.17a5.82,5.82,0,0,1-1.12-.14,5,5,0,0,1-3.9-4.91q0-5.89,0-11.77a5,5,0,0,1,4.12-5,5.62,5.62,0,0,1,1-.08h9.93a5,5,0,0,1,5,4,4.93,4.93,0,0,1,.11,1.15c0,3.87,0,7.74,0,11.61a5,5,0,0,1-3.85,5A5.45,5.45,0,0,1,156.4,332.18Zm-5.05-8.4h6.51c.16,0,.22,0,.22-.21,0-3.23,0-6.45,0-9.68,0-.18-.06-.21-.22-.21h-13c-.17,0-.21.05-.21.22q0,4.83,0,9.66c0,.19.06.22.23.22ZM148,327.14a1.68,1.68,0,1,0-3.35,0,1.68,1.68,0,1,0,3.35,0Zm10.09,0a1.68,1.68,0,1,0-1.67,1.69A1.69,1.69,0,0,0,158.07,327.13Z"/><path class="cls-1" d="M153.14,301.09a2.41,2.41,0,0,1-.71,1.72l-5.71,5.72a.42.42,0,0,1-.33.11A6.7,6.7,0,0,0,140,313a6.39,6.39,0,0,0-.43,2.48.42.42,0,0,1-.14.35l-5.34,5.33a.32.32,0,0,0-.12.32c.18,1.23.34,2.46.52,3.69a.49.49,0,0,1-.16.48c-.48.47-1,1-1.43,1.44-.12.13-.16.13-.25,0q-1.36-2.49-2.75-5a.7.7,0,0,0-.29-.3l-5-2.76c-.17-.09-.15-.14,0-.26.51-.51,1-1,1.52-1.55a.25.25,0,0,1,.26-.09l3.89.58a.3.3,0,0,0,.29-.1q3.12-3.14,6.25-6.24c.13-.14.09-.18-.05-.25l-12.13-6.37c-.15-.08-.17-.12,0-.25.71-.69,1.41-1.38,2.1-2.08a.31.31,0,0,1,.34-.11l10.14,2.35,5,1.15a.3.3,0,0,0,.29-.11l6.41-6.41a2.52,2.52,0,0,1,3.31-.21A2.58,2.58,0,0,1,153.14,301.09Z"/></g><g id="nVTTIy.tif"><path class="cls-1" d="M174,335.07c0,.38-.1.5-.49.5H161.05a.5.5,0,0,1-.55-.37,6.14,6.14,0,0,0-1.3-2.06l.07,0a5,5,0,0,0,3.86-5c0-3.87,0-7.74,0-11.61a5.34,5.34,0,0,0-.1-1.13h9.26a2.26,2.26,0,0,1,1.73,2.31C174,323.49,174,329.28,174,335.07Z"/><path class="cls-1" d="M184,322.41a2.19,2.19,0,0,0-1.94-1c-2,0-3.92,0-5.87,0-.52,0-.66.14-.66.66,0,3.49,0,7,0,10.49a.83.83,0,0,0,.07.55c.06,0,.12,0,.16-.07a5.32,5.32,0,0,1,8.72,2.36c0,.12.07.23.21.29a3.23,3.23,0,0,0,2.17-.38V328A19.43,19.43,0,0,0,184,322.41Zm.32,4h-3.05c-1,0-2,0-3.05,0-.48,0-.61-.15-.59-.6,0-.89,0-1.79,0-2.68,0-.39.12-.51.5-.5,1.31,0,2.62,0,3.93,0a.91.91,0,0,1,.8.4,28.8,28.8,0,0,1,1.8,2.91C184.93,326.43,184.73,326.46,184.36,326.46Z"/><path class="cls-1" d="M183.4,336.19a4,4,0,1,0-5,4.56c.17.05.38,0,.53.16H180c.15-.18.38-.13.58-.19A4,4,0,0,0,183.4,336.19Zm-4,2.56a1.86,1.86,0,0,1,0-3.72,1.84,1.84,0,0,1,1.86,1.86A1.86,1.86,0,0,1,179.43,338.75Z"/></g><path class="cls-1" d="M346.22,207.65c-.35.4-.13,1.31-1.08,1.18s-1.85-.32-2-1.53c0-.34-.11-.67.3-.81,1.06-.36,1.59-1.56,2.74-1.76.19,0,.46.3.44.65C346.08,206,346.81,207,346.22,207.65Z"/><path class="cls-1" d="M348.52,202.05a2.16,2.16,0,0,1-.18.39c-.41-.09-1-.07-1.19-.33a1.24,1.24,0,0,1-.13-1.55c.26-.41.67-.41.81,0S347.66,201.85,348.52,202.05Z"/><path class="cls-1" d="M349.19,204.2a.89.89,0,0,1-.7.85c-.28-.25-.89-.27-.88-.7,0-.62.73-.47,1.13-.64S349.23,203.9,349.19,204.2Z"/><path class="cls-1" d="M355.56,190.44c-.07.38-.5.49-.85.57s-.53-.17-.45.39a2.5,2.5,0,0,1-2,3.13,3.19,3.19,0,0,0-1.74,1.22c-.57-1.38.22-1.89,1.05-2.21,1.22-.46,2.05-1.1,2-2.55,0-.82.78-1.46,1.28-1.12C355.13,190,355.63,190,355.56,190.44Z"/><path class="cls-1" d="M334.37,194.66a.8.8,0,1,1-.8-.79A.8.8,0,0,1,334.37,194.66Z"/><path class="cls-1" d="M350.74,190.9a3.94,3.94,0,0,0-1.82-1.48,8.29,8.29,0,0,0-2.59-.39,18.56,18.56,0,0,0-4.53.16,3.08,3.08,0,0,0-.39.11,1.65,1.65,0,0,1-1.67-.26l.16-.26-.16.26-.43-.26a2.41,2.41,0,0,0-.38.66,3.71,3.71,0,0,0,.49,3c.22.39.48.78.73,1.15a12.44,12.44,0,0,1,1.06,1.81c1.12,2.54.7,4.62,0,7.29l-.58-.16c.71-2.62,1.1-4.52.05-6.88a12.07,12.07,0,0,0-1-1.72c-.26-.38-.53-.78-.76-1.2a5.33,5.33,0,0,1-.43-.93,21.25,21.25,0,0,0-8.21-1l-.36,0c-1.78.2-3.79.42-5.08-.9a6.9,6.9,0,0,1-.88-1.3,4.34,4.34,0,0,0-1.09-1.44L323,187c-.19.13-.37.27-.54.41-.45.36-.13.88.22,1.26a.24.24,0,0,1,.06.23,1.47,1.47,0,0,0-.27.81l.13-.22c.53.3,1.21.62,1.87.93s1.37.64,1.92,1a5.4,5.4,0,0,0,1.66.72,5.17,5.17,0,0,0,1.78-.12c.26,0,.52-.09.79-.12a9.67,9.67,0,0,1,3.15.29c1.47.38,2.36,1,2.58,1.88.4,1.53-1.53,3.24-2.68,4.27l-.34.3a11,11,0,0,1-1,.84,9,9,0,0,0-1,.78l-.17-.19a.58.58,0,0,1,.05.2c-.16,1.25.77,2.09,1,3.18.07.31.17.67.57.68s.49-.35.71-.57c.57-.61.11-1.56.55-2a11.1,11.1,0,0,1,2.79-2.45c.34-.19.55-.24.78.17s.78.91.76,1.6c0,.26.05.74.38.61,1.11-.41,1,.7,1,1a6.41,6.41,0,0,0,.81,3.46,6.88,6.88,0,0,0-1.18-.81.5.5,0,0,0-.56.1.3.3,0,0,0,0,.43c1.55,1.84,2.3,4.58,5.37,4.69.43,0,1,.65,1.23,0,.16-.45-.7-.34-1-.69-.08-.1-.3-.09-.46-.11-.67-.05-1.47.11-1.43-1,0-.73-1-1-.88-1.76a2.28,2.28,0,0,0-.8-2.46c-.4-.33-.88-1-.35-1.47s.95.39,1.13.7c.4.73.54.5,1,.06,1.22-1.14,1.32-1.68.25-3-.23-.27-.45-.46-.21-.83s.37-.64.6-.51c.81.48,1.28-.21,1.88-.42,2.21-.81,3-2.28,2.31-4.5-.07-.22-.28-.47-.08-.68,1.08-1,.08-1-.67-1.14,1-.66,2.08-.31,2.25.67.11.58.17,1.11.92.92.94-.24.46-.85.27-1.34A1.54,1.54,0,0,1,350.74,190.9Zm-3.5-14.32a.8.8,0,1,0,.8.8A.8.8,0,0,0,347.24,176.58ZM330.76,179a.81.81,0,0,0-.76.56,1.45,1.45,0,0,0,.39.43,4.51,4.51,0,0,0,.79.48h0a.8.8,0,0,0-.42-1.47Zm1.85,3.38a2.18,2.18,0,0,0-.66-.82A17,17,0,0,1,331,183c.33.12.65.25,1,.38s.79.34,1.11.5l.55.3,0,0,.21.13A9.4,9.4,0,0,1,332.61,182.37Zm6.19,6.08a22.52,22.52,0,0,1-3.74-2.86,2.09,2.09,0,0,1-.76-.24,5,5,0,0,1-.53-.36,2.42,2.42,0,0,0-.41-.27l0,0c-.16-.1-.33-.19-.51-.28s-.64-.31-1.07-.49a10.15,10.15,0,0,0-1.86-.62,12.21,12.21,0,0,0-3.14-.08l0-.6a12.61,12.61,0,0,1,3.3.09l.34.08c-.26-.39-.52-.78-.75-1.19a6.17,6.17,0,0,1-.51-1.07,2.15,2.15,0,0,1-.13-.67,1.77,1.77,0,0,1,.19-.79h0a6.33,6.33,0,0,1-.16-1.19l-.52-.13c-1.53-.42-2-.08-2.11,1.57,0,.4,0,.81,0,1.21-.14,1.14.54,2.23.22,3.36a2.43,2.43,0,0,0,.17,1.87c.33.67.5,1.22-.67,1.1-.55-.07-1.12-.08-1.67-.18a1.71,1.71,0,0,0-1,.16,5,5,0,0,1,1.12,1.52,5.94,5.94,0,0,0,.8,1.18c1.08,1.11,2.93.91,4.57.72l.37,0a21.61,21.61,0,0,1,8.06.93,3.33,3.33,0,0,1,.11-1.92A3.14,3.14,0,0,1,338.8,188.45Zm8.44-11.87a.8.8,0,1,0,.8.8A.8.8,0,0,0,347.24,176.58Zm-7.84,7.24a.8.8,0,0,0,0,1.59.81.81,0,0,0,.8-.8A.8.8,0,0,0,339.4,183.82Zm-4.58,12.51v0a2.71,2.71,0,0,0,.92-2.13c-.22-.83-1.44-1.27-2.15-1.45a9,9,0,0,0-2.93-.27q-.37,0-.75.12a5.77,5.77,0,0,1-2,.11,6,6,0,0,1-1.86-.78c-.53-.31-1.21-.63-1.87-.94s-1.19-.56-1.7-.84c.14.59.57,1.14.72,1.76-.66.36-1.89-.6-1.89.95a1.59,1.59,0,0,0-.57,0c-.69.19-1.9-.08-2,.47-.2,1.17-.87,2.42-.22,3.64.9,1.7,2.17,3.2,2.71,5.1.15.52.49.54.95.38a10,10,0,0,0,3.64-2.09,2.89,2.89,0,0,0,.93-1.24c.22-.68-.61-.74-.73-1.18h2.23a6.7,6.7,0,0,1,2.63,1.85,12,12,0,0,1,1-.8,9,9,0,0,0,1-.78l.34-.31.06,0c-.31-.44-.61-.89-.88-1.36a7.52,7.52,0,0,1-.51-1.07,2.09,2.09,0,0,1-.13-.66,1.8,1.8,0,0,1,3.56-.38,1.67,1.67,0,0,1-.05.94A5.88,5.88,0,0,1,334.82,196.33Zm35.37-17.12a18.66,18.66,0,0,1-2.9-1.36,6.34,6.34,0,0,0-1-.39,4.38,4.38,0,0,0-1.27-.2,1.39,1.39,0,0,0-.3,0c-.38.07-.69.26-1,.34a1.35,1.35,0,0,1-.28,0c-2,0-3.83-1.11-5.86-1.1-.2,0-.41-.22-.62-.31-1-.41-2.31-1-3-.43-1.11.92-2.38.21-3.41.84-.14.09-.41,0-.46-.27-.24-1-.89-1.64-1.51-1.27-1.56.92-2.88-.72-4.35-.07.3-.53.91-.72.59-1.43s-.86-.42-1.34-.56c-1.38-.4-2.69-.53-3.87.52a.62.62,0,0,1-.47.07c-2.11-.47-3.46,1.47-5.36,1.68-.06,0-.11.1-.16.16-.7,1.05-1.62.78-2.47.33-1-.51-1.82-.14-2,1a1.16,1.16,0,0,0,0,.32h.42a7.93,7.93,0,0,0,.06,1.3,1.79,1.79,0,0,1,2.87,1,1.72,1.72,0,0,1,0,.93c-.07.2-.15.39-.23.58a2.76,2.76,0,0,1,.91,1.09,9.23,9.23,0,0,0,1.54,2.24,20.5,20.5,0,0,0,4.49,3.65l0-.05a17.78,17.78,0,0,1-1-1.51,7.52,7.52,0,0,1-.51-1.07,2.09,2.09,0,0,1-.13-.66,1.8,1.8,0,0,1,3.56-.38,1.67,1.67,0,0,1-.05.94,6.24,6.24,0,0,1-.46,1c-.1.18-.21.36-.32.54a3.87,3.87,0,0,0,.43-.57,6.25,6.25,0,0,0,.7-2.11,8.18,8.18,0,0,1,.56-1.91,4.31,4.31,0,0,1,4.47-2.37c-.14-.22-.28-.44-.41-.66a8.72,8.72,0,0,1-.51-1.07,2.21,2.21,0,0,1-.13-.67,1.8,1.8,0,0,1,3.56-.37,1.64,1.64,0,0,1-.05.93,6.34,6.34,0,0,1-.46,1c-.24.42-.5.83-.78,1.24l.22.12a3.53,3.53,0,0,0,.85.38,3.93,3.93,0,0,0,1.92-.16l6.61-1.7a10.91,10.91,0,0,1,4.91-.48,8.39,8.39,0,0,1,2.24.89l.88.49.7.4c.25.13.5.27.75.38l-.25.55a8.37,8.37,0,0,1-.84-.44l-.55-.3h0l-.11-.06a10.06,10.06,0,0,0-2.94-1.3,10.27,10.27,0,0,0-4.64.47l-6.61,1.69a4.44,4.44,0,0,1-2.22.17,5.22,5.22,0,0,1-1-.44l-.28-.16a1.63,1.63,0,0,1-.11.17h0l-.16-.23-.08-.11a3.68,3.68,0,0,0-4.44,1.86,8.34,8.34,0,0,0-.51,1.78,7.07,7.07,0,0,1-.77,2.31,7.36,7.36,0,0,1-1.13,1.29l-.44.45.34.21c.64.39.82.33,1.17.21a2.13,2.13,0,0,1,.46-.13,18.86,18.86,0,0,1,4.68-.17,8.75,8.75,0,0,1,2.78.43,4.51,4.51,0,0,1,2.11,1.72l-.37.24.15-.06c2.14-.65,2.72-2.35,3.17-4.16.16-.62,0-1.38-1-1.1-.53.14-.6-.07-.41-.48.35-.79,2.2-1.66,3-1.83,1.1-.23,2.41.8,3.32-.6.22-.33.64-1,1.24-.36s-.25.8-.5,1.05a2.63,2.63,0,0,0-.72,3.34c.11.24.39.53.5.31.53-1,1.79-1.5,1.94-2.75s.59-1.76,1.82-1.49c1,.2,1.4-.48,2-.84s1.65.05,1.56-1.31c-.05-.63.87-.67,1.48-.44.23.08.4.29.61.39.74.32.9-.5,1.35-.75C370.7,179.59,370.4,179.26,370.19,179.21Z"/><path class="cls-1" d="M376.57,189.79a31.75,31.75,0,1,0-31.8,32.86A31.74,31.74,0,0,0,376.57,189.79Zm-19.2-26a26.82,26.82,0,0,1,5.29,3.18c-1.18.53-2.06.65-2.92-.47a20.83,20.83,0,0,0-2.58-2.47Zm1.09,4.1a43.25,43.25,0,0,1-5.35.81c-.56.1-.64-.31-.79-.7a25.56,25.56,0,0,0-3.13-6.31A19.4,19.4,0,0,1,358.46,167.89Zm-11.1-5.4a18.21,18.21,0,0,1,3,5.65c.27.75-.1.82-.67.82H340c-.48,0-.89,0-.63-.73a18.81,18.81,0,0,1,2.93-5.68C343.9,160.58,345.75,160.57,347.36,162.49ZM337.43,168a.9.9,0,0,1-1.15.73c-1.36-.18-2.72-.33-4.08-.53-.57-.08-1.08-.24-.41-.94a20.36,20.36,0,0,1,8.74-5.59A21.45,21.45,0,0,0,337.43,168Zm-5-4.12c-1,1.07-2.09,2.09-3,3.23-.74.9-1.44-.09-2.21,0A17.11,17.11,0,0,1,332.41,163.85ZM318.6,176.64a32.64,32.64,0,0,1,6.09-7.79.8.8,0,0,1,.87-.26l.24,0c2.37.65,2,.42,1,2.15a31.21,31.21,0,0,0-3.52,8.08c-.25.93-.6,1.16-1.5.73a24.65,24.65,0,0,1-2.81-1.42A1,1,0,0,1,318.6,176.64Zm2.27,32,4.92,1.33a1.11,1.11,0,0,1,.71.61,33.92,33.92,0,0,0,5.88,7.37A29.31,29.31,0,0,1,320.87,208.62Zm8,2,7.27.71a.79.79,0,0,1,.78.63,29.85,29.85,0,0,0,3.29,7.88C335.25,218.35,331.73,215.11,328.85,210.66Zm20.49,9.43a32.17,32.17,0,0,0,2.41-4.92c.3-1,.65-1.91.95-2.87a1.06,1.06,0,0,1,1-.91c2.3-.21,4.61-.44,7.14-.69A21.73,21.73,0,0,1,349.34,220.09Zm4.34-11.57a81.43,81.43,0,0,0,1.42-9.71c.08-.69.21-1.05,1-1.13a75.82,75.82,0,0,0,8.88-1.22c.76-.17.94,0,.8.78a39.3,39.3,0,0,1-3.31,10.47c-.21.4-.37.76-.92.84-2.36.31-4.71.68-7.07,1C353.56,209.74,353.5,209.27,353.68,208.52Zm3.65,9.42c1-1.18,2.18-2.13,3.06-3.39a10.89,10.89,0,0,0,1.42-2c1.23-3.08,4.13-3,6.89-3.87A28.89,28.89,0,0,1,357.33,217.94ZM373,200.77c-.27.76-.65,1.48-.88,2.25-1.12,3.65-4.41,3.9-7.47,4.86.55-1.75,1.21-3.25,1.69-4.83a46.76,46.76,0,0,0,1.35-6.14,1.43,1.43,0,0,1,1.22-1.39,20.5,20.5,0,0,0,5.61-2.2A26.17,26.17,0,0,1,373,200.77Zm.71-9.32a17,17,0,0,1-5,2.2c-.77.26-.75-.32-.75-.83,0-1.66,0-3.32,0-5a26.92,26.92,0,0,0-.44-4.09c-.12-.74-.39-1.1-1.18-.95s-.82.63-.7,1.26a44.06,44.06,0,0,1,.51,9.18,1.15,1.15,0,0,1-1.09,1.29c-3,.58-6,1-9,1.32-.28,0-.59.08-.74-.25s.06-.95-.38-.9a4.88,4.88,0,0,0-1.5.68c-1.26.66-2.38,1.93-4.05,1-.43-.25-.74.07-.74.49s.13,1.17.9,1.19,1.86,0,2.79,0c.63,0,.83.19.79.85a67.8,67.8,0,0,1-1.45,9.82c-.19.85-.57,1.15-1.41,1.11a26.25,26.25,0,0,0-2.66.07c-.39,0-.77,0-1,.51-.48,1.31-.42,1.44,1,1.43a15.86,15.86,0,0,0,2.07-.1c.88-.12,1.27,0,.89,1a20.81,20.81,0,0,1-3.14,6.37c-1.78,2.18-3.69,2.15-5.4-.06a23,23,0,0,1-3.14-6.51c-.29-.82.11-.88.75-.86,1.19,0,2.38,0,3.58,0,0-.11.08-.22.11-.34a3.32,3.32,0,0,1-2.83-1.35,1,1,0,0,0-.79-.21c-1.42.23-1.79-.56-2-1.76-.31-1.91-.76-3.8-1-5.73,0-.46.22-1.28-.56-1.23s-1.08.7-1.18,1.36a4.67,4.67,0,0,0,.08,1.44c.26,1.6.5,3.2.84,4.78.19.88-.16,1-.86.88q-3.36-.5-6.72-1a1.59,1.59,0,0,1-1.36-1,32.26,32.26,0,0,1-1.62-4.05c-.14-.45-.26-1-1-.68s-1.16.45-.84,1.29c.44,1.16.87,2.34,1.31,3.52a8.21,8.21,0,0,1-7.53-4.89,30.72,30.72,0,0,1-2.21-8.29c0-.31-.25-.69.08-.89s.51.14.76.22c.45.12.95,1,1.31.23.28-.56.59-1.45-.5-1.92a2.91,2.91,0,0,1-1.82-3.41,37.81,37.81,0,0,1,1.8-8.15c.32-.93.75-1.09,1.57-.5a9.45,9.45,0,0,0,3.05,1.46c.82.25,1.14.59.86,1.47a10,10,0,0,0-.34,2c0,.39-.38,1.08.31,1.06a1.52,1.52,0,0,0,1.6-1c.13-.54.12-1.12.24-1.67.06-.3,0-.75.44-.79,1.07-.08.75-.91.59-1.33a4,4,0,0,1,.23-3,38.87,38.87,0,0,1,3.88-7.8,1.26,1.26,0,0,1,1.48-.64c1.63.31,3.27.56,4.92.72.81.08.91.35.75,1.07-.09.38-.58,1.05.15,1.22.58.14,1.47.05,1.61-.72.24-1.36,1.11-1.32,2.13-1.25a66,66,0,0,0,9.33,0c1.2-.09,1.71.35,1.91,1.43q.18,1,.45,2c.1.39,0,1,.74.81s1.3-.36,1.07-1.3c-.19-.78-.3-1.58-.52-2.36-.15-.57,0-.78.59-.85,1.68-.2,3.38-.43,5-.74a1.35,1.35,0,0,1,1.58.73,26.08,26.08,0,0,1,2.57,4.8,1.13,1.13,0,0,0,1.26.84,3,3,0,0,0,.51-.08c.32-.06.44-.2.46-.37a1.68,1.68,0,0,0-.26-.77c-.73-1.49-1.4-3-2.28-4.42-.25-.39-.87-.75-.46-1.34a3,3,0,0,1,2.61-.4,29.65,29.65,0,0,1,6.17,7.88c.13.23.25.47.06.68-.82.87.09,1.33.55,1.58a2.36,2.36,0,0,1,1.07,1.35,29.7,29.7,0,0,1,1.93,9.21A2.16,2.16,0,0,1,373.74,191.45Z"/><path class="cls-1" d="M229,182.91a39.49,39.49,0,1,0,39.48,39.49A39.48,39.48,0,0,0,229,182.91ZM229,254a31.62,31.62,0,1,1,31.61-31.62A31.62,31.62,0,0,1,229,254Z"/><path class="cls-1" d="M474,202.62V151.29h9.46v43.26h25.81V151.29h9.46v51.33Zm43.63,11.21V200.34l2.12,2.28H509.23v-8.07h17.16v19.28Z"/><path class="cls-1" d="M543.4,194.55h29v8.07H533.87V151.29h37.46v8.07H543.4Zm-.74-21.92h25.52v7.84H542.66Z"/><path class="cls-1" d="M591.2,202.62h-9.53V151.29h9.53Zm27.28-22h-28v-8.14h28Zm-.74-29.33h9.46v51.33h-9.46Z"/><path class="cls-1" d="M651.17,202.62V157l2.28,2.35H634.24v-8.07h43.4v8.07H658.43l2.13-2.35v45.61Z"/><path class="cls-1" d="M684.54,202.62V151.29h21.11a28.78,28.78,0,0,1,11.7,2.17,16.69,16.69,0,0,1,7.51,6.27,17.75,17.75,0,0,1,2.64,9.82,17.44,17.44,0,0,1-2.64,9.71,17.22,17.22,0,0,1-7.51,6.31,27.94,27.94,0,0,1-11.7,2.24H689.89l4.18-4.4v19.21Zm9.53-18.19-4.18-4.69h15.32q6.3,0,9.5-2.67a10.46,10.46,0,0,0,0-15q-3.19-2.67-9.5-2.67H689.89l4.18-4.69Z"/><path class="cls-1" d="M474,290.6V239.28h9.46v36.44L511,239.28h8.87V290.6H510.4V254.23L482.91,290.6Z"/><path class="cls-1" d="M527.85,285.61l3.08-7a26.46,26.46,0,0,0,7.26,3.48,28.3,28.3,0,0,0,7.77,1.28,22,22,0,0,0,7-.91,12.5,12.5,0,0,0,5.14-2.9,6.34,6.34,0,0,0,1.94-4.69,5.72,5.72,0,0,0-2.79-5.14,14.56,14.56,0,0,0-7.77-1.76H537.6v-7.55h11.22a11.51,11.51,0,0,0,6.71-1.68,5.57,5.57,0,0,0,2.38-4.84,5.43,5.43,0,0,0-1.57-4,9.71,9.71,0,0,0-4.26-2.42,20.66,20.66,0,0,0-6-.81,26.87,26.87,0,0,0-6.93,1,26.47,26.47,0,0,0-6.89,2.93l-2.93-7.63a33.8,33.8,0,0,1,10.19-3.7,37.73,37.73,0,0,1,10.27-.55,27.13,27.13,0,0,1,9,2.27,17.34,17.34,0,0,1,6.37,4.77,10.8,10.8,0,0,1,2.39,7,11.54,11.54,0,0,1-1.87,6.49,12.57,12.57,0,0,1-5.24,4.4,18.56,18.56,0,0,1-7.92,1.57l.29-2.42a22,22,0,0,1,9,1.69,13.38,13.38,0,0,1,5.83,4.73,12.21,12.21,0,0,1,2,7,12,12,0,0,1-1.86,6.64,15,15,0,0,1-5.25,4.83,26.15,26.15,0,0,1-7.59,2.86,35.42,35.42,0,0,1-8.9.74,37.15,37.15,0,0,1-9.39-1.62A35,35,0,0,1,527.85,285.61Z"/><path class="cls-1" d="M594.94,282.17l-22.73-42.89h10.12l18,35.48Zm-15.69.37a13.38,13.38,0,0,0,7.11.73q3.07-.66,5.43-4.47l2.49-3.89,1-1,17.89-34.6h9.39L600.22,280.7a22.92,22.92,0,0,1-6.42,7.88,15,15,0,0,1-8.06,3.05,19.57,19.57,0,0,1-8.91-1.62Z"/><path class="cls-1" d="M660.93,270.66a46.61,46.61,0,0,1-7.85,2.53,34.35,34.35,0,0,1-7.4.84q-9.75,0-15.11-4.77t-5.35-13.56V239.28h9.39v15.25q0,5.49,3.18,8.36c2.13,1.9,5.15,2.86,9.06,2.86a30.52,30.52,0,0,0,7.11-.85,33.08,33.08,0,0,0,6.82-2.45Zm-1.47,19.94V239.28h9.46V290.6Z"/><path class="cls-1" d="M691.57,282.54h29v8.06H682V239.28h37.47v8.06H691.57Zm-.73-21.93h25.52v7.85H690.84Z"/><path class="cls-1" d="M739.38,290.6h-9.53V239.28h9.53Zm27.27-22h-28v-8.13h28Zm-.73-29.32h9.46V290.6h-9.46Z"/><path class="cls-1" d="M788.57,290.6V239.28H798v36.44l27.57-36.44h8.87V290.6H825V254.23L797.52,290.6Z"/><path class="cls-1" d="M877.36,290.6V274.1l2.35,2.2h-15a26.13,26.13,0,0,1-11.14-2.16,16,16,0,0,1-7.12-6.27,18.46,18.46,0,0,1-2.49-9.75,18.68,18.68,0,0,1,2.64-10.19,17,17,0,0,1,7.48-6.42,26.84,26.84,0,0,1,11.36-2.23h21.34V290.6Zm-33.28,0,12.68-18.33h9.61L854.12,290.6Zm33.28-19.5V244.78l2.35,2.56h-14c-3.92,0-6.91.89-9,2.68s-3.11,4.43-3.11,8,1,6,3,7.81,4.9,2.75,8.76,2.75h14.37Z"/><path class="cls-1" d="M918.72,290.6V239.28h45.53V290.6h-9.46V245l2.2,2.34H926l2.2-2.34v45.6Z"/><path class="cls-1" d="M977.3,290.6V239.28h21.11a28.76,28.76,0,0,1,11.7,2.16,16.69,16.69,0,0,1,7.51,6.27,17.77,17.77,0,0,1,2.64,9.82,17.45,17.45,0,0,1-2.64,9.72,17.27,17.27,0,0,1-7.51,6.3,27.75,27.75,0,0,1-11.7,2.24H982.65l4.18-4.4V290.6Zm9.53-18.18-4.18-4.7H998q6.31,0,9.5-2.67a10.45,10.45,0,0,0,0-15q-3.19-2.69-9.5-2.68H982.65l4.18-4.69Z"/><path class="cls-1" d="M1052.52,291.33a30.15,30.15,0,0,1-11-2,26.37,26.37,0,0,1-8.84-5.57,25.33,25.33,0,0,1-5.79-8.39,27.84,27.84,0,0,1,0-21,25,25,0,0,1,5.79-8.36,26.91,26.91,0,0,1,8.8-5.54,32,32,0,0,1,22.07,0,25.85,25.85,0,0,1,8.76,5.5,25,25,0,0,1,5.76,8.39,26.76,26.76,0,0,1,2,10.56,26.46,26.46,0,0,1-2,10.52,25.52,25.52,0,0,1-14.52,13.93A30.32,30.32,0,0,1,1052.52,291.33Zm0-8.35a18.88,18.88,0,0,0,7.15-1.32,16.87,16.87,0,0,0,5.68-3.74,17.35,17.35,0,0,0,3.78-5.72,19,19,0,0,0,1.36-7.26,19.38,19.38,0,0,0-1.32-7.26,16.51,16.51,0,0,0-3.78-5.72,17.34,17.34,0,0,0-5.72-3.74,18.88,18.88,0,0,0-7.15-1.32,19.43,19.43,0,0,0-7.22,1.32,16.58,16.58,0,0,0-5.76,3.78,18.36,18.36,0,0,0-3.81,5.72,18.59,18.59,0,0,0,3.81,20.16,16.58,16.58,0,0,0,5.76,3.78A19.43,19.43,0,0,0,1052.52,283Z"/><path class="cls-1" d="M1089.26,290.6V239.28h40v7.92h-30.58v12.53h15.18q9.24,0,14,3.82t4.8,11.14q0,7.56-5.31,11.73t-15,4.18Zm9.45-7.33h13.2c3.67,0,6.45-.71,8.36-2.13a7.19,7.19,0,0,0,2.86-6.16q0-7.92-11.22-7.92h-13.2Z"/><path class="cls-1" d="M1139.55,291.26a21.85,21.85,0,0,1-2.53-.15,21.05,21.05,0,0,1-2.75-.51l.66-8.36a7.85,7.85,0,0,0,2.2.3,5.76,5.76,0,0,0,4.95-2.5,17.68,17.68,0,0,0,2.61-7.4,105.27,105.27,0,0,0,1.1-12.17l.73-21.19h37.76V290.6h-9.46V245l2.27,2.34h-24.41l2-2.42-.51,15.25q-.3,7.56-1.1,13.35a42.28,42.28,0,0,1-2.42,9.79,13.36,13.36,0,0,1-4.33,6A11.26,11.26,0,0,1,1139.55,291.26Z"/><path class="cls-1" d="M1206.93,282.54h29v8.06H1197.4V239.28h37.47v8.06h-27.94Zm-.73-21.93h25.52v7.85H1206.2Z"/><path class="cls-1" d="M1245.21,290.6V239.28h7.84l22.44,37.46h-4.11l22.14-37.46h7.77l.15,51.32h-9.16V253.43h1.9l-18.69,31.38h-4.33l-19.06-31.38h2.27V290.6Z"/><path class="cls-1" d="M1344.11,290.6V245l2.28,2.34h-19.21v-8.06h43.4v8.06h-19.21l2.13-2.34v45.6Z"/><path class="cls-1" d="M1377.47,290.6V239.28h21.12a28.79,28.79,0,0,1,11.7,2.16,16.69,16.69,0,0,1,7.51,6.27,17.77,17.77,0,0,1,2.64,9.82,17.45,17.45,0,0,1-2.64,9.72,17.27,17.27,0,0,1-7.51,6.3,27.79,27.79,0,0,1-11.7,2.24h-15.76l4.18-4.4V290.6Zm9.54-18.18-4.18-4.7h15.32q6.3,0,9.49-2.67a10.45,10.45,0,0,0,0-15q-3.18-2.69-9.49-2.68h-15.32l4.18-4.69Z"/><path class="cls-1" d="M1419.05,290.6l23.09-51.32h9.39l23.17,51.32h-10l-19.79-46.26h3.81L1428.8,290.6Zm10.63-11.88,2.64-7.48H1460l2.57,7.48Z"/><path class="cls-1" d="M1490.75,290.6h-9.53V239.28h9.53Zm27.28-22h-28v-8.13h28Zm-.74-29.32h9.46V290.6h-9.46Z"/><path class="cls-1" d="M1563.56,291.33a29.79,29.79,0,0,1-10.93-1.94,25.79,25.79,0,0,1-14.44-13.89,28.22,28.22,0,0,1,0-21.12A25.51,25.51,0,0,1,1544,246a26.08,26.08,0,0,1,8.73-5.53,31.58,31.58,0,0,1,22.43.22,22.86,22.86,0,0,1,8.8,6.41l-6.16,5.79a19.39,19.39,0,0,0-6.3-4.5,18.22,18.22,0,0,0-7.41-1.51,19.89,19.89,0,0,0-7.37,1.32,17.24,17.24,0,0,0-5.79,3.74,17.42,17.42,0,0,0-3.85,5.72,19.65,19.65,0,0,0,0,14.52,17.53,17.53,0,0,0,3.85,5.72,17.24,17.24,0,0,0,5.79,3.74,19.89,19.89,0,0,0,7.37,1.32,18.39,18.39,0,0,0,7.41-1.51,18.93,18.93,0,0,0,6.3-4.58l6.16,5.79a23.06,23.06,0,0,1-8.8,6.45A29.4,29.4,0,0,1,1563.56,291.33Z"/><path class="cls-1" d="M1591.49,290.6V239.28H1637V290.6h-9.45V245l2.2,2.34h-31L1601,245v45.6Z"/><path class="cls-1" d="M1673.9,291.33a30.15,30.15,0,0,1-11-2,26.37,26.37,0,0,1-8.84-5.57,25.33,25.33,0,0,1-5.79-8.39,27.84,27.84,0,0,1,0-21,25,25,0,0,1,5.79-8.36,26.91,26.91,0,0,1,8.8-5.54,32,32,0,0,1,22.07,0,25.85,25.85,0,0,1,8.76,5.5,25,25,0,0,1,5.76,8.39,26.76,26.76,0,0,1,2,10.56,26.46,26.46,0,0,1-2,10.52,25.52,25.52,0,0,1-14.52,13.93A30.32,30.32,0,0,1,1673.9,291.33Zm0-8.35a18.88,18.88,0,0,0,7.15-1.32,17,17,0,0,0,5.68-3.74,17.35,17.35,0,0,0,3.78-5.72,19,19,0,0,0,1.36-7.26,19.38,19.38,0,0,0-1.32-7.26,16.51,16.51,0,0,0-3.78-5.72,17.45,17.45,0,0,0-5.72-3.74,18.88,18.88,0,0,0-7.15-1.32,19.43,19.43,0,0,0-7.22,1.32,16.45,16.45,0,0,0-5.75,3.78,18.53,18.53,0,0,0,0,25.88,16.45,16.45,0,0,0,5.75,3.78A19.43,19.43,0,0,0,1673.9,283Z"/><path class="cls-1" d="M1710.63,290.6V239.28h21.12a28.79,28.79,0,0,1,11.7,2.16,16.69,16.69,0,0,1,7.51,6.27,17.77,17.77,0,0,1,2.64,9.82,17.45,17.45,0,0,1-2.64,9.72,17.27,17.27,0,0,1-7.51,6.3,27.79,27.79,0,0,1-11.7,2.24H1716l4.18-4.4V290.6Zm9.54-18.18-4.18-4.7h15.32q6.3,0,9.5-2.67a10.45,10.45,0,0,0,0-15q-3.19-2.69-9.5-2.68H1716l4.18-4.69Z"/><path class="cls-1" d="M1770.61,290.6V245l2.27,2.34h-19.21v-8.06h43.41v8.06h-19.21L1780,245v45.6Z"/><path class="cls-1" d="M1794.88,290.6,1818,239.28h9.39l23.17,51.32h-10l-19.79-46.26h3.81l-19.87,46.26Zm10.63-11.88,2.64-7.48h27.64l2.57,7.48Z"/></svg>