<svg id="Layer_1" data-name="Layer 1" xmlns="http://www.w3.org/2000/svg" viewBox="0 0 1920 432"><defs><style>.cls-1{fill:#0d3150;}.cls-2{fill:#0c2d4b;}.cls-3{fill:#0e2f48;}.cls-4{fill:#008fc0;}.cls-5{fill:#062d4b;}.cls-6{fill:#fd9000;}.cls-7{fill:#008037;}.cls-8{fill:#ff9000;}.cls-9{fill:#ff001a;}.cls-10{fill:#ff0016;}.cls-11{fill:#fff;}.cls-12{fill:#0c3250;}</style></defs><rect class="cls-1" x="442.79" y="74.83" width="8.71" height="282.34"/><polygon class="cls-2" points="322.05 317.76 312.71 240.95 365.31 191.25 367.08 193.12 315.43 241.93 324.61 317.45 322.05 317.76"/><rect class="cls-1" x="297.65" y="242.16" width="2.57" height="83.34" transform="translate(-109.58 228.75) rotate(-35.84)"/><path class="cls-2" d="M324.63,319.37H182.9L139.08,191.56,254,112,368,191.56Zm-139.9-2.57H322.79L365,192.57l-111-77.4-111.81,77.4Z"/><polygon class="cls-1" points="322.76 318.77 254.14 285.15 186.64 318.76 185.49 316.46 254.13 282.28 323.9 316.45 322.76 318.77"/><polygon class="cls-1" points="143.48 193.44 142.92 190.93 217.51 174.42 253.91 111.1 293.77 174.42 366.48 190.93 365.91 193.44 292.16 176.69 254.01 116.09 219.18 176.69 218.63 176.81 143.48 193.44"/><polygon class="cls-2" points="187.34 317.76 184.79 317.45 193.97 241.93 142.31 193.12 144.08 191.25 196.68 240.95 187.34 317.76"/><circle class="cls-3" cx="195.33" cy="241.44" r="6.55"/><circle class="cls-4" cx="218.35" cy="175.55" r="6.55"/><circle class="cls-5" cx="292.97" cy="175.55" r="6.55"/><line class="cls-1" x1="222.21" y1="213.46" x2="140.75" y2="192.19"/><rect class="cls-1" x="180.19" y="160.73" width="2.58" height="84.19" transform="translate(-60.62 327.16) rotate(-75.36)"/><rect class="cls-1" x="286.13" y="201.3" width="81.42" height="2.57" transform="translate(-40.9 90.19) rotate(-14.8)"/><line class="cls-1" x1="183.62" y1="317.61" x2="234.49" y2="248.48"/><rect class="cls-1" x="166.14" y="281.76" width="85.83" height="2.57" transform="translate(-142.82 283.59) rotate(-53.64)"/><rect class="cls-2" x="252.85" y="149.56" width="2.57" height="40.49"/><path class="cls-1" d="M231,212.74h12.79v3.44h-4.18V232h-4.43V216.18H231Z"/><path class="cls-1" d="M246.23,212.74h4.41v15.72h6.28V232H246.23Z"/><path class="cls-1" d="M259,212.74h6.2l3.43,12.87,3.49-12.87h6.26V232h-3.91V216L270,232h-2.73L262.73,216V232H259Z"/><circle class="cls-6" cx="254.27" cy="114.39" r="39.56"/><circle class="cls-4" cx="366.2" cy="192.19" r="39.56"/><circle class="cls-1" cx="323.33" cy="317.61" r="39.56"/><circle class="cls-1" cx="183.62" cy="317.61" r="39.56"/><circle class="cls-7" cx="140.75" cy="192.19" r="39.56"/><circle class="cls-8" cx="314.07" cy="241.44" r="6.55"/><circle class="cls-1" cx="291.84" cy="273.99" r="6.55"/><circle class="cls-1" cx="217.22" cy="273.2" r="6.55"/><circle class="cls-1" cx="195" cy="206.51" r="6.55"/><circle class="cls-9" cx="314.07" cy="206.51" r="6.55"/><circle class="cls-10" cx="254.14" cy="165.23" r="6.55"/><circle class="cls-8" cx="254.14" cy="285.1" r="6.55"/><path class="cls-11" d="M120.19,192.84a4.8,4.8,0,0,0,1.13-.15,7.44,7.44,0,0,0,2.43-1,4,4,0,0,0,1.59-1.71,2.44,2.44,0,0,0,.25-1.53,3.43,3.43,0,0,0-1-1.82,5.19,5.19,0,0,0-1.13-.84,7.21,7.21,0,0,0-1.24-.55,12.93,12.93,0,0,0-1.74-.41,1,1,0,0,0-1.2.62,1.91,1.91,0,0,0-.07.82c0,.22,0,.28-.27.28-1,0-1.94,0-2.91,0a.57.57,0,0,0-.58.65.54.54,0,0,0,.58.57h3c.14,0,.2,0,.2.18,0,.6,0,1.19,0,1.78,0,.13,0,.17-.17.17l-1,0c-.64,0-1.29,0-1.94,0a.62.62,0,0,0-.41.14.68.68,0,0,0-.19.78.66.66,0,0,0,.59.34c1,0,1.91,0,2.86,0,.23,0,.29.07.27.28a4.13,4.13,0,0,0,0,.5A1,1,0,0,0,120.19,192.84Z"/><path class="cls-11" d="M117.91,182.14a3.59,3.59,0,0,1,2.1,1.24c.24.28.43.6.67.89s.32.35.57.28.33-.44.06-.73a11.85,11.85,0,0,0-1.1-1.14,3.37,3.37,0,0,0-1.08-.67,15.51,15.51,0,0,1-2.1-.88,11.83,11.83,0,0,1-1.84-1.11,6.93,6.93,0,0,1-1.46-1.35,13.89,13.89,0,0,0,1.18.88,13.72,13.72,0,0,0,3.9,1.67c.75.2,1-.27.93-.72a7.69,7.69,0,0,0-.38-1.71,3.6,3.6,0,0,0-1.22-1.63,4.28,4.28,0,0,0-1.91-.72,15.71,15.71,0,0,0-1.81-.23c-.65,0-1.29-.11-1.94-.16a9.3,9.3,0,0,1-1.66-.29,5.19,5.19,0,0,1-1.4-.64,8.49,8.49,0,0,0,.54,2.62,6.1,6.1,0,0,0,1.9,2.72,6.79,6.79,0,0,0,3.78,1.47C116.4,182,117.16,182,117.91,182.14Z"/><path class="cls-11" d="M165.74,194.05a5,5,0,0,0-1.74-1.42,14.36,14.36,0,0,0-4-1.29c-.64-.17-1.29-.27-1.93-.44a10.94,10.94,0,0,1-2.3-.78,13.68,13.68,0,0,1-2.88-2c-.38-.46-.83-.82-1.23-1.24a30.33,30.33,0,0,0-2.31-2.23,9.58,9.58,0,0,0-1.31-1,1.61,1.61,0,0,0-.48-.32l-.06,0-.21-.14h0A.65.65,0,0,0,147,183c-.21-.1-.42-.24-.63-.34a14.77,14.77,0,0,0-1.47-.63,12.42,12.42,0,0,0-2.25-.59,2.87,2.87,0,0,0-.7-.13c-.44-.08-.86-.11-1.29-.15a9.23,9.23,0,0,0-1.48-.05c-.48,0-1,0-1.45.05s-1.2.1-1.79.21c-1.08.16-2.14.37-3.21.61l-.38.08a0,0,0,0,0,0,0s-.07,0-.12,0l-2.32.55c-.83.2-1.67.39-2.51.53-.45.07-.9.16-1.36.25a.93.93,0,0,0-.24,0,14.66,14.66,0,0,1-2,.16h-1.5a.42.42,0,0,0-.33.12.61.61,0,0,0,.24,1,7.59,7.59,0,0,1,2.47,1.37,5.52,5.52,0,0,1,1,1.2,2.93,2.93,0,0,1,.12,2.73,4.76,4.76,0,0,1-2.21,2.24,9,9,0,0,1-2.52.85,2,2,0,0,1-1.57-.12c-.09-.06-.11,0-.11.08a7.77,7.77,0,0,0,0,2.1,5.39,5.39,0,0,0,1.54,3.11c.21.18.42.33.69.24a.7.7,0,0,0,.44-.56,4.94,4.94,0,0,1,.51-1.32A6.57,6.57,0,0,1,125,194.1a6.19,6.19,0,0,1,2.63-.92,5.83,5.83,0,0,1,.84-.07,7.88,7.88,0,0,1,1.09.09A7,7,0,0,1,132,194a5.89,5.89,0,0,1,2.12,2,7.14,7.14,0,0,1,1,3,.84.84,0,0,0,.84.8c1.36,0,2.73,0,4.1,0,0,0,0,0,.06,0h7.44a.63.63,0,0,0,.6-.62,6.17,6.17,0,0,1,.6-2.26,9.05,9.05,0,0,1,1-1.59,7,7,0,0,1,1.14-1,7.36,7.36,0,0,1,1.87-.91,8.06,8.06,0,0,1,1.17-.23,5.75,5.75,0,0,1,2.11.08,8,8,0,0,1,1.74.6c0,.06.07.07.12.09a6.25,6.25,0,0,1,1.42,1,6.77,6.77,0,0,1,1.13,1.47,6.47,6.47,0,0,1,.85,2.55.56.56,0,0,0,.58.54,3.77,3.77,0,0,0,1.05-.21,5,5,0,0,0,1.87-1,4.19,4.19,0,0,0,1.35-2A2.47,2.47,0,0,0,165.74,194.05ZM145,189c-2.11,3-4.23,5.93-6.35,8.92,0-.15.06-.26.09-.39a.11.11,0,0,0,0-.09v-.06s0,0,0,0,0,0,0-.05h0c.07-.23.16-.44.21-.66v-.09c0-.06,0-.12.06-.15s0,0,0,0a.34.34,0,0,0,.08-.21v0a5.22,5.22,0,0,1,.28-.93l.18-.62a.58.58,0,0,1,0-.11c.21-.69.44-1.36.65-2,.1-.28.18-.57.27-.85,0-.12,0-.2-.12-.18-.58,0-1.15.07-1.72.12a4.46,4.46,0,0,0-.82,0c-.11,0-.14,0-.11-.13.23-1,.45-2.09.68-3.12s.48-2.08.69-3.11c.06-.32.28-.23.45-.26.36,0,.74-.06,1.1-.12h.07c.11,0,.23,0,.33-.05h.24a2.14,2.14,0,0,0,.5-.06,2.31,2.31,0,0,0,.37,0,.17.17,0,0,0,.12,0c.42,0,.83-.09,1.28-.11a5.12,5.12,0,0,1-.44.84l-1,1.88c-.32.56-.6,1.11-.92,1.67-.06.13-.09.19.11.19.81,0,1.62-.07,2.41-.1a5.61,5.61,0,0,0,1.16-.08s0,0,0,0A.31.31,0,0,0,145,189Z"/><path class="cls-11" d="M159.56,197.6a5.46,5.46,0,0,0-1.46-1.88,4.69,4.69,0,0,0-1.75-.93,5.19,5.19,0,0,0-.65-.17,5,5,0,0,0-2.1,0,5.23,5.23,0,0,0-2.79,1.61,5.55,5.55,0,0,0-1.19,2.13,5.11,5.11,0,0,0-.13,2.1,5.24,5.24,0,0,0,.63,1.87,4.74,4.74,0,0,0,1.09,1.36,5.71,5.71,0,0,0,1.07.75.84.84,0,0,1,.21.11,4.69,4.69,0,0,0,1.76.46,5.27,5.27,0,0,0,5.47-3.41,4.94,4.94,0,0,0,.3-2.29A5.53,5.53,0,0,0,159.56,197.6Zm-5.42,4.94a5.11,5.11,0,0,1-1.07-.4h0c0-.1-.09-.15-.15-.22a2.69,2.69,0,0,1-.93-2.7,2.82,2.82,0,0,1,3.11-2.21.35.35,0,0,0,.25,0v0h0a1.49,1.49,0,0,0,.51.14s0,0,0,0v0a.46.46,0,0,0,.21.16,2.78,2.78,0,0,1,1.46,2.21A2.82,2.82,0,0,1,154.14,202.54Z"/><path class="cls-11" d="M133.62,198.6a5.35,5.35,0,0,0-2-3,2.56,2.56,0,0,0-.85-.49.11.11,0,0,0-.09-.05,1,1,0,0,0-.36-.15,4.57,4.57,0,0,0-1.79-.35,5.49,5.49,0,0,0-.7.05,5,5,0,0,0-2.56,1,5.08,5.08,0,0,0-1.6,1.93,5.27,5.27,0,0,0,2.22,6.89c.09.09.21.09.3.14a5.28,5.28,0,0,0,7.15-2.69A4.88,4.88,0,0,0,133.62,198.6Zm-3.9,3.73a2.93,2.93,0,0,1-2.49,0c-.06,0-.14-.09-.21-.06h0a4.12,4.12,0,0,1-1-1.1,2.75,2.75,0,0,1,.59-3.47A2.55,2.55,0,0,1,128,197a3.57,3.57,0,0,1,1.22,0v0c0,.09.11.09.17.11a2.82,2.82,0,0,1,1.92,2.35A2.84,2.84,0,0,1,129.72,202.33Z"/><path class="cls-11" d="M120.83,182.73a1,1,0,0,0,.21-.26,2.26,2.26,0,0,1,1.93-1.06,5.55,5.55,0,0,0,1.71-.31,3.31,3.31,0,0,0,2-2.28,5.07,5.07,0,0,0,.18-1.09h-.07a4,4,0,0,1-1.91.52c-.55,0-1.1.09-1.64.18a2,2,0,0,0-1.5.91,2.79,2.79,0,0,0-.35,1.17c-.07.41.16.58.51.48a7.64,7.64,0,0,0,1.24-.45,5.78,5.78,0,0,0,1.08-.64.43.43,0,0,1-.17.23,9.24,9.24,0,0,1-2.37,1.29,2.71,2.71,0,0,0-1.19,1.06.18.18,0,0,0,0,.27A.17.17,0,0,0,120.83,182.73Z"/><path class="cls-11" d="M269.41,129.71l-3.72-14.14a2.48,2.48,0,0,1-.3.13,2,2,0,0,1-1.52,0,22.14,22.14,0,0,1-7.8-4.75h0a1.32,1.32,0,0,1,0,.28c0,.35-.11.4-.4.4-.74,0-1.49,0-2.24,0-.32,0-.44-.08-.41-.43.06-1.27.09-2.56.14-3.84h0c0-.16,0-.31,0-.47a11.85,11.85,0,0,1-.92-4.78c0-2.29,0-4.59,0-6.9h-3.54q-1.6,6.07-3.2,12.15-3.26,12.43-6.54,24.88a1,1,0,0,0,0,.43h13.2c0-.94.08-1.88.1-2.81,0-.24.09-.32.33-.32h3.89c.26,0,.34.08.35.32,0,.93.05,1.87.08,2.81h13.22A22.13,22.13,0,0,0,269.41,129.71Zm-13.26-4.83c-1.1,0-2.21,0-3.32,0-.29,0-.38-.08-.37-.38q.19-3.93.34-7.86c0-.32.11-.42.41-.4.89,0,1.78,0,2.65,0,.3,0,.42.08.43.4,0,1.31.1,2.65.16,4h0c.07,1.27.1,2.54.18,3.79C256.64,124.78,256.53,124.88,256.15,124.88Z"/><path class="cls-11" d="M278,96.22c0-1.52,0-3,0-4.55a1.88,1.88,0,0,0-1.87-2.13c-.84-.13-1.7-.23-2.52-.43a18.41,18.41,0,0,1-5.74-2.78,2.07,2.07,0,0,0-2.67,0,19.71,19.71,0,0,1-3.33,1.92,15.6,15.6,0,0,1-5.2,1.3A1.65,1.65,0,0,0,255.13,91c0,.13,0,.27,0,.4a5.44,5.44,0,0,0,0,.57c0,2.12,0,4.23,0,6.34v1a11.68,11.68,0,0,0,.16,2.16c0,.08,0,.14,0,.2a9.72,9.72,0,0,0,.35,1.31l.15.38a11.32,11.32,0,0,0,2.81,4.11,19.75,19.75,0,0,0,6,3.93l.06,0c.37.16.75.3,1.13.44a1.82,1.82,0,0,0,.54.15,1.74,1.74,0,0,0,.87-.12l.23-.09q1.26-.53,2.46-1.11a17.36,17.36,0,0,0,4.8-3.43,13.2,13.2,0,0,0,2.2-2.94,8.33,8.33,0,0,0,1-2.86A40.4,40.4,0,0,0,278,96.22Zm-4,7.6a11.33,11.33,0,0,1-1.35,1.63,14.29,14.29,0,0,1-3.78,2.7c-.67.35-1.37.67-2.08,1a1.19,1.19,0,0,1-.24,0V99.81c0-.19,0-.38,0-.57a.92.92,0,0,0-.54,0h-7.59c-.46,0-.58-.12-.56-.57,0-1.14,0-2.28,0-3.43,0-.41,0-.84,0-1.27v-1.3c0-.29.06-.43.37-.46a18.49,18.49,0,0,0,8-3.15l.22-.12s.06,0,.09,0,0,.19,0,.28v9.69c0,.13,0,.26,0,.38a.39.39,0,0,1,.25-.08l.23,0c2.58,0,5.16,0,7.75,0,.43,0,.47.15.49.53A6.69,6.69,0,0,1,274,103.82Z"/><path class="cls-11" d="M247.22,95.2h-1.71c0,.14-.09.3-.15.44l-13,31.79c-.7,1.71-1.42,3.41-2.13,5.12,0,.2.19.08.28.08h4.28a15.7,15.7,0,0,1,.69-2.21q5.85-17.55,11.71-35.1A.5.5,0,0,1,247.22,95.2Z"/><path class="cls-11" d="M278.68,132.17q-3.93-9.61-7.87-19.22a24.5,24.5,0,0,1-2.53,1.47q3,8.85,5.92,17.72a1,1,0,0,1,.11.5h4.28c.09,0,.24.12.28-.08S278.74,132.3,278.68,132.17Z"/><path class="cls-11" d="M321.72,333.75a10.07,10.07,0,0,0,.59-1.25,6.35,6.35,0,0,0,.37-1.34,2.82,2.82,0,0,0-.05-1.12,1.36,1.36,0,0,0-.11-.28,1,1,0,0,0-.89-.58,1.84,1.84,0,0,0-1.3.36,4.6,4.6,0,0,0-.82.83,7.24,7.24,0,0,0-.47.66.22.22,0,0,1-.07.09l0-.1a4.3,4.3,0,0,0,.31-1,2.51,2.51,0,0,0,0-1.09,1.34,1.34,0,0,0-1.07-1,2,2,0,0,0-1.22.22,3.1,3.1,0,0,0-.95.85l-.21.27s0,0,0-.08a3.2,3.2,0,0,0,.23-1.06,1.39,1.39,0,0,0-1.08-1.5,1.84,1.84,0,0,0-1.5.24,4.42,4.42,0,0,0-.94.84,6.28,6.28,0,0,0-.48.64s0,0-.05.06a.05.05,0,0,1,0,0c-.55-.52-1.15-1-1.74-1.46-.77-.61-1.56-1.2-2.34-1.79a.68.68,0,0,0-.26-.12l-1.53-.37c-.1,0-.1,0-.09-.12,0-.42.07-.84.14-1.26a16.15,16.15,0,0,1,.55-2.48,17.07,17.07,0,0,1,3-5.74,13.43,13.43,0,0,1,1.25-1.36.17.17,0,0,1,.21-.05l1.36.42a1.73,1.73,0,0,0,.38.05,4.84,4.84,0,0,1,1.31.26,2.72,2.72,0,0,1,.88.49c.15.13.11.11,0,.21l-1.38,1.29a1.67,1.67,0,0,0-.48.75,2.39,2.39,0,0,0-.05,1.3,1.56,1.56,0,0,0,.68.93,2.89,2.89,0,0,0,1.14.44,4.13,4.13,0,0,0,2.45-.32l.17-.11,2.14-1.68a3.27,3.27,0,0,1,1.21-.6,4.69,4.69,0,0,1,1.49-.14,7,7,0,0,1,2.37.56,7.74,7.74,0,0,1,1.35.75l1.74,1.15c2.61,1.73,5.21,3.48,7.76,5.31.83.59,1.66,1.2,2.45,1.85a7.56,7.56,0,0,1,.67.6,1.62,1.62,0,0,1,.48,1.35,1.74,1.74,0,0,1-.22.7,2.49,2.49,0,0,1-.42.56,1.44,1.44,0,0,1-.81.39,1.77,1.77,0,0,1-1-.17,3.38,3.38,0,0,1-.41-.24s-.05,0-.08,0,0,.06,0,.08a1.58,1.58,0,0,1,.29,1.22c0,.16,0,.31-.07.46a2,2,0,0,1-.63,1.1,2.58,2.58,0,0,1-.67.46,1.52,1.52,0,0,1-.66.15,3.6,3.6,0,0,1-1.52-.28s-.07,0-.12,0,0,.07,0,.11a2,2,0,0,1,0,1.12,2.18,2.18,0,0,1-1,1.22,2,2,0,0,1-.71.2,3.15,3.15,0,0,1-1.46-.18l-.06,0h0a.12.12,0,0,0,0,.1,1.68,1.68,0,0,1-.51,1.79,2.28,2.28,0,0,1-1.22.5,3.09,3.09,0,0,1-1.17-.18,7.32,7.32,0,0,1-1.4-.63A14.56,14.56,0,0,1,324,336l-.08-.06a.05.05,0,0,1,0-.08l0-.06a5.37,5.37,0,0,0,.54-1.07,3.06,3.06,0,0,0,.18-.89,1.5,1.5,0,0,0-.07-.51,1.12,1.12,0,0,0-1.39-.65,2.58,2.58,0,0,0-.85.49,4.15,4.15,0,0,0-.57.54A.3.3,0,0,1,321.72,333.75Z"/><path class="cls-11" d="M320.15,312.44c.16,0,.33,0,.5,0l1.51,0,1.22-.05c.34,0,.68,0,1-.08l.36-.07a3.68,3.68,0,0,1,1.1-.05,5.17,5.17,0,0,1,1.79.55c.72.34,1.46.65,2.2,1,1.16.48,2.32,1,3.49,1.42a4.33,4.33,0,0,0,1,.26,3.68,3.68,0,0,0,.74,0,2.55,2.55,0,0,0,1.51-.49,9.3,9.3,0,0,0,.83-.7l.15-.14s.06,0,.1,0a4.66,4.66,0,0,1,.49.39,10,10,0,0,1,2.19,2.77,12.81,12.81,0,0,1,1.31,3.66,16,16,0,0,1,.24,1.71q0,.56.06,1.11c0,.09,0,.09-.08.09a4.72,4.72,0,0,0-2.08.53,5.3,5.3,0,0,0-1.51,1.16c-.06.07-.06.07-.14,0l-3.3-2.22L333,322,329.92,320,327,318l-1.15-.78a4.87,4.87,0,0,0-.89-.43,7.06,7.06,0,0,0-1.75-.46,6.19,6.19,0,0,0-1.29,0,5.65,5.65,0,0,0-1.22.2,2.3,2.3,0,0,0-.43.18,6.55,6.55,0,0,0-1.48,1l-1.3,1a1.63,1.63,0,0,1-.52.28,3.86,3.86,0,0,1-1.16.28,2.21,2.21,0,0,1-1.67-.52.59.59,0,0,1-.14-.18,1.53,1.53,0,0,1-.08-1.38.62.62,0,0,1,.15-.2l1.75-1.55,1.72-1.53.76-.69a4.81,4.81,0,0,1,.57-.44,1.26,1.26,0,0,1,.56-.2C319.66,312.46,319.9,312.44,320.15,312.44Z"/><path class="cls-11" d="M309.9,312.32c0,.05-.06.07-.08.1a17.23,17.23,0,0,0-2.06,2.59,19.71,19.71,0,0,0-2.38,4.88,17.74,17.74,0,0,0-.67,2.77c-.07.46-.13.93-.16,1.4a16.27,16.27,0,0,0,0,1.71.43.43,0,0,1,0,.05s-.06,0-.09,0l-4.94-2.57a.14.14,0,0,1-.08-.16c0-.44.07-.87.12-1.3q.11-.9.27-1.8a22.74,22.74,0,0,1,1.8-5.75,13.44,13.44,0,0,1,2.07-3.19,10.15,10.15,0,0,1,1.69-1.52l.13-.08a.06.06,0,0,1,.09,0l.06.05,4.18,2.78Z"/><path class="cls-11" d="M338.12,312.43l.51-.36,3.66-2.51,0,0a.08.08,0,0,1,.12,0c.12.1.25.18.38.28a13.43,13.43,0,0,1,1.91,1.86,15.45,15.45,0,0,1,2.17,3.36,15.65,15.65,0,0,1,1,2.85,17.79,17.79,0,0,1,.41,2.08c.05.39.09.79.12,1.19,0,.64,0,1.28,0,1.92v0a.12.12,0,0,1-.08.12l-.53.26-1.69.8-2.76,1.33-.07,0a.13.13,0,0,1,0-.1q0-.62,0-1.23c0-.44,0-.88-.08-1.32s-.11-1.15-.2-1.72a19.91,19.91,0,0,0-.63-2.75,14.7,14.7,0,0,0-1-2.4,10.25,10.25,0,0,0-1.54-2.22,8.19,8.19,0,0,0-1.74-1.42l-.07,0Z"/><path class="cls-11" d="M322.11,330.94a3.26,3.26,0,0,1-.13.82,9.37,9.37,0,0,1-.78,2,6.69,6.69,0,0,1-1.09,1.5,1.91,1.91,0,0,1-.54.39.93.93,0,0,1-1.16-.26,1.24,1.24,0,0,1-.23-.44,1.88,1.88,0,0,1,0-1.05c.06-.2.11-.4.18-.6a6.73,6.73,0,0,1,.77-1.57,7,7,0,0,1,.67-.94,3.22,3.22,0,0,1,1.14-.86,1.37,1.37,0,0,1,.29-.07.75.75,0,0,1,.82.54A1.77,1.77,0,0,1,322.11,330.94Z"/><path class="cls-11" d="M315,332.5a2.66,2.66,0,0,1,.13-.78,8.26,8.26,0,0,1,.8-1.83,3.9,3.9,0,0,1,.8-1,1.64,1.64,0,0,1,.71-.38,1,1,0,0,1,1.21.6,1.25,1.25,0,0,1,.1.6,4.1,4.1,0,0,1-.16,1,6.15,6.15,0,0,1-.41,1.11,5.3,5.3,0,0,1-.78,1.26,2.56,2.56,0,0,1-.6.54,1.21,1.21,0,0,1-1.15.08,1,1,0,0,1-.61-.81A1.87,1.87,0,0,1,315,332.5Z"/><path class="cls-11" d="M315.43,328.51A3,3,0,0,1,315,330a3.2,3.2,0,0,1-.63.83,1.67,1.67,0,0,1-1.1.47,1.11,1.11,0,0,1-1.12-.9,1.9,1.9,0,0,1,0-.63,3.08,3.08,0,0,1,.47-1.32,3.16,3.16,0,0,1,1.06-1,1.36,1.36,0,0,1,1.05-.11,1,1,0,0,1,.63.66.83.83,0,0,1,.06.21C315.43,328.29,315.43,328.39,315.43,328.51Z"/><path class="cls-11" d="M324.22,333.86a1.5,1.5,0,0,1-.09.56,6.55,6.55,0,0,1-.73,1.59,3.6,3.6,0,0,1-.73.88.92.92,0,0,1-.63.24,1,1,0,0,1-.47-.15.67.67,0,0,1-.26-.42,2.15,2.15,0,0,1,0-.67,3.11,3.11,0,0,1,.28-.88,4.26,4.26,0,0,1,.89-1.37,2.06,2.06,0,0,1,.57-.45,1.21,1.21,0,0,1,.77-.08.44.44,0,0,1,.34.29,1.39,1.39,0,0,1,.06.19A2.44,2.44,0,0,1,324.22,333.86Z"/><g id="o3SyUi.tif"><path class="cls-11" d="M321.89,311.06l-1.51,0-.51,0c-.24,0-.48,0-.73.05a1.15,1.15,0,0,0-.56.2,4.81,4.81,0,0,0-.57.44l-.77.69L316,313.54c-.35-.13-.44-.42-.44-1,0-3.5,0-7,0-10.5a.92.92,0,0,1,.65-1H317a17.63,17.63,0,0,1,2.38.49,6.15,6.15,0,0,1,3.34,2.43,1.14,1.14,0,0,1,.21.64V311Z"/><path class="cls-11" d="M331.51,312.62a1.65,1.65,0,0,1-.06.48c-.63-.26-1.25-.51-1.87-.78s-1.48-.61-2.2-1a5.38,5.38,0,0,0-1.79-.54,3.18,3.18,0,0,0-1.11.05l-.35.07h0c0-2.1,0-4.19,0-6.29a1.39,1.39,0,0,1,.26-.83,6.48,6.48,0,0,1,4.2-2.59c.49-.11,1-.17,1.47-.26h.82a.94.94,0,0,1,.65,1C331.5,305.54,331.51,309.08,331.51,312.62Z"/><path class="cls-11" d="M314.5,313.25A3.76,3.76,0,0,0,314,313a5.8,5.8,0,0,0-.82-.21v-8.65a1,1,0,0,1,.45-.5c.56-.25.85-.08.85.51,0,2.81,0,5.62,0,8.43A2.83,2.83,0,0,0,314.5,313.25Z"/><path class="cls-11" d="M333.94,304.43c0,3.19,0,6.37,0,9.56a4,4,0,0,1-.88-.24l-.53-.21a2.27,2.27,0,0,0,.12-.75c0-2.88,0-5.76,0-8.64,0-.19-.14-.45.12-.57a1,1,0,0,1,1,.31A1,1,0,0,1,333.94,304.43Z"/></g><g id="_7Bt7F9.tif" data-name="7Bt7F9.tif"><path class="cls-11" d="M185,328.05l1.49,1.48a.4.4,0,0,1,.13.33c0,.4,0,.81,0,1.21,0,.16,0,.23-.2.22-.42,0-.84,0-1.26,0a.36.36,0,0,1-.29-.13l-3-3a.43.43,0,0,0-.33-.15H178.7a.39.39,0,0,0-.3.12c-1,1-2,2-3,3a.42.42,0,0,1-.32.13c-.42,0-.85,0-1.27,0-.12,0-.17,0-.17-.16q0-.67,0-1.35a.34.34,0,0,1,.11-.23l1.35-1.34.15-.16a6.25,6.25,0,0,1-1.09-.13,4.85,4.85,0,0,1-3.76-4.74c0-3.78,0-7.57,0-11.35a4.84,4.84,0,0,1,4-4.79,5.18,5.18,0,0,1,1-.08h9.58a4.85,4.85,0,0,1,4.83,3.84,5.1,5.1,0,0,1,.11,1.11V323.1a4.87,4.87,0,0,1-3.72,4.81A5.08,5.08,0,0,1,185,328.05Zm-4.86-8.11h6.27c.16,0,.21,0,.21-.2v-9.33c0-.18,0-.21-.21-.21H173.87c-.17,0-.21.05-.21.21,0,3.11,0,6.21,0,9.32,0,.18.06.21.23.21Zm-3.25,3.24a1.62,1.62,0,1,0-3.24,0,1.62,1.62,0,1,0,3.24,0Zm9.73,0a1.62,1.62,0,1,0-3.24,0,1.62,1.62,0,1,0,3.24,0Z"/><path class="cls-11" d="M181.88,298.06a2.39,2.39,0,0,1-.68,1.66l-5.51,5.51a.4.4,0,0,1-.32.11,6.47,6.47,0,0,0-6.57,6.6.41.41,0,0,1-.13.33l-5.15,5.14a.33.33,0,0,0-.12.32c.17,1.18.33,2.36.5,3.55a.48.48,0,0,1-.15.47c-.47.45-.92.92-1.38,1.39-.11.12-.16.11-.24,0l-2.65-4.8a.68.68,0,0,0-.29-.29c-1.6-.88-3.2-1.78-4.81-2.66-.16-.09-.15-.14,0-.25.49-.5,1-1,1.46-1.49a.24.24,0,0,1,.25-.09l3.76.55a.3.3,0,0,0,.28-.09l6-6c.13-.13.09-.17-.05-.24l-11.69-6.14c-.15-.08-.17-.12,0-.24l2-2a.32.32,0,0,1,.33-.1l9.78,2.26,4.8,1.11a.27.27,0,0,0,.28-.11l6.18-6.18a2.44,2.44,0,0,1,3.19-.2A2.5,2.5,0,0,1,181.88,298.06Z"/></g><g id="nVTTIy.tif"><path class="cls-11" d="M202,330.83c0,.36-.1.49-.47.48H189.51A.47.47,0,0,1,189,331a6.09,6.09,0,0,0-1.25-2l.07,0a4.85,4.85,0,0,0,3.72-4.8V313a5,5,0,0,0-.11-1.09h8.93a2.18,2.18,0,0,1,1.68,2.22C202,319.67,202,325.25,202,330.83Z"/><path class="cls-11" d="M211.68,318.62a2.11,2.11,0,0,0-1.88-1c-1.88,0-3.77,0-5.65,0-.5,0-.64.13-.64.63,0,3.37,0,6.74,0,10.12,0,.17-.06.35.07.53a.41.41,0,0,0,.15-.07,5.13,5.13,0,0,1,8.41,2.28c0,.11.07.22.2.27a3.09,3.09,0,0,0,2.1-.36v-7A19.06,19.06,0,0,0,211.68,318.62Zm.31,3.9h-2.94c-1,0-2,0-3,0-.46,0-.58-.14-.56-.58,0-.87,0-1.73,0-2.59,0-.37.11-.49.48-.48,1.26,0,2.52,0,3.79,0a.89.89,0,0,1,.77.38,27.87,27.87,0,0,1,1.73,2.81C212.54,322.5,212.35,322.53,212,322.52Z"/><path class="cls-11" d="M211.07,331.91a3.87,3.87,0,1,0-4.84,4.4c.17,0,.37,0,.51.15h1.08c.15-.17.37-.13.56-.19A3.87,3.87,0,0,0,211.07,331.91Zm-3.84,2.46a1.79,1.79,0,1,1,1.81-1.79A1.8,1.8,0,0,1,207.23,334.37Z"/></g><path class="cls-11" d="M368.08,208c-.34.39-.12,1.26-1,1.13s-1.79-.31-1.91-1.47c0-.33-.11-.65.29-.78,1-.35,1.53-1.51,2.64-1.69.19,0,.45.28.43.62C368,206.4,368.65,207.28,368.08,208Z"/><path class="cls-11" d="M370.3,202.55c-.08.18-.14.37-.17.37-.4-.09-.93-.06-1.15-.32a1.2,1.2,0,0,1-.13-1.49c.26-.4.65-.4.78,0S369.47,202.35,370.3,202.55Z"/><path class="cls-11" d="M371,204.62a.86.86,0,0,1-.67.82c-.28-.24-.87-.26-.85-.68,0-.6.7-.45,1.09-.61S371,204.33,371,204.62Z"/><path class="cls-11" d="M377.09,191.35c-.06.36-.49.47-.82.55s-.51-.17-.44.37a2.4,2.4,0,0,1-1.91,3,3.13,3.13,0,0,0-1.68,1.18c-.55-1.33.21-1.82,1-2.13,1.17-.44,2-1.06,1.95-2.46,0-.79.76-1.41,1.24-1.07C376.67,191,377.16,191,377.09,191.35Z"/><path class="cls-11" d="M356.65,195.42a.77.77,0,1,1-.76-.76A.76.76,0,0,1,356.65,195.42Z"/><path class="cls-11" d="M372.44,191.79a3.73,3.73,0,0,0-1.76-1.42,8,8,0,0,0-2.49-.38,18.25,18.25,0,0,0-4.37.15,2.74,2.74,0,0,0-.37.11,1.6,1.6,0,0,1-1.62-.25l.15-.25-.15.25-.41-.26a2.65,2.65,0,0,0-.37.65,3.58,3.58,0,0,0,.47,2.93,13,13,0,0,0,.71,1.11,12.52,12.52,0,0,1,1,1.75c1.09,2.44.68,4.45,0,7l-.56-.15c.69-2.53,1.06-4.36.05-6.64a11.83,11.83,0,0,0-1-1.66c-.25-.37-.5-.75-.73-1.15a6.89,6.89,0,0,1-.42-.9,20.59,20.59,0,0,0-7.91-1l-.35,0c-1.71.19-3.65.4-4.89-.88a6.15,6.15,0,0,1-.86-1.25,4,4,0,0,0-1.05-1.38l.13-.18a4.32,4.32,0,0,0-.53.4c-.43.34-.13.85.21,1.22a.2.2,0,0,1,.06.21,1.45,1.45,0,0,0-.26.79l.12-.22c.52.29,1.17.6,1.81.9s1.32.62,1.85.93a5.25,5.25,0,0,0,1.6.69,5.33,5.33,0,0,0,1.72-.11c.25,0,.5-.09.76-.12a9.45,9.45,0,0,1,3,.27c1.41.37,2.27,1,2.49,1.82.38,1.48-1.48,3.13-2.59,4.11l-.32.3a9.88,9.88,0,0,1-1,.8,9.82,9.82,0,0,0-1,.76l-.17-.19a.64.64,0,0,1,0,.2c-.16,1.2.74,2,1,3.07.06.3.16.64.55.66s.47-.35.68-.56c.55-.58.11-1.5.53-2a10.88,10.88,0,0,1,2.69-2.36c.33-.18.53-.23.75.16s.76.89.73,1.55c0,.25,0,.71.37.59,1.07-.39,1,.67.94.94a6.17,6.17,0,0,0,.79,3.33c-.42-.25-.7-.63-1.14-.78a.49.49,0,0,0-.54.09.29.29,0,0,0,0,.42c1.49,1.77,2.22,4.42,5.18,4.52.42,0,1,.63,1.19,0,.15-.43-.68-.33-1-.66-.06-.1-.28-.09-.43-.11-.65,0-1.42.11-1.39-.94,0-.71-1-.93-.85-1.7a2.2,2.2,0,0,0-.77-2.38c-.39-.31-.84-1-.33-1.41s.91.37,1.09.67c.38.71.52.48,1,.06,1.17-1.1,1.27-1.62.23-2.87-.22-.26-.43-.45-.2-.8s.36-.62.58-.49c.78.46,1.23-.21,1.82-.41,2.13-.78,2.85-2.2,2.22-4.34-.07-.21-.27-.45-.08-.65,1-1,.08-1-.64-1.11.93-.63,2-.29,2.17.65.1.56.16,1.07.88.89.91-.23.44-.82.26-1.3A1.5,1.5,0,0,1,372.44,191.79ZM369.07,178a.77.77,0,0,0-.77.76.78.78,0,0,0,.77.77.76.76,0,0,0,.76-.77A.75.75,0,0,0,369.07,178Zm-15.9,2.32a.77.77,0,0,0-.73.54,1.64,1.64,0,0,0,.37.42,4.5,4.5,0,0,0,.77.45h0a.78.78,0,0,0,.36-.64A.78.78,0,0,0,353.17,180.31Zm1.78,3.26a1.93,1.93,0,0,0-.63-.79c-.27.48-.58.94-.9,1.4q.48.16.93.36c.43.18.76.33,1.07.48l.53.29,0,0,.21.12A9.52,9.52,0,0,1,355,183.57Zm6,5.86a21.29,21.29,0,0,1-3.6-2.76,1.77,1.77,0,0,1-.73-.23,3.12,3.12,0,0,1-.51-.35,3.42,3.42,0,0,0-.4-.26l0,0-.49-.27c-.3-.15-.62-.29-1-.47a9.53,9.53,0,0,0-1.78-.59,11.45,11.45,0,0,0-3-.08l0-.58a11.71,11.71,0,0,1,3.18.09l.33.07c-.25-.37-.5-.75-.73-1.15a6.48,6.48,0,0,1-.49-1,2,2,0,0,1-.13-.64,1.82,1.82,0,0,1,.19-.77h0a5.32,5.32,0,0,1-.15-1.15l-.5-.13c-1.48-.4-1.93-.07-2,1.52,0,.39,0,.78,0,1.17-.14,1.1.52,2.14.21,3.23a2.33,2.33,0,0,0,.17,1.81c.31.64.48,1.17-.65,1-.53-.06-1.08-.07-1.61-.16a1.62,1.62,0,0,0-1,.14,5,5,0,0,1,1.09,1.48,5.34,5.34,0,0,0,.77,1.13c1,1.07,2.83.88,4.41.7l.35,0a20.88,20.88,0,0,1,7.78.89,3.18,3.18,0,0,1,.1-1.85A3.44,3.44,0,0,1,360.92,189.43ZM369.07,178a.77.77,0,0,0-.77.76.78.78,0,0,0,.77.77.76.76,0,0,0,.76-.77A.75.75,0,0,0,369.07,178Zm-7.56,7a.77.77,0,1,0,0,1.54.77.77,0,0,0,0-1.54ZM357.09,197v0A2.61,2.61,0,0,0,358,195c-.2-.8-1.38-1.22-2.07-1.4a8.58,8.58,0,0,0-2.83-.26l-.72.11a4.25,4.25,0,0,1-3.71-.65c-.51-.29-1.17-.6-1.81-.9s-1.14-.54-1.64-.81c.14.57.55,1.1.7,1.7-.63.35-1.82-.58-1.82.92a1.47,1.47,0,0,0-.55,0c-.67.18-1.83-.09-1.92.45-.2,1.13-.84,2.33-.21,3.51.86,1.64,2.09,3.09,2.62,4.92.13.5.47.51.91.37a9.71,9.71,0,0,0,3.51-2,2.85,2.85,0,0,0,.9-1.2c.2-.66-.59-.71-.71-1.14h2.15a6.38,6.38,0,0,1,2.53,1.79,11,11,0,0,1,1-.77,8.49,8.49,0,0,0,1-.76l.34-.3a.1.1,0,0,1,.05,0,15.27,15.27,0,0,1-.84-1.31,5.71,5.71,0,0,1-.49-1,1.78,1.78,0,0,1-.13-.64,1.74,1.74,0,0,1,3.43-.37,1.66,1.66,0,0,1-.05.91A5.75,5.75,0,0,1,357.09,197Zm34.11-16.51a17.84,17.84,0,0,1-2.8-1.32,7.5,7.5,0,0,0-.93-.37,4.16,4.16,0,0,0-1.23-.19,1.36,1.36,0,0,0-.29,0c-.36.07-.67.25-1,.32a.84.84,0,0,1-.27,0c-1.93,0-3.69-1.06-5.65-1.05-.2,0-.4-.22-.6-.3-1-.4-2.23-1-2.93-.42-1.07.89-2.3.2-3.29.81-.13.09-.39,0-.44-.26-.24-.92-.86-1.58-1.46-1.22-1.51.89-2.78-.7-4.19-.07.28-.51.87-.7.56-1.38s-.83-.41-1.29-.54c-1.33-.38-2.6-.51-3.73.5a.61.61,0,0,1-.45.07c-2-.46-3.34,1.42-5.17,1.61-.06,0-.12.11-.16.17-.68,1-1.56.74-2.38.31-1-.49-1.76-.13-1.9,1a1.08,1.08,0,0,0,0,.31h.4a8.45,8.45,0,0,0,.06,1.25,1.7,1.7,0,0,1,.72-.33,1.74,1.74,0,0,1,2.05,1.32,1.72,1.72,0,0,1-.05.9,5.25,5.25,0,0,1-.22.55,2.74,2.74,0,0,1,.87,1.06,9.07,9.07,0,0,0,1.49,2.16A19.36,19.36,0,0,0,361.3,189l0,0c-.33-.47-.65-.95-.94-1.45a6.58,6.58,0,0,1-.49-1,1.92,1.92,0,0,1-.13-.64,1.75,1.75,0,0,1,1.38-1.68,1.73,1.73,0,0,1,2.05,1.32,1.53,1.53,0,0,1-.05.9,5.52,5.52,0,0,1-.44,1c-.1.17-.2.35-.31.51a3.57,3.57,0,0,0,.42-.54,6.07,6.07,0,0,0,.67-2,8.15,8.15,0,0,1,.54-1.85,4.14,4.14,0,0,1,4.31-2.28c-.14-.21-.27-.43-.39-.64a6.19,6.19,0,0,1-.49-1,1.92,1.92,0,0,1-.13-.64,1.75,1.75,0,0,1,1.38-1.68,1.73,1.73,0,0,1,2.05,1.32,1.57,1.57,0,0,1-.05.91,5.75,5.75,0,0,1-.44,1c-.23.42-.49.81-.75,1.2l.21.11a2.69,2.69,0,0,0,2.67.22l6.38-1.64a10.56,10.56,0,0,1,4.73-.46,8.26,8.26,0,0,1,2.16.86c.29.15.57.31.85.47l.68.38c.24.13.48.26.72.37l-.25.53c-.27-.13-.54-.27-.8-.42l-.53-.3h0l-.11-.06a9.87,9.87,0,0,0-2.83-1.26,10.13,10.13,0,0,0-4.48.46l-6.37,1.63a4.25,4.25,0,0,1-2.14.16,4,4,0,0,1-1-.43l-.27-.14c0,.05-.07.1-.1.16h0l-.16-.21a.76.76,0,0,0-.08-.11,3.53,3.53,0,0,0-4.27,1.8,7.56,7.56,0,0,0-.5,1.71,5.13,5.13,0,0,1-1.83,3.47l-.43.44.33.2c.62.37.79.32,1.13.2.12,0,.27-.09.44-.13a18.53,18.53,0,0,1,4.52-.16,8.42,8.42,0,0,1,2.68.42,4.28,4.28,0,0,1,2,1.66l-.36.23.15-.06c2.06-.63,2.62-2.26,3.06-4,.15-.6,0-1.34-1-1.06-.5.13-.57-.07-.39-.47.34-.76,2.12-1.6,2.92-1.76,1.06-.22,2.32.77,3.2-.58.21-.32.62-1,1.2-.34s-.24.76-.49,1a2.56,2.56,0,0,0-.69,3.23c.11.23.38.51.48.3.51-1,1.73-1.45,1.88-2.65s.56-1.7,1.75-1.45c.93.2,1.35-.46,2-.8s1.59.05,1.5-1.27c0-.6.84-.64,1.43-.42.22.07.38.28.59.37.71.31.86-.48,1.3-.72C391.69,180.89,391.41,180.57,391.2,180.52Z"/><path class="cls-11" d="M397.35,190.72a30.62,30.62,0,1,0-30.66,31.7A30.6,30.6,0,0,0,397.35,190.72Zm-18.51-25.07a26.18,26.18,0,0,1,5.1,3.07c-1.15.51-2,.62-2.82-.46a20.81,20.81,0,0,0-2.49-2.38Zm1,4a43.45,43.45,0,0,1-5.16.78c-.53.09-.61-.3-.75-.68a25,25,0,0,0-3-6.09A18.77,18.77,0,0,1,379.88,169.61Zm-10.69-5.21a17.88,17.88,0,0,1,2.86,5.45c.25.72-.1.79-.65.79h-9.33c-.47,0-.86,0-.61-.71a18.11,18.11,0,0,1,2.82-5.47C365.85,162.56,367.63,162.54,369.19,164.4Zm-9.59,5.28a.87.87,0,0,1-1.1.71c-1.32-.18-2.63-.32-3.93-.52-.56-.07-1.05-.23-.4-.91a19.67,19.67,0,0,1,8.42-5.38A21,21,0,0,0,359.6,169.68Zm-4.84-4c-1,1-2,2-2.92,3.12-.71.86-1.39-.09-2.13,0A16.37,16.37,0,0,1,354.76,165.71ZM341.44,178a31.5,31.5,0,0,1,5.88-7.51.78.78,0,0,1,.84-.25l.23,0c2.28.63,2,.4,1,2.07a30.06,30.06,0,0,0-3.39,7.8c-.24.89-.58,1.11-1.45.7a24.42,24.42,0,0,1-2.7-1.37A1,1,0,0,1,341.44,178Zm2.2,30.85,4.74,1.28a1.08,1.08,0,0,1,.69.58,32.61,32.61,0,0,0,5.67,7.11A28.21,28.21,0,0,1,343.64,208.89Zm7.7,2c2.53.25,4.76.48,7,.68a.77.77,0,0,1,.75.61,28.9,28.9,0,0,0,3.18,7.6C357.5,218.27,354.11,215.15,351.34,210.85Zm19.75,9.09a31.31,31.31,0,0,0,2.33-4.74c.28-.93.63-1.84.91-2.77a1,1,0,0,1,.94-.87l6.89-.67A20.84,20.84,0,0,1,371.09,219.94Zm4.18-11.16a77.47,77.47,0,0,0,1.38-9.35c.07-.67.2-1,1-1.1a74.62,74.62,0,0,0,8.56-1.17c.73-.16.91,0,.77.75a37.84,37.84,0,0,1-3.19,10.1c-.2.38-.35.73-.88.81-2.28.3-4.54.65-6.82,1C375.16,210,375.1,209.51,375.27,208.78Zm3.52,9.1c.93-1.15,2.11-2.07,3-3.27a11.62,11.62,0,0,0,1.37-1.89c1.18-3,4-2.9,6.65-3.73A28,28,0,0,1,378.79,217.88Zm15.15-16.57c-.26.73-.63,1.43-.85,2.18-1.08,3.52-4.25,3.76-7.21,4.68.54-1.69,1.17-3.14,1.64-4.66a45,45,0,0,0,1.29-5.92,1.38,1.38,0,0,1,1.19-1.34,20.25,20.25,0,0,0,5.41-2.12A25.39,25.39,0,0,1,393.94,201.31Zm.69-9a16.45,16.45,0,0,1-4.79,2.12c-.75.24-.73-.31-.73-.8,0-1.61,0-3.21,0-4.8a26.22,26.22,0,0,0-.43-3.95c-.11-.71-.37-1.07-1.14-.92s-.79.61-.67,1.22a42.27,42.27,0,0,1,.49,8.85,1.1,1.1,0,0,1-1,1.24c-2.88.56-5.77.93-8.67,1.28-.27,0-.57.07-.72-.24s.06-.91-.36-.87a4.36,4.36,0,0,0-1.45.66c-1.22.63-2.29,1.85-3.9.92-.42-.24-.72.07-.72.47,0,.55.13,1.13.87,1.15.89,0,1.79,0,2.69,0,.61,0,.8.19.76.82a64.18,64.18,0,0,1-1.4,9.47c-.18.82-.55,1.11-1.35,1.07a24.51,24.51,0,0,0-2.57.07c-.38,0-.74,0-.93.49-.45,1.27-.4,1.39,1,1.38a14.66,14.66,0,0,0,2-.1c.86-.11,1.23,0,.86,1a20,20,0,0,1-3,6.14c-1.71,2.1-3.55,2.07-5.2-.06a21.84,21.84,0,0,1-3-6.28c-.28-.79.1-.84.72-.82,1.15,0,2.3,0,3.45,0a3,3,0,0,0,.11-.32,3.23,3.23,0,0,1-2.73-1.31,1,1,0,0,0-.76-.19c-1.37.21-1.73-.55-1.91-1.7-.3-1.85-.73-3.67-.93-5.53-.05-.45.21-1.23-.54-1.19s-1,.68-1.15,1.31a4.74,4.74,0,0,0,.09,1.4c.25,1.53.48,3.08.81,4.61.18.84-.16.93-.84.84-2.16-.32-4.31-.63-6.48-.92a1.54,1.54,0,0,1-1.3-1,31.44,31.44,0,0,1-1.57-3.9c-.13-.44-.25-1-.95-.66s-1.12.44-.81,1.24c.43,1.13.84,2.26,1.26,3.4a7.89,7.89,0,0,1-7.26-4.72,29.24,29.24,0,0,1-2.13-8c0-.3-.24-.66.07-.86s.49.14.74.21c.43.12.91.92,1.26.23.27-.54.57-1.4-.48-1.86A2.81,2.81,0,0,1,338,189.6a37,37,0,0,1,1.74-7.85c.31-.9.73-1.06,1.51-.48a9.06,9.06,0,0,0,2.94,1.4c.79.25,1.1.57.84,1.42a8.74,8.74,0,0,0-.33,2c0,.37-.37,1,.29,1a1.48,1.48,0,0,0,1.55-1c.13-.53.12-1.09.23-1.62.06-.28,0-.72.42-.75,1-.08.73-.88.57-1.29a3.82,3.82,0,0,1,.23-2.85,37.9,37.9,0,0,1,3.73-7.52,1.21,1.21,0,0,1,1.44-.62c1.57.3,3.15.54,4.74.69.78.07.87.34.72,1-.08.37-.56,1,.14,1.18s1.42.05,1.56-.69c.23-1.32,1.07-1.28,2.06-1.21a64.22,64.22,0,0,0,9,0c1.16-.09,1.65.33,1.84,1.38.11.65.26,1.3.43,1.94.11.37,0,1,.72.78s1.26-.35,1-1.25-.29-1.53-.5-2.29c-.14-.54,0-.74.57-.81,1.62-.19,3.26-.41,4.86-.71a1.29,1.29,0,0,1,1.52.7,25.16,25.16,0,0,1,2.48,4.63,1.1,1.1,0,0,0,1.22.81,4.13,4.13,0,0,0,.49-.07c.31-.06.43-.2.44-.37a1.59,1.59,0,0,0-.25-.74,47.68,47.68,0,0,0-2.2-4.26c-.24-.38-.84-.72-.44-1.3a2.93,2.93,0,0,1,2.52-.38,28.74,28.74,0,0,1,5.95,7.61c.12.21.24.44.05.65-.78.84.09,1.28.53,1.52a2.18,2.18,0,0,1,1,1.3,28.52,28.52,0,0,1,1.87,8.89A2.11,2.11,0,0,1,394.63,192.33Z"/><path class="cls-1" d="M255,184.09a38.08,38.08,0,1,0,38.08,38.08A38.08,38.08,0,0,0,255,184.09Zm0,68.57a30.49,30.49,0,1,1,30.5-30.49A30.49,30.49,0,0,1,255,252.66Z"/><path class="cls-12" d="M491.28,203.09V153.6h9.12v41.71h24.89V153.6h9.12v49.49Zm42.07,10.82v-13l2,2.19H525.29v-7.78h16.54v18.6Z"/><path class="cls-12" d="M558.24,195.31h27.93v7.78H549V153.6h36.14v7.77H558.24Zm-.71-21.14h24.6v7.57h-24.6Z"/><path class="cls-12" d="M604.34,203.09h-9.19V153.6h9.19Zm26.3-21.21h-27V174h27Zm-.71-28.28h9.12v49.49h-9.12Z"/><path class="cls-12" d="M662.18,203.09v-44l2.19,2.26H645.84V153.6H687.7v7.77H669.18l2.05-2.26v44Z"/><path class="cls-12" d="M694.35,203.09V153.6h20.36A27.74,27.74,0,0,1,726,155.68a16.19,16.19,0,0,1,7.25,6,17.2,17.2,0,0,1,2.54,9.47,16.88,16.88,0,0,1-2.54,9.37,16.7,16.7,0,0,1-7.25,6.08,26.9,26.9,0,0,1-11.28,2.16h-15.2l4-4.24v18.52Zm9.19-17.53-4-4.53h14.78q6.08,0,9.15-2.58a10.06,10.06,0,0,0,0-14.49q-3.08-2.6-9.15-2.59H699.51l4-4.52Z"/><path class="cls-12" d="M491.28,287.94V238.45h9.12v35.14L527,238.45h8.56v49.49h-9.12V252.87L499.9,287.94Z"/><path class="cls-12" d="M543.25,283.13l3-6.78a25,25,0,0,0,7,3.35,27.35,27.35,0,0,0,7.49,1.24,21.39,21.39,0,0,0,6.75-.88,12,12,0,0,0,4.95-2.8,6.08,6.08,0,0,0,1.88-4.52,5.5,5.5,0,0,0-2.69-4.95,14,14,0,0,0-7.5-1.7H552.65v-7.28h10.82a11,11,0,0,0,6.47-1.63,5.37,5.37,0,0,0,2.3-4.66,5.27,5.27,0,0,0-1.52-3.82,9.37,9.37,0,0,0-4.1-2.33,20.1,20.1,0,0,0-5.8-.78,26.43,26.43,0,0,0-13.33,3.74L544.66,242a32.88,32.88,0,0,1,9.83-3.57,36.2,36.2,0,0,1,9.9-.53,26.06,26.06,0,0,1,8.66,2.19,16.7,16.7,0,0,1,6.15,4.6,10.43,10.43,0,0,1,2.3,6.79,11.06,11.06,0,0,1-1.8,6.25,12.06,12.06,0,0,1-5.06,4.25,17.93,17.93,0,0,1-7.64,1.52l.29-2.34a21.21,21.21,0,0,1,8.66,1.63,12.87,12.87,0,0,1,5.62,4.56,11.8,11.8,0,0,1,2,6.75,11.54,11.54,0,0,1-1.8,6.4,14.57,14.57,0,0,1-5.06,4.67,25.38,25.38,0,0,1-7.32,2.76,33.91,33.91,0,0,1-8.59.7,35.34,35.34,0,0,1-9-1.55A33.57,33.57,0,0,1,543.25,283.13Z"/><path class="cls-12" d="M607.94,279.81,586,238.45h9.76l17.32,34.22Zm-15.13.35a12.84,12.84,0,0,0,6.86.71q3-.63,5.23-4.31l2.41-3.75.92-1,17.25-33.37h9L613,278.4a22.08,22.08,0,0,1-6.18,7.6,14.55,14.55,0,0,1-7.78,2.93,18.8,18.8,0,0,1-8.59-1.55Z"/><path class="cls-12" d="M671.58,268.71a44.82,44.82,0,0,1-7.57,2.44,33.13,33.13,0,0,1-7.14.81q-9.4,0-14.56-4.59t-5.17-13.09V238.45h9.06v14.7q0,5.31,3.07,8.06T658,264a29.44,29.44,0,0,0,6.86-.81,31.58,31.58,0,0,0,6.58-2.37Zm-1.41,19.23V238.45h9.12v49.49Z"/><path class="cls-12" d="M701.14,280.16h27.93v7.78H691.94V238.45h36.14v7.77H701.14ZM700.43,259H725v7.57H700.43Z"/><path class="cls-12" d="M747.24,287.94H738V238.45h9.2Zm26.3-21.21h-27v-7.85h27Zm-.71-28.28H782v49.49h-9.12Z"/><path class="cls-12" d="M794.68,287.94V238.45h9.12v35.14l26.59-35.14h8.55v49.49h-9.12V252.87l-26.51,35.07Z"/><path class="cls-12" d="M880.31,287.94V272l2.26,2.12H868.08a25.2,25.2,0,0,1-10.75-2.08,15.47,15.47,0,0,1-6.86-6.05,17.78,17.78,0,0,1-2.4-9.4,18,18,0,0,1,2.54-9.83,16.47,16.47,0,0,1,7.21-6.19,26,26,0,0,1,11-2.15h20.58v49.49Zm-32.1,0,12.23-17.68h9.26l-11.81,17.68Zm32.1-18.81V243.75l2.26,2.47h-13.5c-3.78,0-6.66.86-8.67,2.58s-3,4.28-3,7.68,1,5.76,2.86,7.53,4.73,2.65,8.45,2.65h13.86Z"/><path class="cls-12" d="M920.19,287.94V238.45H964.1v49.49H955V244l2.13,2.26H927.19l2.12-2.26v44Z"/><path class="cls-12" d="M976.68,287.94V238.45H997a27.67,27.67,0,0,1,11.28,2.08,16.13,16.13,0,0,1,7.25,6.05,17.12,17.12,0,0,1,2.55,9.47,16.83,16.83,0,0,1-2.55,9.37,16.64,16.64,0,0,1-7.25,6.08A26.83,26.83,0,0,1,997,273.66h-15.2l4-4.24v18.52Zm9.19-17.53-4-4.53h14.78c4,0,7.11-.86,9.16-2.58a10.1,10.1,0,0,0,0-14.5c-2-1.72-5.11-2.58-9.16-2.58H981.84l4-4.52Z"/><path class="cls-12" d="M1049.23,288.65a29.24,29.24,0,0,1-10.65-1.91,25.36,25.36,0,0,1-8.51-5.37,24.34,24.34,0,0,1-5.59-8.1,26.8,26.8,0,0,1,0-20.22,23.88,23.88,0,0,1,5.59-8.06,25.68,25.68,0,0,1,8.48-5.34,30.9,30.9,0,0,1,21.28,0,24.86,24.86,0,0,1,8.45,5.31,24.13,24.13,0,0,1,5.55,8.09,27.08,27.08,0,0,1,0,20.33,24.48,24.48,0,0,1-14,13.43A29.31,29.31,0,0,1,1049.23,288.65Zm0-8.06a18.4,18.4,0,0,0,6.89-1.27,16.45,16.45,0,0,0,5.48-3.61,16.64,16.64,0,0,0,3.64-5.52,18.26,18.26,0,0,0,1.31-7,18.67,18.67,0,0,0-1.27-7,16.06,16.06,0,0,0-3.64-5.51,16.66,16.66,0,0,0-5.52-3.61,18.21,18.21,0,0,0-6.89-1.27,18.77,18.77,0,0,0-7,1.27,16,16,0,0,0-5.55,3.64,17.91,17.91,0,0,0,0,25,16,16,0,0,0,5.55,3.65A19,19,0,0,0,1049.23,280.59Z"/><path class="cls-12" d="M1084.65,287.94V238.45h38.61v7.63h-29.49v12.09h14.64q8.91,0,13.54,3.68t4.63,10.75q0,7.27-5.12,11.31t-14.46,4Zm9.12-7.07h12.73c3.54,0,6.22-.68,8.06-2.05a7,7,0,0,0,2.76-5.94q0-7.63-10.82-7.64h-12.73Z"/><path class="cls-12" d="M1133.16,288.58a22.32,22.32,0,0,1-2.44-.14,20.68,20.68,0,0,1-2.65-.5l.63-8.06a7.65,7.65,0,0,0,2.12.28,5.58,5.58,0,0,0,4.78-2.4,17.12,17.12,0,0,0,2.51-7.14,101.1,101.1,0,0,0,1.06-11.74l.7-20.43h36.42v49.49h-9.12V244l2.19,2.26h-23.55l2-2.33-.49,14.71q-.29,7.27-1.06,12.87a40.26,40.26,0,0,1-2.34,9.44,12.73,12.73,0,0,1-4.17,5.76A10.85,10.85,0,0,1,1133.16,288.58Z"/><path class="cls-12" d="M1198.14,280.16h27.93v7.78H1189V238.45h36.13v7.77h-26.94Zm-.71-21.14H1222v7.57h-24.61Z"/><path class="cls-12" d="M1235.05,287.94V238.45h7.56l21.64,36.13h-4l21.35-36.13h7.5l.14,49.49h-8.84V252.09h1.84l-18,30.27h-4.17l-18.39-30.27h2.2v35.85Z"/><path class="cls-12" d="M1330.43,287.94V244l2.19,2.26H1314.1v-7.77H1356v7.77h-18.53l2-2.26v44Z"/><path class="cls-12" d="M1362.6,287.94V238.45H1383a27.74,27.74,0,0,1,11.28,2.08,16.11,16.11,0,0,1,7.24,6.05,17.12,17.12,0,0,1,2.55,9.47,16.83,16.83,0,0,1-2.55,9.37,16.62,16.62,0,0,1-7.24,6.08,26.9,26.9,0,0,1-11.28,2.16h-15.2l4-4.24v18.52Zm9.2-17.53-4-4.53h14.77q6.09,0,9.16-2.58a10.07,10.07,0,0,0,0-14.5q-3.08-2.58-9.16-2.58h-14.77l4-4.52Z"/><path class="cls-12" d="M1402.7,287.94,1425,238.45h9l22.34,49.49h-9.68l-19.1-44.62h3.68l-19.16,44.62ZM1413,276.49l2.54-7.22h26.66l2.47,7.22Z"/><path class="cls-12" d="M1471.85,287.94h-9.19V238.45h9.19Zm26.3-21.21h-27v-7.85h27Zm-.71-28.28h9.12v49.49h-9.12Z"/><path class="cls-12" d="M1542.06,288.65a28.79,28.79,0,0,1-10.54-1.88,24.73,24.73,0,0,1-13.93-13.39,27.19,27.19,0,0,1,0-20.37,24.64,24.64,0,0,1,5.59-8.06,25.24,25.24,0,0,1,8.41-5.34,30.65,30.65,0,0,1,21.64.21,22.12,22.12,0,0,1,8.49,6.19l-5.94,5.59a18.88,18.88,0,0,0-6.08-4.35,17.65,17.65,0,0,0-7.15-1.45,19.09,19.09,0,0,0-7.1,1.27,16.47,16.47,0,0,0-5.59,3.61,16.68,16.68,0,0,0-3.71,5.51,19,19,0,0,0,0,14,16.82,16.82,0,0,0,3.71,5.52,16.62,16.62,0,0,0,5.59,3.61,19.29,19.29,0,0,0,7.1,1.27,17.81,17.81,0,0,0,7.15-1.45,18.38,18.38,0,0,0,6.08-4.42l5.94,5.58a22.32,22.32,0,0,1-8.49,6.23A28.51,28.51,0,0,1,1542.06,288.65Z"/><path class="cls-12" d="M1569,287.94V238.45h43.91v49.49h-9.12V244l2.12,2.26H1576l2.12-2.26v44Z"/><path class="cls-12" d="M1648.47,288.65a29.19,29.19,0,0,1-10.64-1.91,25.31,25.31,0,0,1-8.52-5.37,24.32,24.32,0,0,1-5.58-8.1,26.8,26.8,0,0,1,0-20.22,23.86,23.86,0,0,1,5.58-8.06,25.62,25.62,0,0,1,8.49-5.34,30.9,30.9,0,0,1,21.28,0,25,25,0,0,1,8.45,5.31,24.13,24.13,0,0,1,5.55,8.09,27.08,27.08,0,0,1,0,20.33,24.48,24.48,0,0,1-14,13.43A29.33,29.33,0,0,1,1648.47,288.65Zm0-8.06a18.42,18.42,0,0,0,6.9-1.27,16.55,16.55,0,0,0,5.48-3.61,16.8,16.8,0,0,0,3.64-5.52,18.26,18.26,0,0,0,1.31-7,18.67,18.67,0,0,0-1.28-7,15.92,15.92,0,0,0-3.64-5.51,16.72,16.72,0,0,0-5.51-3.61,18.22,18.22,0,0,0-6.9-1.27,18.68,18.68,0,0,0-7,1.27,15.8,15.8,0,0,0-5.55,3.64,17.67,17.67,0,0,0-3.68,5.52,17.9,17.9,0,0,0,3.68,19.44,15.83,15.83,0,0,0,5.55,3.65A18.88,18.88,0,0,0,1648.47,280.59Z"/><path class="cls-12" d="M1683.9,287.94V238.45h20.36a27.74,27.74,0,0,1,11.28,2.08,16.19,16.19,0,0,1,7.25,6.05,17.2,17.2,0,0,1,2.54,9.47,16.9,16.9,0,0,1-2.54,9.37,16.7,16.7,0,0,1-7.25,6.08,26.9,26.9,0,0,1-11.28,2.16h-15.2l4-4.24v18.52Zm9.19-17.53-4-4.53h14.78q6.08,0,9.15-2.58a10.07,10.07,0,0,0,0-14.5q-3.08-2.58-9.15-2.58h-14.78l4-4.52Z"/><path class="cls-12" d="M1741.74,287.94V244l2.19,2.26H1725.4v-7.77h41.86v7.77h-18.52l2-2.26v44Z"/><path class="cls-12" d="M1765.14,287.94l22.27-49.49h9l22.35,49.49h-9.69L1790,243.32h3.68l-19.16,44.62Zm10.25-11.45,2.55-7.22h26.66l2.47,7.22Z"/></svg>