<svg width="36" height="36" viewBox="0 0 36 36" fill="none" xmlns="http://www.w3.org/2000/svg">
<path d="M5.43781 22.5001C7.51491 24.5802 10.281 25.8289 13.2149 26.0109C16.1488 26.193 19.048 25.2959 21.3663 23.4886L29.3433 31.4656C29.6262 31.7389 30.0051 31.8901 30.3984 31.8867C30.7917 31.8832 31.1679 31.7255 31.446 31.4474C31.7241 31.1693 31.8819 30.793 31.8853 30.3997C31.8887 30.0065 31.7375 29.6275 31.4643 29.3446L23.4873 21.3676C25.3748 18.9454 26.2671 15.8944 25.9824 12.8368C25.6976 9.77923 24.2573 6.94544 21.955 4.91334C19.6528 2.88124 16.6621 1.80391 13.5928 1.90106C10.5235 1.99821 7.60694 3.26252 5.43781 5.43615C4.317 6.55638 3.4279 7.88647 2.82129 9.35042C2.21469 10.8144 1.90247 12.3835 1.90247 13.9681C1.90247 15.5528 2.21469 17.1219 2.82129 18.5859C3.4279 20.0498 4.317 21.3799 5.43781 22.5001ZM7.55881 7.56014C9.04167 6.07732 10.9928 5.15451 13.0797 4.94894C15.1667 4.74337 17.2604 5.26777 19.0041 6.43278C20.7477 7.59779 22.0335 9.33134 22.6424 11.3381C23.2512 13.3448 23.1454 15.5005 22.3431 17.438C21.5407 19.3755 20.0914 20.9749 18.242 21.9636C16.3927 22.9523 14.2577 23.2692 12.2009 22.8603C10.1441 22.4514 8.29267 21.342 6.9621 19.7212C5.63153 18.1003 4.90412 16.0682 4.90381 13.9711C4.89969 12.7795 5.13226 11.5989 5.58803 10.4979C6.04379 9.39682 6.71368 8.39725 7.55881 7.55715V7.56014Z" fill="#838383"/>
</svg>
