<svg id="Layer_1" data-name="Layer 1" xmlns="http://www.w3.org/2000/svg" viewBox="0 0 1920 432"><defs><style>.cls-1{fill:#fff;}.cls-2{fill:#008fc0;}.cls-3{fill:#fd9000;}.cls-4{fill:#2980bf;}.cls-5{fill:#008037;}.cls-6{fill:#ff9000;}.cls-7{fill:#ff001a;}.cls-8{fill:#ff0016;}</style></defs><rect class="cls-1" x="420.85" y="78.11" width="8.51" height="275.79"/><path class="cls-1" d="M501,150.59v7.8H488.15v40.42h-9.67V158.39H465.63v-7.8Z"/><path class="cls-1" d="M532.92,198.81,522.28,180h-4.56v18.79h-9.67V150.59h18.1a21,21,0,0,1,9.53,2,13.67,13.67,0,0,1,5.91,5.32,14.52,14.52,0,0,1,2,7.49,14,14,0,0,1-11,13.89l11.54,19.55Zm-15.2-26.05h8.08c2.63,0,4.58-.63,5.88-1.89a7.12,7.12,0,0,0,1.93-5.29,6.79,6.79,0,0,0-1.93-5.15c-1.3-1.22-3.25-1.83-5.88-1.83h-8.08Z"/><path class="cls-1" d="M581.9,189.62H562.69l-3.17,9.19H549.36l17.34-48.29H578l17.34,48.29H585.08Zm-2.62-7.74-7-20.17-7,20.17Z"/><path class="cls-1" d="M643,198.81h-9.67l-21.9-33.09v33.09H601.8V150.52h9.67l21.9,33.16V150.52H643Z"/><path class="cls-1" d="M660.14,197.57a14.81,14.81,0,0,1-6.39-5,13.09,13.09,0,0,1-2.42-7.67h10.36a6.7,6.7,0,0,0,2.11,4.7,7.47,7.47,0,0,0,5.22,1.73,8,8,0,0,0,5.32-1.62,5.32,5.32,0,0,0,1.93-4.25A5,5,0,0,0,675,182a9.26,9.26,0,0,0-3.28-2.17,55.52,55.52,0,0,0-5.43-1.77,59.42,59.42,0,0,1-7.63-2.72,13.33,13.33,0,0,1-5-4.08,11.59,11.59,0,0,1-2.11-7.29,13,13,0,0,1,2.14-7.46,13.63,13.63,0,0,1,6-4.87,21.85,21.85,0,0,1,8.84-1.69q7.47,0,12.13,3.62a13.45,13.45,0,0,1,5.14,10.13H675.1a5.56,5.56,0,0,0-2.11-4.11,7.9,7.9,0,0,0-5.22-1.63,6.69,6.69,0,0,0-4.52,1.45,5.25,5.25,0,0,0-1.7,4.22,4.36,4.36,0,0,0,1.28,3.21,9.73,9.73,0,0,0,3.18,2.07c1.27.53,3,1.14,5.36,1.83a56.07,56.07,0,0,1,7.66,2.77,13.81,13.81,0,0,1,5.12,4.14,11.55,11.55,0,0,1,2.14,7.25,13.63,13.63,0,0,1-2,7.19,14.16,14.16,0,0,1-5.87,5.29,20.06,20.06,0,0,1-9.19,2A22.9,22.9,0,0,1,660.14,197.57Z"/><path class="cls-1" d="M728,172.76a13.42,13.42,0,0,1-5.73,5.46,20.92,20.92,0,0,1-9.85,2.08h-8.08v18.51h-9.67V150.59H712.4a21.5,21.5,0,0,1,9.54,1.93,13.52,13.52,0,0,1,5.9,5.32,15.6,15.6,0,0,1,.14,14.92Zm-10.05-2.1a6.75,6.75,0,0,0,1.93-5.15q0-7-7.87-7h-7.67v14H712Q716,172.49,717.93,170.66Z"/><path class="cls-1" d="M746.6,196.12a23.73,23.73,0,0,1-9-8.81,26,26,0,0,1,0-25.43,23.73,23.73,0,0,1,9-8.81,26,26,0,0,1,24.9,0,23.58,23.58,0,0,1,8.92,8.81,26.28,26.28,0,0,1,0,25.43,23.52,23.52,0,0,1-8.95,8.81,26,26,0,0,1-24.87,0Zm20.1-7.43a13.47,13.47,0,0,0,5.18-5.63,18.39,18.39,0,0,0,1.87-8.5,18.19,18.19,0,0,0-1.87-8.46,13.28,13.28,0,0,0-5.18-5.56A14.92,14.92,0,0,0,759,158.6a15.11,15.11,0,0,0-7.7,1.94,13.31,13.31,0,0,0-5.22,5.56,18.31,18.31,0,0,0-1.86,8.46,18.51,18.51,0,0,0,1.86,8.5,13.49,13.49,0,0,0,5.22,5.63,14.93,14.93,0,0,0,7.7,2A14.74,14.74,0,0,0,766.7,188.69Z"/><path class="cls-1" d="M815.75,198.81,805.11,180h-4.56v18.79h-9.67V150.59H809a21.08,21.08,0,0,1,9.54,2,13.7,13.7,0,0,1,5.9,5.32,15,15,0,0,1-.79,16.09,14.21,14.21,0,0,1-8.22,5.29l11.53,19.55Zm-15.2-26.05h8.09q3.93,0,5.87-1.89a7.08,7.08,0,0,0,1.93-5.29,6.75,6.75,0,0,0-1.93-5.15q-1.93-1.83-5.87-1.83h-8.09Z"/><path class="cls-1" d="M868,150.59v7.8H855.13v40.42h-9.67V158.39H832.61v-7.8Z"/><path class="cls-1" d="M944,150.59v48.22h-9.67V167.45l-12.92,31.36h-7.32l-13-31.36v31.36h-9.67V150.59h11l15.34,35.85,15.34-35.85Z"/><path class="cls-1" d="M963.11,150.59v29.84q0,4.9,2.56,7.5a9.62,9.62,0,0,0,7.18,2.59q4.7,0,7.26-2.59t2.55-7.5V150.59h9.74v29.77a19.16,19.16,0,0,1-2.66,10.4,16.8,16.8,0,0,1-7.11,6.39,22.58,22.58,0,0,1-9.92,2.14,21.92,21.92,0,0,1-9.77-2.14,16.21,16.21,0,0,1-6.94-6.39,19.78,19.78,0,0,1-2.56-10.4V150.59Z"/><path class="cls-1" d="M1031.3,189.62h-19.21l-3.18,9.19H998.76l17.34-48.29h11.26l17.34,48.29h-10.22Zm-2.63-7.74-7-20.17-7,20.17Z"/><path class="cls-1" d="M1103.77,150.59v48.22h-9.67V167.45l-12.92,31.36h-7.33l-13-31.36v31.36h-9.68V150.59h11l15.33,35.85,15.34-35.85Z"/><path class="cls-1" d="M1165.88,150.59v48.22h-9.68V167.45l-12.92,31.36H1136l-13-31.36v31.36h-9.67V150.59h11l15.33,35.85L1155,150.59Z"/><path class="cls-1" d="M1185.36,196.12a23.73,23.73,0,0,1-9-8.81,26,26,0,0,1,0-25.43,23.73,23.73,0,0,1,9-8.81,26,26,0,0,1,24.9,0,23.48,23.48,0,0,1,8.91,8.81,26.21,26.21,0,0,1,0,25.43,23.49,23.49,0,0,1-8.94,8.81,26,26,0,0,1-24.87,0Zm20.1-7.43a13.47,13.47,0,0,0,5.18-5.63,18.39,18.39,0,0,0,1.87-8.5,18.19,18.19,0,0,0-1.87-8.46,13.28,13.28,0,0,0-5.18-5.56,15,15,0,0,0-7.67-1.94,15.11,15.11,0,0,0-7.7,1.94,13.24,13.24,0,0,0-5.22,5.56,18.31,18.31,0,0,0-1.86,8.46,18.51,18.51,0,0,0,1.86,8.5,13.43,13.43,0,0,0,5.22,5.63,14.93,14.93,0,0,0,7.7,2A14.77,14.77,0,0,0,1205.46,188.69Z"/><path class="cls-1" d="M1239.31,191.14h15.89v7.67h-25.56V150.59h9.67Z"/><path class="cls-1" d="M1290.92,189.62h-19.21l-3.17,9.19h-10.16l17.34-48.29H1287l17.34,48.29H1294.1Zm-2.63-7.74-7-20.17-7,20.17Z"/><path class="cls-1" d="M1335.69,198.81,1325.05,180h-4.56v18.79h-9.68V150.59h18.11a21,21,0,0,1,9.53,2,13.78,13.78,0,0,1,5.91,5.32,14.52,14.52,0,0,1,2,7.49,14.36,14.36,0,0,1-2.77,8.6,14.18,14.18,0,0,1-8.22,5.29l11.54,19.55Zm-15.2-26.05h8.08c2.63,0,4.58-.63,5.87-1.89a7.08,7.08,0,0,0,1.94-5.29,6.75,6.75,0,0,0-1.94-5.15c-1.29-1.22-3.24-1.83-5.87-1.83h-8.08Z"/><path class="cls-1" d="M1364.77,150.59v48.22h-9.67V150.59Z"/><path class="cls-1" d="M1415.55,198.81h-9.67L1384,165.72v33.09h-9.68V150.52H1384l21.9,33.16V150.52h9.67Z"/><path class="cls-1" d="M1434.75,150.59v48.22h-9.67V150.59Z"/><path class="cls-1" d="M1470.68,196.12a23.73,23.73,0,0,1-9-8.81,26,26,0,0,1,0-25.43,23.73,23.73,0,0,1,9-8.81,26,26,0,0,1,24.9,0,23.48,23.48,0,0,1,8.91,8.81,26.21,26.21,0,0,1,0,25.43,23.49,23.49,0,0,1-8.94,8.81,26,26,0,0,1-24.87,0Zm20.1-7.43a13.47,13.47,0,0,0,5.18-5.63,18.39,18.39,0,0,0,1.87-8.5,18.19,18.19,0,0,0-1.87-8.46,13.28,13.28,0,0,0-5.18-5.56,14.92,14.92,0,0,0-7.67-1.94,15.11,15.11,0,0,0-7.7,1.94,13.31,13.31,0,0,0-5.22,5.56,18.31,18.31,0,0,0-1.86,8.46,18.51,18.51,0,0,0,1.86,8.5,13.49,13.49,0,0,0,5.22,5.63,14.93,14.93,0,0,0,7.7,2A14.74,14.74,0,0,0,1490.78,188.69Z"/><path class="cls-1" d="M1522.56,168h-10.22l7.46-17.41h6.7Z"/><path class="cls-1" d="M1558.83,198.81,1548.19,180h-4.56v18.79H1534V150.59h18.1a21,21,0,0,1,9.53,2,13.67,13.67,0,0,1,5.91,5.32,14.52,14.52,0,0,1,2,7.49,13.93,13.93,0,0,1-11,13.89L1570,198.81Zm-15.2-26.05h8.09q3.93,0,5.87-1.89a7.08,7.08,0,0,0,1.93-5.29,6.75,6.75,0,0,0-1.93-5.15q-1.93-1.83-5.87-1.83h-8.09Z"/><path class="cls-1" d="M1611.82,165.1a11.36,11.36,0,0,0-4.56-4.63,13.88,13.88,0,0,0-6.77-1.59,14.78,14.78,0,0,0-7.6,1.93,13.38,13.38,0,0,0-5.18,5.53,19.48,19.48,0,0,0,0,16.72,13.5,13.5,0,0,0,5.29,5.53,15.56,15.56,0,0,0,7.87,1.93,13.64,13.64,0,0,0,9-2.94,14,14,0,0,0,4.63-8.18H1598V172h26.12v8.43a22.71,22.71,0,0,1-4.15,9.33,23.29,23.29,0,0,1-8.19,6.87,24,24,0,0,1-11.22,2.59,25.35,25.35,0,0,1-12.61-3.14,22.78,22.78,0,0,1-8.84-8.74,26.77,26.77,0,0,1,0-25.46,22.79,22.79,0,0,1,8.84-8.77,26.94,26.94,0,0,1,26.7.83,20.28,20.28,0,0,1,8.29,11.16Z"/><path class="cls-1" d="M1660.87,189.62h-19.21l-3.17,9.19h-10.16l17.34-48.29h11.26l17.34,48.29h-10.22Zm-2.63-7.74-7-20.17-7,20.17Z"/><path class="cls-1" d="M1722,198.81h-9.67l-21.9-33.09v33.09h-9.68V150.52h9.68l21.9,33.16V150.52H1722Z"/><path class="cls-1" d="M1741.21,150.59v48.22h-9.67V150.59Z"/><path class="cls-1" d="M1758.31,197.57a14.93,14.93,0,0,1-6.39-5,13.16,13.16,0,0,1-2.42-7.67h10.37a6.69,6.69,0,0,0,2.1,4.7,7.49,7.49,0,0,0,5.22,1.73,8,8,0,0,0,5.32-1.62,5.29,5.29,0,0,0,1.93-4.25,4.91,4.91,0,0,0-1.31-3.53,9.18,9.18,0,0,0-3.28-2.17,55.18,55.18,0,0,0-5.42-1.77,59.08,59.08,0,0,1-7.64-2.72,13.33,13.33,0,0,1-5-4.08,11.59,11.59,0,0,1-2.11-7.29,13.1,13.1,0,0,1,2.14-7.46,13.6,13.6,0,0,1,6-4.87,21.78,21.78,0,0,1,8.84-1.69q7.45,0,12.12,3.62a13.46,13.46,0,0,1,5.15,10.13h-10.64a5.49,5.49,0,0,0-2.11-4.11,7.89,7.89,0,0,0-5.21-1.63,6.72,6.72,0,0,0-4.53,1.45,5.24,5.24,0,0,0-1.69,4.22,4.36,4.36,0,0,0,1.28,3.21,9.79,9.79,0,0,0,3.17,2.07q1.9.79,5.36,1.83a56.26,56.26,0,0,1,7.67,2.77,13.78,13.78,0,0,1,5.11,4.14,11.49,11.49,0,0,1,2.14,7.25,13.71,13.71,0,0,1-2,7.19,14.22,14.22,0,0,1-5.87,5.29,20.09,20.09,0,0,1-9.19,2A23,23,0,0,1,1758.31,197.57Z"/><path class="cls-1" d="M1832.82,150.59v48.22h-9.67V178.29h-20.66v20.52h-9.67V150.59h9.67v19.83h20.66V150.59Z"/><path class="cls-1" d="M520.76,233.49v48.22h-9.67V250.35l-12.92,31.36h-7.32l-13-31.36v31.36h-9.67V233.49h11l15.34,35.86,15.33-35.86Z"/><path class="cls-1" d="M559.86,272.52h-19.2l-3.18,9.19H527.32l17.34-48.29h11.26l17.34,48.29H563Zm-2.62-7.73-7-20.18-7,20.18Z"/><path class="cls-1" d="M604.63,281.71,594,262.92h-4.56v18.79h-9.67V233.49h18.1a21.14,21.14,0,0,1,9.53,2,13.73,13.73,0,0,1,5.91,5.32,14.53,14.53,0,0,1,2,7.5,13.94,13.94,0,0,1-11,13.88l11.54,19.55Zm-15.2-26h8.08c2.63,0,4.59-.64,5.88-1.9a7.12,7.12,0,0,0,1.93-5.29,6.76,6.76,0,0,0-1.93-5.14q-1.93-1.83-5.88-1.83h-8.08Z"/><path class="cls-1" d="M651.26,281.71l-17.55-21.48v21.48H624V233.49h9.67v21.62l17.55-21.62h11.68L643,257.39l20.45,24.32Z"/><path class="cls-1" d="M699.41,272.52h-19.2L677,281.71H666.87l17.34-48.29h11.27l17.34,48.29H702.59Zm-2.62-7.73-7-20.18-7,20.18Z"/><path class="cls-1" d="M729.19,273.56h21.69v8.15H718v-7.46l21.55-32.61H718v-8.15h32.88V241Z"/><path class="cls-1" d="M768.77,233.49v48.22H759.1V233.49Z"/><polygon class="cls-1" points="302.92 315.4 293.79 240.37 345.17 191.82 346.9 193.65 296.44 241.33 305.41 315.1 302.92 315.4"/><rect class="cls-1" x="279.08" y="241.55" width="2.51" height="81.41" transform="translate(-112.18 217.56) rotate(-35.84)"/><path class="cls-1" d="M305.43,317H167l-42.8-124.85L236.4,114.44l111.43,77.69Zm-136.65-2.52H303.63l41.21-121.35L236.4,117.5,127.19,193.11Z"/><polygon class="cls-1" points="303.61 316.38 236.58 283.55 170.64 316.38 169.52 314.13 236.57 280.74 304.72 314.12 303.61 316.38"/><polygon class="cls-1" points="128.48 193.97 127.94 191.51 200.8 175.38 236.35 113.53 275.29 175.38 346.32 191.51 345.76 193.96 273.72 177.6 236.45 118.41 202.43 177.6 201.89 177.72 128.48 193.97"/><polygon class="cls-1" points="171.33 315.4 168.83 315.1 177.8 241.33 127.34 193.65 129.07 191.82 180.45 240.37 171.33 315.4"/><circle class="cls-1" cx="179.13" cy="240.85" r="6.4"/><circle class="cls-2" cx="201.62" cy="176.49" r="6.4"/><circle class="cls-1" cx="274.5" cy="176.49" r="6.4"/><line class="cls-1" x1="205.38" y1="213.52" x2="125.82" y2="192.74"/><rect class="cls-1" x="164.34" y="162.01" width="2.52" height="82.23" transform="matrix(0.25, -0.97, 0.97, 0.25, -72.78, 312.03)"/><rect class="cls-1" x="267.83" y="201.64" width="79.53" height="2.52" transform="translate(-41.62 85.28) rotate(-14.8)"/><line class="cls-1" x1="167.69" y1="315.25" x2="217.39" y2="247.73"/><rect class="cls-1" x="150.62" y="280.23" width="83.84" height="2.51" transform="translate(-148.3 269.66) rotate(-53.64)"/><rect class="cls-1" x="235.32" y="151.1" width="2.52" height="39.55"/><path class="cls-1" d="M214,212.82H226.5v3.35h-4.08v15.41h-4.33V216.17H214Z"/><path class="cls-1" d="M228.85,212.82h4.31v15.35h6.14v3.41H228.85Z"/><path class="cls-1" d="M241.34,212.82h6.06l3.36,12.57,3.4-12.57h6.11v18.76h-3.81V216l-4.38,15.6h-2.67L245,216v15.58h-3.63Z"/><circle class="cls-3" cx="236.7" cy="116.75" r="38.64"/><circle class="cls-2" cx="346.04" cy="192.74" r="38.64"/><circle class="cls-4" cx="304.16" cy="315.25" r="38.64"/><circle class="cls-4" cx="167.69" cy="315.25" r="38.64"/><circle class="cls-5" cx="125.82" cy="192.74" r="38.64"/><circle class="cls-6" cx="295.12" cy="240.85" r="6.4"/><circle class="cls-1" cx="273.41" cy="272.64" r="6.4"/><circle class="cls-1" cx="200.52" cy="271.87" r="6.4"/><circle class="cls-1" cx="178.81" cy="206.73" r="6.4"/><circle class="cls-7" cx="295.12" cy="206.73" r="6.4"/><circle class="cls-8" cx="236.57" cy="166.41" r="6.4"/><circle class="cls-6" cx="236.57" cy="283.5" r="6.4"/><path class="cls-1" d="M105.73,193.38a5.2,5.2,0,0,0,1.11-.15,7.51,7.51,0,0,0,2.37-.95,4.11,4.11,0,0,0,1.56-1.67,2.46,2.46,0,0,0,.24-1.51,3.32,3.32,0,0,0-1-1.77,4.93,4.93,0,0,0-1.1-.82,6.66,6.66,0,0,0-1.22-.54,13.84,13.84,0,0,0-1.69-.4,1,1,0,0,0-1.18.61,1.82,1.82,0,0,0-.06.8c0,.22,0,.27-.27.27h-2.84a.55.55,0,0,0-.57.62.54.54,0,0,0,.58.56h2.9c.14,0,.2,0,.2.17,0,.58,0,1.16,0,1.74,0,.13,0,.17-.16.16-.33,0-.65,0-1,0-.63,0-1.26,0-1.9,0a.62.62,0,0,0-.4.13.65.65,0,0,0-.18.76.63.63,0,0,0,.57.34c.93,0,1.87,0,2.8,0,.22,0,.28.07.25.27s0,.32,0,.49A1,1,0,0,0,105.73,193.38Z"/><path class="cls-1" d="M103.51,182.93a3.54,3.54,0,0,1,2,1.2c.24.28.42.6.66.87s.3.35.55.28.32-.43.06-.71a14.15,14.15,0,0,0-1.07-1.12,3.07,3.07,0,0,0-1.06-.65,15.44,15.44,0,0,1-2.06-.86,11.72,11.72,0,0,1-1.79-1.09,6.31,6.31,0,0,1-1.42-1.31c.38.29.75.6,1.15.86a13.54,13.54,0,0,0,3.81,1.63c.73.19,1-.27.91-.71a7.48,7.48,0,0,0-.38-1.67,3.48,3.48,0,0,0-1.19-1.59,4.18,4.18,0,0,0-1.86-.7,13.37,13.37,0,0,0-1.77-.22c-.64,0-1.26-.12-1.89-.17a8.05,8.05,0,0,1-1.63-.28,4.89,4.89,0,0,1-1.36-.62,8.1,8.1,0,0,0,.52,2.56,6,6,0,0,0,1.86,2.66,6.61,6.61,0,0,0,3.69,1.43C102,182.8,102.78,182.8,103.51,182.93Z"/><path class="cls-1" d="M150.23,194.56a4.89,4.89,0,0,0-1.7-1.39,14.08,14.08,0,0,0-3.91-1.26c-.63-.16-1.27-.26-1.9-.43a10.38,10.38,0,0,1-2.24-.76,13.06,13.06,0,0,1-2.81-1.95c-.37-.44-.81-.79-1.21-1.2a29.07,29.07,0,0,0-2.25-2.19,11.54,11.54,0,0,0-1.28-1,1.74,1.74,0,0,0-.47-.31s0,0-.06,0l-.2-.14h0a.68.68,0,0,0-.23-.14c-.21-.11-.41-.24-.62-.34-.47-.22-.94-.44-1.44-.62a12.82,12.82,0,0,0-2.19-.57,2.8,2.8,0,0,0-.69-.13c-.43-.07-.84-.1-1.26-.15a10,10,0,0,0-1.44,0c-.47,0-1,0-1.42,0s-1.18.11-1.75.21c-1,.16-2.1.37-3.14.6a2.29,2.29,0,0,1-.36.07,0,0,0,0,0,0,0h-.12c-.75.18-1.51.37-2.27.54s-1.63.39-2.45.52c-.44.07-.88.16-1.34.25h-.23a13.81,13.81,0,0,1-1.92.16h-1.47a.41.41,0,0,0-.32.12.6.6,0,0,0,.24,1,7.21,7.21,0,0,1,2.41,1.33,5.27,5.27,0,0,1,.93,1.17,2.87,2.87,0,0,1,.12,2.67,4.73,4.73,0,0,1-2.16,2.19,8.71,8.71,0,0,1-2.46.83,2,2,0,0,1-1.54-.11c-.09-.06-.1,0-.1.07a7,7,0,0,0,0,2.05,5.25,5.25,0,0,0,1.51,3c.21.17.41.32.67.23a.66.66,0,0,0,.43-.54,4.93,4.93,0,0,1,.5-1.29,6.47,6.47,0,0,1,2.4-2.55,6,6,0,0,1,2.57-.9,5.67,5.67,0,0,1,.82-.07,7.47,7.47,0,0,1,1.07.09,6.84,6.84,0,0,1,2.33.79,5.7,5.7,0,0,1,2.07,1.95,7,7,0,0,1,1,2.95.81.81,0,0,0,.82.77h11.33a.62.62,0,0,0,.59-.6,5.89,5.89,0,0,1,.58-2.21,8.71,8.71,0,0,1,1-1.56,7,7,0,0,1,1.11-1,7.59,7.59,0,0,1,1.83-.9,9.31,9.31,0,0,1,1.15-.22,5.65,5.65,0,0,1,2,.08,7.59,7.59,0,0,1,1.7.58c0,.06.07.08.12.09a6.26,6.26,0,0,1,1.39,1,6.7,6.7,0,0,1,1.1,1.44,6.57,6.57,0,0,1,.84,2.49.54.54,0,0,0,.55.53,3.56,3.56,0,0,0,1-.21,4.77,4.77,0,0,0,1.83-1,4,4,0,0,0,1.32-1.9A2.43,2.43,0,0,0,150.23,194.56Zm-20.28-5c-2.06,2.9-4.13,5.79-6.2,8.71,0-.15.06-.25.09-.38a.11.11,0,0,0,0-.09v-.06s0,0,0,0l0,0s0,0,0,0a5.31,5.31,0,0,0,.21-.64v-.09c0-.06,0-.12.06-.15s0,0,0,0a.31.31,0,0,0,.07-.2v0a6.33,6.33,0,0,1,.28-.91c.06-.21.12-.4.18-.6a.34.34,0,0,1,0-.1c.21-.68.43-1.34.63-2,.11-.28.18-.56.27-.83,0-.12,0-.2-.12-.18-.56,0-1.11.07-1.67.12a4.36,4.36,0,0,0-.81,0c-.1,0-.13,0-.1-.13l.66-3.05c.22-1,.47-2,.67-3,.06-.3.28-.22.44-.25.36,0,.72,0,1.07-.11v0h0v0l0,0h0a.51.51,0,0,0,.32,0h.23a3.86,3.86,0,0,0,.49-.06,2.1,2.1,0,0,0,.36,0,.17.17,0,0,0,.12,0c.41,0,.81-.09,1.25-.11a4.65,4.65,0,0,1-.43.83c-.32.61-.66,1.21-1,1.83s-.59,1.08-.89,1.63c-.06.13-.09.19.1.19.79,0,1.58-.08,2.36-.11a6.07,6.07,0,0,0,1.13-.07s0,0,0,0A.31.31,0,0,0,130,189.58Z"/><path class="cls-1" d="M144.19,198a5.39,5.39,0,0,0-1.42-1.83,4.67,4.67,0,0,0-1.72-.91,4.47,4.47,0,0,0-.63-.16,4.72,4.72,0,0,0-2,0,5.11,5.11,0,0,0-2.73,1.57,5.47,5.47,0,0,0-1.16,2.08,5.22,5.22,0,0,0-.13,2,5.11,5.11,0,0,0,.62,1.82A4.72,4.72,0,0,0,136,204a6.45,6.45,0,0,0,1,.73.93.93,0,0,1,.2.1,4.78,4.78,0,0,0,1.72.46,5.18,5.18,0,0,0,5.35-3.33,4.77,4.77,0,0,0,.29-2.25A5.17,5.17,0,0,0,144.19,198Zm-5.29,4.83a5.84,5.84,0,0,1-1-.38h0c0-.11-.09-.15-.15-.22a2.64,2.64,0,0,1-.9-2.64,2.75,2.75,0,0,1,3-2.16.35.35,0,0,0,.25,0v0h0c.14.11.33.09.49.13s0,0,0,0h0c0,.09.13.12.2.16a2.72,2.72,0,0,1,1.43,2.16A2.76,2.76,0,0,1,138.9,202.85Z"/><path class="cls-1" d="M118.85,199a5.21,5.21,0,0,0-1.95-3,2.54,2.54,0,0,0-.83-.48.12.12,0,0,0-.09,0,.65.65,0,0,0-.35-.15,4.58,4.58,0,0,0-1.75-.34,5.47,5.47,0,0,0-.69.05,4.89,4.89,0,0,0-2.49,1,5.14,5.14,0,0,0-1.57,1.89,5.29,5.29,0,0,0-.5,2.39,5,5,0,0,0,.62,2.27,5.11,5.11,0,0,0,2,2.07c.09.09.21.09.3.13a5,5,0,0,0,3.81.27,5.1,5.1,0,0,0,3.17-2.89A4.78,4.78,0,0,0,118.85,199ZM115,202.64a2.9,2.9,0,0,1-2.43,0c-.06,0-.13-.09-.21-.06s0,0,0,0a3.79,3.79,0,0,1-1-1.07,2.68,2.68,0,0,1,.57-3.38,2.48,2.48,0,0,1,1.37-.65,3.34,3.34,0,0,1,1.18,0l0,0c0,.09.1.09.16.1a2.73,2.73,0,0,1,.35,5.06Z"/><path class="cls-1" d="M106.36,183.5a1.27,1.27,0,0,0,.21-.25,2.19,2.19,0,0,1,1.88-1,5.59,5.59,0,0,0,1.67-.3,3.16,3.16,0,0,0,2-2.23,4.8,4.8,0,0,0,.18-1.06h-.07a3.82,3.82,0,0,1-1.87.5c-.53,0-1.07.09-1.6.18a2,2,0,0,0-1.47.89,3.15,3.15,0,0,0-.34,1.14c-.06.4.16.57.51.48a8.75,8.75,0,0,0,1.21-.44,6.08,6.08,0,0,0,1-.63.4.4,0,0,1-.17.22,8.79,8.79,0,0,1-2.31,1.26,2.75,2.75,0,0,0-1.16,1,.18.18,0,0,0,0,.27A.17.17,0,0,0,106.36,183.5Z"/><path class="cls-1" d="M251.5,131.71c-1.21-4.61-2.43-9.2-3.64-13.81l-.29.13a2,2,0,0,1-1.49,0,21.75,21.75,0,0,1-7.62-4.64v0a2.72,2.72,0,0,1,0,.28c0,.35-.11.39-.39.39h-2.18c-.31,0-.44-.08-.41-.42.07-1.24.1-2.49.14-3.75h0c0-.15,0-.31,0-.46a11.65,11.65,0,0,1-.9-4.67c.05-2.24,0-4.49,0-6.74h-3.46l-3.12,11.87Q225,122,221.8,134.16a1,1,0,0,0-.05.42h12.9c0-.91.07-1.83.09-2.75,0-.23.09-.31.32-.31h3.81c.24,0,.32.08.34.31,0,.92,0,1.84.07,2.75h12.91A23.07,23.07,0,0,0,251.5,131.71Zm-13-4.72c-1.07,0-2.16,0-3.24,0-.28,0-.38-.07-.36-.37q.18-3.84.33-7.68c0-.31.1-.4.4-.39.87,0,1.74,0,2.59,0,.3,0,.4.08.42.39,0,1.29.09,2.59.15,3.88h0c.06,1.24.09,2.48.17,3.71C239,126.9,238.91,127,238.54,127Z"/><path class="cls-1" d="M259.89,99c0-1.49,0-3,0-4.45a1.84,1.84,0,0,0-1.83-2.08c-.82-.12-1.66-.22-2.47-.42a17.84,17.84,0,0,1-5.6-2.71,2,2,0,0,0-2.61,0,18.75,18.75,0,0,1-3.25,1.87,15.14,15.14,0,0,1-5.08,1.28,1.6,1.6,0,0,0-1.5,1.42,2.66,2.66,0,0,0,0,.39,5.27,5.27,0,0,0,0,.56c0,2.06,0,4.13,0,6.19v1a12,12,0,0,0,.16,2.11c0,.08,0,.14.05.21a8.22,8.22,0,0,0,.34,1.27c0,.12.09.25.14.37a11.13,11.13,0,0,0,2.74,4,19.62,19.62,0,0,0,5.88,3.83l.07,0c.35.16.73.3,1.1.44a2,2,0,0,0,.53.14,1.8,1.8,0,0,0,.85-.11l.22-.1c.82-.34,1.63-.69,2.4-1.08a17.13,17.13,0,0,0,4.69-3.35A13.13,13.13,0,0,0,258.8,107a8,8,0,0,0,.93-2.8A36.84,36.84,0,0,0,259.89,99ZM256,106.42a10.88,10.88,0,0,1-1.32,1.6,14.25,14.25,0,0,1-3.69,2.64c-.65.34-1.34.65-2,.94a1.07,1.07,0,0,1-.23,0v-9.12a5.25,5.25,0,0,0,0-.56.88.88,0,0,0-.53,0H240.7c-.45,0-.56-.12-.55-.55,0-1.12,0-2.24,0-3.36,0-.4,0-.82,0-1.24V95.48c0-.28.07-.42.36-.45a17.94,17.94,0,0,0,7.8-3.07,1.79,1.79,0,0,0,.22-.13s.06,0,.09,0,0,.19,0,.28v9.47c0,.12,0,.25,0,.37a.39.39,0,0,1,.25-.08l.22,0c2.52,0,5,0,7.57,0,.42,0,.46.14.48.52A6.52,6.52,0,0,1,256,106.42Z"/><path class="cls-1" d="M229.82,98h-1.67c-.05.14-.09.29-.15.43l-12.72,31.06c-.68,1.67-1.38,3.33-2.08,5,0,.2.19.09.28.09,1.39,0,2.79,0,4.18,0a14.86,14.86,0,0,1,.67-2.15q5.71-17.16,11.44-34.29A.5.5,0,0,1,229.82,98Z"/><path class="cls-1" d="M260.55,134.11q-3.84-9.39-7.69-18.77a23.31,23.31,0,0,1-2.47,1.43q2.9,8.66,5.78,17.31a.93.93,0,0,1,.11.49c1.39,0,2.78,0,4.18,0,.08,0,.24.11.28-.09A2.58,2.58,0,0,1,260.55,134.11Z"/><path class="cls-1" d="M302.59,331a8,8,0,0,0,.57-1.23,5.85,5.85,0,0,0,.37-1.3,2.72,2.72,0,0,0,0-1.1,1.19,1.19,0,0,0-.11-.26,1,1,0,0,0-.87-.58,1.78,1.78,0,0,0-1.27.36,4.38,4.38,0,0,0-.8.81,5.87,5.87,0,0,0-.46.65.27.27,0,0,1-.07.08l0-.09a4.29,4.29,0,0,0,.31-1,2.75,2.75,0,0,0,0-1.07,1.32,1.32,0,0,0-1.05-1,1.89,1.89,0,0,0-1.19.22,3.07,3.07,0,0,0-.93.83c-.07.08-.13.17-.2.26s0-.05,0-.07a3.39,3.39,0,0,0,.22-1,1.34,1.34,0,0,0-1.06-1.46,1.75,1.75,0,0,0-1.46.23,4,4,0,0,0-.92.82,5.86,5.86,0,0,0-.46.62s0,.05-.06.06l0,0c-.54-.51-1.12-1-1.71-1.43-.75-.6-1.51-1.18-2.28-1.75a.64.64,0,0,0-.25-.12l-1.5-.36c-.1,0-.1,0-.09-.12,0-.41.08-.82.14-1.22a15.26,15.26,0,0,1,.54-2.43,16.58,16.58,0,0,1,2.94-5.61,12.82,12.82,0,0,1,1.22-1.33.2.2,0,0,1,.21-.05l1.33.41a1.5,1.5,0,0,0,.37.05,5,5,0,0,1,1.27.26,2.77,2.77,0,0,1,.86.47c.15.13.12.11,0,.21L294.78,314a1.6,1.6,0,0,0-.46.73,2.26,2.26,0,0,0-.05,1.26,1.5,1.5,0,0,0,.66.91,2.86,2.86,0,0,0,1.12.44,4.1,4.1,0,0,0,2.39-.32l.16-.1,2.1-1.65a3.1,3.1,0,0,1,1.18-.58,4.42,4.42,0,0,1,1.45-.14,6.78,6.78,0,0,1,2.31.54,7.52,7.52,0,0,1,1.33.74c.56.38,1.13.74,1.7,1.12,2.55,1.7,5.09,3.4,7.58,5.19.81.58,1.61,1.17,2.39,1.8.22.19.45.38.65.59a1.63,1.63,0,0,1,.48,1.32,1.81,1.81,0,0,1-.22.68,2.19,2.19,0,0,1-.41.55,1.34,1.34,0,0,1-.8.38,1.68,1.68,0,0,1-1-.17,2.3,2.3,0,0,1-.4-.23s-.05,0-.08,0,0,.06,0,.08a1.51,1.51,0,0,1,.28,1.2c0,.14,0,.29-.06.44a2,2,0,0,1-.63,1.08,2.84,2.84,0,0,1-.64.45,1.51,1.51,0,0,1-.65.15,3.79,3.79,0,0,1-1.49-.28.21.21,0,0,0-.11,0s0,.07,0,.1a2,2,0,0,1,0,1.1,2.07,2.07,0,0,1-1,1.19,1.83,1.83,0,0,1-.69.2,3.16,3.16,0,0,1-1.43-.17l-.06,0h0a.16.16,0,0,0,0,.1,1.63,1.63,0,0,1-.5,1.75,2.13,2.13,0,0,1-1.19.48,2.78,2.78,0,0,1-1.14-.17,7.24,7.24,0,0,1-1.36-.61c-.49-.28-.95-.59-1.4-.91l-.08-.06s0-.05,0-.07a.16.16,0,0,1,0-.07,5.44,5.44,0,0,0,.53-1.05,3.13,3.13,0,0,0,.17-.86,1.4,1.4,0,0,0-.06-.5,1,1,0,0,0-.79-.67,1.15,1.15,0,0,0-.58,0,2.77,2.77,0,0,0-.83.48,4.59,4.59,0,0,0-.55.53A.45.45,0,0,1,302.59,331Z"/><path class="cls-1" d="M301.05,310.2c.17,0,.33,0,.49,0l1.48,0,1.19,0c.33,0,.67,0,1-.08l.35-.07a3.49,3.49,0,0,1,1.07-.05,5.38,5.38,0,0,1,1.75.53c.71.34,1.43.64,2.15.94,1.13.48,2.27.94,3.41,1.39a4,4,0,0,0,1,.26,5.79,5.79,0,0,0,.72,0,2.5,2.5,0,0,0,1.47-.49,6.63,6.63,0,0,0,.81-.68l.15-.14a.07.07,0,0,1,.1,0,4.37,4.37,0,0,1,.48.37,10,10,0,0,1,2.14,2.71,12.28,12.28,0,0,1,1.27,3.57,13.59,13.59,0,0,1,.24,1.68c0,.36.05.72.06,1.09,0,.08,0,.08-.08.08a4.68,4.68,0,0,0-2,.51,5,5,0,0,0-1.48,1.14c-.06.07-.06.07-.14,0l-3.22-2.17-1.84-1.23-3-2-2.87-1.94-1.13-.76a5.27,5.27,0,0,0-.86-.42A7.31,7.31,0,0,0,304,314a6.72,6.72,0,0,0-1.27,0,6,6,0,0,0-1.19.19l-.42.18a7.61,7.61,0,0,0-1.45.93c-.41.34-.84.66-1.26,1a1.67,1.67,0,0,1-.51.27,3.4,3.4,0,0,1-1.14.27,2.05,2.05,0,0,1-1.62-.51.46.46,0,0,1-.14-.17,1.5,1.5,0,0,1-.08-1.35.58.58,0,0,1,.15-.19l1.71-1.52,1.67-1.49.75-.67a4.63,4.63,0,0,1,.56-.43,1.22,1.22,0,0,1,.55-.2Z"/><path class="cls-1" d="M291,310.08a.27.27,0,0,1-.08.1,17.38,17.38,0,0,0-2,2.53,19.36,19.36,0,0,0-2.33,4.77,18.32,18.32,0,0,0-.66,2.7c-.07.46-.12.92-.15,1.37a15.58,15.58,0,0,0,0,1.67s0,0,0,.06-.06,0-.09,0l-4.82-2.51a.13.13,0,0,1-.08-.16c0-.42.06-.84.11-1.26.07-.59.16-1.18.27-1.76a22.63,22.63,0,0,1,1.75-5.62,13.12,13.12,0,0,1,2-3.11,9.35,9.35,0,0,1,1.65-1.49l.13-.08s0,0,.08,0l.07,0L291,310Z"/><path class="cls-1" d="M318.61,310.19l.5-.34,3.57-2.46,0,0a.08.08,0,0,1,.12,0l.37.28a13.32,13.32,0,0,1,1.87,1.81,15.34,15.34,0,0,1,2.12,3.28,16.21,16.21,0,0,1,1,2.78,17.51,17.51,0,0,1,.4,2q.08.57.12,1.17c0,.62,0,1.24,0,1.87,0,0,0,0,0,0a.11.11,0,0,1-.08.11l-.52.25-1.65.79-2.69,1.29-.07,0s0-.06,0-.09q0-.6,0-1.2c0-.43,0-.86-.08-1.29s-.11-1.12-.2-1.68a19,19,0,0,0-.61-2.69,14.34,14.34,0,0,0-1-2.34,9.88,9.88,0,0,0-1.5-2.17,7.56,7.56,0,0,0-1.71-1.38l-.06,0Z"/><path class="cls-1" d="M303,328.27a2.68,2.68,0,0,1-.13.8,8.32,8.32,0,0,1-.76,1.94,6.1,6.1,0,0,1-1.07,1.46,2,2,0,0,1-.52.39.92.92,0,0,1-1.14-.26,1.46,1.46,0,0,1-.22-.43,1.81,1.81,0,0,1,0-1c.05-.19.11-.39.17-.58A6.21,6.21,0,0,1,300,329a6.69,6.69,0,0,1,.66-.92,3,3,0,0,1,1.11-.84,1.28,1.28,0,0,1,.28-.07.75.75,0,0,1,.81.53A2,2,0,0,1,303,328.27Z"/><path class="cls-1" d="M296,329.79a2.79,2.79,0,0,1,.12-.75,7.74,7.74,0,0,1,.79-1.79,3.69,3.69,0,0,1,.78-.94,1.8,1.8,0,0,1,.69-.38,1,1,0,0,1,1.18.6,1.15,1.15,0,0,1,.1.58,4.46,4.46,0,0,1-.15,1,7.05,7.05,0,0,1-.41,1.08,4.92,4.92,0,0,1-.76,1.24,2.45,2.45,0,0,1-.59.52,1.15,1.15,0,0,1-1.12.08,1,1,0,0,1-.59-.79A1.87,1.87,0,0,1,296,329.79Z"/><path class="cls-1" d="M296.45,325.9a3,3,0,0,1-.42,1.47,3.43,3.43,0,0,1-.62.8,1.62,1.62,0,0,1-1.07.47,1.1,1.1,0,0,1-1.1-.88,1.84,1.84,0,0,1,0-.62,3.13,3.13,0,0,1,.46-1.29,3.2,3.2,0,0,1,1-1,1.28,1.28,0,0,1,.43-.14,1.23,1.23,0,0,1,.6,0,1,1,0,0,1,.62.65.67.67,0,0,1,.05.19A3,3,0,0,1,296.45,325.9Z"/><path class="cls-1" d="M305,331.13a1.71,1.71,0,0,1-.09.55,7,7,0,0,1-.72,1.55,3.87,3.87,0,0,1-.71.86.89.89,0,0,1-.62.23.87.87,0,0,1-.46-.15.61.61,0,0,1-.25-.41,2.35,2.35,0,0,1,0-.65,3.19,3.19,0,0,1,.27-.86,4.09,4.09,0,0,1,.87-1.33,1.82,1.82,0,0,1,.56-.44,1.18,1.18,0,0,1,.76-.09.46.46,0,0,1,.33.29,1.21,1.21,0,0,1,0,.18A2.45,2.45,0,0,1,305,331.13Z"/><g id="o3SyUi.tif"><path class="cls-1" d="M302.76,308.86l-1.48,0c-.17,0-.33,0-.49,0l-.72,0a1.22,1.22,0,0,0-.55.2,5.57,5.57,0,0,0-.56.43l-.74.67-1.2,1.07c-.33-.13-.42-.42-.42-1q0-5.11,0-10.25a.92.92,0,0,1,.64-1H298a16.76,16.76,0,0,1,2.32.48,6.06,6.06,0,0,1,3.27,2.37,1.15,1.15,0,0,1,.2.63v6.34Z"/><path class="cls-1" d="M312.15,310.38a2,2,0,0,1,0,.47l-1.84-.76c-.72-.3-1.44-.6-2.14-.94a5.45,5.45,0,0,0-1.75-.53,3.55,3.55,0,0,0-1.08.05,2,2,0,0,1-.34.06h0V302.6a1.39,1.39,0,0,1,.25-.82,6.39,6.39,0,0,1,4.11-2.53c.47-.11.95-.17,1.43-.25h.8a.91.91,0,0,1,.63,1C312.14,303.47,312.15,306.93,312.15,310.38Z"/><path class="cls-1" d="M295.53,311a3.08,3.08,0,0,0-.52-.24,4.46,4.46,0,0,0-.8-.2V302.1a1,1,0,0,1,.44-.49c.54-.25.82-.08.82.5v8.23A3.27,3.27,0,0,0,295.53,311Z"/><path class="cls-1" d="M314.53,302.38v9.33a3.22,3.22,0,0,1-.86-.23c-.17-.07-.35-.13-.52-.21a2.05,2.05,0,0,0,.12-.72q0-4.23,0-8.44c0-.19-.14-.45.11-.56a.94.94,0,0,1,1,.31A.87.87,0,0,1,314.53,302.38Z"/></g><g id="_7Bt7F9.tif" data-name="7Bt7F9.tif"><path class="cls-1" d="M169.06,325.45l1.45,1.44a.38.38,0,0,1,.13.33c0,.39,0,.79,0,1.18,0,.16,0,.22-.19.21h-1.23a.4.4,0,0,1-.29-.12c-1-1-1.93-2-2.9-3a.41.41,0,0,0-.32-.13h-2.82a.35.35,0,0,0-.29.12l-2.92,3a.37.37,0,0,1-.31.13h-1.24c-.11,0-.16,0-.16-.15,0-.44,0-.88,0-1.32a.27.27,0,0,1,.11-.22l1.31-1.31.14-.16a6,6,0,0,1-1.06-.13,4.72,4.72,0,0,1-3.67-4.63c0-3.69,0-7.39,0-11.08a4.72,4.72,0,0,1,3.89-4.68,4.9,4.9,0,0,1,.94-.08c3.12,0,6.23,0,9.35,0a4.73,4.73,0,0,1,4.72,3.75,4.89,4.89,0,0,1,.11,1.08v10.94a4.74,4.74,0,0,1-3.64,4.69A4.81,4.81,0,0,1,169.06,325.45Zm-4.75-7.92h6.13c.15,0,.21,0,.21-.2,0-3,0-6.07,0-9.11,0-.17-.06-.2-.21-.2H158.17c-.17,0-.2.05-.2.2v9.1c0,.18.05.21.22.21Zm-3.17,3.16a1.59,1.59,0,1,0-1.59,1.59A1.59,1.59,0,0,0,161.14,320.69Zm9.5,0a1.58,1.58,0,1,0-1.58,1.59A1.59,1.59,0,0,0,170.64,320.69Z"/><path class="cls-1" d="M166,296.15a2.34,2.34,0,0,1-.66,1.63L160,303.16a.4.4,0,0,1-.32.11,6.32,6.32,0,0,0-6,4.1,6,6,0,0,0-.4,2.34.44.44,0,0,1-.13.33l-5,5a.32.32,0,0,0-.11.31l.48,3.47a.45.45,0,0,1-.14.45c-.46.45-.91.9-1.35,1.36-.11.12-.16.12-.24,0q-1.29-2.36-2.59-4.69a.61.61,0,0,0-.27-.28L139.13,313c-.16-.08-.15-.13,0-.24.48-.48,1-1,1.43-1.46a.27.27,0,0,1,.24-.09l3.67.55a.3.3,0,0,0,.28-.09q2.92-3,5.88-5.88c.13-.13.09-.17,0-.24l-11.42-6c-.14-.07-.16-.11,0-.23.67-.65,1.32-1.31,2-2a.3.3,0,0,1,.32-.1l9.55,2.21,4.69,1.08c.14,0,.2,0,.27-.11l6-6a2.38,2.38,0,0,1,3.12-.2A2.45,2.45,0,0,1,166,296.15Z"/></g><g id="nVTTIy.tif"><path class="cls-1" d="M185.68,328.17c0,.35-.1.47-.47.47H173.44a.47.47,0,0,1-.51-.35,5.84,5.84,0,0,0-1.22-1.94l.06,0a4.74,4.74,0,0,0,3.64-4.69V310.7a4.85,4.85,0,0,0-.1-1.07H184a2.13,2.13,0,0,1,1.63,2.18Q185.68,320,185.68,328.17Z"/><path class="cls-1" d="M195.1,316.24a2.06,2.06,0,0,0-1.83-1c-1.84,0-3.68,0-5.53,0-.48,0-.62.13-.62.62,0,3.29,0,6.58,0,9.88,0,.17-.06.35.07.52a.67.67,0,0,0,.15-.06,5,5,0,0,1,8.22,2.22.35.35,0,0,0,.19.27,3.08,3.08,0,0,0,2-.35v-6.84A18.28,18.28,0,0,0,195.1,316.24Zm.31,3.81h-2.88c-1,0-1.92,0-2.88,0-.45,0-.57-.14-.55-.57,0-.84,0-1.69,0-2.53,0-.36.12-.47.47-.47,1.24,0,2.47,0,3.7,0a.85.85,0,0,1,.76.37,28.37,28.37,0,0,1,1.69,2.74C195.94,320,195.75,320.06,195.41,320.05Z"/><path class="cls-1" d="M194.5,329.22a3.78,3.78,0,1,0-4.72,4.3c.16,0,.36,0,.49.15h1.06c.15-.17.37-.13.55-.19A3.77,3.77,0,0,0,194.5,329.22Zm-3.74,2.41A1.78,1.78,0,0,1,189,329.9a1.76,1.76,0,0,1,1.75-1.77,1.73,1.73,0,0,1,1.75,1.75A1.75,1.75,0,0,1,190.76,331.63Z"/></g><path class="cls-1" d="M347.87,208.14c-.32.38-.11,1.23-1,1.1s-1.75-.3-1.86-1.44c0-.32-.11-.63.27-.76,1-.34,1.5-1.47,2.59-1.65.18,0,.43.27.42.61C347.75,206.62,348.43,207.48,347.87,208.14Z"/><path class="cls-1" d="M350.05,202.86a3.39,3.39,0,0,1-.17.36c-.39-.08-.91-.06-1.13-.31a1.17,1.17,0,0,1-.12-1.46c.25-.38.64-.38.76,0S349.23,202.67,350.05,202.86Z"/><path class="cls-1" d="M350.67,204.88a.84.84,0,0,1-.65.81c-.27-.24-.85-.26-.83-.66,0-.59.69-.45,1.06-.61S350.72,204.6,350.67,204.88Z"/><path class="cls-1" d="M356.68,191.92c-.07.36-.48.46-.81.54s-.49-.17-.42.36a2.36,2.36,0,0,1-1.87,3,3,3,0,0,0-1.64,1.14c-.54-1.29.2-1.77,1-2.07,1.15-.44,1.94-1,1.91-2.41,0-.77.74-1.38,1.21-1.05C356.27,191.54,356.75,191.54,356.68,191.92Z"/><path class="cls-1" d="M336.71,195.9a.75.75,0,1,1-.75-.75A.76.76,0,0,1,336.71,195.9Z"/><path class="cls-1" d="M352.13,192.36a3.64,3.64,0,0,0-1.71-1.39,7.64,7.64,0,0,0-2.44-.38,18,18,0,0,0-4.27.15,2.57,2.57,0,0,0-.36.11,1.56,1.56,0,0,1-1.58-.24l.15-.25-.15.24-.4-.25a2.49,2.49,0,0,0-.36.63,3.45,3.45,0,0,0,.46,2.86c.21.37.45.74.69,1.09a11.49,11.49,0,0,1,1,1.7c1.06,2.39.66,4.36,0,6.87l-.55-.15c.67-2.47,1-4.26.05-6.48a10,10,0,0,0-1-1.62c-.24-.36-.49-.74-.71-1.13a7.23,7.23,0,0,1-.41-.88,20.2,20.2,0,0,0-7.73-1l-.34,0c-1.67.19-3.57.4-4.78-.85a6.17,6.17,0,0,1-.83-1.23,4,4,0,0,0-1-1.35l.12-.17c-.18.12-.35.26-.51.39-.42.33-.13.83.21,1.19.05,0,.08.17.05.21a1.45,1.45,0,0,0-.26.77l.13-.22c.5.29,1.14.59,1.76.88s1.29.61,1.81.91a4.93,4.93,0,0,0,1.57.67,4.78,4.78,0,0,0,1.67-.11l.74-.11a9,9,0,0,1,3,.27c1.38.36,2.23,1,2.43,1.77.38,1.44-1.44,3.06-2.52,4l-.32.29a9.68,9.68,0,0,1-1,.78,8.26,8.26,0,0,0-.93.75l-.17-.19a.3.3,0,0,1,.05.19c-.15,1.18.73,2,.93,3,.06.29.16.63.54.64s.46-.33.66-.54c.53-.57.11-1.47.52-1.91a10.41,10.41,0,0,1,2.63-2.31c.32-.18.51-.23.73.16s.74.86.71,1.51c0,.24.05.69.36.58,1.05-.39,1,.65.93.91a6,6,0,0,0,.76,3.25,6.63,6.63,0,0,0-1.11-.76.45.45,0,0,0-.52.09.29.29,0,0,0,0,.41c1.46,1.73,2.17,4.32,5.06,4.42.41,0,.94.61,1.16,0,.15-.42-.66-.32-.92-.65-.07-.09-.28-.08-.43-.1-.63,0-1.38.1-1.35-.92,0-.7-1-.91-.83-1.66a2.15,2.15,0,0,0-.75-2.33c-.38-.3-.82-1-.33-1.38s.9.37,1.07.66c.37.69.51.47.94.06,1.15-1.07,1.24-1.58.23-2.81-.21-.25-.42-.43-.19-.78s.35-.6.56-.48c.76.46,1.21-.2,1.78-.4,2.08-.76,2.78-2.15,2.17-4.23-.07-.21-.27-.45-.08-.64,1-1,.08-1-.63-1.08.92-.62,2-.29,2.13.63.1.55.15,1,.86.87.88-.23.43-.8.25-1.27A1.45,1.45,0,0,1,352.13,192.36Zm-3.29-13.49a.75.75,0,0,0,0,1.5.75.75,0,1,0,0-1.5Zm-15.53,2.27a.74.74,0,0,0-.71.52,1.29,1.29,0,0,0,.36.41,4.37,4.37,0,0,0,.75.45h0a.74.74,0,0,0,.35-.63A.76.76,0,0,0,333.31,181.14Zm1.74,3.18a2,2,0,0,0-.61-.77c-.27.47-.57.92-.88,1.37a8.83,8.83,0,0,1,.9.35c.43.17.75.32,1.05.47l.51.29h0l.2.12A8.83,8.83,0,0,1,335.05,184.32Zm5.83,5.73a21.71,21.71,0,0,1-3.52-2.7,1.82,1.82,0,0,1-.71-.22,3.87,3.87,0,0,1-.5-.35,3.73,3.73,0,0,0-.39-.25l0,0-.48-.26c-.29-.15-.6-.29-1-.46a8.89,8.89,0,0,0-1.74-.58,11.35,11.35,0,0,0-3-.08l0-.56a11.6,11.6,0,0,1,3.11.08l.32.08c-.25-.37-.49-.74-.71-1.13a6.7,6.7,0,0,1-.48-1,1.63,1.63,0,0,1-.12-.62,1.57,1.57,0,0,1,.18-.75h0a5.22,5.22,0,0,1-.15-1.13l-.49-.12c-1.44-.4-1.88-.07-2,1.48,0,.38,0,.76,0,1.14-.14,1.07.51,2.1.21,3.16a2.25,2.25,0,0,0,.16,1.76c.31.63.47,1.15-.63,1-.52-.06-1.06-.07-1.58-.17a1.6,1.6,0,0,0-1,.15,4.89,4.89,0,0,1,1.06,1.43,5.25,5.25,0,0,0,.75,1.11c1,1.05,2.77.86,4.31.69l.34,0a20.09,20.09,0,0,1,7.6.87,3.13,3.13,0,0,1,.11-1.81A3,3,0,0,1,340.88,190.05Zm8-11.18a.75.75,0,0,0,0,1.5.75.75,0,1,0,0-1.5Zm-7.39,6.81a.75.75,0,0,0-.74.75.75.75,0,1,0,1.49,0A.75.75,0,0,0,341.45,185.68Zm-4.31,11.79v0c.58-.68,1-1.4.86-2-.2-.79-1.35-1.2-2-1.37a8.74,8.74,0,0,0-2.76-.26l-.71.11a5.32,5.32,0,0,1-1.87.11,5.5,5.5,0,0,1-1.75-.74c-.5-.29-1.15-.59-1.77-.88s-1.12-.53-1.6-.79c.14.55.54,1.07.68,1.65-.62.35-1.78-.56-1.77.9a1.71,1.71,0,0,0-.55,0c-.65.17-1.79-.09-1.87.43-.19,1.11-.82,2.29-.21,3.43.85,1.6,2,3,2.56,4.81.13.49.46.5.89.36a9.64,9.64,0,0,0,3.43-2,2.8,2.8,0,0,0,.88-1.17c.2-.64-.58-.69-.69-1.11H331a6.09,6.09,0,0,1,2.47,1.75,10.81,10.81,0,0,1,.95-.76,9.3,9.3,0,0,0,.94-.74l.32-.29s0,0,.05-.05c-.29-.41-.57-.83-.82-1.27a7.77,7.77,0,0,1-.48-1,1.72,1.72,0,0,1-.12-.63,1.7,1.7,0,0,1,3.35-.35,1.55,1.55,0,0,1-.05.88A5.2,5.2,0,0,1,337.14,197.47Zm33.32-16.13a17.93,17.93,0,0,1-2.74-1.28,7.09,7.09,0,0,0-.9-.37,4.78,4.78,0,0,0-1.21-.19,1.27,1.27,0,0,0-.28,0c-.35.07-.65.25-.95.32a.75.75,0,0,1-.26,0c-1.89,0-3.61-1-5.52-1-.19,0-.39-.21-.59-.3-.94-.38-2.18-1-2.86-.4-1,.87-2.24.19-3.21.79a.34.34,0,0,1-.44-.25c-.22-.9-.84-1.55-1.42-1.2-1.47.87-2.71-.68-4.09-.07.27-.49.85-.68.55-1.34s-.81-.4-1.26-.53a3.53,3.53,0,0,0-3.65.49.64.64,0,0,1-.44.07c-2-.45-3.26,1.38-5.05,1.57-.06,0-.11.1-.15.16-.66,1-1.53.73-2.33.31-1-.48-1.71-.13-1.86,1a1,1,0,0,0,0,.3h.39a6.93,6.93,0,0,0,.06,1.22,1.6,1.6,0,0,1,.7-.32,1.67,1.67,0,0,1,1.95,2.17,4.08,4.08,0,0,1-.22.54,2.46,2.46,0,0,1,.86,1,8.68,8.68,0,0,0,1.46,2.11,18.92,18.92,0,0,0,4.23,3.43l0,0a16.5,16.5,0,0,1-.93-1.42,7.77,7.77,0,0,1-.48-1,1.9,1.9,0,0,1-.12-.63,1.7,1.7,0,0,1,3.35-.35,1.55,1.55,0,0,1-.05.88,5.61,5.61,0,0,1-.43,1l-.3.5a5,5,0,0,0,.41-.53,6.13,6.13,0,0,0,.65-2,8.5,8.5,0,0,1,.53-1.81,4.06,4.06,0,0,1,4.21-2.23c-.13-.2-.26-.41-.38-.62a5.2,5.2,0,0,1-.48-1,1.91,1.91,0,0,1-.13-.62,1.7,1.7,0,0,1,3.36-.36,1.64,1.64,0,0,1-.05.88,5.65,5.65,0,0,1-.44,1c-.22.4-.47.79-.73,1.17l.21.11a4.09,4.09,0,0,0,.8.37,3.86,3.86,0,0,0,1.81-.16l6.22-1.6a10.42,10.42,0,0,1,4.63-.45,7.89,7.89,0,0,1,2.11.84c.28.14.55.3.83.46l.66.37c.23.13.47.25.71.37l-.25.51-.79-.41-.51-.29h0l-.1-.06a9.45,9.45,0,0,0-2.77-1.23,9.83,9.83,0,0,0-4.38.44l-6.22,1.6a4.28,4.28,0,0,1-2.09.16,4.62,4.62,0,0,1-.93-.42l-.27-.14-.1.15h0l-.15-.21-.08-.11a3.47,3.47,0,0,0-4.18,1.76,7.35,7.35,0,0,0-.48,1.67,6.71,6.71,0,0,1-.73,2.17,6.55,6.55,0,0,1-1.06,1.22l-.42.43.33.2c.6.36.76.3,1.09.19a3.43,3.43,0,0,1,.44-.12A18.15,18.15,0,0,1,348,190a8.06,8.06,0,0,1,2.62.42,4.26,4.26,0,0,1,2,1.62l-.35.22.14-.05c2-.62,2.56-2.22,3-3.92.15-.59,0-1.31-1-1-.49.13-.56-.07-.38-.45.33-.75,2.07-1.57,2.85-1.73,1-.21,2.27.75,3.13-.56.21-.31.6-1,1.17-.34s-.24.75-.48,1a2.49,2.49,0,0,0-.67,3.16c.1.22.37.49.47.29.5-1,1.69-1.42,1.83-2.59s.55-1.66,1.71-1.41c.91.19,1.32-.45,1.9-.79s1.55,0,1.47-1.23c0-.6.82-.63,1.4-.42.21.07.37.28.57.37.7.3.85-.47,1.28-.71C370.94,181.7,370.66,181.39,370.46,181.34Z"/><path class="cls-1" d="M376.46,191.31a29.9,29.9,0,1,0-29.95,31A29.89,29.89,0,0,0,376.46,191.31Zm-18.08-24.49a25.6,25.6,0,0,1,5,3c-1.11.5-1.93.61-2.75-.44a20.65,20.65,0,0,0-2.43-2.33Zm1,3.86a43.45,43.45,0,0,1-5,.77c-.53.09-.6-.3-.74-.67a24.21,24.21,0,0,0-3-5.94A18.25,18.25,0,0,1,359.4,170.68ZM349,165.59a17.41,17.41,0,0,1,2.79,5.33c.25.7-.09.77-.63.77H342c-.45,0-.84,0-.59-.69a17.67,17.67,0,0,1,2.76-5.35C345.69,163.8,347.44,163.78,349,165.59Zm-9.37,5.16a.85.85,0,0,1-1.08.7c-1.28-.18-2.56-.31-3.84-.51-.53-.07-1-.22-.38-.89a19.12,19.12,0,0,1,8.22-5.25A20.64,20.64,0,0,0,339.59,170.75Zm-4.72-3.87c-1,1-2,2-2.86,3-.69.85-1.35-.08-2.08,0A15.66,15.66,0,0,1,334.87,166.88Zm-13,12a30.7,30.7,0,0,1,5.74-7.34.76.76,0,0,1,.82-.24l.22,0c2.23.61,1.92.39.95,2a29.5,29.5,0,0,0-3.31,7.62c-.24.87-.57,1.09-1.42.68a22.56,22.56,0,0,1-2.64-1.34A.93.93,0,0,1,321.86,178.92ZM324,209.05l4.63,1.25a1.07,1.07,0,0,1,.68.57,31.34,31.34,0,0,0,5.53,6.94A27.47,27.47,0,0,1,324,209.05Zm7.52,1.92c2.47.25,4.65.46,6.84.66a.76.76,0,0,1,.73.6,28.53,28.53,0,0,0,3.1,7.42C337.54,218.22,334.23,215.17,331.52,211Zm19.3,8.88a31.32,31.32,0,0,0,2.27-4.64c.28-.9.61-1.79.89-2.7a1,1,0,0,1,.92-.85l6.73-.65A20.39,20.39,0,0,1,350.82,219.85ZM354.9,209a76,76,0,0,0,1.34-9.14c.08-.65.2-1,1-1.07a71.36,71.36,0,0,0,8.37-1.15c.71-.15.89,0,.75.74a37.32,37.32,0,0,1-3.12,9.87c-.19.36-.34.71-.86.79-2.22.29-4.44.63-6.66,1C354.79,210.1,354.73,209.66,354.9,209Zm3.44,8.88c.9-1.11,2.05-2,2.88-3.19a10.58,10.58,0,0,0,1.35-1.84c1.15-2.9,3.89-2.83,6.49-3.65A27.29,27.29,0,0,1,358.34,217.83Zm14.79-16.18c-.25.72-.61,1.4-.83,2.13-1.05,3.43-4.15,3.67-7,4.57.52-1.65,1.14-3.06,1.59-4.55a44.52,44.52,0,0,0,1.27-5.78,1.34,1.34,0,0,1,1.15-1.31,19.89,19.89,0,0,0,5.29-2.07A25,25,0,0,1,373.13,201.65Zm.67-8.78a15.93,15.93,0,0,1-4.67,2.08c-.73.24-.71-.31-.71-.78,0-1.57,0-3.13,0-4.69a25,25,0,0,0-.41-3.86c-.11-.7-.37-1-1.11-.9s-.77.6-.66,1.19a41,41,0,0,1,.47,8.65,1.08,1.08,0,0,1-1,1.22c-2.81.54-5.63.9-8.47,1.24-.26,0-.55.07-.7-.24s.06-.89-.35-.85a4.62,4.62,0,0,0-1.42.65c-1.19.62-2.23,1.81-3.81.9-.4-.24-.7.07-.7.46,0,.54.13,1.11.85,1.12s1.75,0,2.63,0c.59,0,.78.19.74.81a64.29,64.29,0,0,1-1.37,9.25,1.1,1.1,0,0,1-1.32,1c-.83,0-1.68,0-2.51.06-.37,0-.72,0-.9.49-.45,1.23-.4,1.35.94,1.34a15.75,15.75,0,0,0,1.94-.09c.83-.11,1.2,0,.84,1a19.7,19.7,0,0,1-3,6c-1.67,2-3.47,2-5.08-.06a21.5,21.5,0,0,1-3-6.14c-.27-.77.1-.82.7-.81,1.12,0,2.25,0,3.37,0a3,3,0,0,0,.11-.32,3.12,3.12,0,0,1-2.67-1.27,1,1,0,0,0-.74-.2c-1.34.22-1.69-.52-1.86-1.66-.3-1.8-.72-3.58-.92-5.4,0-.43.21-1.19-.53-1.15s-1,.66-1.11,1.28a4.47,4.47,0,0,0,.08,1.36c.25,1.5.47,3,.79,4.5.18.82-.15.92-.81.82-2.12-.31-4.22-.61-6.34-.89a1.51,1.51,0,0,1-1.27-1,32.22,32.22,0,0,1-1.53-3.81c-.13-.43-.25-.93-.93-.65s-1.1.43-.79,1.22c.42,1.1.82,2.21,1.23,3.32a7.73,7.73,0,0,1-7.09-4.61,28.74,28.74,0,0,1-2.08-7.81c0-.29-.24-.65.07-.84s.48.14.72.21c.42.12.89.9,1.23.22s.56-1.37-.47-1.81a2.75,2.75,0,0,1-1.72-3.21,35.85,35.85,0,0,1,1.7-7.68c.3-.88.71-1,1.48-.47a9,9,0,0,0,2.87,1.38c.77.23,1.07.55.82,1.38a8.29,8.29,0,0,0-.32,1.91c0,.36-.36,1,.28,1a1.43,1.43,0,0,0,1.51-1c.13-.51.12-1.06.23-1.58.06-.27,0-.7.41-.73,1-.08.71-.86.56-1.26a3.71,3.71,0,0,1,.22-2.79,36.94,36.94,0,0,1,3.65-7.34,1.18,1.18,0,0,1,1.4-.61c1.53.3,3.08.53,4.63.68.76.07.85.33.71,1-.08.36-.55,1,.13,1.15s1.39.05,1.52-.68c.23-1.29,1-1.24,2-1.18a61.4,61.4,0,0,0,8.79,0c1.13-.08,1.61.33,1.8,1.35.11.64.25,1.27.42,1.9.1.36,0,.95.7.75s1.23-.34,1-1.22-.29-1.49-.49-2.23c-.14-.53,0-.73.55-.79,1.59-.19,3.18-.41,4.75-.7a1.28,1.28,0,0,1,1.49.69,24.57,24.57,0,0,1,2.42,4.52,1.07,1.07,0,0,0,1.19.79,4,4,0,0,0,.48-.07c.3-.06.42-.19.43-.35a1.52,1.52,0,0,0-.25-.73,44.13,44.13,0,0,0-2.14-4.16c-.24-.37-.82-.71-.43-1.27a2.9,2.9,0,0,1,2.46-.38,28.33,28.33,0,0,1,5.81,7.44c.12.21.23.43,0,.63-.77.83.08,1.25.52,1.49a2.17,2.17,0,0,1,1,1.27,28.15,28.15,0,0,1,1.82,8.68A2,2,0,0,1,373.8,192.87Z"/><path class="cls-1" d="M237.43,184.83a37.2,37.2,0,1,0,37.2,37.2A37.21,37.21,0,0,0,237.43,184.83Zm0,67A29.79,29.79,0,1,1,267.22,222,29.78,29.78,0,0,1,237.43,251.81Z"/></svg>