<svg id="Layer_1" data-name="Layer 1" xmlns="http://www.w3.org/2000/svg" viewBox="0 0 1646 553"><defs><style>.cls-1{fill:#0c2d4b;}.cls-2{fill:#0d3150;}.cls-3{fill:#0e2f48;}.cls-4{fill:#008fc0;}.cls-5{fill:#062d4b;}.cls-6{fill:#fd9000;}.cls-7{fill:#008037;}.cls-8{fill:#ff9000;}.cls-9{fill:#ff001a;}.cls-10{fill:#ff0016;}.cls-11{fill:#fff;}.cls-12{font-size:66.96px;fill:#0c3250;font-family:Poppins-SemiBold, Poppins;font-weight:600;letter-spacing:-0.02em;}</style></defs><polygon class="cls-1" points="890.11 282.93 880.39 202.96 935.15 151.21 936.99 153.16 883.21 203.97 892.77 282.6 890.11 282.93"/><rect class="cls-2" x="864.7" y="204.21" width="2.68" height="86.77" transform="translate(18.99 553.91) rotate(-35.84)"/><path class="cls-1" d="M892.79,284.6H745.23L699.62,151.53l119.6-82.8L938,151.53Zm-145.65-2.68H890.87L934.8,152.58,819.21,72l-116.4,80.59Z"/><polygon class="cls-2" points="890.85 283.97 819.4 248.97 749.13 283.96 747.93 281.57 819.39 245.98 892.03 281.56 890.85 283.97"/><polygon class="cls-2" points="704.19 153.49 703.61 150.87 781.27 133.69 819.16 67.76 860.67 133.68 936.37 150.87 935.77 153.49 858.99 136.05 819.27 72.96 783.01 136.05 782.43 136.18 704.19 153.49"/><polygon class="cls-1" points="749.86 282.93 747.2 282.6 756.76 203.97 702.98 153.16 704.82 151.21 759.58 202.96 749.86 282.93"/><circle class="cls-3" cx="758.17" cy="203.46" r="6.82"/><circle class="cls-4" cx="782.14" cy="134.87" r="6.82"/><circle class="cls-5" cx="859.83" cy="134.87" r="6.82"/><line class="cls-2" x1="786.16" y1="174.33" x2="701.35" y2="152.18"/><rect class="cls-2" x="742.41" y="119.43" width="2.68" height="87.65" transform="translate(397.87 841.63) rotate(-75.36)"/><rect class="cls-2" x="852.71" y="161.67" width="84.77" height="2.68" transform="translate(-11.95 234) rotate(-14.8)"/><line class="cls-2" x1="745.98" y1="282.77" x2="798.95" y2="210.8"/><rect class="cls-2" x="727.78" y="245.44" width="89.36" height="2.68" transform="translate(115.76 722.54) rotate(-53.64)"/><rect class="cls-1" x="818.06" y="107.8" width="2.68" height="42.15"/><path class="cls-2" d="M795.35,173.59h13.32v3.57h-4.35v16.42H799.7V177.16h-4.35Z"/><path class="cls-2" d="M811.17,173.59h4.59V190h6.54v3.63H811.17Z"/><path class="cls-2" d="M824.48,173.59h6.46L834.52,187l3.63-13.39h6.51v20H840.6V177l-4.68,16.63h-2.84L828.35,177v16.6h-3.87Z"/><circle class="cls-6" cx="819.54" cy="71.19" r="41.19"/><circle class="cls-4" cx="936.07" cy="152.18" r="41.19"/><circle class="cls-2" cx="891.44" cy="282.77" r="41.19"/><circle class="cls-2" cx="745.98" cy="282.77" r="41.19"/><circle class="cls-7" cx="701.35" cy="152.18" r="41.19"/><circle class="cls-8" cx="881.8" cy="203.46" r="6.82"/><circle class="cls-2" cx="858.66" cy="237.35" r="6.82"/><circle class="cls-2" cx="780.97" cy="236.52" r="6.82"/><circle class="cls-2" cx="757.83" cy="167.1" r="6.82"/><circle class="cls-9" cx="881.8" cy="167.1" r="6.82"/><circle class="cls-10" cx="819.4" cy="124.12" r="6.82"/><circle class="cls-8" cx="819.4" cy="248.92" r="6.82"/><path class="cls-11" d="M679.94,152.86a4.72,4.72,0,0,0,1.18-.16,7.8,7.8,0,0,0,2.53-1,4.2,4.2,0,0,0,1.66-1.78,2.67,2.67,0,0,0,.26-1.6,3.5,3.5,0,0,0-1-1.89,5.24,5.24,0,0,0-1.17-.87,6.6,6.6,0,0,0-1.3-.58,15.71,15.71,0,0,0-1.8-.43,1.1,1.1,0,0,0-1.25.65,1.93,1.93,0,0,0-.08.86c0,.22-.05.29-.28.28-1,0-2,0-3,0a.59.59,0,0,0-.61.67.56.56,0,0,0,.61.59h3.1c.14,0,.21,0,.2.19,0,.61,0,1.23,0,1.85,0,.13,0,.18-.17.17l-1,0c-.67,0-1.35,0-2,0a.61.61,0,0,0-.43.15.69.69,0,0,0-.19.81.66.66,0,0,0,.61.35h3c.24,0,.3.07.27.28a4.51,4.51,0,0,0,0,.52A1,1,0,0,0,679.94,152.86Z"/><path class="cls-11" d="M677.57,141.73a3.63,3.63,0,0,1,2.18,1.28c.26.29.46.63.71.93s.32.36.59.29.34-.46.06-.76a14.21,14.21,0,0,0-1.14-1.19,3.37,3.37,0,0,0-1.13-.69,15.6,15.6,0,0,1-2.19-.92,12,12,0,0,1-1.91-1.16,6.74,6.74,0,0,1-1.52-1.4c.41.32.8.64,1.23.92a14.44,14.44,0,0,0,4.06,1.74c.78.2,1-.29,1-.76a9.16,9.16,0,0,0-.4-1.78,3.73,3.73,0,0,0-1.27-1.69,4.48,4.48,0,0,0-2-.75,14.79,14.79,0,0,0-1.89-.24c-.67,0-1.34-.12-2-.17a9.07,9.07,0,0,1-1.73-.3,6,6,0,0,1-1.46-.66,9.28,9.28,0,0,0,.56,2.73,6.57,6.57,0,0,0,2,2.83,7.18,7.18,0,0,0,3.94,1.53C676,141.59,676.79,141.59,677.57,141.73Z"/><path class="cls-11" d="M727.37,154.13a5.35,5.35,0,0,0-1.81-1.49,14.84,14.84,0,0,0-4.17-1.34c-.68-.17-1.35-.28-2-.45A11.84,11.84,0,0,1,717,150a13.86,13.86,0,0,1-3-2.08c-.39-.46-.86-.84-1.28-1.28a33.06,33.06,0,0,0-2.41-2.33,12.15,12.15,0,0,0-1.36-1,2,2,0,0,0-.5-.33l-.06,0c-.08-.05-.14-.1-.22-.14h0a.67.67,0,0,0-.25-.16c-.22-.11-.43-.25-.65-.36a16,16,0,0,0-1.53-.65,12.89,12.89,0,0,0-2.35-.61,2.69,2.69,0,0,0-.73-.14c-.46-.08-.89-.11-1.35-.16a9.82,9.82,0,0,0-1.53-.05c-.5,0-1,0-1.51.05s-1.26.11-1.86.22c-1.13.17-2.24.39-3.35.64l-.39.08a0,0,0,0,0,0,0c-.05,0-.08,0-.13,0l-2.42.58c-.86.2-1.73.4-2.61.54l-1.42.27h-.25a14.19,14.19,0,0,1-2,.18h-1.56a.45.45,0,0,0-.34.12.64.64,0,0,0,.25,1.1,7.64,7.64,0,0,1,2.57,1.42,5.74,5.74,0,0,1,1,1.25,3,3,0,0,1,.12,2.84,4.93,4.93,0,0,1-2.29,2.33,9.5,9.5,0,0,1-2.63.89,2.18,2.18,0,0,1-1.64-.12c-.09-.07-.11,0-.11.07a7.65,7.65,0,0,0,0,2.19,5.54,5.54,0,0,0,1.61,3.24c.22.18.43.34.72.25a.71.71,0,0,0,.45-.58,5.63,5.63,0,0,1,.53-1.38,7,7,0,0,1,2.56-2.72,6.42,6.42,0,0,1,2.74-.95,5.12,5.12,0,0,1,.87-.08,8.48,8.48,0,0,1,1.14.1,7.27,7.27,0,0,1,2.49.84,6.18,6.18,0,0,1,2.2,2.08,7.29,7.29,0,0,1,1,3.14.88.88,0,0,0,.88.83c1.42,0,2.84,0,4.27,0,0,0,0,0,.06,0h7.75a.65.65,0,0,0,.62-.64,6.27,6.27,0,0,1,.63-2.36,8.91,8.91,0,0,1,1.08-1.66,7.52,7.52,0,0,1,1.19-1.06,7.2,7.2,0,0,1,2-.95,7.52,7.52,0,0,1,1.22-.24,6.2,6.2,0,0,1,2.19.08,8.81,8.81,0,0,1,1.81.62c0,.07.08.08.12.1a6.51,6.51,0,0,1,1.49,1.08,7,7,0,0,1,1.17,1.53,6.88,6.88,0,0,1,.89,2.65.58.58,0,0,0,.59.57,4,4,0,0,0,1.1-.22,5.27,5.27,0,0,0,1.95-1.08,4.34,4.34,0,0,0,1.41-2A2.59,2.59,0,0,0,727.37,154.13Zm-21.61-5.32c-2.21,3.1-4.41,6.18-6.61,9.29,0-.16.06-.27.09-.41a.11.11,0,0,0,0-.09v-.07s0,0,0,0v0a0,0,0,0,1,0,0,5.54,5.54,0,0,0,.22-.69v-.09c0-.06,0-.13.06-.16s0,0,0,0a.41.41,0,0,0,.07-.22v0a6,6,0,0,1,.3-1c.06-.22.13-.42.19-.64a.37.37,0,0,1,.05-.11c.21-.72.45-1.42.67-2.12.11-.3.18-.6.28-.89.05-.13.05-.21-.13-.19l-1.78.12a6.11,6.11,0,0,0-.86.05c-.11,0-.14,0-.11-.14.24-1.08.47-2.17.71-3.25s.5-2.16.72-3.24c.06-.32.29-.23.46-.26.38-.05.77-.06,1.15-.13h.07a.54.54,0,0,0,.35-.05H702a2.22,2.22,0,0,0,.51-.06c.13,0,.27,0,.39,0a.24.24,0,0,0,.13-.05c.44,0,.86-.09,1.33-.11a4.88,4.88,0,0,1-.46.88c-.34.65-.7,1.29-1,1.95s-.63,1.16-1,1.73c-.06.15-.09.21.11.21.85,0,1.69-.08,2.52-.11a6,6,0,0,0,1.2-.08s0,0,0,0A.56.56,0,0,0,705.76,148.81Z"/><path class="cls-11" d="M720.93,157.82a5.67,5.67,0,0,0-1.51-2,4.89,4.89,0,0,0-1.83-1,6,6,0,0,0-.67-.17,5.38,5.38,0,0,0-2.19,0,5.49,5.49,0,0,0-2.91,1.67,5.86,5.86,0,0,0-1.23,2.22,5.51,5.51,0,0,0,.51,4.13,4.86,4.86,0,0,0,1.14,1.42,6.53,6.53,0,0,0,1.11.78l.22.11a5.13,5.13,0,0,0,1.83.49,5.55,5.55,0,0,0,3.39-.77A5.48,5.48,0,0,0,721.1,162a5.11,5.11,0,0,0,.32-2.39A5.65,5.65,0,0,0,720.93,157.82ZM715.29,163a5.48,5.48,0,0,1-1.11-.41h0c0-.11-.1-.16-.16-.23a2.82,2.82,0,0,1-1-2.82,2.93,2.93,0,0,1,3.24-2.29.39.39,0,0,0,.26,0v0h0a1.61,1.61,0,0,0,.53.15s0,0,0,0v0c0,.09.15.12.22.17a2.89,2.89,0,0,1,1.52,2.3A2.93,2.93,0,0,1,715.29,163Z"/><path class="cls-11" d="M693.93,158.86a5.6,5.6,0,0,0-2.08-3.15,2.58,2.58,0,0,0-.89-.52.14.14,0,0,0-.1-.05.76.76,0,0,0-.37-.15,4.74,4.74,0,0,0-1.86-.36,6,6,0,0,0-.73,0,5.5,5.5,0,0,0-4.33,3.07,5.53,5.53,0,0,0-.54,2.54,5.44,5.44,0,0,0,.66,2.43,5.58,5.58,0,0,0,2.19,2.2c.09.09.22.09.31.14a5.5,5.5,0,0,0,7.44-2.8A5.14,5.14,0,0,0,693.93,158.86Zm-4.07,3.88a3.08,3.08,0,0,1-2.59,0c-.06,0-.14-.09-.22-.06h0a4.3,4.3,0,0,1-1.07-1.14,2.87,2.87,0,0,1,.61-3.62,2.68,2.68,0,0,1,1.46-.68,3.81,3.81,0,0,1,1.26,0h0c0,.09.11.09.17.11a2.91,2.91,0,0,1,.37,5.39Z"/><path class="cls-11" d="M680.61,142.33a1.12,1.12,0,0,0,.22-.26,2.36,2.36,0,0,1,2-1.11,5.64,5.64,0,0,0,1.77-.32,3.48,3.48,0,0,0,1.2-.75,3.54,3.54,0,0,0,.92-1.63,5.34,5.34,0,0,0,.19-1.13h-.07a4.1,4.1,0,0,1-2,.54c-.58.05-1.15.09-1.71.19a2.17,2.17,0,0,0-1.57.95,3.15,3.15,0,0,0-.36,1.21c-.07.43.17.61.54.51a10,10,0,0,0,1.29-.47,6.26,6.26,0,0,0,1.12-.67.48.48,0,0,1-.18.24,9.24,9.24,0,0,1-2.47,1.34,2.91,2.91,0,0,0-1.23,1.1.2.2,0,0,0,.05.29C680.43,142.45,680.53,142.41,680.61,142.33Z"/><path class="cls-11" d="M835.3,87.13l-3.87-14.71a2.58,2.58,0,0,1-.31.13,2.13,2.13,0,0,1-1.59,0,23.23,23.23,0,0,1-8.12-4.94v0c0,.1,0,.2,0,.3,0,.36-.11.41-.41.41-.78,0-1.56,0-2.33,0-.33,0-.47-.08-.43-.44.06-1.33.1-2.67.15-4v0c0-.17,0-.33,0-.5a12,12,0,0,1-1-5c0-2.39,0-4.78,0-7.18h-3.69l-3.33,12.65q-3.39,12.95-6.81,25.9a1.09,1.09,0,0,0,0,.44h13.74c0-1,.09-2,.1-2.92,0-.25.1-.33.35-.33h4.05c.27,0,.35.08.37.33,0,1,0,2,.08,2.92h13.76A22.77,22.77,0,0,0,835.3,87.13Zm-13.8-5c-1.15,0-2.3,0-3.46,0-.3,0-.4-.09-.38-.4q.2-4.09.35-8.19c0-.33.11-.43.43-.41.92,0,1.85,0,2.76,0,.31,0,.43.08.44.41,0,1.38.1,2.77.17,4.14h0c.07,1.32.1,2.64.19,4C822,82,821.89,82.11,821.5,82.11Z"/><path class="cls-11" d="M844.25,52.27c0-1.58,0-3.17,0-4.74a2,2,0,0,0-2-2.22,25.79,25.79,0,0,1-2.63-.45,19,19,0,0,1-6-2.89,2.15,2.15,0,0,0-2.78,0,20.29,20.29,0,0,1-3.47,2A16,16,0,0,1,822,45.33a1.71,1.71,0,0,0-1.6,1.52,2.85,2.85,0,0,0,0,.41c0,.2,0,.4,0,.6,0,2.2,0,4.4,0,6.6v1a11.74,11.74,0,0,0,.17,2.25,1.19,1.19,0,0,0,.05.22,9,9,0,0,0,.36,1.35l.15.4A11.83,11.83,0,0,0,824,64a20.69,20.69,0,0,0,6.26,4.08l.07,0c.38.17.78.32,1.17.47a1.7,1.7,0,0,0,.57.14,1.92,1.92,0,0,0,.91-.11l.23-.1c.87-.36,1.73-.74,2.56-1.16a17.88,17.88,0,0,0,5-3.57,13.52,13.52,0,0,0,2.29-3.06,8.47,8.47,0,0,0,1-3A41.86,41.86,0,0,0,844.25,52.27Zm-4.2,7.91a13,13,0,0,1-1.4,1.7,14.64,14.64,0,0,1-3.94,2.81c-.7.37-1.42.7-2.17,1a1.2,1.2,0,0,1-.25,0V56a5.68,5.68,0,0,0,0-.59c-.18-.12-.38-.05-.56-.05l-.81,0h-3.95c-1.05,0-2.1,0-3.15,0-.48,0-.59-.14-.57-.6,0-1.19,0-2.38,0-3.57,0-.43,0-.88,0-1.32V48.52c0-.3.06-.45.38-.48a19.13,19.13,0,0,0,8.31-3.27l.24-.14s.06,0,.09,0,0,.2,0,.3V55c0,.13,0,.26,0,.4a.38.38,0,0,1,.27-.09l.23,0c2.69,0,5.37,0,8.07,0,.44,0,.49.15.51.55A6.93,6.93,0,0,1,840.05,60.18Z"/><path class="cls-11" d="M812.2,51.2h-1.78a3.57,3.57,0,0,1-.16.46q-6.76,16.56-13.55,33.1c-.73,1.78-1.48,3.55-2.22,5.33,0,.21.2.09.29.09h4.46a16.54,16.54,0,0,1,.71-2.3Q806,69.61,812.14,51.34Z"/><path class="cls-11" d="M845,89.7q-4.11-10-8.2-20a22.37,22.37,0,0,1-2.64,1.53q3.09,9.23,6.17,18.46a.91.91,0,0,1,.11.52h4.46c.09,0,.25.12.29-.09S845,89.83,845,89.7Z"/><path class="cls-11" d="M889.76,299.57a9.69,9.69,0,0,0,.62-1.31,6.09,6.09,0,0,0,.38-1.39,2.67,2.67,0,0,0,0-1.16,2.49,2.49,0,0,0-.11-.29,1.09,1.09,0,0,0-.93-.61,1.92,1.92,0,0,0-1.35.38,4.67,4.67,0,0,0-.86.86,6.63,6.63,0,0,0-.49.69.31.31,0,0,1-.07.09l0-.1a4.34,4.34,0,0,0,.33-1,2.74,2.74,0,0,0,0-1.14,1.4,1.4,0,0,0-1.12-1,2,2,0,0,0-1.27.23,3.22,3.22,0,0,0-1,.88c-.08.09-.14.19-.22.28s0,0,0-.07a3.3,3.3,0,0,0,.24-1.11,1.44,1.44,0,0,0-1.12-1.56,1.9,1.9,0,0,0-1.57.25,4.72,4.72,0,0,0-1,.87,5.56,5.56,0,0,0-.5.67s0,.05-.06.06,0,0,0,0c-.58-.54-1.2-1-1.82-1.52-.8-.64-1.62-1.25-2.44-1.87a.68.68,0,0,0-.26-.12l-1.6-.39c-.1,0-.1,0-.09-.12,0-.44.08-.87.14-1.31a19,19,0,0,1,.57-2.59,17.82,17.82,0,0,1,3.14-6,13.42,13.42,0,0,1,1.3-1.42.19.19,0,0,1,.22-.05l1.42.44a1.75,1.75,0,0,0,.4.05,5.22,5.22,0,0,1,1.35.27,2.86,2.86,0,0,1,.92.51c.16.14.12.11,0,.22l-1.44,1.35a1.65,1.65,0,0,0-.49.78,2.38,2.38,0,0,0-.05,1.35,1.61,1.61,0,0,0,.7,1,2.86,2.86,0,0,0,1.19.47,4.39,4.39,0,0,0,2.55-.34l.17-.11,2.24-1.76a3.23,3.23,0,0,1,1.26-.62,5,5,0,0,1,1.54-.14,7.25,7.25,0,0,1,2.47.58,7.45,7.45,0,0,1,1.41.78l1.81,1.2c2.72,1.8,5.43,3.62,8.08,5.53.87.62,1.72,1.25,2.55,1.92.24.2.48.4.7.62a1.74,1.74,0,0,1,.5,1.42,1.9,1.9,0,0,1-.23.72,2.73,2.73,0,0,1-.43.58,1.48,1.48,0,0,1-.85.41,1.81,1.81,0,0,1-1-.18,3.62,3.62,0,0,1-.43-.24s-.05-.05-.09-.05,0,.06,0,.09a1.61,1.61,0,0,1,.3,1.27c0,.16,0,.32-.07.47a2.23,2.23,0,0,1-.66,1.15,3,3,0,0,1-.69.48,1.56,1.56,0,0,1-.7.16,3.9,3.9,0,0,1-1.58-.3s-.07,0-.12,0a.14.14,0,0,0,0,.11,2,2,0,0,1,0,1.17,2.16,2.16,0,0,1-1.06,1.27,2,2,0,0,1-.75.21,3.37,3.37,0,0,1-1.51-.18l-.07,0h0a.2.2,0,0,0,0,.11,1.72,1.72,0,0,1-.53,1.86,2.28,2.28,0,0,1-1.27.52,3.17,3.17,0,0,1-1.22-.18,7.88,7.88,0,0,1-1.45-.66,14.63,14.63,0,0,1-1.49-1l-.08-.06s0-.05,0-.08l0-.07a5.58,5.58,0,0,0,.56-1.12,2.85,2.85,0,0,0,.19-.92,1.58,1.58,0,0,0-.07-.53,1.17,1.17,0,0,0-1.45-.68,2.82,2.82,0,0,0-.89.51,4.53,4.53,0,0,0-.59.57S889.82,299.54,889.76,299.57Z"/><path class="cls-11" d="M888.13,277.38c.17,0,.34,0,.52,0l1.57,0c.43,0,.85,0,1.27-.05s.71,0,1.07-.08l.37-.07a3.37,3.37,0,0,1,1.14-.05,5.61,5.61,0,0,1,1.87.56c.75.36,1.52.68,2.29,1,1.2.51,2.41,1,3.63,1.49a4.66,4.66,0,0,0,1,.26,4.09,4.09,0,0,0,.78.05,2.66,2.66,0,0,0,1.56-.52,7.56,7.56,0,0,0,.87-.72c0-.05.11-.1.15-.15a.07.07,0,0,1,.11,0c.18.13.35.26.51.4a10.45,10.45,0,0,1,2.28,2.89,13,13,0,0,1,1.36,3.81,15.24,15.24,0,0,1,.25,1.78c0,.39.06.77.07,1.16,0,.09,0,.09-.09.09a4.94,4.94,0,0,0-2.16.55A5.29,5.29,0,0,0,907,291c-.06.07-.06.07-.15,0l-3.43-2.32-2-1.32-3.18-2.14-3.06-2.06-1.2-.81a4.61,4.61,0,0,0-.92-.45,7.71,7.71,0,0,0-1.83-.48,6.65,6.65,0,0,0-1.34,0,6.11,6.11,0,0,0-1.27.2,3.57,3.57,0,0,0-.45.19,7.35,7.35,0,0,0-1.54,1c-.44.36-.9.71-1.35,1.06a2.16,2.16,0,0,1-.54.29,4.2,4.2,0,0,1-1.21.29,2.3,2.3,0,0,1-1.74-.55.65.65,0,0,1-.15-.18,1.59,1.59,0,0,1-.07-1.44.62.62,0,0,1,.15-.21l1.82-1.61,1.79-1.59.79-.72a5.3,5.3,0,0,1,.6-.46,1.36,1.36,0,0,1,.58-.21Z"/><path class="cls-11" d="M877.45,277.26c0,.05-.05.07-.08.1a19.74,19.74,0,0,0-2.14,2.69,21.05,21.05,0,0,0-2.48,5.09,18.9,18.9,0,0,0-.7,2.88c-.07.49-.13,1-.16,1.46a17.63,17.63,0,0,0,0,1.78v.06s-.07,0-.1,0l-5.14-2.67c-.08,0-.09-.09-.09-.17,0-.45.08-.91.13-1.35.07-.63.17-1.26.28-1.88a24.23,24.23,0,0,1,1.87-6,13.68,13.68,0,0,1,2.16-3.31,9.76,9.76,0,0,1,1.76-1.58l.14-.09a.06.06,0,0,1,.09,0l.06.05,4.35,2.9Z"/><path class="cls-11" d="M906.84,277.37l.53-.37,3.81-2.62,0,0a.08.08,0,0,1,.12,0l.4.3a13.45,13.45,0,0,1,2,1.93,16,16,0,0,1,2.26,3.5,17.18,17.18,0,0,1,1.08,3,18.1,18.1,0,0,1,.43,2.17c0,.41.09.83.12,1.25,0,.66,0,1.33,0,2v.05c0,.06,0,.09-.08.12l-.55.26-1.76.84-2.87,1.38-.08,0a.17.17,0,0,1,0-.1c0-.42,0-.85,0-1.28s0-.91-.08-1.37-.12-1.2-.21-1.79a19.75,19.75,0,0,0-.65-2.86,14.73,14.73,0,0,0-1-2.5,9.93,9.93,0,0,0-1.6-2.31,7.82,7.82,0,0,0-1.81-1.48l-.07,0Z"/><path class="cls-11" d="M890.17,296.64a2.77,2.77,0,0,1-.14.86,9.56,9.56,0,0,1-.8,2.06,7.07,7.07,0,0,1-1.15,1.56,2,2,0,0,1-.55.41,1,1,0,0,1-1.21-.27,1.24,1.24,0,0,1-.24-.47,1.92,1.92,0,0,1,0-1.09l.18-.62a7.48,7.48,0,0,1,.8-1.63,7.64,7.64,0,0,1,.71-1,3.13,3.13,0,0,1,1.18-.89,1.11,1.11,0,0,1,.3-.08.8.8,0,0,1,.86.56A1.93,1.93,0,0,1,890.17,296.64Z"/><path class="cls-11" d="M882.77,298.26a2.84,2.84,0,0,1,.13-.8,8.34,8.34,0,0,1,.84-1.91,4.21,4.21,0,0,1,.83-1,1.91,1.91,0,0,1,.74-.4,1.06,1.06,0,0,1,1.26.63,1.35,1.35,0,0,1,.1.63,4.51,4.51,0,0,1-.16,1,7.54,7.54,0,0,1-.43,1.15,5.78,5.78,0,0,1-.81,1.32,3,3,0,0,1-.63.56,1.22,1.22,0,0,1-1.2.07,1.06,1.06,0,0,1-.63-.83A2.15,2.15,0,0,1,882.77,298.26Z"/><path class="cls-11" d="M883.22,294.11a3.17,3.17,0,0,1-.45,1.57,3.89,3.89,0,0,1-.65.86A1.74,1.74,0,0,1,881,297a1.16,1.16,0,0,1-1.17-.94,2.09,2.09,0,0,1,0-.66,3.37,3.37,0,0,1,.49-1.37,3.31,3.31,0,0,1,1.1-1.07,1.2,1.2,0,0,1,.45-.15,1.16,1.16,0,0,1,.64,0,1.13,1.13,0,0,1,.72.9A3.25,3.25,0,0,1,883.22,294.11Z"/><path class="cls-11" d="M892.37,299.69a1.64,1.64,0,0,1-.09.58,7.06,7.06,0,0,1-.76,1.65,4,4,0,0,1-.77.92.91.91,0,0,1-.65.25,1,1,0,0,1-.5-.16.69.69,0,0,1-.26-.44,2.28,2.28,0,0,1,0-.69,3.29,3.29,0,0,1,.29-.92,4.32,4.32,0,0,1,.93-1.42,1.92,1.92,0,0,1,.59-.47,1.23,1.23,0,0,1,.8-.09.47.47,0,0,1,.36.31,1.17,1.17,0,0,1,.05.2A1.27,1.27,0,0,1,892.37,299.69Z"/><g id="o3SyUi.tif"><path class="cls-11" d="M889.94,276l-1.57,0c-.18,0-.35,0-.53,0s-.51,0-.76.05a1.14,1.14,0,0,0-.58.21,4.27,4.27,0,0,0-.6.45l-.8.72-1.27,1.14c-.36-.14-.46-.44-.46-1.08,0-3.65,0-7.29,0-10.93a1,1,0,0,1,.68-1.07h.84a17.16,17.16,0,0,1,2.47.5,6.45,6.45,0,0,1,3.49,2.53,1.22,1.22,0,0,1,.22.67c0,2.25,0,4.51,0,6.76Z"/><path class="cls-11" d="M900,277.57a1.83,1.83,0,0,1-.05.5l-2-.81c-.76-.32-1.53-.64-2.28-1a5.61,5.61,0,0,0-1.87-.56,3.41,3.41,0,0,0-1.15.05l-.37.07h0v-6.55a1.48,1.48,0,0,1,.26-.86,6.81,6.81,0,0,1,4.38-2.7c.51-.12,1-.18,1.53-.26h.85a1,1,0,0,1,.68,1.07C900,270.2,900,273.89,900,277.57Z"/><path class="cls-11" d="M882.24,278.22a3.17,3.17,0,0,0-.56-.25,5,5,0,0,0-.84-.22v-9a1,1,0,0,1,.46-.52c.58-.26.88-.08.88.53v8.78A3.69,3.69,0,0,0,882.24,278.22Z"/><path class="cls-11" d="M902.49,269.05V279a4.3,4.3,0,0,1-.92-.24l-.55-.23a2.35,2.35,0,0,0,.12-.77c0-3,0-6,0-9,0-.2-.14-.48.13-.6a1,1,0,0,1,1.06.33A.93.93,0,0,1,902.49,269.05Z"/></g><g id="_7Bt7F9.tif" data-name="7Bt7F9.tif"><path class="cls-11" d="M747.44,293.63l1.55,1.54a.45.45,0,0,1,.14.35q0,.63,0,1.26c0,.17,0,.23-.21.23-.44,0-.87,0-1.31,0a.37.37,0,0,1-.31-.13l-3.09-3.15a.44.44,0,0,0-.34-.14h-3a.4.4,0,0,0-.31.13l-3.11,3.16a.36.36,0,0,1-.32.13h-1.33c-.12,0-.17,0-.17-.16,0-.47,0-.93,0-1.4a.34.34,0,0,1,.11-.24c.47-.46.94-.93,1.4-1.4l.16-.16a7.93,7.93,0,0,1-1.13-.14,5,5,0,0,1-3.92-4.94c0-3.94,0-7.87,0-11.81a5,5,0,0,1,4.14-5,5.66,5.66,0,0,1,1-.09h10a5,5,0,0,1,5,4,5.63,5.63,0,0,1,.11,1.16v11.65a5.05,5.05,0,0,1-3.87,5A5.55,5.55,0,0,1,747.44,293.63Zm-5.06-8.44h6.53c.16,0,.22,0,.22-.21q0-4.86,0-9.71c0-.19-.06-.22-.22-.22H735.83c-.18,0-.21.05-.21.22V285c0,.19.06.22.23.22ZM739,288.56a1.69,1.69,0,1,0-1.68,1.69A1.7,1.7,0,0,0,739,288.56Zm10.13,0a1.69,1.69,0,1,0-1.68,1.69A1.69,1.69,0,0,0,749.12,288.56Z"/><path class="cls-11" d="M744.17,262.41a2.44,2.44,0,0,1-.71,1.73l-5.73,5.74a.44.44,0,0,1-.34.11,6.72,6.72,0,0,0-6.4,4.37,6.49,6.49,0,0,0-.43,2.5.42.42,0,0,1-.15.35l-5.36,5.35a.34.34,0,0,0-.11.33l.51,3.7a.49.49,0,0,1-.15.48c-.49.47-1,1-1.44,1.45-.12.13-.16.12-.25,0l-2.76-5a.62.62,0,0,0-.3-.3l-5-2.78c-.17-.09-.16-.14,0-.26.51-.51,1-1,1.52-1.55a.28.28,0,0,1,.26-.1l3.91.58a.3.3,0,0,0,.29-.09q3.13-3.15,6.27-6.27c.14-.14.09-.18,0-.25l-12.17-6.4c-.15-.08-.17-.12,0-.25.71-.69,1.41-1.39,2.11-2.09a.31.31,0,0,1,.34-.1L728.13,266l5,1.16a.29.29,0,0,0,.29-.12l6.43-6.43a2.54,2.54,0,0,1,3.33-.21A2.61,2.61,0,0,1,744.17,262.41Z"/></g><g id="nVTTIy.tif"><path class="cls-11" d="M765.15,296.53c0,.38-.11.5-.49.5H752.11a.49.49,0,0,1-.54-.37,6.37,6.37,0,0,0-1.31-2.07l.07,0a5,5,0,0,0,3.88-5V277.92a5.38,5.38,0,0,0-.11-1.14h9.3a2.27,2.27,0,0,1,1.74,2.31C765.15,284.91,765.14,290.72,765.15,296.53Z"/><path class="cls-11" d="M775.19,283.81a2.15,2.15,0,0,0-1.94-1c-2,0-3.93,0-5.9,0-.52,0-.66.14-.66.66,0,3.51,0,7,0,10.53,0,.18-.06.38.07.56.06,0,.12,0,.16-.07a5.34,5.34,0,0,1,8.76,2.37c0,.12.07.23.2.29a3.28,3.28,0,0,0,2.19-.38v-7.28A19.4,19.4,0,0,0,775.19,283.81Zm.33,4.07h-3.06c-1,0-2.05,0-3.07,0-.48,0-.61-.15-.59-.61,0-.9,0-1.8,0-2.69,0-.39.12-.51.5-.5,1.32,0,2.63,0,4,0a.91.91,0,0,1,.8.4,29,29,0,0,1,1.81,2.92C776.09,287.86,775.89,287.88,775.52,287.88Z"/><path class="cls-11" d="M774.56,297.65a4,4,0,1,0-5,4.58c.18,0,.38,0,.53.16h1.13c.15-.18.39-.13.58-.19A4,4,0,0,0,774.56,297.65Zm-4,2.57a1.87,1.87,0,0,1,0-3.73,1.85,1.85,0,0,1,1.87,1.86A1.87,1.87,0,0,1,770.57,300.22Z"/></g><path class="cls-11" d="M938,168.59c-.35.41-.12,1.32-1.08,1.19s-1.86-.33-2-1.54c0-.34-.11-.67.3-.82,1.07-.35,1.6-1.56,2.75-1.76.2,0,.47.3.45.66C937.9,167,938.63,167.9,938,168.59Z"/><path class="cls-11" d="M940.35,163c-.1.19-.16.39-.18.39-.42-.09-1-.07-1.2-.33a1.26,1.26,0,0,1-.14-1.56c.27-.41.68-.41.82,0S939.48,162.77,940.35,163Z"/><path class="cls-11" d="M941,165.13a.9.9,0,0,1-.7.85c-.29-.25-.91-.27-.89-.7,0-.63.74-.47,1.14-.65S941.06,164.82,941,165.13Z"/><path class="cls-11" d="M947.42,151.31c-.08.38-.52.49-.86.58s-.53-.18-.46.38a2.5,2.5,0,0,1-2,3.15,3.15,3.15,0,0,0-1.74,1.22c-.58-1.38.21-1.89,1-2.21,1.23-.47,2.07-1.11,2-2.57,0-.82.78-1.46,1.29-1.12C947,150.91,947.49,150.91,947.42,151.31Z"/><path class="cls-11" d="M926.13,155.55a.79.79,0,0,1-.79.8.8.8,0,0,1-.8-.8.8.8,0,0,1,1.59,0Z"/><path class="cls-11" d="M942.57,151.77a4,4,0,0,0-1.83-1.48,8.35,8.35,0,0,0-2.59-.4,19.76,19.76,0,0,0-4.55.16,3,3,0,0,0-.39.12,1.66,1.66,0,0,1-1.68-.26l.15-.26-.15.26-.44-.27a3,3,0,0,0-.38.67,3.74,3.74,0,0,0,.49,3.05c.22.39.48.78.74,1.16a11.25,11.25,0,0,1,1.06,1.82c1.13,2.54.71,4.63,0,7.31l-.59-.15c.71-2.64,1.1-4.55.05-6.92a11.27,11.27,0,0,0-1-1.72c-.26-.39-.52-.79-.76-1.2a6.82,6.82,0,0,1-.43-.94,21.2,21.2,0,0,0-8.24-1l-.36,0c-1.79.19-3.81.42-5.1-.91a6.3,6.3,0,0,1-.89-1.31,4.34,4.34,0,0,0-1.09-1.44l.12-.18c-.19.13-.37.27-.54.41-.45.36-.14.89.22,1.27,0,0,.09.18.06.22a1.5,1.5,0,0,0-.27.82l.13-.22c.53.3,1.22.62,1.88.93s1.37.65,1.93,1a5.54,5.54,0,0,0,1.66.72,5.22,5.22,0,0,0,1.79-.12c.26,0,.52-.09.79-.12a9.45,9.45,0,0,1,3.16.29c1.48.38,2.37,1,2.59,1.89.4,1.53-1.53,3.25-2.68,4.28l-.35.31a8.5,8.5,0,0,1-1,.83,10.56,10.56,0,0,0-1,.8l-.18-.2a.34.34,0,0,1,0,.2c-.16,1.25.78,2.1,1,3.19.06.32.17.67.57.69s.49-.35.71-.58c.57-.61.11-1.56.55-2a11.44,11.44,0,0,1,2.81-2.46c.34-.18.54-.24.78.17s.78.93.76,1.61c0,.26.05.75.38.62,1.12-.41,1,.7,1,1a6.44,6.44,0,0,0,.82,3.46,6.88,6.88,0,0,0-1.18-.81.5.5,0,0,0-.56.1c-.14.14-.08.3,0,.44,1.56,1.84,2.32,4.59,5.39,4.7.44,0,1,.65,1.24,0,.17-.45-.7-.34-1-.69-.07-.1-.29-.09-.45-.11-.67,0-1.48.11-1.44-1,0-.74-1-1-.89-1.77a2.29,2.29,0,0,0-.8-2.48c-.4-.32-.88-1-.35-1.47s.95.39,1.13.71c.41.73.55.5,1,.06,1.23-1.15,1.33-1.69.25-3-.23-.27-.45-.46-.21-.83s.37-.64.6-.51c.81.48,1.28-.21,1.89-.43,2.22-.81,3-2.29,2.32-4.51-.07-.22-.29-.47-.08-.68,1.08-1,.08-1-.67-1.15,1-.66,2.08-.31,2.26.67.11.59.17,1.11.92.93.94-.24.46-.85.27-1.35A1.55,1.55,0,0,1,942.57,151.77Zm-3.51-14.37a.8.8,0,1,0,.8.79A.8.8,0,0,0,939.06,137.4Zm-16.55,2.42a.8.8,0,0,0-.76.56,1.59,1.59,0,0,0,.39.43,4,4,0,0,0,.79.48h0a.82.82,0,0,0,.37-.67A.8.8,0,0,0,922.51,139.82Zm1.86,3.39a2.41,2.41,0,0,0-.66-.83c-.29.51-.61,1-.94,1.46l1,.38c.45.19.79.34,1.11.51a5.65,5.65,0,0,1,.55.3h0l.21.13A9.15,9.15,0,0,1,924.37,143.21Zm6.21,6.11a22.78,22.78,0,0,1-3.76-2.88,1.88,1.88,0,0,1-.75-.24,3.36,3.36,0,0,1-.54-.36,2.42,2.42,0,0,0-.41-.27l0,0-.51-.29c-.31-.15-.64-.3-1.08-.48a10.17,10.17,0,0,0-1.86-.63,12.37,12.37,0,0,0-3.16-.08l0-.6a12.76,12.76,0,0,1,3.32.09l.34.08c-.26-.39-.52-.78-.75-1.19a7.15,7.15,0,0,1-.52-1.08,2.15,2.15,0,0,1-.13-.67,1.69,1.69,0,0,1,.2-.8h0a5.19,5.19,0,0,1-.16-1.2l-.53-.13c-1.53-.42-2-.07-2.11,1.58,0,.4,0,.81-.05,1.22-.14,1.14.55,2.23.23,3.37a2.43,2.43,0,0,0,.16,1.87c.34.67.51,1.23-.67,1.1-.55-.06-1.12-.07-1.68-.17a1.72,1.72,0,0,0-1,.15,5.38,5.38,0,0,1,1.13,1.53,5.62,5.62,0,0,0,.8,1.19c1.08,1.11,2.94.91,4.59.73l.37,0A21.76,21.76,0,0,1,930,152a3.37,3.37,0,0,1,.11-1.93A3.42,3.42,0,0,1,930.58,149.32Zm8.48-11.92a.8.8,0,1,0,.8.79A.8.8,0,0,0,939.06,137.4Zm-7.87,7.26a.8.8,0,1,0,.8.8A.81.81,0,0,0,931.19,144.66Zm-4.61,12.57h0a2.7,2.7,0,0,0,.92-2.13c-.22-.84-1.45-1.27-2.16-1.46a9,9,0,0,0-2.94-.27l-.76.12a4.46,4.46,0,0,1-3.86-.68c-.53-.3-1.22-.63-1.88-.94s-1.19-.56-1.71-.84c.15.59.58,1.15.73,1.77-.66.36-1.9-.6-1.89.95a1.63,1.63,0,0,0-.58,0c-.69.18-1.91-.09-2,.46-.2,1.18-.87,2.43-.22,3.66.9,1.7,2.18,3.22,2.73,5.12.14.53.49.54.94.38a9.92,9.92,0,0,0,3.66-2.1,3,3,0,0,0,.94-1.25c.21-.68-.62-.73-.74-1.18H920a6.66,6.66,0,0,1,2.64,1.86,11.94,11.94,0,0,1,1-.8,9.18,9.18,0,0,0,1-.79l.35-.31.06,0c-.31-.44-.61-.89-.88-1.36a6.17,6.17,0,0,1-.51-1.07,2,2,0,0,1-.13-.67,1.81,1.81,0,0,1,3.57-.38,1.67,1.67,0,0,1-.05.94A5.63,5.63,0,0,1,926.58,157.23ZM962.1,140a19.2,19.2,0,0,1-2.91-1.36,7.28,7.28,0,0,0-1-.39,4.18,4.18,0,0,0-1.28-.2,1.39,1.39,0,0,0-.3,0c-.38.07-.7.26-1,.34a1.45,1.45,0,0,1-.29,0c-2,0-3.84-1.11-5.88-1.1-.2,0-.41-.23-.62-.32-1-.41-2.33-1-3.05-.42-1.12.92-2.4.2-3.42.84a.36.36,0,0,1-.47-.27c-.24-1-.89-1.66-1.52-1.28-1.56.93-2.89-.72-4.36-.07.29-.53.91-.72.59-1.43s-.87-.43-1.34-.56c-1.4-.41-2.71-.54-3.89.51a.62.62,0,0,1-.47.07c-2.12-.47-3.48,1.48-5.39,1.69-.06,0-.11.1-.16.17-.7,1.05-1.62.77-2.48.33-1-.52-1.83-.15-2,1a1.22,1.22,0,0,0,0,.33h.41a9.25,9.25,0,0,0,.07,1.31,1.75,1.75,0,0,1,.74-.35,1.83,1.83,0,0,1,2.14,1.38,1.77,1.77,0,0,1-.06.94,4.53,4.53,0,0,1-.23.57,2.73,2.73,0,0,1,.92,1.1,9,9,0,0,0,1.55,2.25,20.19,20.19,0,0,0,4.51,3.66l0,0a15.13,15.13,0,0,1-1-1.52,7.15,7.15,0,0,1-.52-1.08,2.09,2.09,0,0,1-.13-.66,1.81,1.81,0,0,1,3.57-.38,1.67,1.67,0,0,1-.05.94,6.34,6.34,0,0,1-.46,1c-.1.18-.21.36-.32.53a3.79,3.79,0,0,0,.43-.56,6.38,6.38,0,0,0,.7-2.12,8.89,8.89,0,0,1,.57-1.93,4.31,4.31,0,0,1,4.48-2.37c-.14-.22-.28-.44-.4-.67a6.62,6.62,0,0,1-.52-1.07,2.21,2.21,0,0,1-.13-.67,1.81,1.81,0,0,1,3.58-.38,1.76,1.76,0,0,1-.06.94,5.3,5.3,0,0,1-.46,1c-.24.43-.5.84-.78,1.25l.22.12a2.84,2.84,0,0,0,2.78.22l6.64-1.7a11,11,0,0,1,4.93-.48,8.59,8.59,0,0,1,2.25.89c.3.15.59.32.88.49l.71.4c.25.13.5.27.75.39l-.26.55-.84-.44-.55-.31h0l-.11-.07a10.42,10.42,0,0,0-2.95-1.31,10.63,10.63,0,0,0-4.66.47l-6.64,1.7a4.36,4.36,0,0,1-2.23.17,4.21,4.21,0,0,1-1-.44l-.28-.15-.11.16h0c0-.08-.11-.15-.16-.22a.83.83,0,0,1-.08-.12,3.7,3.7,0,0,0-4.46,1.87,7.88,7.88,0,0,0-.51,1.79,5.37,5.37,0,0,1-1.91,3.61l-.45.46.35.21c.64.39.82.33,1.17.2.13,0,.28-.09.46-.13a19.54,19.54,0,0,1,4.7-.17,8.51,8.51,0,0,1,2.79.44,4.5,4.5,0,0,1,2.12,1.73l-.37.24a.44.44,0,0,1,.16-.06c2.14-.66,2.72-2.36,3.18-4.18.16-.62,0-1.39-1-1.11-.53.15-.6-.07-.41-.48.36-.79,2.21-1.67,3-1.84,1.1-.22,2.41.8,3.32-.6.23-.33.65-1,1.25-.36s-.25.8-.51,1.05a2.65,2.65,0,0,0-.71,3.36c.11.24.39.53.5.31.53-1,1.8-1.51,2-2.76s.59-1.77,1.82-1.5c1,.21,1.41-.48,2-.84s1.65.05,1.57-1.32c0-.63.87-.67,1.49-.44.22.08.39.29.6.39.75.32.91-.5,1.36-.75C962.61,140.42,962.32,140.09,962.1,140Z"/><path class="cls-11" d="M968.5,150.66a31.87,31.87,0,1,0-31.92,33A31.84,31.84,0,0,0,968.5,150.66Zm-19.27-26.11a26.78,26.78,0,0,1,5.31,3.2c-1.19.53-2.06.65-2.93-.48A21.64,21.64,0,0,0,949,124.8Zm1.09,4.12a45.65,45.65,0,0,1-5.37.82c-.56.1-.64-.32-.79-.71a25.43,25.43,0,0,0-3.14-6.34A19.49,19.49,0,0,1,950.32,128.67Zm-11.14-5.42a18.23,18.23,0,0,1,3,5.67c.27.76-.1.83-.67.83h-9.72c-.48,0-.89,0-.63-.74a18.83,18.83,0,0,1,2.94-5.7C935.71,121.34,937.56,121.32,939.18,123.25Zm-10,5.5a.92.92,0,0,1-1.16.74c-1.36-.19-2.73-.33-4.09-.54-.57-.08-1.09-.24-.41-.95a20.36,20.36,0,0,1,8.77-5.6A21.59,21.59,0,0,0,929.21,128.75Zm-5-4.13c-1,1.07-2.1,2.1-3,3.24-.75.9-1.45-.09-2.22,0A16.89,16.89,0,0,1,924.17,124.62ZM910.3,137.45a33.12,33.12,0,0,1,6.12-7.82.81.81,0,0,1,.87-.26l.24,0c2.38.65,2.05.42,1,2.15a31.35,31.35,0,0,0-3.53,8.12c-.25.93-.61,1.16-1.51.73a26.48,26.48,0,0,1-2.81-1.43A1,1,0,0,1,910.3,137.45Zm2.28,32.12,4.94,1.33a1.15,1.15,0,0,1,.72.61,33.65,33.65,0,0,0,5.9,7.4A29.37,29.37,0,0,1,912.58,169.57Zm8,2.05c2.64.26,5,.49,7.29.7a.81.81,0,0,1,.78.64,30.1,30.1,0,0,0,3.31,7.91C927,179.34,923.49,176.09,920.6,171.62Zm20.57,9.46a32.93,32.93,0,0,0,2.42-4.94c.29-1,.65-1.91.95-2.88a1.06,1.06,0,0,1,1-.91l7.17-.7A21.68,21.68,0,0,1,941.17,181.08Zm4.35-11.62a79.94,79.94,0,0,0,1.43-9.74c.08-.7.22-1.06,1-1.14a78.83,78.83,0,0,0,8.91-1.22c.76-.17,1,0,.8.78a39.66,39.66,0,0,1-3.32,10.52c-.21.39-.37.76-.92.84-2.37.31-4.73.68-7.1,1C945.4,170.69,945.34,170.22,945.52,169.46Zm3.67,9.47c1-1.19,2.19-2.15,3.07-3.41a11.32,11.32,0,0,0,1.43-2c1.23-3.1,4.15-3,6.92-3.89A29.2,29.2,0,0,1,949.19,178.93ZM965,161.69c-.27.75-.65,1.48-.88,2.26-1.13,3.66-4.43,3.91-7.5,4.88.55-1.76,1.21-3.27,1.7-4.86a48.73,48.73,0,0,0,1.35-6.16,1.45,1.45,0,0,1,1.23-1.4,20.65,20.65,0,0,0,5.63-2.21A26.45,26.45,0,0,1,965,161.69Zm.72-9.36a17.51,17.51,0,0,1-5,2.21c-.78.25-.76-.33-.76-.84,0-1.67,0-3.33,0-5a27.17,27.17,0,0,0-.44-4.12c-.12-.74-.39-1.1-1.18-1s-.83.63-.71,1.27a43.67,43.67,0,0,1,.51,9.21,1.15,1.15,0,0,1-1.09,1.3c-3,.58-6,1-9,1.32-.28,0-.59.08-.74-.25s.06-1-.38-.9a4.74,4.74,0,0,0-1.51.69c-1.27.66-2.38,1.93-4.06.95-.43-.25-.75.08-.75.5,0,.57.14,1.18.91,1.19.93,0,1.86,0,2.79,0,.64,0,.84.2.8.86a67.2,67.2,0,0,1-1.46,9.86c-.19.85-.57,1.15-1.41,1.11a26.45,26.45,0,0,0-2.67.07c-.4,0-.77,0-1,.52-.47,1.31-.42,1.43,1,1.43a16,16,0,0,0,2.08-.1c.88-.12,1.28,0,.89,1a20.88,20.88,0,0,1-3.15,6.4c-1.78,2.18-3.71,2.16-5.42-.06a23.27,23.27,0,0,1-3.16-6.54c-.28-.82.11-.88.76-.86,1.19,0,2.39,0,3.59,0,0-.11.08-.22.11-.34a3.33,3.33,0,0,1-2.84-1.36,1,1,0,0,0-.79-.21c-1.43.23-1.8-.56-2-1.77-.31-1.92-.77-3.81-1-5.75,0-.47.22-1.28-.57-1.24s-1.08.71-1.18,1.37a4.43,4.43,0,0,0,.08,1.45c.26,1.6.5,3.21.85,4.8.18.88-.17,1-.87.88q-3.37-.51-6.75-1a1.6,1.6,0,0,1-1.36-1.05,33.07,33.07,0,0,1-1.63-4.06c-.14-.46-.27-1-1-.69s-1.17.45-.85,1.29c.45,1.17.88,2.36,1.32,3.54a8.23,8.23,0,0,1-7.56-4.91,30.58,30.58,0,0,1-2.22-8.32c0-.31-.25-.69.08-.9s.51.15.77.23c.44.12.94.95,1.31.23.28-.57.59-1.46-.5-1.93a2.92,2.92,0,0,1-1.83-3.43,38,38,0,0,1,1.8-8.17c.32-.94.76-1.1,1.58-.51a9.62,9.62,0,0,0,3.06,1.47c.82.25,1.15.59.87,1.48a8.71,8.71,0,0,0-.34,2c0,.39-.39,1.08.3,1.07a1.53,1.53,0,0,0,1.61-1.05c.14-.55.13-1.13.24-1.68.07-.3,0-.75.44-.79,1.08-.08.76-.91.6-1.34a4,4,0,0,1,.23-3A40.24,40.24,0,0,1,921,131.2a1.26,1.26,0,0,1,1.49-.64c1.64.31,3.29.56,4.94.72.81.08.91.35.76,1.08-.09.38-.59,1,.14,1.22s1.48.06,1.62-.72c.24-1.37,1.12-1.33,2.14-1.25a68.14,68.14,0,0,0,9.37,0c1.2-.09,1.72.35,1.91,1.44.12.68.27,1.35.45,2,.11.38,0,1,.75.81s1.31-.36,1.08-1.3c-.2-.79-.31-1.59-.52-2.38-.15-.57,0-.78.59-.85,1.69-.2,3.38-.43,5.06-.74a1.36,1.36,0,0,1,1.58.73,26.29,26.29,0,0,1,2.58,4.82,1.13,1.13,0,0,0,1.27.84,4.46,4.46,0,0,0,.51-.07c.32-.06.44-.21.46-.38a1.68,1.68,0,0,0-.26-.77,49,49,0,0,0-2.29-4.44c-.25-.39-.88-.75-.46-1.35a3,3,0,0,1,2.62-.4,30.11,30.11,0,0,1,6.2,7.92c.12.22.25.46,0,.68-.81.88.09,1.33.55,1.58a2.35,2.35,0,0,1,1.08,1.36,29.67,29.67,0,0,1,1.94,9.25A2.19,2.19,0,0,1,965.67,152.33Z"/><path class="cls-2" d="M820.31,143.75A39.65,39.65,0,1,0,860,183.4,39.65,39.65,0,0,0,820.31,143.75Zm0,71.4a31.75,31.75,0,1,1,31.75-31.75A31.74,31.74,0,0,1,820.31,215.15Z"/><text class="cls-12" transform="translate(692.52 402.93)">CENTER <tspan x="-422.88" y="80.36">FOR RESEARCH TRANSPORT ISSUES</tspan></text></svg>