<svg id="Layer_1" data-name="Layer 1" xmlns="http://www.w3.org/2000/svg" viewBox="0 0 1646 553"><defs><style>.cls-1,.cls-9{fill:#fff;}.cls-2{fill:#008fc0;}.cls-3{fill:#fd9000;}.cls-4{fill:#2980bf;}.cls-5{fill:#008037;}.cls-6{fill:#ff9000;}.cls-7{fill:#ff001a;}.cls-8{fill:#ff0016;}.cls-9{font-size:68.73px;font-family:Poppins-SemiBold, Poppins;font-weight:600;letter-spacing:-0.02em;}</style></defs><polygon class="cls-1" points="891.88 283.1 881.9 201.01 938.11 147.9 940 149.9 884.8 202.06 894.61 282.77 891.88 283.1"/><rect class="cls-1" x="865.8" y="202.3" width="2.75" height="89.06" transform="translate(19.65 554.43) rotate(-35.84)"/><path class="cls-1" d="M894.64,284.82H743.17L696.36,148.23l122.76-85,121.9,85Zm-149.5-2.75H892.66l45.09-132.76L819.11,66.6,699.64,149.31Z"/><polygon class="cls-1" points="892.64 284.17 819.31 248.24 747.17 284.16 745.95 281.7 819.3 245.18 893.85 281.7 892.64 284.17"/><polygon class="cls-1" points="701.05 150.24 700.46 147.56 780.17 129.92 819.06 62.25 861.66 129.91 939.36 147.56 938.75 150.24 859.94 132.34 819.17 67.59 781.95 132.34 781.36 132.47 701.05 150.24"/><polygon class="cls-1" points="747.93 283.1 745.2 282.77 755.01 202.06 699.81 149.9 701.7 147.9 757.91 201.01 747.93 283.1"/><circle class="cls-1" cx="756.46" cy="201.54" r="7"/><circle class="cls-2" cx="781.06" cy="131.13" r="7"/><circle class="cls-1" cx="860.8" cy="131.13" r="7"/><line class="cls-1" x1="785.18" y1="171.63" x2="698.14" y2="148.9"/><rect class="cls-1" x="740.28" y="115.28" width="2.75" height="89.96" transform="translate(399.2 837.37) rotate(-75.36)"/><rect class="cls-1" x="853.5" y="158.64" width="87" height="2.75" transform="translate(-11.12 234.38) rotate(-14.8)"/><line class="cls-1" x1="743.95" y1="282.93" x2="798.31" y2="209.06"/><rect class="cls-1" x="725.27" y="244.62" width="91.72" height="2.75" transform="translate(115.85 721.15) rotate(-53.64)"/><rect class="cls-1" x="817.93" y="103.35" width="2.75" height="43.26"/><path class="cls-1" d="M794.62,170.87h13.67v3.67h-4.47V191.4h-4.73V174.54h-4.47Z"/><path class="cls-1" d="M810.86,170.87h4.71v16.8h6.71v3.73H810.86Z"/><path class="cls-1" d="M824.52,170.87h6.63l3.67,13.75,3.73-13.75h6.68V191.4h-4.17V174.32l-4.8,17.08h-2.91l-4.86-17.05V191.4h-4Z"/><circle class="cls-3" cx="819.45" cy="65.77" r="42.27"/><circle class="cls-2" cx="939.06" cy="148.9" r="42.27"/><circle class="cls-4" cx="893.25" cy="282.93" r="42.27"/><circle class="cls-4" cx="743.95" cy="282.93" r="42.27"/><circle class="cls-5" cx="698.14" cy="148.9" r="42.27"/><circle class="cls-6" cx="883.35" cy="201.54" r="7"/><circle class="cls-1" cx="859.6" cy="236.32" r="7"/><circle class="cls-1" cx="779.86" cy="235.47" r="7"/><circle class="cls-1" cx="756.11" cy="164.21" r="7"/><circle class="cls-7" cx="883.35" cy="164.21" r="7"/><circle class="cls-8" cx="819.3" cy="120.1" r="7"/><circle class="cls-6" cx="819.3" cy="248.19" r="7"/><path class="cls-1" d="M676.16,149.6a4.84,4.84,0,0,0,1.21-.17,7.91,7.91,0,0,0,2.6-1,4.35,4.35,0,0,0,1.7-1.83,2.66,2.66,0,0,0,.27-1.64,3.67,3.67,0,0,0-1.05-2,5.9,5.9,0,0,0-1.21-.89,6.9,6.9,0,0,0-1.33-.59,14.23,14.23,0,0,0-1.85-.44,1.13,1.13,0,0,0-1.29.67,2,2,0,0,0-.07.88c0,.23,0,.29-.29.29-1,0-2.07,0-3.1,0a.61.61,0,0,0-.63.69.58.58,0,0,0,.63.61h3.18c.14,0,.21,0,.21.2,0,.63,0,1.27,0,1.9,0,.14,0,.18-.18.18l-1.08,0c-.69,0-1.38,0-2.07,0a.68.68,0,0,0-.44.14.74.74,0,0,0-.2.84.7.7,0,0,0,.63.36h3.06c.24,0,.3.07.28.29a4.69,4.69,0,0,0,0,.53A1,1,0,0,0,676.16,149.6Z"/><path class="cls-1" d="M673.73,138.17a3.79,3.79,0,0,1,2.24,1.32c.26.3.47.64.72.95s.34.37.61.3.35-.47.07-.78-.75-.85-1.18-1.22A3.4,3.4,0,0,0,675,138a16.36,16.36,0,0,1-2.24-.95,12,12,0,0,1-2-1.18,6.84,6.84,0,0,1-1.55-1.44c.41.32.82.66,1.26.94a14.39,14.39,0,0,0,4.17,1.78c.79.22,1-.29,1-.77a9,9,0,0,0-.41-1.83,3.8,3.8,0,0,0-1.31-1.73,4.68,4.68,0,0,0-2-.78,18,18,0,0,0-1.94-.24c-.69,0-1.38-.12-2.07-.18a9,9,0,0,1-1.78-.3,5.87,5.87,0,0,1-1.49-.68,9.36,9.36,0,0,0,.57,2.8,6.69,6.69,0,0,0,2,2.9,7.28,7.28,0,0,0,4,1.57C672.11,138,672.93,138,673.73,138.17Z"/><path class="cls-1" d="M724.85,150.9a5.52,5.52,0,0,0-1.86-1.53A15.71,15.71,0,0,0,718.7,148c-.69-.17-1.38-.28-2.07-.46a12.41,12.41,0,0,1-2.45-.83,15,15,0,0,1-3.08-2.14c-.4-.48-.88-.86-1.32-1.31a27.83,27.83,0,0,0-2.47-2.39,10,10,0,0,0-1.39-1.06,2,2,0,0,0-.51-.34l-.07-.05-.22-.14h0a.71.71,0,0,0-.26-.16c-.22-.11-.45-.26-.67-.37a16.83,16.83,0,0,0-1.57-.67,13.57,13.57,0,0,0-2.41-.63,2.83,2.83,0,0,0-.75-.14c-.47-.08-.92-.12-1.38-.16a10.38,10.38,0,0,0-1.57,0c-.52,0-1,0-1.56,0s-1.28.11-1.91.22c-1.15.18-2.29.4-3.43.66l-.4.08a0,0,0,0,0,0,0s-.08,0-.13,0l-2.49.59c-.88.21-1.78.42-2.68.56-.48.08-1,.18-1.46.28h-.25a15,15,0,0,1-2.1.18h-1.61a.44.44,0,0,0-.35.13.65.65,0,0,0,.25,1.12,8.09,8.09,0,0,1,2.65,1.46,5.94,5.94,0,0,1,1,1.28,3.12,3.12,0,0,1,.13,2.92,5.07,5.07,0,0,1-2.36,2.39,9.32,9.32,0,0,1-2.69.92,2.21,2.21,0,0,1-1.69-.13c-.09-.06-.11,0-.11.08a8.07,8.07,0,0,0,0,2.25,5.78,5.78,0,0,0,1.65,3.32.74.74,0,0,0,.74.25.72.72,0,0,0,.46-.59,5.51,5.51,0,0,1,.55-1.41,7.06,7.06,0,0,1,2.63-2.79,6.39,6.39,0,0,1,2.81-1,5.35,5.35,0,0,1,.89-.08,11.09,11.09,0,0,1,1.17.09,7.56,7.56,0,0,1,2.55.87A6.2,6.2,0,0,1,691,153a7.71,7.71,0,0,1,1.06,3.23.9.9,0,0,0,.89.85c1.46,0,2.92,0,4.38,0a.1.1,0,0,0,.07,0h8a.68.68,0,0,0,.64-.66,6.41,6.41,0,0,1,.65-2.42,9.31,9.31,0,0,1,1.1-1.7,7.92,7.92,0,0,1,1.22-1.09,7.8,7.8,0,0,1,2-1,7.66,7.66,0,0,1,1.25-.24,6,6,0,0,1,2.24.08,8.7,8.7,0,0,1,1.86.64c0,.06.08.08.13.1a6.82,6.82,0,0,1,1.53,1.1,7.6,7.6,0,0,1,1.2,1.57,6.9,6.9,0,0,1,.91,2.73.61.61,0,0,0,.61.58,3.92,3.92,0,0,0,1.13-.23,5.31,5.31,0,0,0,2-1.1,4.46,4.46,0,0,0,1.45-2.09A2.66,2.66,0,0,0,724.85,150.9Zm-22.19-5.46c-2.26,3.18-4.52,6.34-6.78,9.53,0-.16.06-.27.09-.41a.12.12,0,0,0,0-.1v-.07s0,0,0,0,0,0,0-.05h0a6.51,6.51,0,0,0,.23-.71v-.09c0-.07,0-.13.06-.16s0,0,0,0a.35.35,0,0,0,.08-.22v0a6.33,6.33,0,0,1,.3-1l.2-.65a.83.83,0,0,1,0-.12c.23-.74.47-1.46.69-2.18.12-.3.2-.61.29-.91,0-.13,0-.21-.13-.2l-1.82.13a6.46,6.46,0,0,0-.89,0c-.11,0-.14,0-.11-.14l.72-3.34c.24-1.11.52-2.21.74-3.32.06-.34.31-.24.48-.27.39,0,.79-.07,1.17-.13v0h0v0l0,0h.05a.58.58,0,0,0,.36,0h.25a2.33,2.33,0,0,0,.53-.06c.13,0,.27,0,.4,0a.24.24,0,0,0,.13-.05c.45,0,.88-.1,1.36-.11a5.44,5.44,0,0,1-.46.9c-.35.67-.72,1.33-1.08,2s-.64,1.19-1,1.78c-.07.15-.1.21.11.21.86,0,1.73-.08,2.58-.11a6.41,6.41,0,0,0,1.24-.08s0,0,0,0S702.66,145.41,702.66,145.44Z"/><path class="cls-1" d="M718.24,154.68a5.63,5.63,0,0,0-1.56-2,5.08,5.08,0,0,0-1.88-1,5.35,5.35,0,0,0-.69-.17,5.29,5.29,0,0,0-2.24,0,5.5,5.5,0,0,0-3,1.72,5.79,5.79,0,0,0-1.27,2.27,5.49,5.49,0,0,0-.15,2.25,5.74,5.74,0,0,0,.68,2,5.27,5.27,0,0,0,1.17,1.46,6.14,6.14,0,0,0,1.14.8.76.76,0,0,1,.22.11,5.25,5.25,0,0,0,1.88.5,5.66,5.66,0,0,0,5.85-3.64,5.27,5.27,0,0,0,.32-2.46A5.82,5.82,0,0,0,718.24,154.68ZM712.45,160a5.77,5.77,0,0,1-1.14-.42h0c0-.11-.09-.16-.16-.24a2.86,2.86,0,0,1-1-2.88,3,3,0,0,1,3.32-2.36.41.41,0,0,0,.27,0h0a1.66,1.66,0,0,0,.54.14s0,.05.05.05h0c0,.1.14.13.22.18a3,3,0,0,1,1.56,2.36A3,3,0,0,1,712.45,160Z"/><path class="cls-1" d="M690.52,155.76a5.73,5.73,0,0,0-2.13-3.24,2.73,2.73,0,0,0-.92-.53.14.14,0,0,0-.09-.05,1,1,0,0,0-.39-.16,4.81,4.81,0,0,0-1.91-.37,6.3,6.3,0,0,0-.75.05,5.39,5.39,0,0,0-2.73,1.07,5.53,5.53,0,0,0-2.26,4.69,5.49,5.49,0,0,0,.67,2.48,5.65,5.65,0,0,0,2.25,2.27c.09.09.22.09.32.14a5.63,5.63,0,0,0,7.63-2.87A5.22,5.22,0,0,0,690.52,155.76Zm-4.17,4a3.17,3.17,0,0,1-2.66,0c-.07,0-.15-.09-.23-.06s0,0,0,0a4.24,4.24,0,0,1-1.1-1.17,2.94,2.94,0,0,1,.63-3.7,2.67,2.67,0,0,1,1.49-.71,3.78,3.78,0,0,1,1.3,0l0,0c0,.1.11.1.17.11a3,3,0,0,1,.39,5.54Z"/><path class="cls-1" d="M676.85,138.79a1.18,1.18,0,0,0,.23-.27,2.4,2.4,0,0,1,2.06-1.14,6,6,0,0,0,1.82-.32,3.54,3.54,0,0,0,1.22-.78,3.58,3.58,0,0,0,1-1.67,5,5,0,0,0,.2-1.16h-.07a4.26,4.26,0,0,1-2,.56,17,17,0,0,0-1.75.19,2.22,2.22,0,0,0-1.61,1,3.18,3.18,0,0,0-.37,1.25c-.07.44.17.63.55.52a9.19,9.19,0,0,0,1.33-.48,6.37,6.37,0,0,0,1.15-.69.47.47,0,0,1-.19.25,9.4,9.4,0,0,1-2.53,1.37,3,3,0,0,0-1.27,1.14.2.2,0,0,0,.05.29A.19.19,0,0,0,676.85,138.79Z"/><path class="cls-1" d="M835.63,82.14q-2-7.56-4-15.11l-.33.14a2.19,2.19,0,0,1-1.63,0,23.76,23.76,0,0,1-8.33-5.08h0a1.51,1.51,0,0,1,0,.3c0,.38-.12.43-.42.43q-1.2,0-2.4,0c-.34,0-.47-.09-.44-.46.07-1.36.1-2.74.15-4.11l0,0c0-.17,0-.34,0-.51a12.69,12.69,0,0,1-1-5.11c.05-2.45,0-4.91,0-7.37h-3.79q-1.69,6.49-3.41,13-3.48,13.29-7,26.58a1.17,1.17,0,0,0,0,.46h14.1c0-1,.09-2,.11-3,0-.25.1-.34.35-.34h4.16c.27,0,.36.09.38.34,0,1,0,2,.08,3h14.12A23.19,23.19,0,0,0,835.63,82.14ZM821.45,77c-1.17,0-2.35,0-3.54,0-.31,0-.41-.09-.39-.41q.19-4.2.35-8.4c0-.34.12-.44.44-.43,1,0,1.91,0,2.84,0,.32,0,.44.09.46.43,0,1.41.1,2.83.17,4.24h0c.07,1.36.1,2.72.19,4.06C822,76.87,821.86,77,821.45,77Z"/><path class="cls-1" d="M844.81,46.35c0-1.62,0-3.25,0-4.87a2,2,0,0,0-2-2.27c-.9-.14-1.82-.24-2.7-.46a19.47,19.47,0,0,1-6.13-3,2.2,2.2,0,0,0-2.85,0,20.67,20.67,0,0,1-3.56,2,16.44,16.44,0,0,1-5.55,1.4,1.76,1.76,0,0,0-1.65,1.56,3,3,0,0,0,0,.42c0,.21,0,.41,0,.61,0,2.26,0,4.52,0,6.78v1.08a12.38,12.38,0,0,0,.17,2.31c0,.09,0,.15,0,.22a10.94,10.94,0,0,0,.37,1.39c.06.14.11.27.16.41a12.21,12.21,0,0,0,3,4.4,21.35,21.35,0,0,0,6.44,4.19l.06,0c.39.17.8.33,1.21.48a2.07,2.07,0,0,0,.58.15,1.89,1.89,0,0,0,.93-.12l.24-.1c.9-.37,1.78-.76,2.63-1.19a18.4,18.4,0,0,0,5.12-3.66,13.9,13.9,0,0,0,2.36-3.14,8.78,8.78,0,0,0,1-3.06A40.79,40.79,0,0,0,844.81,46.35Zm-4.31,8.12a13,13,0,0,1-1.44,1.75,15.38,15.38,0,0,1-4,2.88c-.72.38-1.46.72-2.23,1l-.25,0v-10c0-.2,0-.41,0-.61a1,1,0,0,0-.58,0l-.83,0H827c-1.07,0-2.16,0-3.23,0-.49,0-.61-.14-.59-.61,0-1.22,0-2.45,0-3.67,0-.44,0-.9,0-1.36V42.5c0-.3.07-.46.39-.49a19.8,19.8,0,0,0,8.54-3.36l.24-.14h.1c.1.09,0,.21,0,.31V49.17c0,.14,0,.27,0,.41a.36.36,0,0,1,.27-.08h8.52c.46,0,.51.15.52.56A7.07,7.07,0,0,1,840.5,54.47Z"/><path class="cls-1" d="M811.92,45.26h-1.83c-.05.15-.1.32-.16.47L796,79.7q-1.12,2.74-2.27,5.47c0,.22.2.09.3.09h4.57a16.11,16.11,0,0,1,.73-2.36q6.25-18.76,12.52-37.51A.59.59,0,0,1,811.92,45.26Z"/><path class="cls-1" d="M845.54,84.77q-4.21-10.27-8.42-20.55a23.43,23.43,0,0,1-2.7,1.57q3.17,9.48,6.32,18.94c.06.18.17.34.12.54h4.57c.1,0,.27.13.31-.09S845.59,84.9,845.54,84.77Z"/><path class="cls-1" d="M891.53,300.18a11.45,11.45,0,0,0,.62-1.34,6.62,6.62,0,0,0,.4-1.43,3,3,0,0,0,0-1.2,1.48,1.48,0,0,0-.12-.29,1.13,1.13,0,0,0-1-.63,2,2,0,0,0-1.39.39,4.94,4.94,0,0,0-.88.89,7.48,7.48,0,0,0-.5.71l-.07.09a.3.3,0,0,1,0-.1,5.12,5.12,0,0,0,.34-1.07,3.13,3.13,0,0,0,0-1.18,1.41,1.41,0,0,0-1.15-1.06,2,2,0,0,0-1.3.24,3.38,3.38,0,0,0-1,.9l-.22.29s0-.06,0-.08a3.74,3.74,0,0,0,.24-1.14,1.48,1.48,0,0,0-1.16-1.6,1.93,1.93,0,0,0-1.6.26,4.47,4.47,0,0,0-1,.89,5.58,5.58,0,0,0-.51.69s0,0-.06.07l0,0c-.59-.56-1.23-1.07-1.86-1.57-.83-.65-1.67-1.29-2.51-1.92a.66.66,0,0,0-.27-.12l-1.64-.4c-.1,0-.1,0-.09-.13,0-.45.08-.89.14-1.34a18.88,18.88,0,0,1,.59-2.66,18.4,18.4,0,0,1,3.22-6.13,14.12,14.12,0,0,1,1.34-1.45.2.2,0,0,1,.23-.05l1.45.44a1.84,1.84,0,0,0,.41.06,5.13,5.13,0,0,1,1.39.28,2.89,2.89,0,0,1,.94.52c.16.14.12.11,0,.23L883,281.59a1.93,1.93,0,0,0-.51.8,2.62,2.62,0,0,0,0,1.39,1.67,1.67,0,0,0,.72,1,3,3,0,0,0,1.22.47,4.45,4.45,0,0,0,2.62-.34.66.66,0,0,0,.17-.12c.77-.6,1.53-1.19,2.29-1.8a3.52,3.52,0,0,1,1.3-.64,5,5,0,0,1,1.59-.14,7.41,7.41,0,0,1,2.53.59,8.9,8.9,0,0,1,1.45.8c.61.42,1.24.82,1.85,1.23,2.79,1.86,5.57,3.72,8.3,5.68.88.63,1.77,1.28,2.61,2,.25.21.49.41.72.64a1.79,1.79,0,0,1,.52,1.45,2.08,2.08,0,0,1-.24.74,2.42,2.42,0,0,1-.45.6,1.52,1.52,0,0,1-.87.42,1.94,1.94,0,0,1-1.06-.18,3.7,3.7,0,0,1-.43-.25s0-.05-.09-.05,0,.06,0,.09a1.68,1.68,0,0,1,.3,1.3c0,.17,0,.33-.07.49a2.28,2.28,0,0,1-.68,1.18,2.9,2.9,0,0,1-.71.49,1.57,1.57,0,0,1-.71.16,3.92,3.92,0,0,1-1.62-.3.28.28,0,0,0-.13,0s0,.07,0,.11a2.13,2.13,0,0,1,0,1.2,2.3,2.3,0,0,1-1.1,1.31,2,2,0,0,1-.76.21,3.45,3.45,0,0,1-1.56-.19l-.06,0h0a.16.16,0,0,0,0,.1,1.78,1.78,0,0,1-.54,1.91,2.24,2.24,0,0,1-1.3.53,3.16,3.16,0,0,1-1.26-.18,7.34,7.34,0,0,1-1.48-.68,15.51,15.51,0,0,1-1.54-1l-.08-.07s0,0,0-.07a.43.43,0,0,1,0-.07,5.64,5.64,0,0,0,.58-1.15,3.09,3.09,0,0,0,.19-.95,1.41,1.41,0,0,0-.07-.54,1.06,1.06,0,0,0-.86-.73,1.13,1.13,0,0,0-.63,0,3,3,0,0,0-.91.52,5.58,5.58,0,0,0-.61.58A.24.24,0,0,1,891.53,300.18Z"/><path class="cls-1" d="M889.84,277.4l.54,0c.54,0,1.08,0,1.62,0l1.3,0c.36,0,.73-.05,1.09-.09l.38-.07a3.34,3.34,0,0,1,1.18-.06,5.87,5.87,0,0,1,1.91.58c.77.37,1.56.7,2.35,1,1.24.52,2.48,1,3.73,1.52a5,5,0,0,0,1.07.28,4.29,4.29,0,0,0,.8,0,2.69,2.69,0,0,0,1.6-.52,10.69,10.69,0,0,0,.89-.75l.16-.15a.07.07,0,0,1,.11,0l.53.41a11.06,11.06,0,0,1,2.34,3,13.46,13.46,0,0,1,1.39,3.9,16.45,16.45,0,0,1,.26,1.83c0,.4.06.8.06,1.19,0,.1,0,.1-.08.1a5,5,0,0,0-2.22.56,5.42,5.42,0,0,0-1.61,1.24c-.07.07-.07.08-.16,0L905.56,289l-2-1.35-3.27-2.2-3.13-2.11-1.24-.84A5.12,5.12,0,0,0,895,282a8.05,8.05,0,0,0-1.87-.49,8,8,0,0,0-1.38-.05,6.52,6.52,0,0,0-1.31.22,2.62,2.62,0,0,0-.46.19,7.75,7.75,0,0,0-1.58,1L887,284a2.29,2.29,0,0,1-.56.29,4.09,4.09,0,0,1-1.24.3,2.37,2.37,0,0,1-1.79-.56.9.9,0,0,1-.15-.19,1.68,1.68,0,0,1-.08-1.48.65.65,0,0,1,.16-.21l1.87-1.66,1.83-1.63c.28-.24.55-.49.82-.74a5.5,5.5,0,0,1,.61-.47,1.31,1.31,0,0,1,.6-.21C889.32,277.42,889.58,277.41,889.84,277.4Z"/><path class="cls-1" d="M878.89,277.28a.27.27,0,0,1-.08.1,18.33,18.33,0,0,0-2.2,2.77,21.6,21.6,0,0,0-2.55,5.22,18.76,18.76,0,0,0-.71,3q-.12.74-.18,1.5c0,.6,0,1.21,0,1.82v.06a.12.12,0,0,1-.1,0l-5.28-2.74a.16.16,0,0,1-.09-.18c0-.46.08-.92.13-1.38.08-.65.17-1.29.29-1.92a24,24,0,0,1,1.92-6.15,14.25,14.25,0,0,1,2.21-3.41,11.1,11.1,0,0,1,1.81-1.62l.14-.09a.08.08,0,0,1,.1,0l.06.05,4.47,3Z"/><path class="cls-1" d="M909.05,277.39l.55-.37,3.9-2.69,0,0s.08,0,.13,0,.27.19.4.3a14.28,14.28,0,0,1,2,2,16.11,16.11,0,0,1,2.31,3.58,16.61,16.61,0,0,1,1.11,3.05,18.54,18.54,0,0,1,.44,2.22c.06.42.1.85.13,1.28,0,.68,0,1.36,0,2v0c0,.07,0,.1-.08.13l-.57.27-1.81.86-2.94,1.42-.08,0a.13.13,0,0,1,0-.1q0-.66,0-1.32c0-.47,0-.94-.08-1.41s-.13-1.22-.22-1.83a20.87,20.87,0,0,0-.67-2.94,14.71,14.71,0,0,0-1-2.57A10.78,10.78,0,0,0,911,279a8.59,8.59,0,0,0-1.87-1.52l-.07,0Z"/><path class="cls-1" d="M891.94,297.18a2.88,2.88,0,0,1-.14.87,9.43,9.43,0,0,1-.83,2.12,7.08,7.08,0,0,1-1.17,1.6,2,2,0,0,1-.57.42,1,1,0,0,1-1.24-.28,1.38,1.38,0,0,1-.25-.48,1.91,1.91,0,0,1,0-1.11c0-.22.11-.43.18-.64a7.92,7.92,0,0,1,.82-1.68,7.2,7.2,0,0,1,.73-1,3.39,3.39,0,0,1,1.21-.91A1.09,1.09,0,0,1,891,296a.81.81,0,0,1,.88.58A2,2,0,0,1,891.94,297.18Z"/><path class="cls-1" d="M884.35,298.84a3,3,0,0,1,.13-.83,9.18,9.18,0,0,1,.86-1.95,4.07,4.07,0,0,1,.86-1,1.78,1.78,0,0,1,.75-.41,1.07,1.07,0,0,1,1.29.65,1.28,1.28,0,0,1,.11.64,4.77,4.77,0,0,1-.16,1.06,8.43,8.43,0,0,1-.45,1.18,5.71,5.71,0,0,1-.83,1.35,2.72,2.72,0,0,1-.65.57,1.25,1.25,0,0,1-1.23.08,1.08,1.08,0,0,1-.64-.86A2.15,2.15,0,0,1,884.35,298.84Z"/><path class="cls-1" d="M884.81,294.58a3.36,3.36,0,0,1-.46,1.61,3.58,3.58,0,0,1-.68.88,1.76,1.76,0,0,1-1.17.5,1.2,1.2,0,0,1-1.21-1,2.58,2.58,0,0,1,0-.68,3.46,3.46,0,0,1,.5-1.41,3.6,3.6,0,0,1,1.13-1.1,1.25,1.25,0,0,1,.46-.15,1.23,1.23,0,0,1,.66,0,1.07,1.07,0,0,1,.68.71.83.83,0,0,1,.06.21C884.81,294.34,884.8,294.45,884.81,294.58Z"/><path class="cls-1" d="M894.2,300.3a1.75,1.75,0,0,1-.09.6,7.25,7.25,0,0,1-.79,1.69,4,4,0,0,1-.78,1,1,1,0,0,1-.67.25,1,1,0,0,1-.51-.16.69.69,0,0,1-.27-.45,2.41,2.41,0,0,1,0-.71,3.49,3.49,0,0,1,.29-1,4.53,4.53,0,0,1,1-1.45,1.88,1.88,0,0,1,.61-.48,1.23,1.23,0,0,1,.82-.1.5.5,0,0,1,.37.32,1.17,1.17,0,0,1,0,.2A1.46,1.46,0,0,1,894.2,300.3Z"/><g id="o3SyUi.tif"><path class="cls-1" d="M891.71,275.94l-1.62,0c-.18,0-.36,0-.54,0l-.78,0a1.33,1.33,0,0,0-.6.22,5.5,5.5,0,0,0-.61.47c-.28.24-.54.49-.82.74l-1.31,1.16c-.36-.14-.46-.45-.46-1.11q0-5.61,0-11.21a1,1,0,0,1,.7-1.11h.87a19.92,19.92,0,0,1,2.53.52,6.66,6.66,0,0,1,3.58,2.6,1.2,1.2,0,0,1,.22.68v6.95Z"/><path class="cls-1" d="M902,277.6a1.52,1.52,0,0,1-.06.51l-2-.83c-.79-.33-1.58-.66-2.35-1a5.85,5.85,0,0,0-1.91-.57,3.59,3.59,0,0,0-1.18.05l-.38.07h0c0-2.23,0-4.48,0-6.72a1.46,1.46,0,0,1,.28-.88,6.92,6.92,0,0,1,4.49-2.78c.52-.11,1-.18,1.57-.27h.87a1,1,0,0,1,.7,1.11Q902,271.93,902,277.6Z"/><path class="cls-1" d="M883.81,278.27a3.83,3.83,0,0,0-.58-.27,5,5,0,0,0-.87-.21v-9.25a1.05,1.05,0,0,1,.48-.54c.59-.26.9-.08.9.55v9A3.17,3.17,0,0,0,883.81,278.27Z"/><path class="cls-1" d="M904.59,268.85v10.21a4.2,4.2,0,0,1-.94-.25l-.57-.23a2.53,2.53,0,0,0,.13-.8q0-4.61,0-9.23c0-.2-.15-.48.12-.61a1,1,0,0,1,1.1.34A1,1,0,0,1,904.59,268.85Z"/></g><g id="_7Bt7F9.tif" data-name="7Bt7F9.tif"><path class="cls-1" d="M745.45,294.08l1.58,1.59a.42.42,0,0,1,.15.35c0,.43,0,.87,0,1.3,0,.17,0,.24-.22.23-.44,0-.89,0-1.34,0a.45.45,0,0,1-.32-.14c-1-1.08-2.11-2.15-3.17-3.23a.45.45,0,0,0-.35-.15q-1.54,0-3.09,0a.44.44,0,0,0-.32.13c-1.06,1.09-2.12,2.16-3.19,3.25a.4.4,0,0,1-.33.14h-1.36c-.13,0-.18,0-.18-.17q0-.72,0-1.44a.3.3,0,0,1,.12-.24l1.43-1.44.16-.17a8.56,8.56,0,0,1-1.16-.14,5.17,5.17,0,0,1-4-5.07q0-6.06,0-12.12a5.16,5.16,0,0,1,4.25-5.12,5,5,0,0,1,1-.09h10.24a5.18,5.18,0,0,1,5.16,4.1,5.28,5.28,0,0,1,.12,1.19v12a5.2,5.2,0,0,1-4,5.14A5.74,5.74,0,0,1,745.45,294.08Zm-5.2-8.66H747c.17,0,.23,0,.23-.22q0-5,0-10c0-.18-.06-.21-.23-.21H733.53c-.18,0-.22.05-.22.22,0,3.32,0,6.64,0,9.95,0,.2.06.23.24.23Zm-3.47,3.46a1.73,1.73,0,1,0-1.74,1.74A1.75,1.75,0,0,0,736.78,288.88Zm10.39,0a1.73,1.73,0,1,0-1.73,1.74A1.74,1.74,0,0,0,747.17,288.88Z"/><path class="cls-1" d="M742.09,262a2.51,2.51,0,0,1-.73,1.77l-5.88,5.89a.43.43,0,0,1-.35.12,6.9,6.9,0,0,0-6.57,4.49,6.58,6.58,0,0,0-.44,2.56.49.49,0,0,1-.15.36l-5.5,5.49a.34.34,0,0,0-.12.34c.18,1.26.35,2.53.53,3.79a.5.5,0,0,1-.16.5c-.5.49-1,1-1.47,1.49-.13.13-.18.12-.26,0q-1.41-2.57-2.84-5.13a.75.75,0,0,0-.3-.31l-5.15-2.84c-.17-.1-.16-.15,0-.28q.8-.78,1.56-1.59a.27.27,0,0,1,.27-.09l4,.59a.31.31,0,0,0,.3-.1q3.21-3.23,6.44-6.43c.14-.14.09-.18,0-.26l-12.5-6.56c-.15-.09-.18-.12,0-.26.73-.71,1.45-1.42,2.16-2.14a.32.32,0,0,1,.35-.11l10.45,2.42c1.71.39,3.43.78,5.14,1.19.14,0,.21,0,.29-.13l6.61-6.6a2.6,2.6,0,0,1,3.41-.21A2.69,2.69,0,0,1,742.09,262Z"/></g><g id="nVTTIy.tif"><path class="cls-1" d="M763.62,297.06c0,.39-.11.52-.5.52-4.3,0-8.59,0-12.88,0a.51.51,0,0,1-.56-.38,6.4,6.4,0,0,0-1.34-2.12l.07,0a5.17,5.17,0,0,0,4-5.13V278a5.79,5.79,0,0,0-.11-1.17h9.54a2.33,2.33,0,0,1,1.79,2.38C763.62,285.13,763.61,291.09,763.62,297.06Z"/><path class="cls-1" d="M773.93,284a2.25,2.25,0,0,0-2-1.06q-3,0-6,0c-.53,0-.68.14-.67.68,0,3.6,0,7.2,0,10.81,0,.18-.06.38.08.56a.59.59,0,0,0,.16-.06,5.49,5.49,0,0,1,9,2.42c0,.13.07.24.21.3a3.36,3.36,0,0,0,2.24-.38V289.8A19.74,19.74,0,0,0,773.93,284Zm.34,4.17h-3.15c-1,0-2.1,0-3.15,0-.49,0-.62-.16-.6-.63,0-.92,0-1.84,0-2.76,0-.39.13-.52.52-.51,1.34,0,2.69,0,4,0a.94.94,0,0,1,.83.41,30.56,30.56,0,0,1,1.85,3C774.85,288.16,774.65,288.19,774.27,288.18Z"/><path class="cls-1" d="M773.28,298.21a4.14,4.14,0,1,0-5.17,4.7c.18,0,.39,0,.54.17h1.16c.16-.19.4-.14.6-.2A4.15,4.15,0,0,0,773.28,298.21Zm-4.1,2.64a2,2,0,0,1-1.9-1.89,1.93,1.93,0,0,1,1.91-1.94,1.89,1.89,0,0,1,1.92,1.91A1.92,1.92,0,0,1,769.18,300.85Z"/></g><path class="cls-1" d="M941.07,165.75c-.36.41-.13,1.35-1.11,1.21s-1.91-.33-2-1.58c0-.35-.12-.69.3-.83,1.1-.37,1.64-1.61,2.83-1.81.2,0,.47.3.46.67C940.93,164.09,941.68,165,941.07,165.75Z"/><path class="cls-1" d="M943.44,160a3.36,3.36,0,0,1-.18.39c-.42-.09-1-.06-1.23-.34a1.26,1.26,0,0,1-.14-1.59c.28-.43.7-.43.84,0S942.55,159.77,943.44,160Z"/><path class="cls-1" d="M944.13,162.19a.92.92,0,0,1-.72.88c-.29-.27-.92-.29-.9-.73,0-.64.75-.48,1.16-.66S944.18,161.88,944.13,162.19Z"/><path class="cls-1" d="M950.7,148c-.07.4-.53.51-.88.6s-.54-.18-.47.39c.21,1.79-.33,2.65-2.05,3.23a3.3,3.3,0,0,0-1.78,1.26c-.59-1.42.22-1.94,1.07-2.27,1.26-.48,2.12-1.14,2.09-2.64,0-.84.81-1.5,1.32-1.14C950.25,147.59,950.77,147.59,950.7,148Z"/><path class="cls-1" d="M928.85,152.36a.81.81,0,0,1-.81.82.82.82,0,1,1,0-1.64A.81.81,0,0,1,928.85,152.36Z"/><path class="cls-1" d="M945.72,148.48a4,4,0,0,0-1.87-1.52,8.47,8.47,0,0,0-2.67-.41,19.22,19.22,0,0,0-4.67.17,3.84,3.84,0,0,0-.4.11,1.67,1.67,0,0,1-1.72-.26l.16-.27-.16.27-.44-.28a2.82,2.82,0,0,0-.4.69,3.81,3.81,0,0,0,.51,3.13c.23.4.49.8.75,1.19a12.3,12.3,0,0,1,1.1,1.86c1.16,2.62.72,4.76,0,7.52l-.6-.17c.73-2.71,1.13-4.66.05-7.09a11.93,11.93,0,0,0-1.05-1.77c-.26-.4-.53-.81-.77-1.24a6.59,6.59,0,0,1-.45-1,22,22,0,0,0-8.46-1l-.37,0c-1.83.21-3.91.44-5.23-.93a6.59,6.59,0,0,1-.91-1.34,4.46,4.46,0,0,0-1.13-1.48l.13-.19c-.19.14-.38.28-.56.43-.46.36-.14.91.23,1.3a.24.24,0,0,1,.06.23,1.58,1.58,0,0,0-.28.84l.14-.23c.54.31,1.25.64,1.93,1s1.4.66,2,1a5.67,5.67,0,0,0,1.72.74,5.47,5.47,0,0,0,1.83-.12l.81-.13a10.05,10.05,0,0,1,3.25.3c1.51.39,2.43,1.06,2.66,1.94.41,1.58-1.58,3.34-2.76,4.4l-.35.31a11.11,11.11,0,0,1-1.08.86,9.66,9.66,0,0,0-1,.81l-.19-.2a.36.36,0,0,1,0,.21c-.16,1.28.8,2.16,1,3.28.07.32.18.68.59.7s.5-.37.73-.6c.58-.62.11-1.6.56-2.09a11.79,11.79,0,0,1,2.88-2.52c.35-.19.56-.25.8.17s.81.95.78,1.66c0,.26.06.76.4.63,1.14-.42,1,.72,1,1a6.62,6.62,0,0,0,.83,3.56,7.3,7.3,0,0,0-1.21-.84.54.54,0,0,0-.58.1.32.32,0,0,0,0,.45c1.6,1.89,2.38,4.72,5.53,4.83.45,0,1,.67,1.28,0,.16-.46-.73-.35-1-.71-.07-.1-.3-.09-.47-.11-.69-.05-1.51.11-1.48-1,0-.76-1.06-1-.9-1.81a2.34,2.34,0,0,0-.83-2.54c-.41-.33-.9-1.07-.36-1.52s1,.41,1.17.73c.41.75.56.51,1,.06,1.26-1.17,1.36-1.73.25-3.07-.23-.28-.46-.48-.21-.86.17-.23.38-.66.61-.52.84.5,1.32-.22,1.95-.44,2.27-.83,3.05-2.35,2.38-4.63-.08-.23-.3-.49-.09-.7,1.11-1.05.09-1.06-.68-1.18,1-.67,2.13-.31,2.32.69.11.6.17,1.14.94,1,1-.25.47-.87.28-1.39A1.58,1.58,0,0,1,945.72,148.48Zm-3.6-14.75a.82.82,0,1,0,.82.81A.82.82,0,0,0,942.12,133.73Zm-17,2.48a.81.81,0,0,0-.78.58,1.49,1.49,0,0,0,.39.44,4.54,4.54,0,0,0,.82.49h0A.81.81,0,0,0,926,137,.82.82,0,0,0,925.14,136.21Zm1.9,3.48a2.2,2.2,0,0,0-.67-.84c-.3.51-.63,1-1,1.49q.52.18,1,.39c.47.19.82.35,1.15.52s.38.2.56.31h0l.22.14A10.14,10.14,0,0,1,927,139.69Zm6.38,6.27a23.41,23.41,0,0,1-3.86-3,2,2,0,0,1-.77-.25,3.53,3.53,0,0,1-.55-.37,2.65,2.65,0,0,0-.43-.28l0,0-.53-.29c-.32-.16-.66-.31-1.11-.5a10.45,10.45,0,0,0-1.91-.64,12.1,12.1,0,0,0-3.24-.08l0-.62a13,13,0,0,1,3.41.09l.35.09c-.27-.4-.54-.81-.78-1.23a6.59,6.59,0,0,1-.52-1.11,2,2,0,0,1-.14-.68,1.77,1.77,0,0,1,.2-.82h0a6.18,6.18,0,0,1-.17-1.23l-.53-.14c-1.58-.43-2-.08-2.18,1.62,0,.41,0,.84,0,1.25-.15,1.17.56,2.29.23,3.46a2.54,2.54,0,0,0,.17,1.93c.34.68.52,1.25-.68,1.12-.57-.06-1.16-.07-1.73-.17a1.73,1.73,0,0,0-1.07.15,5.43,5.43,0,0,1,1.16,1.58,6.1,6.1,0,0,0,.82,1.21c1.11,1.15,3,.93,4.71.75l.38,0a22.14,22.14,0,0,1,8.31,1,3.45,3.45,0,0,1,.11-2A3.12,3.12,0,0,1,933.42,146Zm8.7-12.23a.82.82,0,1,0,.82.81A.82.82,0,0,0,942.12,133.73ZM934,141.18a.82.82,0,1,0,.82.82A.82.82,0,0,0,934,141.18Zm-4.72,12.9h0a2.74,2.74,0,0,0,1-2.18c-.23-.86-1.49-1.31-2.22-1.5a9.27,9.27,0,0,0-3-.28l-.77.12a5.87,5.87,0,0,1-2,.12,6,6,0,0,1-1.91-.81c-.55-.32-1.26-.65-1.94-1s-1.22-.57-1.75-.86c.15.61.59,1.17.75,1.81-.68.38-2-.61-2,1a1.69,1.69,0,0,0-.59,0c-.71.19-2-.1-2,.47-.21,1.21-.9,2.5-.23,3.76.93,1.75,2.24,3.3,2.8,5.25.15.54.5.55,1,.4a10.47,10.47,0,0,0,3.76-2.16,3.1,3.1,0,0,0,1-1.28c.22-.7-.63-.76-.75-1.21h2.29a6.78,6.78,0,0,1,2.71,1.91,11,11,0,0,1,1-.83,10.8,10.8,0,0,0,1-.81l.36-.32s0,0,0-.05c-.32-.45-.62-.91-.9-1.39a6.59,6.59,0,0,1-.52-1.11,2,2,0,0,1-.14-.68,1.86,1.86,0,0,1,3.67-.39,1.78,1.78,0,0,1-.06,1A6.59,6.59,0,0,1,929.32,154.08Zm36.45-17.65a20.29,20.29,0,0,1-3-1.4,8.53,8.53,0,0,0-1-.4,4.4,4.4,0,0,0-1.32-.21,1.55,1.55,0,0,0-.31,0c-.38.08-.71.27-1,.35a1,1,0,0,1-.29,0c-2.07,0-4-1.13-6-1.12-.21,0-.42-.23-.64-.33-1-.42-2.39-1-3.13-.43-1.15.94-2.46.2-3.51.86a.37.37,0,0,1-.48-.28c-.25-1-.92-1.69-1.56-1.31-1.61,1-3-.74-4.48-.07.3-.54.94-.75.61-1.47s-.89-.44-1.38-.58c-1.43-.41-2.78-.55-4,.53a.71.71,0,0,1-.49.08c-2.17-.49-3.57,1.51-5.52,1.72-.06,0-.12.11-.17.18-.72,1.08-1.67.79-2.55.34-1-.54-1.87-.15-2,1a.92.92,0,0,0,0,.33h.43a8.37,8.37,0,0,0,.06,1.34,1.89,1.89,0,0,1,.77-.36,1.87,1.87,0,0,1,2.19,1.41,1.78,1.78,0,0,1-.06,1,4.24,4.24,0,0,1-.23.59,2.89,2.89,0,0,1,.94,1.13,9.44,9.44,0,0,0,1.59,2.31,21,21,0,0,0,4.63,3.75l0,0c-.36-.51-.7-1-1-1.56a7.53,7.53,0,0,1-.53-1.11,2.22,2.22,0,0,1-.13-.68,1.83,1.83,0,0,1,1.48-1.79,1.85,1.85,0,0,1,2.19,1.4,1.78,1.78,0,0,1-.06,1,6.22,6.22,0,0,1-.47,1.05l-.33.55a3.6,3.6,0,0,0,.45-.58,6.6,6.6,0,0,0,.71-2.17,8.94,8.94,0,0,1,.58-2,4.43,4.43,0,0,1,4.6-2.44c-.14-.22-.28-.45-.41-.68a7.42,7.42,0,0,1-.53-1.1,2,2,0,0,1-.13-.69,1.85,1.85,0,1,1,3.61.58,5.94,5.94,0,0,1-.48,1.06c-.24.44-.51.86-.79,1.27a1.71,1.71,0,0,0,.23.13,4,4,0,0,0,.87.4,4.06,4.06,0,0,0,2-.18l6.81-1.74a11.15,11.15,0,0,1,5.06-.49,8.69,8.69,0,0,1,2.31.91l.9.5c.24.14.48.28.73.41s.51.28.77.4l-.26.57c-.3-.14-.58-.3-.87-.45l-.56-.32h0l-.12-.07a10.44,10.44,0,0,0-3-1.34,10.74,10.74,0,0,0-4.78.48l-6.81,1.75a4.58,4.58,0,0,1-2.29.17,4.48,4.48,0,0,1-1-.46l-.28-.15-.12.17h0L942,138l-.09-.11a3.79,3.79,0,0,0-4.57,1.92,8.65,8.65,0,0,0-.53,1.83,5.53,5.53,0,0,1-1.95,3.71c-.16.16-.32.31-.46.47l.35.21c.66.4.84.34,1.2.21.14,0,.29-.09.48-.13a20,20,0,0,1,4.82-.18,9,9,0,0,1,2.87.45,4.7,4.7,0,0,1,2.17,1.77l-.38.25.16-.06c2.2-.67,2.8-2.42,3.26-4.28.17-.65,0-1.43-1-1.14-.54.14-.62-.07-.42-.5.36-.81,2.26-1.71,3.13-1.89,1.12-.23,2.47.83,3.41-.61.23-.34.66-1.06,1.28-.37s-.25.82-.52,1.07a2.72,2.72,0,0,0-.73,3.45c.11.25.4.55.51.32.54-1,1.85-1.54,2-2.83s.61-1.82,1.87-1.54c1,.21,1.44-.5,2.09-.86s1.69.05,1.6-1.35c0-.65.9-.69,1.53-.46.23.08.41.3.63.4.76.33.92-.51,1.39-.77C966.3,136.83,966,136.49,965.77,136.43Z"/><path class="cls-1" d="M972.34,147.33a32.72,32.72,0,1,0-32.76,33.88A32.69,32.69,0,0,0,972.34,147.33Zm-19.78-26.79a27.69,27.69,0,0,1,5.45,3.28c-1.22.55-2.12.67-3-.49a22.12,22.12,0,0,0-2.66-2.54C952.41,120.71,952.49,120.63,952.56,120.54Zm1.12,4.23a45.94,45.94,0,0,1-5.51.84c-.57.1-.66-.32-.81-.73a26.42,26.42,0,0,0-3.23-6.5A20,20,0,0,1,953.68,124.77Zm-11.43-5.57a18.9,18.9,0,0,1,3,5.83c.28.77-.1.84-.68.84h-10c-.49,0-.91,0-.65-.76a19.43,19.43,0,0,1,3-5.84C938.68,117.24,940.59,117.22,942.25,119.2ZM932,124.85a.93.93,0,0,1-1.18.76c-1.41-.19-2.81-.34-4.21-.55-.58-.08-1.12-.25-.42-1a21,21,0,0,1,9-5.76A22.6,22.6,0,0,0,932,124.85Zm-5.17-4.24c-1.07,1.1-2.15,2.15-3.12,3.33-.77.92-1.49-.09-2.28,0A17.31,17.31,0,0,1,926.84,120.61ZM912.6,133.78a34,34,0,0,1,6.28-8,.84.84,0,0,1,.9-.26l.25,0c2.44.68,2.1.44,1,2.22a32,32,0,0,0-3.62,8.33c-.26,1-.62,1.19-1.55.75a27.06,27.06,0,0,1-2.89-1.47A1,1,0,0,1,912.6,133.78Zm2.35,33,5.07,1.36a1.2,1.2,0,0,1,.73.63,34.35,34.35,0,0,0,6.06,7.59A30.07,30.07,0,0,1,915,166.75Zm8.22,2.1,7.49.72a.83.83,0,0,1,.8.66,31.13,31.13,0,0,0,3.39,8.11C929.76,176.78,926.14,173.44,923.17,168.85Zm21.12,9.71a33.66,33.66,0,0,0,2.48-5.07c.3-1,.67-2,1-3a1.11,1.11,0,0,1,1-.94l7.36-.71A22.32,22.32,0,0,1,944.29,178.56Zm4.46-11.92a82.26,82.26,0,0,0,1.47-10c.08-.72.22-1.09,1.07-1.17a78.43,78.43,0,0,0,9.14-1.26c.78-.17,1,0,.83.8a40.44,40.44,0,0,1-3.41,10.8c-.22.41-.38.78-1,.86-2.43.33-4.85.7-7.28,1.06C948.63,167.9,948.57,167.42,948.75,166.64Zm3.77,9.71c1-1.22,2.24-2.2,3.15-3.49a11.47,11.47,0,0,0,1.47-2c1.27-3.18,4.26-3.1,7.1-4A29.81,29.81,0,0,1,952.52,176.35Zm16.18-17.69c-.28.77-.67,1.52-.91,2.32-1.15,3.76-4.54,4-7.7,5,.57-1.81,1.25-3.36,1.75-5a49.28,49.28,0,0,0,1.38-6.33,1.5,1.5,0,0,1,1.27-1.43,21.53,21.53,0,0,0,5.78-2.26A27.45,27.45,0,0,1,968.7,158.66Zm.73-9.61a17.36,17.36,0,0,1-5.11,2.27c-.8.26-.78-.34-.78-.86,0-1.71,0-3.42,0-5.13a27.37,27.37,0,0,0-.46-4.22c-.12-.76-.4-1.13-1.21-1s-.85.65-.73,1.3a44.71,44.71,0,0,1,.53,9.46,1.18,1.18,0,0,1-1.13,1.33c-3.07.6-6.16,1-9.26,1.36-.29,0-.61.09-.76-.25s.06-1-.39-.93a4.86,4.86,0,0,0-1.55.7c-1.3.68-2.45,2-4.17,1-.44-.26-.77.07-.77.5,0,.59.14,1.21.93,1.23,1,0,1.92,0,2.87,0,.65,0,.87.21.82.88a69,69,0,0,1-1.5,10.12c-.19.88-.58,1.19-1.45,1.14s-1.83,0-2.74.08c-.4,0-.79,0-1,.53-.49,1.35-.43,1.48,1,1.47a16.88,16.88,0,0,0,2.13-.1c.91-.12,1.31,0,.91,1.07a21.63,21.63,0,0,1-3.23,6.57c-1.83,2.24-3.8,2.21-5.56-.07a23,23,0,0,1-3.24-6.71c-.3-.85.11-.9.77-.88,1.23,0,2.46,0,3.69,0,0-.11.08-.23.12-.35a3.41,3.41,0,0,1-2.92-1.4,1.06,1.06,0,0,0-.82-.21c-1.46.23-1.84-.58-2-1.81-.32-2-.78-3.92-1-5.91,0-.48.23-1.31-.57-1.27s-1.11.73-1.22,1.4a4.42,4.42,0,0,0,.09,1.49c.26,1.64.51,3.3.86,4.93.19.9-.16,1-.89.9q-3.46-.51-6.93-1a1.62,1.62,0,0,1-1.39-1.07,34.26,34.26,0,0,1-1.68-4.17c-.14-.47-.27-1-1-.71s-1.2.47-.87,1.33c.46,1.2.9,2.41,1.35,3.63a8.45,8.45,0,0,1-7.76-5,31.74,31.74,0,0,1-2.28-8.54c0-.32-.26-.71.08-.92s.53.15.79.23c.46.13,1,1,1.35.24.29-.58.61-1.5-.51-2a3,3,0,0,1-1.88-3.51,39.3,39.3,0,0,1,1.85-8.39c.33-1,.78-1.13,1.62-.52a9.81,9.81,0,0,0,3.14,1.51c.85.25,1.17.6.89,1.51a9.93,9.93,0,0,0-.35,2.09c0,.4-.39,1.11.31,1.09a1.56,1.56,0,0,0,1.66-1.07c.13-.56.12-1.16.24-1.72.07-.31,0-.77.45-.81,1.11-.08.78-.94.62-1.38a4.06,4.06,0,0,1,.24-3,39.89,39.89,0,0,1,4-8,1.28,1.28,0,0,1,1.53-.66c1.68.32,3.37.58,5.06.74.84.08.94.36.78,1.1-.09.4-.6,1.08.15,1.26s1.51.05,1.66-.74c.25-1.41,1.15-1.36,2.2-1.29a70.19,70.19,0,0,0,9.62,0c1.23-.1,1.76.35,2,1.47.12.7.28,1.39.46,2.08.11.39,0,1,.77.82s1.34-.37,1.1-1.33c-.2-.81-.31-1.63-.53-2.44-.16-.59,0-.8.6-.87,1.74-.2,3.48-.44,5.2-.76a1.38,1.38,0,0,1,1.62.75,27,27,0,0,1,2.65,4.94,1.16,1.16,0,0,0,1.31.87,3.12,3.12,0,0,0,.52-.08c.33-.06.45-.21.47-.38a1.7,1.7,0,0,0-.27-.8,50.19,50.19,0,0,0-2.35-4.55c-.25-.4-.9-.77-.47-1.39a3.17,3.17,0,0,1,2.69-.41,30.94,30.94,0,0,1,6.36,8.13c.13.23.26.48.06.7-.84.9.09,1.37.56,1.62a2.38,2.38,0,0,1,1.11,1.4,30.57,30.57,0,0,1,2,9.49A2.24,2.24,0,0,1,969.43,149.05Z"/><path class="cls-1" d="M820.24,140.25a40.7,40.7,0,1,0,40.7,40.7A40.7,40.7,0,0,0,820.24,140.25Zm0,73.28A32.59,32.59,0,1,1,852.83,181,32.58,32.58,0,0,1,820.24,213.53Z"/><text class="cls-9" transform="translate(689.08 406.27)">CENTER <tspan x="-434.04" y="82.48">FOR RESEARCH TRANSPORT ISSUES</tspan></text></svg>