<svg id="Layer_1" data-name="Layer 1" xmlns="http://www.w3.org/2000/svg" viewBox="0 0 1590 553"><defs><style>.cls-1{fill:#0d3150;}.cls-2{fill:#0c2d4b;}.cls-3{fill:#0e2f48;}.cls-4{fill:#008fc0;}.cls-5{fill:#062d4b;}.cls-6{fill:#fd9000;}.cls-7{fill:#008037;}.cls-8{fill:#ff9000;}.cls-9{fill:#ff001a;}.cls-10{fill:#ff0016;}.cls-11{fill:#fff;}</style></defs><path class="cls-1" d="M165.25,377v7.58H152.77v39.27h-9.4V384.6H130.89V377Z"/><path class="cls-1" d="M196.26,423.87l-10.34-18.26h-4.43v18.26H172.1V377h17.58a20.61,20.61,0,0,1,9.26,1.91,13.37,13.37,0,0,1,5.74,5.17,14.58,14.58,0,0,1-.77,15.64,13.8,13.8,0,0,1-8,5.13l11.21,19Zm-14.77-25.31h7.86q3.83,0,5.7-1.84a6.88,6.88,0,0,0,1.88-5.14,6.57,6.57,0,0,0-1.88-5c-1.25-1.18-3.15-1.78-5.7-1.78h-7.86Z"/><path class="cls-1" d="M243.84,414.94H225.19l-3.09,8.93h-9.87L229.08,377H240l16.85,46.92h-9.94Zm-2.55-7.52-6.78-19.6-6.77,19.6Z"/><path class="cls-1" d="M303.24,423.87h-9.39l-21.28-32.15v32.15h-9.4V377h9.4l21.28,32.22V377h9.39Z"/><path class="cls-1" d="M319.85,422.66a14.5,14.5,0,0,1-6.21-4.83,12.8,12.8,0,0,1-2.35-7.45h10.07a6.54,6.54,0,0,0,2.05,4.56,7.25,7.25,0,0,0,5.07,1.68,7.83,7.83,0,0,0,5.17-1.58,5.13,5.13,0,0,0,1.87-4.13,4.78,4.78,0,0,0-1.27-3.42,8.77,8.77,0,0,0-3.19-2.11,52.17,52.17,0,0,0-5.27-1.72,56,56,0,0,1-7.41-2.65,12.85,12.85,0,0,1-4.9-4,11.22,11.22,0,0,1-2.05-7.08,12.66,12.66,0,0,1,2.08-7.25,13.31,13.31,0,0,1,5.84-4.73,21.33,21.33,0,0,1,8.59-1.64q7.24,0,11.78,3.52a13.06,13.06,0,0,1,5,9.83H334.38a5.37,5.37,0,0,0-2-4,7.74,7.74,0,0,0-5.07-1.58,6.53,6.53,0,0,0-4.4,1.41,5.13,5.13,0,0,0-1.64,4.1,4.23,4.23,0,0,0,1.24,3.12,9.39,9.39,0,0,0,3.09,2,53.39,53.39,0,0,0,5.2,1.78,56.55,56.55,0,0,1,7.45,2.68,13.39,13.39,0,0,1,5,4,11.18,11.18,0,0,1,2.09,7.05,13.26,13.26,0,0,1-1.95,7,13.68,13.68,0,0,1-5.71,5.13,19.37,19.37,0,0,1-8.92,1.92A22.24,22.24,0,0,1,319.85,422.66Z"/><path class="cls-1" d="M385.76,398.56a13,13,0,0,1-5.57,5.3,20.18,20.18,0,0,1-9.56,2h-7.86v18h-9.39V377h17.25a20.75,20.75,0,0,1,9.26,1.88,13.07,13.07,0,0,1,5.74,5.17,15.15,15.15,0,0,1,.13,14.49Zm-9.76-2a6.58,6.58,0,0,0,1.87-5q0-6.86-7.65-6.85h-7.45v13.62h7.45C372.82,398.29,374.74,397.7,376,396.52Z"/><path class="cls-1" d="M403.85,421.25a23.07,23.07,0,0,1-8.73-8.56,25.29,25.29,0,0,1,0-24.7,23.14,23.14,0,0,1,8.73-8.56,25.29,25.29,0,0,1,24.19,0A22.88,22.88,0,0,1,436.7,388a25.5,25.5,0,0,1,0,24.7,22.75,22.75,0,0,1-8.69,8.56,25.16,25.16,0,0,1-24.16,0ZM423.38,414a13,13,0,0,0,5-5.47,17.91,17.91,0,0,0,1.82-8.25,17.72,17.72,0,0,0-1.82-8.22,12.92,12.92,0,0,0-5-5.41,14.54,14.54,0,0,0-7.45-1.88,14.77,14.77,0,0,0-7.49,1.88,12.92,12.92,0,0,0-5.06,5.41,17.72,17.72,0,0,0-1.81,8.22,17.9,17.9,0,0,0,1.81,8.25,13,13,0,0,0,5.06,5.47,14.5,14.5,0,0,0,7.49,1.92A14.28,14.28,0,0,0,423.38,414Z"/><path class="cls-1" d="M471,423.87l-10.34-18.26h-4.42v18.26h-9.4V377h17.58a20.62,20.62,0,0,1,9.27,1.91,13.35,13.35,0,0,1,5.73,5.17,14.53,14.53,0,0,1-.77,15.64,13.8,13.8,0,0,1-8,5.13l11.2,19Zm-14.76-25.31h7.85q3.83,0,5.7-1.84a6.88,6.88,0,0,0,1.88-5.14,6.57,6.57,0,0,0-1.88-5c-1.25-1.18-3.15-1.78-5.7-1.78h-7.85Z"/><path class="cls-1" d="M521.77,377v7.58H509.29v39.27h-9.4V384.6H487.41V377Z"/><path class="cls-1" d="M595.67,377v46.85h-9.4V393.4l-12.55,30.47H566.6L554,393.4v30.47h-9.4V377h10.67l14.9,34.83L585.06,377Z"/><path class="cls-1" d="M614.19,377v29q0,4.77,2.48,7.28a9.36,9.36,0,0,0,7,2.52c3.05,0,5.39-.84,7.05-2.52s2.48-4.1,2.48-7.28V377h9.47V406a18.72,18.72,0,0,1-2.59,10.1,16.38,16.38,0,0,1-6.91,6.21,22.07,22.07,0,0,1-9.63,2.08,21.46,21.46,0,0,1-9.5-2.08,15.84,15.84,0,0,1-6.74-6.21,19.24,19.24,0,0,1-2.49-10.1V377Z"/><path class="cls-1" d="M680.43,414.94H661.77l-3.08,8.93h-9.87L665.67,377h10.94l16.84,46.92h-9.93Zm-2.55-7.52-6.78-19.6-6.78,19.6Z"/><path class="cls-1" d="M750.84,377v46.85h-9.4V393.4l-12.55,30.47h-7.11L709.16,393.4v30.47h-9.4V377h10.67l14.9,34.83L740.23,377Z"/><path class="cls-1" d="M811.18,377v46.85h-9.4V393.4l-12.55,30.47h-7.12L769.5,393.4v30.47h-9.4V377h10.67l14.9,34.83L800.57,377Z"/><path class="cls-1" d="M830.1,421.25a23,23,0,0,1-8.72-8.56,25.23,25.23,0,0,1,0-24.7,23,23,0,0,1,8.72-8.56,25.31,25.31,0,0,1,24.2,0A22.93,22.93,0,0,1,863,388a25.5,25.5,0,0,1,0,24.7,22.75,22.75,0,0,1-8.69,8.56,25.16,25.16,0,0,1-24.16,0ZM849.63,414a13,13,0,0,0,5-5.47,18,18,0,0,0,1.81-8.25,17.84,17.84,0,0,0-1.81-8.22,13,13,0,0,0-5-5.41,14.54,14.54,0,0,0-7.45-1.88,14.71,14.71,0,0,0-7.48,1.88,12.94,12.94,0,0,0-5.07,5.41,17.72,17.72,0,0,0-1.81,8.22,17.9,17.9,0,0,0,1.81,8.25A13,13,0,0,0,834.7,414a14.44,14.44,0,0,0,7.48,1.92A14.28,14.28,0,0,0,849.63,414Z"/><path class="cls-1" d="M882.52,416.42H898v7.45H873.12V377h9.4Z"/><path class="cls-1" d="M932.65,414.94H914l-3.09,8.93H901L917.89,377h10.94l16.85,46.92h-9.94Zm-2.55-7.52-6.78-19.6-6.77,19.6Z"/><path class="cls-1" d="M976.15,423.87l-10.34-18.26h-4.43v18.26H952V377h17.59a20.61,20.61,0,0,1,9.26,1.91,13.43,13.43,0,0,1,5.74,5.17,14.16,14.16,0,0,1,1.91,7.28,13.51,13.51,0,0,1-10.67,13.49l11.21,19Zm-14.77-25.31h7.85q3.82,0,5.71-1.84a6.88,6.88,0,0,0,1.88-5.14,6.57,6.57,0,0,0-1.88-5c-1.26-1.18-3.16-1.78-5.71-1.78h-7.85Z"/><path class="cls-1" d="M1004.4,377v46.85H995V377Z"/><path class="cls-1" d="M1053.73,423.87h-9.39l-21.28-32.15v32.15h-9.4V377h9.4l21.28,32.22V377h9.39Z"/><path class="cls-1" d="M1072.39,377v46.85H1063V377Z"/><path class="cls-1" d="M1107.29,421.25a23,23,0,0,1-8.72-8.56,25.23,25.23,0,0,1,0-24.7,23,23,0,0,1,8.72-8.56,25.31,25.31,0,0,1,24.2,0,22.93,22.93,0,0,1,8.65,8.56,25.5,25.5,0,0,1,0,24.7,22.75,22.75,0,0,1-8.69,8.56,25.16,25.16,0,0,1-24.16,0Zm19.53-7.22a13,13,0,0,0,5-5.47,18,18,0,0,0,1.81-8.25,17.84,17.84,0,0,0-1.81-8.22,13,13,0,0,0-5-5.41,14.54,14.54,0,0,0-7.45-1.88,14.71,14.71,0,0,0-7.48,1.88,12.94,12.94,0,0,0-5.07,5.41,17.72,17.72,0,0,0-1.81,8.22,17.9,17.9,0,0,0,1.81,8.25,13,13,0,0,0,5.07,5.47,14.44,14.44,0,0,0,7.48,1.92A14.28,14.28,0,0,0,1126.82,414Z"/><path class="cls-1" d="M1157.69,393.93h-9.93L1155,377h6.51Z"/><path class="cls-1" d="M1192.93,423.87l-10.34-18.26h-4.43v18.26h-9.39V377h17.58a20.62,20.62,0,0,1,9.27,1.91,13.35,13.35,0,0,1,5.73,5.17,14.53,14.53,0,0,1-.77,15.64,13.8,13.8,0,0,1-8,5.13l11.2,19Zm-14.77-25.31H1186q3.82,0,5.7-1.84a6.88,6.88,0,0,0,1.88-5.14,6.57,6.57,0,0,0-1.88-5c-1.25-1.18-3.15-1.78-5.7-1.78h-7.86Z"/><path class="cls-1" d="M1244.41,391.11a11,11,0,0,0-4.43-4.49,13.47,13.47,0,0,0-6.58-1.55A14.41,14.41,0,0,0,1226,387a13,13,0,0,0-5,5.37,18.93,18.93,0,0,0,0,16.24,13,13,0,0,0,5.13,5.37,15.06,15.06,0,0,0,7.65,1.88,13.32,13.32,0,0,0,8.8-2.85,13.57,13.57,0,0,0,4.49-7.95H1231v-7.19h25.36V406a21.84,21.84,0,0,1-4,9.06,22.69,22.69,0,0,1-8,6.68,23.34,23.34,0,0,1-10.9,2.52,24.74,24.74,0,0,1-12.25-3,22.2,22.2,0,0,1-8.59-8.5,26.06,26.06,0,0,1,0-24.73,22.19,22.19,0,0,1,8.59-8.52,26.13,26.13,0,0,1,25.94.8,19.72,19.72,0,0,1,8,10.84Z"/><path class="cls-1" d="M1292.06,414.94H1273.4l-3.08,8.93h-9.87L1277.29,377h11l16.84,46.92h-9.93Zm-2.55-7.52-6.78-19.6-6.78,19.6Z"/><path class="cls-1" d="M1351.46,423.87h-9.4l-21.27-32.15v32.15h-9.4V377h9.4l21.27,32.22V377h9.4Z"/><path class="cls-1" d="M1370.12,377v46.85h-9.4V377Z"/><path class="cls-1" d="M1386.73,422.66a14.5,14.5,0,0,1-6.21-4.83,12.72,12.72,0,0,1-2.35-7.45h10.07a6.46,6.46,0,0,0,2,4.56,7.22,7.22,0,0,0,5.06,1.68,7.81,7.81,0,0,0,5.17-1.58,5.14,5.14,0,0,0,1.88-4.13,4.79,4.79,0,0,0-1.28-3.42,8.81,8.81,0,0,0-3.18-2.11,53,53,0,0,0-5.27-1.72,55.7,55.7,0,0,1-7.42-2.65,13,13,0,0,1-4.9-4,11.28,11.28,0,0,1-2-7.08,12.66,12.66,0,0,1,2.09-7.25,13.28,13.28,0,0,1,5.83-4.73,21.38,21.38,0,0,1,8.6-1.64q7.25,0,11.77,3.52a13.06,13.06,0,0,1,5,9.83h-10.33a5.35,5.35,0,0,0-2-4,7.71,7.71,0,0,0-5.07-1.58,6.5,6.5,0,0,0-4.39,1.41,5.1,5.1,0,0,0-1.65,4.1,4.24,4.24,0,0,0,1.25,3.12,9.24,9.24,0,0,0,3.08,2,54.36,54.36,0,0,0,5.2,1.78,55.5,55.5,0,0,1,7.45,2.68,13.42,13.42,0,0,1,5,4,11.17,11.17,0,0,1,2.08,7.05,13.26,13.26,0,0,1-2,7,13.6,13.6,0,0,1-5.7,5.13,19.41,19.41,0,0,1-8.93,1.92A22.23,22.23,0,0,1,1386.73,422.66Z"/><path class="cls-1" d="M1459.11,377v46.85h-9.39V403.93h-20.07v19.94h-9.4V377h9.4v19.26h20.07V377Z"/><path class="cls-1" d="M700.07,457.56v46.85h-9.4V473.93l-12.55,30.48H671l-12.61-30.48v30.48H649V457.56h10.67l14.9,34.83,14.9-34.83Z"/><path class="cls-1" d="M738.05,495.48H719.39l-3.08,8.93h-9.87l16.85-46.92h10.94l16.84,46.92h-9.93ZM735.5,488l-6.78-19.6L721.94,488Z"/><path class="cls-1" d="M781.54,504.41l-10.33-18.26h-4.43v18.26h-9.4V457.56H775a20.61,20.61,0,0,1,9.26,1.91,13.43,13.43,0,0,1,5.74,5.17,14.58,14.58,0,0,1-.77,15.64,13.83,13.83,0,0,1-8,5.13l11.21,19ZM766.78,479.1h7.85q3.82,0,5.71-1.84a6.88,6.88,0,0,0,1.87-5.14,6.56,6.56,0,0,0-1.87-5c-1.26-1.18-3.16-1.78-5.71-1.78h-7.85Z"/><path class="cls-1" d="M826.85,504.41,809.8,483.53v20.88h-9.4V457.56h9.4v21l17.05-21h11.34l-19.33,23.22,19.87,23.63Z"/><path class="cls-1" d="M873.63,495.48H855l-3.09,8.93H842l16.85-46.92H869.8l16.85,46.92h-9.94ZM871.08,488l-6.78-19.6L857.52,488Z"/><path class="cls-1" d="M902.55,496.49h21.08v7.92h-32v-7.25l20.94-31.68H891.68v-7.92h32v7.25Z"/><path class="cls-1" d="M941,457.56v46.85h-9.4V457.56Z"/><polygon class="cls-2" points="866.54 302.03 856.8 221.9 911.67 170.04 913.52 172 859.63 222.92 869.21 301.71 866.54 302.03"/><rect class="cls-1" x="841.08" y="223.16" width="2.69" height="86.94" transform="translate(3.37 543.69) rotate(-35.84)"/><path class="cls-2" d="M869.23,303.71H721.37L675.66,170.37l119.85-83,119,83ZM723.29,301h144l44-129.6L795.5,90.67,678.86,171.42Z"/><polygon class="cls-1" points="867.29 303.07 795.69 268 725.27 303.07 724.08 300.67 795.68 265.01 868.47 300.66 867.29 303.07"/><polygon class="cls-1" points="680.25 172.33 679.67 169.71 757.49 152.49 795.45 86.43 837.04 152.49 912.89 169.71 912.3 172.33 835.36 154.86 795.56 91.64 759.22 154.86 758.64 154.98 680.25 172.33"/><polygon class="cls-2" points="726.01 302.03 723.34 301.71 732.92 222.92 679.03 172 680.88 170.04 735.75 221.9 726.01 302.03"/><circle class="cls-3" cx="734.34" cy="222.41" r="6.83"/><circle class="cls-4" cx="758.35" cy="153.67" r="6.83"/><circle class="cls-5" cx="836.2" cy="153.67" r="6.83"/><line class="cls-1" x1="762.38" y1="193.21" x2="677.4" y2="171.02"/><rect class="cls-1" x="718.55" y="138.2" width="2.69" height="87.83" transform="translate(361.79 832.63) rotate(-75.36)"/><rect class="cls-1" x="829.07" y="180.53" width="84.94" height="2.69" transform="translate(-17.55 228.61) rotate(-14.8)"/><line class="cls-1" x1="722.12" y1="301.87" x2="775.2" y2="229.75"/><rect class="cls-1" x="703.89" y="264.47" width="89.54" height="2.69" transform="translate(90.75 711.12) rotate(-53.64)"/><rect class="cls-2" x="794.35" y="126.55" width="2.69" height="42.24"/><path class="cls-1" d="M771.59,192.47h13.34v3.58h-4.35v16.46H776V196.05h-4.36Z"/><path class="cls-1" d="M787.44,192.47H792v16.4h6.56v3.64H787.44Z"/><path class="cls-1" d="M800.78,192.47h6.47l3.59,13.42,3.63-13.42H821v20h-4.07V195.84l-4.68,16.67H809.4l-4.74-16.64v16.64h-3.88Z"/><circle class="cls-6" cx="795.83" cy="89.86" r="41.27"/><circle class="cls-4" cx="912.6" cy="171.02" r="41.27"/><circle class="cls-1" cx="867.88" cy="301.87" r="41.27"/><circle class="cls-1" cx="722.12" cy="301.87" r="41.27"/><circle class="cls-7" cx="677.4" cy="171.02" r="41.27"/><circle class="cls-8" cx="858.21" cy="222.41" r="6.83"/><circle class="cls-1" cx="835.03" cy="256.36" r="6.83"/><circle class="cls-1" cx="757.18" cy="255.53" r="6.83"/><circle class="cls-1" cx="733.99" cy="185.97" r="6.83"/><circle class="cls-9" cx="858.21" cy="185.97" r="6.83"/><circle class="cls-10" cx="795.69" cy="142.91" r="6.83"/><circle class="cls-8" cx="795.69" cy="267.96" r="6.83"/><path class="cls-11" d="M656,171.71a5.25,5.25,0,0,0,1.18-.17,7.86,7.86,0,0,0,2.54-1,4.32,4.32,0,0,0,1.66-1.78,2.71,2.71,0,0,0,.26-1.61,3.5,3.5,0,0,0-1-1.89,5.42,5.42,0,0,0-1.18-.88,6.75,6.75,0,0,0-1.29-.57,14,14,0,0,0-1.81-.44A1.11,1.11,0,0,0,655,164a2.08,2.08,0,0,0-.07.86c0,.22-.05.28-.28.28h-3a.59.59,0,0,0-.61.67.56.56,0,0,0,.61.59h3.1c.15,0,.21,0,.21.19q0,.93,0,1.86c0,.13,0,.17-.17.17l-1.06,0c-.67,0-1.34,0-2,0a.65.65,0,0,0-.43.14.68.68,0,0,0-.19.81.67.67,0,0,0,.61.36c1,0,2,0,3,0,.24,0,.3.07.28.29a4.51,4.51,0,0,0,0,.52A1,1,0,0,0,656,171.71Z"/><path class="cls-11" d="M653.58,160.55a3.71,3.71,0,0,1,2.18,1.28c.26.29.46.63.71.93s.32.37.59.3.34-.46.06-.76a11.83,11.83,0,0,0-1.15-1.2,3.33,3.33,0,0,0-1.12-.69,15.72,15.72,0,0,1-2.2-.92,12.79,12.79,0,0,1-1.91-1.16,6.76,6.76,0,0,1-1.52-1.4c.4.31.8.64,1.23.91a14.1,14.1,0,0,0,4.07,1.74c.78.21,1-.28,1-.75a9.25,9.25,0,0,0-.4-1.79,3.75,3.75,0,0,0-1.28-1.69,4.48,4.48,0,0,0-2-.75,13.52,13.52,0,0,0-1.9-.24c-.67,0-1.34-.12-2-.18a8.35,8.35,0,0,1-1.73-.3,5.17,5.17,0,0,1-1.46-.66,9,9,0,0,0,.56,2.74,6.45,6.45,0,0,0,2,2.83,7.19,7.19,0,0,0,4,1.54C652,160.41,652.79,160.41,653.58,160.55Z"/><path class="cls-11" d="M703.48,173a5.38,5.38,0,0,0-1.82-1.49,15,15,0,0,0-4.18-1.34c-.68-.17-1.35-.28-2-.46a11.69,11.69,0,0,1-2.4-.81,14.22,14.22,0,0,1-3-2.08c-.4-.47-.87-.85-1.29-1.29a31.16,31.16,0,0,0-2.41-2.33,10.13,10.13,0,0,0-1.36-1,1.67,1.67,0,0,0-.5-.33l-.07-.05-.22-.14h0a1,1,0,0,0-.25-.16l-.66-.36c-.5-.23-1-.47-1.53-.66a14.76,14.76,0,0,0-2.35-.61,3.22,3.22,0,0,0-.74-.14c-.45-.08-.89-.11-1.35-.15a9.82,9.82,0,0,0-1.53,0c-.5,0-1,0-1.52,0s-1.25.11-1.86.22c-1.13.17-2.24.39-3.35.64l-.4.08a0,0,0,0,0,0,0s-.07,0-.12,0c-.8.18-1.61.39-2.43.58s-1.74.4-2.61.54l-1.43.27a1.06,1.06,0,0,0-.25,0,15.74,15.74,0,0,1-2,.17h-1.57a.45.45,0,0,0-.34.12.64.64,0,0,0,.25,1.1,7.79,7.79,0,0,1,2.58,1.43,5.74,5.74,0,0,1,1,1.25,3.06,3.06,0,0,1,.12,2.85,5,5,0,0,1-2.3,2.33,9.18,9.18,0,0,1-2.63.89,2.13,2.13,0,0,1-1.64-.12c-.1-.06-.11,0-.11.08a8,8,0,0,0,0,2.19,5.61,5.61,0,0,0,1.62,3.24c.22.19.44.35.72.25a.71.71,0,0,0,.45-.58,5.79,5.79,0,0,1,.53-1.38A6.93,6.93,0,0,1,661,173a7.39,7.39,0,0,1,3.62-1,8.49,8.49,0,0,1,1.14.09,7.48,7.48,0,0,1,2.49.84,6.16,6.16,0,0,1,2.21,2.09,7.33,7.33,0,0,1,1,3.15.88.88,0,0,0,.88.82h12.11a.66.66,0,0,0,.62-.64,6.27,6.27,0,0,1,.63-2.36,8.91,8.91,0,0,1,1.08-1.66,6.75,6.75,0,0,1,3.15-2,8.49,8.49,0,0,1,1.22-.24,6.2,6.2,0,0,1,2.19.08,8.73,8.73,0,0,1,1.82.63c0,.06.07.08.12.09a6.82,6.82,0,0,1,1.49,1.08,7,7,0,0,1,1.17,1.54,6.72,6.72,0,0,1,.9,2.66.57.57,0,0,0,.59.56,3.42,3.42,0,0,0,1.1-.22,5.2,5.2,0,0,0,2-1.08,4.34,4.34,0,0,0,1.41-2A2.58,2.58,0,0,0,703.48,173Zm-21.66-5.32c-2.21,3.1-4.42,6.18-6.63,9.3,0-.16.07-.27.1-.41a.11.11,0,0,0,0-.09v-.06s0,0,0,0v0a0,0,0,0,1,0,0,5.54,5.54,0,0,0,.22-.69v-.09c0-.06,0-.13.06-.16s0,0,0,0a.35.35,0,0,0,.08-.22v0a6,6,0,0,1,.3-1c.06-.22.13-.42.19-.64a.28.28,0,0,1,0-.11c.21-.72.45-1.43.67-2.13.11-.3.19-.6.28-.89,0-.13,0-.21-.13-.19l-1.78.12a6,6,0,0,0-.86.05c-.11,0-.14,0-.11-.14l.7-3.26c.24-1.08.51-2.16.72-3.24.07-.33.3-.23.47-.27.38,0,.77-.06,1.15-.12l0,0h0v0s0,0,0,0h.05a.58.58,0,0,0,.34,0h.25a3.24,3.24,0,0,0,.52-.07,2.66,2.66,0,0,0,.39,0,.17.17,0,0,0,.12,0c.44,0,.87-.1,1.33-.11a4.48,4.48,0,0,1-.45.87c-.34.66-.7,1.3-1.05,2s-.62,1.16-.95,1.74c-.07.14-.1.2.11.2.84,0,1.69-.08,2.52-.11a6,6,0,0,0,1.2-.08s0,0,0,0S681.82,167.62,681.82,167.65Z"/><path class="cls-11" d="M697,176.67a5.58,5.58,0,0,0-1.52-2,4.89,4.89,0,0,0-1.83-1,4.11,4.11,0,0,0-.67-.17,5.05,5.05,0,0,0-2.19,0,5.46,5.46,0,0,0-2.92,1.67,5.82,5.82,0,0,0-1.23,2.23,5.51,5.51,0,0,0,.51,4.13,5.25,5.25,0,0,0,1.15,1.43,6.31,6.31,0,0,0,1.11.78.76.76,0,0,1,.22.11,4.92,4.92,0,0,0,1.83.48,5.49,5.49,0,0,0,3.4-.76,5.62,5.62,0,0,0,2.32-2.79,5.28,5.28,0,0,0,.31-2.4A5.54,5.54,0,0,0,697,176.67Zm-5.65,5.15a5.48,5.48,0,0,1-1.11-.41h0c0-.11-.09-.15-.15-.23a2.8,2.8,0,0,1-1-2.82,2.93,2.93,0,0,1,3.24-2.3.38.38,0,0,0,.26,0h0a1.67,1.67,0,0,0,.53.14s0,0,.05,0v0c0,.09.14.12.22.17a2.93,2.93,0,0,1-2.07,5.42Z"/><path class="cls-11" d="M670,177.72a5.55,5.55,0,0,0-2.08-3.17A2.62,2.62,0,0,0,667,174a.14.14,0,0,0-.09,0,.86.86,0,0,0-.38-.16,4.78,4.78,0,0,0-1.86-.36,6.13,6.13,0,0,0-.74.05,5.22,5.22,0,0,0-2.66,1,5.32,5.32,0,0,0-1.68,2,5.47,5.47,0,0,0-.53,2.55,5.31,5.31,0,0,0,.66,2.43,5.48,5.48,0,0,0,2.19,2.21c.09.09.22.09.31.14a5.51,5.51,0,0,0,7.46-2.81A5.07,5.07,0,0,0,670,177.72Zm-4.07,3.88a3.07,3.07,0,0,1-2.6,0c-.06,0-.14-.1-.22-.07s0,0,0,0a4.19,4.19,0,0,1-1.07-1.15,2.86,2.86,0,0,1,.61-3.61,2.66,2.66,0,0,1,1.46-.69,3.87,3.87,0,0,1,1.27,0h0c0,.09.1.09.17.11a2.92,2.92,0,0,1,.37,5.4Z"/><path class="cls-11" d="M656.62,161.16a1.44,1.44,0,0,0,.22-.27,2.36,2.36,0,0,1,2-1.11,5.64,5.64,0,0,0,1.77-.32,3.66,3.66,0,0,0,1.2-.76,3.54,3.54,0,0,0,.92-1.63,5.34,5.34,0,0,0,.19-1.13h-.07a4.1,4.1,0,0,1-2,.54c-.57.05-1.14.09-1.71.19a2.17,2.17,0,0,0-1.56,1,3.21,3.21,0,0,0-.37,1.22c-.07.43.17.61.54.51a10.09,10.09,0,0,0,1.3-.47,7.36,7.36,0,0,0,1.12-.67.6.6,0,0,1-.18.24,9.69,9.69,0,0,1-2.47,1.34,2.87,2.87,0,0,0-1.24,1.1.2.2,0,0,0,.05.29C656.44,161.27,656.54,161.23,656.62,161.16Z"/><path class="cls-11" d="M811.63,105.84c-1.3-4.92-2.59-9.82-3.88-14.74-.12.05-.22.1-.32.13a2.13,2.13,0,0,1-1.59,0,23.15,23.15,0,0,1-8.13-4.95l0,0a1.51,1.51,0,0,1,0,.3c0,.36-.12.41-.42.41-.78,0-1.56,0-2.33,0-.34,0-.47-.08-.44-.44.07-1.33.1-2.67.15-4h0c0-.16,0-.33,0-.5a12.06,12.06,0,0,1-1-5c0-2.39,0-4.79,0-7.19h-3.69l-3.33,12.67q-3.4,13-6.83,25.95a1.12,1.12,0,0,0,0,.45h13.77c0-1,.08-2,.1-2.93,0-.25.1-.33.35-.33h4.06c.26,0,.35.08.36.33,0,1,0,2,.08,2.93h13.79A24.1,24.1,0,0,0,811.63,105.84Zm-13.84-5c-1.14,0-2.3,0-3.46,0-.3,0-.4-.09-.38-.4q.19-4.11.34-8.2c0-.34.12-.43.43-.42.93,0,1.86,0,2.77,0,.32,0,.43.08.45.42,0,1.37.1,2.76.16,4.14h0c.06,1.32.1,2.65.18,4C798.3,100.71,798.19,100.81,797.79,100.81Z"/><path class="cls-11" d="M820.59,70.91c0-1.59,0-3.18,0-4.75a2,2,0,0,0-2-2.22c-.88-.14-1.78-.24-2.64-.45a19.18,19.18,0,0,1-6-2.9,2.15,2.15,0,0,0-2.78,0,20.77,20.77,0,0,1-3.48,2A15.9,15.9,0,0,1,798.34,64a1.72,1.72,0,0,0-1.61,1.53,2.83,2.83,0,0,0,0,.41c0,.2,0,.4,0,.6,0,2.2,0,4.41,0,6.61v1.06a12.6,12.6,0,0,0,.17,2.25c0,.09,0,.15,0,.22a9.41,9.41,0,0,0,.36,1.36l.15.4a12.09,12.09,0,0,0,2.93,4.29,20.67,20.67,0,0,0,6.29,4.09l.06,0c.38.17.78.32,1.18.47a1.94,1.94,0,0,0,.56.15,1.92,1.92,0,0,0,.91-.12l.23-.1c.88-.36,1.74-.74,2.57-1.16a18,18,0,0,0,5-3.58,13.79,13.79,0,0,0,2.3-3.06,8.52,8.52,0,0,0,1-3A42,42,0,0,0,820.59,70.91Zm-4.21,7.92A12.42,12.42,0,0,1,815,80.54,14.89,14.89,0,0,1,811,83.36c-.7.36-1.43.69-2.17,1l-.25,0V74.66c0-.2,0-.4,0-.6a1,1,0,0,0-.57,0l-.81,0h-4c-1,0-2.1,0-3.15,0-.48,0-.59-.13-.58-.6,0-1.19,0-2.38,0-3.57,0-.44,0-.88,0-1.33V67.15c0-.3.07-.45.38-.48a19.26,19.26,0,0,0,8.34-3.28l.23-.13s.07,0,.1,0,.05.2.05.3v10.1c0,.14,0,.27,0,.4a.35.35,0,0,1,.26-.08h8.32c.45,0,.5.15.51.54A6.88,6.88,0,0,1,816.38,78.83Z"/><path class="cls-11" d="M788.48,69.84h-1.79c-.05.15-.09.31-.15.46L773,103.47c-.73,1.78-1.48,3.56-2.22,5.33,0,.22.2.1.29.1h4.47a16.54,16.54,0,0,1,.71-2.3q6.1-18.31,12.22-36.62Z"/><path class="cls-11" d="M821.3,108.41l-8.22-20a23,23,0,0,1-2.64,1.53l6.18,18.49a1,1,0,0,1,.12.52h4.46c.09,0,.25.12.29-.1S821.35,108.55,821.3,108.41Z"/><path class="cls-11" d="M866.2,318.7a10.18,10.18,0,0,0,.61-1.3,6.94,6.94,0,0,0,.39-1.4,2.89,2.89,0,0,0-.06-1.17,1.08,1.08,0,0,0-.11-.28,1.1,1.1,0,0,0-.93-.62,1.88,1.88,0,0,0-1.35.39,4.38,4.38,0,0,0-.86.86,6.63,6.63,0,0,0-.49.69.22.22,0,0,1-.07.09l0-.1a4.87,4.87,0,0,0,.34-1,3,3,0,0,0,0-1.15,1.38,1.38,0,0,0-1.12-1,2,2,0,0,0-1.27.24,3.1,3.1,0,0,0-1,.88c-.08.09-.14.19-.22.28s0,0,0-.08a3.2,3.2,0,0,0,.24-1.11,1.44,1.44,0,0,0-1.13-1.56,1.88,1.88,0,0,0-1.56.25,4.53,4.53,0,0,0-1,.87,7.76,7.76,0,0,0-.5.67s0,.06,0,.07a.06.06,0,0,1-.05,0c-.58-.55-1.2-1-1.82-1.53-.81-.64-1.63-1.25-2.45-1.87a.62.62,0,0,0-.26-.12l-1.6-.39c-.11,0-.1,0-.1-.13,0-.43.09-.87.15-1.3a19.12,19.12,0,0,1,.57-2.6,17.71,17.71,0,0,1,3.15-6,13.53,13.53,0,0,1,1.3-1.43.2.2,0,0,1,.22,0l1.42.43a1.83,1.83,0,0,0,.4.05,5.31,5.31,0,0,1,1.36.28,2.94,2.94,0,0,1,.92.5c.16.14.12.12,0,.23l-1.44,1.35a1.81,1.81,0,0,0-.5.78,2.39,2.39,0,0,0-.05,1.35,1.65,1.65,0,0,0,.7,1,3.11,3.11,0,0,0,1.2.47,4.38,4.38,0,0,0,2.55-.34,1.08,1.08,0,0,0,.18-.11l2.23-1.76a3.52,3.52,0,0,1,1.27-.63,5,5,0,0,1,1.55-.14,7.55,7.55,0,0,1,2.47.58,8.43,8.43,0,0,1,1.41.78c.6.41,1.21.8,1.82,1.2,2.72,1.81,5.43,3.64,8.09,5.54.87.63,1.73,1.26,2.56,1.93a6.87,6.87,0,0,1,.69.63,1.69,1.69,0,0,1,.51,1.41,1.89,1.89,0,0,1-.23.73,2.47,2.47,0,0,1-.44.58,1.48,1.48,0,0,1-.85.41,1.84,1.84,0,0,1-1-.18,3.62,3.62,0,0,1-.43-.24s0,0-.08,0,0,.06,0,.08a1.64,1.64,0,0,1,.3,1.28,4,4,0,0,1-.07.48,2.2,2.2,0,0,1-.66,1.15,3.28,3.28,0,0,1-.69.48,1.69,1.69,0,0,1-.7.15,3.89,3.89,0,0,1-1.58-.29.28.28,0,0,0-.12,0s0,.07,0,.11a2,2,0,0,1,0,1.17,2.18,2.18,0,0,1-1.07,1.27,2,2,0,0,1-.74.21,3.39,3.39,0,0,1-1.52-.18l-.07,0h0a.38.38,0,0,0,0,.1,1.73,1.73,0,0,1-.53,1.86,2.21,2.21,0,0,1-1.27.52,3,3,0,0,1-1.23-.18,7.88,7.88,0,0,1-1.45-.66,14.63,14.63,0,0,1-1.49-1l-.09-.06a.05.05,0,0,1,0-.08.43.43,0,0,0,0-.07,5.62,5.62,0,0,0,.57-1.12,3.2,3.2,0,0,0,.18-.92,1.57,1.57,0,0,0-.06-.53,1.08,1.08,0,0,0-.84-.72,1.1,1.1,0,0,0-.62,0,3,3,0,0,0-.89.5,6.37,6.37,0,0,0-.59.57A.45.45,0,0,1,866.2,318.7Z"/><path class="cls-11" d="M864.55,296.47l.53,0,1.58,0,1.26,0c.36,0,.72-.05,1.07-.09l.38-.07a3.36,3.36,0,0,1,1.14-.05,5.55,5.55,0,0,1,1.87.56c.76.36,1.53.68,2.3,1l3.63,1.49a4.75,4.75,0,0,0,1.05.26,5.11,5.11,0,0,0,.78.05,2.71,2.71,0,0,0,1.57-.52,7.38,7.38,0,0,0,.86-.73c0-.05.11-.09.16-.15a.08.08,0,0,1,.11,0,5,5,0,0,1,.51.4,10.48,10.48,0,0,1,2.28,2.89,13.33,13.33,0,0,1,1.37,3.82,17.72,17.72,0,0,1,.25,1.78q0,.58.06,1.17c0,.09,0,.09-.08.09a5,5,0,0,0-2.17.55,5.29,5.29,0,0,0-1.57,1.21c-.07.07-.07.07-.15,0l-3.44-2.32-2-1.33-3.18-2.14-3.07-2.07-1.2-.81a5.22,5.22,0,0,0-.92-.45,7.71,7.71,0,0,0-1.83-.48,6.78,6.78,0,0,0-1.35,0,6.11,6.11,0,0,0-1.27.2,3.57,3.57,0,0,0-.45.19,7.46,7.46,0,0,0-1.55,1c-.44.36-.9.7-1.34,1.06a2,2,0,0,1-.55.28,3.63,3.63,0,0,1-1.21.29,2.26,2.26,0,0,1-1.74-.54.58.58,0,0,1-.15-.19,1.59,1.59,0,0,1-.08-1.44.65.65,0,0,1,.16-.21L860,299.5l1.79-1.6c.27-.23.53-.48.8-.72a5.22,5.22,0,0,1,.6-.45,1.08,1.08,0,0,1,.58-.21C864,296.49,864.3,296.48,864.55,296.47Z"/><path class="cls-11" d="M853.86,296.35a.27.27,0,0,1-.08.1,19.3,19.3,0,0,0-2.15,2.7,21.12,21.12,0,0,0-2.48,5.1,17.9,17.9,0,0,0-.7,2.89c-.08.48-.13,1-.17,1.46s0,1.19,0,1.78v.06s-.07,0-.1,0L843,307.73a.14.14,0,0,1-.09-.17q0-.68.12-1.35c.08-.63.17-1.26.29-1.88a23.89,23.89,0,0,1,1.87-6,13.73,13.73,0,0,1,2.16-3.32,10.27,10.27,0,0,1,1.77-1.59l.13-.09a.09.09,0,0,1,.1,0l.06,0,4.36,2.91Z"/><path class="cls-11" d="M883.3,296.46c.19-.12.36-.25.54-.37l3.81-2.62.05,0a.08.08,0,0,1,.12,0c.13.1.27.19.39.29a13.6,13.6,0,0,1,2,1.94,15.82,15.82,0,0,1,2.26,3.51,16.24,16.24,0,0,1,1.09,3,19.79,19.79,0,0,1,.42,2.17c.06.41.1.83.13,1.25,0,.66,0,1.33,0,2v0a.1.1,0,0,1-.08.12l-.55.27-1.77.84-2.87,1.38-.08,0s0-.07,0-.1c0-.43,0-.85,0-1.28s0-.92-.08-1.38-.12-1.19-.21-1.79a21.69,21.69,0,0,0-.66-2.87,14.22,14.22,0,0,0-1-2.5,10.58,10.58,0,0,0-1.61-2.32,8.14,8.14,0,0,0-1.82-1.48l-.06,0Z"/><path class="cls-11" d="M866.6,315.77a3.09,3.09,0,0,1-.13.86,10.23,10.23,0,0,1-.81,2.07,7.07,7.07,0,0,1-1.15,1.56,1.93,1.93,0,0,1-.56.41,1,1,0,0,1-1.21-.27,1.24,1.24,0,0,1-.24-.47,1.92,1.92,0,0,1,0-1.09,6.32,6.32,0,0,1,.18-.62,7.12,7.12,0,0,1,.8-1.64,6.79,6.79,0,0,1,.71-1,3.13,3.13,0,0,1,1.18-.89,1.11,1.11,0,0,1,.3-.08.8.8,0,0,1,.86.56A1.93,1.93,0,0,1,866.6,315.77Z"/><path class="cls-11" d="M859.19,317.4a2.85,2.85,0,0,1,.13-.81,8.54,8.54,0,0,1,.84-1.91,4,4,0,0,1,.84-1,1.69,1.69,0,0,1,.73-.4,1.05,1.05,0,0,1,1.26.63,1.5,1.5,0,0,1,.11.63,4,4,0,0,1-.17,1,6.24,6.24,0,0,1-.43,1.16,5.21,5.21,0,0,1-.81,1.31,2.78,2.78,0,0,1-.63.56,1.25,1.25,0,0,1-1.2.08,1,1,0,0,1-.63-.84A2.06,2.06,0,0,1,859.19,317.4Z"/><path class="cls-11" d="M859.64,313.24a3.17,3.17,0,0,1-.45,1.57,3.65,3.65,0,0,1-.66.86,1.7,1.7,0,0,1-1.15.49,1.16,1.16,0,0,1-1.17-.94,2.09,2.09,0,0,1,0-.66,3.37,3.37,0,0,1,.49-1.37,3.47,3.47,0,0,1,1.11-1.08,1.2,1.2,0,0,1,.45-.15,1.27,1.27,0,0,1,.64,0,1.08,1.08,0,0,1,.66.69.83.83,0,0,1,.06.21C859.64,313,859.63,313.11,859.64,313.24Z"/><path class="cls-11" d="M868.81,318.83a1.65,1.65,0,0,1-.1.58,6.92,6.92,0,0,1-.76,1.66,3.88,3.88,0,0,1-.76.91,1,1,0,0,1-.66.25.91.91,0,0,1-.49-.15.69.69,0,0,1-.27-.45,2.28,2.28,0,0,1,0-.69,3.29,3.29,0,0,1,.29-.92,4.32,4.32,0,0,1,.93-1.42,2,2,0,0,1,.6-.47,1.23,1.23,0,0,1,.8-.09.44.44,0,0,1,.35.31.6.6,0,0,1,.06.19A2.83,2.83,0,0,1,868.81,318.83Z"/><g id="o3SyUi.tif"><path class="cls-11" d="M866.37,295l-1.58,0c-.17,0-.34,0-.52,0s-.51,0-.77.05a1.14,1.14,0,0,0-.58.21,5.22,5.22,0,0,0-.6.45l-.79.72c-.43.39-.86.76-1.29,1.14-.35-.14-.45-.44-.45-1.08,0-3.65,0-7.3,0-11a1,1,0,0,1,.68-1.08h.85a19.34,19.34,0,0,1,2.47.51,6.47,6.47,0,0,1,3.49,2.54,1.11,1.11,0,0,1,.22.66V295Z"/><path class="cls-11" d="M876.4,296.67a1.72,1.72,0,0,1,0,.49c-.66-.26-1.31-.53-2-.81s-1.54-.64-2.29-1a5.61,5.61,0,0,0-1.87-.56,3.41,3.41,0,0,0-1.15,0l-.37.07h0c0-2.19,0-4.37,0-6.56a1.52,1.52,0,0,1,.27-.87,6.8,6.8,0,0,1,4.39-2.7c.5-.12,1-.18,1.53-.27h.85a1,1,0,0,1,.68,1.08Q876.4,291.13,876.4,296.67Z"/><path class="cls-11" d="M858.66,297.32a3.15,3.15,0,0,0-.56-.26,4.22,4.22,0,0,0-.85-.21v-9a1,1,0,0,1,.47-.53c.58-.25.88-.08.88.54,0,2.93,0,5.86,0,8.79A3.73,3.73,0,0,0,858.66,297.32Z"/><path class="cls-11" d="M879,288.12c0,3.32,0,6.65,0,10a4.24,4.24,0,0,1-.91-.25l-.56-.22a2.13,2.13,0,0,0,.13-.78c0-3,0-6,0-9,0-.2-.15-.47.12-.6a1,1,0,0,1,1.07.33A.93.93,0,0,1,879,288.12Z"/></g><g id="_7Bt7F9.tif" data-name="7Bt7F9.tif"><path class="cls-11" d="M723.59,312.76l1.55,1.54a.45.45,0,0,1,.14.35c0,.42,0,.84,0,1.27,0,.16,0,.23-.21.22-.44,0-.88,0-1.31,0a.41.41,0,0,1-.31-.14l-3.1-3.15a.45.45,0,0,0-.34-.15h-3a.4.4,0,0,0-.31.13c-1,1.06-2.08,2.11-3.11,3.17a.42.42,0,0,1-.33.14h-1.33c-.12,0-.17,0-.17-.17,0-.46,0-.93,0-1.4a.34.34,0,0,1,.11-.24l1.41-1.4.15-.17a5.82,5.82,0,0,1-1.13-.14,5,5,0,0,1-3.92-4.94c0-3.95,0-7.89,0-11.84a5,5,0,0,1,4.14-5,5.73,5.73,0,0,1,1-.08h10a5.05,5.05,0,0,1,5.15,5.16c0,3.89,0,7.79,0,11.68a5,5,0,0,1-3.88,5A5.44,5.44,0,0,1,723.59,312.76Zm-5.08-8.46h6.55c.16,0,.22,0,.22-.21q0-4.87,0-9.73c0-.19-.06-.22-.22-.22H712c-.18,0-.21.05-.21.22v9.72c0,.19.06.22.23.22Zm-3.39,3.38a1.69,1.69,0,1,0-1.69,1.69A1.71,1.71,0,0,0,715.12,307.68Zm10.15,0a1.69,1.69,0,1,0-1.68,1.7A1.7,1.7,0,0,0,725.27,307.67Z"/><path class="cls-11" d="M720.31,281.47a2.46,2.46,0,0,1-.71,1.73L713.85,289a.42.42,0,0,1-.33.11,6.75,6.75,0,0,0-6.42,4.38,6.49,6.49,0,0,0-.43,2.5.45.45,0,0,1-.14.35l-5.38,5.36a.34.34,0,0,0-.11.33l.51,3.71a.49.49,0,0,1-.15.48c-.49.48-1,1-1.44,1.45-.12.13-.17.13-.25,0l-2.77-5a.67.67,0,0,0-.3-.3q-2.5-1.4-5-2.78c-.17-.09-.16-.14,0-.26l1.53-1.56a.24.24,0,0,1,.25-.09l3.92.58a.28.28,0,0,0,.29-.1l6.29-6.28c.13-.14.09-.17,0-.25l-12.2-6.41c-.15-.08-.17-.12,0-.25.71-.69,1.41-1.39,2.11-2.09a.31.31,0,0,1,.34-.11l10.2,2.36,5,1.16c.14,0,.2,0,.28-.11l6.45-6.45a2.54,2.54,0,0,1,3.33-.21A2.62,2.62,0,0,1,720.31,281.47Z"/></g><g id="nVTTIy.tif"><path class="cls-11" d="M741.33,315.66c0,.38-.1.51-.49.51-4.19,0-8.38,0-12.57,0a.5.5,0,0,1-.55-.37,6.27,6.27,0,0,0-1.31-2.07l.07,0a5,5,0,0,0,3.88-5c0-3.9,0-7.79,0-11.68a5.38,5.38,0,0,0-.11-1.14h9.31a2.26,2.26,0,0,1,1.75,2.32C741.33,304,741.32,309.84,741.33,315.66Z"/><path class="cls-11" d="M751.39,302.92a2.18,2.18,0,0,0-1.95-1c-2,0-3.93,0-5.9,0-.52,0-.67.13-.66.66,0,3.51,0,7,0,10.55,0,.18-.06.37.08.56,0,0,.12,0,.16-.07A5.35,5.35,0,0,1,751.9,316c0,.12.07.23.21.29a3.19,3.19,0,0,0,2.18-.38v-7.29A19.21,19.21,0,0,0,751.39,302.92Zm.33,4.08c-1,0-2,0-3.07,0s-2,0-3.07,0c-.48,0-.61-.15-.59-.61,0-.9,0-1.8,0-2.69,0-.39.12-.51.5-.51,1.32,0,2.64,0,4,0a.89.89,0,0,1,.81.39,30.35,30.35,0,0,1,1.81,2.93C752.29,307,752.09,307,751.72,307Z"/><path class="cls-11" d="M750.76,316.78a4,4,0,1,0-5,4.59c.18.05.38,0,.53.17h1.13c.16-.19.39-.14.58-.2A4.06,4.06,0,0,0,750.76,316.78Zm-4,2.58a1.87,1.87,0,0,1,0-3.74,1.85,1.85,0,0,1,1.87,1.87A1.88,1.88,0,0,1,746.76,319.36Z"/></g><path class="cls-11" d="M914.56,187.47c-.35.4-.13,1.31-1.08,1.18s-1.87-.32-2-1.54c0-.34-.12-.67.29-.81,1.08-.36,1.6-1.57,2.76-1.77.2,0,.47.3.45.65C914.42,185.85,915.16,186.77,914.56,187.47Z"/><path class="cls-11" d="M916.88,181.84a3.77,3.77,0,0,1-.18.38c-.41-.09-1-.06-1.2-.33a1.26,1.26,0,0,1-.14-1.56c.27-.41.69-.41.82,0S916,181.63,916.88,181.84Z"/><path class="cls-11" d="M917.55,184a.89.89,0,0,1-.7.86c-.28-.26-.9-.27-.89-.7,0-.63.74-.48,1.14-.65S917.59,183.69,917.55,184Z"/><path class="cls-11" d="M924,170.15c-.07.38-.51.49-.86.58s-.53-.18-.45.38a2.53,2.53,0,0,1-2,3.16,3.21,3.21,0,0,0-1.75,1.22c-.57-1.38.22-1.9,1.05-2.22,1.23-.46,2.07-1.11,2-2.57,0-.82.79-1.47,1.29-1.12C923.52,169.74,924,169.74,924,170.15Z"/><path class="cls-11" d="M902.64,174.4a.8.8,0,1,1-.8-.8A.8.8,0,0,1,902.64,174.4Z"/><path class="cls-11" d="M919.11,170.61a4,4,0,0,0-1.83-1.48,8.18,8.18,0,0,0-2.61-.4,18.74,18.74,0,0,0-4.55.16,2.66,2.66,0,0,0-.39.11,1.66,1.66,0,0,1-1.69-.26l.16-.26-.16.26-.43-.26a2.8,2.8,0,0,0-.39.67,3.71,3.71,0,0,0,.5,3c.22.4.48.79.73,1.16a12.23,12.23,0,0,1,1.07,1.82c1.13,2.55.71,4.65,0,7.34l-.59-.16c.71-2.65,1.1-4.56.05-6.93a11.86,11.86,0,0,0-1-1.73c-.26-.38-.53-.78-.76-1.2a6.83,6.83,0,0,1-.44-.94,21.25,21.25,0,0,0-8.25-1l-.37,0c-1.78.19-3.81.42-5.1-.91a6.75,6.75,0,0,1-.9-1.31,4.13,4.13,0,0,0-1.09-1.45l.13-.18a6,6,0,0,0-.55.41c-.45.36-.14.89.22,1.28a.22.22,0,0,1,.06.22,1.48,1.48,0,0,0-.27.82l.13-.23c.53.31,1.22.63,1.88.94s1.38.65,1.93,1a5.46,5.46,0,0,0,1.67.72,5,5,0,0,0,1.79-.12l.79-.12a9.84,9.84,0,0,1,3.18.29c1.47.38,2.37,1,2.59,1.89.4,1.54-1.53,3.27-2.69,4.29l-.34.31a10.91,10.91,0,0,1-1.06.84,10.61,10.61,0,0,0-1,.79l-.18-.19a.42.42,0,0,1,0,.2c-.16,1.26.78,2.11,1,3.2.06.31.17.67.57.69s.5-.36.71-.58c.57-.61.12-1.57.56-2a11.26,11.26,0,0,1,2.81-2.46c.34-.19.55-.24.78.17s.79.92.76,1.61c0,.26.05.75.38.62,1.13-.41,1,.7,1,1a6.47,6.47,0,0,0,.81,3.47,6.52,6.52,0,0,0-1.18-.81.49.49,0,0,0-.56.1c-.14.14-.08.3,0,.44,1.55,1.84,2.32,4.6,5.4,4.71.44,0,1,.65,1.24,0,.16-.45-.71-.34-1-.69-.07-.1-.3-.09-.46-.11-.67-.05-1.48.11-1.44-1,0-.74-1-1-.89-1.77a2.28,2.28,0,0,0-.81-2.48c-.4-.32-.87-1-.35-1.48s1,.4,1.14.71c.41.73.55.5,1,.06,1.23-1.14,1.33-1.69.25-3-.23-.27-.45-.46-.21-.83s.38-.65.6-.51c.82.48,1.29-.22,1.9-.43,2.22-.82,3-2.3,2.32-4.52-.07-.23-.29-.48-.08-.69,1.08-1,.08-1-.67-1.15,1-.66,2.08-.31,2.26.68.11.58.17,1.11.93.92.94-.24.45-.85.26-1.35A1.57,1.57,0,0,1,919.11,170.61Zm-3.52-14.4a.8.8,0,1,0,.8.8A.8.8,0,0,0,915.59,156.21ZM899,158.64a.79.79,0,0,0-.76.56,1.73,1.73,0,0,0,.38.43,5,5,0,0,0,.8.48h0a.81.81,0,0,0,.38-.68A.8.8,0,0,0,899,158.64Zm1.86,3.39a2.28,2.28,0,0,0-.66-.82c-.29.5-.61,1-.94,1.46.33.11.66.24,1,.37s.79.35,1.11.51l.55.3,0,0,.22.13A9.94,9.94,0,0,1,900.87,162Zm6.22,6.12a22.78,22.78,0,0,1-3.76-2.88,1.92,1.92,0,0,1-.76-.24,3.45,3.45,0,0,1-.53-.37,4.32,4.32,0,0,0-.42-.27l0,0-.51-.28L900,163.6a10.15,10.15,0,0,0-1.86-.62,12.46,12.46,0,0,0-3.17-.08l0-.61a13.29,13.29,0,0,1,3.33.09l.34.09c-.27-.39-.52-.79-.76-1.2a6.26,6.26,0,0,1-.51-1.08,2,2,0,0,1-.14-.67,1.93,1.93,0,0,1,.2-.8h0a5.88,5.88,0,0,1-.16-1.2l-.52-.14c-1.54-.42-2-.07-2.13,1.59,0,.4,0,.81,0,1.21-.14,1.15.55,2.24.22,3.38a2.5,2.5,0,0,0,.17,1.88c.34.67.51,1.23-.67,1.1-.55-.06-1.13-.07-1.68-.17a1.74,1.74,0,0,0-1.05.15,5.12,5.12,0,0,1,1.13,1.54,6.07,6.07,0,0,0,.8,1.18c1.09,1.12,3,.92,4.61.73l.36,0a21.93,21.93,0,0,1,8.12.93,3.28,3.28,0,0,1,.11-1.93A3.46,3.46,0,0,1,907.09,168.15Zm8.5-11.94a.8.8,0,1,0,.8.8A.8.8,0,0,0,915.59,156.21Zm-7.89,7.28a.8.8,0,0,0,0,1.6.8.8,0,1,0,0-1.6Zm-4.61,12.59h0A2.72,2.72,0,0,0,904,174c-.22-.84-1.45-1.28-2.17-1.47a9.61,9.61,0,0,0-2.94-.27l-.76.12a5.83,5.83,0,0,1-2,.12,6,6,0,0,1-1.87-.79c-.53-.31-1.22-.64-1.88-.95s-1.2-.56-1.72-.84c.15.59.58,1.15.73,1.77-.66.37-1.9-.6-1.89,1a1.7,1.7,0,0,0-.59,0c-.69.19-1.9-.09-2,.47-.21,1.18-.88,2.43-.23,3.66.91,1.71,2.19,3.22,2.74,5.13.14.53.49.54.94.39a10.21,10.21,0,0,0,3.67-2.11,3,3,0,0,0,.94-1.25c.21-.68-.62-.74-.74-1.18h2.24a6.5,6.5,0,0,1,2.64,1.86,11.47,11.47,0,0,1,1-.8,10.54,10.54,0,0,0,1-.8l.35-.31,0,0c-.31-.44-.61-.89-.88-1.36a6.68,6.68,0,0,1-.51-1.08,1.65,1.65,0,0,1-.13-.66,1.81,1.81,0,0,1,3.58-.38,1.77,1.77,0,0,1-.05.94A6.39,6.39,0,0,1,903.09,176.08Zm35.59-17.23a18.92,18.92,0,0,1-2.92-1.37,8.93,8.93,0,0,0-1-.39,4.52,4.52,0,0,0-1.29-.2l-.3,0c-.37.07-.69.26-1,.34a.9.9,0,0,1-.28,0c-2,0-3.85-1.11-5.9-1.1-.2,0-.41-.23-.62-.32-1-.41-2.33-1-3.06-.42-1.12.92-2.4.2-3.43.84-.14.09-.41,0-.46-.27-.24-1-.9-1.66-1.53-1.28-1.56.93-2.89-.73-4.37-.07.3-.53.92-.73.59-1.44s-.86-.43-1.34-.56c-1.4-.41-2.71-.54-3.89.52a.64.64,0,0,1-.48.07c-2.12-.48-3.48,1.48-5.39,1.68-.06,0-.12.11-.16.17-.71,1.06-1.63.78-2.49.34-1-.52-1.83-.15-2,1a1.16,1.16,0,0,0,0,.32h.42a8.05,8.05,0,0,0,.06,1.31,1.68,1.68,0,0,1,.75-.35,1.81,1.81,0,0,1,2.14,1.37,1.71,1.71,0,0,1-.06,1,4.53,4.53,0,0,1-.23.57,2.73,2.73,0,0,1,.92,1.1A9.38,9.38,0,0,0,903,164a20.71,20.71,0,0,0,4.52,3.66l0,0c-.34-.49-.68-1-1-1.52A7.15,7.15,0,0,1,906,165a2.1,2.1,0,0,1-.13-.67,1.81,1.81,0,0,1,3.58-.37,1.67,1.67,0,0,1-.05.94,6.34,6.34,0,0,1-.46,1c-.11.18-.21.36-.32.53a3.79,3.79,0,0,0,.43-.56,6.44,6.44,0,0,0,.7-2.13,8.81,8.81,0,0,1,.57-1.92,4.33,4.33,0,0,1,4.49-2.39,7.23,7.23,0,0,1-.4-.66,7.15,7.15,0,0,1-.52-1.08,2.1,2.1,0,0,1-.13-.67,1.81,1.81,0,0,1,3.58-.37,1.77,1.77,0,0,1-.05.94,6.39,6.39,0,0,1-.47,1c-.24.43-.5.84-.78,1.25l.23.12a4,4,0,0,0,.85.39,4.1,4.1,0,0,0,1.93-.17l6.65-1.71a11,11,0,0,1,4.94-.48,8.59,8.59,0,0,1,2.25.89l.89.5c.23.13.47.27.71.39s.5.28.75.4l-.26.55-.84-.44-.55-.31h0l-.11-.06a7.77,7.77,0,0,0-7.63-.84l-6.65,1.7A4.37,4.37,0,0,1,917,161a4.1,4.1,0,0,1-1-.44l-.28-.15-.11.16h0l-.16-.23a.44.44,0,0,1-.08-.11,3.7,3.7,0,0,0-4.47,1.88,8.27,8.27,0,0,0-.51,1.79,7.23,7.23,0,0,1-.78,2.32,7.81,7.81,0,0,1-1.13,1.3q-.24.23-.45.45l.35.21c.64.39.82.33,1.17.21a2.31,2.31,0,0,1,.46-.13,19.13,19.13,0,0,1,4.71-.18,8.89,8.89,0,0,1,2.8.44,4.56,4.56,0,0,1,2.12,1.73l-.37.25a.47.47,0,0,1,.15-.06c2.15-.66,2.73-2.37,3.19-4.19.16-.63,0-1.39-1-1.11-.53.15-.6-.07-.41-.48.36-.8,2.21-1.68,3.05-1.85,1.11-.22,2.42.81,3.34-.6.22-.33.64-1,1.25-.35s-.25.79-.51,1a2.65,2.65,0,0,0-.72,3.37c.11.24.4.53.5.31.53-1,1.81-1.51,2-2.76s.59-1.78,1.82-1.51c1,.21,1.41-.48,2-.84s1.66.05,1.57-1.32c-.05-.63.87-.67,1.49-.44.23.08.4.29.61.39.74.32.91-.5,1.36-.75C939.19,159.24,938.89,158.9,938.68,158.85Z"/><path class="cls-11" d="M945.09,169.49a31.94,31.94,0,1,0-32,33.07A31.92,31.92,0,0,0,945.09,169.49Zm-19.31-26.15a26.85,26.85,0,0,1,5.32,3.2c-1.19.53-2.07.65-2.94-.48a21.76,21.76,0,0,0-2.59-2.48Zm1.09,4.13a45.37,45.37,0,0,1-5.38.81c-.55.1-.64-.31-.79-.71a25.7,25.7,0,0,0-3.15-6.35A19.59,19.59,0,0,1,926.87,147.47ZM915.71,142a18.58,18.58,0,0,1,3,5.69c.27.75-.1.82-.67.82h-9.74c-.49,0-.9,0-.64-.74a19.26,19.26,0,0,1,3-5.71C912.23,140.11,914.09,140.1,915.71,142Zm-10,5.51a.91.91,0,0,1-1.16.74c-1.37-.19-2.74-.33-4.1-.54-.57-.07-1.09-.24-.41-.94a20.37,20.37,0,0,1,8.79-5.62A21.67,21.67,0,0,0,905.72,147.54Zm-5.05-4.14c-1,1.08-2.1,2.11-3,3.25-.74.91-1.45-.09-2.22,0A17,17,0,0,1,900.67,143.4Zm-13.9,12.86a33,33,0,0,1,6.13-7.83.81.81,0,0,1,.88-.26l.24,0c2.38.66,2.05.42,1,2.16a31.79,31.79,0,0,0-3.54,8.13c-.25.94-.6,1.17-1.51.74a27.63,27.63,0,0,1-2.82-1.43A1,1,0,0,1,886.77,156.26Zm2.29,32.18c1.84.51,3.39.93,5,1.34a1.15,1.15,0,0,1,.72.61,33.75,33.75,0,0,0,5.91,7.41A29.31,29.31,0,0,1,889.06,188.44Zm8,2.06c2.64.26,5,.49,7.31.7a.81.81,0,0,1,.78.64,30.09,30.09,0,0,0,3.31,7.93C903.52,198.24,900,195,897.09,190.5ZM917.7,200a32.62,32.62,0,0,0,2.43-4.95c.29-1,.65-1.92,1-2.89a1.06,1.06,0,0,1,1-.91c2.32-.21,4.64-.45,7.19-.7A21.79,21.79,0,0,1,917.7,200Zm4.36-11.64a82.6,82.6,0,0,0,1.44-9.76c.08-.7.21-1.06,1-1.14a79.2,79.2,0,0,0,8.93-1.23c.76-.17.94,0,.8.78a39.34,39.34,0,0,1-3.33,10.54c-.21.4-.37.76-.92.84-2.38.32-4.74.68-7.11,1C922,189.57,921.88,189.1,922.06,188.34Zm3.68,9.48c1-1.19,2.19-2.15,3.08-3.41a12,12,0,0,0,1.43-2c1.24-3.1,4.16-3,6.93-3.9A29.07,29.07,0,0,1,925.74,197.82Zm15.8-17.27c-.27.76-.66,1.48-.89,2.26-1.13,3.67-4.43,3.92-7.52,4.89.56-1.76,1.22-3.28,1.71-4.86a49,49,0,0,0,1.35-6.18,1.45,1.45,0,0,1,1.23-1.4,20.77,20.77,0,0,0,5.65-2.21A27,27,0,0,1,941.54,180.55Zm.71-9.38a16.91,16.91,0,0,1-5,2.21c-.78.26-.76-.32-.76-.83,0-1.68,0-3.34,0-5a27.18,27.18,0,0,0-.45-4.12c-.12-.74-.39-1.11-1.18-1s-.83.64-.71,1.27a44,44,0,0,1,.51,9.24,1.16,1.16,0,0,1-1.09,1.3c-3,.58-6,1-9,1.32-.28,0-.59.08-.75-.25s.07-1-.37-.9a4.44,4.44,0,0,0-1.51.69c-1.28.66-2.39,1.93-4.08,1-.43-.25-.74.08-.74.5s.13,1.18.9,1.2c.93,0,1.87,0,2.81-.05.63,0,.84.2.79.86a67.27,67.27,0,0,1-1.46,9.88c-.19.85-.57,1.16-1.41,1.11s-1.79,0-2.68.07c-.4,0-.77,0-1,.52-.47,1.32-.42,1.45,1,1.44a15.94,15.94,0,0,0,2.07-.1c.89-.12,1.28,0,.9,1.05a21.18,21.18,0,0,1-3.16,6.41c-1.79,2.19-3.71,2.16-5.43-.06a22.72,22.72,0,0,1-3.16-6.56c-.29-.82.11-.88.75-.86,1.2,0,2.4,0,3.6,0l.12-.34a3.34,3.34,0,0,1-2.85-1.36,1.05,1.05,0,0,0-.8-.21c-1.42.23-1.8-.56-2-1.77-.31-1.93-.77-3.83-1-5.77,0-.46.22-1.28-.57-1.24s-1.08.71-1.19,1.37a4.81,4.81,0,0,0,.09,1.46c.26,1.6.5,3.21.84,4.8.19.88-.16,1-.87.88q-3.37-.49-6.76-1a1.59,1.59,0,0,1-1.36-1,35.09,35.09,0,0,1-1.64-4.08c-.13-.46-.26-1-1-.69s-1.17.46-.84,1.3c.44,1.17.87,2.36,1.31,3.55a8.24,8.24,0,0,1-7.57-4.93,31,31,0,0,1-2.23-8.34c0-.3-.25-.69.08-.89s.51.14.77.22c.45.13.95,1,1.32.23.28-.56.59-1.46-.5-1.93a2.93,2.93,0,0,1-1.84-3.43,38.27,38.27,0,0,1,1.81-8.2c.32-.94.76-1.1,1.58-.5a9.67,9.67,0,0,0,3.07,1.47c.82.25,1.15.59.87,1.48a8.79,8.79,0,0,0-.34,2c0,.39-.39,1.08.3,1.07a1.55,1.55,0,0,0,1.62-1.05c.13-.55.12-1.13.24-1.69.06-.29,0-.75.44-.78,1.08-.08.76-.92.6-1.35a3.93,3.93,0,0,1,.23-3,38.82,38.82,0,0,1,3.9-7.85,1.25,1.25,0,0,1,1.49-.64c1.64.31,3.29.56,5,.72.81.08.91.35.76,1.08-.09.38-.59,1.05.14,1.23s1.48.05,1.62-.73c.24-1.37,1.12-1.33,2.15-1.25a68.43,68.43,0,0,0,9.39,0c1.2-.09,1.72.35,1.91,1.44.12.68.27,1.35.45,2,.11.38,0,1,.76.8s1.3-.36,1.07-1.3c-.2-.78-.31-1.59-.52-2.38-.15-.57,0-.78.59-.85,1.69-.2,3.4-.43,5.07-.74a1.36,1.36,0,0,1,1.59.73,26.37,26.37,0,0,1,2.58,4.83,1.13,1.13,0,0,0,1.28.84,4.46,4.46,0,0,0,.51-.07c.32-.06.44-.21.46-.38a1.62,1.62,0,0,0-.27-.78,47.77,47.77,0,0,0-2.29-4.44c-.25-.39-.88-.75-.46-1.35a3,3,0,0,1,2.63-.4,30.08,30.08,0,0,1,6.21,7.93c.12.23.25.47,0,.68-.82.88.09,1.34.55,1.59a2.29,2.29,0,0,1,1.08,1.36,29.73,29.73,0,0,1,1.94,9.27A2.17,2.17,0,0,1,942.25,171.17Z"/><path class="cls-1" d="M796.61,162.58a39.73,39.73,0,1,0,39.72,39.73A39.72,39.72,0,0,0,796.61,162.58Zm0,71.54a31.82,31.82,0,1,1,31.81-31.81A31.82,31.82,0,0,1,796.61,234.12Z"/></svg>