<svg id="Layer_1" data-name="Layer 1" xmlns="http://www.w3.org/2000/svg" viewBox="0 0 1646 553"><defs><style>.cls-1{fill:#0c2d4b;}.cls-2{fill:#0d3150;}.cls-3{fill:#0e2f48;}.cls-4{fill:#008fc0;}.cls-5{fill:#062d4b;}.cls-6{fill:#fd9000;}.cls-7{fill:#008037;}.cls-8{fill:#ff9000;}.cls-9{fill:#ff001a;}.cls-10{fill:#ff0016;}.cls-11{fill:#fff;}.cls-12{fill:#0c3250;}</style></defs><polygon class="cls-1" points="896.03 294.29 886.08 212.49 942.09 159.56 943.98 161.56 888.97 213.53 898.75 293.95 896.03 294.29"/><rect class="cls-2" x="870.04" y="213.78" width="2.74" height="88.74" transform="translate(13.82 559.05) rotate(-35.84)"/><path class="cls-1" d="M898.77,296H747.84L701.19,159.89,823.52,75.2,945,159.9Zm-149-2.74h147L941.73,161,823.51,78.54,704.46,161Z"/><polygon class="cls-2" points="896.78 295.35 823.71 259.55 751.83 295.35 750.61 292.89 823.7 256.5 897.99 292.89 896.78 295.35"/><polygon class="cls-2" points="705.87 161.9 705.27 159.22 784.71 141.64 823.46 74.22 865.91 141.64 943.34 159.22 942.73 161.9 864.2 144.06 823.57 79.53 786.48 144.06 785.89 144.19 705.87 161.9"/><polygon class="cls-1" points="752.58 294.29 749.86 293.95 759.63 213.53 704.63 161.56 706.51 159.56 762.52 212.49 752.58 294.29"/><circle class="cls-3" cx="761.08" cy="213.01" r="6.97"/><circle class="cls-4" cx="785.59" cy="142.85" r="6.97"/><circle class="cls-5" cx="865.05" cy="142.85" r="6.97"/><line class="cls-2" x1="789.7" y1="183.21" x2="702.96" y2="160.56"/><rect class="cls-2" x="744.96" y="127.06" width="2.74" height="89.65" transform="translate(391.45 850.57) rotate(-75.36)"/><rect class="cls-2" x="857.78" y="170.26" width="86.7" height="2.74" transform="translate(-13.95 235.82) rotate(-14.8)"/><line class="cls-2" x1="748.61" y1="294.12" x2="802.79" y2="220.51"/><rect class="cls-2" x="730" y="255.94" width="91.4" height="2.74" transform="translate(108.6 729.43) rotate(-53.64)"/><rect class="cls-1" x="822.33" y="115.17" width="2.74" height="43.11"/><path class="cls-2" d="M799.11,182.45h13.61v3.66h-4.44v16.8h-4.72v-16.8h-4.45Z"/><path class="cls-2" d="M815.29,182.45H820v16.74h6.69v3.72H815.29Z"/><path class="cls-2" d="M828.9,182.45h6.61l3.65,13.7,3.72-13.7h6.66v20.46h-4.16v-17l-4.78,17h-2.9l-4.84-17v17h-4Z"/><circle class="cls-6" cx="823.84" cy="77.72" r="42.12"/><circle class="cls-4" cx="943.03" cy="160.56" r="42.12"/><circle class="cls-2" cx="897.39" cy="294.12" r="42.12"/><circle class="cls-2" cx="748.61" cy="294.12" r="42.12"/><circle class="cls-7" cx="702.96" cy="160.56" r="42.12"/><circle class="cls-8" cx="887.52" cy="213.01" r="6.97"/><circle class="cls-2" cx="863.86" cy="247.67" r="6.97"/><circle class="cls-2" cx="784.4" cy="246.82" r="6.97"/><circle class="cls-2" cx="760.73" cy="175.82" r="6.97"/><circle class="cls-9" cx="887.52" cy="175.82" r="6.97"/><circle class="cls-10" cx="823.7" cy="131.86" r="6.97"/><circle class="cls-8" cx="823.7" cy="259.5" r="6.97"/><path class="cls-11" d="M681.07,161.26a5.34,5.34,0,0,0,1.2-.17,8.17,8.17,0,0,0,2.59-1,4.45,4.45,0,0,0,1.7-1.82,2.65,2.65,0,0,0,.26-1.64,3.6,3.6,0,0,0-1.05-1.94,5.58,5.58,0,0,0-1.2-.89,7.81,7.81,0,0,0-1.32-.59,17.13,17.13,0,0,0-1.85-.44,1.13,1.13,0,0,0-1.28.67,2,2,0,0,0-.07.88c0,.23,0,.29-.29.29-1,0-2.06,0-3.1,0a.61.61,0,0,0-.62.69.57.57,0,0,0,.63.6h3.16c.15,0,.22,0,.21.19,0,.64,0,1.27,0,1.9,0,.14,0,.18-.17.18l-1.08,0c-.68,0-1.37,0-2.06,0a.73.73,0,0,0-.45.14.74.74,0,0,0-.19.83.68.68,0,0,0,.63.36h3c.25,0,.31.07.28.29s0,.36,0,.53A1,1,0,0,0,681.07,161.26Z"/><path class="cls-11" d="M678.64,149.87a3.82,3.82,0,0,1,2.24,1.31c.26.3.46.64.71.95s.34.37.61.3.35-.47.06-.78a15,15,0,0,0-1.17-1.22,3.33,3.33,0,0,0-1.15-.7,17.65,17.65,0,0,1-2.24-.94,13.13,13.13,0,0,1-2-1.19,7.24,7.24,0,0,1-1.55-1.43c.42.32.82.65,1.26.94a14.77,14.77,0,0,0,4.15,1.77c.8.22,1.06-.29,1-.76a8.22,8.22,0,0,0-.41-1.83,3.76,3.76,0,0,0-1.3-1.73,4.75,4.75,0,0,0-2-.77,18,18,0,0,0-1.94-.24c-.69,0-1.37-.12-2.06-.18a8.85,8.85,0,0,1-1.77-.3,5.87,5.87,0,0,1-1.49-.68,9.24,9.24,0,0,0,.57,2.79,6.61,6.61,0,0,0,2,2.9,7.28,7.28,0,0,0,4,1.56C677,149.72,677.84,149.73,678.64,149.87Z"/><path class="cls-11" d="M729.58,162.55a5.4,5.4,0,0,0-1.86-1.52,15.16,15.16,0,0,0-4.26-1.37c-.69-.18-1.38-.29-2.07-.47a11.51,11.51,0,0,1-2.44-.83,14.59,14.59,0,0,1-3.07-2.12c-.4-.48-.88-.87-1.31-1.31a32.56,32.56,0,0,0-2.46-2.39,11.52,11.52,0,0,0-1.39-1,2.12,2.12,0,0,0-.52-.34l-.06,0-.22-.15h0a.87.87,0,0,0-.26-.16c-.22-.11-.44-.25-.67-.37a16.64,16.64,0,0,0-1.56-.67,14.6,14.6,0,0,0-2.4-.62,2.83,2.83,0,0,0-.75-.14c-.47-.08-.91-.12-1.38-.16a10.21,10.21,0,0,0-1.56-.05c-.51,0-1,0-1.55.05s-1.28.11-1.91.22c-1.15.18-2.28.4-3.42.65a1.77,1.77,0,0,1-.4.08,0,0,0,0,0,0,0s-.08,0-.13,0l-2.47.59c-.88.21-1.78.41-2.67.56l-1.46.27a1.06,1.06,0,0,0-.25,0,16.51,16.51,0,0,1-2.1.17h-1.59a.46.46,0,0,0-.36.13.65.65,0,0,0,.26,1.12,8,8,0,0,1,2.64,1.45,6.22,6.22,0,0,1,1,1.28,3.1,3.1,0,0,1,.13,2.91,5.07,5.07,0,0,1-2.35,2.38,9.34,9.34,0,0,1-2.68.91,2.19,2.19,0,0,1-1.68-.13c-.1-.06-.11,0-.11.08a8,8,0,0,0,0,2.24,5.75,5.75,0,0,0,1.65,3.31.76.76,0,0,0,.73.26.74.74,0,0,0,.47-.59,5.48,5.48,0,0,1,.54-1.41,7.08,7.08,0,0,1,2.62-2.78,6.44,6.44,0,0,1,2.8-1,5.35,5.35,0,0,1,.89-.08,8.93,8.93,0,0,1,1.17.1,7.28,7.28,0,0,1,2.54.86,6.24,6.24,0,0,1,2.26,2.13,7.75,7.75,0,0,1,1,3.21.9.9,0,0,0,.9.85c1.45,0,2.91,0,4.36,0a.08.08,0,0,0,.06,0h7.93a.68.68,0,0,0,.64-.66,6.39,6.39,0,0,1,.64-2.41,10.27,10.27,0,0,1,1.1-1.7,7.19,7.19,0,0,1,3.22-2.06,9,9,0,0,1,1.24-.24,6.24,6.24,0,0,1,2.24.08,9.1,9.1,0,0,1,1.86.64c0,.07.08.08.12.1a6.85,6.85,0,0,1,1.52,1.1,7.1,7.1,0,0,1,1.2,1.57,6.81,6.81,0,0,1,.91,2.71.59.59,0,0,0,.61.58,3.84,3.84,0,0,0,1.12-.22,5.55,5.55,0,0,0,2-1.11A4.37,4.37,0,0,0,730,165,2.63,2.63,0,0,0,729.58,162.55Zm-22.11-5.43c-2.25,3.16-4.51,6.31-6.76,9.49,0-.16.06-.27.1-.42a.11.11,0,0,0,0-.09V166s0,0,0,0,0,0,0-.05h0a6.28,6.28,0,0,0,.22-.7v-.1c0-.06,0-.13.06-.16s0,0,0,0a.4.4,0,0,0,.08-.23v0a6.55,6.55,0,0,1,.3-1c.07-.22.13-.43.19-.65a1,1,0,0,0,0-.12c.23-.73.47-1.45.69-2.17.11-.3.19-.61.29-.91.05-.13.05-.21-.13-.19-.61,0-1.21.08-1.82.12a6.31,6.31,0,0,0-.88.05c-.11,0-.15,0-.11-.14l.72-3.33c.24-1.1.51-2.2.73-3.3.07-.34.3-.24.48-.28.38,0,.78-.06,1.17-.12l0,0h0v0s0,0,0,0h0a.54.54,0,0,0,.35,0h.25a2.33,2.33,0,0,0,.53-.06c.13,0,.27,0,.4,0a.24.24,0,0,0,.13-.05c.45,0,.88-.1,1.36-.11a5.38,5.38,0,0,1-.47.89c-.35.67-.71,1.33-1.07,2s-.64,1.18-1,1.77c-.06.15-.1.21.11.21.86,0,1.73-.08,2.57-.11a6.21,6.21,0,0,0,1.23-.08s0,0,0,0A.29.29,0,0,0,707.47,157.12Z"/><path class="cls-11" d="M723,166.32a5.81,5.81,0,0,0-1.55-2,5.1,5.1,0,0,0-1.87-1,5.35,5.35,0,0,0-.69-.17,5.24,5.24,0,0,0-2.23,0,5.59,5.59,0,0,0-3,1.71,5.9,5.9,0,0,0-1.26,2.27,5.61,5.61,0,0,0-.14,2.24,5.41,5.41,0,0,0,.67,2,5,5,0,0,0,1.16,1.45,6,6,0,0,0,1.14.8,1.13,1.13,0,0,1,.22.11,5.15,5.15,0,0,0,1.87.5,5.64,5.64,0,0,0,3.47-.78,5.72,5.72,0,0,0,2.37-2.85,5.32,5.32,0,0,0,.32-2.44A6,6,0,0,0,723,166.32Zm-5.77,5.26a5.44,5.44,0,0,1-1.13-.41h0c0-.12-.1-.16-.16-.24a2.89,2.89,0,0,1-1-2.88,3,3,0,0,1,3.31-2.35.41.41,0,0,0,.27,0h0a1.66,1.66,0,0,0,.54.14s0,.05.05.05h0c0,.1.14.13.22.18a3,3,0,0,1,1.55,2.35A3,3,0,0,1,717.22,171.58Z"/><path class="cls-11" d="M695.37,167.39a5.76,5.76,0,0,0-2.12-3.23,2.78,2.78,0,0,0-.92-.52.11.11,0,0,0-.09,0,.85.85,0,0,0-.39-.16,4.73,4.73,0,0,0-1.9-.37,6.44,6.44,0,0,0-.75.05,5.35,5.35,0,0,0-2.72,1.07,5.52,5.52,0,0,0-1.71,2.06,5.64,5.64,0,0,0,.13,5.09,5.7,5.7,0,0,0,2.24,2.25c.1.09.22.09.32.14a5.62,5.62,0,0,0,7.61-2.86A5.25,5.25,0,0,0,695.37,167.39Zm-4.15,4a3.17,3.17,0,0,1-2.66,0c-.06,0-.14-.09-.22-.06s0,0,0,0a4.13,4.13,0,0,1-1.08-1.16,2.93,2.93,0,0,1,.62-3.7,2.72,2.72,0,0,1,1.49-.7,3.73,3.73,0,0,1,1.29,0l0,0c0,.1.11.1.17.11a3,3,0,0,1,.39,5.52Z"/><path class="cls-11" d="M681.75,150.49a1.18,1.18,0,0,0,.23-.27,2.39,2.39,0,0,1,2-1.14,6,6,0,0,0,1.82-.32,3.48,3.48,0,0,0,2.16-2.44,5.51,5.51,0,0,0,.19-1.16h-.07a4.19,4.19,0,0,1-2,.55,16.83,16.83,0,0,0-1.74.19,2.18,2.18,0,0,0-1.6,1,3.18,3.18,0,0,0-.37,1.24c-.08.44.17.63.55.52a9.07,9.07,0,0,0,1.32-.48,6.92,6.92,0,0,0,1.15-.68.49.49,0,0,1-.19.24,9.4,9.4,0,0,1-2.53,1.37,3.12,3.12,0,0,0-1.26,1.13.22.22,0,0,0,.05.3C681.57,150.61,681.67,150.56,681.75,150.49Z"/><path class="cls-11" d="M840,94l-4-15c-.12,0-.22.1-.32.13a2.11,2.11,0,0,1-1.62,0,23.75,23.75,0,0,1-8.31-5l0,0a1.51,1.51,0,0,1,0,.3c0,.38-.12.43-.42.43-.8,0-1.59,0-2.39,0-.33,0-.47-.09-.44-.46.07-1.35.11-2.72.16-4.09h0c0-.16,0-.33,0-.5a12.43,12.43,0,0,1-1-5.09c0-2.44,0-4.89,0-7.34H818q-1.69,6.47-3.4,12.93-3.46,13.25-7,26.49a.9.9,0,0,0-.05.46H821.6c0-1,.09-2,.1-3,0-.26.1-.34.36-.34h4.14c.27,0,.36.08.37.34,0,1,0,2,.09,3h14.07A23.42,23.42,0,0,0,840,94Zm-14.12-5.14c-1.17,0-2.35,0-3.54,0-.3,0-.4-.09-.39-.41q.21-4.19.36-8.37c0-.34.12-.44.44-.42.94,0,1.89,0,2.82,0,.32,0,.44.08.46.42,0,1.4.1,2.82.17,4.23h0c.07,1.35.1,2.7.19,4C826.37,88.79,826.25,88.89,825.85,88.89Z"/><path class="cls-11" d="M849.12,58.37c0-1.62,0-3.24,0-4.85a2,2,0,0,0-2-2.27,26.75,26.75,0,0,1-2.68-.45,19.67,19.67,0,0,1-6.11-3,2.18,2.18,0,0,0-2.84,0,20.53,20.53,0,0,1-3.55,2,16.31,16.31,0,0,1-5.54,1.39,1.76,1.76,0,0,0-1.64,1.56c0,.13,0,.28,0,.42s0,.41,0,.61c0,2.25,0,4.5,0,6.75v1.08a12.33,12.33,0,0,0,.17,2.3,1.42,1.42,0,0,0,0,.22,9.83,9.83,0,0,0,.37,1.39l.15.4a12.15,12.15,0,0,0,3,4.38,21.11,21.11,0,0,0,6.41,4.18s0,0,.07,0l1.2.47a2.07,2.07,0,0,0,.58.15,1.89,1.89,0,0,0,.93-.12l.24-.1c.89-.37,1.77-.76,2.62-1.18a18.5,18.5,0,0,0,5.11-3.66A13.65,13.65,0,0,0,847.94,67a8.8,8.8,0,0,0,1-3A40.5,40.5,0,0,0,849.12,58.37Zm-4.3,8.09a12.11,12.11,0,0,1-1.43,1.74,15.56,15.56,0,0,1-4,2.88c-.71.37-1.45.71-2.21,1a1.43,1.43,0,0,1-.26,0V62.2c0-.21,0-.41,0-.61-.19-.12-.39-.05-.58-.05l-.83,0h-4c-1.06,0-2.15,0-3.21,0-.49,0-.61-.14-.59-.61,0-1.22,0-2.44,0-3.65,0-.44,0-.9,0-1.36V54.53c0-.3.06-.45.38-.49a19.73,19.73,0,0,0,8.51-3.34l.24-.14s.07,0,.1,0,0,.2,0,.3V61.18c0,.14,0,.27,0,.41a.38.38,0,0,1,.27-.09l.24,0c2.75,0,5.49,0,8.25,0,.46,0,.51.16.52.56A7,7,0,0,1,844.82,66.46Z"/><path class="cls-11" d="M816.34,57.28h-1.82c0,.16-.1.32-.16.47q-6.93,16.94-13.87,33.86c-.74,1.82-1.51,3.63-2.26,5.44,0,.22.2.1.3.1h4.55a17.74,17.74,0,0,1,.73-2.35Q810,76.11,816.28,57.42Z"/><path class="cls-11" d="M849.84,96.65q-4.19-10.23-8.39-20.47a23.92,23.92,0,0,1-2.69,1.57q3.16,9.44,6.3,18.87a.9.9,0,0,1,.12.53h4.56c.1,0,.26.12.3-.1S849.9,96.79,849.84,96.65Z"/><path class="cls-11" d="M895.67,311.3a9.44,9.44,0,0,0,.63-1.33,6.94,6.94,0,0,0,.39-1.42,2.86,2.86,0,0,0-.05-1.2,1.78,1.78,0,0,0-.12-.29,1.1,1.1,0,0,0-.95-.62,1.92,1.92,0,0,0-1.38.39,4.89,4.89,0,0,0-.88.88,6,6,0,0,0-.49.71.32.32,0,0,1-.08.09s0-.07,0-.11a4.37,4.37,0,0,0,.34-1.06,2.88,2.88,0,0,0,0-1.17,1.45,1.45,0,0,0-1.15-1.07,2.06,2.06,0,0,0-1.29.25,4.35,4.35,0,0,0-1.24,1.19.07.07,0,0,1,0-.08,3.48,3.48,0,0,0,.25-1.14,1.48,1.48,0,0,0-1.16-1.59,2,2,0,0,0-1.6.25,4.67,4.67,0,0,0-1,.89,6.34,6.34,0,0,0-.51.68s0,.06-.06.07,0,0-.05,0c-.59-.55-1.22-1.06-1.86-1.56-.82-.65-1.65-1.28-2.49-1.91a.66.66,0,0,0-.27-.12l-1.63-.4c-.11,0-.11,0-.1-.13,0-.44.08-.89.15-1.33a17.19,17.19,0,0,1,.59-2.65,18,18,0,0,1,3.2-6.11,14,14,0,0,1,1.33-1.45.2.2,0,0,1,.23-.05l1.45.45a1.83,1.83,0,0,0,.4.05,5.45,5.45,0,0,1,1.39.28,2.89,2.89,0,0,1,.94.52c.16.14.12.11,0,.22-.49.47-1,.93-1.47,1.38a1.83,1.83,0,0,0-.51.8,2.49,2.49,0,0,0,0,1.38,1.64,1.64,0,0,0,.72,1,3.15,3.15,0,0,0,1.22.48,4.51,4.51,0,0,0,2.61-.35l.17-.11,2.29-1.8a3.43,3.43,0,0,1,1.28-.64,5,5,0,0,1,1.59-.14A7.36,7.36,0,0,1,899,294a8.2,8.2,0,0,1,1.45.8L902.3,296c2.77,1.85,5.55,3.71,8.26,5.66.88.63,1.76,1.28,2.61,2,.24.2.49.41.71.63a1.79,1.79,0,0,1,.52,1.45,2.14,2.14,0,0,1-.24.74,2.62,2.62,0,0,1-.45.6,1.54,1.54,0,0,1-.86.41,1.84,1.84,0,0,1-1.06-.18,3.7,3.7,0,0,1-.43-.25s-.05,0-.09,0,0,.07,0,.09a1.68,1.68,0,0,1,.3,1.3c0,.16,0,.33-.07.49a2.25,2.25,0,0,1-.68,1.17,3,3,0,0,1-.7.49,1.63,1.63,0,0,1-.71.16,3.89,3.89,0,0,1-1.62-.3.28.28,0,0,0-.12,0,.11.11,0,0,0,0,.11,2.13,2.13,0,0,1,0,1.2,2.3,2.3,0,0,1-1.09,1.3,2,2,0,0,1-.76.21,3.41,3.41,0,0,1-1.55-.19l-.07,0h0s0,.07,0,.11a1.78,1.78,0,0,1-.54,1.9,2.38,2.38,0,0,1-1.3.53,3.15,3.15,0,0,1-1.25-.19,7.3,7.3,0,0,1-1.48-.67,15.37,15.37,0,0,1-1.53-1l-.08-.07s0,0,0-.07l.05-.07a6.16,6.16,0,0,0,.57-1.15,3,3,0,0,0,.19-.94,1.6,1.6,0,0,0-.06-.54,1.07,1.07,0,0,0-.86-.73,1.13,1.13,0,0,0-.63,0,3,3,0,0,0-.91.52,4.71,4.71,0,0,0-.6.58A.35.35,0,0,1,895.67,311.3Z"/><path class="cls-11" d="M894,288.61c.17,0,.35,0,.53,0l1.61,0c.43,0,.86,0,1.3-.05s.73,0,1.09-.09l.38-.06a3.27,3.27,0,0,1,1.17-.06,5.87,5.87,0,0,1,1.91.58c.77.36,1.55.69,2.34,1,1.23.52,2.47,1,3.71,1.52a4.54,4.54,0,0,0,1.07.27,4.2,4.2,0,0,0,.79,0,2.63,2.63,0,0,0,1.6-.53,9,9,0,0,0,.89-.74l.16-.15a.07.07,0,0,1,.11,0c.18.13.35.27.52.41a10.64,10.64,0,0,1,2.33,3,13.4,13.4,0,0,1,1.39,3.89,16,16,0,0,1,.26,1.82c0,.4.06.79.06,1.19,0,.09,0,.09-.08.09a5.13,5.13,0,0,0-2.21.56,5.42,5.42,0,0,0-1.61,1.24c-.07.07-.07.07-.15,0l-3.51-2.37-2-1.35-3.25-2.19-3.13-2.11-1.23-.83a5.12,5.12,0,0,0-.94-.46,8,8,0,0,0-1.86-.49,7.08,7.08,0,0,0-1.38,0,5.78,5.78,0,0,0-1.3.21,3.71,3.71,0,0,0-.46.19,7.42,7.42,0,0,0-1.57,1l-1.38,1.08a2.42,2.42,0,0,1-.55.29,4.15,4.15,0,0,1-1.25.3,2.34,2.34,0,0,1-1.77-.56.4.4,0,0,1-.15-.19,1.59,1.59,0,0,1-.08-1.47.54.54,0,0,1,.16-.21l1.85-1.65,1.84-1.63.81-.73a4.71,4.71,0,0,1,.61-.47,1.28,1.28,0,0,1,.6-.22Z"/><path class="cls-11" d="M883.08,288.49a.27.27,0,0,1-.08.1,19.38,19.38,0,0,0-2.19,2.76,21.07,21.07,0,0,0-2.54,5.2,17.61,17.61,0,0,0-.71,2.95c-.08.49-.14,1-.18,1.49s0,1.21,0,1.82v.06s-.07,0-.1,0L872,300.1a.14.14,0,0,1-.09-.17c0-.46.07-.92.13-1.38.07-.64.17-1.28.29-1.92a24.43,24.43,0,0,1,1.91-6.12,14.39,14.39,0,0,1,2.21-3.4,10.58,10.58,0,0,1,1.8-1.61l.14-.09a.06.06,0,0,1,.09,0l.07.05q2.22,1.49,4.45,3Z"/><path class="cls-11" d="M913.13,288.6l.55-.38,3.89-2.67,0,0a.09.09,0,0,1,.12,0l.41.3a13.11,13.11,0,0,1,2,2,16,16,0,0,1,2.31,3.57,17.48,17.48,0,0,1,1.11,3,20.75,20.75,0,0,1,.44,2.22c.05.42.09.85.12,1.27.06.68.05,1.36.05,2,0,0,0,0,0,.05a.14.14,0,0,1-.08.13c-.2.08-.38.18-.57.27l-1.8.86-2.94,1.41-.07,0s0-.07,0-.11c0-.43,0-.87,0-1.3s0-.94-.08-1.41-.12-1.22-.22-1.83a21,21,0,0,0-.66-2.93,15.78,15.78,0,0,0-1-2.56,10.61,10.61,0,0,0-1.64-2.36,8.67,8.67,0,0,0-1.85-1.51l-.07,0Z"/><path class="cls-11" d="M896.09,308.31a3.76,3.76,0,0,1-.14.88,10.06,10.06,0,0,1-.83,2.11,7,7,0,0,1-1.17,1.59,2,2,0,0,1-.57.42,1,1,0,0,1-1.24-.28,1.4,1.4,0,0,1-.24-.47,2,2,0,0,1,0-1.12c.06-.21.12-.42.19-.63a7.2,7.2,0,0,1,.82-1.67,8,8,0,0,1,.72-1,3.39,3.39,0,0,1,1.21-.91,1.11,1.11,0,0,1,.3-.08.81.81,0,0,1,.88.58A2,2,0,0,1,896.09,308.31Z"/><path class="cls-11" d="M888.52,310a2.92,2.92,0,0,1,.13-.82,9.18,9.18,0,0,1,.86-1.95,4.21,4.21,0,0,1,.85-1,2,2,0,0,1,.75-.41,1.08,1.08,0,0,1,1.29.65,1.28,1.28,0,0,1,.11.64,4.26,4.26,0,0,1-.17,1.06,7.19,7.19,0,0,1-.44,1.17,5.51,5.51,0,0,1-.83,1.35,2.67,2.67,0,0,1-.64.57,1.26,1.26,0,0,1-1.23.08,1.08,1.08,0,0,1-.64-.86A2.15,2.15,0,0,1,888.52,310Z"/><path class="cls-11" d="M889,305.73a3.2,3.2,0,0,1-.45,1.6,3.55,3.55,0,0,1-.67.87,1.75,1.75,0,0,1-1.18.51,1.18,1.18,0,0,1-1.19-1,2.15,2.15,0,0,1,0-.67,3.36,3.36,0,0,1,.5-1.41,3.6,3.6,0,0,1,1.13-1.1,1.46,1.46,0,0,1,.46-.15,1.3,1.3,0,0,1,.65,0,1.07,1.07,0,0,1,.68.71.83.83,0,0,1,.06.21A2,2,0,0,1,889,305.73Z"/><path class="cls-11" d="M898.34,311.43a2,2,0,0,1-.1.59,6.84,6.84,0,0,1-.78,1.69,3.72,3.72,0,0,1-.78.94.92.92,0,0,1-.67.25.89.89,0,0,1-.5-.15.71.71,0,0,1-.27-.45,2.43,2.43,0,0,1,0-.71,3.33,3.33,0,0,1,.3-.94,4.72,4.72,0,0,1,1-1.46,2,2,0,0,1,.61-.47,1.23,1.23,0,0,1,.82-.1.47.47,0,0,1,.36.32.66.66,0,0,1,.06.2A2.83,2.83,0,0,1,898.34,311.43Z"/><g id="o3SyUi.tif"><path class="cls-11" d="M895.85,287.15l-1.61,0c-.18,0-.36,0-.54,0s-.51,0-.78,0a1.17,1.17,0,0,0-.59.21,4.71,4.71,0,0,0-.61.47l-.82.73-1.3,1.16c-.37-.14-.46-.45-.46-1.1,0-3.73,0-7.45,0-11.18a1,1,0,0,1,.7-1.09h.86a20.24,20.24,0,0,1,2.53.51,6.63,6.63,0,0,1,3.56,2.59,1.2,1.2,0,0,1,.22.68v6.92Z"/><path class="cls-11" d="M906.09,288.81a1.88,1.88,0,0,1-.06.51l-2-.83c-.79-.33-1.57-.65-2.34-1a5.87,5.87,0,0,0-1.91-.58,3.52,3.52,0,0,0-1.17.05,1.69,1.69,0,0,1-.38.07h0v-6.7a1.52,1.52,0,0,1,.27-.88,7,7,0,0,1,4.48-2.77c.52-.11,1-.18,1.56-.26h.87a1,1,0,0,1,.7,1.09Q906.09,283.15,906.09,288.81Z"/><path class="cls-11" d="M888,289.47a3.79,3.79,0,0,0-.58-.26,5.17,5.17,0,0,0-.86-.22v-9.21a1,1,0,0,1,.47-.54c.6-.26.9-.08.9.55v9A3.08,3.08,0,0,0,888,289.47Z"/><path class="cls-11" d="M908.69,280.09q0,5.09,0,10.17a4.42,4.42,0,0,1-.93-.25l-.57-.23a2.22,2.22,0,0,0,.13-.79c0-3.07,0-6.13,0-9.2,0-.2-.15-.48.13-.61a1,1,0,0,1,1.09.34A.94.94,0,0,1,908.69,280.09Z"/></g><g id="_7Bt7F9.tif" data-name="7Bt7F9.tif"><path class="cls-11" d="M750.11,305.23c.55.55,1.06,1.07,1.58,1.58a.46.46,0,0,1,.14.35c0,.43,0,.87,0,1.3,0,.17,0,.23-.22.23-.44,0-.89,0-1.33,0a.39.39,0,0,1-.32-.13c-1.05-1.08-2.11-2.15-3.16-3.22a.42.42,0,0,0-.35-.15h-3.08a.4.4,0,0,0-.31.13l-3.18,3.23a.41.41,0,0,1-.34.14h-1.35c-.13,0-.18,0-.18-.16q0-.72,0-1.44a.31.31,0,0,1,.12-.24l1.43-1.43.16-.17a7.06,7.06,0,0,1-1.16-.15,5.14,5.14,0,0,1-4-5q0-6,0-12.08a5.19,5.19,0,0,1,5.26-5.19H750a5.15,5.15,0,0,1,5.14,4.08,5.28,5.28,0,0,1,.12,1.19V300a5.18,5.18,0,0,1-4,5.12A5.74,5.74,0,0,1,750.11,305.23Zm-5.18-8.63h6.67c.17,0,.23,0,.23-.21v-9.94c0-.19-.06-.22-.22-.22H738.23c-.18,0-.22,0-.22.23,0,3.3,0,6.61,0,9.91,0,.2.06.23.24.23Zm-3.47,3.45a1.72,1.72,0,1,0-1.72,1.73A1.73,1.73,0,0,0,741.46,300.05Zm10.37,0a1.75,1.75,0,0,0-1.73-1.73,1.73,1.73,0,0,0,0,3.46A1.75,1.75,0,0,0,751.83,300.05Z"/><path class="cls-11" d="M746.76,273.3a2.51,2.51,0,0,1-.73,1.77l-5.86,5.87a.46.46,0,0,1-.35.12,6.88,6.88,0,0,0-6.55,4.47,6.71,6.71,0,0,0-.43,2.55.45.45,0,0,1-.15.35l-5.48,5.48a.32.32,0,0,0-.12.33c.18,1.26.34,2.53.52,3.79a.48.48,0,0,1-.15.49c-.5.49-1,1-1.47,1.48-.12.13-.17.13-.26,0l-2.82-5.11a.71.71,0,0,0-.31-.31l-5.12-2.84c-.18-.09-.17-.14,0-.27.53-.52,1-1.05,1.56-1.58a.28.28,0,0,1,.27-.1l4,.59a.3.3,0,0,0,.3-.1l6.42-6.41c.14-.14.09-.17-.05-.25l-12.45-6.54c-.16-.09-.18-.13-.05-.26.73-.7,1.45-1.42,2.16-2.14a.33.33,0,0,1,.35-.1l10.41,2.4,5.12,1.19a.29.29,0,0,0,.29-.12l6.58-6.58a2.59,2.59,0,0,1,3.4-.21A2.63,2.63,0,0,1,746.76,273.3Z"/></g><g id="nVTTIy.tif"><path class="cls-11" d="M768.22,308.2c0,.39-.11.51-.51.51H754.88a.51.51,0,0,1-.56-.38,6.38,6.38,0,0,0-1.33-2.12h.07a5.16,5.16,0,0,0,4-5.12c0-4,0-7.95,0-11.92a5.15,5.15,0,0,0-.11-1.17h9.51a2.31,2.31,0,0,1,1.78,2.37C768.22,296.31,768.21,302.25,768.22,308.2Z"/><path class="cls-11" d="M778.49,295.19a2.24,2.24,0,0,0-2-1.05q-3,0-6,0c-.53,0-.68.14-.68.67,0,3.59,0,7.18,0,10.77,0,.19-.06.39.08.57a.39.39,0,0,0,.16-.07,5.47,5.47,0,0,1,9,2.42c0,.13.07.24.21.3a3.28,3.28,0,0,0,2.23-.39V301A19.9,19.9,0,0,0,778.49,295.19Zm.34,4.16c-1.05,0-2.1,0-3.14,0s-2.09,0-3.14,0c-.49,0-.62-.15-.6-.62q0-1.38,0-2.76c0-.39.13-.51.51-.51,1.35,0,2.69,0,4,0a.91.91,0,0,1,.82.4,30.41,30.41,0,0,1,1.85,3C779.41,299.33,779.2,299.36,778.83,299.35Z"/><path class="cls-11" d="M777.84,309.34a4.13,4.13,0,0,0-8.16.31,4.15,4.15,0,0,0,3,4.38c.18.05.39,0,.54.17h1.15c.16-.19.4-.14.6-.21A4.12,4.12,0,0,0,777.84,309.34ZM773.76,312a1.91,1.91,0,0,1,0-3.81,1.89,1.89,0,0,1,1.91,1.9A1.91,1.91,0,0,1,773.76,312Z"/></g><path class="cls-11" d="M945,177.35c-.36.41-.13,1.34-1.11,1.2s-1.9-.33-2-1.57c0-.35-.12-.68.3-.83,1.1-.37,1.64-1.6,2.82-1.8.2,0,.47.3.45.67C944.9,175.69,945.65,176.63,945,177.35Z"/><path class="cls-11" d="M947.4,171.6a2.16,2.16,0,0,1-.18.39c-.42-.09-1-.06-1.22-.34a1.26,1.26,0,0,1-.14-1.59c.27-.42.69-.42.83,0S946.52,171.39,947.4,171.6Z"/><path class="cls-11" d="M948.09,173.8a.92.92,0,0,1-.71.88c-.3-.27-.93-.28-.91-.72,0-.64.75-.49,1.16-.66S948.14,173.49,948.09,173.8Z"/><path class="cls-11" d="M954.64,159.67c-.08.39-.53.5-.88.59s-.54-.18-.47.39c.21,1.79-.33,2.64-2,3.22a3.28,3.28,0,0,0-1.78,1.25c-.58-1.41.22-1.93,1.07-2.26,1.25-.48,2.11-1.14,2.09-2.63,0-.84.8-1.5,1.31-1.14C954.19,159.26,954.71,159.26,954.64,159.67Z"/><path class="cls-11" d="M932.87,164a.82.82,0,0,1-.82.81.81.81,0,0,1-.81-.81.82.82,0,0,1,.81-.82A.82.82,0,0,1,932.87,164Z"/><path class="cls-11" d="M949.68,160.14a4,4,0,0,0-1.87-1.51,8.18,8.18,0,0,0-2.66-.41,19.55,19.55,0,0,0-4.65.16l-.4.12a1.7,1.7,0,0,1-1.71-.26l.16-.27-.16.26-.45-.27a2.78,2.78,0,0,0-.39.69,3.8,3.8,0,0,0,.5,3.11c.23.41.5.81.75,1.19a12.3,12.3,0,0,1,1.1,1.86c1.15,2.6.72,4.74,0,7.48l-.6-.16c.73-2.7,1.12-4.65.05-7.07a11,11,0,0,0-1-1.76c-.27-.4-.54-.81-.78-1.23a7.12,7.12,0,0,1-.44-1,22,22,0,0,0-8.43-1.05l-.37.05c-1.82.2-3.89.43-5.21-.94a6.25,6.25,0,0,1-.91-1.33,4.3,4.3,0,0,0-1.12-1.47l.13-.19c-.2.13-.38.28-.56.42-.46.37-.14.91.23,1.3a.26.26,0,0,1,.06.23,1.45,1.45,0,0,0-.28.84l.13-.24c.55.32,1.25.65,1.93,1s1.4.66,2,1a5.31,5.31,0,0,0,1.7.73,5.21,5.21,0,0,0,1.83-.11c.26-.05.54-.1.81-.13a10.23,10.23,0,0,1,3.24.29c1.5.4,2.42,1.07,2.64,1.94.41,1.57-1.56,3.33-2.75,4.38l-.34.31a11.11,11.11,0,0,1-1.08.86,10.8,10.8,0,0,0-1,.81l-.18-.2a.36.36,0,0,1,0,.21c-.16,1.28.8,2.15,1,3.26.07.32.18.69.59.7s.5-.36.72-.59c.59-.62.12-1.6.57-2.08a11.37,11.37,0,0,1,2.87-2.52c.35-.19.56-.24.79.17s.81.95.78,1.65c0,.27.06.76.39.63,1.15-.42,1,.72,1,1a6.64,6.64,0,0,0,.83,3.54,8.32,8.32,0,0,0-1.2-.83.54.54,0,0,0-.58.1.32.32,0,0,0,0,.45c1.59,1.88,2.37,4.7,5.51,4.81.45,0,1,.67,1.27,0,.17-.46-.72-.35-1-.7-.08-.1-.31-.1-.47-.11-.69-.06-1.51.11-1.47-1,0-.76-1.06-1-.91-1.81a2.31,2.31,0,0,0-.82-2.53c-.41-.33-.9-1.06-.36-1.51s1,.4,1.16.72c.42.75.56.52,1,.07,1.25-1.17,1.35-1.73.24-3.07-.22-.27-.45-.47-.21-.85.17-.23.39-.66.62-.52.83.5,1.31-.22,1.94-.44,2.26-.83,3-2.34,2.36-4.61-.07-.23-.29-.49-.08-.7,1.11-1.05.08-1.06-.68-1.18,1-.67,2.13-.31,2.31.7.11.59.17,1.13.94.94,1-.25.46-.87.27-1.38A1.6,1.6,0,0,1,949.68,160.14Zm-3.59-14.7a.82.82,0,0,0,0,1.63.82.82,0,1,0,0-1.63Zm-16.93,2.48a.81.81,0,0,0-.77.57,1.49,1.49,0,0,0,.39.44,4.22,4.22,0,0,0,.82.49h0a.81.81,0,0,0,.38-.69A.82.82,0,0,0,929.16,147.92Zm1.9,3.46a2.28,2.28,0,0,0-.67-.84,16.45,16.45,0,0,1-1,1.49q.51.18,1,.39c.46.19.81.35,1.14.51l.56.31,0,0,.22.13A10.07,10.07,0,0,1,931.06,151.38Zm6.36,6.25a23.32,23.32,0,0,1-3.84-2.94,2.13,2.13,0,0,1-.78-.24,5.57,5.57,0,0,1-.55-.38,3.4,3.4,0,0,0-.42-.28l0,0-.52-.28c-.32-.16-.66-.32-1.1-.5a10.71,10.71,0,0,0-1.91-.64,12,12,0,0,0-3.23-.08l0-.62a12.87,12.87,0,0,1,3.39.09l.35.09c-.27-.4-.54-.81-.78-1.23a6.93,6.93,0,0,1-.52-1.1,2,2,0,0,1-.14-.68,1.92,1.92,0,0,1,.21-.82h0a5.45,5.45,0,0,1-.17-1.23l-.53-.13c-1.58-.43-2.05-.08-2.17,1.61,0,.42,0,.84,0,1.25-.14,1.17.56,2.28.23,3.44a2.47,2.47,0,0,0,.18,1.92c.33.69.51,1.26-.69,1.13-.57-.06-1.15-.07-1.72-.18a1.74,1.74,0,0,0-1.07.16,5.39,5.39,0,0,1,1.16,1.57,6.13,6.13,0,0,0,.81,1.2c1.11,1.15,3,.94,4.7.75l.38,0a22,22,0,0,1,8.28,1,3.45,3.45,0,0,1,.11-2A3.24,3.24,0,0,1,937.42,157.63Zm8.67-12.19a.82.82,0,0,0,0,1.63.82.82,0,1,0,0-1.63ZM938,152.87a.82.82,0,0,0-.81.82.81.81,0,1,0,.81-.82Zm-4.71,12.85v0a2.79,2.79,0,0,0,.95-2.18c-.23-.86-1.48-1.31-2.21-1.5a9.45,9.45,0,0,0-3-.27c-.25,0-.52.07-.77.12a6.06,6.06,0,0,1-2,.11,5.94,5.94,0,0,1-1.91-.8c-.55-.32-1.25-.65-1.93-1s-1.22-.57-1.74-.86c.15.61.58,1.17.74,1.81-.67.38-1.94-.61-1.94,1a1.7,1.7,0,0,0-.59,0c-.7.19-2-.09-2,.48-.21,1.2-.89,2.48-.23,3.73.93,1.75,2.23,3.3,2.79,5.24.15.54.5.55,1,.4a10.36,10.36,0,0,0,3.74-2.15,3,3,0,0,0,1-1.28c.22-.7-.63-.75-.75-1.21h2.29a6.77,6.77,0,0,1,2.69,1.91,10.38,10.38,0,0,1,1-.82,10.8,10.8,0,0,0,1-.81l.35-.32.06,0c-.32-.45-.62-.91-.9-1.39a7.87,7.87,0,0,1-.52-1.1,2,2,0,0,1-.14-.68,1.85,1.85,0,0,1,3.66-.39,1.74,1.74,0,0,1-.05,1A5.55,5.55,0,0,1,933.33,165.72Zm36.33-17.59a18.74,18.74,0,0,1-3-1.39,7.07,7.07,0,0,0-1-.4,4.4,4.4,0,0,0-1.32-.21,1.53,1.53,0,0,0-.3,0c-.39.08-.71.27-1,.35a.92.92,0,0,1-.29,0c-2,0-3.93-1.13-6-1.12-.21,0-.42-.23-.64-.32-1-.42-2.38-1.05-3.12-.44-1.14.94-2.45.21-3.5.86-.15.09-.42,0-.48-.27-.24-1-.91-1.7-1.55-1.31-1.6,1-3-.74-4.46-.08.3-.53.93-.73.6-1.46s-.88-.44-1.37-.57c-1.43-.42-2.77-.55-4,.53a.68.68,0,0,1-.49.07c-2.17-.49-3.56,1.51-5.5,1.72-.07,0-.12.11-.17.17-.72,1.08-1.66.8-2.54.34-1-.53-1.87-.15-2,1a1.22,1.22,0,0,0,0,.33H928a7.38,7.38,0,0,0,.07,1.34,1.68,1.68,0,0,1,.76-.36,1.86,1.86,0,0,1,2.18,1.4,1.78,1.78,0,0,1-.05,1,5.89,5.89,0,0,1-.24.58,2.79,2.79,0,0,1,.93,1.13,9.77,9.77,0,0,0,1.59,2.3,20.75,20.75,0,0,0,4.61,3.74l.05,0c-.36-.5-.7-1-1-1.55a6.88,6.88,0,0,1-.52-1.1,2.07,2.07,0,0,1-.14-.69,1.85,1.85,0,1,1,3.6.58,6.59,6.59,0,0,1-.47,1.05c-.11.19-.21.37-.33.55a4.77,4.77,0,0,0,.45-.58,6.6,6.6,0,0,0,.71-2.17,8.63,8.63,0,0,1,.58-2,4.41,4.41,0,0,1,4.58-2.44c-.14-.22-.28-.44-.41-.68a6.15,6.15,0,0,1-.52-1.1,2,2,0,0,1-.14-.68,1.85,1.85,0,0,1,3.66-.38,1.75,1.75,0,0,1-.06,1,6.59,6.59,0,0,1-.47,1.05c-.25.44-.52.86-.8,1.27l.23.13a4.22,4.22,0,0,0,.87.4,4.13,4.13,0,0,0,2-.18l6.79-1.74a11.2,11.2,0,0,1,5-.49,8.83,8.83,0,0,1,2.3.91c.31.16.61.34.9.5s.48.28.73.41.51.28.77.4l-.27.56c-.29-.14-.57-.29-.86-.45l-.56-.31h0l-.11-.07a10.63,10.63,0,0,0-3-1.34,10.83,10.83,0,0,0-4.77.48l-6.78,1.74a4.6,4.6,0,0,1-2.29.17,4.38,4.38,0,0,1-1-.45c-.1,0-.19-.11-.29-.15l-.11.16h0l-.17-.23-.08-.12a3.77,3.77,0,0,0-4.55,1.92,7.61,7.61,0,0,0-.53,1.83,5.54,5.54,0,0,1-2,3.69l-.46.47.36.21c.65.4.83.34,1.19.21.14,0,.29-.09.48-.13a19.84,19.84,0,0,1,4.8-.18,9,9,0,0,1,2.86.45,4.64,4.64,0,0,1,2.17,1.77l-.39.24L950,160c2.2-.67,2.79-2.41,3.26-4.27.16-.64,0-1.42-1-1.13-.54.14-.62-.07-.43-.5.37-.81,2.26-1.7,3.12-1.88,1.13-.23,2.47.82,3.4-.61.23-.34.66-1.05,1.28-.37s-.25.82-.52,1.07a2.71,2.71,0,0,0-.73,3.44c.11.25.4.54.51.32.54-1,1.84-1.54,2-2.82s.6-1.81,1.86-1.54c1,.21,1.44-.49,2.08-.86s1.69.06,1.6-1.34c-.05-.65.89-.69,1.52-.46.23.08.41.3.62.4.76.33.93-.51,1.4-.77C970.18,148.53,969.88,148.19,969.66,148.13Z"/><path class="cls-11" d="M976.2,159a32.6,32.6,0,1,0-32.65,33.75A32.57,32.57,0,0,0,976.2,159Zm-19.71-26.7a28,28,0,0,1,5.43,3.27c-1.21.54-2.11.66-3-.49a21.2,21.2,0,0,0-2.65-2.53C956.35,132.47,956.42,132.38,956.49,132.3Zm1.12,4.22a47.76,47.76,0,0,1-5.5.83c-.56.1-.65-.32-.8-.72a26.31,26.31,0,0,0-3.22-6.49A20,20,0,0,1,957.61,136.52ZM946.22,131a18.94,18.94,0,0,1,3,5.8c.28.77-.1.85-.68.85h-5c-1.66,0-3.32,0-5,0-.5,0-.92,0-.65-.75a19.35,19.35,0,0,1,3-5.83C942.66,129,944.56,129,946.22,131ZM936,136.59a.93.93,0,0,1-1.18.76c-1.4-.19-2.79-.34-4.18-.55-.59-.08-1.12-.25-.42-1a20.82,20.82,0,0,1,9-5.73A22.45,22.45,0,0,0,936,136.59Zm-5.15-4.22c-1.06,1.09-2.14,2.14-3.11,3.32-.76.92-1.48-.1-2.27,0A17.19,17.19,0,0,1,930.86,132.37Zm-14.18,13.12a33.37,33.37,0,0,1,6.25-8,.82.82,0,0,1,.9-.27l.24,0c2.43.67,2.1.43,1,2.2a32.09,32.09,0,0,0-3.62,8.3c-.25.95-.62,1.19-1.54.75a27.77,27.77,0,0,1-2.88-1.46A1,1,0,0,1,916.68,145.49ZM919,178.34c1.88.52,3.46.95,5,1.37a1.16,1.16,0,0,1,.73.62,34.68,34.68,0,0,0,6,7.57A30,30,0,0,1,919,178.34Zm8.2,2.1c2.7.26,5.07.5,7.46.72a.81.81,0,0,1,.79.65,30.66,30.66,0,0,0,3.39,8.09C933.77,188.34,930.16,185,927.21,180.44Zm21,9.68a33.94,33.94,0,0,0,2.47-5.06c.3-1,.67-1.95,1-2.94.16-.53.41-.88,1-.93,2.37-.22,4.73-.46,7.33-.72A22.27,22.27,0,0,1,948.25,190.12Zm4.45-11.89a83.29,83.29,0,0,0,1.46-10c.08-.71.22-1.08,1.06-1.16a77.81,77.81,0,0,0,9.12-1.26c.77-.17,1,.05.82.8a40.62,40.62,0,0,1-3.4,10.76c-.21.4-.38.78-.94.86-2.43.32-4.84.7-7.26,1C952.58,179.49,952.51,179,952.7,178.23Zm3.75,9.69c1-1.22,2.24-2.2,3.14-3.49a11,11,0,0,0,1.46-2c1.27-3.16,4.25-3.09,7.08-4A29.73,29.73,0,0,1,956.45,187.92Zm16.12-17.64c-.27.78-.66,1.52-.9,2.31-1.15,3.75-4.53,4-7.67,5,.57-1.8,1.24-3.34,1.74-5a47.33,47.33,0,0,0,1.37-6.31,1.48,1.48,0,0,1,1.27-1.42,21.41,21.41,0,0,0,5.76-2.26A27.16,27.16,0,0,1,972.57,170.28Zm.74-9.57a17.54,17.54,0,0,1-5.1,2.26c-.79.26-.78-.33-.78-.85,0-1.71,0-3.41,0-5.11a27.11,27.11,0,0,0-.46-4.21c-.12-.76-.39-1.13-1.21-1s-.84.65-.72,1.3a44.39,44.39,0,0,1,.52,9.43,1.16,1.16,0,0,1-1.11,1.32c-3.06.6-6.15,1-9.24,1.36-.28,0-.6.08-.76-.26s.07-1-.38-.93a4.64,4.64,0,0,0-1.54.71c-1.3.68-2.44,2-4.16,1-.44-.26-.76.07-.76.5,0,.58.13,1.21.92,1.22,1,0,1.91,0,2.86,0,.65,0,.86.2.82.88a70,70,0,0,1-1.49,10.08c-.2.87-.59,1.18-1.45,1.14s-1.83,0-2.73.07c-.41,0-.79,0-1,.53-.48,1.34-.43,1.47,1,1.46a16.54,16.54,0,0,0,2.12-.1c.91-.12,1.31,0,.92,1.07a21.53,21.53,0,0,1-3.23,6.55c-1.82,2.23-3.78,2.2-5.54-.07a23.49,23.49,0,0,1-3.22-6.69c-.3-.84.1-.9.76-.88,1.23,0,2.45,0,3.68,0,0-.11.08-.23.12-.35a3.39,3.39,0,0,1-2.91-1.38,1.05,1.05,0,0,0-.81-.22c-1.46.23-1.84-.57-2-1.81-.32-2-.79-3.9-1-5.88,0-.48.23-1.31-.58-1.26s-1.1.72-1.21,1.39a4.7,4.7,0,0,0,.09,1.49c.26,1.63.51,3.28.86,4.9.19.9-.17,1-.89.9q-3.45-.51-6.9-1a1.62,1.62,0,0,1-1.39-1.07,34.06,34.06,0,0,1-1.67-4.16c-.14-.46-.27-1-1-.7s-1.2.47-.87,1.32c.46,1.2.9,2.41,1.35,3.62a8.4,8.4,0,0,1-7.73-5,31.6,31.6,0,0,1-2.28-8.52c0-.31-.25-.7.09-.91s.52.15.78.23c.46.13,1,1,1.35.24.28-.58.6-1.49-.52-2a3,3,0,0,1-1.87-3.5,39,39,0,0,1,1.85-8.36c.33-1,.77-1.13,1.61-.52a9.84,9.84,0,0,0,3.13,1.5c.84.26,1.17.61.89,1.51a9.83,9.83,0,0,0-.35,2.08c0,.4-.39,1.11.31,1.09A1.56,1.56,0,0,0,922.1,154c.13-.55.13-1.15.24-1.71.07-.31,0-.77.45-.81,1.11-.08.78-.93.62-1.37a4.06,4.06,0,0,1,.23-3,40.41,40.41,0,0,1,4-8,1.29,1.29,0,0,1,1.53-.65c1.67.32,3.35.57,5,.74.84.07.94.35.78,1.09-.09.4-.6,1.08.15,1.26s1.51.05,1.65-.74c.25-1.4,1.15-1.36,2.2-1.28a68.07,68.07,0,0,0,9.58,0c1.22-.09,1.75.36,2,1.47.12.7.28,1.38.46,2.07.11.39,0,1,.77.82s1.33-.37,1.1-1.33c-.2-.8-.32-1.62-.53-2.43-.16-.58,0-.79.6-.86,1.73-.21,3.46-.44,5.17-.76a1.38,1.38,0,0,1,1.62.74,26.61,26.61,0,0,1,2.64,4.93,1.18,1.18,0,0,0,1.3.87l.52-.08c.34-.07.46-.21.47-.39a1.7,1.7,0,0,0-.27-.79A47.51,47.51,0,0,0,962,139.2c-.25-.4-.89-.76-.46-1.38a3.14,3.14,0,0,1,2.68-.41,30.69,30.69,0,0,1,6.33,8.1c.13.23.26.48.06.7-.84.89.09,1.36.56,1.62a2.34,2.34,0,0,1,1.1,1.39,30.33,30.33,0,0,1,2,9.46A2.24,2.24,0,0,1,973.31,160.71Z"/><path class="cls-2" d="M824.64,151.94a40.55,40.55,0,1,0,40.55,40.55A40.55,40.55,0,0,0,824.64,151.94Zm0,73a32.47,32.47,0,1,1,32.47-32.47A32.47,32.47,0,0,1,824.64,225Z"/><path class="cls-12" d="M707.05,417.48V369.54h8.83v40.4H740v-40.4h8.84v47.94ZM747.8,428v-12.6l2,2.12H740v-7.54h16v18Z"/><path class="cls-12" d="M771.91,409.94H799v7.54H763V369.54h35v7.53H771.91Zm-.69-20.47h23.84v7.32H771.22Z"/><path class="cls-12" d="M816.56,417.48h-8.9V369.54h8.9ZM842,396.93H815.88v-7.6H842Zm-.68-27.39h8.83v47.94h-8.83Z"/><path class="cls-12" d="M872.59,417.48v-42.6l2.12,2.19h-18v-7.53h40.55v7.53H879.37l2-2.19v42.6Z"/><path class="cls-12" d="M903.75,417.48V369.54h19.72a26.8,26.8,0,0,1,10.93,2,15.57,15.57,0,0,1,7,5.85,16.65,16.65,0,0,1,2.46,9.18,16.3,16.3,0,0,1-2.46,9.07,16.1,16.1,0,0,1-7,5.89,26,26,0,0,1-10.93,2.09H908.75l3.9-4.11v18Zm8.9-17-3.9-4.38h14.31q5.9,0,8.87-2.5a9.76,9.76,0,0,0,0-14q-3-2.51-8.87-2.5H908.75l3.9-4.38Z"/><path class="cls-12" d="M183.4,499.67V451.72h8.84v34l25.75-34h8.29v47.95h-8.84v-34l-25.68,34Z"/><path class="cls-12" d="M233.74,495l2.88-6.58a24.7,24.7,0,0,0,6.78,3.26,26.88,26.88,0,0,0,7.26,1.2,20.64,20.64,0,0,0,6.54-.86,11.74,11.74,0,0,0,4.8-2.7,5.91,5.91,0,0,0,1.81-4.39,5.32,5.32,0,0,0-2.6-4.79A13.55,13.55,0,0,0,254,478.5h-11.1v-7.05h10.48a10.72,10.72,0,0,0,6.27-1.58,5.2,5.2,0,0,0,2.23-4.52,5.12,5.12,0,0,0-1.48-3.7,9.18,9.18,0,0,0-4-2.26,19.55,19.55,0,0,0-5.62-.75,25.41,25.41,0,0,0-6.47.89,24.88,24.88,0,0,0-6.44,2.74l-2.74-7.12a31.84,31.84,0,0,1,9.52-3.46,34.75,34.75,0,0,1,9.59-.51,25.24,25.24,0,0,1,8.39,2.12,16.13,16.13,0,0,1,6,4.45,10.14,10.14,0,0,1,2.23,6.58,10.69,10.69,0,0,1-1.75,6.06,11.56,11.56,0,0,1-4.9,4.11,17.31,17.31,0,0,1-7.39,1.47l.27-2.26a20.46,20.46,0,0,1,8.39,1.57,12.61,12.61,0,0,1,5.45,4.42,11.5,11.5,0,0,1,1.91,6.54,11.2,11.2,0,0,1-1.74,6.2,14,14,0,0,1-4.9,4.52,24.48,24.48,0,0,1-7.09,2.67,33.23,33.23,0,0,1-8.32.69,34.93,34.93,0,0,1-8.77-1.51A33,33,0,0,1,233.74,495Z"/><path class="cls-12" d="M296.41,491.79l-21.23-40.07h9.45l16.78,33.15Zm-14.65.34a12.41,12.41,0,0,0,6.64.69c1.92-.41,3.61-1.81,5.07-4.18L295.8,485l.89-1,16.71-32.33h8.77l-20.83,38.7a21.31,21.31,0,0,1-6,7.36,14,14,0,0,1-7.53,2.85,18.17,18.17,0,0,1-8.32-1.51Z"/><path class="cls-12" d="M358.05,481a42.78,42.78,0,0,1-7.32,2.36,31.81,31.81,0,0,1-6.92.79q-9.1,0-14.11-4.45t-5-12.67V451.72h8.77V466c0,3.42,1,6,3,7.81s4.8,2.67,8.45,2.67a28.19,28.19,0,0,0,6.65-.79,30.91,30.91,0,0,0,6.37-2.29Zm-1.37,18.63V451.72h8.84v47.95Z"/><path class="cls-12" d="M386.68,492.13h27.06v7.54h-36V451.72h35v7.54h-26.1ZM386,471.65h23.83V479H386Z"/><path class="cls-12" d="M431.34,499.67h-8.91V451.72h8.91Zm25.48-20.55H430.65v-7.6h26.17Zm-.69-27.4H465v47.95h-8.84Z"/><path class="cls-12" d="M477.29,499.67V451.72h8.84v34l25.75-34h8.29v47.95h-8.84v-34l-25.68,34Z"/><path class="cls-12" d="M560.24,499.67V484.26l2.19,2.05h-14a24.31,24.31,0,0,1-10.41-2,15,15,0,0,1-6.65-5.86,17.2,17.2,0,0,1-2.33-9.1,17.49,17.49,0,0,1,2.47-9.52,15.9,15.9,0,0,1,7-6,25.11,25.11,0,0,1,10.61-2.09H569v47.95Zm-31.1,0L541,482.54h9l-11.44,17.13Zm31.1-18.22V456.86l2.19,2.4H549.35c-3.66,0-6.45.83-8.39,2.5S538,465.9,538,469.19a9.44,9.44,0,0,0,2.78,7.29c1.85,1.72,4.58,2.57,8.18,2.57h13.43Z"/><path class="cls-12" d="M598.86,499.67V451.72H641.4v47.95h-8.84v-42.6l2.06,2.19h-29l2.06-2.19v42.6Z"/><path class="cls-12" d="M653.59,499.67V451.72h19.72a27,27,0,0,1,10.93,2,15.7,15.7,0,0,1,7,5.86,16.65,16.65,0,0,1,2.46,9.18,16.32,16.32,0,0,1-2.46,9.07,16.15,16.15,0,0,1-7,5.89,26,26,0,0,1-10.93,2.09H658.59l3.9-4.11v17.95Zm8.9-17-3.9-4.38H672.9c3.93,0,6.89-.84,8.87-2.5a9.76,9.76,0,0,0,0-14q-3-2.5-8.87-2.5H658.59l3.9-4.39Z"/><path class="cls-12" d="M723.86,500.35a28.06,28.06,0,0,1-10.31-1.85,24.58,24.58,0,0,1-8.25-5.2,23.68,23.68,0,0,1-5.41-7.84,25.94,25.94,0,0,1,0-19.59,23.26,23.26,0,0,1,5.41-7.81,24.9,24.9,0,0,1,8.22-5.17,29.93,29.93,0,0,1,20.61,0,24.33,24.33,0,0,1,8.19,5.14,23.46,23.46,0,0,1,5.37,7.84,25,25,0,0,1,1.92,9.87,24.68,24.68,0,0,1-1.92,9.82,23.7,23.7,0,0,1-13.56,13A28.39,28.39,0,0,1,723.86,500.35Zm0-7.81a17.72,17.72,0,0,0,6.68-1.23,15.63,15.63,0,0,0,5.3-3.49,16.1,16.1,0,0,0,3.53-5.34,17.61,17.61,0,0,0,1.27-6.78,18.1,18.1,0,0,0-1.23-6.78,15.6,15.6,0,0,0-3.53-5.35,16.25,16.25,0,0,0-5.34-3.49,17.72,17.72,0,0,0-6.68-1.23,18.24,18.24,0,0,0-6.75,1.23,15.27,15.27,0,0,0-5.37,3.53,17.28,17.28,0,0,0,0,24.17,15.27,15.27,0,0,0,5.37,3.53A18.24,18.24,0,0,0,723.86,492.54Z"/><path class="cls-12" d="M758.17,499.67V451.72h37.4v7.4H767v11.71h14.17q8.64,0,13.12,3.56t4.49,10.41q0,7.06-5,11t-14,3.91Zm8.84-6.85h12.33q5.13,0,7.8-2a6.72,6.72,0,0,0,2.67-5.75q0-7.4-10.47-7.4H767Z"/><path class="cls-12" d="M805.16,500.28a21.17,21.17,0,0,1-2.37-.13,23.14,23.14,0,0,1-2.56-.48l.61-7.81a7.6,7.6,0,0,0,2.06.27,5.37,5.37,0,0,0,4.62-2.33,16.42,16.42,0,0,0,2.43-6.91,95.7,95.7,0,0,0,1-11.37l.68-19.8h35.28v47.95H838.1v-42.6l2.12,2.19h-22.8l1.91-2.26-.48,14.24q-.27,7.06-1,12.47a39.59,39.59,0,0,1-2.26,9.14,12.53,12.53,0,0,1-4,5.58A10.49,10.49,0,0,1,805.16,500.28Z"/><path class="cls-12" d="M868.1,492.13h27v7.54H859.2V451.72h35v7.54H868.1Zm-.68-20.48h23.83V479H867.42Z"/><path class="cls-12" d="M903.85,499.67V451.72h7.33l21,35H928.3l20.69-35h7.26l.13,47.95h-8.56V464.94h1.78l-17.46,29.32h-4l-17.81-29.32h2.12v34.73Z"/><path class="cls-12" d="M996.25,499.67v-42.6l2.12,2.19h-18v-7.54H1021v7.54H1003l2-2.19v42.6Z"/><path class="cls-12" d="M1027.41,499.67V451.72h19.72a27,27,0,0,1,10.93,2,15.7,15.7,0,0,1,7,5.86,16.65,16.65,0,0,1,2.46,9.18,16.32,16.32,0,0,1-2.46,9.07,16.15,16.15,0,0,1-7,5.89,26,26,0,0,1-10.93,2.09h-14.72l3.9-4.11v17.95Zm8.9-17-3.9-4.38h14.31c3.93,0,6.89-.84,8.87-2.5a9.76,9.76,0,0,0,0-14q-3-2.5-8.87-2.5h-14.31l3.9-4.39Z"/><path class="cls-12" d="M1066.24,499.67l21.58-47.95h8.76l21.65,47.95h-9.39l-18.49-43.22h3.56l-18.56,43.22Zm9.93-11.1,2.47-7h25.82l2.4,7Z"/><path class="cls-12" d="M1133.23,499.67h-8.91V451.72h8.91Zm25.47-20.55h-26.16v-7.6h26.16Zm-.68-27.4h8.83v47.95H1158Z"/><path class="cls-12" d="M1201.24,500.35a27.91,27.91,0,0,1-10.21-1.81,24,24,0,0,1-13.49-13,26.3,26.3,0,0,1,0-19.73A23.87,23.87,0,0,1,1183,458a24.51,24.51,0,0,1,8.15-5.17,29.66,29.66,0,0,1,21,.21,21.34,21.34,0,0,1,8.22,6l-5.76,5.41a18.15,18.15,0,0,0-5.89-4.21,17.19,17.19,0,0,0-6.92-1.4,18.59,18.59,0,0,0-6.88,1.23,15.94,15.94,0,0,0-9,8.84,18.2,18.2,0,0,0,0,13.56,16.26,16.26,0,0,0,3.59,5.34,15.9,15.9,0,0,0,5.41,3.49,18.59,18.59,0,0,0,6.88,1.23,17,17,0,0,0,6.92-1.4,17.67,17.67,0,0,0,5.89-4.28l5.76,5.41a21.64,21.64,0,0,1-8.22,6A27.56,27.56,0,0,1,1201.24,500.35Z"/><path class="cls-12" d="M1227.33,499.67V451.72h42.53v47.95H1261v-42.6l2,2.19h-29l2.06-2.19v42.6Z"/><path class="cls-12" d="M1304.31,500.35a28,28,0,0,1-10.3-1.85,24.53,24.53,0,0,1-8.26-5.2,23.68,23.68,0,0,1-5.41-7.84,25.94,25.94,0,0,1,0-19.59,23.26,23.26,0,0,1,5.41-7.81,24.9,24.9,0,0,1,8.22-5.17,30,30,0,0,1,20.62,0,24.19,24.19,0,0,1,8.18,5.14,23.49,23.49,0,0,1,5.38,7.84,25,25,0,0,1,1.92,9.87,24.68,24.68,0,0,1-1.92,9.82,23.78,23.78,0,0,1-13.56,13A28.44,28.44,0,0,1,1304.31,500.35Zm0-7.81a17.69,17.69,0,0,0,6.68-1.23,15.77,15.77,0,0,0,5.31-3.49,16.26,16.26,0,0,0,3.53-5.34,17.79,17.79,0,0,0,1.26-6.78,18.1,18.1,0,0,0-1.23-6.78,15.46,15.46,0,0,0-3.53-5.35,16.25,16.25,0,0,0-5.34-3.49,17.69,17.69,0,0,0-6.68-1.23,18.15,18.15,0,0,0-6.74,1.23,15.4,15.4,0,0,0-5.38,3.53,17.31,17.31,0,0,0,0,24.17,15.4,15.4,0,0,0,5.38,3.53A18.15,18.15,0,0,0,1304.31,492.54Z"/><path class="cls-12" d="M1338.63,499.67V451.72h19.72a27,27,0,0,1,10.93,2,15.7,15.7,0,0,1,7,5.86,16.65,16.65,0,0,1,2.46,9.18,16.32,16.32,0,0,1-2.46,9.07,16.15,16.15,0,0,1-7,5.89,26,26,0,0,1-10.93,2.09h-14.72l3.9-4.11v17.95Zm8.9-17-3.9-4.38h14.31c3.93,0,6.88-.84,8.87-2.5a9.76,9.76,0,0,0,0-14c-2-1.67-4.94-2.5-8.87-2.5h-14.31l3.9-4.39Z"/><path class="cls-12" d="M1394.65,499.67v-42.6l2.12,2.19h-17.94v-7.54h40.55v7.54h-18l2-2.19v42.6Z"/><path class="cls-12" d="M1417.32,499.67l21.58-47.95h8.76l21.65,47.95h-9.39l-18.49-43.22H1445l-18.56,43.22Zm9.93-11.1,2.47-7h25.82l2.4,7Z"/></svg>