<svg id="Layer_1" data-name="Layer 1" xmlns="http://www.w3.org/2000/svg" viewBox="0 0 1646 553"><defs><style>.cls-1{fill:#fff;}.cls-2{fill:#008fc0;}.cls-3{fill:#fd9000;}.cls-4{fill:#2980bf;}.cls-5{fill:#008037;}.cls-6{fill:#ff9000;}.cls-7{fill:#ff001a;}.cls-8{fill:#ff0016;}</style></defs><polygon class="cls-1" points="897.48 294.64 887.33 211.22 944.46 157.24 946.38 159.27 890.28 212.28 900.25 294.3 897.48 294.64"/><rect class="cls-1" x="870.97" y="212.53" width="2.8" height="90.51" transform="translate(14.22 559.54) rotate(-35.84)"/><path class="cls-1" d="M900.27,296.39H746.35L698.77,157.58,823.53,71.2l123.89,86.38Zm-151.93-2.8H898.27l45.82-134.92L823.52,74.61,702.1,158.67Z"/><polygon class="cls-1" points="898.25 295.73 823.72 259.22 750.41 295.72 749.17 293.22 823.71 256.1 899.48 293.21 898.25 295.73"/><polygon class="cls-1" points="703.54 159.62 702.93 156.89 783.95 138.96 823.47 70.2 866.76 138.96 945.73 156.89 945.11 159.62 865.01 141.43 823.58 75.62 785.75 141.43 785.15 141.56 703.54 159.62"/><polygon class="cls-1" points="751.18 294.64 748.4 294.3 758.38 212.28 702.27 159.27 704.2 157.24 761.32 211.22 751.18 294.64"/><circle class="cls-1" cx="759.85" cy="211.75" r="7.11"/><circle class="cls-2" cx="784.85" cy="140.19" r="7.11"/><circle class="cls-1" cx="865.89" cy="140.19" r="7.11"/><line class="cls-1" x1="789.04" y1="181.36" x2="700.58" y2="158.26"/><rect class="cls-1" x="743.41" y="124.09" width="2.8" height="91.43" transform="translate(392.32 847.54) rotate(-75.36)"/><rect class="cls-1" x="858.47" y="168.15" width="88.42" height="2.8" transform="translate(-13.37 236.15) rotate(-14.8)"/><line class="cls-1" x1="747.13" y1="294.47" x2="802.38" y2="219.4"/><rect class="cls-1" x="728.15" y="255.53" width="93.21" height="2.8" transform="translate(108.52 728.52) rotate(-53.64)"/><rect class="cls-1" x="822.32" y="111.96" width="2.8" height="43.97"/><path class="cls-1" d="M798.63,180.58h13.89v3.73H808v17.13h-4.81V184.31h-4.54Z"/><path class="cls-1" d="M815.13,180.58h4.79v17.07h6.82v3.79H815.13Z"/><path class="cls-1" d="M829,180.58h6.74l3.72,14,3.79-14h6.8v20.86h-4.24V184.09L841,201.44h-3l-4.94-17.32v17.32h-4Z"/><circle class="cls-3" cx="823.86" cy="73.77" r="42.96"/><circle class="cls-2" cx="945.42" cy="158.26" r="42.96"/><circle class="cls-4" cx="898.86" cy="294.47" r="42.96"/><circle class="cls-4" cx="747.13" cy="294.47" r="42.96"/><circle class="cls-5" cx="700.58" cy="158.26" r="42.96"/><circle class="cls-6" cx="888.81" cy="211.75" r="7.11"/><circle class="cls-1" cx="864.67" cy="247.1" r="7.11"/><circle class="cls-1" cx="783.63" cy="246.23" r="7.11"/><circle class="cls-1" cx="759.49" cy="173.82" r="7.11"/><circle class="cls-7" cx="888.81" cy="173.82" r="7.11"/><circle class="cls-8" cx="823.72" cy="128.99" r="7.11"/><circle class="cls-6" cx="823.72" cy="259.17" r="7.11"/><path class="cls-1" d="M678.25,159a5.6,5.6,0,0,0,1.22-.17,7.88,7.88,0,0,0,2.64-1.06,4.41,4.41,0,0,0,1.73-1.85,2.68,2.68,0,0,0,.27-1.67,3.73,3.73,0,0,0-1.06-2,6.12,6.12,0,0,0-1.23-.91,8.16,8.16,0,0,0-1.35-.6,17.71,17.71,0,0,0-1.88-.45,1.15,1.15,0,0,0-1.31.69,2.05,2.05,0,0,0-.08.89c0,.23-.05.3-.29.29-1,0-2.1,0-3.15,0a.62.62,0,0,0-.64.7.59.59,0,0,0,.64.62H677c.15,0,.22,0,.21.2,0,.64,0,1.29,0,1.93,0,.14,0,.19-.18.18l-1.09,0c-.7,0-1.41,0-2.11,0a.68.68,0,0,0-.45.15.74.74,0,0,0-.2.85.72.72,0,0,0,.64.37c1,0,2.07,0,3.11,0,.24,0,.31.07.28.3a4.86,4.86,0,0,0,0,.54A1,1,0,0,0,678.25,159Z"/><path class="cls-1" d="M675.77,147.35a3.83,3.83,0,0,1,2.28,1.34c.27.3.47.66.73,1s.34.39.62.31.36-.48.07-.79a14.05,14.05,0,0,0-1.2-1.24,3.31,3.31,0,0,0-1.17-.72,17,17,0,0,1-2.29-1,12.57,12.57,0,0,1-2-1.21,7.08,7.08,0,0,1-1.58-1.46c.42.33.83.67,1.28,1a15.23,15.23,0,0,0,4.23,1.81c.81.22,1.08-.3,1-.79a8.76,8.76,0,0,0-.42-1.86,3.9,3.9,0,0,0-1.32-1.76,4.73,4.73,0,0,0-2.07-.79,16.3,16.3,0,0,0-2-.24c-.7,0-1.4-.13-2.1-.18a9.15,9.15,0,0,1-1.81-.32,6.06,6.06,0,0,1-1.52-.68,9.34,9.34,0,0,0,.59,2.84,6.63,6.63,0,0,0,2.06,3,7.4,7.4,0,0,0,4.11,1.6C674.13,147.2,675,147.21,675.77,147.35Z"/><path class="cls-1" d="M727.72,160.29a5.47,5.47,0,0,0-1.89-1.55,15.83,15.83,0,0,0-4.35-1.41c-.71-.17-1.41-.29-2.11-.47a12.2,12.2,0,0,1-2.49-.85,14.78,14.78,0,0,1-3.13-2.16c-.41-.49-.9-.88-1.34-1.34a31.93,31.93,0,0,0-2.51-2.43,10.63,10.63,0,0,0-1.42-1.08,2,2,0,0,0-.52-.34s-.05,0-.06,0l-.23-.14h0a.9.9,0,0,0-.26-.17c-.23-.11-.46-.26-.68-.37-.52-.25-1.05-.49-1.6-.69a14.94,14.94,0,0,0-2.45-.63,2.93,2.93,0,0,0-.76-.15c-.47-.08-.93-.11-1.4-.16a10.78,10.78,0,0,0-1.6-.05c-.52,0-1.06,0-1.58.05s-1.31.11-1.94.23c-1.18.18-2.33.4-3.49.66a3,3,0,0,1-.41.09,0,0,0,0,0,0,0c-.05,0-.08,0-.13,0-.83.19-1.68.41-2.53.6s-1.81.43-2.72.57c-.49.08-1,.18-1.48.28a1.23,1.23,0,0,0-.27,0,16.84,16.84,0,0,1-2.13.18h-1.63a.46.46,0,0,0-.36.13.66.66,0,0,0,.26,1.14,8.24,8.24,0,0,1,2.69,1.48,6.48,6.48,0,0,1,1,1.3,3.22,3.22,0,0,1,.13,3,5.15,5.15,0,0,1-2.4,2.43,9.86,9.86,0,0,1-2.74.93,2.27,2.27,0,0,1-1.71-.13c-.1-.07-.11,0-.11.08a8.29,8.29,0,0,0,0,2.28A5.93,5.93,0,0,0,679,165c.23.19.46.36.75.26a.76.76,0,0,0,.48-.61,5.79,5.79,0,0,1,.55-1.43,7.29,7.29,0,0,1,2.67-2.84,6.66,6.66,0,0,1,2.86-1,5.59,5.59,0,0,1,.91-.08,9.24,9.24,0,0,1,1.19.1,7.43,7.43,0,0,1,2.59.88,6.28,6.28,0,0,1,2.3,2.16,8,8,0,0,1,1.08,3.28.9.9,0,0,0,.91.86h12.6a.68.68,0,0,0,.65-.66,6.65,6.65,0,0,1,.65-2.47,10,10,0,0,1,1.13-1.72,7.29,7.29,0,0,1,1.24-1.11,8,8,0,0,1,2-1,8.23,8.23,0,0,1,1.28-.24,6.24,6.24,0,0,1,2.28.08,9.39,9.39,0,0,1,1.89.65c0,.07.08.08.13.1a6.84,6.84,0,0,1,1.55,1.13,7.23,7.23,0,0,1,1.22,1.59,7,7,0,0,1,.93,2.77.6.6,0,0,0,.62.59,3.61,3.61,0,0,0,1.14-.23,5.44,5.44,0,0,0,2-1.12,4.59,4.59,0,0,0,1.47-2.12A2.71,2.71,0,0,0,727.72,160.29Zm-22.55-5.55c-2.29,3.23-4.59,6.44-6.89,9.69,0-.17.06-.28.1-.43a.12.12,0,0,0,0-.1v-.06s0,0,0,0a.43.43,0,0,1,0-.05,0,0,0,0,1,0,0,6,6,0,0,0,.23-.72v-.09c0-.07,0-.13.06-.17s0,0,0,0a.38.38,0,0,0,.08-.23v0a5.57,5.57,0,0,1,.31-1c.06-.23.13-.44.19-.67l0-.11c.23-.75.48-1.49.7-2.22.12-.31.2-.62.3-.93.05-.13.05-.21-.13-.2l-1.86.13a6.7,6.7,0,0,0-.9,0c-.11,0-.14,0-.11-.14.24-1.13.49-2.27.73-3.39s.52-2.25.75-3.38c.07-.34.31-.24.49-.28.39,0,.8-.06,1.19-.13h.08a.56.56,0,0,0,.36-.05h.26a3.33,3.33,0,0,0,.54-.07,2.83,2.83,0,0,0,.41,0,.24.24,0,0,0,.13-.05c.45,0,.89-.1,1.38-.11a5.2,5.2,0,0,1-.47.91c-.36.69-.73,1.35-1.09,2s-.65,1.21-1,1.81c-.06.15-.09.21.12.21.88,0,1.76-.08,2.62-.11a6.56,6.56,0,0,0,1.26-.09s0,0,0,0S705.17,154.71,705.17,154.74Z"/><path class="cls-1" d="M721,164.13a5.8,5.8,0,0,0-1.58-2,5.23,5.23,0,0,0-1.91-1,5.53,5.53,0,0,0-.7-.18,5.31,5.31,0,0,0-2.28,0,5.64,5.64,0,0,0-3,1.74,6,6,0,0,0-1.29,2.32,5.75,5.75,0,0,0,.54,4.3,5.11,5.11,0,0,0,1.19,1.48,6.38,6.38,0,0,0,1.16.82,1,1,0,0,1,.23.11,5.12,5.12,0,0,0,1.9.51,5.75,5.75,0,0,0,5.95-3.7,5.3,5.3,0,0,0,.33-2.5A6,6,0,0,0,721,164.13Zm-5.88,5.37a6.72,6.72,0,0,1-1.16-.43h0c0-.11-.09-.16-.16-.24a2.93,2.93,0,0,1-1-2.94,3.07,3.07,0,0,1,3.38-2.39.41.41,0,0,0,.27,0v0h0a1.5,1.5,0,0,0,.55.15l0,0v0a.58.58,0,0,0,.23.18,3,3,0,0,1,1.58,2.39A3.06,3.06,0,0,1,715.12,169.5Z"/><path class="cls-1" d="M692.83,165.22a5.85,5.85,0,0,0-2.16-3.29,2.87,2.87,0,0,0-.93-.54.19.19,0,0,0-.1,0,1,1,0,0,0-.39-.16,5.44,5.44,0,0,0-2.71-.32,5.72,5.72,0,0,0-4.51,3.19,5.79,5.79,0,0,0-.56,2.66,5.43,5.43,0,0,0,.69,2.52,5.67,5.67,0,0,0,2.28,2.3c.1.1.23.1.32.15A5.63,5.63,0,0,0,689,172a5.56,5.56,0,0,0,3.52-3.21A5.27,5.27,0,0,0,692.83,165.22Zm-4.23,4.05a3.21,3.21,0,0,1-2.71,0c-.07,0-.15-.09-.23-.06s0,0,0,0a4.17,4.17,0,0,1-1.1-1.19,3,3,0,0,1,.63-3.76,2.7,2.7,0,0,1,1.52-.72,3.9,3.9,0,0,1,1.32,0l0,0c0,.1.11.1.17.11a3,3,0,0,1,.4,5.63Z"/><path class="cls-1" d="M678.94,148a1.55,1.55,0,0,0,.24-.27,2.43,2.43,0,0,1,2.09-1.16,5.86,5.86,0,0,0,1.85-.33,3.65,3.65,0,0,0,1.24-.79,3.74,3.74,0,0,0,1-1.69,5.91,5.91,0,0,0,.19-1.19h-.07a4.25,4.25,0,0,1-2.08.57c-.6,0-1.19.1-1.78.2a2.22,2.22,0,0,0-1.63,1,3.24,3.24,0,0,0-.38,1.26c-.07.45.18.64.56.53a9.48,9.48,0,0,0,1.35-.49,6.76,6.76,0,0,0,1.17-.69.49.49,0,0,1-.19.24,9.45,9.45,0,0,1-2.57,1.4,3.05,3.05,0,0,0-1.29,1.15.2.2,0,0,0,0,.3A.19.19,0,0,0,678.94,148Z"/><path class="cls-1" d="M840.31,90.4l-4-15.35-.33.14a2.19,2.19,0,0,1-1.65,0A24.07,24.07,0,0,1,825.82,70h0a1.56,1.56,0,0,1,0,.31c0,.38-.12.43-.44.43q-1.21,0-2.43,0c-.34,0-.48-.09-.45-.47.07-1.38.11-2.78.16-4.17h0c0-.17,0-.34,0-.51a12.93,12.93,0,0,1-1-5.2c0-2.48,0-5,0-7.48h-3.85q-1.73,6.6-3.46,13.19-3.55,13.52-7.11,27a.91.91,0,0,0,0,.47h14.33c0-1,.09-2,.11-3.06,0-.26.1-.34.36-.34h4.22c.28,0,.37.08.38.34,0,1,.06,2,.09,3.06h14.35A26.17,26.17,0,0,0,840.31,90.4ZM825.9,85.16c-1.19,0-2.4,0-3.6,0-.31,0-.42-.09-.4-.41q.21-4.27.36-8.54c0-.35.12-.45.45-.43q1.45,0,2.88,0c.33,0,.45.08.47.43,0,1.43.1,2.88.17,4.31h0c.07,1.38.11,2.76.19,4.12C826.44,85.06,826.32,85.16,825.9,85.16Z"/><path class="cls-1" d="M849.64,54c0-1.66,0-3.31,0-4.95a2.05,2.05,0,0,0-2-2.31c-.91-.14-1.84-.24-2.74-.47a19.78,19.78,0,0,1-6.23-3,2.23,2.23,0,0,0-2.89,0,21.1,21.1,0,0,1-3.63,2.09,16.6,16.6,0,0,1-5.64,1.41,1.8,1.8,0,0,0-1.67,1.59,3.13,3.13,0,0,0,0,.43c0,.21,0,.42,0,.62,0,2.3,0,4.59,0,6.89v1.1a12.88,12.88,0,0,0,.17,2.35A2.25,2.25,0,0,1,825,60a11.91,11.91,0,0,0,.38,1.42c0,.13.11.27.16.41a12.39,12.39,0,0,0,3,4.47,21.52,21.52,0,0,0,6.54,4.26l.07,0c.4.18.81.33,1.22.49a2.13,2.13,0,0,0,.59.15,2,2,0,0,0,.95-.12l.24-.1c.91-.38,1.81-.78,2.67-1.21A18.56,18.56,0,0,0,846,66.06a14.13,14.13,0,0,0,2.4-3.19,8.94,8.94,0,0,0,1-3.1A42.15,42.15,0,0,0,849.64,54Zm-4.38,8.25a13.39,13.39,0,0,1-1.47,1.77,15.24,15.24,0,0,1-4.1,2.93c-.73.38-1.49.73-2.26,1.06l-.26,0V57.94c0-.21,0-.42,0-.62-.19-.12-.39,0-.58,0l-.85,0h-4.12c-1.09,0-2.19,0-3.28,0-.5,0-.62-.14-.6-.63,0-1.24,0-2.48,0-3.72,0-.45,0-.92,0-1.38V50.12c0-.31.07-.46.39-.5a20.14,20.14,0,0,0,8.68-3.41l.24-.14s.07,0,.1,0,.06.21.06.31V56.9c0,.14,0,.28,0,.42a.41.41,0,0,1,.28-.09l.24,0c2.81,0,5.61,0,8.42,0,.46,0,.52.16.53.57A7.25,7.25,0,0,1,845.26,62.29Z"/><path class="cls-1" d="M816.21,52.92h-1.86c-.05.16-.1.33-.16.48L800,87.93c-.76,1.86-1.54,3.7-2.31,5.55,0,.23.21.1.31.1h4.65a16.65,16.65,0,0,1,.74-2.4q6.35-19.06,12.72-38.13A1.47,1.47,0,0,1,816.21,52.92Z"/><path class="cls-1" d="M850.37,93.08,841.82,72.2a24.11,24.11,0,0,1-2.74,1.59L845.5,93a1,1,0,0,1,.12.55h4.65c.1,0,.27.13.31-.1S850.43,93.22,850.37,93.08Z"/><path class="cls-1" d="M897.11,312a9.26,9.26,0,0,0,.64-1.36,6.91,6.91,0,0,0,.41-1.46,3.09,3.09,0,0,0-.06-1.21,1.34,1.34,0,0,0-.12-.3,1.14,1.14,0,0,0-1-.64,2,2,0,0,0-1.41.4,4.51,4.51,0,0,0-.9.9q-.27.35-.51.72l-.07.09a.42.42,0,0,1,0-.1,4.6,4.6,0,0,0,.34-1.09,3,3,0,0,0,0-1.19,1.45,1.45,0,0,0-1.17-1.09,2.16,2.16,0,0,0-1.32.25,3.4,3.4,0,0,0-1,.92l-.22.29s0-.06,0-.08a3.54,3.54,0,0,0,.25-1.16,1.51,1.51,0,0,0-1.18-1.62,2,2,0,0,0-1.63.25,5.19,5.19,0,0,0-1,.92,6.92,6.92,0,0,0-.52.69s0,.06-.06.07a.09.09,0,0,1-.05,0c-.6-.57-1.25-1.08-1.9-1.59-.83-.66-1.68-1.31-2.54-1.95a.65.65,0,0,0-.28-.12l-1.66-.41c-.11,0-.11,0-.1-.13,0-.46.09-.91.15-1.36a17.57,17.57,0,0,1,.6-2.7,18.34,18.34,0,0,1,3.27-6.23,13.63,13.63,0,0,1,1.36-1.48.2.2,0,0,1,.23-.05l1.48.45a1.84,1.84,0,0,0,.41,0,5.78,5.78,0,0,1,1.42.29,3.17,3.17,0,0,1,.95.53c.17.14.13.12,0,.23-.5.47-1,.94-1.51,1.4a1.81,1.81,0,0,0-.51.82,2.42,2.42,0,0,0,0,1.41,1.64,1.64,0,0,0,.73,1,3,3,0,0,0,1.24.49,4.51,4.51,0,0,0,2.66-.35.71.71,0,0,0,.18-.12c.78-.61,1.56-1.21,2.33-1.83a3.58,3.58,0,0,1,1.31-.65,5.19,5.19,0,0,1,1.62-.15,7.84,7.84,0,0,1,2.57.6,9.29,9.29,0,0,1,1.48.82l1.88,1.25c2.83,1.88,5.66,3.78,8.43,5.77.9.64,1.8,1.3,2.66,2a6.31,6.31,0,0,1,.72.65,1.76,1.76,0,0,1,.53,1.47,1.79,1.79,0,0,1-.24.75,2.47,2.47,0,0,1-.45.61,1.59,1.59,0,0,1-.89.43,2,2,0,0,1-1.07-.19,3.25,3.25,0,0,1-.45-.25s-.05-.05-.09-.05,0,.06,0,.09a1.69,1.69,0,0,1,.31,1.33c0,.16,0,.33-.07.49a2.28,2.28,0,0,1-.69,1.2,3.57,3.57,0,0,1-.72.5,1.69,1.69,0,0,1-.73.16,4.07,4.07,0,0,1-1.65-.31s-.07,0-.12,0,0,.08,0,.11a2.24,2.24,0,0,1,0,1.23,2.3,2.3,0,0,1-1.11,1.32,2.12,2.12,0,0,1-.78.22,3.55,3.55,0,0,1-1.58-.19l-.07,0h0a.2.2,0,0,0,0,.11,1.79,1.79,0,0,1-.55,1.94,2.34,2.34,0,0,1-1.32.54,3.29,3.29,0,0,1-1.28-.19,7.59,7.59,0,0,1-1.51-.68,16.07,16.07,0,0,1-1.56-1l-.08-.06a.05.05,0,0,1,0-.08l.05-.07a6.11,6.11,0,0,0,.59-1.17,3.15,3.15,0,0,0,.19-1,1.46,1.46,0,0,0-.07-.55,1.11,1.11,0,0,0-.87-.75,1.2,1.2,0,0,0-.65,0,2.83,2.83,0,0,0-.92.53,5.76,5.76,0,0,0-.62.59A.27.27,0,0,1,897.11,312Z"/><path class="cls-1" d="M895.41,288.85c.18,0,.36,0,.54,0l1.64,0c.44,0,.88,0,1.32,0s.75,0,1.12-.09l.38-.07a3.73,3.73,0,0,1,1.2-.05,5.73,5.73,0,0,1,1.94.58c.79.38,1.59.71,2.39,1,1.26.53,2.52,1,3.79,1.55a5.14,5.14,0,0,0,1.09.28,4.4,4.4,0,0,0,.81,0,2.74,2.74,0,0,0,1.63-.53,9.5,9.5,0,0,0,.9-.76l.17-.16s.07,0,.11,0,.36.27.53.42a10.7,10.7,0,0,1,2.38,3,13.84,13.84,0,0,1,1.42,4,16.32,16.32,0,0,1,.26,1.86c0,.4.06.8.06,1.21,0,.09,0,.09-.08.09a5.21,5.21,0,0,0-2.26.57,5.78,5.78,0,0,0-1.64,1.27c-.06.07-.06.07-.15,0l-3.58-2.41-2-1.38L906,297l-3.19-2.15-1.26-.84a5.29,5.29,0,0,0-1-.48,8,8,0,0,0-1.91-.49,6.83,6.83,0,0,0-2.72.17,2.82,2.82,0,0,0-.48.19,7.32,7.32,0,0,0-1.6,1l-1.41,1.1a2,2,0,0,1-.56.3,4.28,4.28,0,0,1-1.27.3,2.36,2.36,0,0,1-1.81-.57.47.47,0,0,1-.15-.19,1.69,1.69,0,0,1-.09-1.5.72.72,0,0,1,.17-.22l1.89-1.68,1.87-1.66.83-.75a6,6,0,0,1,.62-.48,1.35,1.35,0,0,1,.61-.21C894.87,288.87,895.14,288.86,895.41,288.85Z"/><path class="cls-1" d="M884.27,288.72a.31.31,0,0,1-.08.11,18.86,18.86,0,0,0-2.23,2.81,21.46,21.46,0,0,0-2.6,5.31,19.27,19.27,0,0,0-.72,3q-.12.76-.18,1.53c0,.61-.05,1.23,0,1.85v.06a.11.11,0,0,1-.1,0L873,300.57a.14.14,0,0,1-.09-.17c0-.48.08-.95.13-1.41.08-.66.18-1.31.3-2a24.73,24.73,0,0,1,2-6.24,14.15,14.15,0,0,1,2.25-3.47,10.64,10.64,0,0,1,1.84-1.64l.14-.1s.06,0,.09,0l.07.05,4.54,3Z"/><path class="cls-1" d="M914.92,288.84l.56-.38,4-2.73,0,0s.08,0,.12,0l.42.3a14.12,14.12,0,0,1,2.07,2,16.52,16.52,0,0,1,2.36,3.65,17.56,17.56,0,0,1,1.13,3.09A19.19,19.19,0,0,1,926,297c.06.43.1.86.13,1.3.06.69.05,1.39.05,2.08,0,0,0,0,0,.05a.12.12,0,0,1-.09.12l-.58.28-1.83.88-3,1.43-.08,0s0-.07,0-.11c0-.44,0-.89,0-1.33s0-1-.09-1.44-.12-1.24-.22-1.86a21.92,21.92,0,0,0-.68-3,15.52,15.52,0,0,0-1.06-2.61,10.75,10.75,0,0,0-1.67-2.4,8.49,8.49,0,0,0-1.89-1.55l-.07,0Z"/><path class="cls-1" d="M897.54,309a3.76,3.76,0,0,1-.14.88,10.32,10.32,0,0,1-.85,2.16,7,7,0,0,1-1.19,1.62,2,2,0,0,1-.58.43,1,1,0,0,1-1.26-.28,1.34,1.34,0,0,1-.25-.49,2,2,0,0,1,0-1.13c.06-.22.12-.44.19-.65a7.76,7.76,0,0,1,.84-1.71,7.93,7.93,0,0,1,.73-1,3.35,3.35,0,0,1,1.24-.93,1.09,1.09,0,0,1,.31-.08.82.82,0,0,1,.89.59A2.1,2.1,0,0,1,897.54,309Z"/><path class="cls-1" d="M889.82,310.64a3,3,0,0,1,.13-.84,9.34,9.34,0,0,1,.88-2,4.39,4.39,0,0,1,.87-1.05,1.85,1.85,0,0,1,.77-.41,1.09,1.09,0,0,1,1.31.65,1.36,1.36,0,0,1,.11.66,4.34,4.34,0,0,1-.17,1.07,7.32,7.32,0,0,1-.45,1.21,5.91,5.91,0,0,1-.85,1.37,3,3,0,0,1-.65.58,1.3,1.3,0,0,1-1.25.08,1.1,1.1,0,0,1-.66-.87A2.32,2.32,0,0,1,889.82,310.64Z"/><path class="cls-1" d="M890.29,306.31a3.3,3.3,0,0,1-.47,1.63,3.75,3.75,0,0,1-.68.89,1.78,1.78,0,0,1-1.2.52,1.2,1.2,0,0,1-1.22-1,2.28,2.28,0,0,1,0-.69,3.51,3.51,0,0,1,.51-1.43,3.62,3.62,0,0,1,1.15-1.12,1.18,1.18,0,0,1,.47-.15,1.27,1.27,0,0,1,.67,0,1.12,1.12,0,0,1,.69.72.83.83,0,0,1,.06.21C890.29,306.06,890.28,306.18,890.29,306.31Z"/><path class="cls-1" d="M899.83,312.12a1.81,1.81,0,0,1-.09.61,7.1,7.1,0,0,1-.8,1.72,4,4,0,0,1-.79,1,1,1,0,0,1-.69.26.94.94,0,0,1-.51-.17.72.72,0,0,1-.28-.45,2.55,2.55,0,0,1,0-.73,3.19,3.19,0,0,1,.3-.95,4.62,4.62,0,0,1,1-1.49,2.44,2.44,0,0,1,.62-.49,1.35,1.35,0,0,1,.84-.09.5.5,0,0,1,.37.32,1.6,1.6,0,0,1,0,.21A1.42,1.42,0,0,1,899.83,312.12Z"/><g id="o3SyUi.tif"><path class="cls-1" d="M897.3,287.36l-1.64,0c-.19,0-.37,0-.55,0s-.53,0-.8.05a1.28,1.28,0,0,0-.6.22,5.73,5.73,0,0,0-.63.47c-.28.25-.55.51-.83.75l-1.33,1.19c-.37-.15-.47-.46-.47-1.13q0-5.7,0-11.4a1,1,0,0,1,.71-1.12H892a20.34,20.34,0,0,1,2.58.53,6.71,6.71,0,0,1,3.63,2.64,1.14,1.14,0,0,1,.23.69v7.06Z"/><path class="cls-1" d="M907.74,289.05a1.9,1.9,0,0,1-.06.52l-2-.84c-.81-.34-1.61-.67-2.39-1.05a5.78,5.78,0,0,0-2-.58,3.65,3.65,0,0,0-1.19,0l-.39.07h0q0-3.42,0-6.83a1.55,1.55,0,0,1,.28-.91,7.07,7.07,0,0,1,4.57-2.81c.52-.12,1.06-.19,1.59-.28H907a1,1,0,0,1,.71,1.12C907.74,281.36,907.74,285.21,907.74,289.05Z"/><path class="cls-1" d="M889.27,289.73a4,4,0,0,0-.59-.27,5.15,5.15,0,0,0-.88-.22v-9.4a1.07,1.07,0,0,1,.49-.54c.6-.27.91-.09.91.55V289A3.26,3.26,0,0,0,889.27,289.73Z"/><path class="cls-1" d="M910.39,280.16v10.37a4.52,4.52,0,0,1-1-.25l-.58-.24a2.28,2.28,0,0,0,.13-.8c0-3.13,0-6.26,0-9.38,0-.21-.16-.5.12-.63a1.08,1.08,0,0,1,1.12.34A1,1,0,0,1,910.39,280.16Z"/></g><g id="_7Bt7F9.tif" data-name="7Bt7F9.tif"><path class="cls-1" d="M748.66,305.8l1.61,1.61a.46.46,0,0,1,.15.36c0,.44,0,.88,0,1.32,0,.17,0,.24-.22.23h-1.37a.4.4,0,0,1-.32-.14c-1.07-1.09-2.15-2.18-3.22-3.28a.46.46,0,0,0-.36-.15h-3.14a.42.42,0,0,0-.32.13l-3.24,3.3a.44.44,0,0,1-.34.14H736.5c-.12,0-.18,0-.18-.17,0-.48,0-1,0-1.46a.33.33,0,0,1,.12-.25L737.9,306l.16-.17a7.46,7.46,0,0,1-1.18-.15,5.25,5.25,0,0,1-4.08-5.14q0-6.16,0-12.33a5.25,5.25,0,0,1,4.32-5.2,5.19,5.19,0,0,1,1-.09h10.4a5.25,5.25,0,0,1,5.24,4.17,5.46,5.46,0,0,1,.12,1.21v12.15a5.25,5.25,0,0,1-4,5.22A5.31,5.31,0,0,1,748.66,305.8Zm-5.29-8.8h6.81c.18,0,.24,0,.24-.22q0-5.07,0-10.13c0-.19-.06-.22-.23-.22H736.55c-.19,0-.23.05-.23.23q0,5.05,0,10.11c0,.19.06.23.24.23Zm-3.53,3.52a1.76,1.76,0,1,0-1.76,1.76A1.78,1.78,0,0,0,739.84,300.52Zm10.57,0a1.76,1.76,0,1,0-1.76,1.77A1.78,1.78,0,0,0,750.41,300.51Z"/><path class="cls-1" d="M745.24,273.24a2.54,2.54,0,0,1-.74,1.8l-6,6a.47.47,0,0,1-.35.12,7,7,0,0,0-6.68,4.56,6.75,6.75,0,0,0-.45,2.6.41.41,0,0,1-.15.36l-5.59,5.59a.34.34,0,0,0-.12.33c.18,1.29.35,2.58.54,3.86a.52.52,0,0,1-.16.51c-.51.49-1,1-1.5,1.51-.13.13-.17.13-.26,0l-2.88-5.22a.71.71,0,0,0-.31-.31l-5.23-2.9c-.18-.09-.17-.14,0-.27.54-.53,1.07-1.08,1.6-1.62a.25.25,0,0,1,.26-.1l4.08.61a.32.32,0,0,0,.31-.1q3.25-3.28,6.54-6.54c.14-.14.09-.18,0-.26l-12.7-6.67c-.16-.09-.18-.13,0-.26.73-.72,1.47-1.45,2.19-2.18a.33.33,0,0,1,.36-.11L728.51,277l5.22,1.21c.14,0,.21,0,.29-.12l6.72-6.71a2.65,2.65,0,0,1,3.47-.22A2.74,2.74,0,0,1,745.24,273.24Z"/></g><g id="nVTTIy.tif"><path class="cls-1" d="M767.13,308.83c0,.39-.11.52-.52.52q-6.54,0-13.08,0A.51.51,0,0,1,753,309a6.64,6.64,0,0,0-1.36-2.16h.07a5.26,5.26,0,0,0,4-5.22V289.41a5.28,5.28,0,0,0-.11-1.19h9.7a2.37,2.37,0,0,1,1.81,2.42C767.13,296.7,767.12,302.76,767.13,308.83Z"/><path class="cls-1" d="M777.6,295.56a2.27,2.27,0,0,0-2-1.07q-3.08,0-6.14,0c-.55,0-.7.14-.69.69,0,3.66,0,7.32,0,11,0,.19-.06.39.08.58.06,0,.13,0,.17-.07a5.57,5.57,0,0,1,9.13,2.47c0,.12.07.24.22.3a3.39,3.39,0,0,0,2.27-.39v-7.6A20.3,20.3,0,0,0,777.6,295.56Zm.35,4.25c-1.07,0-2.14,0-3.2,0s-2.14,0-3.2,0c-.5,0-.63-.15-.61-.63,0-.94,0-1.87,0-2.81,0-.4.12-.53.52-.52,1.37,0,2.74,0,4.11,0a.94.94,0,0,1,.84.41,29.06,29.06,0,0,1,1.88,3.05C778.54,299.78,778.33,299.81,778,299.81Z"/><path class="cls-1" d="M776.94,310a4.2,4.2,0,1,0-5.25,4.77c.18.06.4,0,.55.17h1.18c.16-.19.4-.14.6-.2A4.21,4.21,0,0,0,776.94,310Zm-4.16,2.67a1.94,1.94,0,0,1,0-3.88,1.94,1.94,0,1,1,0,3.88Z"/></g><path class="cls-1" d="M947.46,175.38c-.36.42-.13,1.37-1.13,1.23s-1.94-.34-2.07-1.61c0-.35-.12-.7.31-.85,1.12-.37,1.67-1.63,2.87-1.83.21,0,.49.31.47.68C947.32,173.69,948.08,174.65,947.46,175.38Z"/><path class="cls-1" d="M949.88,169.51a2.53,2.53,0,0,1-.19.4c-.43-.09-1-.06-1.25-.34a1.3,1.3,0,0,1-.14-1.62c.28-.43.71-.43.85,0S949,169.3,949.88,169.51Z"/><path class="cls-1" d="M950.58,171.76a.94.94,0,0,1-.73.89c-.3-.27-.94-.28-.93-.73,0-.66.77-.5,1.19-.67S950.62,171.44,950.58,171.76Z"/><path class="cls-1" d="M957.25,157.34c-.07.4-.53.52-.89.61s-.56-.19-.48.4c.22,1.82-.34,2.69-2.08,3.28a3.34,3.34,0,0,0-1.82,1.28c-.59-1.44.23-2,1.09-2.31,1.28-.49,2.16-1.16,2.13-2.68,0-.86.82-1.53,1.34-1.16C956.79,156.92,957.32,156.92,957.25,157.34Z"/><path class="cls-1" d="M935.05,161.77a.83.83,0,1,1-1.66,0,.83.83,0,1,1,1.66,0Z"/><path class="cls-1" d="M952.19,157.83a4.13,4.13,0,0,0-1.9-1.55,8.48,8.48,0,0,0-2.71-.41,19.28,19.28,0,0,0-4.74.17,3,3,0,0,0-.41.11,1.71,1.71,0,0,1-1.75-.27l.16-.27-.16.27a4.92,4.92,0,0,1-.45-.28,2.58,2.58,0,0,0-.4.7,3.88,3.88,0,0,0,.51,3.18,13.76,13.76,0,0,0,.77,1.21,12.76,12.76,0,0,1,1.11,1.9c1.18,2.65.73,4.84,0,7.63l-.61-.16c.74-2.76,1.15-4.75,0-7.21a12.92,12.92,0,0,0-1.06-1.81c-.27-.4-.55-.81-.79-1.25a8.77,8.77,0,0,1-.46-1,22.29,22.29,0,0,0-8.59-1.07l-.38,0c-1.86.21-4,.44-5.31-.95a6.17,6.17,0,0,1-.93-1.36A4.47,4.47,0,0,0,923,154l.13-.19a6.07,6.07,0,0,0-.57.43c-.47.37-.14.92.23,1.32a.29.29,0,0,1,.07.24,1.45,1.45,0,0,0-.29.85l.13-.24c.56.32,1.28.66,2,1s1.43.67,2,1a5.44,5.44,0,0,0,1.74.74,5.38,5.38,0,0,0,1.86-.11c.27,0,.55-.1.82-.13a9.87,9.87,0,0,1,3.31.3c1.53.4,2.47,1.08,2.7,2,.41,1.6-1.6,3.4-2.81,4.47l-.35.32a11.35,11.35,0,0,1-1.1.87,11.35,11.35,0,0,0-1,.83l-.19-.21a.52.52,0,0,1,.06.22c-.17,1.3.81,2.19,1,3.32.07.33.18.7.6.72s.51-.37.74-.6c.59-.64.12-1.64.57-2.13a11.86,11.86,0,0,1,2.93-2.57c.35-.19.57-.25.81.18s.82,1,.79,1.68c0,.27.06.77.4.64,1.17-.43,1.07.73,1,1a6.75,6.75,0,0,0,.85,3.62,8,8,0,0,0-1.23-.85.53.53,0,0,0-.59.1.33.33,0,0,0,0,.46c1.62,1.92,2.41,4.79,5.62,4.9.46,0,1,.68,1.3,0,.17-.46-.74-.35-1-.71-.07-.11-.31-.1-.47-.12-.7-.05-1.54.12-1.51-1,0-.78-1.08-1-.92-1.85a2.36,2.36,0,0,0-.84-2.58c-.42-.34-.91-1.08-.36-1.54s1,.41,1.18.74c.42.76.57.52,1.06.06,1.27-1.19,1.38-1.76.25-3.12-.23-.28-.47-.49-.22-.87s.4-.67.63-.53c.85.5,1.34-.22,2-.45,2.31-.85,3.09-2.38,2.41-4.71-.07-.23-.3-.49-.08-.7,1.13-1.08.08-1.09-.7-1.21,1-.68,2.17-.31,2.36.71.11.61.17,1.16,1,1,1-.25.47-.88.28-1.41A1.62,1.62,0,0,1,952.19,157.83Zm-3.66-15a.84.84,0,0,0-.82.84.83.83,0,0,0,.82.83.84.84,0,1,0,0-1.67Zm-17.26,2.53a.83.83,0,0,0-.79.58,1.6,1.6,0,0,0,.4.46,5.38,5.38,0,0,0,.83.5h0a.84.84,0,0,0,.38-.71A.83.83,0,0,0,931.27,145.36Zm1.94,3.54a2.31,2.31,0,0,0-.69-.86c-.3.52-.63,1-1,1.52.35.12.69.25,1,.39.47.2.83.36,1.16.53a6.28,6.28,0,0,1,.58.31l0,0,.22.14A10.29,10.29,0,0,1,933.21,148.9Zm6.48,6.37a23.74,23.74,0,0,1-3.92-3A2.15,2.15,0,0,1,935,152a4,4,0,0,1-.56-.38,3.35,3.35,0,0,0-.44-.29h0l-.53-.3c-.32-.16-.67-.32-1.12-.51a11.16,11.16,0,0,0-1.95-.65,12.49,12.49,0,0,0-3.29-.08l0-.63a13.41,13.41,0,0,1,3.46.09l.36.09c-.28-.41-.55-.82-.79-1.25a6.79,6.79,0,0,1-.54-1.12,2.42,2.42,0,0,1-.14-.7,1.92,1.92,0,0,1,.21-.83h0a6.18,6.18,0,0,1-.17-1.24l-.54-.15c-1.61-.43-2.09-.07-2.21,1.66,0,.41,0,.84,0,1.26-.15,1.2.57,2.33.23,3.52a2.57,2.57,0,0,0,.18,2c.35.7.52,1.27-.7,1.14-.58-.06-1.17-.07-1.75-.17a1.72,1.72,0,0,0-1.09.15,5.54,5.54,0,0,1,1.18,1.6,5.75,5.75,0,0,0,.83,1.23c1.13,1.17,3.07.95,4.79.76l.38,0a22.7,22.7,0,0,1,8.45,1,3.39,3.39,0,0,1,.12-2A3.18,3.18,0,0,1,939.69,155.27Zm8.84-12.44a.84.84,0,0,0-.82.84.83.83,0,0,0,.82.83.84.84,0,1,0,0-1.67Zm-8.21,7.58a.84.84,0,1,0,.84.83A.85.85,0,0,0,940.32,150.41Zm-4.8,13.11h0a2.8,2.8,0,0,0,1-2.22c-.23-.87-1.51-1.33-2.25-1.52a9.58,9.58,0,0,0-3.07-.28c-.26,0-.53.07-.79.12a6,6,0,0,1-2.08.12,6.21,6.21,0,0,1-1.95-.83c-.56-.32-1.27-.65-2-1s-1.25-.58-1.78-.87c.15.61.6,1.19.76,1.84-.69.38-2-.63-2,1a1.58,1.58,0,0,0-.61,0c-.71.19-2-.1-2.07.48-.22,1.23-.92,2.54-.24,3.82.94,1.78,2.28,3.35,2.85,5.34.15.55.51.56,1,.4a10.41,10.41,0,0,0,3.82-2.19,3.09,3.09,0,0,0,1-1.31c.22-.71-.65-.76-.77-1.23h2.33a6.86,6.86,0,0,1,2.75,1.95,10.91,10.91,0,0,1,1.06-.84,10.14,10.14,0,0,0,1-.83l.36-.32.06-.05a14.23,14.23,0,0,1-.91-1.42,6.79,6.79,0,0,1-.54-1.12,2.13,2.13,0,0,1-.14-.7,1.89,1.89,0,0,1,3.73-.39,1.81,1.81,0,0,1,0,1A6.5,6.5,0,0,1,935.52,163.52Zm37.05-17.94a19.51,19.51,0,0,1-3-1.42,7.36,7.36,0,0,0-1-.41,4.48,4.48,0,0,0-1.34-.21,1.55,1.55,0,0,0-.31,0c-.39.08-.72.27-1,.36a1,1,0,0,1-.3,0c-2.1,0-4-1.16-6.13-1.15-.22,0-.43-.23-.66-.32-1-.43-2.42-1.07-3.18-.45-1.16,1-2.49.21-3.57.88a.37.37,0,0,1-.48-.28c-.25-1-.94-1.73-1.59-1.34-1.63,1-3-.75-4.55-.07.31-.55.95-.76.62-1.49s-.91-.45-1.4-.59c-1.46-.42-2.83-.56-4.06.54a.66.66,0,0,1-.49.07c-2.21-.49-3.63,1.54-5.61,1.76-.07,0-.13.11-.17.18-.74,1.09-1.7.81-2.59.34-1.07-.54-1.91-.15-2.06,1.06a1,1,0,0,0,0,.34h.44a8.68,8.68,0,0,0,.06,1.36,1.8,1.8,0,0,1,.78-.36,1.88,1.88,0,0,1,2.22,1.43,1.81,1.81,0,0,1-.05,1,6.25,6.25,0,0,1-.24.6,2.83,2.83,0,0,1,.95,1.15,9.35,9.35,0,0,0,1.62,2.34,21.13,21.13,0,0,0,4.7,3.82l0,0a18,18,0,0,1-1-1.59,7.64,7.64,0,0,1-.53-1.12,2.07,2.07,0,0,1-.14-.69,1.89,1.89,0,0,1,3.73-.4,1.82,1.82,0,0,1-.06,1,5.73,5.73,0,0,1-.48,1.07l-.33.56a4.19,4.19,0,0,0,.45-.59,6.85,6.85,0,0,0,.73-2.21,8.48,8.48,0,0,1,.59-2,4.49,4.49,0,0,1,4.67-2.48c-.14-.23-.29-.46-.42-.7a7.64,7.64,0,0,1-.53-1.12,2,2,0,0,1-.14-.69,1.89,1.89,0,0,1,3.73-.4,1.72,1.72,0,0,1-.06,1,6.13,6.13,0,0,1-.48,1.08c-.25.44-.53.87-.81,1.29l.23.13a2.92,2.92,0,0,0,2.9.23l6.92-1.78a11.5,11.5,0,0,1,5.14-.49,8.52,8.52,0,0,1,2.35.92c.31.17.62.34.92.52l.74.41.78.41-.27.57c-.29-.14-.59-.3-.88-.46l-.57-.32h0l-.11-.07a10.75,10.75,0,0,0-3.08-1.36,10.92,10.92,0,0,0-4.86.49l-6.93,1.77a4.6,4.6,0,0,1-2.32.18,4.66,4.66,0,0,1-1-.47l-.29-.15-.12.17h0l-.16-.24-.09-.12a3.85,3.85,0,0,0-4.64,2,8.36,8.36,0,0,0-.54,1.86,7.46,7.46,0,0,1-.81,2.41,7.35,7.35,0,0,1-1.18,1.36c-.16.16-.32.31-.47.47l.36.22c.68.41.86.34,1.23.22a3.14,3.14,0,0,1,.48-.14,19.67,19.67,0,0,1,4.9-.18,9,9,0,0,1,2.91.46,4.7,4.7,0,0,1,2.21,1.8l-.39.25a.58.58,0,0,1,.17-.06c2.23-.69,2.84-2.46,3.31-4.36.17-.65,0-1.45-1.07-1.15-.55.14-.62-.08-.43-.51.38-.83,2.31-1.74,3.18-1.92,1.15-.23,2.52.84,3.47-.62.23-.35.67-1.07,1.31-.38s-.26.83-.53,1.09a2.76,2.76,0,0,0-.75,3.51c.11.25.41.55.52.33.55-1.07,1.88-1.58,2-2.88s.62-1.85,1.91-1.57c1,.21,1.46-.5,2.11-.88s1.73.06,1.64-1.37c-.05-.66.91-.7,1.55-.46a6.16,6.16,0,0,1,.63.41c.78.33,1-.53,1.42-.79C973.1,146,972.79,145.64,972.57,145.58Z"/><path class="cls-1" d="M979.25,156.66A33.25,33.25,0,1,0,946,191.09,33.23,33.23,0,0,0,979.25,156.66Zm-20.11-27.22a27.81,27.81,0,0,1,5.54,3.33c-1.24.55-2.15.68-3.06-.5a22,22,0,0,0-2.7-2.58C959,129.6,959.07,129.52,959.14,129.44Zm1.14,4.29a45.42,45.42,0,0,1-5.6.85c-.58.11-.66-.32-.82-.73a26.94,26.94,0,0,0-3.28-6.61A20.39,20.39,0,0,1,960.28,133.73Zm-11.62-5.65a19.07,19.07,0,0,1,3.11,5.92c.28.78-.1.85-.7.85H940.93c-.5,0-.93,0-.66-.77a19.74,19.74,0,0,1,3.07-5.94C945,126.08,947,126.06,948.66,128.08Zm-10.4,5.73a1,1,0,0,1-1.21.77c-1.42-.19-2.85-.34-4.27-.56-.59-.08-1.13-.25-.42-1a21.14,21.14,0,0,1,9.14-5.85A22.66,22.66,0,0,0,938.26,133.81ZM933,129.5c-1.08,1.12-2.18,2.19-3.17,3.39-.78.94-1.51-.1-2.31,0A17.66,17.66,0,0,1,933,129.5Zm-14.46,13.39a34.07,34.07,0,0,1,6.38-8.16.84.84,0,0,1,.91-.27l.25,0c2.48.68,2.14.44,1,2.25a32.65,32.65,0,0,0-3.68,8.46c-.26,1-.63,1.22-1.57.77a28.94,28.94,0,0,1-2.94-1.49A1,1,0,0,1,918.54,142.89Zm2.38,33.5,5.15,1.39a1.25,1.25,0,0,1,.75.64,35.41,35.41,0,0,0,6.15,7.72A30.59,30.59,0,0,1,920.92,176.39Zm8.36,2.14c2.75.27,5.17.51,7.61.73a.85.85,0,0,1,.81.67,31,31,0,0,0,3.45,8.25C936,186.58,932.29,183.19,929.28,178.53Zm21.45,9.87a34.34,34.34,0,0,0,2.53-5.15c.31-1,.68-2,1-3a1.12,1.12,0,0,1,1-1c2.42-.22,4.83-.46,7.48-.72A22.64,22.64,0,0,1,950.73,188.4Zm4.54-12.12a87,87,0,0,0,1.5-10.16c.08-.73.22-1.1,1.08-1.19a80.7,80.7,0,0,0,9.29-1.27c.8-.18,1,0,.84.81a41.12,41.12,0,0,1-3.47,11c-.21.41-.38.79-1,.88-2.47.33-4.93.71-7.4,1.07C955.15,177.56,955.09,177.07,955.27,176.28Zm3.83,9.88c1-1.24,2.28-2.24,3.2-3.56a11.49,11.49,0,0,0,1.5-2c1.28-3.23,4.32-3.15,7.21-4.06A30.33,30.33,0,0,1,959.1,186.16Zm16.44-18c-.28.79-.68,1.55-.92,2.36-1.17,3.82-4.61,4.08-7.82,5.09.58-1.84,1.27-3.41,1.77-5.06a51,51,0,0,0,1.41-6.44,1.5,1.5,0,0,1,1.28-1.45,21.52,21.52,0,0,0,5.88-2.31A27.52,27.52,0,0,1,975.54,168.17Zm.75-9.76a17.89,17.89,0,0,1-5.19,2.3c-.81.27-.8-.34-.8-.87,0-1.74,0-3.48,0-5.21a28.29,28.29,0,0,0-.47-4.29c-.12-.77-.4-1.15-1.23-1s-.86.66-.74,1.33a45.46,45.46,0,0,1,.54,9.61,1.2,1.2,0,0,1-1.14,1.35c-3.13.61-6.27,1-9.42,1.38-.29,0-.62.09-.78-.26s.07-1-.39-.94a4.81,4.81,0,0,0-1.57.72c-1.33.69-2.49,2-4.24,1-.45-.27-.78.07-.78.51,0,.59.14,1.23.94,1.25,1,0,2,0,2.92,0,.66,0,.88.21.83.9a69.83,69.83,0,0,1-1.52,10.28,1.23,1.23,0,0,1-1.47,1.16c-.92,0-1.86,0-2.79.07-.41,0-.8,0-1,.54-.49,1.37-.43,1.5,1,1.5a15.55,15.55,0,0,0,2.16-.11c.93-.12,1.34,0,.93,1.09a21.57,21.57,0,0,1-3.29,6.68c-1.85,2.27-3.86,2.25-5.65-.07a24.15,24.15,0,0,1-3.29-6.82c-.3-.86.11-.92.78-.9,1.25,0,2.5,0,3.75,0a3.59,3.59,0,0,0,.12-.35,3.47,3.47,0,0,1-3-1.42,1,1,0,0,0-.83-.21c-1.48.23-1.88-.59-2.07-1.85-.33-2-.8-4-1-6,0-.49.24-1.34-.59-1.29s-1.12.74-1.24,1.42a4.89,4.89,0,0,0,.1,1.52c.27,1.67.52,3.34.88,5,.19.92-.17,1-.91.92-2.35-.35-4.69-.68-7-1a1.67,1.67,0,0,1-1.42-1.09,36.05,36.05,0,0,1-1.7-4.24c-.14-.48-.27-1-1-.72s-1.22.47-.88,1.35c.46,1.22.91,2.45,1.37,3.69a8.56,8.56,0,0,1-7.88-5.13,31.59,31.59,0,0,1-2.32-8.68c0-.31-.27-.71.08-.93s.53.15.8.23c.47.13,1,1,1.37.25.29-.59.62-1.52-.52-2a3,3,0,0,1-1.91-3.57,39.4,39.4,0,0,1,1.88-8.53c.34-1,.79-1.15,1.64-.52a10.39,10.39,0,0,0,3.2,1.53c.86.26,1.19.61.9,1.54a10.09,10.09,0,0,0-.35,2.12c0,.4-.4,1.13.32,1.11a1.6,1.6,0,0,0,1.68-1.09c.14-.57.13-1.18.25-1.75.06-.31,0-.79.45-.82,1.13-.09.8-1,.63-1.4a4.17,4.17,0,0,1,.24-3.1,40.94,40.94,0,0,1,4.06-8.17,1.31,1.31,0,0,1,1.55-.67c1.71.33,3.43.59,5.15.76.85.07,1,.36.79,1.12-.09.4-.61,1.1.15,1.27s1.54.06,1.69-.75c.25-1.43,1.17-1.38,2.24-1.31a69.26,69.26,0,0,0,9.77,0,1.59,1.59,0,0,1,2,1.5c.12.71.28,1.41.46,2.1.12.4,0,1.07.79.84s1.36-.37,1.11-1.35c-.2-.82-.31-1.66-.54-2.48-.15-.6,0-.81.62-.88,1.76-.21,3.53-.45,5.28-.78a1.4,1.4,0,0,1,1.65.77,27.55,27.55,0,0,1,2.69,5,1.18,1.18,0,0,0,1.33.88,3.4,3.4,0,0,0,.53-.08c.34-.06.46-.21.48-.39a1.75,1.75,0,0,0-.28-.81,50.37,50.37,0,0,0-2.38-4.62c-.27-.41-.92-.79-.48-1.41a3.15,3.15,0,0,1,2.73-.42,31.38,31.38,0,0,1,6.46,8.26c.13.23.26.48.06.71-.85.91.09,1.39.58,1.65a2.47,2.47,0,0,1,1.12,1.42,31,31,0,0,1,2,9.65A2.26,2.26,0,0,1,976.29,158.41Z"/><path class="cls-1" d="M824.67,149.47A41.36,41.36,0,1,0,866,190.82,41.35,41.35,0,0,0,824.67,149.47Zm0,74.47a33.12,33.12,0,1,1,33.11-33.12A33.12,33.12,0,0,1,824.67,223.94Z"/><path class="cls-1" d="M704.74,420.28v-48.9h9V412.6h24.59V371.38h9v48.9ZM746.3,431V418.12l2,2.16h-10V412.6h16.35V431Z"/><path class="cls-1" d="M770.89,412.6h27.59v7.68H761.81v-48.9h35.7v7.69H770.89Zm-.7-20.89H794.5v7.47H770.19Z"/><path class="cls-1" d="M816.43,420.28h-9.08v-48.9h9.08Zm26-20.95H815.74v-7.76h26.68Zm-.7-27.95h9v48.9h-9Z"/><path class="cls-1" d="M873.57,420.28V376.83l2.17,2.24h-18.3v-7.69h41.35v7.69h-18.3l2-2.24v43.45Z"/><path class="cls-1" d="M905.36,420.28v-48.9h20.11a27.39,27.39,0,0,1,11.14,2.06,15.93,15.93,0,0,1,7.16,6,16.9,16.9,0,0,1,2.52,9.36,16.59,16.59,0,0,1-2.52,9.25,16.37,16.37,0,0,1-7.16,6,26.55,26.55,0,0,1-11.14,2.13h-15l4-4.19v18.3ZM914.44,403l-4-4.47h14.6c4,0,7-.85,9.05-2.55a10,10,0,0,0,0-14.32c-2-1.7-5-2.55-9.05-2.55h-14.6l4-4.47Z"/><path class="cls-1" d="M170.7,504.1V455.21h9v34.71L206,455.21h8.45V504.1h-9V469.46L179.22,504.1Z"/><path class="cls-1" d="M222,499.35l2.93-6.7a24.77,24.77,0,0,0,6.91,3.31,27.22,27.22,0,0,0,7.41,1.23,21.21,21.21,0,0,0,6.67-.88,11.62,11.62,0,0,0,4.89-2.76,6,6,0,0,0,1.85-4.47,5.43,5.43,0,0,0-2.65-4.89,13.93,13.93,0,0,0-7.41-1.67H231.33v-7.2H242a10.93,10.93,0,0,0,6.39-1.6,5.3,5.3,0,0,0,2.28-4.61,5.23,5.23,0,0,0-1.51-3.78,9.28,9.28,0,0,0-4-2.3,19.91,19.91,0,0,0-5.73-.77,26.09,26.09,0,0,0-13.16,3.7l-2.8-7.26a32.46,32.46,0,0,1,9.71-3.53,35.74,35.74,0,0,1,9.78-.52,26,26,0,0,1,8.56,2.16,16.57,16.57,0,0,1,6.07,4.54,10.29,10.29,0,0,1,2.28,6.71,10.91,10.91,0,0,1-1.79,6.18,11.8,11.8,0,0,1-5,4.19,17.67,17.67,0,0,1-7.54,1.5l.28-2.3a20.87,20.87,0,0,1,8.55,1.61,12.84,12.84,0,0,1,5.56,4.5,11.67,11.67,0,0,1,2,6.67,11.36,11.36,0,0,1-1.78,6.32,14.27,14.27,0,0,1-5,4.61,25,25,0,0,1-7.23,2.73,34.08,34.08,0,0,1-8.49.7,35.38,35.38,0,0,1-8.94-1.54A33.28,33.28,0,0,1,222,499.35Z"/><path class="cls-1" d="M286,496.07l-21.66-40.86h9.65L291.05,489Zm-14.95.35a12.73,12.73,0,0,0,6.78.7c2-.42,3.68-1.84,5.17-4.26l2.37-3.71.91-1,17-33h8.94L291,494.67a21.77,21.77,0,0,1-6.11,7.51,14.33,14.33,0,0,1-7.69,2.9,18.47,18.47,0,0,1-8.48-1.54Z"/><path class="cls-1" d="M348.82,485.1a44,44,0,0,1-7.48,2.41,32.33,32.33,0,0,1-7,.81q-9.3,0-14.39-4.54t-5.1-12.93V455.21h8.94v14.53q0,5.24,3,8c2,1.81,4.9,2.72,8.62,2.72a28.76,28.76,0,0,0,6.78-.8,32.19,32.19,0,0,0,6.5-2.34Zm-1.4,19V455.21h9V504.1Z"/><path class="cls-1" d="M378,496.42h27.6v7.68H368.93V455.21h35.7v7.68H378Zm-.7-20.89h24.31V483H377.31Z"/><path class="cls-1" d="M423.56,504.1h-9.08V455.21h9.08Zm26-21H422.86v-7.76h26.68Zm-.7-27.94h9V504.1h-9Z"/><path class="cls-1" d="M470.43,504.1V455.21h9v34.71l26.26-34.71h8.45V504.1h-9V469.46L479,504.1Z"/><path class="cls-1" d="M555,504.1V488.39l2.23,2.09H542.93a25,25,0,0,1-10.62-2.06,15.24,15.24,0,0,1-6.77-6,17.58,17.58,0,0,1-2.38-9.29,17.78,17.78,0,0,1,2.52-9.71,16.23,16.23,0,0,1,7.12-6.11,25.61,25.61,0,0,1,10.83-2.13H564V504.1Zm-31.72,0,12.09-17.46h9.15L532.87,504.1ZM555,485.52V460.45l2.23,2.44H543.91q-5.6,0-8.56,2.55t-3,7.58a9.67,9.67,0,0,0,2.83,7.44c1.89,1.74,4.67,2.62,8.35,2.62h13.69Z"/><path class="cls-1" d="M594.41,504.1V455.21h43.38V504.1h-9V460.65l2.09,2.24H601.33l2.09-2.24V504.1Z"/><path class="cls-1" d="M650.22,504.1V455.21h20.12a27.26,27.26,0,0,1,11.14,2.06,15.9,15.9,0,0,1,7.16,6,16.92,16.92,0,0,1,2.51,9.36,15.82,15.82,0,0,1-9.67,15.26A26.58,26.58,0,0,1,670.34,490h-15l4-4.19v18.3Zm9.08-17.32-4-4.47h14.6q6,0,9.05-2.55a10,10,0,0,0,0-14.32q-3-2.55-9.05-2.55h-14.6l4-4.47Z"/><path class="cls-1" d="M721.89,504.8a28.9,28.9,0,0,1-10.51-1.88,25.14,25.14,0,0,1-8.42-5.31,24,24,0,0,1-5.52-8,26.56,26.56,0,0,1,0-20,23.63,23.63,0,0,1,5.52-8,25.51,25.51,0,0,1,8.38-5.28,30.58,30.58,0,0,1,21,0,24.56,24.56,0,0,1,8.34,5.24,23.85,23.85,0,0,1,5.49,8,26.82,26.82,0,0,1,0,20.08A24.28,24.28,0,0,1,732.37,503,29.12,29.12,0,0,1,721.89,504.8Zm0-8a18,18,0,0,0,6.81-1.26,16.17,16.17,0,0,0,5.41-3.56,16.4,16.4,0,0,0,3.6-5.45,18.07,18.07,0,0,0,1.29-6.92,18.59,18.59,0,0,0-1.25-6.91,15.81,15.81,0,0,0-3.6-5.45,16.49,16.49,0,0,0-5.45-3.56,18,18,0,0,0-6.81-1.26,18.5,18.5,0,0,0-6.88,1.26,15.65,15.65,0,0,0-5.48,3.6,17.63,17.63,0,0,0,0,24.65,15.65,15.65,0,0,0,5.48,3.6A18.5,18.5,0,0,0,721.89,496.84Z"/><path class="cls-1" d="M756.88,504.1V455.21H795v7.54H765.9V474.7h14.46q8.79,0,13.37,3.63t4.58,10.61q0,7.2-5.07,11.18t-14.28,4Zm9-7h12.57c3.49,0,6.15-.68,8-2a6.85,6.85,0,0,0,2.73-5.87q0-7.55-10.69-7.54H765.9Z"/><path class="cls-1" d="M804.8,504.73a22.06,22.06,0,0,1-2.41-.14,20.81,20.81,0,0,1-2.62-.49l.63-8a7.46,7.46,0,0,0,2.1.28,5.48,5.48,0,0,0,4.71-2.38,16.79,16.79,0,0,0,2.48-7.05,96.91,96.91,0,0,0,1-11.6l.7-20.18h36V504.1h-9V460.65l2.17,2.24H817.31l2-2.31-.49,14.53q-.27,7.2-1,12.72a39.86,39.86,0,0,1-2.31,9.32,12.62,12.62,0,0,1-4.12,5.69A10.72,10.72,0,0,1,804.8,504.73Z"/><path class="cls-1" d="M869,496.42h27.59v7.68H859.92V455.21h35.69v7.68H869Zm-.7-20.89h24.31V483H868.3Z"/><path class="cls-1" d="M905.46,504.1V455.21h7.47l21.38,35.69H930.4l21.09-35.69h7.41L959,504.1H950.3V468.69h1.82l-17.81,29.89h-4.12L912,468.69h2.16V504.1Z"/><path class="cls-1" d="M999.69,504.1V460.65l2.17,2.24H983.55v-7.68h41.36v7.68h-18.3l2-2.24V504.1Z"/><path class="cls-1" d="M1031.47,504.1V455.21h20.12a27.26,27.26,0,0,1,11.14,2.06,15.9,15.9,0,0,1,7.16,6,16.92,16.92,0,0,1,2.51,9.36,15.82,15.82,0,0,1-9.67,15.26,26.58,26.58,0,0,1-11.14,2.13h-15l4-4.19v18.3Zm9.08-17.32-4-4.47h14.6c4,0,7-.85,9-2.55a10,10,0,0,0,0-14.32c-2-1.7-5-2.55-9-2.55h-14.6l4-4.47Z"/><path class="cls-1" d="M1071.08,504.1l22-48.89H1102l22.07,48.89h-9.57L1095.66,460h3.64l-18.93,44.07Zm10.13-11.31,2.51-7.13h26.33l2.45,7.13Z"/><path class="cls-1" d="M1139.39,504.1h-9.08V455.21h9.08Zm26-21h-26.69v-7.76h26.69Zm-.7-27.94h9V504.1h-9Z"/><path class="cls-1" d="M1208.75,504.8a28.45,28.45,0,0,1-10.4-1.85,24.48,24.48,0,0,1-13.77-13.24,26.9,26.9,0,0,1,0-20.11,24.48,24.48,0,0,1,5.52-8,24.93,24.93,0,0,1,8.32-5.27,30.2,30.2,0,0,1,21.37.21,21.64,21.64,0,0,1,8.38,6.11l-5.87,5.52a18.46,18.46,0,0,0-6-4.3,17.54,17.54,0,0,0-7.06-1.43,18.9,18.9,0,0,0-7,1.26,16.29,16.29,0,0,0-5.52,3.56,16.55,16.55,0,0,0-3.66,5.45,18.64,18.64,0,0,0,0,13.83,16.26,16.26,0,0,0,9.18,9,18.9,18.9,0,0,0,7,1.26,17.54,17.54,0,0,0,7.06-1.43,18,18,0,0,0,6-4.37l5.87,5.52a22,22,0,0,1-8.38,6.15A28.25,28.25,0,0,1,1208.75,504.8Z"/><path class="cls-1" d="M1235.37,504.1V455.21h43.37V504.1h-9V460.65l2.1,2.24h-29.55l2.1-2.24V504.1Z"/><path class="cls-1" d="M1313.88,504.8a28.9,28.9,0,0,1-10.51-1.88,25.14,25.14,0,0,1-8.42-5.31,24,24,0,0,1-5.52-8,26.44,26.44,0,0,1,0-20,23.63,23.63,0,0,1,5.52-8,25.51,25.51,0,0,1,8.38-5.28,30.58,30.58,0,0,1,21,0,24.56,24.56,0,0,1,8.34,5.24,24,24,0,0,1,5.49,8,26.82,26.82,0,0,1,0,20.08A24.28,24.28,0,0,1,1324.36,503,29.12,29.12,0,0,1,1313.88,504.8Zm0-8a18,18,0,0,0,6.81-1.26,16.17,16.17,0,0,0,5.41-3.56,16.4,16.4,0,0,0,3.6-5.45,18.07,18.07,0,0,0,1.29-6.92,18.39,18.39,0,0,0-1.26-6.91,15.64,15.64,0,0,0-3.59-5.45,16.49,16.49,0,0,0-5.45-3.56,18,18,0,0,0-6.81-1.26,18.5,18.5,0,0,0-6.88,1.26,15.65,15.65,0,0,0-5.48,3.6,17.63,17.63,0,0,0,0,24.65,15.65,15.65,0,0,0,5.48,3.6A18.5,18.5,0,0,0,1313.88,496.84Z"/><path class="cls-1" d="M1348.88,504.1V455.21H1369a27.22,27.22,0,0,1,11.14,2.06,15.85,15.85,0,0,1,7.16,6,16.92,16.92,0,0,1,2.52,9.36,16.57,16.57,0,0,1-2.52,9.25,16.37,16.37,0,0,1-7.16,6A26.55,26.55,0,0,1,1369,490h-15l4-4.19v18.3Zm9.08-17.32-4-4.47h14.6c4,0,7-.85,9-2.55a10,10,0,0,0,0-14.32c-2-1.7-5-2.55-9-2.55H1354l4-4.47Z"/><path class="cls-1" d="M1406,504.1V460.65l2.17,2.24h-18.3v-7.68h41.35v7.68h-18.3l2-2.24V504.1Z"/><path class="cls-1" d="M1429.13,504.1l22-48.89h8.94l22.07,48.89h-9.57L1453.72,460h3.63l-18.93,44.07Zm10.13-11.31,2.52-7.13h26.33l2.44,7.13Z"/></svg>