<svg id="Layer_1" data-name="Layer 1" xmlns="http://www.w3.org/2000/svg" viewBox="0 0 1590 553"><defs><style>.cls-1{fill:#fff;}.cls-2{fill:#008fc0;}.cls-3{fill:#fd9000;}.cls-4{fill:#2980bf;}.cls-5{fill:#008037;}.cls-6{fill:#ff9000;}.cls-7{fill:#ff001a;}.cls-8{fill:#ff0016;}</style></defs><path class="cls-1" d="M146.78,380v7.8H133.93v40.42h-9.68V387.77H111.4V380Z"/><path class="cls-1" d="M178.69,428.19,168.05,409.4h-4.56v18.79h-9.67V380h18.1a21.08,21.08,0,0,1,9.54,2,13.7,13.7,0,0,1,5.9,5.32,15,15,0,0,1-.79,16.09,14.21,14.21,0,0,1-8.22,5.29l11.53,19.55Zm-15.2-26.05h8.09q3.93,0,5.87-1.9a7,7,0,0,0,1.93-5.28,6.75,6.75,0,0,0-1.93-5.15q-1.94-1.83-5.87-1.83h-8.09Z"/><path class="cls-1" d="M227.67,419h-19.2l-3.18,9.19H195.13l17.35-48.29h11.26l17.34,48.29H230.85Zm-2.62-7.74-7-20.17-7,20.17Z"/><path class="cls-1" d="M288.82,428.19h-9.68l-21.9-33.09v33.09h-9.67V379.9h9.67l21.9,33.16V379.9h9.68Z"/><path class="cls-1" d="M305.91,427a15,15,0,0,1-6.39-5,13.16,13.16,0,0,1-2.42-7.67h10.37a6.69,6.69,0,0,0,2.1,4.7,7.49,7.49,0,0,0,5.22,1.73,8,8,0,0,0,5.32-1.63,5.25,5.25,0,0,0,1.93-4.24,4.9,4.9,0,0,0-1.31-3.53,9.18,9.18,0,0,0-3.28-2.17,55.18,55.18,0,0,0-5.42-1.77,59.08,59.08,0,0,1-7.64-2.72,13.33,13.33,0,0,1-5-4.08,11.59,11.59,0,0,1-2.11-7.29,13.1,13.1,0,0,1,2.14-7.46,13.63,13.63,0,0,1,6-4.87,21.86,21.86,0,0,1,8.85-1.69q7.45,0,12.12,3.62A13.45,13.45,0,0,1,331.51,393H320.87a5.52,5.52,0,0,0-2.11-4.11,7.94,7.94,0,0,0-5.21-1.62,6.72,6.72,0,0,0-4.53,1.45,5.24,5.24,0,0,0-1.69,4.22,4.33,4.33,0,0,0,1.28,3.21,9.79,9.79,0,0,0,3.17,2.07q1.91.79,5.36,1.83a56.39,56.39,0,0,1,7.67,2.76,13.91,13.91,0,0,1,5.11,4.15,11.49,11.49,0,0,1,2.14,7.25,13.71,13.71,0,0,1-2,7.19,14.14,14.14,0,0,1-5.87,5.28,20,20,0,0,1-9.19,2A23,23,0,0,1,305.91,427Z"/><path class="cls-1" d="M373.75,402.14A13.42,13.42,0,0,1,368,407.6a20.86,20.86,0,0,1-9.84,2.07h-8.09v18.52h-9.67V380h17.76a21.45,21.45,0,0,1,9.53,1.93,13.48,13.48,0,0,1,5.91,5.32,15.56,15.56,0,0,1,.13,14.92ZM363.7,400a6.75,6.75,0,0,0,1.94-5.15q0-7-7.88-7.05h-7.67v14h7.67Q361.77,401.87,363.7,400Z"/><path class="cls-1" d="M392.37,425.49a23.64,23.64,0,0,1-9-8.8,26,26,0,0,1,0-25.43,23.73,23.73,0,0,1,9-8.81,26.05,26.05,0,0,1,24.91,0,23.62,23.62,0,0,1,8.91,8.81,26.28,26.28,0,0,1,0,25.43,23.42,23.42,0,0,1-8.95,8.8,25.9,25.9,0,0,1-24.87,0Zm20.11-7.42a13.47,13.47,0,0,0,5.18-5.63,18.54,18.54,0,0,0,1.86-8.5,18.31,18.31,0,0,0-1.86-8.46,13.28,13.28,0,0,0-5.18-5.56,15,15,0,0,0-7.67-1.94,15.17,15.17,0,0,0-7.71,1.94,13.22,13.22,0,0,0-5.21,5.56,18.31,18.31,0,0,0-1.87,8.46,18.54,18.54,0,0,0,1.87,8.5,13.4,13.4,0,0,0,5.21,5.63,15,15,0,0,0,7.71,2A14.77,14.77,0,0,0,412.48,418.07Z"/><path class="cls-1" d="M461.53,428.19,450.89,409.4h-4.56v18.79h-9.67V380h18.1a21,21,0,0,1,9.53,2,13.72,13.72,0,0,1,5.91,5.32,14.52,14.52,0,0,1,2,7.49,14.36,14.36,0,0,1-2.77,8.6,14.18,14.18,0,0,1-8.22,5.29l11.54,19.55Zm-15.2-26.05h8.08c2.63,0,4.58-.63,5.87-1.9a7,7,0,0,0,1.94-5.28,6.75,6.75,0,0,0-1.94-5.15C459,388.59,457,388,454.41,388h-8.08Z"/><path class="cls-1" d="M513.75,380v7.8H500.9v40.42h-9.67V387.77H478.38V380Z"/><path class="cls-1" d="M589.82,380v48.22h-9.67V396.82l-12.92,31.37H559.9l-13-31.37v31.37h-9.68V380h11l15.34,35.85L578.9,380Z"/><path class="cls-1" d="M608.89,380v29.84q0,4.9,2.55,7.5a9.67,9.67,0,0,0,7.19,2.59c3.13,0,5.55-.87,7.25-2.59s2.56-4.23,2.56-7.5V380h9.74v29.77a19.25,19.25,0,0,1-2.66,10.4,17,17,0,0,1-7.12,6.39,22.53,22.53,0,0,1-9.91,2.14,22,22,0,0,1-9.78-2.14,16.33,16.33,0,0,1-6.94-6.39,19.78,19.78,0,0,1-2.56-10.4V380Z"/><path class="cls-1" d="M677.07,419h-19.2l-3.18,9.19H644.53l17.34-48.29h11.26l17.34,48.29H680.25Zm-2.62-7.74-7-20.17-7,20.17Z"/><path class="cls-1" d="M749.54,380v48.22h-9.67V396.82L727,428.19h-7.32l-13-31.37v31.37H697V380h11l15.34,35.85L738.63,380Z"/><path class="cls-1" d="M811.65,380v48.22H802V396.82l-12.92,31.37h-7.32l-13-31.37v31.37h-9.68V380h11l15.34,35.85L800.73,380Z"/><path class="cls-1" d="M831.13,425.49a23.64,23.64,0,0,1-9-8.8,26,26,0,0,1,0-25.43,23.73,23.73,0,0,1,9-8.81,26.05,26.05,0,0,1,24.91,0,23.62,23.62,0,0,1,8.91,8.81,26.28,26.28,0,0,1,0,25.43,23.42,23.42,0,0,1-9,8.8,25.9,25.9,0,0,1-24.87,0Zm20.1-7.42a13.49,13.49,0,0,0,5.19-5.63,18.54,18.54,0,0,0,1.86-8.5,18.31,18.31,0,0,0-1.86-8.46,13.3,13.3,0,0,0-5.19-5.56,14.91,14.91,0,0,0-7.66-1.94,15.15,15.15,0,0,0-7.71,1.94,13.22,13.22,0,0,0-5.21,5.56,18.19,18.19,0,0,0-1.87,8.46,18.41,18.41,0,0,0,1.87,8.5,13.4,13.4,0,0,0,5.21,5.63,15,15,0,0,0,7.71,2A14.73,14.73,0,0,0,851.23,418.07Z"/><path class="cls-1" d="M885.09,420.52H901v7.67H875.41V380h9.68Z"/><path class="cls-1" d="M936.69,419h-19.2l-3.18,9.19H904.15l17.34-48.29h11.27l17.34,48.29H939.87Zm-2.62-7.74-7-20.17-7,20.17Z"/><path class="cls-1" d="M981.46,428.19,970.82,409.4h-4.56v18.79h-9.67V380h18.1a21,21,0,0,1,9.53,2,13.67,13.67,0,0,1,5.91,5.32,14.52,14.52,0,0,1,2,7.49,13.93,13.93,0,0,1-11,13.89l11.54,19.55Zm-15.2-26.05h8.08q3.95,0,5.88-1.9a7.08,7.08,0,0,0,1.93-5.28,6.79,6.79,0,0,0-1.93-5.15q-1.94-1.83-5.88-1.83h-8.08Z"/><path class="cls-1" d="M1010.54,380v48.22h-9.67V380Z"/><path class="cls-1" d="M1061.32,428.19h-9.67l-21.9-33.09v33.09h-9.67V379.9h9.67l21.9,33.16V379.9h9.67Z"/><path class="cls-1" d="M1080.53,380v48.22h-9.67V380Z"/><path class="cls-1" d="M1116.45,425.49a23.64,23.64,0,0,1-9-8.8,26,26,0,0,1,0-25.43,23.73,23.73,0,0,1,9-8.81,26.05,26.05,0,0,1,24.91,0,23.62,23.62,0,0,1,8.91,8.81,26.28,26.28,0,0,1,0,25.43,23.42,23.42,0,0,1-9,8.8,25.9,25.9,0,0,1-24.87,0Zm20.11-7.42a13.53,13.53,0,0,0,5.18-5.63,18.54,18.54,0,0,0,1.86-8.5,18.31,18.31,0,0,0-1.86-8.46,13.34,13.34,0,0,0-5.18-5.56,15,15,0,0,0-7.67-1.94,15.17,15.17,0,0,0-7.71,1.94,13.22,13.22,0,0,0-5.21,5.56,18.19,18.19,0,0,0-1.87,8.46,18.41,18.41,0,0,0,1.87,8.5,13.4,13.4,0,0,0,5.21,5.63,15,15,0,0,0,7.71,2A14.79,14.79,0,0,0,1136.56,418.07Z"/><path class="cls-1" d="M1168.33,397.38h-10.22l7.46-17.41h6.7Z"/><path class="cls-1" d="M1204.61,428.19,1194,409.4h-4.55v18.79h-9.68V380h18.1a21.08,21.08,0,0,1,9.54,2,13.78,13.78,0,0,1,5.91,5.32,14.52,14.52,0,0,1,2,7.49,14.35,14.35,0,0,1-2.76,8.6,14.18,14.18,0,0,1-8.22,5.29l11.54,19.55Zm-15.2-26.05h8.08q3.93,0,5.87-1.9a7,7,0,0,0,1.94-5.28,6.75,6.75,0,0,0-1.94-5.15q-1.93-1.83-5.87-1.83h-8.08Z"/><path class="cls-1" d="M1257.59,394.48a11.24,11.24,0,0,0-4.56-4.63,13.85,13.85,0,0,0-6.77-1.59,14.81,14.81,0,0,0-7.6,1.93,13.32,13.32,0,0,0-5.18,5.53,19.53,19.53,0,0,0,0,16.72,13.33,13.33,0,0,0,5.28,5.52,15.6,15.6,0,0,0,7.88,1.94,13.66,13.66,0,0,0,9-2.94,14,14,0,0,0,4.63-8.18h-16.58v-7.4h26.11v8.43a22.76,22.76,0,0,1-4.15,9.33,23.25,23.25,0,0,1-8.18,6.87,24,24,0,0,1-11.23,2.59,25.4,25.4,0,0,1-12.61-3.14,22.91,22.91,0,0,1-8.84-8.74,26.85,26.85,0,0,1,0-25.46,22.85,22.85,0,0,1,8.84-8.77,26.94,26.94,0,0,1,26.7.83,20.28,20.28,0,0,1,8.29,11.16Z"/><path class="cls-1" d="M1306.64,419h-19.2l-3.18,9.19H1274.1l17.34-48.29h11.27l17.34,48.29h-10.23Zm-2.62-7.74-7-20.17-7,20.17Z"/><path class="cls-1" d="M1367.78,428.19h-9.67l-21.9-33.09v33.09h-9.67V379.9h9.67l21.9,33.16V379.9h9.67Z"/><path class="cls-1" d="M1387,380v48.22h-9.67V380Z"/><path class="cls-1" d="M1404.09,427a14.88,14.88,0,0,1-6.39-5,13,13,0,0,1-2.42-7.67h10.36a6.7,6.7,0,0,0,2.11,4.7,7.46,7.46,0,0,0,5.21,1.73,8,8,0,0,0,5.32-1.63,5.26,5.26,0,0,0,1.94-4.24,4.94,4.94,0,0,0-1.31-3.53,9.22,9.22,0,0,0-3.29-2.17,55.18,55.18,0,0,0-5.42-1.77,58.87,58.87,0,0,1-7.63-2.72,13.43,13.43,0,0,1-5-4.08,11.65,11.65,0,0,1-2.1-7.29,13,13,0,0,1,2.14-7.46,13.57,13.57,0,0,1,6-4.87,21.85,21.85,0,0,1,8.84-1.69q7.47,0,12.13,3.62a13.45,13.45,0,0,1,5.14,10.12H1419a5.55,5.55,0,0,0-2.1-4.11,8,8,0,0,0-5.22-1.62,6.67,6.67,0,0,0-4.52,1.45,5.25,5.25,0,0,0-1.7,4.22,4.37,4.37,0,0,0,1.28,3.21,9.73,9.73,0,0,0,3.18,2.07q1.9.79,5.35,1.83a55.9,55.9,0,0,1,7.67,2.76,13.83,13.83,0,0,1,5.11,4.15,11.49,11.49,0,0,1,2.15,7.25,13.63,13.63,0,0,1-2,7.19,14.07,14.07,0,0,1-5.87,5.28,19.93,19.93,0,0,1-9.19,2A22.9,22.9,0,0,1,1404.09,427Z"/><path class="cls-1" d="M1478.6,380v48.22h-9.68V407.67h-20.65v20.52h-9.68V380h9.68v19.82h20.65V380Z"/><path class="cls-1" d="M697.28,462.87v48.22h-9.67V479.73l-12.92,31.36h-7.32l-13-31.36v31.36h-9.67V462.87h11L671,498.73l15.33-35.86Z"/><path class="cls-1" d="M736.38,501.9h-19.2L714,511.09H703.84l17.34-48.29h11.26l17.35,48.29H739.56Zm-2.62-7.73-7-20.18-7,20.18Z"/><path class="cls-1" d="M781.15,511.09,770.51,492.3H766v18.79h-9.67V462.87h18.1a21.14,21.14,0,0,1,9.53,2,13.73,13.73,0,0,1,5.91,5.32,14.52,14.52,0,0,1,2,7.49,13.93,13.93,0,0,1-11,13.89l11.54,19.55Zm-15.2-26H774c2.63,0,4.59-.64,5.88-1.9a7.12,7.12,0,0,0,1.93-5.29,6.8,6.8,0,0,0-1.93-5.15c-1.29-1.21-3.25-1.83-5.88-1.83H766Z"/><path class="cls-1" d="M827.78,511.09l-17.55-21.48v21.48h-9.67V462.87h9.67v21.62l17.55-21.62h11.68l-19.9,23.9L840,511.09Z"/><path class="cls-1" d="M875.93,501.9h-19.2l-3.18,9.19H843.39l17.34-48.29H872l17.34,48.29H879.11Zm-2.62-7.73-7-20.18-7,20.18Z"/><path class="cls-1" d="M905.71,502.94H927.4v8.15H894.52v-7.46L916.07,471H894.52v-8.15H927.4v7.46Z"/><path class="cls-1" d="M945.29,462.87v48.22h-9.67V462.87Z"/><polygon class="cls-1" points="868.64 302.78 858.61 220.29 915.1 166.92 917 168.93 861.53 221.35 871.39 302.45 868.64 302.78"/><rect class="cls-1" x="842.44" y="221.59" width="2.76" height="89.49" transform="translate(3.81 544.45) rotate(-35.84)"/><path class="cls-1" d="M871.41,304.51H719.21L672.16,167.26,795.52,81.85,918,167.26Zm-150.23-2.77H869.43l45.31-133.4L795.52,85.22,675.46,168.34Z"/><polygon class="cls-1" points="869.41 303.86 795.72 267.76 723.23 303.85 722 301.38 795.71 264.67 870.62 301.37 869.41 303.86"/><polygon class="cls-1" points="676.88 169.28 676.28 166.58 756.38 148.85 795.47 80.86 838.27 148.85 916.35 166.58 915.74 169.28 836.54 151.29 795.57 86.22 758.17 151.29 757.58 151.42 676.88 169.28"/><polygon class="cls-1" points="723.99 302.78 721.24 302.45 731.1 221.35 675.63 168.93 677.53 166.92 734.01 220.29 723.99 302.78"/><circle class="cls-1" cx="732.56" cy="220.82" r="7.03"/><circle class="cls-2" cx="757.28" cy="150.07" r="7.03"/><circle class="cls-1" cx="837.41" cy="150.07" r="7.03"/><line class="cls-1" x1="761.42" y1="190.77" x2="673.95" y2="167.93"/><rect class="cls-1" x="716.3" y="134.15" width="2.77" height="90.4" transform="translate(362.82 828.43) rotate(-75.36)"/><rect class="cls-1" x="830.07" y="177.71" width="87.43" height="2.76" transform="translate(-16.76 229.09) rotate(-14.8)"/><line class="cls-1" x1="719.99" y1="302.61" x2="774.62" y2="228.38"/><rect class="cls-1" x="701.22" y="264.12" width="92.17" height="2.76" transform="translate(90.45 709.9) rotate(-53.64)"/><rect class="cls-1" x="794.33" y="122.15" width="2.77" height="43.47"/><path class="cls-1" d="M770.91,190h13.73v3.68h-4.49v16.94h-4.76V193.69h-4.48Z"/><path class="cls-1" d="M787.22,190H792v16.87h6.75v3.75H787.22Z"/><path class="cls-1" d="M801,190h6.66l3.69,13.81L815.05,190h6.71v20.62h-4.19V193.47l-4.82,17.16h-2.93l-4.88-17.13v17.13h-4Z"/><circle class="cls-3" cx="795.85" cy="84.39" r="42.48"/><circle class="cls-2" cx="916.05" cy="167.93" r="42.48"/><circle class="cls-4" cx="870.01" cy="302.61" r="42.48"/><circle class="cls-4" cx="719.99" cy="302.61" r="42.48"/><circle class="cls-5" cx="673.95" cy="167.93" r="42.48"/><circle class="cls-6" cx="860.07" cy="220.82" r="7.03"/><circle class="cls-1" cx="836.2" cy="255.77" r="7.03"/><circle class="cls-1" cx="756.07" cy="254.92" r="7.03"/><circle class="cls-1" cx="732.2" cy="183.31" r="7.03"/><circle class="cls-7" cx="860.07" cy="183.31" r="7.03"/><circle class="cls-8" cx="795.71" cy="138.99" r="7.03"/><circle class="cls-6" cx="795.71" cy="267.71" r="7.03"/><path class="cls-1" d="M651.87,168.63a4.42,4.42,0,0,0,1.21-.17,8,8,0,0,0,2.62-1,4.5,4.5,0,0,0,1.71-1.83,2.72,2.72,0,0,0,.26-1.66,3.67,3.67,0,0,0-1-2,6,6,0,0,0-1.21-.9,7.27,7.27,0,0,0-1.34-.59,14.78,14.78,0,0,0-1.86-.44,1.12,1.12,0,0,0-1.29.67,2,2,0,0,0-.08.88c0,.23-.05.3-.29.3-1,0-2.08,0-3.12,0a.62.62,0,0,0-.63.69.59.59,0,0,0,.63.61h3.2c.15,0,.21,0,.21.19q0,1,0,1.92c0,.13,0,.18-.18.17l-1.08,0c-.69,0-1.39,0-2.08,0a.66.66,0,0,0-.45.15.74.74,0,0,0-.2.84.71.71,0,0,0,.63.36h3.08c.24,0,.3.07.28.29a4.86,4.86,0,0,0,0,.54A1,1,0,0,0,651.87,168.63Z"/><path class="cls-1" d="M649.43,157.15a3.81,3.81,0,0,1,2.25,1.32c.26.3.47.65.72.95s.34.38.61.31.36-.48.07-.78a15.27,15.27,0,0,0-1.18-1.23,3.2,3.2,0,0,0-1.17-.71,16.54,16.54,0,0,1-2.25-1,12.83,12.83,0,0,1-2-1.19,7.11,7.11,0,0,1-1.56-1.44c.42.32.82.66,1.27.94a14.87,14.87,0,0,0,4.18,1.79c.81.22,1.07-.29,1-.77a8.43,8.43,0,0,0-.41-1.84,3.83,3.83,0,0,0-1.31-1.74,4.52,4.52,0,0,0-2-.78,14,14,0,0,0-2-.24c-.69,0-1.38-.13-2.07-.18a9.86,9.86,0,0,1-1.79-.31,5.78,5.78,0,0,1-1.5-.68,9.14,9.14,0,0,0,.58,2.81,6.69,6.69,0,0,0,2,2.92,7.32,7.32,0,0,0,4.06,1.58C647.8,157,648.62,157,649.43,157.15Z"/><path class="cls-1" d="M700.79,169.93a5.37,5.37,0,0,0-1.87-1.53,15.33,15.33,0,0,0-4.3-1.38c-.7-.18-1.39-.29-2.08-.47a12.62,12.62,0,0,1-2.47-.84,14.69,14.69,0,0,1-3.09-2.14c-.41-.49-.89-.87-1.32-1.32a33.29,33.29,0,0,0-2.49-2.41,12,12,0,0,0-1.4-1.06,2,2,0,0,0-.52-.34l-.06-.05-.23-.14h0a.71.71,0,0,0-.26-.16c-.23-.12-.45-.26-.68-.37a13.92,13.92,0,0,0-1.58-.68,14.49,14.49,0,0,0-2.41-.63,3,3,0,0,0-.76-.14c-.47-.08-.92-.12-1.39-.17a10.46,10.46,0,0,0-1.58,0c-.51,0-1,0-1.56,0s-1.29.12-1.92.23c-1.16.18-2.3.4-3.45.66a2.83,2.83,0,0,1-.4.08,0,0,0,0,0,0,0h-.13c-.82.2-1.66.41-2.5.6s-1.79.42-2.69.56l-1.47.28h-.26a15,15,0,0,1-2.11.18h-1.61a.46.46,0,0,0-.36.13.66.66,0,0,0,.26,1.13,8.08,8.08,0,0,1,2.66,1.47,5.86,5.86,0,0,1,1,1.29,3.16,3.16,0,0,1,.13,2.93,5.15,5.15,0,0,1-2.37,2.4,9.55,9.55,0,0,1-2.71.92,2.21,2.21,0,0,1-1.69-.13c-.1-.06-.12,0-.12.08a8.14,8.14,0,0,0,0,2.26,5.76,5.76,0,0,0,1.66,3.33c.23.2.45.36.74.26a.73.73,0,0,0,.47-.59,5.58,5.58,0,0,1,.55-1.42,7.21,7.21,0,0,1,2.64-2.81,6.52,6.52,0,0,1,2.82-1,5.57,5.57,0,0,1,.9-.08,9.08,9.08,0,0,1,1.18.1,7.26,7.26,0,0,1,2.56.87A6.33,6.33,0,0,1,666.8,172a7.75,7.75,0,0,1,1.06,3.24.89.89,0,0,0,.9.85h12.46a.69.69,0,0,0,.65-.66,6.44,6.44,0,0,1,.64-2.43,10.42,10.42,0,0,1,1.11-1.71,8.62,8.62,0,0,1,1.23-1.1,8.5,8.5,0,0,1,2-1,8,8,0,0,1,1.26-.24,6.35,6.35,0,0,1,2.26.08,8.65,8.65,0,0,1,1.87.65c0,.06.08.08.13.09a7.2,7.2,0,0,1,1.53,1.11,7.45,7.45,0,0,1,1.21,1.58,7.18,7.18,0,0,1,.92,2.74.59.59,0,0,0,.61.58,3.6,3.6,0,0,0,1.13-.22,5.59,5.59,0,0,0,2-1.11,4.49,4.49,0,0,0,1.45-2.1A2.65,2.65,0,0,0,700.79,169.93Zm-22.29-5.48c-2.27,3.2-4.55,6.37-6.82,9.58,0-.16.06-.28.1-.42a.12.12,0,0,0,0-.1v-.06s0,0,0,0a.43.43,0,0,1,0,0,0,0,0,0,1,0,0,6.43,6.43,0,0,0,.22-.71v-.09c0-.07,0-.13.07-.17s0,0,0,0a.35.35,0,0,0,.08-.22v0a6.27,6.27,0,0,1,.31-1c.06-.23.13-.44.19-.67l0-.11c.23-.74.47-1.47.7-2.19.11-.31.19-.61.29-.92,0-.13,0-.21-.13-.19-.62,0-1.23.08-1.84.13a5.21,5.21,0,0,0-.89,0c-.11,0-.14,0-.11-.14.24-1.11.48-2.24.73-3.35s.51-2.23.74-3.34c.06-.34.3-.24.48-.27.39-.05.79-.07,1.18-.13l0,0h0v0s0,0,0,0h0a.54.54,0,0,0,.35-.05h.26a2.39,2.39,0,0,0,.53-.06c.13,0,.28,0,.4,0a.21.21,0,0,0,.13-.05c.45,0,.89-.1,1.37-.12a5.17,5.17,0,0,1-.46.91c-.36.67-.73,1.34-1.08,2s-.65,1.19-1,1.79c-.06.15-.09.21.12.21.87,0,1.74-.08,2.59-.11a6.36,6.36,0,0,0,1.24-.08h0S678.5,164.42,678.5,164.45Z"/><path class="cls-1" d="M694.15,173.74a5.81,5.81,0,0,0-1.56-2,5.21,5.21,0,0,0-1.89-1,6.3,6.3,0,0,0-.69-.17,5.38,5.38,0,0,0-2.26,0,5.59,5.59,0,0,0-3,1.72,6.07,6.07,0,0,0-1.27,2.29,5.54,5.54,0,0,0-.15,2.26,5.72,5.72,0,0,0,.68,2,5,5,0,0,0,1.18,1.47,6.14,6.14,0,0,0,1.14.8l.23.11a5,5,0,0,0,1.88.5,5.7,5.7,0,0,0,5.89-3.66,5.27,5.27,0,0,0,.32-2.46A6.1,6.1,0,0,0,694.15,173.74Zm-5.82,5.3a5.77,5.77,0,0,1-1.14-.42h0c0-.11-.1-.16-.16-.24a2.9,2.9,0,0,1-1-2.9,3,3,0,0,1,3.34-2.37.36.36,0,0,0,.27,0h0a1.72,1.72,0,0,0,.54.14s0,.05.05.05v0a.48.48,0,0,0,.23.17,3,3,0,0,1,1.56,2.37A3,3,0,0,1,688.33,179Z"/><path class="cls-1" d="M666.3,174.82a5.76,5.76,0,0,0-2.15-3.26,2.71,2.71,0,0,0-.92-.53.14.14,0,0,0-.09-.05.9.9,0,0,0-.39-.16,4.86,4.86,0,0,0-1.92-.37,6.47,6.47,0,0,0-.76.05,5.66,5.66,0,0,0-4.46,3.16,5.78,5.78,0,0,0-.55,2.63,5.42,5.42,0,0,0,.68,2.49,5.7,5.7,0,0,0,2.26,2.28c.09.09.22.09.32.14a5.67,5.67,0,0,0,7.67-2.88A5.28,5.28,0,0,0,666.3,174.82Zm-4.19,4a3.18,3.18,0,0,1-2.68,0c-.06,0-.15-.09-.23-.06s0,0,0,0a4.28,4.28,0,0,1-1.1-1.18,3,3,0,0,1,.63-3.72,2.77,2.77,0,0,1,1.5-.71,4.05,4.05,0,0,1,1.3,0l0,0c0,.1.11.1.18.12a3,3,0,0,1,2.06,2.53A3,3,0,0,1,662.11,178.82Z"/><path class="cls-1" d="M652.56,157.77a1.18,1.18,0,0,0,.23-.27,2.39,2.39,0,0,1,2.07-1.14,6.35,6.35,0,0,0,1.83-.33,3.84,3.84,0,0,0,1.23-.78,3.76,3.76,0,0,0,1-1.68,5.12,5.12,0,0,0,.2-1.17H659a4.16,4.16,0,0,1-2.06.56c-.59,0-1.18.1-1.76.2a2.22,2.22,0,0,0-1.61,1,3.24,3.24,0,0,0-.38,1.26c-.07.44.18.63.56.52a9.19,9.19,0,0,0,1.33-.48,7.86,7.86,0,0,0,1.16-.69.49.49,0,0,1-.19.24,9.58,9.58,0,0,1-2.55,1.39,3,3,0,0,0-1.27,1.13.2.2,0,0,0,0,.3C652.38,157.89,652.48,157.84,652.56,157.77Z"/><path class="cls-1" d="M812.11,100.84l-4-15.18c-.12,0-.22.1-.32.13a2.21,2.21,0,0,1-1.64,0,24,24,0,0,1-8.37-5.1l0,0a1.56,1.56,0,0,1,0,.31c0,.37-.12.42-.43.42-.8,0-1.6,0-2.41,0-.34,0-.47-.08-.44-.46.07-1.36.1-2.74.15-4.13l0,0c0-.17,0-.34,0-.51a12.46,12.46,0,0,1-1-5.13c0-2.46,0-4.93,0-7.41h-3.81q-1.71,6.52-3.43,13-3.5,13.35-7,26.71a.9.9,0,0,0-.05.46h14.17c0-1,.09-2,.1-3,0-.25.1-.34.36-.34h4.18c.27,0,.36.09.37.34,0,1,.06,2,.09,3h14.19A22.27,22.27,0,0,0,812.11,100.84Zm-14.24-5.19c-1.18,0-2.37,0-3.56,0-.31,0-.41-.08-.4-.41.14-2.81.26-5.63.36-8.44,0-.34.12-.44.45-.43.95,0,1.91,0,2.84,0,.33,0,.45.09.46.43,0,1.42.11,2.85.18,4.26h0c.07,1.37.1,2.73.19,4.08C798.4,95.55,798.28,95.65,797.87,95.65Z"/><path class="cls-1" d="M821.34,64.88c0-1.64,0-3.27,0-4.89a2,2,0,0,0-2-2.29c-.9-.14-1.83-.24-2.71-.46a19.57,19.57,0,0,1-6.16-3,2.25,2.25,0,0,0-2.87,0A20.57,20.57,0,0,1,804,56.32a16.49,16.49,0,0,1-5.58,1.4,1.77,1.77,0,0,0-1.65,1.57,3,3,0,0,0,0,.42c0,.21,0,.41,0,.62,0,2.27,0,4.53,0,6.8v1.09a12.42,12.42,0,0,0,.17,2.32c0,.09,0,.16,0,.23a9.88,9.88,0,0,0,.38,1.39l.15.41a12.25,12.25,0,0,0,3,4.42A21.23,21.23,0,0,0,807,81.2l.06,0c.4.17.81.32,1.22.48a2,2,0,0,0,1.51,0l.24-.1c.91-.38,1.79-.77,2.65-1.2a18.4,18.4,0,0,0,5.15-3.68,14.12,14.12,0,0,0,2.37-3.16,8.69,8.69,0,0,0,1-3.07A41.08,41.08,0,0,0,821.34,64.88ZM817,73a11.88,11.88,0,0,1-1.45,1.76,15.39,15.39,0,0,1-4.06,2.9c-.72.38-1.47.72-2.23,1l-.26,0v-10c0-.21,0-.41,0-.62a1,1,0,0,0-.58-.05l-.84,0h-4.08c-1.07,0-2.16,0-3.24,0-.49,0-.61-.14-.59-.61,0-1.23,0-2.46,0-3.69,0-.44,0-.9,0-1.36V61c0-.31.06-.46.39-.5a19.85,19.85,0,0,0,8.58-3.37l.24-.14s.06,0,.1,0,0,.21,0,.31v10.4c0,.14,0,.28,0,.41a.38.38,0,0,1,.27-.08h8.56c.46,0,.51.15.53.56A7.11,7.11,0,0,1,817,73Z"/><path class="cls-1" d="M788.29,63.78h-1.84c-.05.16-.1.32-.16.47q-7,17.07-14,34.14c-.75,1.84-1.52,3.66-2.28,5.49,0,.22.21.1.3.1h4.6a16.36,16.36,0,0,1,.73-2.38q6.29-18.84,12.58-37.69A.59.59,0,0,1,788.29,63.78Z"/><path class="cls-1" d="M822.07,103.48l-8.46-20.64a22.74,22.74,0,0,1-2.71,1.57q3.18,9.53,6.35,19a.92.92,0,0,1,.12.54H822c.09,0,.26.12.3-.1S822.13,103.62,822.07,103.48Z"/><path class="cls-1" d="M868.28,319.94a11.65,11.65,0,0,0,.64-1.34,7.15,7.15,0,0,0,.4-1.44,3,3,0,0,0-.06-1.2,1.88,1.88,0,0,0-.12-.3,1.15,1.15,0,0,0-.95-.63,2,2,0,0,0-1.4.4,4.64,4.64,0,0,0-.88.89,6,6,0,0,0-.5.71l-.08.09,0-.1a4.52,4.52,0,0,0,.34-1.08,2.88,2.88,0,0,0,0-1.17,1.46,1.46,0,0,0-1.16-1.08,2,2,0,0,0-1.3.25,3.42,3.42,0,0,0-1,.9l-.22.29s0-.05,0-.08a3.48,3.48,0,0,0,.25-1.14,1.49,1.49,0,0,0-1.16-1.61,2,2,0,0,0-1.62.26,4.48,4.48,0,0,0-1,.9,4.83,4.83,0,0,0-.51.68s0,.06-.06.07a0,0,0,0,1,0,0c-.59-.56-1.24-1.07-1.88-1.57-.82-.66-1.67-1.29-2.51-1.92a.57.57,0,0,0-.27-.13l-1.65-.4c-.11,0-.11,0-.1-.13,0-.45.09-.9.15-1.34a18.84,18.84,0,0,1,.59-2.68,18.31,18.31,0,0,1,3.24-6.16,13.25,13.25,0,0,1,1.34-1.46.2.2,0,0,1,.23-.05l1.46.45a1.84,1.84,0,0,0,.41,0,5.52,5.52,0,0,1,1.4.28,3.32,3.32,0,0,1,.94.52c.17.15.13.12,0,.24-.5.46-1,.93-1.49,1.38a1.83,1.83,0,0,0-.51.81,2.53,2.53,0,0,0-.05,1.39,1.66,1.66,0,0,0,.72,1,3.26,3.26,0,0,0,1.23.48,4.57,4.57,0,0,0,2.63-.35,1.08,1.08,0,0,0,.18-.11l2.3-1.82a3.59,3.59,0,0,1,1.3-.64,5.09,5.09,0,0,1,1.6-.15,7.67,7.67,0,0,1,2.54.6,8.34,8.34,0,0,1,1.46.81l1.86,1.23c2.81,1.87,5.6,3.74,8.34,5.7.89.64,1.78,1.29,2.63,2a8.67,8.67,0,0,1,.72.64,1.81,1.81,0,0,1,.52,1.46,2.14,2.14,0,0,1-.24.74,2.47,2.47,0,0,1-.45.61,1.52,1.52,0,0,1-.88.42,1.86,1.86,0,0,1-1.06-.19,2.76,2.76,0,0,1-.44-.25.1.1,0,0,0-.09,0s0,.06,0,.08a1.68,1.68,0,0,1,.31,1.32c0,.16,0,.32-.07.48a2.26,2.26,0,0,1-.69,1.19,3.24,3.24,0,0,1-.71.5,1.75,1.75,0,0,1-.72.15,4,4,0,0,1-1.63-.3s-.07,0-.12,0a.14.14,0,0,0,0,.11,2.16,2.16,0,0,1,0,1.21,2.3,2.3,0,0,1-1.1,1.31,2,2,0,0,1-.76.21,3.36,3.36,0,0,1-1.57-.19l-.06,0h0s0,.07,0,.11a1.77,1.77,0,0,1-.54,1.92,2.34,2.34,0,0,1-1.31.53,3.35,3.35,0,0,1-1.26-.18,8.11,8.11,0,0,1-1.5-.68,17.48,17.48,0,0,1-1.53-1l-.09-.07a0,0,0,0,1,0-.08.43.43,0,0,0,0-.07,5.39,5.39,0,0,0,.58-1.15,3.15,3.15,0,0,0,.19-.95,1.46,1.46,0,0,0-.07-.55,1.08,1.08,0,0,0-.86-.73,1.13,1.13,0,0,0-.63,0,3,3,0,0,0-.92.52,5.67,5.67,0,0,0-.61.59A.26.26,0,0,1,868.28,319.94Z"/><path class="cls-1" d="M866.59,297.06c.19,0,.36,0,.55,0l1.62,0,1.3-.05c.37,0,.74,0,1.11-.09l.38-.07a3.59,3.59,0,0,1,1.18,0,5.62,5.62,0,0,1,1.92.58c.78.37,1.57.7,2.36,1q1.88.78,3.75,1.53a5,5,0,0,0,1.08.28,4.25,4.25,0,0,0,.8,0,2.68,2.68,0,0,0,1.61-.53,9,9,0,0,0,.89-.74c.05-.06.11-.1.16-.16s.07,0,.11,0a5.43,5.43,0,0,1,.53.42,10.61,10.61,0,0,1,2.35,3,13.31,13.31,0,0,1,1.4,3.92A16.29,16.29,0,0,1,890,308c0,.4.06.8.07,1.2,0,.09,0,.09-.09.09a5.09,5.09,0,0,0-2.23.57,5.46,5.46,0,0,0-1.62,1.25c-.06.07-.06.07-.15,0l-3.54-2.39-2-1.36c-1.1-.73-2.19-1.47-3.28-2.21L873.93,303l-1.24-.84a5.45,5.45,0,0,0-.94-.46,7.74,7.74,0,0,0-1.89-.49,6.38,6.38,0,0,0-1.38-.05,7.16,7.16,0,0,0-1.31.21,3.32,3.32,0,0,0-.47.2,7.82,7.82,0,0,0-1.59,1c-.45.37-.92.72-1.38,1.09a2.17,2.17,0,0,1-.56.3,4.22,4.22,0,0,1-1.26.3,2.4,2.4,0,0,1-1.79-.56.75.75,0,0,1-.15-.2,1.61,1.61,0,0,1-.08-1.48.65.65,0,0,1,.16-.21l1.87-1.67,1.85-1.64c.28-.24.55-.49.82-.74a4.81,4.81,0,0,1,.62-.47,1.28,1.28,0,0,1,.6-.22Z"/><path class="cls-1" d="M855.59,296.93a.33.33,0,0,1-.09.11,19.07,19.07,0,0,0-2.2,2.78,21.43,21.43,0,0,0-2.57,5.24,20.68,20.68,0,0,0-.71,3c-.08.5-.14,1-.18,1.51s-.05,1.22,0,1.84v.05s-.07,0-.1,0l-5.31-2.75c-.08,0-.09-.09-.09-.18,0-.46.08-.93.13-1.39.08-.65.18-1.29.29-1.93a24.79,24.79,0,0,1,1.93-6.18,14.28,14.28,0,0,1,2.23-3.42,10.45,10.45,0,0,1,1.82-1.63l.13-.09a.08.08,0,0,1,.1,0l.07.05,4.48,3Z"/><path class="cls-1" d="M885.89,297.05l.55-.38,3.93-2.7,0,0a.08.08,0,0,1,.12,0l.41.3a14.35,14.35,0,0,1,2,2,16.09,16.09,0,0,1,2.33,3.6,17.82,17.82,0,0,1,1.12,3.06,18.7,18.7,0,0,1,.44,2.23c.06.43.1.86.13,1.29.05.68.05,1.37,0,2.06v0c0,.07,0,.1-.08.13l-.57.27-1.82.87-3,1.42-.08,0a.12.12,0,0,1,0-.1c0-.44,0-.88,0-1.32s0-.95-.08-1.42-.13-1.23-.22-1.84a23,23,0,0,0-.67-3,16,16,0,0,0-1-2.58,11.13,11.13,0,0,0-1.65-2.38,8.59,8.59,0,0,0-1.87-1.52l-.07,0Z"/><path class="cls-1" d="M868.7,316.93a2.94,2.94,0,0,1-.14.88,9.43,9.43,0,0,1-.83,2.12,6.68,6.68,0,0,1-1.18,1.61,2,2,0,0,1-.57.42,1,1,0,0,1-1.25-.28,1.42,1.42,0,0,1-.25-.47,2,2,0,0,1,0-1.13c0-.21.12-.43.18-.64a7.51,7.51,0,0,1,.83-1.68,7.29,7.29,0,0,1,.73-1,3.34,3.34,0,0,1,1.22-.91,1,1,0,0,1,.3-.08.81.81,0,0,1,.89.57A2.09,2.09,0,0,1,868.7,316.93Z"/><path class="cls-1" d="M861.07,318.6a3,3,0,0,1,.14-.83,8.85,8.85,0,0,1,.86-2,4.25,4.25,0,0,1,.86-1,1.88,1.88,0,0,1,.76-.41,1.08,1.08,0,0,1,1.3.65,1.54,1.54,0,0,1,.11.64,5.55,5.55,0,0,1-.17,1.07,7.45,7.45,0,0,1-.45,1.19,5.44,5.44,0,0,1-.84,1.35,2.74,2.74,0,0,1-.64.58,1.27,1.27,0,0,1-1.24.08,1.08,1.08,0,0,1-.64-.86A1.75,1.75,0,0,1,861.07,318.6Z"/><path class="cls-1" d="M861.53,314.32a3.19,3.19,0,0,1-.46,1.61,3.65,3.65,0,0,1-.67.89,1.84,1.84,0,0,1-1.19.51,1.2,1.2,0,0,1-1.21-1,2.22,2.22,0,0,1,0-.68,3.45,3.45,0,0,1,.5-1.42,3.53,3.53,0,0,1,1.14-1.1,1.26,1.26,0,0,1,.46-.16,1.33,1.33,0,0,1,.66,0,1.13,1.13,0,0,1,.69.71,1.8,1.8,0,0,1,.06.22C861.53,314.08,861.53,314.19,861.53,314.32Z"/><path class="cls-1" d="M871,320.07a1.79,1.79,0,0,1-.09.6,7.52,7.52,0,0,1-.79,1.7,4.21,4.21,0,0,1-.78.95,1,1,0,0,1-.68.25.91.91,0,0,1-.51-.16.66.66,0,0,1-.27-.45,2.43,2.43,0,0,1,0-.71,3.51,3.51,0,0,1,.3-.95,4.51,4.51,0,0,1,1-1.47,2,2,0,0,1,.62-.48,1.22,1.22,0,0,1,.82-.09.47.47,0,0,1,.37.31,1.6,1.6,0,0,1,.05.21A1.37,1.37,0,0,1,871,320.07Z"/><g id="o3SyUi.tif"><path class="cls-1" d="M868.47,295.59l-1.63,0-.54,0-.79.05a1.33,1.33,0,0,0-.6.22,5.5,5.5,0,0,0-.61.47c-.28.24-.55.5-.82.74l-1.32,1.17c-.37-.14-.47-.45-.47-1.11,0-3.76,0-7.52,0-11.27a1,1,0,0,1,.7-1.11h.87a18.59,18.59,0,0,1,2.55.52,6.65,6.65,0,0,1,3.59,2.61,1.21,1.21,0,0,1,.23.69c0,2.32,0,4.65,0,7Z"/><path class="cls-1" d="M878.79,297.26a1.88,1.88,0,0,1-.06.51l-2-.83c-.79-.34-1.58-.66-2.36-1a5.93,5.93,0,0,0-1.92-.58,3.4,3.4,0,0,0-1.19.06l-.38.07h0V288.7a1.48,1.48,0,0,1,.27-.89,7,7,0,0,1,4.51-2.79c.53-.12,1.05-.18,1.58-.27h.88a1,1,0,0,1,.7,1.11Q878.79,291.56,878.79,297.26Z"/><path class="cls-1" d="M860.53,297.93a3.83,3.83,0,0,0-.58-.27,5.55,5.55,0,0,0-.87-.22v-9.29a1,1,0,0,1,.48-.54c.59-.27.9-.08.9.55v9A3.26,3.26,0,0,0,860.53,297.93Z"/><path class="cls-1" d="M881.41,288.46v10.26a4.35,4.35,0,0,1-.94-.25l-.58-.23a2.28,2.28,0,0,0,.13-.8c0-3.09,0-6.18,0-9.28,0-.2-.15-.49.13-.61a1,1,0,0,1,1.1.34A1,1,0,0,1,881.41,288.46Z"/></g><g id="_7Bt7F9.tif" data-name="7Bt7F9.tif"><path class="cls-1" d="M721.49,313.82c.56.55,1.07,1.08,1.6,1.59a.47.47,0,0,1,.14.36c0,.43,0,.87,0,1.3,0,.17,0,.24-.22.23h-1.34a.39.39,0,0,1-.32-.14l-3.19-3.24a.4.4,0,0,0-.35-.15H714.7a.44.44,0,0,0-.32.13c-1.06,1.09-2.13,2.17-3.2,3.26a.44.44,0,0,1-.34.14h-1.37c-.12,0-.18,0-.17-.17v-1.45a.31.31,0,0,1,.12-.24l1.44-1.44.16-.17a7.33,7.33,0,0,1-1.17-.15,5.2,5.2,0,0,1-4-5.09q0-6.09,0-12.18a5.21,5.21,0,0,1,4.27-5.15,6.09,6.09,0,0,1,1-.09H721.4a5.22,5.22,0,0,1,5.19,4.13,5.28,5.28,0,0,1,.12,1.19v12a5.21,5.21,0,0,1-4,5.16A5.16,5.16,0,0,1,721.49,313.82Zm-5.22-8.71H723c.17,0,.23,0,.23-.22v-10c0-.19-.05-.22-.23-.22H709.52c-.19,0-.22,0-.22.23q0,5,0,10c0,.2.07.24.25.24Zm-3.49,3.48a1.74,1.74,0,1,0-1.74,1.75A1.75,1.75,0,0,0,712.78,308.59Zm10.45,0a1.74,1.74,0,1,0-1.74,1.75A1.76,1.76,0,0,0,723.23,308.59Z"/><path class="cls-1" d="M718.11,281.62a2.43,2.43,0,0,1-.73,1.78l-5.91,5.92a.41.41,0,0,1-.35.12,7,7,0,0,0-6.6,4.51,6.66,6.66,0,0,0-.44,2.57.48.48,0,0,1-.15.36l-5.53,5.52a.36.36,0,0,0-.12.34c.18,1.27.35,2.54.53,3.81a.52.52,0,0,1-.16.51c-.5.48-1,1-1.48,1.49-.12.13-.17.12-.26,0-.94-1.72-1.9-3.43-2.84-5.15a.71.71,0,0,0-.31-.31c-1.73-1-3.45-1.92-5.17-2.86-.18-.1-.17-.15,0-.28.53-.52,1.06-1.06,1.58-1.6a.25.25,0,0,1,.26-.09l4,.6a.31.31,0,0,0,.3-.11q3.22-3.22,6.46-6.46c.15-.14.1-.18-.05-.26l-12.55-6.6c-.16-.08-.18-.12,0-.25.73-.71,1.45-1.43,2.17-2.16a.33.33,0,0,1,.35-.1l10.5,2.42,5.16,1.2c.15,0,.21,0,.3-.12l6.63-6.64a2.61,2.61,0,0,1,3.43-.21A2.64,2.64,0,0,1,718.11,281.62Z"/></g><g id="nVTTIy.tif"><path class="cls-1" d="M739.76,316.81c0,.39-.11.52-.51.52H726.31a.51.51,0,0,1-.56-.39,6.64,6.64,0,0,0-1.35-2.13l.07,0a5.21,5.21,0,0,0,4-5.16v-12a5.66,5.66,0,0,0-.11-1.17H738a2.34,2.34,0,0,1,1.79,2.39Q739.76,307.82,739.76,316.81Z"/><path class="cls-1" d="M750.12,303.69a2.28,2.28,0,0,0-2-1.06q-3,0-6.08,0c-.54,0-.69.14-.68.68,0,3.62,0,7.24,0,10.86,0,.19-.06.39.08.58a1.47,1.47,0,0,0,.17-.07,5.51,5.51,0,0,1,9,2.44c0,.12.07.24.21.3a3.4,3.4,0,0,0,2.25-.39v-7.51A20.36,20.36,0,0,0,750.12,303.69Zm.33,4.2h-3.16c-1,0-2.11,0-3.16,0-.5,0-.63-.16-.61-.63,0-.93,0-1.85,0-2.78,0-.39.13-.52.52-.51,1.36,0,2.71,0,4.07,0a.92.92,0,0,1,.82.41,30.17,30.17,0,0,1,1.87,3C751,307.86,750.84,307.89,750.45,307.89Z"/><path class="cls-1" d="M749.46,318a4.16,4.16,0,1,0-5.19,4.72c.18.05.39,0,.54.17H746c.15-.19.39-.14.59-.21A4.15,4.15,0,0,0,749.46,318Zm-4.11,2.64a1.92,1.92,0,0,1,0-3.84,1.92,1.92,0,1,1,0,3.84Z"/></g><path class="cls-1" d="M918.07,184.86c-.36.41-.13,1.35-1.12,1.21s-1.92-.33-2.05-1.58c0-.35-.12-.69.31-.84,1.1-.37,1.65-1.61,2.84-1.82.2,0,.48.31.46.68C917.93,183.19,918.68,184.14,918.07,184.86Z"/><path class="cls-1" d="M920.45,179.06a2.16,2.16,0,0,1-.18.39c-.43-.09-1-.06-1.24-.34a1.29,1.29,0,0,1-.13-1.6c.27-.42.7-.42.83,0S919.56,178.85,920.45,179.06Z"/><path class="cls-1" d="M921.15,181.28a.93.93,0,0,1-.72.88c-.3-.26-.94-.28-.92-.72,0-.65.76-.49,1.17-.67S921.19,181,921.15,181.28Z"/><path class="cls-1" d="M927.75,167c-.08.39-.53.5-.89.6s-.54-.19-.47.39c.21,1.8-.33,2.66-2.06,3.25a3.24,3.24,0,0,0-1.79,1.26c-.59-1.43.22-1.95,1.08-2.29,1.26-.48,2.13-1.14,2.1-2.64,0-.85.81-1.51,1.32-1.15C927.29,166.61,927.82,166.61,927.75,167Z"/><path class="cls-1" d="M905.79,171.4a.82.82,0,1,1-.82-.82A.82.82,0,0,1,905.79,171.4Z"/><path class="cls-1" d="M922.75,167.51a4,4,0,0,0-1.89-1.53,8.24,8.24,0,0,0-2.67-.41,20,20,0,0,0-4.7.16,3.19,3.19,0,0,0-.4.12,1.69,1.69,0,0,1-1.73-.27l.16-.26-.16.26-.45-.27a2.61,2.61,0,0,0-.39.69,3.83,3.83,0,0,0,.5,3.14c.23.41.5.81.76,1.2a11.61,11.61,0,0,1,1.1,1.87c1.17,2.63.73,4.79,0,7.55l-.6-.16c.74-2.73,1.14-4.69,0-7.13a10.78,10.78,0,0,0-1-1.78c-.27-.4-.54-.81-.78-1.24a6.73,6.73,0,0,1-.45-1,22,22,0,0,0-8.5-1l-.37,0c-1.84.2-3.93.43-5.26-.94a7.06,7.06,0,0,1-.92-1.34,4.26,4.26,0,0,0-1.12-1.49l.13-.19a6.07,6.07,0,0,0-.57.43c-.46.36-.14.91.23,1.3a.29.29,0,0,1,.07.24,1.55,1.55,0,0,0-.29.84l.14-.23c.55.31,1.25.64,1.94,1s1.41.67,2,1a5.62,5.62,0,0,0,1.71.74,5.32,5.32,0,0,0,1.85-.12l.81-.13a10.17,10.17,0,0,1,3.27.3c1.52.4,2.44,1.07,2.67,1.95.41,1.59-1.58,3.36-2.77,4.42-.14.11-.25.22-.36.31a10.28,10.28,0,0,1-1.08.87,10.79,10.79,0,0,0-1,.81l-.18-.2a.36.36,0,0,1,.05.21c-.17,1.29.8,2.17,1,3.29.07.33.18.69.59.71s.51-.37.73-.6c.59-.62.12-1.61.57-2.1a11.37,11.37,0,0,1,2.9-2.53c.35-.2.56-.25.8.17s.81.95.78,1.66c0,.27.06.77.4.64,1.15-.43,1,.72,1,1a6.67,6.67,0,0,0,.84,3.58,7.3,7.3,0,0,0-1.21-.84.53.53,0,0,0-.58.1.32.32,0,0,0,0,.45c1.61,1.9,2.39,4.74,5.56,4.85.45,0,1,.68,1.28,0,.17-.46-.73-.35-1-.71-.07-.1-.31-.09-.47-.11-.69-.05-1.52.11-1.49-1,0-.77-1.07-1-.91-1.83a2.33,2.33,0,0,0-.83-2.55c-.41-.33-.9-1.07-.36-1.52s1,.4,1.17.73c.42.75.57.51,1,.06,1.27-1.18,1.37-1.74.25-3.09-.23-.27-.46-.48-.21-.86s.39-.66.62-.52c.84.5,1.33-.22,1.95-.44,2.29-.84,3.07-2.36,2.39-4.66-.07-.23-.29-.49-.08-.7,1.12-1.06.08-1.07-.69-1.19,1-.67,2.15-.31,2.33.7.11.6.17,1.14.95,1,1-.25.47-.87.28-1.39A1.58,1.58,0,0,1,922.75,167.51Zm-3.62-14.83a.83.83,0,0,0,0,1.65.83.83,0,0,0,.82-.83A.82.82,0,0,0,919.13,152.68Zm-17.07,2.5a.81.81,0,0,0-.78.57,1.53,1.53,0,0,0,.39.45,4.08,4.08,0,0,0,.83.49h0a.79.79,0,0,0,.38-.69A.82.82,0,0,0,902.06,155.18Zm1.91,3.49a2.24,2.24,0,0,0-.68-.85c-.29.52-.62,1-1,1.51.34.12.68.25,1,.39.47.19.82.35,1.15.52s.39.2.57.31h0l.22.14A9.83,9.83,0,0,1,904,158.67Zm6.41,6.3a23.13,23.13,0,0,1-3.87-3,2.15,2.15,0,0,1-.78-.25,3,3,0,0,1-.55-.38,4.55,4.55,0,0,0-.43-.28h0l-.53-.3c-.32-.16-.66-.31-1.11-.5a10.82,10.82,0,0,0-1.92-.64,12.2,12.2,0,0,0-3.25-.08l0-.63a12.69,12.69,0,0,1,3.42.1l.35.08q-.42-.6-.78-1.23a7.53,7.53,0,0,1-.53-1.11,2.07,2.07,0,0,1-.14-.69,1.92,1.92,0,0,1,.21-.83h0a5.53,5.53,0,0,1-.17-1.23l-.54-.14c-1.58-.44-2.06-.08-2.18,1.63,0,.41,0,.84,0,1.25-.15,1.18.56,2.31.23,3.48a2.49,2.49,0,0,0,.18,1.93c.34.7.51,1.27-.7,1.14-.57-.07-1.16-.08-1.73-.18a1.76,1.76,0,0,0-1.08.16,5.29,5.29,0,0,1,1.17,1.58,6.33,6.33,0,0,0,.82,1.22c1.12,1.15,3,.94,4.74.75l.38,0a22.16,22.16,0,0,1,8.35,1,3.52,3.52,0,0,1,.11-2A3.92,3.92,0,0,1,910.38,165Zm8.75-12.29a.83.83,0,0,0,0,1.65.83.83,0,0,0,.82-.83A.82.82,0,0,0,919.13,152.68ZM911,160.17a.83.83,0,0,0-.82.83.82.82,0,1,0,.82-.83Zm-4.75,13v0a2.79,2.79,0,0,0,1-2.2c-.22-.86-1.49-1.32-2.22-1.51a10,10,0,0,0-3-.28l-.77.13a6.18,6.18,0,0,1-2.06.11,6.07,6.07,0,0,1-1.93-.81c-.55-.32-1.25-.65-1.94-1s-1.23-.58-1.76-.87c.15.61.59,1.18.75,1.82-.68.38-2-.62-2,1a1.76,1.76,0,0,0-.6,0c-.71.19-2-.09-2.06.48-.21,1.22-.9,2.51-.23,3.77.93,1.76,2.25,3.32,2.82,5.28.14.55.5.56,1,.4A10.43,10.43,0,0,0,897,177.3a3,3,0,0,0,1-1.3c.22-.7-.64-.75-.76-1.21h2.31a6.74,6.74,0,0,1,2.72,1.92,12.44,12.44,0,0,1,1-.83,8.72,8.72,0,0,0,1-.82l.36-.32s0,0,0-.05c-.32-.45-.62-.91-.9-1.4a7.53,7.53,0,0,1-.53-1.11,2.28,2.28,0,0,1-.13-.69,1.86,1.86,0,0,1,3.68-.39,1.77,1.77,0,0,1,0,1A5.64,5.64,0,0,1,906.26,173.13ZM942.9,155.4a19.15,19.15,0,0,1-3-1.41,7.72,7.72,0,0,0-1-.4,4.45,4.45,0,0,0-1.32-.21,1.55,1.55,0,0,0-.31,0c-.39.07-.72.27-1,.35a.92.92,0,0,1-.29,0c-2.07,0-4-1.14-6.06-1.13-.21,0-.43-.23-.65-.32-1-.43-2.39-1.06-3.14-.45-1.15.95-2.47.22-3.53.87a.37.37,0,0,1-.48-.28c-.25-1-.93-1.7-1.57-1.31-1.61.95-3-.75-4.5-.08.3-.54.94-.74.61-1.47s-.89-.45-1.38-.58c-1.44-.42-2.8-.56-4,.53a.67.67,0,0,1-.49.07c-2.19-.48-3.59,1.53-5.55,1.74-.07,0-.12.11-.17.17-.73,1.09-1.68.8-2.56.34-1.05-.53-1.88-.14-2,1a1.3,1.3,0,0,0,0,.34h.43a8.37,8.37,0,0,0,.06,1.34,1.86,1.86,0,0,1,3,1.06,1.78,1.78,0,0,1,0,1,6.07,6.07,0,0,1-.24.59,2.93,2.93,0,0,1,.94,1.14,9.63,9.63,0,0,0,1.6,2.32,20.87,20.87,0,0,0,4.65,3.77l0,0c-.35-.51-.7-1-1-1.57a7.08,7.08,0,0,1-.53-1.11,2,2,0,0,1-.14-.68,1.87,1.87,0,0,1,3.69-.39,1.78,1.78,0,0,1-.05,1,5.94,5.94,0,0,1-.48,1.06c-.11.18-.21.37-.33.55a4.19,4.19,0,0,0,.45-.59,6.67,6.67,0,0,0,.72-2.18,8.87,8.87,0,0,1,.58-2,4.47,4.47,0,0,1,4.63-2.45c-.15-.22-.29-.45-.42-.68a7.53,7.53,0,0,1-.53-1.11,2,2,0,0,1-.14-.69,1.87,1.87,0,0,1,3.69-.39,1.78,1.78,0,0,1-.05,1,7.8,7.8,0,0,1-.48,1.06q-.37.66-.81,1.29l.23.12a3.81,3.81,0,0,0,.88.4,4.1,4.1,0,0,0,2-.17l6.84-1.76a11.42,11.42,0,0,1,5.09-.49,8.33,8.33,0,0,1,2.32.92c.31.16.61.33.91.5s.48.28.73.41.51.28.78.41l-.27.56c-.3-.14-.58-.29-.87-.45l-.56-.32h0l-.11-.07a11,11,0,0,0-3-1.35,10.83,10.83,0,0,0-4.8.49l-6.85,1.75a4.62,4.62,0,0,1-2.3.18,5,5,0,0,1-1-.46l-.29-.16a1.63,1.63,0,0,1-.11.17h0L919,157l-.08-.12a3.82,3.82,0,0,0-4.6,1.93,8.83,8.83,0,0,0-.53,1.85A7.05,7.05,0,0,1,913,163a7.87,7.87,0,0,1-1.16,1.34c-.16.16-.32.31-.47.47l.36.22c.67.4.85.33,1.21.21a3.14,3.14,0,0,1,.48-.14,20.17,20.17,0,0,1,4.84-.18,9.07,9.07,0,0,1,2.88.46,4.67,4.67,0,0,1,2.19,1.78l-.39.25.16-.06c2.22-.68,2.81-2.44,3.29-4.31.16-.65,0-1.44-1.06-1.14-.55.14-.62-.08-.43-.5.37-.82,2.28-1.73,3.14-1.9,1.14-.23,2.49.83,3.43-.62.24-.34.67-1.06,1.3-.37s-.26.82-.53,1.08a2.74,2.74,0,0,0-.74,3.47c.11.25.41.54.52.32.54-1.05,1.85-1.56,2-2.85s.61-1.82,1.88-1.55c1,.22,1.45-.49,2.09-.86s1.71.05,1.62-1.36c-.05-.65.9-.69,1.53-.46.24.08.41.3.63.41.77.33.93-.52,1.4-.78C943.42,155.8,943.12,155.45,942.9,155.4Z"/><path class="cls-1" d="M949.5,166.35a32.88,32.88,0,1,0-32.93,34A32.86,32.86,0,0,0,949.5,166.35Zm-19.88-26.92a27.88,27.88,0,0,1,5.47,3.29c-1.22.56-2.12.68-3-.48a22.33,22.33,0,0,0-2.67-2.56Zm1.12,4.25a46.39,46.39,0,0,1-5.54.84c-.57.1-.65-.32-.81-.73a26.64,26.64,0,0,0-3.24-6.53A20.06,20.06,0,0,1,930.74,143.68Zm-11.48-5.59a19.16,19.16,0,0,1,3.07,5.85c.27.77-.11.85-.7.85h-10c-.5,0-.92,0-.65-.76a19.32,19.32,0,0,1,3-5.88C915.67,136.11,917.59,136.09,919.26,138.09ZM909,143.76a1,1,0,0,1-1.19.76c-1.41-.19-2.82-.34-4.23-.55-.59-.08-1.12-.25-.42-1a21,21,0,0,1,9-5.78A22.57,22.57,0,0,0,909,143.76Zm-5.2-4.26c-1.07,1.1-2.16,2.16-3.14,3.34-.76.93-1.49-.09-2.29,0A17.62,17.62,0,0,1,903.77,139.5Zm-14.3,13.24a33.78,33.78,0,0,1,6.3-8.07.84.84,0,0,1,.91-.27l.24,0c2.46.67,2.12.43,1.05,2.22a32.48,32.48,0,0,0-3.65,8.37c-.25,1-.62,1.2-1.55.76a27.43,27.43,0,0,1-2.91-1.48A1,1,0,0,1,889.47,152.74Zm2.35,33.12,5.1,1.38a1.16,1.16,0,0,1,.73.62,34.76,34.76,0,0,0,6.09,7.64A30.31,30.31,0,0,1,891.82,185.86Zm8.27,2.11c2.72.27,5.11.51,7.52.73a.83.83,0,0,1,.8.66,31.51,31.51,0,0,0,3.41,8.16C906.71,195.94,903.07,192.58,900.09,188Zm21.21,9.77a35.08,35.08,0,0,0,2.5-5.1c.3-1,.67-2,1-3a1.08,1.08,0,0,1,1-.94c2.39-.22,4.78-.46,7.4-.72A22.54,22.54,0,0,1,921.3,197.74Zm4.49-12a84.81,84.81,0,0,0,1.48-10.05c.08-.72.22-1.09,1.07-1.17a81.19,81.19,0,0,0,9.19-1.26c.78-.18,1,0,.83.8a40.94,40.94,0,0,1-3.43,10.85c-.21.41-.38.79-.95.87-2.44.32-4.88.7-7.32,1.06C925.67,187,925.61,186.53,925.79,185.75Zm3.78,9.76c1-1.22,2.26-2.21,3.17-3.51a11.74,11.74,0,0,0,1.48-2c1.27-3.19,4.28-3.11,7.13-4A29.89,29.89,0,0,1,929.57,195.51Zm16.26-17.78c-.27.78-.67,1.53-.91,2.33-1.16,3.78-4.56,4-7.73,5,.57-1.82,1.25-3.38,1.75-5a49.76,49.76,0,0,0,1.39-6.36,1.49,1.49,0,0,1,1.27-1.44,21.32,21.32,0,0,0,5.81-2.28A27.24,27.24,0,0,1,945.83,177.73Zm.74-9.65a17.5,17.5,0,0,1-5.13,2.28c-.81.26-.79-.34-.79-.86,0-1.73,0-3.44,0-5.16a27.49,27.49,0,0,0-.46-4.24c-.12-.76-.4-1.14-1.22-1s-.85.65-.73,1.31a45,45,0,0,1,.53,9.5,1.2,1.2,0,0,1-1.13,1.34c-3.09.6-6.2,1-9.31,1.36-.29,0-.61.09-.77-.26s.07-1-.38-.93a4.85,4.85,0,0,0-1.56.71c-1.31.68-2.46,2-4.2,1-.44-.26-.76.07-.76.51,0,.59.14,1.21.93,1.23,1,0,1.93,0,2.89,0,.65,0,.86.21.82.89a69.89,69.89,0,0,1-1.51,10.17c-.19.88-.59,1.19-1.45,1.14s-1.85,0-2.76.08c-.41,0-.79,0-1,.53-.49,1.36-.43,1.49,1,1.48a16.88,16.88,0,0,0,2.13-.1c.92-.13,1.32,0,.93,1.07a21.42,21.42,0,0,1-3.26,6.6c-1.83,2.26-3.81,2.23-5.58-.06a23.67,23.67,0,0,1-3.26-6.75c-.29-.85.11-.9.78-.88,1.23,0,2.47,0,3.7,0,0-.12.09-.23.12-.35a3.45,3.45,0,0,1-2.93-1.41,1.06,1.06,0,0,0-.82-.21c-1.47.23-1.85-.58-2-1.82-.32-2-.79-3.94-1-5.94-.05-.48.23-1.32-.58-1.27s-1.12.73-1.23,1.41a5,5,0,0,0,.09,1.49c.27,1.65.52,3.31.87,5,.19.91-.17,1-.89.91-2.33-.35-4.64-.68-7-1a1.64,1.64,0,0,1-1.4-1.08,35.21,35.21,0,0,1-1.68-4.19c-.14-.48-.27-1-1-.71s-1.21.47-.87,1.33c.46,1.21.9,2.43,1.35,3.65a8.47,8.47,0,0,1-7.79-5.07,31.57,31.57,0,0,1-2.29-8.58c0-.31-.26-.71.08-.92s.52.15.79.23c.46.13,1,1,1.36.24.28-.58.61-1.51-.52-2a3,3,0,0,1-1.89-3.54,39.2,39.2,0,0,1,1.86-8.43c.33-1,.78-1.13,1.63-.52a9.81,9.81,0,0,0,3.16,1.51c.85.26,1.18.61.89,1.53a9.91,9.91,0,0,0-.35,2.1c0,.39-.4,1.11.31,1.09a1.57,1.57,0,0,0,1.66-1.07c.14-.57.13-1.17.25-1.74.07-.3,0-.77.45-.81,1.12-.08.79-.94.62-1.38a4.11,4.11,0,0,1,.24-3.06,40.83,40.83,0,0,1,4-8.08,1.3,1.3,0,0,1,1.54-.66c1.69.32,3.39.58,5.09.74.84.08.94.36.78,1.11-.09.4-.6,1.09.15,1.26s1.52.06,1.67-.74c.25-1.41,1.15-1.37,2.21-1.29a69.35,69.35,0,0,0,9.67,0c1.23-.09,1.77.36,2,1.48.12.71.28,1.4.46,2.09.11.39,0,1,.78.83s1.34-.37,1.1-1.34c-.2-.81-.31-1.64-.53-2.45-.16-.59,0-.8.6-.88,1.75-.2,3.5-.44,5.22-.76a1.38,1.38,0,0,1,1.63.75,26.76,26.76,0,0,1,2.67,5,1.16,1.16,0,0,0,1.31.87,3.12,3.12,0,0,0,.52-.08c.34-.06.46-.21.48-.38a1.66,1.66,0,0,0-.27-.8c-.76-1.54-1.45-3.11-2.36-4.58-.26-.4-.91-.77-.47-1.39a3.12,3.12,0,0,1,2.7-.41,31,31,0,0,1,6.39,8.16c.13.24.26.48.05.71-.84.9.09,1.37.57,1.63a2.38,2.38,0,0,1,1.11,1.4,30.33,30.33,0,0,1,2,9.54A2.24,2.24,0,0,1,946.57,168.08Z"/><path class="cls-1" d="M796.65,159.24a40.89,40.89,0,1,0,40.89,40.89A40.89,40.89,0,0,0,796.65,159.24Zm0,73.63a32.75,32.75,0,1,1,32.75-32.74A32.74,32.74,0,0,1,796.65,232.87Z"/></svg>