<?xml version="1.0" encoding="UTF-8"?>
<svg id="_Слой_2" data-name="Слой 2" xmlns="http://www.w3.org/2000/svg" viewBox="0 0 306.78 284.39">
  <defs>
    <style>
      .cls-1 {
        fill: #062d4b;
      }

      .cls-2 {
        fill: #fff;
      }

      .cls-3 {
        fill: #ff001a;
      }

      .cls-4 {
        fill: #fd9000;
      }

      .cls-5 {
        fill: #ff9000;
      }

      .cls-6 {
        fill: #0e2f48;
      }

      .cls-7 {
        fill: #008fc0;
      }

      .cls-8 {
        fill: #ff0016;
      }

      .cls-9 {
        fill: #0d3150;
      }

      .cls-10 {
        fill: #0c2d4b;
      }

      .cls-11 {
        fill: #008037;
      }
    </style>
  </defs>
  <g id="Layer_1" data-name="Layer 1">
    <g>
      <g>
        <polygon class="cls-10" points="222.47 244.7 213.06 167.33 266.04 117.26 267.82 119.15 215.79 168.32 225.04 244.39 222.47 244.7"/>
        <rect class="cls-9" x="197.88" y="168.54" width="2.59" height="83.94" transform="translate(-85.55 156.47) rotate(-35.84)"/>
        <path class="cls-10" d="M225.06,246.32H82.3L38.17,117.58,153.88,37.47l114.91,80.11-43.72,128.74Zm-140.91-2.59H223.2l42.5-125.14L153.88,40.63,41.26,118.59l42.89,125.13Z"/>
        <polygon class="cls-9" points="223.18 245.71 154.06 211.85 86.07 245.7 84.91 243.38 154.05 208.95 224.32 243.38 223.18 245.71"/>
        <polygon class="cls-9" points="42.59 119.47 42.03 116.94 117.17 100.31 153.83 36.53 193.98 100.31 267.22 116.94 266.65 119.47 192.36 102.6 153.93 41.56 118.85 102.6 118.29 102.72 42.59 119.47"/>
        <polygon class="cls-10" points="86.78 244.7 84.2 244.39 93.45 168.32 41.42 119.15 43.2 117.26 96.19 167.33 86.78 244.7"/>
        <circle class="cls-6" cx="94.82" cy="167.82" r="6.6"/>
        <circle class="cls-7" cx="118.01" cy="101.46" r="6.6"/>
        <circle class="cls-1" cx="193.17" cy="101.46" r="6.6"/>
        <g>
          <line class="cls-9" x1="121.89" y1="139.63" x2="39.85" y2="118.21"/>
          <rect class="cls-9" x="79.57" y="86.52" width="2.59" height="84.8" transform="translate(-64.3 174.59) rotate(-75.36)"/>
        </g>
        <rect class="cls-9" x="186.28" y="127.39" width="82.01" height="2.59" transform="translate(-25.33 62.31) rotate(-14.8)"/>
        <g>
          <line class="cls-9" x1="83.02" y1="244.54" x2="134.27" y2="174.91"/>
          <rect class="cls-9" x="65.42" y="208.43" width="86.46" height="2.59" transform="translate(-124.66 172.88) rotate(-53.64)"/>
        </g>
        <rect class="cls-10" x="152.76" y="75.27" width="2.59" height="40.78"/>
        <g>
          <path class="cls-9" d="M130.79,138.92h12.88v3.46h-4.21v15.89h-4.47v-15.89h-4.21v-3.46Z"/>
          <path class="cls-9" d="M146.09,138.92h4.44v15.83h6.33v3.51h-10.77v-19.35Z"/>
          <path class="cls-9" d="M158.97,138.92h6.25l3.46,12.96,3.51-12.96h6.3v19.35h-3.93v-16.09l-4.52,16.09h-2.75l-4.57-16.06v16.06h-3.74v-19.35Z"/>
        </g>
        <circle class="cls-4" cx="154.19" cy="39.85" r="39.85"/>
        <circle class="cls-7" cx="266.93" cy="118.21" r="39.85"/>
        <circle class="cls-9" cx="223.75" cy="244.54" r="39.85"/>
        <circle class="cls-9" cx="83.02" cy="244.54" r="39.85"/>
        <circle class="cls-11" cx="39.85" cy="118.21" r="39.85"/>
        <circle class="cls-5" cx="214.43" cy="167.82" r="6.6"/>
        <circle class="cls-9" cx="192.04" cy="200.61" r="6.6"/>
        <circle class="cls-9" cx="116.87" cy="199.81" r="6.6"/>
        <circle class="cls-9" cx="94.49" cy="132.64" r="6.6"/>
        <circle class="cls-3" cx="214.43" cy="132.64" r="6.6"/>
        <circle class="cls-8" cx="154.06" cy="91.06" r="6.6"/>
        <circle class="cls-5" cx="154.06" cy="211.8" r="6.6"/>
        <g>
          <path class="cls-2" d="M19.13,118.87c.39,0,.76-.07,1.14-.16,.87-.2,1.69-.49,2.45-.98,.68-.44,1.26-.97,1.61-1.72,.23-.49,.35-1,.25-1.55-.13-.72-.48-1.32-.99-1.83-.33-.34-.72-.61-1.14-.84-.4-.23-.81-.42-1.25-.56-.57-.19-1.16-.3-1.75-.42-.51-.1-1.03,.15-1.21,.63-.1,.27-.09,.55-.07,.83,.02,.22-.05,.28-.27,.28-.98-.01-1.95,0-2.93,0-.37,0-.61,.27-.59,.65,.02,.34,.2,.58,.59,.57,.49,0,.98,0,1.48,0,.51,0,1.01,0,1.52,0,.14,0,.2,.02,.2,.18,0,.6,0,1.2,0,1.79,0,.13-.04,.17-.17,.17-.34,0-.68-.02-1.02-.04-.65-.03-1.3,0-1.95,0-.15,0-.3,.04-.42,.14-.22,.19-.29,.48-.18,.78,.07,.18,.33,.34,.59,.34,.96,0,1.92,0,2.88,0,.23,0,.29,.07,.27,.28-.02,.16,0,.33,0,.5,0,.54,.43,.96,.97,.97Z"/>
          <path class="cls-2" d="M16.84,108.09c.86,.15,1.55,.6,2.11,1.24,.25,.28,.44,.61,.68,.9,.14,.17,.31,.35,.57,.29,.3-.08,.33-.45,.06-.73-.36-.39-.7-.8-1.11-1.15-.33-.28-.67-.53-1.09-.67-.73-.24-1.43-.55-2.12-.89-.65-.32-1.27-.69-1.85-1.12-.54-.4-1.06-.81-1.47-1.35,.39,.3,.77,.62,1.19,.89,1.22,.78,2.54,1.31,3.93,1.68,.75,.2,1-.27,.94-.73-.08-.58-.18-1.17-.39-1.73-.25-.67-.66-1.2-1.23-1.63-.57-.43-1.24-.6-1.92-.73-.6-.11-1.21-.19-1.83-.23-.65-.04-1.3-.12-1.95-.17-.57-.04-1.13-.14-1.68-.29-.49-.14-.95-.35-1.41-.64,.04,.93,.23,1.79,.54,2.64,.39,1.09,1.03,2.01,1.92,2.74,1.1,.91,2.4,1.34,3.81,1.48,.76,.08,1.53,.08,2.29,.21Z"/>
          <path class="cls-2" d="M65.02,120.09c-.45-.62-1.07-1.07-1.75-1.44-1.27-.67-2.63-1.03-4.04-1.3-.65-.17-1.3-.27-1.95-.44-.79-.21-1.59-.41-2.31-.79-1.07-.53-2.01-1.24-2.9-2.01-.38-.45-.83-.82-1.24-1.24-.74-.79-1.51-1.56-2.33-2.25-.42-.36-.85-.71-1.32-1-.14-.14-.3-.23-.48-.32-.02-.02-.05-.03-.06-.05-.08-.05-.14-.09-.21-.14h-.02c-.08-.06-.15-.12-.24-.15-.21-.11-.42-.24-.63-.35-.48-.23-.97-.45-1.48-.63-.74-.26-1.5-.47-2.27-.59-.23-.11-.48-.09-.71-.14-.44-.08-.86-.11-1.3-.15-.5-.05-1-.08-1.48-.05-.48,.02-.98,0-1.47,.05-.61,.06-1.21,.11-1.8,.21-1.09,.17-2.16,.38-3.24,.62-.12,.03-.26,.06-.38,.08-.02,0-.03,.02-.03,.03-.05,0-.08-.02-.12,0-.77,.18-1.56,.38-2.34,.56-.83,.2-1.68,.39-2.53,.53-.45,.08-.91,.17-1.38,.26-.08,0-.17,0-.24,.02-.67,.09-1.32,.17-1.98,.17h-1.51c-.14,0-.24,.03-.33,.12-.36,.35-.24,.89,.24,1.06,.91,.32,1.75,.74,2.49,1.38,.36,.36,.7,.76,.95,1.21,.48,.91,.54,1.81,.12,2.75-.45,1.04-1.27,1.72-2.22,2.25-.8,.44-1.66,.68-2.54,.86-.53,.11-1.07,.2-1.59-.12-.09-.06-.11,.02-.11,.08-.08,.71-.11,1.42,.02,2.12,.2,1.19,.67,2.27,1.56,3.13,.21,.18,.42,.33,.7,.24,.24-.08,.38-.29,.44-.56,.11-.47,.29-.91,.51-1.33,.59-1.1,1.41-1.98,2.48-2.63,.82-.51,1.69-.82,2.65-.92,.29-.05,.56-.08,.85-.08,.38,0,.74,.05,1.1,.09,.85,.14,1.66,.39,2.4,.82,.88,.5,1.6,1.16,2.13,2.01,.57,.94,.88,1.95,1,3.04,.06,.47,.38,.8,.85,.8,1.38,0,2.75,0,4.13-.01,.02,.01,.05,.01,.06,.01h7.5c.32,0,.57-.27,.6-.62,.05-.8,.26-1.56,.6-2.28,.27-.57,.65-1.09,1.04-1.6,.35-.38,.73-.73,1.15-1.03,.59-.39,1.22-.71,1.89-.92,.39-.12,.79-.17,1.18-.23,.71-.12,1.42-.06,2.12,.08,.6,.12,1.18,.35,1.75,.61,.02,.06,.08,.08,.12,.09,.53,.27,1,.64,1.44,1.04,.45,.44,.82,.94,1.13,1.48,.47,.8,.76,1.66,.86,2.57,.03,.33,.26,.54,.57,.54,.38,.02,.71-.12,1.06-.21,.71-.21,1.33-.56,1.89-1.04,.63-.54,1.12-1.18,1.36-1.97,.26-.85,.09-1.62-.42-2.31Zm-20.91-5.14c-2.13,2.99-4.26,5.97-6.4,8.98-.03-.15,.06-.26,.09-.39,.03-.03,.03-.06,.03-.09v-.06s.02-.02,.02-.03,.02-.03,.02-.05,.02-.01,.02-.01c.08-.23,.17-.44,.21-.67v-.09c.02-.06,0-.12,.06-.15,0-.02,.02-.02,.02-.03,.05-.06,.08-.14,.08-.21v-.03c.05-.32,.18-.62,.29-.94,.06-.21,.12-.41,.18-.62,.02-.05,.03-.08,.05-.11,.21-.7,.44-1.38,.65-2.06,.11-.29,.18-.57,.27-.86,.05-.12,.05-.2-.12-.18-.57,.03-1.15,.08-1.72,.12-.29,.02-.56-.02-.83,.05-.11,.02-.14-.02-.11-.14,.23-1.04,.45-2.1,.68-3.14,.23-1.04,.48-2.09,.7-3.13,.06-.32,.29-.23,.45-.26,.36-.05,.74-.06,1.1-.12l-.02-.02h.02v.02s.02-.02,.03-.02h.05c.11,0,.23,.03,.33-.05h.24c.17-.02,.33-.02,.5-.06,.12-.02,.26,0,.38-.03,.05,0,.08-.02,.12-.05,.42,.02,.83-.09,1.29-.11-.11,.32-.29,.57-.44,.85-.33,.63-.68,1.26-1.01,1.89-.32,.56-.6,1.12-.92,1.68-.06,.14-.09,.2,.11,.2,.82-.02,1.63-.08,2.43-.11,.39-.03,.79,.03,1.16-.08,.02,0,.03,0,.03,.02s-.01,.05-.01,.08Z"/>
          <path class="cls-2" d="M58.79,123.66c-.35-.73-.83-1.38-1.47-1.89-.51-.42-1.1-.76-1.77-.94-.21-.08-.44-.12-.65-.17-.71-.15-1.42-.12-2.12,.03-1.12,.23-2.04,.8-2.81,1.62-.56,.62-.95,1.35-1.19,2.15-.21,.68-.21,1.39-.14,2.12,.09,.67,.3,1.28,.63,1.87,.27,.51,.65,.98,1.1,1.38,.33,.29,.68,.54,1.07,.76,.08,.03,.15,.06,.21,.11,.56,.27,1.16,.42,1.77,.47,1.16,.09,2.27-.12,3.28-.74,1.04-.65,1.8-1.54,2.24-2.69,.27-.74,.39-1.51,.3-2.31-.06-.6-.21-1.19-.47-1.75Zm-5.46,4.97c-.38-.08-.73-.24-1.07-.39h-.02c0-.11-.09-.15-.15-.23-.79-.74-1.19-1.63-.94-2.72,.35-1.48,1.66-2.39,3.13-2.22,.09,.02,.18,.03,.26-.02v-.02h.02c.15,.11,.35,.09,.51,.14,.01,.03,.03,.05,.05,.05v.02c.05,.09,.14,.12,.21,.17,.86,.5,1.38,1.26,1.47,2.22,.17,1.8-1.44,3.43-3.46,3.01Z"/>
          <path class="cls-2" d="M32.66,124.67c-.32-1.26-.98-2.27-2.01-3.05-.26-.2-.53-.41-.86-.5-.03-.03-.06-.05-.09-.05-.11-.08-.23-.14-.36-.15-.57-.24-1.18-.35-1.8-.35-.24,0-.47,.02-.71,.05-.95,.11-1.81,.44-2.57,1.01-.7,.51-1.24,1.16-1.62,1.95-.38,.77-.53,1.6-.51,2.46,.03,.85,.24,1.63,.63,2.34,.5,.91,1.21,1.63,2.12,2.13,.09,.09,.21,.09,.3,.14,1.28,.6,2.6,.7,3.93,.27,1.53-.5,2.62-1.5,3.27-2.98,.47-1.06,.57-2.16,.29-3.28Zm-3.93,3.75c-.82,.39-1.66,.36-2.51,.02-.06-.03-.14-.09-.21-.06t-.02-.02c-.39-.32-.77-.65-1.03-1.1-.73-1.36-.35-2.54,.59-3.49,.38-.39,.88-.56,1.41-.67,.41-.09,.82-.03,1.22,.02l.02-.02c.01,.09,.11,.09,.17,.11,1.09,.32,1.8,1.33,1.94,2.37,.14,1.16-.51,2.33-1.57,2.84Z"/>
          <path class="cls-2" d="M19.78,108.68c.08-.08,.16-.16,.22-.26,.44-.73,1.12-1.02,1.94-1.07,.58-.04,1.16-.09,1.71-.31,.43-.17,.82-.41,1.15-.73,.44-.43,.73-.98,.89-1.57,.1-.36,.16-.72,.18-1.1-.04,0-.06,0-.07,0-.58,.39-1.26,.47-1.93,.52-.55,.04-1.1,.09-1.65,.18-.63,.11-1.17,.37-1.51,.92-.22,.35-.28,.76-.35,1.17-.07,.41,.16,.59,.52,.49,.43-.12,.85-.27,1.25-.45,.37-.17,.72-.38,1.09-.65-.05,.13-.12,.18-.18,.23-.72,.57-1.53,.97-2.39,1.3-.53,.2-.87,.63-1.19,1.07-.08,.11-.03,.2,.05,.28,.09,.08,.19,.04,.26-.03Z"/>
        </g>
        <g>
          <path class="cls-2" d="M169.44,55.28c-1.25-4.75-2.5-9.49-3.74-14.24-.11,.05-.21,.1-.3,.13-.51,.21-1.04,.18-1.54-.02-2.91-1.1-5.6-2.59-7.86-4.78l-.02-.02c.02,.1,.02,.19,.02,.29,.02,.35-.11,.4-.4,.4-.75-.02-1.5-.02-2.26,0-.32,.02-.45-.08-.42-.43,.06-1.28,.1-2.58,.14-3.87l.02,.02c0-.16,.02-.32,.02-.48-.62-1.46-.94-3.06-.93-4.82,.05-2.3,.02-4.62,.02-6.94h-3.57c-1.07,4.08-2.14,8.16-3.22,12.24-2.19,8.35-4.38,16.7-6.59,25.06-.03,.14-.08,.27-.05,.43h13.3c.03-.94,.08-1.89,.1-2.83,.02-.24,.1-.32,.34-.32h3.92c.26,0,.34,.08,.35,.32,.02,.94,.05,1.89,.08,2.83h13.31c-.13-1.02-.46-1.98-.72-2.96Zm-13.36-4.86c-1.1-.03-2.22-.02-3.34,0-.29,0-.38-.08-.37-.38,.13-2.64,.24-5.28,.34-7.92,.02-.32,.11-.42,.42-.4,.9,.02,1.79,.02,2.67,0,.3-.02,.42,.08,.43,.4,.03,1.33,.1,2.67,.16,4h-.02c.06,1.28,.1,2.56,.18,3.82,.03,.38-.08,.48-.46,.48Z"/>
          <path class="cls-2" d="M178.1,21.55c0-1.54,.02-3.07,0-4.59-.02-1.33-.59-1.97-1.89-2.14-.85-.13-1.71-.22-2.54-.43-2.11-.56-4-1.57-5.78-2.8-.93-.66-1.78-.66-2.69,0-1.06,.77-2.18,1.39-3.36,1.94-1.66,.77-3.41,1.15-5.23,1.31-.86,.1-1.44,.66-1.55,1.47-.02,.13-.03,.27-.03,.4-.02,.19-.03,.38-.03,.58,0,2.13,.03,4.26,0,6.38v1.02c-.02,.75,.05,1.49,.16,2.18,.02,.08,.03,.14,.05,.21,.08,.45,.21,.88,.35,1.31,.05,.13,.1,.26,.14,.38,.59,1.54,1.55,2.91,2.83,4.14,1.78,1.73,3.82,2.98,6.06,3.95,.02,0,.03,.02,.06,.03,.37,.16,.75,.3,1.14,.45,.18,.08,.37,.13,.54,.14,.29,.03,.59,0,.88-.11,.06-.03,.14-.06,.22-.1,.85-.35,1.68-.72,2.48-1.12,1.78-.9,3.42-1.98,4.83-3.46,.88-.91,1.65-1.87,2.22-2.96,.48-.88,.82-1.82,.96-2.88,.24-1.76,.16-3.54,.16-5.31Zm-4.06,7.65c-.38,.58-.85,1.12-1.36,1.65-1.12,1.14-2.42,2.02-3.81,2.72-.67,.35-1.38,.67-2.1,.98-.06,.02-.13,.02-.24,.03v-9.41c0-.19-.02-.38-.03-.58-.18-.11-.37-.05-.54-.05-.27,0-.53-.02-.78-.02h-3.82c-1.01,0-2.03,0-3.04,.02-.46,0-.58-.13-.56-.58,.02-1.15,.02-2.3,.02-3.46,0-.42,0-.85-.02-1.28v-1.31c0-.29,.06-.43,.37-.46,2.96-.35,5.58-1.55,8.05-3.17,.06-.03,.14-.08,.22-.13,.02-.02,.06,0,.1,0,.1,.08,.05,.19,.05,.29v9.76c0,.13-.03,.26-.03,.38,.08-.06,.16-.08,.26-.08,.08,0,.14,.02,.22,.02,2.61-.02,5.2,0,7.81-.02,.43,0,.48,.14,.5,.53,.06,1.62-.43,2.96-1.25,4.16Z"/>
          <path class="cls-2" d="M147.09,20.51h-1.72c-.05,.15-.09,.3-.15,.45-4.37,10.68-8.74,21.35-13.12,32.02-.71,1.72-1.43,3.43-2.14,5.15,.04,.21,.19,.09,.28,.09,1.44,0,2.87,0,4.31,0,.13-.77,.44-1.49,.69-2.22,3.93-11.79,7.86-23.57,11.79-35.36,.02-.05,.04-.09,.06-.13Z"/>
          <path class="cls-2" d="M178.78,57.75c-2.64-6.45-5.29-12.91-7.93-19.36-.81,.55-1.67,1.04-2.55,1.48,1.99,5.95,3.98,11.9,5.96,17.85,.05,.16,.16,.32,.11,.5,1.44,0,2.87,0,4.31,0,.09,0,.25,.12,.29-.09-.06-.13-.14-.25-.19-.38Z"/>
        </g>
        <g>
          <g>
            <path class="cls-2" d="M222.13,260.8c.23-.42,.43-.83,.59-1.26,.17-.44,.31-.88,.37-1.35,.05-.38,.05-.76-.05-1.13-.03-.1-.06-.19-.11-.28-.19-.36-.5-.56-.9-.59-.48-.04-.92,.08-1.31,.37-.32,.24-.59,.52-.83,.83-.17,.21-.32,.44-.47,.67-.02,.03-.04,.06-.07,.09,.01-.03,.02-.06,.04-.1,.13-.33,.27-.66,.32-1.01,.05-.37,.06-.74-.03-1.11-.14-.53-.58-.94-1.08-1.01-.44-.06-.84,.02-1.23,.23-.39,.21-.69,.51-.96,.85-.07,.09-.14,.18-.2,.27-.02-.03,0-.05,.01-.08,.13-.35,.22-.7,.23-1.07,.02-.61-.24-1.3-1.09-1.51-.54-.13-1.04-.07-1.51,.24-.36,.23-.66,.52-.94,.85-.18,.2-.34,.42-.48,.64-.02,.02-.02,.05-.05,.07-.02,0-.03-.02-.05-.03-.56-.53-1.16-1-1.76-1.48-.78-.61-1.57-1.21-2.36-1.8-.08-.06-.16-.1-.26-.12-.52-.12-1.03-.25-1.54-.37-.1-.02-.1-.03-.09-.12,.03-.42,.08-.84,.14-1.26,.12-.85,.31-1.69,.56-2.51,.64-2.12,1.65-4.05,3.03-5.78,.39-.49,.81-.95,1.26-1.37,.07-.06,.12-.08,.21-.05,.46,.14,.91,.28,1.37,.42,.13,.04,.25,.04,.38,.05,.45,.04,.89,.12,1.32,.27,.32,.11,.62,.26,.88,.49,.16,.13,.12,.11,0,.22-.46,.44-.93,.87-1.4,1.3-.23,.21-.38,.46-.48,.75-.14,.43-.15,.87-.05,1.31,.1,.4,.34,.7,.68,.93,.35,.24,.74,.38,1.15,.45,.86,.15,1.68,.02,2.47-.33,.06-.03,.11-.07,.17-.11,.72-.57,1.44-1.13,2.16-1.7,.36-.29,.77-.48,1.22-.6,.49-.13,.99-.17,1.5-.14,.83,.05,1.62,.23,2.38,.56,.48,.21,.94,.46,1.37,.76,.58,.39,1.17,.77,1.75,1.16,2.63,1.75,5.25,3.51,7.82,5.35,.84,.6,1.67,1.21,2.47,1.86,.23,.19,.46,.39,.68,.6,.37,.38,.54,.84,.49,1.37-.02,.25-.11,.48-.23,.7-.11,.21-.25,.4-.42,.57-.23,.22-.51,.35-.82,.39-.35,.05-.68-.03-1-.17-.14-.07-.28-.15-.41-.24-.03-.02-.05-.04-.08-.04,0,.04,.02,.06,.04,.08,.28,.37,.35,.79,.29,1.23-.02,.15-.03,.31-.06,.46-.09,.44-.32,.8-.64,1.11-.2,.19-.42,.34-.67,.47-.21,.11-.44,.14-.67,.15-.53,.02-1.04-.1-1.53-.29-.04-.01-.07-.04-.12-.04-.02,.04,0,.07,0,.1,.09,.38,.11,.76-.01,1.13-.18,.55-.54,.95-1.03,1.23-.22,.12-.47,.17-.72,.2-.5,.06-.99,0-1.47-.18-.02,0-.04-.01-.06-.02,0,0-.01,0-.03,0,0,.04,.01,.07,.02,.1,.25,.72-.07,1.43-.51,1.8-.36,.3-.76,.46-1.23,.5-.41,.04-.8-.05-1.18-.17-.49-.15-.95-.39-1.4-.64-.5-.28-.98-.6-1.44-.94-.03-.02-.05-.04-.08-.06-.03-.02-.04-.04-.01-.07,.02-.02,.03-.04,.04-.06,.21-.34,.41-.7,.55-1.08,.1-.29,.17-.59,.18-.89,0-.17,0-.35-.06-.51-.13-.39-.42-.6-.81-.69-.2-.05-.4-.03-.6,.03-.32,.1-.6,.28-.86,.49-.21,.17-.4,.35-.57,.55-.02,.03-.04,.06-.1,.09Z"/>
            <path class="cls-2" d="M220.55,239.33c.17,0,.34,.02,.51,.01,.51-.01,1.02-.01,1.52-.02,.41,0,.82-.02,1.22-.05,.34-.02,.69-.04,1.03-.08,.12-.02,.24-.04,.36-.06,.37-.09,.74-.09,1.11-.05,.64,.06,1.23,.27,1.81,.55,.73,.35,1.47,.66,2.21,.97,1.17,.49,2.34,.97,3.51,1.44,.33,.13,.67,.21,1.01,.26,.25,.04,.5,.05,.75,.04,.56-.01,1.06-.16,1.51-.5,.29-.22,.57-.45,.84-.7,.05-.05,.1-.09,.15-.14,.04-.04,.07-.03,.1,0,.17,.12,.34,.25,.49,.39,.91,.79,1.63,1.74,2.2,2.79,.63,1.16,1.06,2.39,1.32,3.68,.11,.57,.19,1.14,.24,1.72,.03,.37,.05,.75,.06,1.12,0,.09,0,.09-.08,.09-.74,0-1.43,.2-2.09,.53-.58,.29-1.09,.69-1.52,1.17-.06,.07-.06,.07-.14,.02-1.11-.75-2.22-1.49-3.32-2.24-.63-.43-1.26-.85-1.9-1.28-1.03-.69-2.05-1.38-3.08-2.07-.99-.66-1.97-1.33-2.96-1.99-.39-.26-.77-.53-1.16-.78-.28-.18-.58-.31-.89-.44-.57-.23-1.16-.38-1.77-.46-.43-.06-.87-.07-1.3-.04-.42,.02-.83,.09-1.23,.2-.15,.04-.29,.12-.44,.18-.54,.25-1.03,.58-1.49,.96-.43,.35-.87,.68-1.3,1.02-.16,.13-.34,.2-.52,.28-.38,.15-.77,.25-1.18,.28-.63,.04-1.2-.1-1.68-.53-.06-.05-.11-.11-.14-.18-.23-.45-.29-.91-.08-1.39,.04-.08,.09-.14,.15-.2,.59-.52,1.17-1.04,1.76-1.56,.58-.51,1.16-1.03,1.73-1.54,.26-.23,.51-.47,.77-.7,.18-.16,.37-.31,.58-.44,.17-.11,.36-.19,.56-.2,.25-.02,.49-.03,.74-.04Z"/>
            <path class="cls-2" d="M210.22,239.21s-.05,.07-.08,.1c-.78,.8-1.45,1.68-2.07,2.61-1.02,1.53-1.83,3.17-2.4,4.92-.3,.91-.52,1.84-.67,2.79-.07,.47-.13,.94-.16,1.41-.04,.57-.05,1.15-.04,1.72,0,.02,0,.04,0,.05-.04,.01-.07-.01-.09-.03-1.66-.86-3.32-1.73-4.97-2.59-.08-.04-.09-.09-.09-.16,.03-.44,.07-.87,.12-1.31,.07-.61,.16-1.21,.27-1.81,.37-2,.93-3.95,1.81-5.8,.55-1.16,1.23-2.25,2.09-3.21,.51-.57,1.08-1.09,1.71-1.53,.04-.03,.09-.06,.13-.09,.03-.02,.06-.03,.09,0,.02,.02,.04,.03,.06,.04,1.4,.93,2.8,1.87,4.21,2.8,.03,.02,.07,.05,.1,.07Z"/>
            <path class="cls-2" d="M238.65,239.32c.18-.12,.35-.24,.52-.36,1.23-.84,2.46-1.69,3.68-2.53,.02-.01,.03-.02,.05-.03,.04-.04,.08-.03,.12,0,.13,.1,.26,.18,.38,.28,.71,.56,1.34,1.19,1.93,1.87,.88,1.03,1.6,2.16,2.19,3.38,.44,.92,.78,1.88,1.04,2.87,.18,.69,.32,1.39,.41,2.1,.05,.4,.09,.8,.12,1.21,.05,.64,.05,1.29,.04,1.93,0,.01,0,.03,0,.04,0,.06-.02,.09-.08,.12-.18,.08-.36,.17-.54,.26-.57,.27-1.14,.54-1.7,.81-.93,.44-1.85,.89-2.78,1.33-.02,.01-.05,.02-.07,.03-.03-.03-.02-.07-.02-.1,0-.41,.01-.82,0-1.24-.01-.44-.04-.89-.08-1.33-.05-.58-.12-1.16-.21-1.73-.15-.94-.35-1.86-.63-2.77-.26-.83-.58-1.64-.98-2.42-.42-.81-.93-1.56-1.55-2.23-.52-.56-1.1-1.04-1.76-1.43-.02-.01-.04-.03-.07-.04,0,0-.01-.01-.02-.03Z"/>
            <path class="cls-2" d="M222.53,257.97c0,.28-.06,.55-.13,.82-.19,.69-.44,1.36-.78,2-.3,.55-.66,1.06-1.1,1.51-.16,.16-.33,.3-.54,.4-.44,.2-.86,.1-1.17-.26-.11-.13-.18-.29-.23-.45-.11-.35-.11-.7-.01-1.05,.05-.2,.11-.4,.18-.6,.18-.56,.46-1.08,.77-1.58,.21-.33,.42-.66,.68-.95,.32-.36,.69-.67,1.14-.86,.09-.04,.19-.07,.29-.07,.35-.03,.71,.14,.83,.54,.06,.19,.08,.37,.08,.57Z"/>
            <path class="cls-2" d="M215.36,259.54c.01-.26,.04-.52,.13-.78,.21-.64,.46-1.27,.81-1.84,.22-.36,.48-.7,.81-.97,.21-.18,.44-.32,.71-.38,.58-.14,1.01,.17,1.22,.61,.09,.19,.11,.4,.1,.6-.01,.34-.07,.67-.16,1-.11,.38-.25,.75-.42,1.11-.21,.46-.46,.89-.79,1.27-.18,.21-.37,.39-.61,.54-.37,.23-.76,.24-1.16,.08-.37-.15-.53-.45-.61-.81-.03-.14-.04-.28-.04-.43Z"/>
            <path class="cls-2" d="M215.8,255.52c0,.53-.16,1.04-.43,1.51-.17,.31-.38,.59-.64,.83-.31,.29-.68,.47-1.11,.48-.53,0-1.04-.37-1.13-.91-.04-.21-.03-.42,0-.64,.07-.48,.21-.92,.47-1.33,.27-.43,.63-.77,1.07-1.04,.14-.08,.28-.12,.44-.15,.21-.04,.42-.03,.62,.04,.33,.11,.52,.35,.64,.67,.02,.07,.04,.13,.05,.2,.02,.1,.01,.21,.02,.33Z"/>
            <path class="cls-2" d="M224.65,260.92c0,.19-.03,.38-.09,.56-.18,.56-.42,1.1-.74,1.6-.21,.33-.44,.64-.74,.89-.18,.15-.39,.25-.64,.24-.17,0-.33-.06-.48-.15-.15-.1-.21-.26-.25-.43-.05-.22-.04-.44-.02-.67,.03-.32,.16-.6,.28-.89,.21-.52,.52-.97,.9-1.37,.17-.18,.35-.35,.58-.45,.25-.11,.51-.15,.77-.09,.17,.04,.28,.14,.34,.3,.02,.06,.04,.13,.05,.19,.02,.09,.01,.18,.02,.27Z"/>
          </g>
          <g id="o3SyUi.tif">
            <g>
              <path class="cls-2" d="M222.3,237.95c-.51,.01-1.02,.01-1.52,.02-.17,0-.34-.02-.51-.02-.24,0-.49,.02-.74,.04-.21,.02-.39,.09-.56,.2-.2,.13-.4,.28-.58,.44-.26,.23-.51,.47-.77,.7-.41,.37-.83,.73-1.24,1.1-.34-.13-.44-.43-.44-1.04,0-3.53,0-7.05,0-10.58,0-.51,.16-.87,.66-1.04h.82c.8,.15,1.61,.23,2.39,.49,1.38,.47,2.55,1.21,3.37,2.45,.13,.2,.21,.4,.21,.64,0,2.18,0,4.36,0,6.54-.36,.02-.72,.03-1.09,.04Z"/>
              <path class="cls-2" d="M231.99,239.52c0,.19-.02,.35-.05,.48-.63-.26-1.26-.52-1.89-.78-.74-.31-1.49-.62-2.21-.97-.58-.27-1.17-.48-1.81-.55-.37-.04-.74-.04-1.11,.05-.12,.03-.24,.05-.36,.07,0,0,0,0-.01,0,0-2.11,0-4.22,0-6.33,0-.31,.08-.58,.26-.84,1.03-1.49,2.52-2.24,4.23-2.62,.49-.11,.99-.17,1.48-.25h.82c.5,.17,.66,.52,.66,1.04-.01,3.56,0,7.13,0,10.7Z"/>
              <path class="cls-2" d="M214.85,240.15c-.17-.1-.35-.18-.54-.25-.27-.09-.54-.16-.82-.21v-8.72c.11-.21,.22-.4,.45-.5,.56-.25,.85-.08,.85,.52,0,2.83,0,5.66,0,8.49,0,.24,.02,.47,.06,.67Z"/>
              <path class="cls-2" d="M234.44,231.27c0,3.2,0,6.41,0,9.62-.3-.05-.6-.12-.88-.24-.18-.07-.36-.14-.54-.22,.08-.23,.12-.47,.12-.75,0-2.9,0-5.8,.01-8.7,0-.19-.14-.46,.12-.58,.3-.14,.85,.05,1.03,.32,.11,.16,.14,.35,.14,.54Z"/>
            </g>
          </g>
        </g>
        <g>
          <g id="_7Bt7F9.tif" data-name="7Bt7F9.tif">
            <g>
              <path class="cls-2" d="M84.44,255.06c.52,.52,1,1.01,1.49,1.49,.1,.1,.14,.2,.14,.33,0,.41-.01,.82,0,1.22,0,.16-.02,.22-.2,.22-.42-.02-.84,0-1.26,0-.13,0-.21-.04-.3-.13-1-1.02-2-2.03-2.99-3.04-.1-.1-.19-.14-.33-.14-.97,0-1.94,0-2.91,0-.12,0-.21,.04-.3,.13-1,1.02-2.01,2.04-3.01,3.06-.09,.09-.18,.13-.32,.13-.43,0-.86,0-1.28,0-.12,0-.17-.02-.17-.16,0-.45,0-.91,0-1.36,0-.1,.05-.16,.11-.23,.45-.45,.9-.9,1.35-1.35,.04-.04,.09-.09,.15-.16-.39-.03-.74-.05-1.09-.14-2.24-.54-3.78-2.45-3.79-4.77-.02-3.81-.02-7.62,0-11.43,.01-2.41,1.64-4.36,4.01-4.82,.32-.06,.64-.08,.97-.08,3.22,0,6.43,0,9.65,0,2.4,0,4.34,1.55,4.87,3.87,.08,.37,.11,.74,.11,1.12,0,3.76,0,7.52,0,11.27,0,2.36-1.5,4.29-3.75,4.84-.36,.09-.73,.13-1.14,.14Zm-4.9-8.17c2.11,0,4.21,0,6.32,0,.16,0,.22-.03,.22-.21,0-3.13,0-6.27,0-9.4,0-.18-.05-.21-.21-.21-4.22,0-8.43,0-12.65,0-.17,0-.21,.05-.21,.21,0,3.13,0,6.25,0,9.38,0,.18,.06,.22,.23,.22,2.11,0,4.21,0,6.32,0Zm-3.27,3.26c0-.9-.74-1.63-1.63-1.64-.89,0-1.63,.74-1.63,1.63,0,.9,.73,1.64,1.63,1.64,.89,0,1.63-.74,1.63-1.63Zm9.8,0c0-.89-.74-1.63-1.64-1.63-.89,0-1.63,.74-1.63,1.64,0,.9,.74,1.64,1.63,1.63,.89,0,1.63-.74,1.63-1.64Z"/>
              <path class="cls-2" d="M81.27,224.85c-.02,.64-.22,1.21-.69,1.67-1.85,1.85-3.7,3.7-5.55,5.55-.1,.1-.2,.11-.33,.11-2.82,0-5.2,1.63-6.2,4.23-.3,.78-.43,1.58-.41,2.42,0,.14-.04,.24-.14,.33-1.73,1.73-3.46,3.45-5.19,5.18-.09,.09-.13,.17-.11,.31,.17,1.19,.33,2.39,.5,3.58,.03,.19,0,.33-.15,.47-.47,.46-.93,.93-1.39,1.4-.12,.12-.16,.12-.25-.03-.89-1.61-1.78-3.22-2.67-4.84-.07-.13-.16-.22-.29-.29-1.62-.89-3.23-1.79-4.85-2.68-.16-.09-.15-.14-.03-.26,.5-.49,.99-1,1.48-1.5,.07-.07,.14-.11,.25-.09,1.26,.19,2.52,.37,3.78,.56,.13,.02,.2-.01,.28-.1,2.02-2.02,4.04-4.05,6.06-6.06,.13-.13,.09-.17-.05-.24-3.93-2.06-7.85-4.13-11.78-6.19-.15-.08-.17-.11-.04-.24,.69-.67,1.36-1.34,2.04-2.02,.1-.1,.19-.13,.33-.1,3.28,.76,6.57,1.52,9.85,2.28,1.61,.37,3.23,.74,4.84,1.12,.14,.03,.2-.04,.28-.11,2.07-2.08,4.15-4.15,6.23-6.23,.86-.86,2.27-.94,3.22-.2,.6,.47,.96,1.2,.96,1.96Z"/>
            </g>
          </g>
          <g id="nVTTIy.tif">
            <g>
              <path class="cls-2" d="M101.57,257.86c0,.37-.1,.49-.48,.49-4.05-.01-8.09,0-12.14,0-.28,0-.42-.08-.53-.36-.31-.79-.74-1.46-1.26-2,.02,0,.05-.01,.07-.02,2.24-.55,3.74-2.48,3.75-4.84,0-3.76,0-7.52,0-11.28,0-.37-.02-.74-.11-1.1h9c1.1,.35,1.68,1.1,1.68,2.24,.01,5.62,0,11.25,.01,16.87Z"/>
              <path class="cls-2" d="M111.29,245.56c-.46-.66-1.05-1.01-1.89-1-1.9,.03-3.8,.03-5.7,0-.5,0-.64,.13-.64,.64,.02,3.4,.01,6.79,.02,10.19,0,.17-.06,.36,.07,.54,.06-.02,.12-.03,.16-.06,2.85-2.65,7.43-1.3,8.47,2.29,.03,.12,.06,.23,.2,.28,.42,.18,1.78-.05,2.11-.36v-7.05c-.59-2-1.62-3.77-2.8-5.46Zm.32,3.94c-.99-.01-1.98,0-2.97,0s-1.98-.02-2.97,.01c-.47,.01-.59-.15-.57-.59,.03-.87,.02-1.74,0-2.6,0-.37,.12-.49,.48-.48,1.27,.02,2.54,.01,3.82,0,.33,0,.59,.11,.78,.38,.64,.91,1.22,1.85,1.75,2.83,.23,.43,.04,.46-.32,.46Z"/>
              <path class="cls-2" d="M110.67,258.94c-.3-1.86-1.98-3.23-3.92-3.2-1.96,.03-3.55,1.48-3.8,3.49-.23,1.82,1.02,3.63,2.85,4.14,.17,.05,.37,.01,.51,.16h1.09c.15-.18,.37-.13,.56-.19,1.89-.59,3.02-2.42,2.71-4.4Zm-3.86,2.48c-.97-.01-1.77-.81-1.79-1.78-.02-.99,.8-1.82,1.8-1.83,1.01,0,1.81,.79,1.81,1.8,0,1-.82,1.82-1.82,1.8Z"/>
            </g>
          </g>
        </g>
        <g>
          <path class="cls-2" d="M268.83,134.09c-.34,.39-.12,1.27-1.05,1.14-.93-.13-1.8-.31-1.92-1.49-.04-.33-.11-.65,.29-.79,1.04-.35,1.55-1.51,2.66-1.7,.19-.04,.45,.29,.43,.63-.54,.64,.16,1.53-.41,2.2Z"/>
          <path class="cls-2" d="M271.07,128.65c-.09,.18-.15,.37-.17,.37-.4-.09-.93-.06-1.16-.32-.36-.39-.48-.99-.13-1.5,.26-.4,.66-.4,.79,.03,.16,.52-.16,1.22,.68,1.42Z"/>
          <path class="cls-2" d="M271.71,130.73c-.06,.37-.21,.73-.68,.83-.28-.25-.87-.27-.86-.68,.03-.61,.71-.46,1.1-.62,.34-.15,.48,.18,.43,.48Z"/>
          <path class="cls-2" d="M277.91,117.36c-.07,.37-.49,.48-.83,.56-.22,.06-.51-.17-.44,.37,.2,1.69-.31,2.49-1.93,3.04-.65,.22-1.19,.49-1.69,1.19-.55-1.34,.21-1.83,1.01-2.14,1.19-.45,2-1.07,1.97-2.48-.02-.8,.76-1.42,1.24-1.08,.23,.16,.73,.16,.66,.54Z"/>
          <path class="cls-2" d="M257.32,121.47c0,.43-.35,.77-.77,.77-.42,0-.77-.35-.77-.77s.35-.77,.77-.77c.42,0,.78,.35,.77,.77Z"/>
          <path class="cls-2" d="M273.22,117.81c-.42-.64-1.05-1.15-1.77-1.43-.78-.31-1.66-.35-2.51-.39-1.46-.06-2.96-.13-4.4,.16-.14,.03-.26,.07-.38,.11-.48,.16-.82,.23-1.62-.25l.15-.25-.15,.25c-.14-.09-.28-.17-.42-.26-.15,.2-.28,.41-.37,.65-.4,1.03,.04,2.17,.48,2.95,.21,.38,.47,.76,.71,1.12,.37,.55,.75,1.13,1.03,1.76,1.09,2.46,.68,4.49-.02,7.08l-.57-.15c.69-2.55,1.06-4.4,.05-6.69-.26-.58-.61-1.11-.99-1.67-.25-.37-.51-.76-.73-1.16-.15-.27-.3-.57-.42-.91-2.85-.88-5.67-1.23-7.97-.99l-.35,.04c-1.73,.19-3.68,.41-4.93-.88-.35-.36-.61-.82-.86-1.26-.32-.56-.62-1.09-1.06-1.4l.12-.18c-.19,.12-.36,.26-.53,.4-.43,.35-.13,.86,.22,1.23,.05,.05,.09,.17,.06,.22-.19,.28-.26,.54-.27,.79l.13-.22c.52,.3,1.18,.61,1.82,.91,.65,.31,1.32,.62,1.86,.93,.51,.29,1.04,.6,1.61,.7,.56,.1,1.13,0,1.73-.11,.25-.04,.51-.09,.76-.12,.66-.08,1.9-.02,3.06,.28,1.43,.37,2.29,1.01,2.51,1.83,.39,1.49-1.48,3.15-2.6,4.14-.12,.11-.23,.21-.33,.3-.4,.37-.71,.59-1.02,.81-.3,.22-.59,.42-.96,.77l-.17-.19c.04,.08,.06,.14,.05,.2-.16,1.21,.75,2.03,.96,3.09,.06,.3,.16,.65,.55,.67,.39,.03,.47-.35,.68-.56,.55-.59,.11-1.51,.54-1.97,.8-.88,1.63-1.78,2.72-2.38,.33-.18,.53-.23,.75,.16,.29,.5,.76,.89,.74,1.56-.02,.25,.05,.72,.37,.6,1.08-.4,.99,.68,.95,.94-.16,1.24,.32,2.27,.79,3.35-.41-.25-.7-.63-1.14-.79-.2-.07-.4-.06-.54,.1-.13,.14-.08,.29,.03,.42,1.51,1.78,2.24,4.45,5.22,4.55,.42,.02,.98,.63,1.2,0,.16-.43-.68-.33-.95-.67-.07-.1-.29-.09-.44-.11-.65-.05-1.43,.11-1.39-.95,.02-.72-1-.93-.86-1.71,.18-.95,.05-1.74-.78-2.39-.39-.31-.85-1-.34-1.43,.54-.44,.93,.38,1.1,.68,.39,.71,.53,.48,.98,.06,1.19-1.11,1.28-1.63,.23-2.9-.22-.26-.43-.45-.2-.8,.16-.22,.36-.62,.58-.49,.79,.47,1.24-.21,1.83-.42,2.14-.79,2.87-2.21,2.24-4.37-.07-.22-.28-.46-.08-.66,1.05-.99,.08-1-.65-1.11,.94-.63,2.02-.29,2.19,.66,.1,.56,.16,1.07,.89,.89,.91-.23,.44-.82,.26-1.3-.3-.82,.13-1.51,.63-1.82Zm-3.39-13.91c-.42,0-.77,.35-.77,.77s.35,.77,.77,.77c.43,0,.77-.34,.77-.77,0-.42-.35-.77-.77-.77Zm-16.01,2.34c-.34,0-.64,.23-.73,.54,.1,.16,.22,.3,.37,.42,.27,.2,.52,.34,.77,.46h0c.21-.13,.36-.37,.36-.65,0-.42-.35-.77-.77-.77Zm1.8,3.28c-.19-.38-.4-.62-.64-.8-.28,.49-.59,.95-.91,1.41,.32,.11,.64,.24,.94,.36,.44,.18,.77,.33,1.08,.49,.19,.1,.36,.19,.53,.29l.03,.02c.07,.04,.14,.08,.21,.13-.5-.61-.88-1.18-1.24-1.9Zm6.01,5.91c-1.37-.87-2.53-1.72-3.63-2.78-.24-.02-.48-.1-.73-.23-.16-.09-.33-.2-.52-.36-.12-.1-.26-.18-.4-.26l-.03-.02c-.16-.09-.32-.18-.5-.27-.3-.15-.62-.29-1.04-.47-.56-.24-1.17-.47-1.8-.6-1-.21-2.04-.14-3.05-.08l-.04-.58c1.05-.06,2.14-.13,3.21,.09,.11,.02,.22,.05,.33,.08-.26-.38-.51-.76-.73-1.16-.19-.33-.37-.68-.5-1.04-.07-.21-.13-.42-.13-.64,0-.28,.07-.54,.19-.78h0c-.1-.37-.14-.76-.16-1.16-.18-.04-.34-.09-.5-.13-1.49-.41-1.94-.07-2.05,1.53-.03,.39,0,.79-.04,1.18-.14,1.11,.53,2.16,.22,3.26-.19,.65-.13,1.22,.16,1.82,.32,.65,.48,1.19-.65,1.06-.54-.06-1.09-.07-1.63-.17-.38-.07-.71,0-1.01,.15,.47,.38,.79,.94,1.09,1.48,.25,.43,.48,.84,.77,1.14,1.05,1.08,2.85,.88,4.44,.71l.35-.04c2.27-.24,5.04,.08,7.83,.9-.13-.6-.13-1.24,.11-1.87,.11-.28,.25-.52,.42-.75Zm8.21-11.53c-.42,0-.77,.35-.77,.77s.35,.77,.77,.77c.43,0,.77-.34,.77-.77,0-.42-.35-.77-.77-.77Zm-7.62,7.03c-.42,0-.77,.35-.77,.77s.35,.77,.77,.77c.43,0,.77-.34,.77-.77,0-.42-.35-.77-.77-.77Zm-4.45,12.16s0,0,0,.01c.6-.69,1.05-1.44,.89-2.06-.21-.81-1.4-1.23-2.09-1.41-1.04-.27-2.22-.34-2.85-.26-.24,.03-.49,.07-.73,.12-.62,.11-1.27,.22-1.93,.11-.67-.12-1.27-.46-1.8-.76-.52-.3-1.18-.61-1.82-.91-.57-.27-1.15-.54-1.65-.81,.14,.57,.55,1.11,.7,1.71-.64,.36-1.84-.58-1.83,.93-.19-.02-.39-.08-.56-.03-.67,.18-1.84-.09-1.93,.45-.2,1.14-.85,2.35-.22,3.54,.87,1.65,2.11,3.11,2.64,4.96,.14,.51,.47,.52,.92,.37,1.32-.44,2.51-1.1,3.54-2.03,.37-.34,.73-.68,.91-1.21,.21-.66-.6-.71-.71-1.14h2.16c.46,0,1.96,1.09,2.55,1.8,.38-.35,.69-.56,.98-.78,.3-.22,.59-.42,.96-.77,.1-.09,.21-.19,.34-.3,.02-.02,.03-.03,.05-.04-.3-.43-.59-.86-.85-1.32-.19-.33-.37-.68-.5-1.04-.07-.21-.13-.42-.13-.64,0-.82,.59-1.53,1.39-1.69,.94-.19,1.85,.39,2.06,1.33,.07,.31,.05,.61-.05,.91-.11,.35-.27,.68-.45,.99Zm34.36-16.64c-1-.28-1.88-.87-2.82-1.32-.3-.14-.62-.28-.94-.37-.39-.12-.8-.2-1.24-.2-.1,0-.2,.01-.29,.03-.37,.07-.67,.25-.98,.33-.09,.03-.18,.04-.27,.04-1.94,0-3.72-1.07-5.69-1.06-.2,0-.4-.22-.61-.3-.97-.4-2.25-.99-2.95-.41-1.08,.89-2.32,.2-3.31,.81-.14,.09-.4-.04-.45-.26-.23-.93-.87-1.6-1.47-1.24-1.51,.9-2.79-.7-4.22-.07,.29-.51,.88-.7,.57-1.38-.29-.63-.84-.42-1.3-.54-1.35-.39-2.62-.52-3.76,.5-.1,.09-.31,.09-.46,.07-2.05-.46-3.36,1.43-5.21,1.63-.06,0-.11,.1-.16,.16-.68,1.02-1.57,.75-2.4,.32-.99-.5-1.77-.14-1.91,.98-.01,.1,0,.21,.01,.31h.4c0,.44,0,.87,.06,1.27,.21-.16,.45-.28,.72-.34,.94-.19,1.85,.39,2.06,1.33,.07,.31,.05,.61-.05,.91-.06,.19-.14,.37-.22,.56,.32,.22,.62,.54,.88,1.06,.41,.82,.85,1.45,1.5,2.18,1.32,1.45,2.65,2.46,4.36,3.54,.01-.01,.03-.03,.04-.04-.34-.47-.66-.96-.95-1.47-.19-.33-.37-.68-.5-1.04-.07-.21-.13-.42-.13-.64,0-.82,.59-1.53,1.39-1.69,.94-.19,1.85,.39,2.06,1.33,.07,.31,.05,.61-.05,.91-.11,.35-.27,.68-.45,.99-.1,.17-.2,.35-.3,.52,.16-.17,.3-.36,.42-.55,.37-.6,.52-1.3,.68-2.05,.13-.62,.27-1.27,.54-1.86,.77-1.64,2.64-2.57,4.34-2.3-.14-.21-.27-.42-.39-.64-.19-.33-.37-.68-.5-1.04-.07-.21-.13-.42-.13-.64,0-.82,.59-1.53,1.39-1.69,.94-.19,1.85,.39,2.06,1.33,.07,.31,.05,.61-.05,.91-.11,.35-.27,.68-.45,.99-.23,.42-.49,.81-.75,1.2,.07,.04,.15,.08,.22,.12,.28,.15,.54,.3,.83,.38,.6,.16,1.27-.01,1.86-.16l6.42-1.65c1.47-.38,3.14-.8,4.77-.46,.78,.16,1.49,.49,2.18,.86,.29,.15,.57,.32,.85,.48,.22,.13,.45,.26,.68,.38,.24,.13,.48,.26,.73,.38l-.25,.53c-.28-.13-.55-.28-.81-.42-.18-.1-.36-.2-.53-.3,0,0,0,0,0,0-.04-.02-.07-.04-.11-.06-.95-.54-1.85-1.06-2.86-1.27-1.5-.31-3.1,.1-4.51,.46l-6.42,1.64c-.63,.16-1.41,.36-2.16,.16-.35-.09-.66-.27-.96-.43-.09-.05-.18-.1-.27-.15-.04,.05-.07,.11-.11,.16,0,0,0,0,0,0-.05-.07-.1-.14-.15-.22-.03-.04-.05-.07-.08-.11-1.55-.6-3.57,.24-4.31,1.81-.25,.53-.37,1.12-.5,1.73-.16,.76-.32,1.55-.75,2.24-.3,.48-.7,.87-1.09,1.26-.15,.15-.29,.29-.43,.44,.11,.07,.22,.14,.34,.21,.62,.37,.79,.32,1.13,.2,.12-.04,.27-.09,.45-.13,1.51-.3,3.05-.23,4.55-.17,.86,.04,1.82,.08,2.7,.43,.83,.33,1.56,.92,2.05,1.67l-.36,.23c.05-.02,.1-.04,.15-.06,2.08-.63,2.64-2.28,3.08-4.04,.16-.61,0-1.35-.99-1.07-.51,.14-.58-.07-.4-.47,.35-.77,2.14-1.62,2.95-1.78,1.06-.22,2.34,.78,3.22-.58,.22-.32,.62-.99,1.21-.35,.6,.66-.24,.77-.49,1.01-1.02,.94-1.27,1.97-.69,3.25,.1,.23,.38,.51,.48,.3,.51-.99,1.74-1.46,1.89-2.67,.16-1.26,.57-1.71,1.76-1.45,.94,.2,1.36-.47,1.96-.81,.55-.31,1.6,.05,1.51-1.27-.04-.61,.85-.65,1.44-.43,.22,.08,.38,.29,.59,.38,.72,.31,.87-.48,1.32-.73,.27-.15-.02-.47-.22-.52Z"/>
          <path class="cls-2" d="M298.31,116.73c-.47-15.88-13.55-29.85-30.99-29.78-16.72,.08-30.56,13.49-30.67,30.84-.06,16.92,13.78,30.82,30.78,30.87,17.03,.04,31.42-13.96,30.88-31.93Zm-18.65-25.25c1.83,.75,3.44,1.89,5.14,3.09-1.15,.52-2,.63-2.84-.46-.69-.91-1.66-1.61-2.51-2.4,.07-.08,.14-.16,.21-.23Zm1.05,3.99c-1.85,.53-3.55,.5-5.2,.79-.54,.1-.62-.3-.76-.68-.77-2.05-1.57-4.09-3.04-6.13,3.74,1.13,6.51,3.18,9,6.03Zm-10.77-5.25c1.36,1.62,2.16,3.53,2.88,5.49,.26,.73-.1,.8-.65,.8h-4.7c-1.57,0-3.14,0-4.71,0-.47,0-.86-.02-.61-.72,.72-1.96,1.51-3.88,2.85-5.51,1.57-1.9,3.37-1.92,4.94-.05Zm-9.65,5.32c-.19,.61-.52,.8-1.11,.72-1.32-.18-2.65-.32-3.96-.52-.55-.08-1.06-.23-.4-.92,2.31-2.4,4.95-4.3,8.48-5.42-1.47,2.05-2.35,4.05-3.01,6.14Zm-4.88-4c-1,1.04-2.02,2.03-2.94,3.14-.72,.87-1.4-.09-2.15-.04,1.56-1.32,3.19-2.43,5.09-3.1Zm-13.41,12.42c1.6-2.81,3.55-5.35,5.92-7.57,.26-.23,.5-.37,.85-.25,.08,0,.15,.02,.23,.03,2.3,.63,1.98,.41,.98,2.09-1.48,2.46-2.68,5.07-3.42,7.85-.24,.9-.59,1.12-1.46,.71-.92-.44-1.86-.83-2.72-1.38-.59-.37-.74-.82-.37-1.48Zm2.21,31.07c1.78,.48,3.28,.89,4.78,1.29,.33,.09,.53,.3,.69,.59,1.59,2.63,3.43,5.05,5.71,7.16-4.4-2.03-8.11-4.91-11.18-9.04Zm7.76,1.98c2.55,.25,4.8,.48,7.06,.68,.42,.04,.65,.24,.75,.62,.73,2.68,1.72,5.25,3.2,7.65-4.8-1.48-8.21-4.63-11.01-8.95Zm19.9,9.16c.88-1.75,1.85-3.16,2.34-4.78,.29-.93,.63-1.85,.92-2.78,.15-.5,.39-.83,.95-.88,2.24-.21,4.48-.43,6.94-.67-2.74,4.28-6.17,7.39-11.15,9.12Zm4.21-11.24c.75-3.1,1.01-6.27,1.38-9.43,.08-.68,.21-1.02,1-1.1,2.89-.29,5.78-.57,8.62-1.19,.73-.16,.92,.04,.78,.75-.71,3.51-1.56,6.97-3.22,10.18-.2,.38-.36,.74-.89,.81-2.29,.3-4.58,.66-6.87,.99-.93,.16-.99-.29-.81-1.03Zm3.55,9.16c.93-1.15,2.12-2.08,2.97-3.29,.44-.65,1.11-1.19,1.38-1.89,1.19-2.99,4.01-2.92,6.69-3.76-3.02,4.11-6.72,6.91-11.05,8.95Zm15.25-16.68c-.26,.73-.63,1.44-.86,2.19-1.09,3.55-4.28,3.79-7.26,4.72,.54-1.7,1.18-3.16,1.64-4.69,.6-1.96,.98-3.96,1.3-5.97,.13-.76,.42-1.18,1.19-1.35,1.88-.4,3.63-1.15,5.45-2.14-.14,2.6-.68,4.95-1.48,7.24Zm.69-9.05c-1.44,1.08-3.15,1.57-4.82,2.14-.75,.25-.74-.31-.74-.8,0-1.62-.02-3.23-.03-4.83,0-1.34-.22-2.65-.43-3.98-.11-.72-.37-1.07-1.14-.93-.76,.14-.8,.61-.68,1.23,.55,2.95,.57,5.92,.49,8.92-.03,.79-.31,1.11-1.06,1.25-2.9,.56-5.81,.94-8.73,1.28-.27,.03-.57,.08-.72-.24-.13-.3,.06-.92-.36-.87-.5,.04-.98,.42-1.46,.67-1.23,.64-2.31,1.87-3.93,.93-.42-.24-.72,.07-.72,.48,0,.55,.13,1.14,.87,1.16,.9,0,1.81,0,2.71-.04,.61-.02,.81,.19,.77,.83-.22,3.22-.72,6.39-1.41,9.54-.18,.82-.55,1.12-1.37,1.07-.86-.04-1.73,.03-2.59,.07-.38,0-.74,0-.93,.5-.46,1.27-.41,1.39,.97,1.38,.67,0,1.34,0,2.01-.1,.86-.11,1.24-.02,.87,1.01-.79,2.18-1.56,4.36-3.05,6.19-1.72,2.11-3.58,2.08-5.24-.06-1.46-1.9-2.27-4.11-3.05-6.33-.28-.79,.1-.85,.73-.83,1.16,.04,2.32,0,3.48,0,.04-.1,.08-.21,.11-.33-1.22,.1-2.03-.52-2.75-1.31-.16-.17-.53-.23-.77-.2-1.37,.22-1.74-.54-1.92-1.71-.3-1.86-.74-3.69-.94-5.57-.04-.45,.22-1.24-.54-1.19-.64,.03-1.05,.68-1.15,1.32-.08,.45,.02,.94,.09,1.4,.25,1.55,.48,3.1,.81,4.64,.18,.85-.16,.94-.84,.85-2.18-.32-4.35-.63-6.53-.93-.64-.09-1.05-.41-1.31-1.01-.56-1.3-1.19-2.57-1.58-3.93-.13-.44-.25-.96-.95-.67-.57,.24-1.13,.44-.82,1.25,.43,1.13,.85,2.27,1.27,3.42-3.09,.1-6.17-1.98-7.31-4.76-1.07-2.6-1.84-5.26-2.15-8.05-.04-.29-.24-.67,.08-.87,.24-.16,.49,.14,.74,.22,.43,.12,.92,.93,1.27,.22,.27-.54,.57-1.41-.48-1.87-1.42-.61-1.97-1.69-1.77-3.31,.33-2.71,.84-5.34,1.75-7.91,.31-.91,.73-1.06,1.52-.49,.88,.67,1.91,1.1,2.97,1.42,.79,.24,1.11,.57,.84,1.43-.21,.63-.27,1.31-.33,1.97-.04,.37-.37,1.05,.29,1.03,.61-.02,1.37-.22,1.56-1.01,.13-.53,.12-1.09,.23-1.62,.06-.29,.04-.73,.42-.76,1.05-.08,.74-.88,.58-1.3-.4-1.03-.11-2.01,.22-2.87,1.04-2.62,2.15-5.22,3.76-7.58,.39-.56,.74-.76,1.44-.62,1.58,.3,3.18,.54,4.77,.7,.79,.07,.88,.34,.73,1.04-.09,.37-.57,1.02,.14,1.19,.57,.14,1.43,.05,1.57-.7,.23-1.32,1.08-1.28,2.08-1.21,3.02,.2,6.05,.19,9.06-.04,1.16-.09,1.66,.34,1.85,1.39,.11,.66,.26,1.31,.43,1.95,.1,.37,.03,.99,.73,.78,.61-.18,1.26-.35,1.04-1.26-.19-.76-.29-1.54-.5-2.3-.15-.55-.03-.75,.57-.82,1.63-.19,3.28-.42,4.9-.72,.74-.13,1.14,.1,1.53,.71,.96,1.49,1.87,3.01,2.5,4.66,.27,.72,.73,.85,1.23,.82,.16,0,.33-.04,.49-.07,.31-.06,.43-.2,.45-.37,.03-.24-.15-.54-.25-.75-.71-1.44-1.36-2.92-2.21-4.29-.24-.38-.85-.73-.44-1.31,.32-.45,2.16-.72,2.53-.39,2.4,2.24,4.45,4.76,5.99,7.66,.12,.22,.24,.45,.05,.66-.79,.85,.09,1.29,.54,1.53,.6,.32,.82,.78,1.04,1.31,1.13,2.88,1.7,5.87,1.88,8.95,.04,.84-.27,1.44-.91,1.92Z"/>
        </g>
      </g>
      <path class="cls-9" d="M154.94,110.05c-21.19,0-38.36,17.17-38.36,38.36s17.17,38.36,38.36,38.36,38.36-17.17,38.36-38.36-17.17-38.36-38.36-38.36Zm0,69.07c-16.96,0-30.71-13.75-30.71-30.71s13.75-30.71,30.71-30.71,30.71,13.75,30.71,30.71-13.75,30.71-30.71,30.71Z"/>
    </g>
  </g>
</svg>